<svg width="156" height="143" viewBox="0 0 156 143" fill="none" xmlns="http://www.w3.org/2000/svg">
<path d="M7.38 18.12C3.36 18.12 0.84 15.28 0.84 11C0.84 6.76 3.46 3.88 7.52 3.88C10.62 3.88 12.88 5.68 13.4 8.58H11.56C11.02 6.64 9.54 5.48 7.44 5.48C4.5 5.48 2.62 7.76 2.62 11C2.62 14.22 4.42 16.52 7.36 16.52C9.52 16.52 11.02 15.38 11.54 13.42H13.38C12.86 16.32 10.54 18.12 7.38 18.12ZM19.9411 18.12C16.9611 18.12 14.8811 16 14.8811 12.9C14.8811 9.8 16.9611 7.68 19.9411 7.68C22.9211 7.68 25.0011 9.8 25.0011 12.9C25.0011 16 22.9211 18.12 19.9411 18.12ZM19.9411 16.66C21.9611 16.66 23.3211 15.08 23.3211 12.9C23.3211 10.72 21.9611 9.14 19.9411 9.14C17.9211 9.14 16.5611 10.72 16.5611 12.9C16.5611 15.08 17.9211 16.66 19.9411 16.66ZM27.7217 6.08C27.1217 6.08 26.6617 5.64 26.6617 5.02C26.6617 4.4 27.1217 3.96 27.7217 3.96C28.3217 3.96 28.7817 4.4 28.7817 5.02C28.7817 5.64 28.3217 6.08 27.7217 6.08ZM26.8817 18V7.8H28.5217V18H26.8817ZM35.7684 7.68C38.0684 7.68 39.8884 8.94 39.8884 12.32V18H38.2484V12.42C38.2484 10.3 37.2684 9.18 35.4884 9.18C33.5684 9.18 32.4084 10.6 32.4084 12.9V18H30.7684V7.8H32.1884L32.4084 9.18C33.0084 8.4 34.0484 7.68 35.7684 7.68Z" fill="#131313"/>
<rect x="21" y="38" width="15" height="15" fill="#131313"/>
<rect x="36" y="83" width="15" height="15" fill="#131313"/>
<rect x="21" y="68" width="15" height="15" fill="#131313"/>
<rect x="21" y="98" width="15" height="15" fill="#131313"/>
<rect x="36" y="38" width="15" height="15" fill="#131313"/>
<rect x="96" y="38" width="15" height="15" fill="#131313"/>
<rect x="96" y="128" width="15" height="15" fill="#131313"/>
<rect x="51" y="83" width="15" height="15" fill="#131313"/>
<rect x="111" y="38" width="15" height="15" fill="#131313"/>
<rect x="96" y="53" width="15" height="15" fill="#131313"/>
<rect x="81" y="68" width="15" height="15" fill="#131313"/>
<rect x="81" y="98" width="15" height="15" fill="#131313"/>
<rect x="96" y="113" width="15" height="15" fill="#131313"/>
<rect x="36" y="128" width="15" height="15" fill="#131313"/>
<rect x="81" y="83" width="15" height="15" fill="#131313"/>
<rect x="21" y="128" width="15" height="15" fill="#131313"/>
<rect x="111" y="128" width="15" height="15" fill="#131313"/>
<rect x="96" y="83" width="15" height="15" fill="#131313"/>
<rect x="111" y="98" width="15" height="15" fill="#131313"/>
<rect x="111" y="68" width="15" height="15" fill="#131313"/>
<rect x="66" y="83" width="15" height="15" fill="#131313"/>
<rect x="51" y="98" width="15" height="15" fill="#131313"/>
<rect x="36" y="113" width="15" height="15" fill="#131313"/>
<rect x="51" y="68" width="15" height="15" fill="#131313"/>
<rect x="36" y="53" width="15" height="15" fill="#131313"/>
<path d="M147.32 3.77669L148.096 4.55338L147.32 5.33006L146.543 4.55338L147.32 3.77669Z" fill="#131313"/>
<path d="M145.766 3.77669L146.543 4.55338L145.766 5.33006L144.99 4.55338L145.766 3.77669Z" fill="#131313"/>
<path d="M146.543 4.55338L147.32 5.33006L146.543 6.10675L145.766 5.33006L146.543 4.55338Z" fill="#131313"/>
<path d="M145.766 5.33006L146.543 6.10675L145.766 6.88344L144.99 6.10675L145.766 5.33006Z" fill="#131313"/>
<path d="M147.32 5.33006L148.096 6.10675L147.32 6.88344L146.543 6.10675L147.32 5.33006Z" fill="#131313"/>
<path d="M147.32 6.88344L148.096 7.66013L147.32 8.43681L146.543 7.66013L147.32 6.88344Z" fill="#131313"/>
<path d="M147.32 8.43681L148.096 9.2135L147.32 9.99019L146.543 9.2135L147.32 8.43681Z" fill="#131313"/>
<path d="M146.543 6.10675L147.32 6.88344L146.543 7.66013L145.766 6.88344L146.543 6.10675Z" fill="#131313"/>
<path d="M146.543 7.66013L147.32 8.43681L146.543 9.2135L145.766 8.43681L146.543 7.66013Z" fill="#131313"/>
<path d="M146.543 9.2135L147.32 9.99019L146.543 10.7669L145.766 9.99019L146.543 9.2135Z" fill="#131313"/>
<path d="M147.32 9.99019L148.096 10.7669L147.32 11.5436L146.543 10.7669L147.32 9.99019Z" fill="#131313"/>
<path d="M148.096 10.7669L148.873 11.5436L148.096 12.3203L147.32 11.5436L148.096 10.7669Z" fill="#131313"/>
<path d="M149.65 10.7669L150.426 11.5436L149.65 12.3203L148.873 11.5436L149.65 10.7669Z" fill="#131313"/>
<path d="M151.203 10.7669L151.98 11.5436L151.203 12.3203L150.426 11.5436L151.203 10.7669Z" fill="#131313"/>
<path d="M152.756 10.7669L153.533 11.5436L152.756 12.3203L151.98 11.5436L152.756 10.7669Z" fill="#131313"/>
<path d="M153.533 11.5436L154.31 12.3203L153.533 13.0969L152.756 12.3203L153.533 11.5436Z" fill="#131313"/>
<path d="M148.873 9.99019L149.65 10.7669L148.873 11.5436L148.096 10.7669L148.873 9.99019Z" fill="#131313"/>
<path d="M150.426 9.99019L151.203 10.7669L150.426 11.5436L149.65 10.7669L150.426 9.99019Z" fill="#131313"/>
<path d="M151.98 9.99019L152.756 10.7669L151.98 11.5436L151.203 10.7669L151.98 9.99019Z" fill="#131313"/>
<path d="M153.533 9.99019L154.31 10.7669L153.533 11.5436L152.756 10.7669L153.533 9.99019Z" fill="#131313"/>
<path d="M145.766 6.88344L146.543 7.66013L145.766 8.43681L144.99 7.66013L145.766 6.88344Z" fill="#131313"/>
<path d="M145.766 8.43681L146.543 9.2135L145.766 9.99019L144.99 9.2135L145.766 8.43681Z" fill="#131313"/>
<path d="M145.766 9.99019L146.543 10.7669L145.766 11.5436L144.99 10.7669L145.766 9.99019Z" fill="#131313"/>
<path d="M144.213 9.99019L144.99 10.7669L144.213 11.5436L143.436 10.7669L144.213 9.99019Z" fill="#131313"/>
<path d="M142.66 9.99019L143.436 10.7669L142.66 11.5436L141.883 10.7669L142.66 9.99019Z" fill="#131313"/>
<path d="M141.106 9.99019L141.883 10.7669L141.106 11.5436L140.329 10.7669L141.106 9.99019Z" fill="#131313"/>
<path d="M144.99 10.7669L145.766 11.5436L144.99 12.3203L144.213 11.5436L144.99 10.7669Z" fill="#131313"/>
<path d="M143.436 10.7669L144.213 11.5436L143.436 12.3203L142.66 11.5436L143.436 10.7669Z" fill="#131313"/>
<path d="M141.883 10.7669L142.66 11.5436L141.883 12.3203L141.106 11.5436L141.883 10.7669Z" fill="#131313"/>
<path d="M140.329 10.7669L141.106 11.5436L140.329 12.3203L139.553 11.5436L140.329 10.7669Z" fill="#131313"/>
<path d="M139.553 9.99019L140.329 10.7669L139.553 11.5436L138.776 10.7669L139.553 9.99019Z" fill="#131313"/>
<path d="M144.213 11.5436L144.99 12.3203L144.213 13.0969L143.436 12.3203L144.213 11.5436Z" fill="#131313"/>
<path d="M142.66 11.5436L143.436 12.3203L142.66 13.0969L141.883 12.3203L142.66 11.5436Z" fill="#131313"/>
<path d="M141.106 11.5436L141.883 12.3203L141.106 13.0969L140.329 12.3203L141.106 11.5436Z" fill="#131313"/>
<path d="M139.553 11.5436L140.329 12.3203L139.553 13.0969L138.776 12.3203L139.553 11.5436Z" fill="#131313"/>
<path d="M146.543 10.7669L147.32 11.5436L146.543 12.3203L145.766 11.5436L146.543 10.7669Z" fill="#131313"/>
<path d="M145.766 11.5436L146.543 12.3203L145.766 13.0969L144.99 12.3203L145.766 11.5436Z" fill="#131313"/>
<path d="M147.32 11.5436L148.096 12.3203L147.32 13.0969L146.543 12.3203L147.32 11.5436Z" fill="#131313"/>
<path d="M147.32 13.0969L148.096 13.8736L147.32 14.6503L146.543 13.8736L147.32 13.0969Z" fill="#131313"/>
<path d="M147.32 14.6503L148.096 15.427L147.32 16.2037L146.543 15.427L147.32 14.6503Z" fill="#131313"/>
<path d="M147.32 16.2037L148.096 16.9804L147.32 17.7571L146.543 16.9804L147.32 16.2037Z" fill="#131313"/>
<path d="M146.543 12.3203L147.32 13.0969L146.543 13.8736L145.766 13.0969L146.543 12.3203Z" fill="#131313"/>
<path d="M146.543 13.8736L147.32 14.6503L146.543 15.427L145.766 14.6503L146.543 13.8736Z" fill="#131313"/>
<path d="M146.543 15.427L147.32 16.2037L146.543 16.9804L145.766 16.2037L146.543 15.427Z" fill="#131313"/>
<path d="M146.543 16.9804L147.32 17.7571L146.543 18.5338L145.766 17.7571L146.543 16.9804Z" fill="#131313"/>
<path d="M147.32 17.7571L148.096 18.5338L147.32 19.3104L146.543 18.5338L147.32 17.7571Z" fill="#131313"/>
<path d="M145.766 13.0969L146.543 13.8736L145.766 14.6503L144.99 13.8736L145.766 13.0969Z" fill="#131313"/>
<path d="M145.766 14.6503L146.543 15.427L145.766 16.2037L144.99 15.427L145.766 14.6503Z" fill="#131313"/>
<path d="M145.766 16.2037L146.543 16.9804L145.766 17.7571L144.99 16.9804L145.766 16.2037Z" fill="#131313"/>
<path d="M145.766 17.7571L146.543 18.5338L145.766 19.3104L144.99 18.5338L145.766 17.7571Z" fill="#131313"/>
<path d="M148.873 11.5436L149.65 12.3203L148.873 13.0969L148.096 12.3203L148.873 11.5436Z" fill="#131313"/>
<path d="M150.426 11.5436L151.203 12.3203L150.426 13.0969L149.65 12.3203L150.426 11.5436Z" fill="#131313"/>
<path d="M151.98 11.5436L152.756 12.3203L151.98 13.0969L151.203 12.3203L151.98 11.5436Z" fill="#131313"/>
</svg>
