<svg width="156" height="143" viewBox="0 0 156 143" fill="none" xmlns="http://www.w3.org/2000/svg">
<path d="M6.3068 18H1.8268V4H6.3068C10.6868 4 13.3468 6.8 13.3468 11C13.3468 15.18 10.6868 18 6.3068 18ZM3.5668 5.6V16.4H6.3068C9.7068 16.4 11.5668 14.26 11.5668 11C11.5668 7.72 9.7068 5.6 6.3068 5.6H3.5668ZM19.9977 18.12C16.9377 18.12 14.9377 16.02 14.9377 12.9C14.9377 9.8 16.8977 7.68 19.7777 7.68C22.6577 7.68 24.5377 9.5 24.6177 12.52C24.6177 12.74 24.5977 12.98 24.5777 13.22H16.6577V13.36C16.7177 15.3 17.9377 16.66 19.8777 16.66C21.3177 16.66 22.4377 15.9 22.7777 14.58H24.4377C24.0377 16.62 22.3577 18.12 19.9977 18.12ZM16.7577 11.86H22.8577C22.6977 10.1 21.4977 9.12 19.7977 9.12C18.2977 9.12 16.9177 10.2 16.7577 11.86ZM31.1891 18.12C28.2091 18.12 26.1291 16 26.1291 12.9C26.1291 9.8 28.2091 7.68 31.1891 7.68C34.1691 7.68 36.2491 9.8 36.2491 12.9C36.2491 16 34.1691 18.12 31.1891 18.12ZM31.1891 16.66C33.2091 16.66 34.5691 15.08 34.5691 12.9C34.5691 10.72 33.2091 9.14 31.1891 9.14C29.1691 9.14 27.8091 10.72 27.8091 12.9C27.8091 15.08 29.1691 16.66 31.1891 16.66ZM43.1298 7.68C45.4298 7.68 47.2498 8.94 47.2498 12.32V18H45.6098V12.42C45.6098 10.3 44.6298 9.18 42.8498 9.18C40.9298 9.18 39.7698 10.6 39.7698 12.9V18H38.1298V7.8H39.5498L39.7698 9.18C40.3698 8.4 41.4098 7.68 43.1298 7.68ZM50.1007 15.34V9.3H48.2607V7.8H50.1007V4.94H51.7407V7.8H54.3807V9.3H51.7407V15.32C51.7407 16.18 52.0407 16.5 52.9207 16.5H54.5407V18H52.7607C50.8007 18 50.1007 17.14 50.1007 15.34ZM60.4079 18.12C57.4279 18.12 55.3479 16 55.3479 12.9C55.3479 9.8 57.4279 7.68 60.4079 7.68C63.3879 7.68 65.4679 9.8 65.4679 12.9C65.4679 16 63.3879 18.12 60.4079 18.12ZM60.4079 16.66C62.4279 16.66 63.7879 15.08 63.7879 12.9C63.7879 10.72 62.4279 9.14 60.4079 9.14C58.3879 9.14 57.0279 10.72 57.0279 12.9C57.0279 15.08 58.3879 16.66 60.4079 16.66ZM67.3485 18V4H68.9885V18H67.3485ZM75.9352 18.12C72.9552 18.12 70.8752 16 70.8752 12.9C70.8752 9.8 72.9552 7.68 75.9352 7.68C78.9152 7.68 80.9952 9.8 80.9952 12.9C80.9952 16 78.9152 18.12 75.9352 18.12ZM75.9352 16.66C77.9552 16.66 79.3152 15.08 79.3152 12.9C79.3152 10.72 77.9552 9.14 75.9352 9.14C73.9152 9.14 72.5552 10.72 72.5552 12.9C72.5552 15.08 73.9152 16.66 75.9352 16.66ZM90.9159 9.56L91.1359 7.8H92.5559V17.5C92.5559 20.44 90.9959 22.12 87.4959 22.12C84.8959 22.12 83.0759 20.9 82.8159 18.66H84.4959C84.7759 19.94 85.9159 20.66 87.6159 20.66C89.7559 20.66 90.9159 19.66 90.9159 17.44V16.24C90.2359 17.4 89.1359 18.12 87.4159 18.12C84.5959 18.12 82.5159 16.22 82.5159 12.9C82.5159 9.78 84.5959 7.68 87.4159 7.68C89.1359 7.68 90.2759 8.42 90.9159 9.56ZM87.5759 16.66C89.5759 16.66 90.9359 15.12 90.9359 12.94C90.9359 10.7 89.5759 9.14 87.5759 9.14C85.5559 9.14 84.1959 10.68 84.1959 12.9C84.1959 15.12 85.5559 16.66 87.5759 16.66ZM97.7499 18.06L93.7699 7.8H95.5099L98.6499 15.94L101.69 7.8H103.43L98.7299 19.72C98.0899 21.36 97.7099 22 96.2699 22H94.3099V20.5H95.7699C96.7099 20.5 96.8699 20.26 97.2499 19.3L97.7499 18.06Z" fill="#131313"/>
<rect x="37" y="53" width="15" height="15" fill="#131313"/>
<rect x="82" y="98" width="15" height="15" fill="#131313"/>
<rect x="22" y="68" width="15" height="15" fill="#131313"/>
<rect x="97" y="113" width="15" height="15" fill="#131313"/>
<rect x="67" y="53" width="15" height="15" fill="#131313"/>
<rect x="52" y="68" width="15" height="15" fill="#131313"/>
<rect x="37" y="83" width="15" height="15" fill="#131313"/>
<rect x="67" y="113" width="15" height="15" fill="#131313"/>
<rect x="52" y="98" width="15" height="15" fill="#131313"/>
<rect x="112" y="68" width="15" height="15" fill="#131313"/>
<rect x="67" y="83" width="15" height="15" fill="#131313"/>
<rect x="22" y="98" width="15" height="15" fill="#131313"/>
<rect x="52" y="128" width="15" height="15" fill="#131313"/>
<rect x="37" y="113" width="15" height="15" fill="#131313"/>
<rect x="22" y="38" width="15" height="15" fill="#131313"/>
<rect x="82" y="128" width="15" height="15" fill="#131313"/>
<rect x="52" y="38" width="15" height="15" fill="#131313"/>
<rect x="82" y="68" width="15" height="15" fill="#131313"/>
<rect x="112" y="98" width="15" height="15" fill="#131313"/>
<rect x="97" y="53" width="15" height="15" fill="#131313"/>
<rect x="82" y="38" width="15" height="15" fill="#131313"/>
<rect x="97" y="83" width="15" height="15" fill="#131313"/>
<rect x="112" y="128" width="15" height="15" fill="#131313"/>
<rect x="22" y="128" width="15" height="15" fill="#131313"/>
<rect x="112" y="38" width="15" height="15" fill="#131313"/>
<path d="M147.32 3.77669L148.096 4.55338L147.32 5.33006L146.543 4.55338L147.32 3.77669Z" fill="#131313"/>
<path d="M145.766 3.77669L146.543 4.55338L145.766 5.33006L144.99 4.55338L145.766 3.77669Z" fill="#131313"/>
<path d="M146.543 4.55338L147.32 5.33006L146.543 6.10675L145.766 5.33006L146.543 4.55338Z" fill="#131313"/>
<path d="M145.766 5.33006L146.543 6.10675L145.766 6.88344L144.99 6.10675L145.766 5.33006Z" fill="#131313"/>
<path d="M147.32 5.33006L148.096 6.10675L147.32 6.88344L146.543 6.10675L147.32 5.33006Z" fill="#131313"/>
<path d="M147.32 6.88344L148.096 7.66013L147.32 8.43681L146.543 7.66013L147.32 6.88344Z" fill="#131313"/>
<path d="M147.32 8.43681L148.096 9.2135L147.32 9.99019L146.543 9.2135L147.32 8.43681Z" fill="#131313"/>
<path d="M146.543 6.10675L147.32 6.88344L146.543 7.66013L145.766 6.88344L146.543 6.10675Z" fill="#131313"/>
<path d="M146.543 7.66013L147.32 8.43681L146.543 9.2135L145.766 8.43681L146.543 7.66013Z" fill="#131313"/>
<path d="M146.543 9.2135L147.32 9.99019L146.543 10.7669L145.766 9.99019L146.543 9.2135Z" fill="#131313"/>
<path d="M147.32 9.99019L148.096 10.7669L147.32 11.5436L146.543 10.7669L147.32 9.99019Z" fill="#131313"/>
<path d="M148.096 10.7669L148.873 11.5436L148.096 12.3203L147.32 11.5436L148.096 10.7669Z" fill="#131313"/>
<path d="M149.65 10.7669L150.426 11.5436L149.65 12.3203L148.873 11.5436L149.65 10.7669Z" fill="#131313"/>
<path d="M151.203 10.7669L151.98 11.5436L151.203 12.3203L150.426 11.5436L151.203 10.7669Z" fill="#131313"/>
<path d="M152.756 10.7669L153.533 11.5436L152.756 12.3203L151.98 11.5436L152.756 10.7669Z" fill="#131313"/>
<path d="M153.533 11.5436L154.31 12.3203L153.533 13.0969L152.756 12.3203L153.533 11.5436Z" fill="#131313"/>
<path d="M148.873 9.99019L149.65 10.7669L148.873 11.5436L148.096 10.7669L148.873 9.99019Z" fill="#131313"/>
<path d="M150.426 9.99019L151.203 10.7669L150.426 11.5436L149.65 10.7669L150.426 9.99019Z" fill="#131313"/>
<path d="M151.98 9.99019L152.756 10.7669L151.98 11.5436L151.203 10.7669L151.98 9.99019Z" fill="#131313"/>
<path d="M153.533 9.99019L154.31 10.7669L153.533 11.5436L152.756 10.7669L153.533 9.99019Z" fill="#131313"/>
<path d="M145.766 6.88344L146.543 7.66013L145.766 8.43681L144.99 7.66013L145.766 6.88344Z" fill="#131313"/>
<path d="M145.766 8.43681L146.543 9.2135L145.766 9.99019L144.99 9.2135L145.766 8.43681Z" fill="#131313"/>
<path d="M145.766 9.99019L146.543 10.7669L145.766 11.5436L144.99 10.7669L145.766 9.99019Z" fill="#131313"/>
<path d="M144.213 9.99019L144.99 10.7669L144.213 11.5436L143.436 10.7669L144.213 9.99019Z" fill="#131313"/>
<path d="M142.66 9.99019L143.436 10.7669L142.66 11.5436L141.883 10.7669L142.66 9.99019Z" fill="#131313"/>
<path d="M141.106 9.99019L141.883 10.7669L141.106 11.5436L140.329 10.7669L141.106 9.99019Z" fill="#131313"/>
<path d="M144.99 10.7669L145.766 11.5436L144.99 12.3203L144.213 11.5436L144.99 10.7669Z" fill="#131313"/>
<path d="M143.436 10.7669L144.213 11.5436L143.436 12.3203L142.66 11.5436L143.436 10.7669Z" fill="#131313"/>
<path d="M141.883 10.7669L142.66 11.5436L141.883 12.3203L141.106 11.5436L141.883 10.7669Z" fill="#131313"/>
<path d="M140.329 10.7669L141.106 11.5436L140.329 12.3203L139.553 11.5436L140.329 10.7669Z" fill="#131313"/>
<path d="M139.553 9.99019L140.329 10.7669L139.553 11.5436L138.776 10.7669L139.553 9.99019Z" fill="#131313"/>
<path d="M144.213 11.5436L144.99 12.3203L144.213 13.0969L143.436 12.3203L144.213 11.5436Z" fill="#131313"/>
<path d="M142.66 11.5436L143.436 12.3203L142.66 13.0969L141.883 12.3203L142.66 11.5436Z" fill="#131313"/>
<path d="M141.106 11.5436L141.883 12.3203L141.106 13.0969L140.329 12.3203L141.106 11.5436Z" fill="#131313"/>
<path d="M139.553 11.5436L140.329 12.3203L139.553 13.0969L138.776 12.3203L139.553 11.5436Z" fill="#131313"/>
<path d="M146.543 10.7669L147.32 11.5436L146.543 12.3203L145.766 11.5436L146.543 10.7669Z" fill="#131313"/>
<path d="M145.766 11.5436L146.543 12.3203L145.766 13.0969L144.99 12.3203L145.766 11.5436Z" fill="#131313"/>
<path d="M147.32 11.5436L148.096 12.3203L147.32 13.0969L146.543 12.3203L147.32 11.5436Z" fill="#131313"/>
<path d="M147.32 13.0969L148.096 13.8736L147.32 14.6503L146.543 13.8736L147.32 13.0969Z" fill="#131313"/>
<path d="M147.32 14.6503L148.096 15.427L147.32 16.2037L146.543 15.427L147.32 14.6503Z" fill="#131313"/>
<path d="M147.32 16.2037L148.096 16.9804L147.32 17.7571L146.543 16.9804L147.32 16.2037Z" fill="#131313"/>
<path d="M146.543 12.3203L147.32 13.0969L146.543 13.8736L145.766 13.0969L146.543 12.3203Z" fill="#131313"/>
<path d="M146.543 13.8736L147.32 14.6503L146.543 15.427L145.766 14.6503L146.543 13.8736Z" fill="#131313"/>
<path d="M146.543 15.427L147.32 16.2037L146.543 16.9804L145.766 16.2037L146.543 15.427Z" fill="#131313"/>
<path d="M146.543 16.9804L147.32 17.7571L146.543 18.5338L145.766 17.7571L146.543 16.9804Z" fill="#131313"/>
<path d="M147.32 17.7571L148.096 18.5338L147.32 19.3104L146.543 18.5338L147.32 17.7571Z" fill="#131313"/>
<path d="M145.766 13.0969L146.543 13.8736L145.766 14.6503L144.99 13.8736L145.766 13.0969Z" fill="#131313"/>
<path d="M145.766 14.6503L146.543 15.427L145.766 16.2037L144.99 15.427L145.766 14.6503Z" fill="#131313"/>
<path d="M145.766 16.2037L146.543 16.9804L145.766 17.7571L144.99 16.9804L145.766 16.2037Z" fill="#131313"/>
<path d="M145.766 17.7571L146.543 18.5338L145.766 19.3104L144.99 18.5338L145.766 17.7571Z" fill="#131313"/>
<path d="M148.873 11.5436L149.65 12.3203L148.873 13.0969L148.096 12.3203L148.873 11.5436Z" fill="#131313"/>
<path d="M150.426 11.5436L151.203 12.3203L150.426 13.0969L149.65 12.3203L150.426 11.5436Z" fill="#131313"/>
<path d="M151.98 11.5436L152.756 12.3203L151.98 13.0969L151.203 12.3203L151.98 11.5436Z" fill="#131313"/>
</svg>
