<svg width="156" height="143" viewBox="0 0 156 143" fill="none" xmlns="http://www.w3.org/2000/svg">
<path d="M1.53 12.02V4H3.27V12.12C3.27 15.02 4.43 16.52 6.85 16.52C9.31 16.52 10.47 15.02 10.47 12.12V4H12.21V12.02C12.21 16.02 10.35 18.12 6.85 18.12C3.35 18.12 1.53 16.02 1.53 12.02ZM15.3722 15.34V9.3H13.5322V7.8H15.3722V4.94H17.0122V7.8H19.6522V9.3H17.0122V15.32C17.0122 16.18 17.3122 16.5 18.1922 16.5H19.8122V18H18.0322C16.0722 18 15.3722 17.14 15.3722 15.34ZM22.0733 6.08C21.4733 6.08 21.0133 5.64 21.0133 5.02C21.0133 4.4 21.4733 3.96 22.0733 3.96C22.6733 3.96 23.1333 4.4 23.1333 5.02C23.1333 5.64 22.6733 6.08 22.0733 6.08ZM21.2333 18V7.8H22.8733V18H21.2333ZM25.12 18V4H26.76V18H25.12ZM29.8467 6.08C29.2467 6.08 28.7867 5.64 28.7867 5.02C28.7867 4.4 29.2467 3.96 29.8467 3.96C30.4467 3.96 30.9067 4.4 30.9067 5.02C30.9067 5.64 30.4467 6.08 29.8467 6.08ZM29.0067 18V7.8H30.6467V18H29.0067ZM33.6534 15.34V9.3H31.8134V7.8H33.6534V4.94H35.2934V7.8H37.9334V9.3H35.2934V15.32C35.2934 16.18 35.5934 16.5 36.4734 16.5H38.0934V18H36.3134C34.3534 18 33.6534 17.14 33.6534 15.34ZM48.3783 16.5H48.8983V18H47.9983C46.6383 18 46.1783 17.42 46.1583 16.42C45.5183 17.34 44.4983 18.12 42.7383 18.12C40.4983 18.12 38.9783 17 38.9783 15.14C38.9783 13.1 40.3983 11.96 43.0783 11.96H46.0783V11.26C46.0783 9.94 45.1383 9.14 43.5383 9.14C42.0983 9.14 41.1383 9.82 40.9383 10.86H39.2983C39.5383 8.86 41.1583 7.68 43.6183 7.68C46.2183 7.68 47.7183 8.98 47.7183 11.36V15.82C47.7183 16.36 47.9183 16.5 48.3783 16.5ZM46.0783 13.84V13.34H42.9183C41.4583 13.34 40.6383 13.88 40.6383 15.04C40.6383 16.04 41.4983 16.72 42.8583 16.72C44.8983 16.72 46.0783 15.54 46.0783 13.84ZM54.8791 7.8H55.3391V9.4H54.5191C52.3791 9.4 51.7991 11.18 51.7991 12.8V18H50.1591V7.8H51.5791L51.7991 9.34C52.2791 8.56 53.0591 7.8 54.8791 7.8ZM57.6006 6.08C57.0006 6.08 56.5406 5.64 56.5406 5.02C56.5406 4.4 57.0006 3.96 57.6006 3.96C58.2006 3.96 58.6606 4.4 58.6606 5.02C58.6606 5.64 58.2006 6.08 57.6006 6.08ZM56.7606 18V7.8H58.4006V18H56.7606ZM69.6673 16.5H70.1873V18H69.2873C67.9273 18 67.4673 17.42 67.4473 16.42C66.8073 17.34 65.7873 18.12 64.0273 18.12C61.7873 18.12 60.2673 17 60.2673 15.14C60.2673 13.1 61.6873 11.96 64.3673 11.96H67.3673V11.26C67.3673 9.94 66.4273 9.14 64.8273 9.14C63.3873 9.14 62.4273 9.82 62.2273 10.86H60.5873C60.8273 8.86 62.4473 7.68 64.9073 7.68C67.5073 7.68 69.0073 8.98 69.0073 11.36V15.82C69.0073 16.36 69.2073 16.5 69.6673 16.5ZM67.3673 13.84V13.34H64.2073C62.7473 13.34 61.9273 13.88 61.9273 15.04C61.9273 16.04 62.7873 16.72 64.1473 16.72C66.1873 16.72 67.3673 15.54 67.3673 13.84ZM76.4481 7.68C78.7481 7.68 80.5681 8.94 80.5681 12.32V18H78.9281V12.42C78.9281 10.3 77.9481 9.18 76.1681 9.18C74.2481 9.18 73.0881 10.6 73.0881 12.9V18H71.4481V7.8H72.8681L73.0881 9.18C73.6881 8.4 74.7281 7.68 76.4481 7.68ZM83.4991 6.08C82.8991 6.08 82.4391 5.64 82.4391 5.02C82.4391 4.4 82.8991 3.96 83.4991 3.96C84.0991 3.96 84.5591 4.4 84.5591 5.02C84.5591 5.64 84.0991 6.08 83.4991 6.08ZM82.6591 18V7.8H84.2991V18H82.6591ZM86.1258 14.64H87.8058C87.8658 15.84 88.9258 16.72 90.6258 16.72C92.0658 16.72 93.0858 16.1 93.0858 15.16C93.0858 13.88 91.9658 13.78 90.4458 13.6C88.1658 13.32 86.3458 12.86 86.3458 10.74C86.3458 8.88 88.0458 7.66 90.3458 7.68C92.6658 7.7 94.3458 8.78 94.5058 10.9H92.8258C92.7058 9.86 91.7458 9.08 90.3458 9.08C88.9258 9.08 87.9658 9.68 87.9658 10.62C87.9658 11.74 89.0458 11.88 90.5258 12.06C92.8458 12.34 94.7058 12.78 94.7058 15.04C94.7058 16.94 92.8858 18.12 90.6258 18.12C87.9858 18.12 86.1658 16.88 86.1258 14.64ZM107.906 7.68C110.026 7.68 111.766 8.9 111.766 12.12V18H110.126V12.22C110.126 10.22 109.246 9.18 107.706 9.18C106.006 9.18 104.966 10.46 104.966 12.54V18H103.326V12.22C103.326 10.22 102.426 9.18 100.866 9.18C99.1863 9.18 98.1663 10.58 98.1663 12.62V18H96.5263V7.8H97.9463L98.1663 9.2C98.7063 8.46 99.5663 7.68 101.146 7.68C102.566 7.68 103.786 8.32 104.366 9.62C104.986 8.52 106.086 7.68 107.906 7.68Z" fill="#131313"/>
<rect x="67" y="98" width="15" height="15" fill="#131313"/>
<rect x="52" y="98" width="15" height="15" fill="#131313"/>
<rect x="37" y="83" width="15" height="15" fill="#131313"/>
<rect x="82" y="98" width="15" height="15" fill="#131313"/>
<rect x="97" y="83" width="15" height="15" fill="#131313"/>
<rect x="52" y="69" width="15" height="15" fill="#131313"/>
<rect x="22" y="68" width="15" height="15" fill="#131313"/>
<rect x="112" y="68" width="15" height="15" fill="#131313"/>
<rect x="22" y="83" width="15" height="15" fill="#131313"/>
<rect x="112" y="83" width="15" height="15" fill="#131313"/>
<rect x="22" y="98" width="15" height="15" fill="#131313"/>
<rect x="112" y="98" width="15" height="15" fill="#131313"/>
<rect x="22" y="128" width="15" height="15" fill="#131313"/>
<rect x="22" y="38" width="15" height="15" fill="#131313"/>
<rect x="52" y="128" width="15" height="15" fill="#131313"/>
<rect x="52" y="38" width="15" height="15" fill="#131313"/>
<rect x="67" y="128" width="15" height="15" fill="#131313"/>
<rect x="67" y="38" width="15" height="15" fill="#131313"/>
<rect x="82" y="128" width="15" height="15" fill="#131313"/>
<rect x="82" y="38" width="15" height="15" fill="#131313"/>
<rect x="112" y="128" width="15" height="15" fill="#131313"/>
<rect x="112" y="38" width="15" height="15" fill="#131313"/>
<rect x="82" y="69" width="15" height="15" fill="#131313"/>
<path d="M147.32 3.77669L148.096 4.55338L147.32 5.33006L146.543 4.55338L147.32 3.77669Z" fill="#131313"/>
<path d="M145.766 3.77669L146.543 4.55338L145.766 5.33006L144.99 4.55338L145.766 3.77669Z" fill="#131313"/>
<path d="M146.543 4.55338L147.32 5.33006L146.543 6.10675L145.766 5.33006L146.543 4.55338Z" fill="#131313"/>
<path d="M145.766 5.33006L146.543 6.10675L145.766 6.88344L144.99 6.10675L145.766 5.33006Z" fill="#131313"/>
<path d="M147.32 5.33006L148.096 6.10675L147.32 6.88344L146.543 6.10675L147.32 5.33006Z" fill="#131313"/>
<path d="M147.32 6.88344L148.096 7.66013L147.32 8.43681L146.543 7.66013L147.32 6.88344Z" fill="#131313"/>
<path d="M147.32 8.43681L148.096 9.2135L147.32 9.99019L146.543 9.2135L147.32 8.43681Z" fill="#131313"/>
<path d="M146.543 6.10675L147.32 6.88344L146.543 7.66013L145.766 6.88344L146.543 6.10675Z" fill="#131313"/>
<path d="M146.543 7.66013L147.32 8.43681L146.543 9.2135L145.766 8.43681L146.543 7.66013Z" fill="#131313"/>
<path d="M146.543 9.2135L147.32 9.99019L146.543 10.7669L145.766 9.99019L146.543 9.2135Z" fill="#131313"/>
<path d="M147.32 9.99019L148.096 10.7669L147.32 11.5436L146.543 10.7669L147.32 9.99019Z" fill="#131313"/>
<path d="M148.096 10.7669L148.873 11.5436L148.096 12.3203L147.32 11.5436L148.096 10.7669Z" fill="#131313"/>
<path d="M149.65 10.7669L150.426 11.5436L149.65 12.3203L148.873 11.5436L149.65 10.7669Z" fill="#131313"/>
<path d="M151.203 10.7669L151.98 11.5436L151.203 12.3203L150.426 11.5436L151.203 10.7669Z" fill="#131313"/>
<path d="M152.756 10.7669L153.533 11.5436L152.756 12.3203L151.98 11.5436L152.756 10.7669Z" fill="#131313"/>
<path d="M153.533 11.5436L154.31 12.3203L153.533 13.0969L152.756 12.3203L153.533 11.5436Z" fill="#131313"/>
<path d="M148.873 9.99019L149.65 10.7669L148.873 11.5436L148.096 10.7669L148.873 9.99019Z" fill="#131313"/>
<path d="M150.426 9.99019L151.203 10.7669L150.426 11.5436L149.65 10.7669L150.426 9.99019Z" fill="#131313"/>
<path d="M151.98 9.99019L152.756 10.7669L151.98 11.5436L151.203 10.7669L151.98 9.99019Z" fill="#131313"/>
<path d="M153.533 9.99019L154.31 10.7669L153.533 11.5436L152.756 10.7669L153.533 9.99019Z" fill="#131313"/>
<path d="M145.766 6.88344L146.543 7.66013L145.766 8.43681L144.99 7.66013L145.766 6.88344Z" fill="#131313"/>
<path d="M145.766 8.43681L146.543 9.2135L145.766 9.99019L144.99 9.2135L145.766 8.43681Z" fill="#131313"/>
<path d="M145.766 9.99019L146.543 10.7669L145.766 11.5436L144.99 10.7669L145.766 9.99019Z" fill="#131313"/>
<path d="M144.213 9.99019L144.99 10.7669L144.213 11.5436L143.436 10.7669L144.213 9.99019Z" fill="#131313"/>
<path d="M142.66 9.99019L143.436 10.7669L142.66 11.5436L141.883 10.7669L142.66 9.99019Z" fill="#131313"/>
<path d="M141.106 9.99019L141.883 10.7669L141.106 11.5436L140.329 10.7669L141.106 9.99019Z" fill="#131313"/>
<path d="M144.99 10.7669L145.766 11.5436L144.99 12.3203L144.213 11.5436L144.99 10.7669Z" fill="#131313"/>
<path d="M143.436 10.7669L144.213 11.5436L143.436 12.3203L142.66 11.5436L143.436 10.7669Z" fill="#131313"/>
<path d="M141.883 10.7669L142.66 11.5436L141.883 12.3203L141.106 11.5436L141.883 10.7669Z" fill="#131313"/>
<path d="M140.329 10.7669L141.106 11.5436L140.329 12.3203L139.553 11.5436L140.329 10.7669Z" fill="#131313"/>
<path d="M139.553 9.99019L140.329 10.7669L139.553 11.5436L138.776 10.7669L139.553 9.99019Z" fill="#131313"/>
<path d="M144.213 11.5436L144.99 12.3203L144.213 13.0969L143.436 12.3203L144.213 11.5436Z" fill="#131313"/>
<path d="M142.66 11.5436L143.436 12.3203L142.66 13.0969L141.883 12.3203L142.66 11.5436Z" fill="#131313"/>
<path d="M141.106 11.5436L141.883 12.3203L141.106 13.0969L140.329 12.3203L141.106 11.5436Z" fill="#131313"/>
<path d="M139.553 11.5436L140.329 12.3203L139.553 13.0969L138.776 12.3203L139.553 11.5436Z" fill="#131313"/>
<path d="M146.543 10.7669L147.32 11.5436L146.543 12.3203L145.766 11.5436L146.543 10.7669Z" fill="#131313"/>
<path d="M145.766 11.5436L146.543 12.3203L145.766 13.0969L144.99 12.3203L145.766 11.5436Z" fill="#131313"/>
<path d="M147.32 11.5436L148.096 12.3203L147.32 13.0969L146.543 12.3203L147.32 11.5436Z" fill="#131313"/>
<path d="M147.32 13.0969L148.096 13.8736L147.32 14.6503L146.543 13.8736L147.32 13.0969Z" fill="#131313"/>
<path d="M147.32 14.6503L148.096 15.427L147.32 16.2037L146.543 15.427L147.32 14.6503Z" fill="#131313"/>
<path d="M147.32 16.2037L148.096 16.9804L147.32 17.7571L146.543 16.9804L147.32 16.2037Z" fill="#131313"/>
<path d="M146.543 12.3203L147.32 13.0969L146.543 13.8736L145.766 13.0969L146.543 12.3203Z" fill="#131313"/>
<path d="M146.543 13.8736L147.32 14.6503L146.543 15.427L145.766 14.6503L146.543 13.8736Z" fill="#131313"/>
<path d="M146.543 15.427L147.32 16.2037L146.543 16.9804L145.766 16.2037L146.543 15.427Z" fill="#131313"/>
<path d="M146.543 16.9804L147.32 17.7571L146.543 18.5338L145.766 17.7571L146.543 16.9804Z" fill="#131313"/>
<path d="M147.32 17.7571L148.096 18.5338L147.32 19.3104L146.543 18.5338L147.32 17.7571Z" fill="#131313"/>
<path d="M145.766 13.0969L146.543 13.8736L145.766 14.6503L144.99 13.8736L145.766 13.0969Z" fill="#131313"/>
<path d="M145.766 14.6503L146.543 15.427L145.766 16.2037L144.99 15.427L145.766 14.6503Z" fill="#131313"/>
<path d="M145.766 16.2037L146.543 16.9804L145.766 17.7571L144.99 16.9804L145.766 16.2037Z" fill="#131313"/>
<path d="M145.766 17.7571L146.543 18.5338L145.766 19.3104L144.99 18.5338L145.766 17.7571Z" fill="#131313"/>
<path d="M148.873 11.5436L149.65 12.3203L148.873 13.0969L148.096 12.3203L148.873 11.5436Z" fill="#131313"/>
<path d="M150.426 11.5436L151.203 12.3203L150.426 13.0969L149.65 12.3203L150.426 11.5436Z" fill="#131313"/>
<path d="M151.98 11.5436L152.756 12.3203L151.98 13.0969L151.203 12.3203L151.98 11.5436Z" fill="#131313"/>
</svg>
