<svg width="156" height="143" viewBox="0 0 156 143" fill="none" xmlns="http://www.w3.org/2000/svg">
<path d="M5.22 18L0.18 4H2.02L6.3 15.94L10.56 4H12.36L7.32 18H5.22ZM14.4991 6.08C13.8991 6.08 13.4391 5.64 13.4391 5.02C13.4391 4.4 13.8991 3.96 14.4991 3.96C15.0991 3.96 15.5591 4.4 15.5591 5.02C15.5591 5.64 15.0991 6.08 14.4991 6.08ZM13.6591 18V7.8H15.2991V18H13.6591ZM22.2658 7.8H22.7258V9.4H21.9058C19.7658 9.4 19.1858 11.18 19.1858 12.8V18H17.5458V7.8H18.9658L19.1858 9.34C19.6658 8.56 20.4458 7.8 22.2658 7.8ZM25.2394 15.34V9.3H23.3994V7.8H25.2394V4.94H26.8794V7.8H29.5194V9.3H26.8794V15.32C26.8794 16.18 27.1794 16.5 28.0594 16.5H29.6794V18H27.8994C25.9394 18 25.2394 17.14 25.2394 15.34ZM38.2405 12.9V7.8H39.8805V18H38.4605L38.2405 16.64C37.6405 17.4 36.6605 18.12 34.9805 18.12C32.7405 18.12 30.9605 16.86 30.9605 13.48V7.8H32.6005V13.38C32.6005 15.5 33.5605 16.62 35.2605 16.62C37.1205 16.62 38.2405 15.2 38.2405 12.9ZM46.8161 18.12C43.7561 18.12 41.7561 16.02 41.7561 12.9C41.7561 9.8 43.7161 7.68 46.5961 7.68C49.4761 7.68 51.3561 9.5 51.4361 12.52C51.4361 12.74 51.4161 12.98 51.3961 13.22H43.4761V13.36C43.5361 15.3 44.7561 16.66 46.6961 16.66C48.1361 16.66 49.2561 15.9 49.5961 14.58H51.2561C50.8561 16.62 49.1761 18.12 46.8161 18.12ZM43.5761 11.86H49.6761C49.5161 10.1 48.3161 9.12 46.6161 9.12C45.1161 9.12 43.7361 10.2 43.5761 11.86Z" fill="#131313"/>
<rect x="37" y="68" width="15" height="15" fill="#131313"/>
<rect x="112" y="128" width="15" height="15" fill="#131313"/>
<rect x="22" y="83" width="15" height="15" fill="#131313"/>
<rect x="22" y="128" width="15" height="15" fill="#131313"/>
<rect x="82" y="113" width="15" height="15" fill="#131313"/>
<rect x="52" y="113" width="15" height="15" fill="#131313"/>
<rect x="22" y="38" width="15" height="15" fill="#131313"/>
<rect x="97" y="98" width="15" height="15" fill="#131313"/>
<rect x="112" y="38" width="15" height="15" fill="#131313"/>
<rect x="97" y="53" width="15" height="15" fill="#131313"/>
<rect x="37" y="98" width="15" height="15" fill="#131313"/>
<rect x="37" y="113" width="15" height="15" fill="#131313"/>
<rect x="67" y="98" width="15" height="15" fill="#131313"/>
<rect x="97" y="68" width="15" height="15" fill="#131313"/>
<rect x="37" y="53" width="15" height="15" fill="#131313"/>
<rect x="82" y="83" width="15" height="15" fill="#131313"/>
<rect x="67" y="68" width="15" height="15" fill="#131313"/>
<rect x="82" y="53" width="15" height="15" fill="#131313"/>
<rect x="67" y="38" width="15" height="15" fill="#131313"/>
<rect x="52" y="53" width="15" height="15" fill="#131313"/>
<rect x="52" y="83" width="15" height="15" fill="#131313"/>
<rect x="67" y="128" width="15" height="15" fill="#131313"/>
<rect x="97" y="113" width="15" height="15" fill="#131313"/>
<rect x="112" y="83" width="15" height="15" fill="#131313"/>
<path d="M147.32 3.77669L148.096 4.55338L147.32 5.33006L146.543 4.55338L147.32 3.77669Z" fill="#131313"/>
<path d="M145.766 3.77669L146.543 4.55338L145.766 5.33006L144.99 4.55338L145.766 3.77669Z" fill="#131313"/>
<path d="M146.543 4.55338L147.32 5.33006L146.543 6.10675L145.766 5.33006L146.543 4.55338Z" fill="#131313"/>
<path d="M145.766 5.33006L146.543 6.10675L145.766 6.88344L144.99 6.10675L145.766 5.33006Z" fill="#131313"/>
<path d="M147.32 5.33006L148.096 6.10675L147.32 6.88344L146.543 6.10675L147.32 5.33006Z" fill="#131313"/>
<path d="M147.32 6.88344L148.096 7.66013L147.32 8.43681L146.543 7.66013L147.32 6.88344Z" fill="#131313"/>
<path d="M147.32 8.43681L148.096 9.2135L147.32 9.99019L146.543 9.2135L147.32 8.43681Z" fill="#131313"/>
<path d="M146.543 6.10675L147.32 6.88344L146.543 7.66013L145.766 6.88344L146.543 6.10675Z" fill="#131313"/>
<path d="M146.543 7.66013L147.32 8.43681L146.543 9.2135L145.766 8.43681L146.543 7.66013Z" fill="#131313"/>
<path d="M146.543 9.2135L147.32 9.99019L146.543 10.7669L145.766 9.99019L146.543 9.2135Z" fill="#131313"/>
<path d="M147.32 9.99019L148.096 10.7669L147.32 11.5436L146.543 10.7669L147.32 9.99019Z" fill="#131313"/>
<path d="M148.096 10.7669L148.873 11.5436L148.096 12.3203L147.32 11.5436L148.096 10.7669Z" fill="#131313"/>
<path d="M149.65 10.7669L150.426 11.5436L149.65 12.3203L148.873 11.5436L149.65 10.7669Z" fill="#131313"/>
<path d="M151.203 10.7669L151.98 11.5436L151.203 12.3203L150.426 11.5436L151.203 10.7669Z" fill="#131313"/>
<path d="M152.756 10.7669L153.533 11.5436L152.756 12.3203L151.98 11.5436L152.756 10.7669Z" fill="#131313"/>
<path d="M153.533 11.5436L154.31 12.3203L153.533 13.0969L152.756 12.3203L153.533 11.5436Z" fill="#131313"/>
<path d="M148.873 9.99019L149.65 10.7669L148.873 11.5436L148.096 10.7669L148.873 9.99019Z" fill="#131313"/>
<path d="M150.426 9.99019L151.203 10.7669L150.426 11.5436L149.65 10.7669L150.426 9.99019Z" fill="#131313"/>
<path d="M151.98 9.99019L152.756 10.7669L151.98 11.5436L151.203 10.7669L151.98 9.99019Z" fill="#131313"/>
<path d="M153.533 9.99019L154.31 10.7669L153.533 11.5436L152.756 10.7669L153.533 9.99019Z" fill="#131313"/>
<path d="M145.766 6.88344L146.543 7.66013L145.766 8.43681L144.99 7.66013L145.766 6.88344Z" fill="#131313"/>
<path d="M145.766 8.43681L146.543 9.2135L145.766 9.99019L144.99 9.2135L145.766 8.43681Z" fill="#131313"/>
<path d="M145.766 9.99019L146.543 10.7669L145.766 11.5436L144.99 10.7669L145.766 9.99019Z" fill="#131313"/>
<path d="M144.213 9.99019L144.99 10.7669L144.213 11.5436L143.436 10.7669L144.213 9.99019Z" fill="#131313"/>
<path d="M142.66 9.99019L143.436 10.7669L142.66 11.5436L141.883 10.7669L142.66 9.99019Z" fill="#131313"/>
<path d="M141.106 9.99019L141.883 10.7669L141.106 11.5436L140.329 10.7669L141.106 9.99019Z" fill="#131313"/>
<path d="M144.99 10.7669L145.766 11.5436L144.99 12.3203L144.213 11.5436L144.99 10.7669Z" fill="#131313"/>
<path d="M143.436 10.7669L144.213 11.5436L143.436 12.3203L142.66 11.5436L143.436 10.7669Z" fill="#131313"/>
<path d="M141.883 10.7669L142.66 11.5436L141.883 12.3203L141.106 11.5436L141.883 10.7669Z" fill="#131313"/>
<path d="M140.329 10.7669L141.106 11.5436L140.329 12.3203L139.553 11.5436L140.329 10.7669Z" fill="#131313"/>
<path d="M139.553 9.99019L140.329 10.7669L139.553 11.5436L138.776 10.7669L139.553 9.99019Z" fill="#131313"/>
<path d="M144.213 11.5436L144.99 12.3203L144.213 13.0969L143.436 12.3203L144.213 11.5436Z" fill="#131313"/>
<path d="M142.66 11.5436L143.436 12.3203L142.66 13.0969L141.883 12.3203L142.66 11.5436Z" fill="#131313"/>
<path d="M141.106 11.5436L141.883 12.3203L141.106 13.0969L140.329 12.3203L141.106 11.5436Z" fill="#131313"/>
<path d="M139.553 11.5436L140.329 12.3203L139.553 13.0969L138.776 12.3203L139.553 11.5436Z" fill="#131313"/>
<path d="M146.543 10.7669L147.32 11.5436L146.543 12.3203L145.766 11.5436L146.543 10.7669Z" fill="#131313"/>
<path d="M145.766 11.5436L146.543 12.3203L145.766 13.0969L144.99 12.3203L145.766 11.5436Z" fill="#131313"/>
<path d="M147.32 11.5436L148.096 12.3203L147.32 13.0969L146.543 12.3203L147.32 11.5436Z" fill="#131313"/>
<path d="M147.32 13.0969L148.096 13.8736L147.32 14.6503L146.543 13.8736L147.32 13.0969Z" fill="#131313"/>
<path d="M147.32 14.6503L148.096 15.427L147.32 16.2037L146.543 15.427L147.32 14.6503Z" fill="#131313"/>
<path d="M147.32 16.2037L148.096 16.9804L147.32 17.7571L146.543 16.9804L147.32 16.2037Z" fill="#131313"/>
<path d="M146.543 12.3203L147.32 13.0969L146.543 13.8736L145.766 13.0969L146.543 12.3203Z" fill="#131313"/>
<path d="M146.543 13.8736L147.32 14.6503L146.543 15.427L145.766 14.6503L146.543 13.8736Z" fill="#131313"/>
<path d="M146.543 15.427L147.32 16.2037L146.543 16.9804L145.766 16.2037L146.543 15.427Z" fill="#131313"/>
<path d="M146.543 16.9804L147.32 17.7571L146.543 18.5338L145.766 17.7571L146.543 16.9804Z" fill="#131313"/>
<path d="M147.32 17.7571L148.096 18.5338L147.32 19.3104L146.543 18.5338L147.32 17.7571Z" fill="#131313"/>
<path d="M145.766 13.0969L146.543 13.8736L145.766 14.6503L144.99 13.8736L145.766 13.0969Z" fill="#131313"/>
<path d="M145.766 14.6503L146.543 15.427L145.766 16.2037L144.99 15.427L145.766 14.6503Z" fill="#131313"/>
<path d="M145.766 16.2037L146.543 16.9804L145.766 17.7571L144.99 16.9804L145.766 16.2037Z" fill="#131313"/>
<path d="M145.766 17.7571L146.543 18.5338L145.766 19.3104L144.99 18.5338L145.766 17.7571Z" fill="#131313"/>
<path d="M148.873 11.5436L149.65 12.3203L148.873 13.0969L148.096 12.3203L148.873 11.5436Z" fill="#131313"/>
<path d="M150.426 11.5436L151.203 12.3203L150.426 13.0969L149.65 12.3203L150.426 11.5436Z" fill="#131313"/>
<path d="M151.98 11.5436L152.756 12.3203L151.98 13.0969L151.203 12.3203L151.98 11.5436Z" fill="#131313"/>
</svg>
