<svg width="349" height="62" viewBox="0 0 349 62" fill="none" xmlns="http://www.w3.org/2000/svg">
<path d="M10.928 13.936H12.032V16H10.88C9.92 16 9.52 15.728 9.136 15.248C8.288 15.792 7.232 16.096 6.064 16.096C2.768 16.096 0.512 13.664 0.512 10.4C0.512 7.136 2.768 4.704 6.064 4.704C9.36 4.704 11.616 7.136 11.616 10.4C11.616 11.728 11.248 12.928 10.576 13.872C10.672 13.904 10.784 13.936 10.928 13.936ZM2.96 10.4C2.96 12.512 4.176 14.064 6.064 14.064C6.72 14.064 7.296 13.872 7.776 13.536L7.616 13.344C7.376 13.024 7.168 12.848 6.816 12.848H5.776V10.816H6.992C7.936 10.816 8.256 11.152 8.64 11.632L8.896 11.952C9.072 11.488 9.152 10.96 9.152 10.4C9.152 8.288 7.936 6.736 6.064 6.736C4.176 6.736 2.96 8.288 2.96 10.4ZM18.4908 11.888V7.776H20.7468V16H18.7468L18.5388 15.008C18.0108 15.648 17.2908 16.096 16.1228 16.096C14.4268 16.096 12.8588 15.248 12.8588 12.336V7.776H15.1148V12.032C15.1148 13.504 15.5948 14.224 16.7148 14.224C17.8348 14.224 18.4908 13.408 18.4908 11.888ZM26.3793 16.096C23.6432 16.096 21.9953 14.448 21.9953 11.904C21.9953 9.344 23.6753 7.68 26.2193 7.68C28.6833 7.68 30.3472 9.216 30.3793 11.632C30.3793 11.872 30.3633 12.144 30.3153 12.4H24.3473V12.512C24.3953 13.68 25.1473 14.384 26.2833 14.384C27.1953 14.384 27.8353 13.984 28.0273 13.216H30.2513C29.9953 14.816 28.5713 16.096 26.3793 16.096ZM24.3953 10.928H28.1073C27.9473 9.92 27.2593 9.36 26.2352 9.36C25.2593 9.36 24.5233 9.952 24.3953 10.928ZM31.1656 13.264H33.3096C33.3896 13.984 34.0136 14.48 35.1176 14.48C36.0616 14.48 36.6376 14.176 36.6376 13.6C36.6376 12.928 36.0776 12.88 34.7496 12.704C32.8296 12.48 31.3416 12.048 31.3416 10.352C31.3416 8.72 32.7656 7.648 34.8776 7.664C37.0856 7.664 38.6056 8.64 38.7176 10.32H36.5576C36.4936 9.664 35.8696 9.264 34.9576 9.264C34.0776 9.264 33.5016 9.584 33.5016 10.112C33.5016 10.736 34.2056 10.8 35.3896 10.944C37.2776 11.136 38.8456 11.568 38.8456 13.424C38.8456 15.056 37.3096 16.096 35.1016 16.096C32.8136 16.096 31.2616 15.024 31.1656 13.264ZM40.626 13.648V9.68H39.266V7.776H40.626V5.472H42.882V7.776H44.77V9.68H42.882V13.28C42.882 13.856 43.106 14.096 43.698 14.096H44.818V16H42.978C41.41 16 40.626 15.216 40.626 13.648ZM46.9981 6.896C46.2621 6.896 45.6861 6.352 45.6861 5.632C45.6861 4.896 46.2621 4.352 46.9981 4.352C47.7341 4.352 48.3101 4.896 48.3101 5.632C48.3101 6.352 47.7341 6.896 46.9981 6.896ZM45.8621 16V7.776H48.1341V16H45.8621ZM53.7063 16.096C51.0823 16.096 49.3703 14.416 49.3703 11.888C49.3703 9.36 51.0823 7.68 53.7063 7.68C56.3303 7.68 58.0423 9.36 58.0423 11.888C58.0423 14.432 56.3303 16.096 53.7063 16.096ZM53.7063 14.256C54.9703 14.256 55.7543 13.28 55.7543 11.888C55.7543 10.496 54.9703 9.52 53.7063 9.52C52.4423 9.52 51.6743 10.496 51.6743 11.888C51.6743 13.28 52.4423 14.256 53.7063 14.256ZM64.004 7.68C65.78 7.68 67.3 8.624 67.3 11.44V16H65.044V11.664C65.044 10.272 64.516 9.536 63.38 9.536C62.212 9.536 61.54 10.368 61.54 11.792V16H59.284V7.776H61.252L61.46 8.8C61.988 8.16 62.74 7.68 64.004 7.68ZM77.1863 8.368C79.4423 8.368 80.9623 9.92 80.9623 12.208C80.9623 14.784 79.0423 16.096 76.7223 16.096C74.1303 16.096 72.5303 14.448 72.4342 12.4H74.7223C74.8343 13.408 75.5383 14.208 76.7383 14.208C77.7143 14.208 78.6423 13.536 78.6423 12.208C78.6423 11.024 77.8903 10.192 76.7223 10.192C76.0983 10.192 75.2343 10.432 74.8343 11.36H72.6103L72.9303 4.8H80.2903V6.736H75.0263L74.8983 9.184C75.4583 8.672 76.1943 8.368 77.1863 8.368ZM91.5525 12.368H85.9525V10.528H91.5525V12.368ZM97.2443 16V4.8H98.6363V16H97.2443ZM104.615 7.744C106.455 7.744 107.911 8.752 107.911 11.456V16H106.599V11.536C106.599 9.84 105.815 8.944 104.391 8.944C102.855 8.944 101.927 10.08 101.927 11.92V16H100.615V7.84H101.751L101.927 8.944C102.407 8.32 103.239 7.744 104.615 7.744ZM110.192 13.872V9.04H108.72V7.84H110.192V5.552H111.504V7.84H113.616V9.04H111.504V13.856C111.504 14.544 111.744 14.8 112.448 14.8H113.744V16H112.32C110.752 16 110.192 15.312 110.192 13.872ZM118.437 16.096C115.989 16.096 114.389 14.416 114.389 11.92C114.389 9.44 115.957 7.744 118.261 7.744C120.565 7.744 122.069 9.2 122.133 11.616C122.133 11.792 122.117 11.984 122.101 12.176H115.765V12.288C115.813 13.84 116.789 14.928 118.341 14.928C119.493 14.928 120.389 14.32 120.661 13.264H121.989C121.669 14.896 120.325 16.096 118.437 16.096ZM115.845 11.088H120.725C120.597 9.68 119.637 8.896 118.277 8.896C117.077 8.896 115.973 9.76 115.845 11.088ZM127.406 7.84H127.774V9.12H127.118C125.406 9.12 124.942 10.544 124.942 11.84V16H123.63V7.84H124.766L124.942 9.072C125.326 8.448 125.95 7.84 127.406 7.84ZM131.308 16L128.252 7.84H129.66L132.124 14.512L134.572 7.84H135.948L132.892 16H131.308ZM140.328 16.096C137.88 16.096 136.28 14.416 136.28 11.92C136.28 9.44 137.848 7.744 140.152 7.744C142.456 7.744 143.96 9.2 144.024 11.616C144.024 11.792 144.008 11.984 143.992 12.176H137.656V12.288C137.704 13.84 138.68 14.928 140.232 14.928C141.384 14.928 142.28 14.32 142.552 13.264H143.88C143.56 14.896 142.216 16.096 140.328 16.096ZM137.736 11.088H142.616C142.488 9.68 141.528 8.896 140.168 8.896C138.968 8.896 137.864 9.76 137.736 11.088ZM149.521 7.744C151.361 7.744 152.817 8.752 152.817 11.456V16H151.505V11.536C151.505 9.84 150.721 8.944 149.297 8.944C147.761 8.944 146.833 10.08 146.833 11.92V16H145.521V7.84H146.657L146.833 8.944C147.313 8.32 148.145 7.744 149.521 7.744ZM155.098 13.872V9.04H153.626V7.84H155.098V5.552H156.41V7.84H158.522V9.04H156.41V13.856C156.41 14.544 156.65 14.8 157.354 14.8H158.65V16H157.226C155.658 16 155.098 15.312 155.098 13.872ZM160.459 6.464C159.979 6.464 159.611 6.112 159.611 5.616C159.611 5.12 159.979 4.768 160.459 4.768C160.939 4.768 161.307 5.12 161.307 5.616C161.307 6.112 160.939 6.464 160.459 6.464ZM159.787 16V7.84H161.099V16H159.787ZM166.656 16.096C164.272 16.096 162.608 14.4 162.608 11.92C162.608 9.44 164.272 7.744 166.656 7.744C169.04 7.744 170.704 9.44 170.704 11.92C170.704 14.4 169.04 16.096 166.656 16.096ZM166.656 14.928C168.272 14.928 169.36 13.664 169.36 11.92C169.36 10.176 168.272 8.912 166.656 8.912C165.04 8.912 163.952 10.176 163.952 11.92C163.952 13.664 165.04 14.928 166.656 14.928ZM176.209 7.744C178.049 7.744 179.505 8.752 179.505 11.456V16H178.193V11.536C178.193 9.84 177.409 8.944 175.985 8.944C174.449 8.944 173.521 10.08 173.521 11.92V16H172.209V7.84H173.345L173.521 8.944C174.001 8.32 174.833 7.744 176.209 7.744Z" fill="#131313"/>
<path d="M333.531 13.625L333.531 12.25L334.85 12.25L334.85 13.625L333.531 13.625Z" fill="#131313"/>
<path d="M346.714 13.625L346.714 12.25L348.033 12.25L348.033 13.625L346.714 13.625Z" fill="#131313"/>
<path d="M334.85 15L334.85 13.625L336.168 13.625L336.168 15L334.85 15Z" fill="#131313"/>
<path d="M345.396 15L345.396 13.625L346.714 13.625L346.714 15L345.396 15Z" fill="#131313"/>
<path d="M334.85 13.625L334.85 12.25L336.168 12.25L336.168 13.625L334.85 13.625Z" fill="#131313"/>
<path d="M345.396 13.625L345.396 12.25L346.714 12.25L346.714 13.625L345.396 13.625Z" fill="#131313"/>
<path d="M336.168 13.625L336.168 12.25L337.486 12.25L337.486 13.625L336.168 13.625Z" fill="#131313"/>
<path d="M344.078 13.625L344.078 12.25L345.396 12.25L345.396 13.625L344.078 13.625Z" fill="#131313"/>
<path d="M334.85 12.25L334.85 10.875L336.168 10.875L336.168 12.25L334.85 12.25Z" fill="#131313"/>
<path d="M345.396 12.25L345.396 10.875L346.714 10.875L346.714 12.25L345.396 12.25Z" fill="#131313"/>
<path d="M336.168 12.25L336.168 10.875L337.486 10.875L337.486 12.25L336.168 12.25Z" fill="#131313"/>
<path d="M344.078 12.25L344.078 10.875L345.396 10.875L345.396 12.25L344.078 12.25Z" fill="#131313"/>
<path d="M337.486 12.25L337.486 10.875L338.804 10.875L338.804 12.25L337.486 12.25Z" fill="#131313"/>
<path d="M334.85 10.875L334.85 9.5L336.168 9.5L336.168 10.875L334.85 10.875Z" fill="#131313"/>
<path d="M345.396 10.875L345.396 9.5L346.714 9.5L346.714 10.875L345.396 10.875Z" fill="#131313"/>
<path d="M336.168 10.875L336.168 9.5L337.486 9.5L337.486 10.875L336.168 10.875Z" fill="#131313"/>
<path d="M344.078 10.875L344.078 9.5L345.396 9.5L345.396 10.875L344.078 10.875Z" fill="#131313"/>
<path d="M337.486 10.875L337.486 9.5L338.804 9.5L338.804 10.875L337.486 10.875Z" fill="#131313"/>
<path d="M338.804 10.875L338.804 9.5L340.123 9.5L340.123 10.875L338.804 10.875Z" fill="#131313"/>
<path d="M341.441 10.875L341.441 9.5L342.759 9.5L342.759 10.875L341.441 10.875Z" fill="#131313"/>
<path d="M342.759 10.875L342.759 9.5L344.078 9.5L344.078 10.875L342.759 10.875Z" fill="#131313"/>
<path d="M342.759 12.25L342.759 10.875L344.078 10.875L344.078 12.25L342.759 12.25Z" fill="#131313"/>
<path d="M336.168 9.5L336.168 8.125L337.486 8.125L337.486 9.5L336.168 9.5Z" fill="#131313"/>
<path d="M344.078 9.5L344.078 8.125L345.396 8.125L345.396 9.5L344.078 9.5Z" fill="#131313"/>
<path d="M337.486 9.5L337.486 8.125L338.804 8.125L338.804 9.5L337.486 9.5Z" fill="#131313"/>
<path d="M338.804 9.5L338.804 8.125L340.123 8.125L340.123 9.5L338.804 9.5Z" fill="#131313"/>
<path d="M341.441 9.5L341.441 8.125L342.759 8.125L342.759 9.5L341.441 9.5Z" fill="#131313"/>
<path d="M342.759 9.5L342.759 8.125L344.078 8.125L344.078 9.5L342.759 9.5Z" fill="#131313"/>
<path d="M340.123 9.5L340.123 8.125L341.441 8.125L341.441 9.5L340.123 9.5Z" fill="#131313"/>
<path d="M337.486 8.125L337.486 6.75L338.804 6.75L338.804 8.125L337.486 8.125Z" fill="#131313"/>
<path d="M338.804 8.125L338.804 6.75L340.123 6.75L340.123 8.125L338.804 8.125Z" fill="#131313"/>
<path d="M341.441 8.125L341.441 6.75L342.759 6.75L342.759 8.125L341.441 8.125Z" fill="#131313"/>
<path d="M342.759 8.125L342.759 6.75L344.078 6.75L344.078 8.125L342.759 8.125Z" fill="#131313"/>
<path d="M340.123 8.125L340.123 6.75L341.441 6.75L341.441 8.125L340.123 8.125Z" fill="#131313"/>
<path d="M338.804 6.75L338.804 5.375L340.123 5.375L340.123 6.75L338.804 6.75Z" fill="#131313"/>
<path d="M340.123 5.375L340.123 4L341.441 4L341.441 5.375L340.123 5.375Z" fill="#131313"/>
<path d="M340.123 6.75L340.123 5.375L341.441 5.375L341.441 6.75L340.123 6.75Z" fill="#131313"/>
<path d="M341.441 6.75L341.441 5.375L342.759 5.375L342.759 6.75L341.441 6.75Z" fill="#131313"/>
<path d="M333.531 12.25L333.531 10.875L334.85 10.875L334.85 12.25L333.531 12.25Z" fill="#131313"/>
<path d="M346.714 12.25L346.714 10.875L348.033 10.875L348.033 12.25L346.714 12.25Z" fill="#131313"/>
<rect x="0.5" y="32.5" width="173" height="29" fill="#DCECA1"/>
<rect x="0.5" y="32.5" width="173" height="29" stroke="#131313"/>
<path d="M11.5059 48.38L8.42188 43.1H10.5219L12.4059 46.544L14.3859 43.1H16.3899L13.3059 48.38V51.5H11.5059V48.38ZM18.9251 51.572C16.8731 51.572 15.6371 50.336 15.6371 48.428C15.6371 46.508 16.8971 45.26 18.8051 45.26C20.6531 45.26 21.9011 46.412 21.9251 48.224C21.9251 48.404 21.9131 48.608 21.8771 48.8H17.4011V48.884C17.4371 49.76 18.0011 50.288 18.8531 50.288C19.5371 50.288 20.0171 49.988 20.1611 49.412H21.8291C21.6371 50.612 20.5691 51.572 18.9251 51.572ZM17.4371 47.696H20.2211C20.1011 46.94 19.5851 46.52 18.8171 46.52C18.0851 46.52 17.5331 46.964 17.4371 47.696ZM22.5148 49.448H24.1228C24.1828 49.988 24.6508 50.36 25.4788 50.36C26.1868 50.36 26.6188 50.132 26.6188 49.7C26.6188 49.196 26.1988 49.16 25.2028 49.028C23.7628 48.86 22.6468 48.536 22.6468 47.264C22.6468 46.04 23.7148 45.236 25.2988 45.248C26.9548 45.248 28.0948 45.98 28.1788 47.24H26.5588C26.5108 46.748 26.0428 46.448 25.3588 46.448C24.6988 46.448 24.2668 46.688 24.2668 47.084C24.2668 47.552 24.7948 47.6 25.6828 47.708C27.0988 47.852 28.2748 48.176 28.2748 49.568C28.2748 50.792 27.1228 51.572 25.4668 51.572C23.7508 51.572 22.5868 50.768 22.5148 49.448Z" fill="#131313"/>
<path d="M41.0819 45.872C42.7259 45.872 43.8659 47.024 43.8659 48.692C43.8659 50.552 42.4979 51.56 40.9259 51.56C39.0539 51.56 37.9739 50.348 37.8899 48.884H38.8859C38.9819 49.856 39.7139 50.66 40.9259 50.66C41.9099 50.66 42.8339 50 42.8339 48.704C42.8339 47.564 42.1019 46.76 40.9379 46.76C40.4219 46.76 39.3899 46.904 39.0299 47.9L38.0579 47.876L38.3339 43.1H43.3619V44.024H39.2579L39.0659 46.676C39.5819 46.064 40.3019 45.872 41.0819 45.872ZM44.4124 51.5V50.648L47.6764 47.816C48.4564 47.144 49.1044 46.496 49.1044 45.584C49.1044 44.528 48.3844 43.928 47.2684 43.928C46.1884 43.928 45.4684 44.648 45.4684 45.8V45.956H44.4604V45.74C44.4604 44.156 45.5764 43.028 47.2684 43.028C49.0804 43.028 50.1364 44.024 50.1364 45.536C50.1364 46.796 49.3204 47.588 48.3244 48.44L45.8044 50.576H50.1964V51.5H44.4124ZM51.1223 50.9C51.1223 50.492 51.4103 50.228 51.8063 50.228C52.2023 50.228 52.4903 50.492 52.4903 50.9C52.4903 51.308 52.2023 51.572 51.8063 51.572C51.4103 51.572 51.1223 51.308 51.1223 50.9ZM53.6799 50.18C53.2599 49.448 53.0199 48.44 53.0199 47.336C53.0199 44.696 54.2079 43.028 56.2119 43.028C57.7359 43.028 58.7799 43.94 58.9839 45.344H57.9759C57.7839 44.492 57.1839 43.916 56.1639 43.916C54.6999 43.916 53.8959 45.248 53.8959 47.144C53.8959 47.264 53.8959 47.348 53.9079 47.552C53.9199 47.504 53.9319 47.432 53.9799 47.324C54.3519 46.496 55.1919 45.944 56.3199 45.944C57.9759 45.944 59.1399 47.036 59.1399 48.752C59.1399 50.372 57.9519 51.572 56.2239 51.572C55.0599 51.572 54.2079 51.044 53.6799 50.18ZM58.1319 48.752C58.1319 47.636 57.4119 46.832 56.2479 46.832C55.0839 46.832 54.2919 47.624 54.2919 48.776C54.2919 49.904 55.0599 50.684 56.2119 50.684C57.3759 50.684 58.1319 49.88 58.1319 48.752ZM61.9455 42.812C62.5375 42.812 62.9855 43.048 63.2895 43.52C63.5935 43.984 63.7455 44.64 63.7455 45.488C63.7455 46.336 63.5975 47 63.3015 47.48C63.0135 47.952 62.5615 48.188 61.9455 48.188C61.5695 48.188 61.2495 48.08 60.9855 47.864C60.7215 47.648 60.5215 47.34 60.3855 46.94C60.2575 46.532 60.1935 46.048 60.1935 45.488C60.1935 44.64 60.3335 43.984 60.6135 43.52C60.8935 43.048 61.3375 42.812 61.9455 42.812ZM61.9455 43.556C61.6415 43.556 61.4175 43.72 61.2735 44.048C61.1375 44.368 61.0695 44.848 61.0695 45.488C61.0695 46.128 61.1375 46.612 61.2735 46.94C61.4175 47.268 61.6415 47.432 61.9455 47.432C62.2575 47.432 62.4895 47.272 62.6415 46.952C62.7935 46.624 62.8695 46.136 62.8695 45.488C62.8695 44.848 62.7935 44.368 62.6415 44.048C62.4895 43.72 62.2575 43.556 61.9455 43.556ZM67.4295 42.932L62.6775 51.5H61.7535L66.5055 42.932H67.4295ZM67.1895 46.244C67.5815 46.244 67.9095 46.352 68.1735 46.568C68.4375 46.776 68.6375 47.08 68.7735 47.48C68.9175 47.872 68.9895 48.352 68.9895 48.92C68.9895 49.768 68.8415 50.432 68.5455 50.912C68.2575 51.384 67.8055 51.62 67.1895 51.62C66.8135 51.62 66.4935 51.512 66.2295 51.296C65.9655 51.08 65.7655 50.772 65.6295 50.372C65.5015 49.964 65.4375 49.48 65.4375 48.92C65.4375 48.072 65.5775 47.416 65.8575 46.952C66.1375 46.48 66.5815 46.244 67.1895 46.244ZM67.1895 47C66.8855 47 66.6615 47.16 66.5175 47.48C66.3815 47.8 66.3135 48.28 66.3135 48.92C66.3135 49.568 66.3815 50.056 66.5175 50.384C66.6615 50.704 66.8855 50.864 67.1895 50.864C67.5015 50.864 67.7335 50.704 67.8855 50.384C68.0375 50.064 68.1135 49.576 68.1135 48.92C68.1135 48.28 68.0375 47.8 67.8855 47.48C67.7335 47.16 67.5015 47 67.1895 47Z" fill="#131313"/>
<mask id="path-6-inside-1_538_2872" fill="white">
<path d="M174 32H349V62H174V32Z"/>
</mask>
<path d="M174 32H349V62H174V32Z" fill="#FCD290"/>
<path d="M349 32H350V31H349V32ZM349 62V63H350V62H349ZM174 33H349V31H174V33ZM348 32V62H350V32H348ZM349 61H174V63H349V61Z" fill="#131313" mask="url(#path-6-inside-1_538_2872)"/>
<path d="M184.685 51.5H182.921V43.1H184.553L188.117 48.392V43.1H189.893V51.5H188.249L184.685 46.208V51.5ZM194.204 51.572C192.236 51.572 190.952 50.312 190.952 48.416C190.952 46.52 192.236 45.26 194.204 45.26C196.172 45.26 197.456 46.52 197.456 48.416C197.456 50.324 196.172 51.572 194.204 51.572ZM194.204 50.192C195.152 50.192 195.74 49.46 195.74 48.416C195.74 47.372 195.152 46.64 194.204 46.64C193.256 46.64 192.68 47.372 192.68 48.416C192.68 49.46 193.256 50.192 194.204 50.192Z" fill="#131313"/>
<path d="M206.617 49.448V48.548L210.901 43.1H212.029V48.524H213.385V49.448H212.029V51.5H211.021V49.448H206.617ZM211.021 44.336L207.745 48.524H211.021V44.336ZM213.295 44.024V43.1H219.223V43.808L215.095 51.5H214.003L218.119 44.024H213.295ZM218.943 50.9C218.943 50.492 219.231 50.228 219.627 50.228C220.023 50.228 220.311 50.492 220.311 50.9C220.311 51.308 220.023 51.572 219.627 51.572C219.231 51.572 218.943 51.308 218.943 50.9ZM220.679 49.448V48.548L224.963 43.1H226.091V48.524H227.447V49.448H226.091V51.5H225.083V49.448H220.679ZM225.083 44.336L221.807 48.524H225.083V44.336ZM229.906 42.812C230.498 42.812 230.946 43.048 231.25 43.52C231.554 43.984 231.706 44.64 231.706 45.488C231.706 46.336 231.558 47 231.262 47.48C230.974 47.952 230.522 48.188 229.906 48.188C229.53 48.188 229.21 48.08 228.946 47.864C228.682 47.648 228.482 47.34 228.346 46.94C228.218 46.532 228.154 46.048 228.154 45.488C228.154 44.64 228.294 43.984 228.574 43.52C228.854 43.048 229.298 42.812 229.906 42.812ZM229.906 43.556C229.602 43.556 229.378 43.72 229.234 44.048C229.098 44.368 229.03 44.848 229.03 45.488C229.03 46.128 229.098 46.612 229.234 46.94C229.378 47.268 229.602 47.432 229.906 47.432C230.218 47.432 230.45 47.272 230.602 46.952C230.754 46.624 230.83 46.136 230.83 45.488C230.83 44.848 230.754 44.368 230.602 44.048C230.45 43.72 230.218 43.556 229.906 43.556ZM235.39 42.932L230.638 51.5H229.714L234.466 42.932H235.39ZM235.15 46.244C235.542 46.244 235.87 46.352 236.134 46.568C236.398 46.776 236.598 47.08 236.734 47.48C236.878 47.872 236.95 48.352 236.95 48.92C236.95 49.768 236.802 50.432 236.506 50.912C236.218 51.384 235.766 51.62 235.15 51.62C234.774 51.62 234.454 51.512 234.19 51.296C233.926 51.08 233.726 50.772 233.59 50.372C233.462 49.964 233.398 49.48 233.398 48.92C233.398 48.072 233.538 47.416 233.818 46.952C234.098 46.48 234.542 46.244 235.15 46.244ZM235.15 47C234.846 47 234.622 47.16 234.478 47.48C234.342 47.8 234.274 48.28 234.274 48.92C234.274 49.568 234.342 50.056 234.478 50.384C234.622 50.704 234.846 50.864 235.15 50.864C235.462 50.864 235.694 50.704 235.846 50.384C235.998 50.064 236.074 49.576 236.074 48.92C236.074 48.28 235.998 47.8 235.846 47.48C235.694 47.16 235.462 47 235.15 47Z" fill="#131313"/>
</svg>
