<svg width="349" height="62" viewBox="0 0 349 62" fill="none" xmlns="http://www.w3.org/2000/svg">
<path d="M10.928 13.936H12.032V16H10.88C9.92 16 9.52 15.728 9.136 15.248C8.288 15.792 7.232 16.096 6.064 16.096C2.768 16.096 0.512 13.664 0.512 10.4C0.512 7.136 2.768 4.704 6.064 4.704C9.36 4.704 11.616 7.136 11.616 10.4C11.616 11.728 11.248 12.928 10.576 13.872C10.672 13.904 10.784 13.936 10.928 13.936ZM2.96 10.4C2.96 12.512 4.176 14.064 6.064 14.064C6.72 14.064 7.296 13.872 7.776 13.536L7.616 13.344C7.376 13.024 7.168 12.848 6.816 12.848H5.776V10.816H6.992C7.936 10.816 8.256 11.152 8.64 11.632L8.896 11.952C9.072 11.488 9.152 10.96 9.152 10.4C9.152 8.288 7.936 6.736 6.064 6.736C4.176 6.736 2.96 8.288 2.96 10.4ZM18.4908 11.888V7.776H20.7468V16H18.7468L18.5388 15.008C18.0108 15.648 17.2908 16.096 16.1228 16.096C14.4268 16.096 12.8588 15.248 12.8588 12.336V7.776H15.1148V12.032C15.1148 13.504 15.5948 14.224 16.7148 14.224C17.8348 14.224 18.4908 13.408 18.4908 11.888ZM26.3793 16.096C23.6432 16.096 21.9953 14.448 21.9953 11.904C21.9953 9.344 23.6753 7.68 26.2193 7.68C28.6833 7.68 30.3472 9.216 30.3793 11.632C30.3793 11.872 30.3633 12.144 30.3153 12.4H24.3473V12.512C24.3953 13.68 25.1473 14.384 26.2833 14.384C27.1953 14.384 27.8353 13.984 28.0273 13.216H30.2513C29.9953 14.816 28.5713 16.096 26.3793 16.096ZM24.3953 10.928H28.1073C27.9473 9.92 27.2593 9.36 26.2352 9.36C25.2593 9.36 24.5233 9.952 24.3953 10.928ZM31.1656 13.264H33.3096C33.3896 13.984 34.0136 14.48 35.1176 14.48C36.0616 14.48 36.6376 14.176 36.6376 13.6C36.6376 12.928 36.0776 12.88 34.7496 12.704C32.8296 12.48 31.3416 12.048 31.3416 10.352C31.3416 8.72 32.7656 7.648 34.8776 7.664C37.0856 7.664 38.6056 8.64 38.7176 10.32H36.5576C36.4936 9.664 35.8696 9.264 34.9576 9.264C34.0776 9.264 33.5016 9.584 33.5016 10.112C33.5016 10.736 34.2056 10.8 35.3896 10.944C37.2776 11.136 38.8456 11.568 38.8456 13.424C38.8456 15.056 37.3096 16.096 35.1016 16.096C32.8136 16.096 31.2616 15.024 31.1656 13.264ZM40.626 13.648V9.68H39.266V7.776H40.626V5.472H42.882V7.776H44.77V9.68H42.882V13.28C42.882 13.856 43.106 14.096 43.698 14.096H44.818V16H42.978C41.41 16 40.626 15.216 40.626 13.648ZM46.9981 6.896C46.2621 6.896 45.6861 6.352 45.6861 5.632C45.6861 4.896 46.2621 4.352 46.9981 4.352C47.7341 4.352 48.3101 4.896 48.3101 5.632C48.3101 6.352 47.7341 6.896 46.9981 6.896ZM45.8621 16V7.776H48.1341V16H45.8621ZM53.7063 16.096C51.0823 16.096 49.3703 14.416 49.3703 11.888C49.3703 9.36 51.0823 7.68 53.7063 7.68C56.3303 7.68 58.0423 9.36 58.0423 11.888C58.0423 14.432 56.3303 16.096 53.7063 16.096ZM53.7063 14.256C54.9703 14.256 55.7543 13.28 55.7543 11.888C55.7543 10.496 54.9703 9.52 53.7063 9.52C52.4423 9.52 51.6743 10.496 51.6743 11.888C51.6743 13.28 52.4423 14.256 53.7063 14.256ZM64.004 7.68C65.78 7.68 67.3 8.624 67.3 11.44V16H65.044V11.664C65.044 10.272 64.516 9.536 63.38 9.536C62.212 9.536 61.54 10.368 61.54 11.792V16H59.284V7.776H61.252L61.46 8.8C61.988 8.16 62.74 7.68 64.004 7.68ZM74.5623 5.824V4.8H76.8183V16H74.5143V8.752C74.3383 8.8 74.1463 8.816 73.9062 8.816H72.0343V6.912H73.6983C74.3383 6.912 74.5623 6.48 74.5623 5.824ZM78.0053 13.6V11.696L82.9493 4.8H85.7493V11.68H87.3013V13.6H85.7493V16H83.4933V13.6H78.0053ZM83.4933 7.088L80.2133 11.68H83.4933V7.088ZM87.9365 14.768C87.9365 13.984 88.5125 13.424 89.2965 13.424C90.0645 13.424 90.6565 13.984 90.6565 14.768C90.6565 15.536 90.0645 16.096 89.2965 16.096C88.5125 16.096 87.9365 15.536 87.9365 14.768ZM96.0456 8.368C98.3016 8.368 99.8216 9.92 99.8216 12.208C99.8216 14.784 97.9016 16.096 95.5816 16.096C92.9896 16.096 91.3896 14.448 91.2936 12.4H93.5816C93.6936 13.408 94.3976 14.208 95.5976 14.208C96.5736 14.208 97.5016 13.536 97.5016 12.208C97.5016 11.024 96.7496 10.192 95.5816 10.192C94.9576 10.192 94.0936 10.432 93.6936 11.36H91.4696L91.7896 4.8H99.1496V6.736H93.8856L93.7576 9.184C94.3176 8.672 95.0536 8.368 96.0456 8.368ZM105.031 11.616C105.031 10.7413 105.111 9.888 105.271 9.056C105.441 8.224 105.703 7.42933 106.055 6.672C106.407 5.91467 106.849 5.216 107.383 4.576H108.711C108.22 5.23733 107.804 5.952 107.463 6.72C107.132 7.488 106.881 8.28267 106.711 9.104C106.54 9.92533 106.455 10.7573 106.455 11.6C106.455 12.4213 106.54 13.2373 106.711 14.048C106.881 14.8587 107.132 15.6373 107.463 16.384C107.793 17.1413 108.204 17.856 108.695 18.528H107.383C106.849 17.8987 106.407 17.2107 106.055 16.464C105.703 15.728 105.441 14.9493 105.271 14.128C105.111 13.3067 105.031 12.4693 105.031 11.616ZM113.556 11.856L109.332 4.8H110.964L114.26 10.352L117.604 4.8H119.172L114.948 11.856V16H113.556V11.856ZM122.578 16.096C120.13 16.096 118.53 14.416 118.53 11.92C118.53 9.44 120.098 7.744 122.402 7.744C124.706 7.744 126.21 9.2 126.274 11.616C126.274 11.792 126.258 11.984 126.242 12.176H119.906V12.288C119.954 13.84 120.93 14.928 122.482 14.928C123.634 14.928 124.53 14.32 124.802 13.264H126.13C125.81 14.896 124.466 16.096 122.578 16.096ZM119.986 11.088H124.866C124.738 9.68 123.778 8.896 122.418 8.896C121.218 8.896 120.114 9.76 119.986 11.088ZM127.404 13.312H128.748C128.796 14.272 129.644 14.976 131.004 14.976C132.156 14.976 132.972 14.48 132.972 13.728C132.972 12.704 132.076 12.624 130.86 12.48C129.036 12.256 127.58 11.888 127.58 10.192C127.58 8.704 128.94 7.728 130.78 7.744C132.636 7.76 133.98 8.624 134.108 10.32H132.764C132.668 9.488 131.9 8.864 130.78 8.864C129.644 8.864 128.876 9.344 128.876 10.096C128.876 10.992 129.74 11.104 130.924 11.248C132.78 11.472 134.268 11.824 134.268 13.632C134.268 15.152 132.812 16.096 131.004 16.096C128.892 16.096 127.436 15.104 127.404 13.312ZM138.988 11.616C138.988 12.4693 138.903 13.3067 138.732 14.128C138.572 14.9493 138.316 15.728 137.964 16.464C137.623 17.2107 137.18 17.8987 136.636 18.528H135.324C135.815 17.856 136.225 17.1413 136.556 16.384C136.887 15.6373 137.137 14.8587 137.308 14.048C137.479 13.2373 137.564 12.4213 137.564 11.6C137.564 10.7573 137.479 9.92533 137.308 9.104C137.137 8.28267 136.887 7.488 136.556 6.72C136.225 5.952 135.809 5.23733 135.308 4.576H136.636C137.18 5.216 137.623 5.91467 137.964 6.672C138.316 7.42933 138.572 8.224 138.732 9.056C138.903 9.888 138.988 10.7413 138.988 11.616Z" fill="#131313"/>
<path d="M348.033 5.375L348.033 6.75L346.715 6.75L346.715 5.375L348.033 5.375Z" fill="#131313"/>
<path d="M334.85 5.375L334.85 6.75L333.532 6.75L333.532 5.375L334.85 5.375Z" fill="#131313"/>
<path d="M346.715 4L346.715 5.375L345.397 5.375L345.397 4L346.715 4Z" fill="#131313"/>
<path d="M336.169 4L336.169 5.375L334.85 5.375L334.85 4L336.169 4Z" fill="#131313"/>
<path d="M346.715 5.375L346.715 6.75L345.397 6.75L345.397 5.375L346.715 5.375Z" fill="#131313"/>
<path d="M336.169 5.375L336.169 6.75L334.85 6.75L334.85 5.375L336.169 5.375Z" fill="#131313"/>
<path d="M345.397 5.375L345.397 6.75L344.079 6.75L344.079 5.375L345.397 5.375Z" fill="#131313"/>
<path d="M337.487 5.375L337.487 6.75L336.169 6.75L336.169 5.375L337.487 5.375Z" fill="#131313"/>
<path d="M346.715 6.75L346.715 8.125L345.397 8.125L345.397 6.75L346.715 6.75Z" fill="#131313"/>
<path d="M336.169 6.75L336.169 8.125L334.85 8.125L334.85 6.75L336.169 6.75Z" fill="#131313"/>
<path d="M345.397 6.75L345.397 8.125L344.079 8.125L344.079 6.75L345.397 6.75Z" fill="#131313"/>
<path d="M337.487 6.75L337.487 8.125L336.169 8.125L336.169 6.75L337.487 6.75Z" fill="#131313"/>
<path d="M344.079 6.75L344.079 8.125L342.76 8.125L342.76 6.75L344.079 6.75Z" fill="#131313"/>
<path d="M346.715 8.125L346.715 9.5L345.397 9.5L345.397 8.125L346.715 8.125Z" fill="#131313"/>
<path d="M336.169 8.125L336.169 9.5L334.85 9.5L334.85 8.125L336.169 8.125Z" fill="#131313"/>
<path d="M345.397 8.125L345.397 9.5L344.079 9.5L344.079 8.125L345.397 8.125Z" fill="#131313"/>
<path d="M337.487 8.125L337.487 9.5L336.169 9.5L336.169 8.125L337.487 8.125Z" fill="#131313"/>
<path d="M344.079 8.125L344.079 9.5L342.76 9.5L342.76 8.125L344.079 8.125Z" fill="#131313"/>
<path d="M342.76 8.125L342.76 9.5L341.442 9.5L341.442 8.125L342.76 8.125Z" fill="#131313"/>
<path d="M340.124 8.125L340.124 9.5L338.805 9.5L338.805 8.125L340.124 8.125Z" fill="#131313"/>
<path d="M338.805 8.125L338.805 9.5L337.487 9.5L337.487 8.125L338.805 8.125Z" fill="#131313"/>
<path d="M338.805 6.75L338.805 8.125L337.487 8.125L337.487 6.75L338.805 6.75Z" fill="#131313"/>
<path d="M345.397 9.5L345.397 10.875L344.079 10.875L344.079 9.5L345.397 9.5Z" fill="#131313"/>
<path d="M337.487 9.5L337.487 10.875L336.169 10.875L336.169 9.5L337.487 9.5Z" fill="#131313"/>
<path d="M344.079 9.5L344.079 10.875L342.76 10.875L342.76 9.5L344.079 9.5Z" fill="#131313"/>
<path d="M342.76 9.5L342.76 10.875L341.442 10.875L341.442 9.5L342.76 9.5Z" fill="#131313"/>
<path d="M340.124 9.5L340.124 10.875L338.805 10.875L338.805 9.5L340.124 9.5Z" fill="#131313"/>
<path d="M338.805 9.5L338.805 10.875L337.487 10.875L337.487 9.5L338.805 9.5Z" fill="#131313"/>
<path d="M341.442 9.5L341.442 10.875L340.124 10.875L340.124 9.5L341.442 9.5Z" fill="#131313"/>
<path d="M344.079 10.875L344.079 12.25L342.76 12.25L342.76 10.875L344.079 10.875Z" fill="#131313"/>
<path d="M342.76 10.875L342.76 12.25L341.442 12.25L341.442 10.875L342.76 10.875Z" fill="#131313"/>
<path d="M340.124 10.875L340.124 12.25L338.805 12.25L338.805 10.875L340.124 10.875Z" fill="#131313"/>
<path d="M338.805 10.875L338.805 12.25L337.487 12.25L337.487 10.875L338.805 10.875Z" fill="#131313"/>
<path d="M341.442 10.875L341.442 12.25L340.124 12.25L340.124 10.875L341.442 10.875Z" fill="#131313"/>
<path d="M342.76 12.25L342.76 13.625L341.442 13.625L341.442 12.25L342.76 12.25Z" fill="#131313"/>
<path d="M341.442 13.625L341.442 15L340.124 15L340.124 13.625L341.442 13.625Z" fill="#131313"/>
<path d="M341.442 12.25L341.442 13.625L340.124 13.625L340.124 12.25L341.442 12.25Z" fill="#131313"/>
<path d="M340.124 12.25L340.124 13.625L338.805 13.625L338.805 12.25L340.124 12.25Z" fill="#131313"/>
<path d="M348.033 6.75L348.033 8.125L346.715 8.125L346.715 6.75L348.033 6.75Z" fill="#131313"/>
<path d="M334.85 6.75L334.85 8.125L333.532 8.125L333.532 6.75L334.85 6.75Z" fill="#131313"/>
<rect x="0.5" y="32.5" width="277" height="29" fill="#FD9DAF"/>
<rect x="0.5" y="32.5" width="277" height="29" stroke="#131313"/>
<path d="M11.5059 48.38L8.42188 43.1H10.5219L12.4059 46.544L14.3859 43.1H16.3899L13.3059 48.38V51.5H11.5059V48.38ZM18.9251 51.572C16.8731 51.572 15.6371 50.336 15.6371 48.428C15.6371 46.508 16.8971 45.26 18.8051 45.26C20.6531 45.26 21.9011 46.412 21.9251 48.224C21.9251 48.404 21.9131 48.608 21.8771 48.8H17.4011V48.884C17.4371 49.76 18.0011 50.288 18.8531 50.288C19.5371 50.288 20.0171 49.988 20.1611 49.412H21.8291C21.6371 50.612 20.5691 51.572 18.9251 51.572ZM17.4371 47.696H20.2211C20.1011 46.94 19.5851 46.52 18.8171 46.52C18.0851 46.52 17.5331 46.964 17.4371 47.696ZM22.5148 49.448H24.1228C24.1828 49.988 24.6508 50.36 25.4788 50.36C26.1868 50.36 26.6188 50.132 26.6188 49.7C26.6188 49.196 26.1988 49.16 25.2028 49.028C23.7628 48.86 22.6468 48.536 22.6468 47.264C22.6468 46.04 23.7148 45.236 25.2988 45.248C26.9548 45.248 28.0948 45.98 28.1788 47.24H26.5588C26.5108 46.748 26.0428 46.448 25.3588 46.448C24.6988 46.448 24.2668 46.688 24.2668 47.084C24.2668 47.552 24.7948 47.6 25.6828 47.708C27.0988 47.852 28.2748 48.176 28.2748 49.568C28.2748 50.792 27.1228 51.572 25.4668 51.572C23.7508 51.572 22.5868 50.768 22.5148 49.448Z" fill="#131313"/>
<path d="M40.8608 51.572C39.3368 51.572 38.2928 50.66 38.0888 49.256H39.0968C39.2888 50.108 39.8888 50.684 40.9088 50.684C42.3728 50.684 43.1768 49.352 43.1768 47.456C43.1768 47.336 43.1768 47.252 43.1648 47.048C43.1528 47.096 43.1408 47.168 43.0928 47.276C42.7208 48.104 41.8808 48.656 40.7528 48.656C39.0968 48.656 37.9328 47.564 37.9328 45.848C37.9328 44.228 39.1208 43.028 40.8488 43.028C42.0128 43.028 42.8648 43.556 43.3928 44.42C43.8128 45.152 44.0528 46.16 44.0528 47.264C44.0528 49.904 42.8648 51.572 40.8608 51.572ZM40.8248 47.768C41.9888 47.768 42.7808 46.976 42.7808 45.824C42.7808 44.696 42.0128 43.916 40.8608 43.916C39.6968 43.916 38.9408 44.72 38.9408 45.848C38.9408 46.964 39.6608 47.768 40.8248 47.768ZM46.5704 44.012V43.1H47.5544V51.5H46.5464V45.476C46.4264 45.584 46.2344 45.632 45.9704 45.632H44.6144V44.732H45.9824C46.3784 44.732 46.5704 44.432 46.5704 44.012ZM48.9387 50.9C48.9387 50.492 49.2267 50.228 49.6227 50.228C50.0187 50.228 50.3067 50.492 50.3067 50.9C50.3067 51.308 50.0187 51.572 49.6227 51.572C49.2267 51.572 48.9387 51.308 48.9387 50.9ZM50.6755 49.448V48.548L54.9595 43.1H56.0875V48.524H57.4435V49.448H56.0875V51.5H55.0795V49.448H50.6755ZM55.0795 44.336L51.8035 48.524H55.0795V44.336ZM59.9025 42.812C60.4945 42.812 60.9425 43.048 61.2465 43.52C61.5505 43.984 61.7025 44.64 61.7025 45.488C61.7025 46.336 61.5545 47 61.2585 47.48C60.9705 47.952 60.5185 48.188 59.9025 48.188C59.5265 48.188 59.2065 48.08 58.9425 47.864C58.6785 47.648 58.4785 47.34 58.3425 46.94C58.2145 46.532 58.1505 46.048 58.1505 45.488C58.1505 44.64 58.2905 43.984 58.5705 43.52C58.8505 43.048 59.2945 42.812 59.9025 42.812ZM59.9025 43.556C59.5985 43.556 59.3745 43.72 59.2305 44.048C59.0945 44.368 59.0265 44.848 59.0265 45.488C59.0265 46.128 59.0945 46.612 59.2305 46.94C59.3745 47.268 59.5985 47.432 59.9025 47.432C60.2145 47.432 60.4465 47.272 60.5985 46.952C60.7505 46.624 60.8265 46.136 60.8265 45.488C60.8265 44.848 60.7505 44.368 60.5985 44.048C60.4465 43.72 60.2145 43.556 59.9025 43.556ZM65.3865 42.932L60.6345 51.5H59.7105L64.4625 42.932H65.3865ZM65.1465 46.244C65.5385 46.244 65.8665 46.352 66.1305 46.568C66.3945 46.776 66.5945 47.08 66.7305 47.48C66.8745 47.872 66.9465 48.352 66.9465 48.92C66.9465 49.768 66.7985 50.432 66.5025 50.912C66.2145 51.384 65.7625 51.62 65.1465 51.62C64.7705 51.62 64.4505 51.512 64.1865 51.296C63.9225 51.08 63.7225 50.772 63.5865 50.372C63.4585 49.964 63.3945 49.48 63.3945 48.92C63.3945 48.072 63.5345 47.416 63.8145 46.952C64.0945 46.48 64.5385 46.244 65.1465 46.244ZM65.1465 47C64.8425 47 64.6185 47.16 64.4745 47.48C64.3385 47.8 64.2705 48.28 64.2705 48.92C64.2705 49.568 64.3385 50.056 64.4745 50.384C64.6185 50.704 64.8425 50.864 65.1465 50.864C65.4585 50.864 65.6905 50.704 65.8425 50.384C65.9945 50.064 66.0705 49.576 66.0705 48.92C66.0705 48.28 65.9945 47.8 65.8425 47.48C65.6905 47.16 65.4585 47 65.1465 47Z" fill="#131313"/>
<mask id="path-6-inside-1_111_8692" fill="white">
<path d="M278 32H349V62H278V32Z"/>
</mask>
<path d="M278 32H349V62H278V32Z" fill="#89CDFF"/>
<path d="M349 32H350V31H349V32ZM349 62V63H350V62H349ZM278 33H349V31H278V33ZM348 32V62H350V32H348ZM349 61H278V63H349V61Z" fill="#131313" mask="url(#path-6-inside-1_111_8692)"/>
<path d="M288.685 51.5H286.921V43.1H288.553L292.117 48.392V43.1H293.893V51.5H292.249L288.685 46.208V51.5ZM298.204 51.572C296.236 51.572 294.952 50.312 294.952 48.416C294.952 46.52 296.236 45.26 298.204 45.26C300.172 45.26 301.456 46.52 301.456 48.416C301.456 50.324 300.172 51.572 298.204 51.572ZM298.204 50.192C299.152 50.192 299.74 49.46 299.74 48.416C299.74 47.372 299.152 46.64 298.204 46.64C297.256 46.64 296.68 47.372 296.68 48.416C296.68 49.46 297.256 50.192 298.204 50.192Z" fill="#131313"/>
<path d="M315.006 47.156C315.942 47.372 316.686 48.092 316.686 49.244C316.686 50.6 315.522 51.572 313.626 51.572C311.73 51.572 310.566 50.6 310.566 49.244C310.566 48.104 311.298 47.372 312.246 47.156C311.442 46.976 310.806 46.268 310.806 45.26C310.806 43.94 311.91 43.028 313.626 43.028C315.342 43.028 316.446 43.94 316.446 45.26C316.446 46.22 315.822 46.976 315.006 47.156ZM311.838 45.26C311.838 46.088 312.546 46.64 313.626 46.64C314.706 46.64 315.414 46.088 315.414 45.26C315.414 44.444 314.706 43.892 313.626 43.892C312.546 43.892 311.838 44.444 311.838 45.26ZM313.626 50.708C314.826 50.708 315.654 50.072 315.654 49.172C315.654 48.284 314.826 47.648 313.626 47.648C312.426 47.648 311.598 48.284 311.598 49.172C311.598 50.072 312.438 50.708 313.626 50.708ZM317.458 50.9C317.458 50.492 317.746 50.228 318.142 50.228C318.538 50.228 318.826 50.492 318.826 50.9C318.826 51.308 318.538 51.572 318.142 51.572C317.746 51.572 317.458 51.308 317.458 50.9ZM320.016 50.18C319.596 49.448 319.356 48.44 319.356 47.336C319.356 44.696 320.544 43.028 322.548 43.028C324.072 43.028 325.116 43.94 325.32 45.344H324.312C324.12 44.492 323.52 43.916 322.5 43.916C321.036 43.916 320.232 45.248 320.232 47.144C320.232 47.264 320.232 47.348 320.244 47.552C320.256 47.504 320.268 47.432 320.316 47.324C320.688 46.496 321.528 45.944 322.656 45.944C324.312 45.944 325.476 47.036 325.476 48.752C325.476 50.372 324.288 51.572 322.56 51.572C321.396 51.572 320.544 51.044 320.016 50.18ZM324.468 48.752C324.468 47.636 323.748 46.832 322.584 46.832C321.42 46.832 320.628 47.624 320.628 48.776C320.628 49.904 321.396 50.684 322.548 50.684C323.712 50.684 324.468 49.88 324.468 48.752ZM328.281 42.812C328.873 42.812 329.321 43.048 329.625 43.52C329.929 43.984 330.081 44.64 330.081 45.488C330.081 46.336 329.933 47 329.637 47.48C329.349 47.952 328.897 48.188 328.281 48.188C327.905 48.188 327.585 48.08 327.321 47.864C327.057 47.648 326.857 47.34 326.721 46.94C326.593 46.532 326.529 46.048 326.529 45.488C326.529 44.64 326.669 43.984 326.949 43.52C327.229 43.048 327.673 42.812 328.281 42.812ZM328.281 43.556C327.977 43.556 327.753 43.72 327.609 44.048C327.473 44.368 327.405 44.848 327.405 45.488C327.405 46.128 327.473 46.612 327.609 46.94C327.753 47.268 327.977 47.432 328.281 47.432C328.593 47.432 328.825 47.272 328.977 46.952C329.129 46.624 329.205 46.136 329.205 45.488C329.205 44.848 329.129 44.368 328.977 44.048C328.825 43.72 328.593 43.556 328.281 43.556ZM333.765 42.932L329.013 51.5H328.089L332.841 42.932H333.765ZM333.525 46.244C333.917 46.244 334.245 46.352 334.509 46.568C334.773 46.776 334.973 47.08 335.109 47.48C335.253 47.872 335.325 48.352 335.325 48.92C335.325 49.768 335.177 50.432 334.881 50.912C334.593 51.384 334.141 51.62 333.525 51.62C333.149 51.62 332.829 51.512 332.565 51.296C332.301 51.08 332.101 50.772 331.965 50.372C331.837 49.964 331.773 49.48 331.773 48.92C331.773 48.072 331.913 47.416 332.193 46.952C332.473 46.48 332.917 46.244 333.525 46.244ZM333.525 47C333.221 47 332.997 47.16 332.853 47.48C332.717 47.8 332.649 48.28 332.649 48.92C332.649 49.568 332.717 50.056 332.853 50.384C332.997 50.704 333.221 50.864 333.525 50.864C333.837 50.864 334.069 50.704 334.221 50.384C334.373 50.064 334.449 49.576 334.449 48.92C334.449 48.28 334.373 47.8 334.221 47.48C334.069 47.16 333.837 47 333.525 47Z" fill="#131313"/>
</svg>
