<svg width="349" height="62" viewBox="0 0 349 62" fill="none" xmlns="http://www.w3.org/2000/svg">
<path d="M10.928 13.936H12.032V16H10.88C9.92 16 9.52 15.728 9.136 15.248C8.288 15.792 7.232 16.096 6.064 16.096C2.768 16.096 0.512 13.664 0.512 10.4C0.512 7.136 2.768 4.704 6.064 4.704C9.36 4.704 11.616 7.136 11.616 10.4C11.616 11.728 11.248 12.928 10.576 13.872C10.672 13.904 10.784 13.936 10.928 13.936ZM2.96 10.4C2.96 12.512 4.176 14.064 6.064 14.064C6.72 14.064 7.296 13.872 7.776 13.536L7.616 13.344C7.376 13.024 7.168 12.848 6.816 12.848H5.776V10.816H6.992C7.936 10.816 8.256 11.152 8.64 11.632L8.896 11.952C9.072 11.488 9.152 10.96 9.152 10.4C9.152 8.288 7.936 6.736 6.064 6.736C4.176 6.736 2.96 8.288 2.96 10.4ZM18.4908 11.888V7.776H20.7468V16H18.7468L18.5388 15.008C18.0108 15.648 17.2908 16.096 16.1228 16.096C14.4268 16.096 12.8588 15.248 12.8588 12.336V7.776H15.1148V12.032C15.1148 13.504 15.5948 14.224 16.7148 14.224C17.8348 14.224 18.4908 13.408 18.4908 11.888ZM26.3793 16.096C23.6432 16.096 21.9953 14.448 21.9953 11.904C21.9953 9.344 23.6753 7.68 26.2193 7.68C28.6833 7.68 30.3472 9.216 30.3793 11.632C30.3793 11.872 30.3633 12.144 30.3153 12.4H24.3473V12.512C24.3953 13.68 25.1473 14.384 26.2833 14.384C27.1953 14.384 27.8353 13.984 28.0273 13.216H30.2513C29.9953 14.816 28.5713 16.096 26.3793 16.096ZM24.3953 10.928H28.1073C27.9473 9.92 27.2593 9.36 26.2352 9.36C25.2593 9.36 24.5233 9.952 24.3953 10.928ZM31.1656 13.264H33.3096C33.3896 13.984 34.0136 14.48 35.1176 14.48C36.0616 14.48 36.6376 14.176 36.6376 13.6C36.6376 12.928 36.0776 12.88 34.7496 12.704C32.8296 12.48 31.3416 12.048 31.3416 10.352C31.3416 8.72 32.7656 7.648 34.8776 7.664C37.0856 7.664 38.6056 8.64 38.7176 10.32H36.5576C36.4936 9.664 35.8696 9.264 34.9576 9.264C34.0776 9.264 33.5016 9.584 33.5016 10.112C33.5016 10.736 34.2056 10.8 35.3896 10.944C37.2776 11.136 38.8456 11.568 38.8456 13.424C38.8456 15.056 37.3096 16.096 35.1016 16.096C32.8136 16.096 31.2616 15.024 31.1656 13.264ZM40.626 13.648V9.68H39.266V7.776H40.626V5.472H42.882V7.776H44.77V9.68H42.882V13.28C42.882 13.856 43.106 14.096 43.698 14.096H44.818V16H42.978C41.41 16 40.626 15.216 40.626 13.648ZM46.9981 6.896C46.2621 6.896 45.6861 6.352 45.6861 5.632C45.6861 4.896 46.2621 4.352 46.9981 4.352C47.7341 4.352 48.3101 4.896 48.3101 5.632C48.3101 6.352 47.7341 6.896 46.9981 6.896ZM45.8621 16V7.776H48.1341V16H45.8621ZM53.7063 16.096C51.0823 16.096 49.3703 14.416 49.3703 11.888C49.3703 9.36 51.0823 7.68 53.7063 7.68C56.3303 7.68 58.0423 9.36 58.0423 11.888C58.0423 14.432 56.3303 16.096 53.7063 16.096ZM53.7063 14.256C54.9703 14.256 55.7543 13.28 55.7543 11.888C55.7543 10.496 54.9703 9.52 53.7063 9.52C52.4423 9.52 51.6743 10.496 51.6743 11.888C51.6743 13.28 52.4423 14.256 53.7063 14.256ZM64.004 7.68C65.78 7.68 67.3 8.624 67.3 11.44V16H65.044V11.664C65.044 10.272 64.516 9.536 63.38 9.536C62.212 9.536 61.54 10.368 61.54 11.792V16H59.284V7.776H61.252L61.46 8.8C61.988 8.16 62.74 7.68 64.004 7.68ZM74.5623 5.824V4.8H76.8183V16H74.5143V8.752C74.3383 8.8 74.1463 8.816 73.9062 8.816H72.0343V6.912H73.6983C74.3383 6.912 74.5623 6.48 74.5623 5.824ZM78.1173 16V14.224L82.3733 10.704C83.3493 9.904 83.9573 9.232 83.9573 8.32C83.9573 7.216 83.2373 6.64 82.2133 6.64C81.1413 6.64 80.4053 7.376 80.4053 8.592V8.768H78.0853V8.448C78.0853 6.336 79.6693 4.704 82.2293 4.704C84.8533 4.704 86.2773 6.128 86.2773 8.224C86.2773 9.872 85.3813 10.88 83.9733 12.016L81.4613 14.064H86.3413V16H78.1173ZM96.9744 12.368H91.3744V10.528H96.9744V12.368ZM102.666 16V4.8H106.954C109.194 4.8 110.682 6.144 110.682 8.24C110.682 9.808 109.738 11.024 108.298 11.424L110.81 16H109.242L106.874 11.696H104.058V16H102.666ZM106.858 6.08H104.058V10.416H106.842C108.314 10.416 109.258 9.552 109.258 8.24C109.258 6.928 108.314 6.08 106.858 6.08ZM112.927 6.464C112.447 6.464 112.079 6.112 112.079 5.616C112.079 5.12 112.447 4.768 112.927 4.768C113.407 4.768 113.775 5.12 113.775 5.616C113.775 6.112 113.407 6.464 112.927 6.464ZM112.255 16V7.84H113.567V16H112.255ZM115.029 13.312H116.373C116.421 14.272 117.269 14.976 118.629 14.976C119.781 14.976 120.597 14.48 120.597 13.728C120.597 12.704 119.701 12.624 118.485 12.48C116.661 12.256 115.205 11.888 115.205 10.192C115.205 8.704 116.565 7.728 118.405 7.744C120.261 7.76 121.605 8.624 121.733 10.32H120.389C120.293 9.488 119.525 8.864 118.405 8.864C117.269 8.864 116.501 9.344 116.501 10.096C116.501 10.992 117.365 11.104 118.549 11.248C120.405 11.472 121.893 11.824 121.893 13.632C121.893 15.152 120.437 16.096 118.629 16.096C116.517 16.096 115.061 15.104 115.029 13.312ZM123.349 16V4.8H124.661V12.176L128.757 7.84H130.373L127.189 11.216L130.597 16H129.013L126.309 12.16L124.661 13.856V16H123.349ZM132.193 6.464C131.713 6.464 131.345 6.112 131.345 5.616C131.345 5.12 131.713 4.768 132.193 4.768C132.673 4.768 133.041 5.12 133.041 5.616C133.041 6.112 132.673 6.464 132.193 6.464ZM131.521 16V7.84H132.833V16H131.521ZM138.63 7.744C140.47 7.744 141.926 8.752 141.926 11.456V16H140.614V11.536C140.614 9.84 139.83 8.944 138.406 8.944C136.87 8.944 135.942 10.08 135.942 11.92V16H134.63V7.84H135.766L135.942 8.944C136.422 8.32 137.254 7.744 138.63 7.744ZM150.031 9.248L150.207 7.84H151.343V15.6C151.343 17.952 150.095 19.296 147.295 19.296C145.215 19.296 143.759 18.32 143.551 16.528H144.895C145.119 17.552 146.031 18.128 147.391 18.128C149.103 18.128 150.031 17.328 150.031 15.552V14.592C149.487 15.52 148.607 16.096 147.231 16.096C144.975 16.096 143.311 14.576 143.311 11.92C143.311 9.424 144.975 7.744 147.231 7.744C148.607 7.744 149.519 8.336 150.031 9.248ZM147.359 14.928C148.959 14.928 150.047 13.696 150.047 11.952C150.047 10.16 148.959 8.912 147.359 8.912C145.743 8.912 144.655 10.144 144.655 11.92C144.655 13.696 145.743 14.928 147.359 14.928ZM157.99 6.464C157.51 6.464 157.142 6.112 157.142 5.616C157.142 5.12 157.51 4.768 157.99 4.768C158.47 4.768 158.838 5.12 158.838 5.616C158.838 6.112 158.47 6.464 157.99 6.464ZM157.318 16V7.84H158.63V16H157.318ZM161.035 13.872V9.04H159.563V7.84H161.035V5.552H162.347V7.84H164.459V9.04H162.347V13.856C162.347 14.544 162.587 14.8 163.291 14.8H164.587V16H163.163C161.595 16 161.035 15.312 161.035 13.872ZM177.128 14.8H177.544V16H176.824C175.736 16 175.368 15.536 175.352 14.736C174.84 15.472 174.024 16.096 172.616 16.096C170.824 16.096 169.608 15.2 169.608 13.712C169.608 12.08 170.744 11.168 172.888 11.168H175.288V10.608C175.288 9.552 174.536 8.912 173.256 8.912C172.104 8.912 171.336 9.456 171.176 10.288H169.864C170.056 8.688 171.352 7.744 173.32 7.744C175.4 7.744 176.6 8.784 176.6 10.688V14.256C176.6 14.688 176.76 14.8 177.128 14.8ZM175.288 12.672V12.272H172.76C171.592 12.272 170.936 12.704 170.936 13.632C170.936 14.432 171.624 14.976 172.712 14.976C174.344 14.976 175.288 14.032 175.288 12.672ZM178.552 16V4.8H179.864V16H178.552ZM181.662 16V4.8H182.974V16H181.662Z" fill="#131313"/>
<path d="M333.531 13.625L333.531 12.25L334.85 12.25L334.85 13.625L333.531 13.625Z" fill="#131313"/>
<path d="M346.714 13.625L346.714 12.25L348.033 12.25L348.033 13.625L346.714 13.625Z" fill="#131313"/>
<path d="M334.85 15L334.85 13.625L336.168 13.625L336.168 15L334.85 15Z" fill="#131313"/>
<path d="M345.396 15L345.396 13.625L346.714 13.625L346.714 15L345.396 15Z" fill="#131313"/>
<path d="M334.85 13.625L334.85 12.25L336.168 12.25L336.168 13.625L334.85 13.625Z" fill="#131313"/>
<path d="M345.396 13.625L345.396 12.25L346.714 12.25L346.714 13.625L345.396 13.625Z" fill="#131313"/>
<path d="M336.168 13.625L336.168 12.25L337.486 12.25L337.486 13.625L336.168 13.625Z" fill="#131313"/>
<path d="M344.078 13.625L344.078 12.25L345.396 12.25L345.396 13.625L344.078 13.625Z" fill="#131313"/>
<path d="M334.85 12.25L334.85 10.875L336.168 10.875L336.168 12.25L334.85 12.25Z" fill="#131313"/>
<path d="M345.396 12.25L345.396 10.875L346.714 10.875L346.714 12.25L345.396 12.25Z" fill="#131313"/>
<path d="M336.168 12.25L336.168 10.875L337.486 10.875L337.486 12.25L336.168 12.25Z" fill="#131313"/>
<path d="M344.078 12.25L344.078 10.875L345.396 10.875L345.396 12.25L344.078 12.25Z" fill="#131313"/>
<path d="M337.486 12.25L337.486 10.875L338.804 10.875L338.804 12.25L337.486 12.25Z" fill="#131313"/>
<path d="M334.85 10.875L334.85 9.5L336.168 9.5L336.168 10.875L334.85 10.875Z" fill="#131313"/>
<path d="M345.396 10.875L345.396 9.5L346.714 9.5L346.714 10.875L345.396 10.875Z" fill="#131313"/>
<path d="M336.168 10.875L336.168 9.5L337.486 9.5L337.486 10.875L336.168 10.875Z" fill="#131313"/>
<path d="M344.078 10.875L344.078 9.5L345.396 9.5L345.396 10.875L344.078 10.875Z" fill="#131313"/>
<path d="M337.486 10.875L337.486 9.5L338.804 9.5L338.804 10.875L337.486 10.875Z" fill="#131313"/>
<path d="M338.804 10.875L338.804 9.5L340.123 9.5L340.123 10.875L338.804 10.875Z" fill="#131313"/>
<path d="M341.441 10.875L341.441 9.5L342.759 9.5L342.759 10.875L341.441 10.875Z" fill="#131313"/>
<path d="M342.759 10.875L342.759 9.5L344.078 9.5L344.078 10.875L342.759 10.875Z" fill="#131313"/>
<path d="M342.759 12.25L342.759 10.875L344.078 10.875L344.078 12.25L342.759 12.25Z" fill="#131313"/>
<path d="M336.168 9.5L336.168 8.125L337.486 8.125L337.486 9.5L336.168 9.5Z" fill="#131313"/>
<path d="M344.078 9.5L344.078 8.125L345.396 8.125L345.396 9.5L344.078 9.5Z" fill="#131313"/>
<path d="M337.486 9.5L337.486 8.125L338.804 8.125L338.804 9.5L337.486 9.5Z" fill="#131313"/>
<path d="M338.804 9.5L338.804 8.125L340.123 8.125L340.123 9.5L338.804 9.5Z" fill="#131313"/>
<path d="M341.441 9.5L341.441 8.125L342.759 8.125L342.759 9.5L341.441 9.5Z" fill="#131313"/>
<path d="M342.759 9.5L342.759 8.125L344.078 8.125L344.078 9.5L342.759 9.5Z" fill="#131313"/>
<path d="M340.123 9.5L340.123 8.125L341.441 8.125L341.441 9.5L340.123 9.5Z" fill="#131313"/>
<path d="M337.486 8.125L337.486 6.75L338.804 6.75L338.804 8.125L337.486 8.125Z" fill="#131313"/>
<path d="M338.804 8.125L338.804 6.75L340.123 6.75L340.123 8.125L338.804 8.125Z" fill="#131313"/>
<path d="M341.441 8.125L341.441 6.75L342.759 6.75L342.759 8.125L341.441 8.125Z" fill="#131313"/>
<path d="M342.759 8.125L342.759 6.75L344.078 6.75L344.078 8.125L342.759 8.125Z" fill="#131313"/>
<path d="M340.123 8.125L340.123 6.75L341.441 6.75L341.441 8.125L340.123 8.125Z" fill="#131313"/>
<path d="M338.804 6.75L338.804 5.375L340.123 5.375L340.123 6.75L338.804 6.75Z" fill="#131313"/>
<path d="M340.123 5.375L340.123 4L341.441 4L341.441 5.375L340.123 5.375Z" fill="#131313"/>
<path d="M340.123 6.75L340.123 5.375L341.441 5.375L341.441 6.75L340.123 6.75Z" fill="#131313"/>
<path d="M341.441 6.75L341.441 5.375L342.759 5.375L342.759 6.75L341.441 6.75Z" fill="#131313"/>
<path d="M333.531 12.25L333.531 10.875L334.85 10.875L334.85 12.25L333.531 12.25Z" fill="#131313"/>
<path d="M346.714 12.25L346.714 10.875L348.033 10.875L348.033 12.25L346.714 12.25Z" fill="#131313"/>
<rect x="0.5" y="32.5" width="209" height="29" fill="#DCECA1"/>
<rect x="0.5" y="32.5" width="209" height="29" stroke="#131313"/>
<path d="M11.5059 48.38L8.42188 43.1H10.5219L12.4059 46.544L14.3859 43.1H16.3899L13.3059 48.38V51.5H11.5059V48.38ZM18.9251 51.572C16.8731 51.572 15.6371 50.336 15.6371 48.428C15.6371 46.508 16.8971 45.26 18.8051 45.26C20.6531 45.26 21.9011 46.412 21.9251 48.224C21.9251 48.404 21.9131 48.608 21.8771 48.8H17.4011V48.884C17.4371 49.76 18.0011 50.288 18.8531 50.288C19.5371 50.288 20.0171 49.988 20.1611 49.412H21.8291C21.6371 50.612 20.5691 51.572 18.9251 51.572ZM17.4371 47.696H20.2211C20.1011 46.94 19.5851 46.52 18.8171 46.52C18.0851 46.52 17.5331 46.964 17.4371 47.696ZM22.5148 49.448H24.1228C24.1828 49.988 24.6508 50.36 25.4788 50.36C26.1868 50.36 26.6188 50.132 26.6188 49.7C26.6188 49.196 26.1988 49.16 25.2028 49.028C23.7628 48.86 22.6468 48.536 22.6468 47.264C22.6468 46.04 23.7148 45.236 25.2988 45.248C26.9548 45.248 28.0948 45.98 28.1788 47.24H26.5588C26.5108 46.748 26.0428 46.448 25.3588 46.448C24.6988 46.448 24.2668 46.688 24.2668 47.084C24.2668 47.552 24.7948 47.6 25.6828 47.708C27.0988 47.852 28.2748 48.176 28.2748 49.568C28.2748 50.792 27.1228 51.572 25.4668 51.572C23.7508 51.572 22.5868 50.768 22.5148 49.448Z" fill="#131313"/>
<path d="M38.3518 50.18C37.9318 49.448 37.6918 48.44 37.6918 47.336C37.6918 44.696 38.8798 43.028 40.8838 43.028C42.4078 43.028 43.4518 43.94 43.6558 45.344H42.6478C42.4558 44.492 41.8558 43.916 40.8358 43.916C39.3718 43.916 38.5678 45.248 38.5678 47.144C38.5678 47.264 38.5678 47.348 38.5798 47.552C38.5918 47.504 38.6038 47.432 38.6518 47.324C39.0238 46.496 39.8638 45.944 40.9918 45.944C42.6478 45.944 43.8118 47.036 43.8118 48.752C43.8118 50.372 42.6238 51.572 40.8958 51.572C39.7318 51.572 38.8798 51.044 38.3518 50.18ZM42.8038 48.752C42.8038 47.636 42.0838 46.832 40.9198 46.832C39.7558 46.832 38.9638 47.624 38.9638 48.776C38.9638 49.904 39.7318 50.684 40.8838 50.684C42.0478 50.684 42.8038 49.88 42.8038 48.752ZM47.9373 45.872C49.5813 45.872 50.7213 47.024 50.7213 48.692C50.7213 50.552 49.3533 51.56 47.7813 51.56C45.9093 51.56 44.8293 50.348 44.7453 48.884H45.7413C45.8373 49.856 46.5693 50.66 47.7813 50.66C48.7653 50.66 49.6893 50 49.6893 48.704C49.6893 47.564 48.9573 46.76 47.7933 46.76C47.2773 46.76 46.2453 46.904 45.8853 47.9L44.9133 47.876L45.1893 43.1H50.2173V44.024H46.1133L45.9213 46.676C46.4373 46.064 47.1573 45.872 47.9373 45.872ZM51.3684 50.9C51.3684 50.492 51.6564 50.228 52.0524 50.228C52.4484 50.228 52.7364 50.492 52.7364 50.9C52.7364 51.308 52.4484 51.572 52.0524 51.572C51.6564 51.572 51.3684 51.308 51.3684 50.9ZM53.926 50.18C53.506 49.448 53.266 48.44 53.266 47.336C53.266 44.696 54.454 43.028 56.458 43.028C57.982 43.028 59.026 43.94 59.23 45.344H58.222C58.03 44.492 57.43 43.916 56.41 43.916C54.946 43.916 54.142 45.248 54.142 47.144C54.142 47.264 54.142 47.348 54.154 47.552C54.166 47.504 54.178 47.432 54.226 47.324C54.598 46.496 55.438 45.944 56.566 45.944C58.222 45.944 59.386 47.036 59.386 48.752C59.386 50.372 58.198 51.572 56.47 51.572C55.306 51.572 54.454 51.044 53.926 50.18ZM58.378 48.752C58.378 47.636 57.658 46.832 56.494 46.832C55.33 46.832 54.538 47.624 54.538 48.776C54.538 49.904 55.306 50.684 56.458 50.684C57.622 50.684 58.378 49.88 58.378 48.752ZM62.1916 42.812C62.7836 42.812 63.2316 43.048 63.5356 43.52C63.8396 43.984 63.9916 44.64 63.9916 45.488C63.9916 46.336 63.8436 47 63.5476 47.48C63.2596 47.952 62.8076 48.188 62.1916 48.188C61.8156 48.188 61.4956 48.08 61.2316 47.864C60.9676 47.648 60.7676 47.34 60.6316 46.94C60.5036 46.532 60.4396 46.048 60.4396 45.488C60.4396 44.64 60.5796 43.984 60.8596 43.52C61.1396 43.048 61.5836 42.812 62.1916 42.812ZM62.1916 43.556C61.8876 43.556 61.6636 43.72 61.5196 44.048C61.3836 44.368 61.3156 44.848 61.3156 45.488C61.3156 46.128 61.3836 46.612 61.5196 46.94C61.6636 47.268 61.8876 47.432 62.1916 47.432C62.5036 47.432 62.7356 47.272 62.8876 46.952C63.0396 46.624 63.1156 46.136 63.1156 45.488C63.1156 44.848 63.0396 44.368 62.8876 44.048C62.7356 43.72 62.5036 43.556 62.1916 43.556ZM67.6756 42.932L62.9236 51.5H61.9996L66.7516 42.932H67.6756ZM67.4356 46.244C67.8276 46.244 68.1556 46.352 68.4196 46.568C68.6836 46.776 68.8836 47.08 69.0196 47.48C69.1636 47.872 69.2356 48.352 69.2356 48.92C69.2356 49.768 69.0876 50.432 68.7916 50.912C68.5036 51.384 68.0516 51.62 67.4356 51.62C67.0596 51.62 66.7396 51.512 66.4756 51.296C66.2116 51.08 66.0116 50.772 65.8756 50.372C65.7476 49.964 65.6836 49.48 65.6836 48.92C65.6836 48.072 65.8236 47.416 66.1036 46.952C66.3836 46.48 66.8276 46.244 67.4356 46.244ZM67.4356 47C67.1316 47 66.9076 47.16 66.7636 47.48C66.6276 47.8 66.5596 48.28 66.5596 48.92C66.5596 49.568 66.6276 50.056 66.7636 50.384C66.9076 50.704 67.1316 50.864 67.4356 50.864C67.7476 50.864 67.9796 50.704 68.1316 50.384C68.2836 50.064 68.3596 49.576 68.3596 48.92C68.3596 48.28 68.2836 47.8 68.1316 47.48C67.9796 47.16 67.7476 47 67.4356 47Z" fill="#131313"/>
<mask id="path-6-inside-1_538_2883" fill="white">
<path d="M210 32H349V62H210V32Z"/>
</mask>
<path d="M210 32H349V62H210V32Z" fill="#FD9DAF"/>
<path d="M349 32H350V31H349V32ZM349 62V63H350V62H349ZM210 33H349V31H210V33ZM348 32V62H350V32H348ZM349 61H210V63H349V61Z" fill="#131313" mask="url(#path-6-inside-1_538_2883)"/>
<path d="M220.685 51.5H218.921V43.1H220.553L224.117 48.392V43.1H225.893V51.5H224.249L220.685 46.208V51.5ZM230.204 51.572C228.236 51.572 226.952 50.312 226.952 48.416C226.952 46.52 228.236 45.26 230.204 45.26C232.172 45.26 233.456 46.52 233.456 48.416C233.456 50.324 232.172 51.572 230.204 51.572ZM230.204 50.192C231.152 50.192 231.74 49.46 231.74 48.416C231.74 47.372 231.152 46.64 230.204 46.64C229.256 46.64 228.68 47.372 228.68 48.416C228.68 49.46 229.256 50.192 230.204 50.192Z" fill="#131313"/>
<path d="M246.864 47.132C247.632 47.276 248.436 47.888 248.436 49.172C248.436 50.6 247.236 51.572 245.412 51.572C243.588 51.572 242.412 50.576 242.412 48.908H243.408C243.42 50.012 244.284 50.672 245.472 50.672C246.564 50.672 247.404 50.06 247.404 49.1C247.404 48.224 246.684 47.66 245.376 47.66H244.656V46.784H245.316C246.564 46.784 247.188 46.16 247.188 45.308C247.188 44.456 246.42 43.928 245.412 43.928C244.356 43.928 243.588 44.564 243.576 45.524H242.58C242.592 44.048 243.744 43.028 245.4 43.028C247.128 43.028 248.22 43.928 248.22 45.248C248.22 46.304 247.668 46.916 246.864 47.132ZM249.076 49.448V48.548L253.36 43.1H254.488V48.524H255.844V49.448H254.488V51.5H253.48V49.448H249.076ZM253.48 44.336L250.204 48.524H253.48V44.336ZM256.327 50.9C256.327 50.492 256.615 50.228 257.011 50.228C257.407 50.228 257.695 50.492 257.695 50.9C257.695 51.308 257.407 51.572 257.011 51.572C256.615 51.572 256.327 51.308 256.327 50.9ZM258.064 49.448V48.548L262.348 43.1H263.476V48.524H264.832V49.448H263.476V51.5H262.468V49.448H258.064ZM262.468 44.336L259.192 48.524H262.468V44.336ZM267.291 42.812C267.883 42.812 268.331 43.048 268.635 43.52C268.939 43.984 269.091 44.64 269.091 45.488C269.091 46.336 268.943 47 268.647 47.48C268.359 47.952 267.907 48.188 267.291 48.188C266.915 48.188 266.595 48.08 266.331 47.864C266.067 47.648 265.867 47.34 265.731 46.94C265.603 46.532 265.539 46.048 265.539 45.488C265.539 44.64 265.679 43.984 265.959 43.52C266.239 43.048 266.683 42.812 267.291 42.812ZM267.291 43.556C266.987 43.556 266.763 43.72 266.619 44.048C266.483 44.368 266.415 44.848 266.415 45.488C266.415 46.128 266.483 46.612 266.619 46.94C266.763 47.268 266.987 47.432 267.291 47.432C267.603 47.432 267.835 47.272 267.987 46.952C268.139 46.624 268.215 46.136 268.215 45.488C268.215 44.848 268.139 44.368 267.987 44.048C267.835 43.72 267.603 43.556 267.291 43.556ZM272.775 42.932L268.023 51.5H267.099L271.851 42.932H272.775ZM272.535 46.244C272.927 46.244 273.255 46.352 273.519 46.568C273.783 46.776 273.983 47.08 274.119 47.48C274.263 47.872 274.335 48.352 274.335 48.92C274.335 49.768 274.187 50.432 273.891 50.912C273.603 51.384 273.151 51.62 272.535 51.62C272.159 51.62 271.839 51.512 271.575 51.296C271.311 51.08 271.111 50.772 270.975 50.372C270.847 49.964 270.783 49.48 270.783 48.92C270.783 48.072 270.923 47.416 271.203 46.952C271.483 46.48 271.927 46.244 272.535 46.244ZM272.535 47C272.231 47 272.007 47.16 271.863 47.48C271.727 47.8 271.659 48.28 271.659 48.92C271.659 49.568 271.727 50.056 271.863 50.384C272.007 50.704 272.231 50.864 272.535 50.864C272.847 50.864 273.079 50.704 273.231 50.384C273.383 50.064 273.459 49.576 273.459 48.92C273.459 48.28 273.383 47.8 273.231 47.48C273.079 47.16 272.847 47 272.535 47Z" fill="#131313"/>
</svg>
