<svg width="349" height="62" viewBox="0 0 349 62" fill="none" xmlns="http://www.w3.org/2000/svg">
<path d="M10.928 13.936H12.032V16H10.88C9.92 16 9.52 15.728 9.136 15.248C8.288 15.792 7.232 16.096 6.064 16.096C2.768 16.096 0.512 13.664 0.512 10.4C0.512 7.136 2.768 4.704 6.064 4.704C9.36 4.704 11.616 7.136 11.616 10.4C11.616 11.728 11.248 12.928 10.576 13.872C10.672 13.904 10.784 13.936 10.928 13.936ZM2.96 10.4C2.96 12.512 4.176 14.064 6.064 14.064C6.72 14.064 7.296 13.872 7.776 13.536L7.616 13.344C7.376 13.024 7.168 12.848 6.816 12.848H5.776V10.816H6.992C7.936 10.816 8.256 11.152 8.64 11.632L8.896 11.952C9.072 11.488 9.152 10.96 9.152 10.4C9.152 8.288 7.936 6.736 6.064 6.736C4.176 6.736 2.96 8.288 2.96 10.4ZM18.4908 11.888V7.776H20.7468V16H18.7468L18.5388 15.008C18.0108 15.648 17.2908 16.096 16.1228 16.096C14.4268 16.096 12.8588 15.248 12.8588 12.336V7.776H15.1148V12.032C15.1148 13.504 15.5948 14.224 16.7148 14.224C17.8348 14.224 18.4908 13.408 18.4908 11.888ZM26.3793 16.096C23.6432 16.096 21.9953 14.448 21.9953 11.904C21.9953 9.344 23.6753 7.68 26.2193 7.68C28.6833 7.68 30.3472 9.216 30.3793 11.632C30.3793 11.872 30.3633 12.144 30.3153 12.4H24.3473V12.512C24.3953 13.68 25.1473 14.384 26.2833 14.384C27.1953 14.384 27.8353 13.984 28.0273 13.216H30.2513C29.9953 14.816 28.5713 16.096 26.3793 16.096ZM24.3953 10.928H28.1073C27.9473 9.92 27.2593 9.36 26.2352 9.36C25.2593 9.36 24.5233 9.952 24.3953 10.928ZM31.1656 13.264H33.3096C33.3896 13.984 34.0136 14.48 35.1176 14.48C36.0616 14.48 36.6376 14.176 36.6376 13.6C36.6376 12.928 36.0776 12.88 34.7496 12.704C32.8296 12.48 31.3416 12.048 31.3416 10.352C31.3416 8.72 32.7656 7.648 34.8776 7.664C37.0856 7.664 38.6056 8.64 38.7176 10.32H36.5576C36.4936 9.664 35.8696 9.264 34.9576 9.264C34.0776 9.264 33.5016 9.584 33.5016 10.112C33.5016 10.736 34.2056 10.8 35.3896 10.944C37.2776 11.136 38.8456 11.568 38.8456 13.424C38.8456 15.056 37.3096 16.096 35.1016 16.096C32.8136 16.096 31.2616 15.024 31.1656 13.264ZM40.626 13.648V9.68H39.266V7.776H40.626V5.472H42.882V7.776H44.77V9.68H42.882V13.28C42.882 13.856 43.106 14.096 43.698 14.096H44.818V16H42.978C41.41 16 40.626 15.216 40.626 13.648ZM46.9981 6.896C46.2621 6.896 45.6861 6.352 45.6861 5.632C45.6861 4.896 46.2621 4.352 46.9981 4.352C47.7341 4.352 48.3101 4.896 48.3101 5.632C48.3101 6.352 47.7341 6.896 46.9981 6.896ZM45.8621 16V7.776H48.1341V16H45.8621ZM53.7063 16.096C51.0823 16.096 49.3703 14.416 49.3703 11.888C49.3703 9.36 51.0823 7.68 53.7063 7.68C56.3303 7.68 58.0423 9.36 58.0423 11.888C58.0423 14.432 56.3303 16.096 53.7063 16.096ZM53.7063 14.256C54.9703 14.256 55.7543 13.28 55.7543 11.888C55.7543 10.496 54.9703 9.52 53.7063 9.52C52.4423 9.52 51.6743 10.496 51.6743 11.888C51.6743 13.28 52.4423 14.256 53.7063 14.256ZM64.004 7.68C65.78 7.68 67.3 8.624 67.3 11.44V16H65.044V11.664C65.044 10.272 64.516 9.536 63.38 9.536C62.212 9.536 61.54 10.368 61.54 11.792V16H59.284V7.776H61.252L61.46 8.8C61.988 8.16 62.74 7.68 64.004 7.68ZM72.1303 13.6V11.696L77.0743 4.8H79.8743V11.68H81.4263V13.6H79.8743V16H77.6183V13.6H72.1303ZM77.6183 7.088L74.3383 11.68H77.6183V7.088ZM82.0615 14.768C82.0615 13.984 82.6375 13.424 83.4215 13.424C84.1895 13.424 84.7815 13.984 84.7815 14.768C84.7815 15.536 84.1895 16.096 83.4215 16.096C82.6375 16.096 82.0615 15.536 82.0615 14.768ZM90.1706 8.368C92.4266 8.368 93.9466 9.92 93.9466 12.208C93.9466 14.784 92.0266 16.096 89.7066 16.096C87.1146 16.096 85.5146 14.448 85.4186 12.4H87.7066C87.8186 13.408 88.5226 14.208 89.7226 14.208C90.6986 14.208 91.6266 13.536 91.6266 12.208C91.6266 11.024 90.8746 10.192 89.7066 10.192C89.0826 10.192 88.2186 10.432 87.8186 11.36H85.5946L85.9146 4.8H93.2746V6.736H88.0106L87.8826 9.184C88.4426 8.672 89.1786 8.368 90.1706 8.368ZM98.9369 11.616C98.9369 10.7413 99.0169 9.888 99.1769 9.056C99.3475 8.224 99.6089 7.42933 99.9609 6.672C100.313 5.91467 100.756 5.216 101.289 4.576H102.617C102.126 5.23733 101.71 5.952 101.369 6.72C101.038 7.488 100.788 8.28267 100.617 9.104C100.446 9.92533 100.361 10.7573 100.361 11.6C100.361 12.4213 100.446 13.2373 100.617 14.048C100.788 14.8587 101.038 15.6373 101.369 16.384C101.7 17.1413 102.11 17.856 102.601 18.528H101.289C100.756 17.8987 100.313 17.2107 99.9609 16.464C99.6089 15.728 99.3475 14.9493 99.1769 14.128C99.0169 13.3067 98.9369 12.4693 98.9369 11.616ZM105.542 16H104.182V4.8H105.462L111.478 13.44V4.8H112.838V16H111.558L105.542 7.36V16ZM118.578 16.096C116.194 16.096 114.53 14.4 114.53 11.92C114.53 9.44 116.194 7.744 118.578 7.744C120.962 7.744 122.626 9.44 122.626 11.92C122.626 14.4 120.962 16.096 118.578 16.096ZM118.578 14.928C120.194 14.928 121.282 13.664 121.282 11.92C121.282 10.176 120.194 8.912 118.578 8.912C116.962 8.912 115.874 10.176 115.874 11.92C115.874 13.664 116.962 14.928 118.578 14.928ZM127.394 11.616C127.394 12.4693 127.309 13.3067 127.138 14.128C126.978 14.9493 126.722 15.728 126.37 16.464C126.029 17.2107 125.586 17.8987 125.042 18.528H123.73C124.221 17.856 124.632 17.1413 124.962 16.384C125.293 15.6373 125.544 14.8587 125.714 14.048C125.885 13.2373 125.97 12.4213 125.97 11.6C125.97 10.7573 125.885 9.92533 125.714 9.104C125.544 8.28267 125.293 7.488 124.962 6.72C124.632 5.952 124.216 5.23733 123.714 4.576H125.042C125.586 5.216 126.029 5.91467 126.37 6.672C126.722 7.42933 126.978 8.224 127.138 9.056C127.309 9.888 127.394 10.7413 127.394 11.616Z" fill="#131313"/>
<path d="M348.033 5.375L348.033 6.75L346.715 6.75L346.715 5.375L348.033 5.375Z" fill="#131313"/>
<path d="M334.85 5.375L334.85 6.75L333.532 6.75L333.532 5.375L334.85 5.375Z" fill="#131313"/>
<path d="M346.715 4L346.715 5.375L345.397 5.375L345.397 4L346.715 4Z" fill="#131313"/>
<path d="M336.169 4L336.169 5.375L334.85 5.375L334.85 4L336.169 4Z" fill="#131313"/>
<path d="M346.715 5.375L346.715 6.75L345.397 6.75L345.397 5.375L346.715 5.375Z" fill="#131313"/>
<path d="M336.169 5.375L336.169 6.75L334.85 6.75L334.85 5.375L336.169 5.375Z" fill="#131313"/>
<path d="M345.397 5.375L345.397 6.75L344.079 6.75L344.079 5.375L345.397 5.375Z" fill="#131313"/>
<path d="M337.487 5.375L337.487 6.75L336.169 6.75L336.169 5.375L337.487 5.375Z" fill="#131313"/>
<path d="M346.715 6.75L346.715 8.125L345.397 8.125L345.397 6.75L346.715 6.75Z" fill="#131313"/>
<path d="M336.169 6.75L336.169 8.125L334.85 8.125L334.85 6.75L336.169 6.75Z" fill="#131313"/>
<path d="M345.397 6.75L345.397 8.125L344.079 8.125L344.079 6.75L345.397 6.75Z" fill="#131313"/>
<path d="M337.487 6.75L337.487 8.125L336.169 8.125L336.169 6.75L337.487 6.75Z" fill="#131313"/>
<path d="M344.079 6.75L344.079 8.125L342.76 8.125L342.76 6.75L344.079 6.75Z" fill="#131313"/>
<path d="M346.715 8.125L346.715 9.5L345.397 9.5L345.397 8.125L346.715 8.125Z" fill="#131313"/>
<path d="M336.169 8.125L336.169 9.5L334.85 9.5L334.85 8.125L336.169 8.125Z" fill="#131313"/>
<path d="M345.397 8.125L345.397 9.5L344.079 9.5L344.079 8.125L345.397 8.125Z" fill="#131313"/>
<path d="M337.487 8.125L337.487 9.5L336.169 9.5L336.169 8.125L337.487 8.125Z" fill="#131313"/>
<path d="M344.079 8.125L344.079 9.5L342.76 9.5L342.76 8.125L344.079 8.125Z" fill="#131313"/>
<path d="M342.76 8.125L342.76 9.5L341.442 9.5L341.442 8.125L342.76 8.125Z" fill="#131313"/>
<path d="M340.124 8.125L340.124 9.5L338.805 9.5L338.805 8.125L340.124 8.125Z" fill="#131313"/>
<path d="M338.805 8.125L338.805 9.5L337.487 9.5L337.487 8.125L338.805 8.125Z" fill="#131313"/>
<path d="M338.805 6.75L338.805 8.125L337.487 8.125L337.487 6.75L338.805 6.75Z" fill="#131313"/>
<path d="M345.397 9.5L345.397 10.875L344.079 10.875L344.079 9.5L345.397 9.5Z" fill="#131313"/>
<path d="M337.487 9.5L337.487 10.875L336.169 10.875L336.169 9.5L337.487 9.5Z" fill="#131313"/>
<path d="M344.079 9.5L344.079 10.875L342.76 10.875L342.76 9.5L344.079 9.5Z" fill="#131313"/>
<path d="M342.76 9.5L342.76 10.875L341.442 10.875L341.442 9.5L342.76 9.5Z" fill="#131313"/>
<path d="M340.124 9.5L340.124 10.875L338.805 10.875L338.805 9.5L340.124 9.5Z" fill="#131313"/>
<path d="M338.805 9.5L338.805 10.875L337.487 10.875L337.487 9.5L338.805 9.5Z" fill="#131313"/>
<path d="M341.442 9.5L341.442 10.875L340.124 10.875L340.124 9.5L341.442 9.5Z" fill="#131313"/>
<path d="M344.079 10.875L344.079 12.25L342.76 12.25L342.76 10.875L344.079 10.875Z" fill="#131313"/>
<path d="M342.76 10.875L342.76 12.25L341.442 12.25L341.442 10.875L342.76 10.875Z" fill="#131313"/>
<path d="M340.124 10.875L340.124 12.25L338.805 12.25L338.805 10.875L340.124 10.875Z" fill="#131313"/>
<path d="M338.805 10.875L338.805 12.25L337.487 12.25L337.487 10.875L338.805 10.875Z" fill="#131313"/>
<path d="M341.442 10.875L341.442 12.25L340.124 12.25L340.124 10.875L341.442 10.875Z" fill="#131313"/>
<path d="M342.76 12.25L342.76 13.625L341.442 13.625L341.442 12.25L342.76 12.25Z" fill="#131313"/>
<path d="M341.442 13.625L341.442 15L340.124 15L340.124 13.625L341.442 13.625Z" fill="#131313"/>
<path d="M341.442 12.25L341.442 13.625L340.124 13.625L340.124 12.25L341.442 12.25Z" fill="#131313"/>
<path d="M340.124 12.25L340.124 13.625L338.805 13.625L338.805 12.25L340.124 12.25Z" fill="#131313"/>
<path d="M348.033 6.75L348.033 8.125L346.715 8.125L346.715 6.75L348.033 6.75Z" fill="#131313"/>
<path d="M334.85 6.75L334.85 8.125L333.532 8.125L333.532 6.75L334.85 6.75Z" fill="#131313"/>
<rect x="0.5" y="32.5" width="277" height="29" fill="#DCECA1"/>
<rect x="0.5" y="32.5" width="277" height="29" stroke="#131313"/>
<path d="M11.5059 48.38L8.42188 43.1H10.5219L12.4059 46.544L14.3859 43.1H16.3899L13.3059 48.38V51.5H11.5059V48.38ZM18.9251 51.572C16.8731 51.572 15.6371 50.336 15.6371 48.428C15.6371 46.508 16.8971 45.26 18.8051 45.26C20.6531 45.26 21.9011 46.412 21.9251 48.224C21.9251 48.404 21.9131 48.608 21.8771 48.8H17.4011V48.884C17.4371 49.76 18.0011 50.288 18.8531 50.288C19.5371 50.288 20.0171 49.988 20.1611 49.412H21.8291C21.6371 50.612 20.5691 51.572 18.9251 51.572ZM17.4371 47.696H20.2211C20.1011 46.94 19.5851 46.52 18.8171 46.52C18.0851 46.52 17.5331 46.964 17.4371 47.696ZM22.5148 49.448H24.1228C24.1828 49.988 24.6508 50.36 25.4788 50.36C26.1868 50.36 26.6188 50.132 26.6188 49.7C26.6188 49.196 26.1988 49.16 25.2028 49.028C23.7628 48.86 22.6468 48.536 22.6468 47.264C22.6468 46.04 23.7148 45.236 25.2988 45.248C26.9548 45.248 28.0948 45.98 28.1788 47.24H26.5588C26.5108 46.748 26.0428 46.448 25.3588 46.448C24.6988 46.448 24.2668 46.688 24.2668 47.084C24.2668 47.552 24.7948 47.6 25.6828 47.708C27.0988 47.852 28.2748 48.176 28.2748 49.568C28.2748 50.792 27.1228 51.572 25.4668 51.572C23.7508 51.572 22.5868 50.768 22.5148 49.448Z" fill="#131313"/>
<path d="M40.689 51.572C39.165 51.572 38.121 50.66 37.917 49.256H38.925C39.117 50.108 39.717 50.684 40.737 50.684C42.201 50.684 43.005 49.352 43.005 47.456C43.005 47.336 43.005 47.252 42.993 47.048C42.981 47.096 42.969 47.168 42.921 47.276C42.549 48.104 41.709 48.656 40.581 48.656C38.925 48.656 37.761 47.564 37.761 45.848C37.761 44.228 38.949 43.028 40.677 43.028C41.841 43.028 42.693 43.556 43.221 44.42C43.641 45.152 43.881 46.16 43.881 47.264C43.881 49.904 42.693 51.572 40.689 51.572ZM40.653 47.768C41.817 47.768 42.609 46.976 42.609 45.824C42.609 44.696 41.841 43.916 40.689 43.916C39.525 43.916 38.769 44.72 38.769 45.848C38.769 46.964 39.489 47.768 40.653 47.768ZM46.3985 44.012V43.1H47.3825V51.5H46.3745V45.476C46.2545 45.584 46.0625 45.632 45.7985 45.632H44.4425V44.732H45.8105C46.2065 44.732 46.3985 44.432 46.3985 44.012ZM48.7668 50.9C48.7668 50.492 49.0548 50.228 49.4508 50.228C49.8468 50.228 50.1348 50.492 50.1348 50.9C50.1348 51.308 49.8468 51.572 49.4508 51.572C49.0548 51.572 48.7668 51.308 48.7668 50.9ZM51.9181 44.012V43.1H52.9021V51.5H51.8941V45.476C51.7741 45.584 51.5821 45.632 51.3181 45.632H49.9621V44.732H51.3301C51.7261 44.732 51.9181 44.432 51.9181 44.012ZM56.0744 42.812C56.6664 42.812 57.1144 43.048 57.4184 43.52C57.7224 43.984 57.8744 44.64 57.8744 45.488C57.8744 46.336 57.7264 47 57.4304 47.48C57.1424 47.952 56.6904 48.188 56.0744 48.188C55.6984 48.188 55.3784 48.08 55.1144 47.864C54.8504 47.648 54.6504 47.34 54.5144 46.94C54.3864 46.532 54.3224 46.048 54.3224 45.488C54.3224 44.64 54.4624 43.984 54.7424 43.52C55.0224 43.048 55.4664 42.812 56.0744 42.812ZM56.0744 43.556C55.7704 43.556 55.5464 43.72 55.4024 44.048C55.2664 44.368 55.1984 44.848 55.1984 45.488C55.1984 46.128 55.2664 46.612 55.4024 46.94C55.5464 47.268 55.7704 47.432 56.0744 47.432C56.3864 47.432 56.6184 47.272 56.7704 46.952C56.9224 46.624 56.9984 46.136 56.9984 45.488C56.9984 44.848 56.9224 44.368 56.7704 44.048C56.6184 43.72 56.3864 43.556 56.0744 43.556ZM61.5584 42.932L56.8064 51.5H55.8824L60.6344 42.932H61.5584ZM61.3184 46.244C61.7104 46.244 62.0384 46.352 62.3024 46.568C62.5664 46.776 62.7664 47.08 62.9024 47.48C63.0464 47.872 63.1184 48.352 63.1184 48.92C63.1184 49.768 62.9704 50.432 62.6744 50.912C62.3864 51.384 61.9344 51.62 61.3184 51.62C60.9424 51.62 60.6224 51.512 60.3584 51.296C60.0944 51.08 59.8944 50.772 59.7584 50.372C59.6304 49.964 59.5664 49.48 59.5664 48.92C59.5664 48.072 59.7064 47.416 59.9864 46.952C60.2664 46.48 60.7104 46.244 61.3184 46.244ZM61.3184 47C61.0144 47 60.7904 47.16 60.6464 47.48C60.5104 47.8 60.4424 48.28 60.4424 48.92C60.4424 49.568 60.5104 50.056 60.6464 50.384C60.7904 50.704 61.0144 50.864 61.3184 50.864C61.6304 50.864 61.8624 50.704 62.0144 50.384C62.1664 50.064 62.2424 49.576 62.2424 48.92C62.2424 48.28 62.1664 47.8 62.0144 47.48C61.8624 47.16 61.6304 47 61.3184 47Z" fill="#131313"/>
<mask id="path-6-inside-1_111_8675" fill="white">
<path d="M278 32H349V62H278V32Z"/>
</mask>
<path d="M278 32H349V62H278V32Z" fill="#FD9DAF"/>
<path d="M349 32H350V31H349V32ZM349 62V63H350V62H349ZM278 33H349V31H278V33ZM348 32V62H350V32H348ZM349 61H278V63H349V61Z" fill="#131313" mask="url(#path-6-inside-1_111_8675)"/>
<path d="M288.685 51.5H286.921V43.1H288.553L292.117 48.392V43.1H293.893V51.5H292.249L288.685 46.208V51.5ZM298.204 51.572C296.236 51.572 294.952 50.312 294.952 48.416C294.952 46.52 296.236 45.26 298.204 45.26C300.172 45.26 301.456 46.52 301.456 48.416C301.456 50.324 300.172 51.572 298.204 51.572ZM298.204 50.192C299.152 50.192 299.74 49.46 299.74 48.416C299.74 47.372 299.152 46.64 298.204 46.64C297.256 46.64 296.68 47.372 296.68 48.416C296.68 49.46 297.256 50.192 298.204 50.192Z" fill="#131313"/>
<path d="M314.953 47.156C315.889 47.372 316.633 48.092 316.633 49.244C316.633 50.6 315.469 51.572 313.573 51.572C311.677 51.572 310.513 50.6 310.513 49.244C310.513 48.104 311.245 47.372 312.193 47.156C311.389 46.976 310.753 46.268 310.753 45.26C310.753 43.94 311.857 43.028 313.573 43.028C315.289 43.028 316.393 43.94 316.393 45.26C316.393 46.22 315.769 46.976 314.953 47.156ZM311.785 45.26C311.785 46.088 312.493 46.64 313.573 46.64C314.653 46.64 315.361 46.088 315.361 45.26C315.361 44.444 314.653 43.892 313.573 43.892C312.493 43.892 311.785 44.444 311.785 45.26ZM313.573 50.708C314.773 50.708 315.601 50.072 315.601 49.172C315.601 48.284 314.773 47.648 313.573 47.648C312.373 47.648 311.545 48.284 311.545 49.172C311.545 50.072 312.385 50.708 313.573 50.708ZM317.406 50.9C317.406 50.492 317.694 50.228 318.09 50.228C318.486 50.228 318.774 50.492 318.774 50.9C318.774 51.308 318.486 51.572 318.09 51.572C317.694 51.572 317.406 51.308 317.406 50.9ZM322.289 51.572C320.765 51.572 319.721 50.66 319.517 49.256H320.525C320.717 50.108 321.317 50.684 322.337 50.684C323.801 50.684 324.605 49.352 324.605 47.456C324.605 47.336 324.605 47.252 324.593 47.048C324.581 47.096 324.569 47.168 324.521 47.276C324.149 48.104 323.309 48.656 322.181 48.656C320.525 48.656 319.361 47.564 319.361 45.848C319.361 44.228 320.549 43.028 322.277 43.028C323.441 43.028 324.293 43.556 324.821 44.42C325.241 45.152 325.481 46.16 325.481 47.264C325.481 49.904 324.293 51.572 322.289 51.572ZM322.253 47.768C323.417 47.768 324.209 46.976 324.209 45.824C324.209 44.696 323.441 43.916 322.289 43.916C321.125 43.916 320.369 44.72 320.369 45.848C320.369 46.964 321.089 47.768 322.253 47.768ZM328.334 42.812C328.926 42.812 329.374 43.048 329.678 43.52C329.982 43.984 330.134 44.64 330.134 45.488C330.134 46.336 329.986 47 329.69 47.48C329.402 47.952 328.95 48.188 328.334 48.188C327.958 48.188 327.638 48.08 327.374 47.864C327.11 47.648 326.91 47.34 326.774 46.94C326.646 46.532 326.582 46.048 326.582 45.488C326.582 44.64 326.722 43.984 327.002 43.52C327.282 43.048 327.726 42.812 328.334 42.812ZM328.334 43.556C328.03 43.556 327.806 43.72 327.662 44.048C327.526 44.368 327.458 44.848 327.458 45.488C327.458 46.128 327.526 46.612 327.662 46.94C327.806 47.268 328.03 47.432 328.334 47.432C328.646 47.432 328.878 47.272 329.03 46.952C329.182 46.624 329.258 46.136 329.258 45.488C329.258 44.848 329.182 44.368 329.03 44.048C328.878 43.72 328.646 43.556 328.334 43.556ZM333.818 42.932L329.066 51.5H328.142L332.894 42.932H333.818ZM333.578 46.244C333.97 46.244 334.298 46.352 334.562 46.568C334.826 46.776 335.026 47.08 335.162 47.48C335.306 47.872 335.378 48.352 335.378 48.92C335.378 49.768 335.23 50.432 334.934 50.912C334.646 51.384 334.194 51.62 333.578 51.62C333.202 51.62 332.882 51.512 332.618 51.296C332.354 51.08 332.154 50.772 332.018 50.372C331.89 49.964 331.826 49.48 331.826 48.92C331.826 48.072 331.966 47.416 332.246 46.952C332.526 46.48 332.97 46.244 333.578 46.244ZM333.578 47C333.274 47 333.05 47.16 332.906 47.48C332.77 47.8 332.702 48.28 332.702 48.92C332.702 49.568 332.77 50.056 332.906 50.384C333.05 50.704 333.274 50.864 333.578 50.864C333.89 50.864 334.122 50.704 334.274 50.384C334.426 50.064 334.502 49.576 334.502 48.92C334.502 48.28 334.426 47.8 334.274 47.48C334.122 47.16 333.89 47 333.578 47Z" fill="#131313"/>
</svg>
