<svg width="390" height="840" viewBox="0 0 390 840" fill="none" xmlns="http://www.w3.org/2000/svg">
<g opacity="0.39">
<line x1="15.15" y1="6.5567e-09" x2="15.15" y2="855" stroke="#6CB9F1" stroke-width="0.3"/>
<line x1="45.15" y1="6.5567e-09" x2="45.15" y2="855" stroke="#6CB9F1" stroke-width="0.3"/>
<line x1="75.15" y1="6.5567e-09" x2="75.15" y2="855" stroke="#6CB9F1" stroke-width="0.3"/>
<line x1="105.15" y1="6.5567e-09" x2="105.15" y2="855" stroke="#6CB9F1" stroke-width="0.3"/>
<line x1="135.15" y1="6.5567e-09" x2="135.15" y2="855" stroke="#6CB9F1" stroke-width="0.3"/>
<line x1="165.15" y1="6.5567e-09" x2="165.15" y2="855" stroke="#6CB9F1" stroke-width="0.3"/>
<line x1="195.15" y1="6.5567e-09" x2="195.15" y2="855" stroke="#6CB9F1" stroke-width="0.3"/>
<line x1="225.15" y1="6.5567e-09" x2="225.15" y2="855" stroke="#6CB9F1" stroke-width="0.3"/>
<line x1="255.15" y1="6.5567e-09" x2="255.15" y2="855" stroke="#6CB9F1" stroke-width="0.3"/>
<line x1="285.15" y1="6.5567e-09" x2="285.15" y2="855" stroke="#6CB9F1" stroke-width="0.3"/>
<line x1="315.15" y1="6.5567e-09" x2="315.15" y2="855" stroke="#6CB9F1" stroke-width="0.3"/>
<line x1="345.15" y1="6.5567e-09" x2="345.15" y2="855" stroke="#6CB9F1" stroke-width="0.3"/>
<line x1="375.15" y1="6.5567e-09" x2="375.15" y2="855" stroke="#6CB9F1" stroke-width="0.3"/>
<line x1="0.15" y1="6.5567e-09" x2="0.149963" y2="855" stroke="#6CB9F1" stroke-width="0.3"/>
<line x1="30.15" y1="6.5567e-09" x2="30.15" y2="855" stroke="#6CB9F1" stroke-width="0.3"/>
<line x1="60.15" y1="6.5567e-09" x2="60.15" y2="855" stroke="#6CB9F1" stroke-width="0.3"/>
<line x1="90.15" y1="6.5567e-09" x2="90.15" y2="855" stroke="#6CB9F1" stroke-width="0.3"/>
<line x1="120.15" y1="6.5567e-09" x2="120.15" y2="855" stroke="#6CB9F1" stroke-width="0.3"/>
<line x1="150.15" y1="6.5567e-09" x2="150.15" y2="855" stroke="#6CB9F1" stroke-width="0.3"/>
<line x1="180.15" y1="6.5567e-09" x2="180.15" y2="855" stroke="#6CB9F1" stroke-width="0.3"/>
<line x1="210.15" y1="6.5567e-09" x2="210.15" y2="855" stroke="#6CB9F1" stroke-width="0.3"/>
<line x1="240.15" y1="6.5567e-09" x2="240.15" y2="855" stroke="#6CB9F1" stroke-width="0.3"/>
<line x1="270.15" y1="6.5567e-09" x2="270.15" y2="855" stroke="#6CB9F1" stroke-width="0.3"/>
<line x1="300.15" y1="6.5567e-09" x2="300.15" y2="855" stroke="#6CB9F1" stroke-width="0.3"/>
<line x1="330.15" y1="6.5567e-09" x2="330.15" y2="855" stroke="#6CB9F1" stroke-width="0.3"/>
<line x1="360.15" y1="6.5567e-09" x2="360.15" y2="855" stroke="#6CB9F1" stroke-width="0.3"/>
<line x1="390" y1="15.15" x2="-5.98158e-09" y2="15.1499" stroke="#6CB9F1" stroke-width="0.3"/>
<line x1="390" y1="420.15" x2="-5.98158e-09" y2="420.15" stroke="#6CB9F1" stroke-width="0.3"/>
<line x1="390" y1="45.15" x2="-5.98158e-09" y2="45.1499" stroke="#6CB9F1" stroke-width="0.3"/>
<line x1="390" y1="450.15" x2="-5.98158e-09" y2="450.15" stroke="#6CB9F1" stroke-width="0.3"/>
<line x1="390" y1="75.15" x2="-5.98158e-09" y2="75.1499" stroke="#6CB9F1" stroke-width="0.3"/>
<line x1="390" y1="480.15" x2="-5.98158e-09" y2="480.15" stroke="#6CB9F1" stroke-width="0.3"/>
<line x1="390" y1="105.15" x2="-5.98158e-09" y2="105.15" stroke="#6CB9F1" stroke-width="0.3"/>
<line x1="390" y1="510.15" x2="-5.98158e-09" y2="510.15" stroke="#6CB9F1" stroke-width="0.3"/>
<line x1="390" y1="135.15" x2="-5.98158e-09" y2="135.15" stroke="#6CB9F1" stroke-width="0.3"/>
<line x1="390" y1="540.15" x2="-5.98158e-09" y2="540.15" stroke="#6CB9F1" stroke-width="0.3"/>
<line x1="390" y1="165.15" x2="-5.98158e-09" y2="165.15" stroke="#6CB9F1" stroke-width="0.3"/>
<line x1="390" y1="570.15" x2="-5.98158e-09" y2="570.15" stroke="#6CB9F1" stroke-width="0.3"/>
<line x1="390" y1="195.15" x2="-5.98158e-09" y2="195.15" stroke="#6CB9F1" stroke-width="0.3"/>
<line x1="390" y1="600.15" x2="-5.98158e-09" y2="600.15" stroke="#6CB9F1" stroke-width="0.3"/>
<line x1="390" y1="225.15" x2="-5.98158e-09" y2="225.15" stroke="#6CB9F1" stroke-width="0.3"/>
<line x1="390" y1="630.15" x2="-5.98158e-09" y2="630.15" stroke="#6CB9F1" stroke-width="0.3"/>
<line x1="390" y1="255.15" x2="-5.98158e-09" y2="255.15" stroke="#6CB9F1" stroke-width="0.3"/>
<line x1="390" y1="660.15" x2="-5.98158e-09" y2="660.15" stroke="#6CB9F1" stroke-width="0.3"/>
<line x1="390" y1="285.15" x2="-5.98158e-09" y2="285.15" stroke="#6CB9F1" stroke-width="0.3"/>
<line x1="390" y1="690.15" x2="-5.98158e-09" y2="690.15" stroke="#6CB9F1" stroke-width="0.3"/>
<line x1="390" y1="315.15" x2="-5.98158e-09" y2="315.15" stroke="#6CB9F1" stroke-width="0.3"/>
<line x1="390" y1="720.15" x2="-5.98158e-09" y2="720.15" stroke="#6CB9F1" stroke-width="0.3"/>
<line x1="390" y1="345.15" x2="-5.98158e-09" y2="345.15" stroke="#6CB9F1" stroke-width="0.3"/>
<line x1="390" y1="750.15" x2="-5.98158e-09" y2="750.15" stroke="#6CB9F1" stroke-width="0.3"/>
<line x1="390" y1="825.15" x2="-5.98158e-09" y2="825.15" stroke="#6CB9F1" stroke-width="0.3"/>
<line x1="390" y1="780.15" x2="-5.98158e-09" y2="780.15" stroke="#6CB9F1" stroke-width="0.3"/>
<line x1="390" y1="375.15" x2="-5.98158e-09" y2="375.15" stroke="#6CB9F1" stroke-width="0.3"/>
<line x1="390" y1="0.15" x2="-5.98158e-09" y2="0.149925" stroke="#6CB9F1" stroke-width="0.3"/>
<line x1="390" y1="405.15" x2="-5.98158e-09" y2="405.15" stroke="#6CB9F1" stroke-width="0.3"/>
<line x1="390" y1="30.15" x2="-5.98158e-09" y2="30.1499" stroke="#6CB9F1" stroke-width="0.3"/>
<line x1="390" y1="435.15" x2="-5.98158e-09" y2="435.15" stroke="#6CB9F1" stroke-width="0.3"/>
<line x1="390" y1="60.15" x2="-5.98158e-09" y2="60.1499" stroke="#6CB9F1" stroke-width="0.3"/>
<line x1="390" y1="465.15" x2="-5.98158e-09" y2="465.15" stroke="#6CB9F1" stroke-width="0.3"/>
<line x1="390" y1="90.15" x2="-5.98158e-09" y2="90.1499" stroke="#6CB9F1" stroke-width="0.3"/>
<line x1="390" y1="495.15" x2="-5.98158e-09" y2="495.15" stroke="#6CB9F1" stroke-width="0.3"/>
<line x1="390" y1="120.15" x2="-5.98158e-09" y2="120.15" stroke="#6CB9F1" stroke-width="0.3"/>
<line x1="390" y1="525.15" x2="-5.98158e-09" y2="525.15" stroke="#6CB9F1" stroke-width="0.3"/>
<line x1="390" y1="150.15" x2="-5.98158e-09" y2="150.15" stroke="#6CB9F1" stroke-width="0.3"/>
<line x1="390" y1="555.15" x2="-5.98158e-09" y2="555.15" stroke="#6CB9F1" stroke-width="0.3"/>
<line x1="390" y1="180.15" x2="-5.98158e-09" y2="180.15" stroke="#6CB9F1" stroke-width="0.3"/>
<line x1="390" y1="585.15" x2="-5.98158e-09" y2="585.15" stroke="#6CB9F1" stroke-width="0.3"/>
<line x1="390" y1="210.15" x2="-5.98158e-09" y2="210.15" stroke="#6CB9F1" stroke-width="0.3"/>
<line x1="390" y1="615.15" x2="-5.98158e-09" y2="615.15" stroke="#6CB9F1" stroke-width="0.3"/>
<line x1="390" y1="240.15" x2="-5.98158e-09" y2="240.15" stroke="#6CB9F1" stroke-width="0.3"/>
<line x1="390" y1="645.15" x2="-5.98158e-09" y2="645.15" stroke="#6CB9F1" stroke-width="0.3"/>
<line x1="390" y1="270.15" x2="-5.98158e-09" y2="270.15" stroke="#6CB9F1" stroke-width="0.3"/>
<line x1="390" y1="675.15" x2="-5.98158e-09" y2="675.15" stroke="#6CB9F1" stroke-width="0.3"/>
<line x1="390" y1="300.15" x2="-5.98158e-09" y2="300.15" stroke="#6CB9F1" stroke-width="0.3"/>
<line x1="390" y1="735.15" x2="-5.98158e-09" y2="735.15" stroke="#6CB9F1" stroke-width="0.3"/>
<line x1="390" y1="705.15" x2="-5.98158e-09" y2="705.15" stroke="#6CB9F1" stroke-width="0.3"/>
<line x1="390" y1="765.15" x2="-5.98158e-09" y2="765.15" stroke="#6CB9F1" stroke-width="0.3"/>
<line x1="390" y1="330.15" x2="-5.98158e-09" y2="330.15" stroke="#6CB9F1" stroke-width="0.3"/>
<line x1="390" y1="795.15" x2="-5.98158e-09" y2="795.15" stroke="#6CB9F1" stroke-width="0.3"/>
<line x1="390" y1="810.15" x2="-5.98158e-09" y2="810.15" stroke="#6CB9F1" stroke-width="0.3"/>
<line x1="390" y1="360.15" x2="-5.98158e-09" y2="360.15" stroke="#6CB9F1" stroke-width="0.3"/>
<line x1="390" y1="840.15" x2="-5.98158e-09" y2="840.15" stroke="#6CB9F1" stroke-width="0.3"/>
<line x1="390" y1="390.15" x2="-5.98158e-09" y2="390.15" stroke="#6CB9F1" stroke-width="0.3"/>
</g>
</svg>
