<svg width="390" height="390" viewBox="0 0 390 390" fill="none" xmlns="http://www.w3.org/2000/svg">
<rect x="180" width="30" height="30" fill="#FDABB1"/>
<rect x="180" y="30" width="30" height="30" fill="#FDABB1"/>
<rect x="150" y="30" width="30" height="30" fill="#FD9DAF"/>
<rect x="150" y="60" width="30" height="30" fill="#FD9DAF"/>
<rect x="120" y="30" width="30" height="30" fill="#FDC1BE"/>
<rect x="90" y="60" width="30" height="30" fill="#FDC1BE"/>
<rect x="60" y="60" width="30" height="30" fill="#FDD6CC"/>
<rect x="30" y="60" width="30" height="30" fill="#FDD6CC"/>
<rect x="30" y="90" width="30" height="30" fill="#FDC7BB"/>
<rect x="30" y="120" width="30" height="30" fill="#FD989C"/>
<rect x="30" y="150" width="30" height="30" fill="#FD8D91"/>
<rect x="30" y="180" width="30" height="30" fill="#FD9A94"/>
<rect x="30" y="210" width="30" height="30" fill="#FD9A94"/>
<rect x="30" y="240" width="30" height="30" fill="#FDA19D"/>
<rect x="30" y="270" width="30" height="30" fill="#FDA6A4"/>
<rect x="30" y="300" width="30" height="30" fill="#FD9F9E"/>
<rect x="30" y="330" width="30" height="30" fill="#FD8B83"/>
<rect x="30" y="360" width="30" height="30" fill="#FD5C82"/>
<rect x="60" y="90" width="30" height="30" fill="#FDC7BB"/>
<rect x="60" y="120" width="30" height="30" fill="#FDB3AC"/>
<rect x="60" y="150" width="30" height="30" fill="#FD8E8F"/>
<rect x="60" y="180" width="30" height="30" fill="#FD9896"/>
<rect x="60" y="210" width="30" height="30" fill="#FD9E8C"/>
<rect x="60" y="240" width="30" height="30" fill="#FD9593"/>
<rect x="60" y="270" width="30" height="30" fill="#FD9B9A"/>
<rect x="60" y="300" width="30" height="30" fill="#FD7A82"/>
<rect x="60" y="330" width="30" height="30" fill="#FD7282"/>
<rect x="60" y="360" width="30" height="30" fill="#FD7282"/>
<rect x="90" y="90" width="30" height="30" fill="#FDC1BE"/>
<rect x="90" y="120" width="30" height="30" fill="#FDBCB8"/>
<rect x="90" y="150" width="30" height="30" fill="#FDABA0"/>
<rect x="90" y="180" width="30" height="30" fill="#FDA682"/>
<rect x="90" y="210" width="30" height="30" fill="#FDB082"/>
<rect x="90" y="240" width="30" height="30" fill="#FD8987"/>
<rect x="90" y="270" width="30" height="30" fill="#FD8F8F"/>
<rect x="90" y="300" width="30" height="30" fill="#FD6B82"/>
<rect x="90" y="330" width="30" height="30" fill="#FD5B82"/>
<rect x="90" y="360" width="30" height="30" fill="#FD8082"/>
<rect x="120" y="90" width="30" height="30" fill="#FDC1BE"/>
<rect x="120" y="120" width="30" height="30" fill="#FDC1B3"/>
<rect x="120" y="150" width="30" height="30" fill="#FDC29D"/>
<rect x="120" y="180" width="30" height="30" fill="#FDBB82"/>
<rect x="120" y="210" width="30" height="30" fill="#FDC382"/>
<rect x="120" y="240" width="30" height="30" fill="#FD8D82"/>
<rect x="120" y="270" width="30" height="30" fill="#FD8082"/>
<rect x="120" y="300" width="30" height="30" fill="#FD7382"/>
<rect x="120" y="330" width="30" height="30" fill="#FD5F82"/>
<rect x="120" y="360" width="30" height="30" fill="#FD8582"/>
<rect x="150" y="90" width="30" height="30" fill="#FDB1AC"/>
<rect x="150" y="120" width="30" height="30" fill="#FDC49F"/>
<rect x="150" y="150" width="30" height="30" fill="#FDD391"/>
<rect x="150" y="180" width="30" height="30" fill="#FDD582"/>
<rect x="150" y="210" width="30" height="30" fill="#FDCB91"/>
<rect x="150" y="240" width="30" height="30" fill="#FD9982"/>
<rect x="150" y="270" width="30" height="30" fill="#FD928A"/>
<rect x="150" y="300" width="30" height="30" fill="#FD9082"/>
<rect x="150" y="330" width="30" height="30" fill="#FDA787"/>
<rect x="150" y="360" width="30" height="30" fill="#FDBB98"/>
<rect x="180" y="90" width="30" height="30" fill="#FDB1AC"/>
<rect x="180" y="120" width="30" height="30" fill="#FDC49F"/>
<rect x="180" y="150" width="30" height="30" fill="#FDD582"/>
<rect x="180" y="180" width="30" height="30" fill="#FDD391"/>
<rect x="180" y="210" width="30" height="30" fill="#FDD391"/>
<rect x="180" y="240" width="30" height="30" fill="#FD9D88"/>
<rect x="180" y="270" width="30" height="30" fill="#FD9B9B"/>
<rect x="180" y="300" width="30" height="30" fill="#FDA39C"/>
<rect x="180" y="330" width="30" height="30" fill="#FDB1A4"/>
<rect x="180" y="360" width="30" height="30" fill="#FD9890"/>
<rect x="210" y="90" width="30" height="30" fill="#FDC1BE"/>
<rect x="210" y="120" width="30" height="30" fill="#FDBCA1"/>
<rect x="210" y="150" width="30" height="30" fill="#FDC782"/>
<rect x="210" y="180" width="30" height="30" fill="#FDC882"/>
<rect x="210" y="210" width="30" height="30" fill="#FDC882"/>
<rect x="210" y="240" width="30" height="30" fill="#FD9B93"/>
<rect x="210" y="270" width="30" height="30" fill="#FD9CA2"/>
<rect x="210" y="300" width="30" height="30" fill="#FD989F"/>
<rect x="210" y="330" width="30" height="30" fill="#FD939A"/>
<rect x="210" y="360" width="30" height="30" fill="#FD7E85"/>
<rect x="240" y="90" width="30" height="30" fill="#FDBEC1"/>
<rect x="240" y="120" width="30" height="30" fill="#FDB1AC"/>
<rect x="240" y="150" width="30" height="30" fill="#FDAC82"/>
<rect x="240" y="180" width="30" height="30" fill="#FDA082"/>
<rect x="240" y="210" width="30" height="30" fill="#FDA082"/>
<rect x="240" y="240" width="30" height="30" fill="#FD949F"/>
<rect x="240" y="270" width="30" height="30" fill="#FD92A3"/>
<rect x="240" y="300" width="30" height="30" fill="#FD91A0"/>
<rect x="240" y="330" width="30" height="30" fill="#FD8695"/>
<rect x="240" y="360" width="30" height="30" fill="#FD7282"/>
<rect x="270" y="90" width="30" height="30" fill="#FDBEC1"/>
<rect x="270" y="120" width="30" height="30" fill="#FDABB1"/>
<rect x="270" y="150" width="30" height="30" fill="#FD9E8C"/>
<rect x="270" y="180" width="30" height="30" fill="#FD9E8C"/>
<rect x="270" y="210" width="30" height="30" fill="#FD9E8C"/>
<rect x="270" y="240" width="30" height="30" fill="#FD92A2"/>
<rect x="270" y="270" width="30" height="30" fill="#FD90A0"/>
<rect x="270" y="300" width="30" height="30" fill="#FD8C9D"/>
<rect x="270" y="330" width="30" height="30" fill="#FD6E82"/>
<rect x="270" y="360" width="30" height="30" fill="#FD7382"/>
<rect x="300" y="90" width="30" height="30" fill="#FDBEC1"/>
<rect x="300" y="120" width="30" height="30" fill="#FDA3B1"/>
<rect x="300" y="150" width="30" height="30" fill="#FD9CA3"/>
<rect x="300" y="180" width="30" height="30" fill="#FD9F9C"/>
<rect x="300" y="210" width="30" height="30" fill="#FD9F9C"/>
<rect x="300" y="240" width="30" height="30" fill="#FD97A1"/>
<rect x="300" y="270" width="30" height="30" fill="#FD8F9E"/>
<rect x="300" y="300" width="30" height="30" fill="#FD8495"/>
<rect x="300" y="330" width="30" height="30" fill="#FD7B86"/>
<rect x="300" y="360" width="30" height="30" fill="#FD7182"/>
<rect x="330" y="90" width="30" height="30" fill="#FDBEC7"/>
<rect x="330" y="120" width="30" height="30" fill="#FDABB1"/>
<rect x="330" y="150" width="30" height="30" fill="#FDA4A7"/>
<rect x="330" y="180" width="30" height="30" fill="#FDA7A4"/>
<rect x="330" y="210" width="30" height="30" fill="#FDA7A4"/>
<rect x="330" y="240" width="30" height="30" fill="#FD9DA2"/>
<rect x="330" y="270" width="30" height="30" fill="#FDA1A5"/>
<rect x="330" y="300" width="30" height="30" fill="#FD8C97"/>
<rect x="330" y="330" width="30" height="30" fill="#FD7382"/>
<rect x="330" y="360" width="30" height="30" fill="#FD5B82"/>
<rect x="360" y="90" width="30" height="30" fill="#FDABB1"/>
<rect x="360" y="120" width="30" height="30" fill="#FDABB1"/>
<rect x="360" y="150" width="30" height="30" fill="#FDA4A7"/>
<rect x="360" y="180" width="30" height="30" fill="#FDA7AA"/>
<rect x="360" y="210" width="30" height="30" fill="#FDA7AA"/>
<rect x="360" y="240" width="30" height="30" fill="#FD9D9F"/>
<rect x="360" y="270" width="30" height="30" fill="#FDA2A7"/>
<rect x="360" y="300" width="30" height="30" fill="#FD9D9F"/>
<rect x="360" y="330" width="30" height="30" fill="#FD838A"/>
<rect x="360" y="360" width="30" height="30" fill="#FD5B82"/>
<rect y="90" width="30" height="30" fill="#FDABB1"/>
<rect y="120" width="30" height="30" fill="#FD979B"/>
<rect y="150" width="30" height="30" fill="#FD9D98"/>
<rect y="180" width="30" height="30" fill="#FDAEA3"/>
<rect y="210" width="30" height="30" fill="#FDAEA3"/>
<rect y="240" width="30" height="30" fill="#FDADA8"/>
<rect y="270" width="30" height="30" fill="#FDB2B9"/>
<rect y="300" width="30" height="30" fill="#FDAFB0"/>
<rect y="330" width="30" height="30" fill="#FDA6A3"/>
<rect y="360" width="30" height="30" fill="#FD8A83"/>
<rect x="210" y="30" width="30" height="30" fill="#FDC1BE"/>
<rect x="210" y="60" width="30" height="30" fill="#FDC1BE"/>
<rect x="180" y="60" width="30" height="30" fill="#FDABB1"/>
<rect x="120" y="60" width="30" height="30" fill="#FDABB1"/>
<rect x="240" y="30" width="30" height="30" fill="#FDD6CC"/>
<rect x="240" y="60" width="30" height="30" fill="#FDD6CC"/>
<rect x="270" y="60" width="30" height="30" fill="#FDD6CC"/>
<rect x="300" y="60" width="30" height="30" fill="#FDD6CC"/>
<rect x="330" y="60" width="30" height="30" fill="#FDD6CC"/>
<rect x="60" y="90" width="29.9993" height="29.9993" fill="#131313"/>
<path d="M186.446 102.377V93.3676H191.528V118.594H187.095L186.59 116.036C185.365 117.621 183.563 118.811 180.896 118.811C175.923 118.811 172.283 115.171 172.283 109.297C172.283 103.566 175.923 99.8545 180.86 99.8545C183.419 99.8545 185.257 100.864 186.446 102.377ZM182.014 114.666C184.789 114.666 186.518 112.504 186.518 109.369C186.518 106.197 184.789 103.999 182.014 103.999C179.239 103.999 177.473 106.161 177.473 109.333C177.473 112.504 179.239 114.666 182.014 114.666Z" fill="#131313"/>
<path d="M163.528 99.8528C167.528 99.8528 170.952 101.979 170.952 108.322V118.593H165.87V108.826C165.87 105.691 164.681 104.033 162.122 104.033C159.492 104.033 157.978 105.907 157.978 109.115V118.593H152.896V100.069H157.329L157.798 102.375C158.987 100.934 160.681 99.8528 163.528 99.8528Z" fill="#131313"/>
<path d="M140.785 118.809C134.875 118.809 131.019 115.025 131.019 109.331C131.019 103.637 134.875 99.8528 140.785 99.8528C146.695 99.8528 150.551 103.637 150.551 109.331C150.551 115.061 146.695 118.809 140.785 118.809ZM140.785 114.665C143.632 114.665 145.398 112.466 145.398 109.331C145.398 106.196 143.632 103.997 140.785 103.997C137.938 103.997 136.208 106.196 136.208 109.331C136.208 112.466 137.938 114.665 140.785 114.665Z" fill="#131313"/>
<path d="M118.463 118.699L111.327 100.067H116.733L121.238 113.257L125.634 100.067H131.076L122.859 121.221C121.706 124.285 120.769 125.798 117.886 125.798H112.949V121.51H115.76C117.057 121.51 117.49 121.185 117.994 119.924L118.463 118.699Z" fill="#131313"/>
<path d="M102.444 118.809C96.2813 118.809 92.5693 115.097 92.5693 109.367C92.5693 103.601 96.3534 99.8528 102.083 99.8528C107.633 99.8528 111.381 103.312 111.453 108.754C111.453 109.295 111.417 109.907 111.309 110.484H97.867V110.736C97.9751 113.367 99.6689 114.953 102.228 114.953C104.282 114.953 105.723 114.052 106.156 112.322H111.165C110.589 115.926 107.381 118.809 102.444 118.809ZM97.9751 107.169H106.336C105.976 104.898 104.426 103.637 102.12 103.637C99.9212 103.637 98.2634 104.97 97.9751 107.169Z" fill="#131313"/>
<path d="M160.064 125.548C161.458 125.548 162.695 125.764 163.776 126.196C164.857 126.629 165.71 127.266 166.335 128.107C166.96 128.923 167.272 129.932 167.272 131.134C167.272 132.792 166.779 134.185 165.794 135.314C164.809 136.443 163.584 137.428 162.119 138.269L167.128 143.135C167.608 142.318 168.029 141.465 168.389 140.576C168.75 139.663 169.05 138.75 169.29 137.837H174.876C174.516 139.182 173.987 140.624 173.29 142.161C172.594 143.699 171.705 145.141 170.624 146.486L175.921 151.64H169.29L167.272 149.657C166.743 150.018 166.191 150.342 165.614 150.63C165.038 150.919 164.437 151.171 163.812 151.387C163.188 151.58 162.527 151.724 161.83 151.82C161.133 151.94 160.413 152 159.668 152C157.722 152 156.052 151.7 154.659 151.099C153.265 150.474 152.196 149.609 151.451 148.504C150.706 147.399 150.334 146.126 150.334 144.684C150.334 143.459 150.514 142.414 150.875 141.549C151.259 140.66 151.8 139.891 152.496 139.242C153.217 138.57 154.07 137.957 155.055 137.404C154.43 136.684 153.926 136.011 153.541 135.386C153.181 134.738 152.917 134.101 152.749 133.476C152.604 132.852 152.532 132.191 152.532 131.494C152.532 130.269 152.845 129.212 153.469 128.323C154.118 127.434 155.007 126.749 156.136 126.269C157.289 125.788 158.599 125.548 160.064 125.548ZM158.19 140.612C157.734 140.948 157.337 141.297 157.001 141.657C156.689 142.017 156.436 142.402 156.244 142.81C156.076 143.219 155.992 143.675 155.992 144.18C155.992 145.213 156.376 146.03 157.145 146.63C157.914 147.207 158.875 147.495 160.028 147.495C160.797 147.495 161.518 147.399 162.191 147.207C162.863 147.015 163.476 146.75 164.029 146.414L158.19 140.612ZM160.028 129.692C159.428 129.692 158.851 129.848 158.298 130.161C157.77 130.449 157.506 131.014 157.506 131.855C157.506 132.455 157.65 133.032 157.938 133.584C158.25 134.137 158.659 134.702 159.163 135.278C160.172 134.726 160.941 134.173 161.47 133.62C162.022 133.068 162.299 132.431 162.299 131.71C162.299 130.99 162.058 130.473 161.578 130.161C161.097 129.848 160.581 129.692 160.028 129.692Z" fill="#131313"/>
<path d="M142.104 135.424V126.414H147.185V151.641H142.752L142.248 149.082C141.022 150.668 139.22 151.857 136.554 151.857C131.58 151.857 127.94 148.217 127.94 142.343C127.94 136.613 131.58 132.901 136.518 132.901C139.076 132.901 140.914 133.91 142.104 135.424ZM137.671 147.713C140.446 147.713 142.176 145.55 142.176 142.415C142.176 139.244 140.446 137.045 137.671 137.045C134.896 137.045 133.13 139.208 133.13 142.379C133.13 145.55 134.896 147.713 137.671 147.713Z" fill="#131313"/>
<path d="M116.82 151.855C110.91 151.855 107.054 148.071 107.054 142.377C107.054 136.683 110.91 132.899 116.82 132.899C122.73 132.899 126.587 136.683 126.587 142.377C126.587 148.107 122.73 151.855 116.82 151.855ZM116.82 147.711C119.667 147.711 121.433 145.513 121.433 142.377C121.433 139.242 119.667 137.044 116.82 137.044C113.973 137.044 112.243 139.242 112.243 142.377C112.243 145.513 113.973 147.711 116.82 147.711Z" fill="#131313"/>
<path d="M95.9295 151.855C90.0192 151.855 86.1631 148.071 86.1631 142.377C86.1631 136.683 90.0192 132.899 95.9295 132.899C101.84 132.899 105.696 136.683 105.696 142.377C105.696 148.107 101.84 151.855 95.9295 151.855ZM95.9295 147.711C98.7765 147.711 100.542 145.513 100.542 142.377C100.542 139.242 98.7765 137.044 95.9295 137.044C93.0825 137.044 91.3526 139.242 91.3526 142.377C91.3526 145.513 93.0825 147.711 95.9295 147.711Z" fill="#131313"/>
<path d="M72.0008 151.853C64.7931 151.853 60 146.772 60 139.024C60 131.275 64.7571 126.194 72.5053 126.194C78.5958 126.194 82.8844 129.942 83.5331 135.384H78.1273C77.4786 132.609 75.4605 130.771 72.3612 130.771C68.1447 130.771 65.5139 134.158 65.5139 139.024C65.5139 143.889 68.0366 147.276 72.3612 147.276C75.2442 147.276 78.1633 145.763 78.6679 142.231V141.907H72.3972V137.618H83.6772V151.637H79.8932L79.3526 148.61C78.0192 150.376 75.5686 151.853 72.0008 151.853Z" fill="#131313"/>
<path d="M223.965 151.907V126.68H229.046V151.907H223.965Z" fill="#131313"/>
<path d="M218.623 131.401C216.965 131.401 215.668 130.176 215.668 128.554C215.668 126.897 216.965 125.671 218.623 125.671C220.281 125.671 221.578 126.897 221.578 128.554C221.578 130.176 220.281 131.401 218.623 131.401ZM216.064 151.907V133.383H221.182V151.907H216.064Z" fill="#131313"/>
<path d="M202.117 151.909L195.45 133.385H200.892L205.361 146.72L209.757 133.385H215.091L208.424 151.909H202.117Z" fill="#131313"/>
<path d="M178.626 151.907V126.68H195.564V131.329H184.032V136.987H193.402V141.42H184.032V147.258H195.96V151.907H178.626Z" fill="#131313"/>
<path fill-rule="evenodd" clip-rule="evenodd" d="M69.7084 91.9988H66V95.7071H69.7084V91.9988ZM69.7084 95.7101H66V99.4185H69.7084V95.7101ZM66 103.149H69.7084V106.858H66V103.149ZM69.7084 106.861H66V110.569H69.7084V106.861ZM66 110.572H69.7084V114.28H66V110.572ZM69.7084 114.289H66V117.998H69.7084V114.289ZM69.7149 114.289H73.4233V117.998H69.7149V114.289ZM77.1372 114.289H73.4288V117.998H77.1372V114.289ZM77.1445 114.289H80.8529V117.998H77.1445V114.289ZM73.4233 91.9988H69.7149V95.7071H73.4233V91.9988ZM73.4288 91.9988H77.1372V95.7071H73.4288V91.9988ZM80.8529 91.9988H77.1445V95.7071H80.8529V91.9988ZM80.8592 106.861H84.5675V110.569H80.8592V106.861ZM84.5675 99.4296H80.8592V103.138H84.5675V99.4296ZM80.8592 110.572H84.5675V114.28H80.8592V110.572ZM80.8529 103.149H77.1445V106.858H80.8529V103.149ZM80.8592 95.7101H84.5675V99.4185H80.8592V95.7101ZM77.1372 103.149H73.4288V106.858H77.1372V103.149ZM69.7149 103.149H73.4233V106.858H69.7149V103.149ZM69.7084 99.4296H66V103.138H69.7084V99.4296Z" fill="#F5F4F1"/>
</svg>
