<svg width="390" height="390" viewBox="0 0 390 390" fill="none" xmlns="http://www.w3.org/2000/svg">
<rect x="180" width="30" height="30" fill="#FDABB1"/>
<rect x="180" y="30" width="30" height="30" fill="#FDABB1"/>
<rect x="150" y="30" width="30" height="30" fill="#FD9DAF"/>
<rect x="150" y="60" width="30" height="30" fill="#FD9DAF"/>
<rect x="120" y="30" width="30" height="30" fill="#FDC1BE"/>
<rect x="90" y="60" width="30" height="30" fill="#FDC1BE"/>
<rect x="60" y="60" width="30" height="30" fill="#FDD6CC"/>
<rect x="30" y="60" width="30" height="30" fill="#FDD6CC"/>
<rect x="30" y="90" width="30" height="30" fill="#FDC7BB"/>
<rect x="30" y="120" width="30" height="30" fill="#FD989C"/>
<rect x="30" y="150" width="30" height="30" fill="#FD8D91"/>
<rect x="30" y="180" width="30" height="30" fill="#FD9A94"/>
<rect x="30" y="210" width="30" height="30" fill="#FD9A94"/>
<rect x="30" y="240" width="30" height="30" fill="#FDA19D"/>
<rect x="30" y="270" width="30" height="30" fill="#FDA6A4"/>
<rect x="30" y="300" width="30" height="30" fill="#FD9F9E"/>
<rect x="30" y="330" width="30" height="30" fill="#FD8B83"/>
<rect x="30" y="360" width="30" height="30" fill="#FD5C82"/>
<rect x="60" y="90" width="30" height="30" fill="#FDC7BB"/>
<rect x="60" y="120" width="30" height="30" fill="#FDB3AC"/>
<rect x="60" y="150" width="30" height="30" fill="#FD8E8F"/>
<rect x="60" y="180" width="30" height="30" fill="#FD9896"/>
<rect x="60" y="210" width="30" height="30" fill="#FD9E8C"/>
<rect x="60" y="240" width="30" height="30" fill="#FD9593"/>
<rect x="60" y="270" width="30" height="30" fill="#FD9B9A"/>
<rect x="60" y="300" width="30" height="30" fill="#FD7A82"/>
<rect x="60" y="330" width="30" height="30" fill="#FD7282"/>
<rect x="60" y="360" width="30" height="30" fill="#FD7282"/>
<rect x="90" y="90" width="30" height="30" fill="#FDC1BE"/>
<rect x="90" y="120" width="30" height="30" fill="#FDBCB8"/>
<rect x="90" y="150" width="30" height="30" fill="#FDABA0"/>
<rect x="90" y="180" width="30" height="30" fill="#FDA682"/>
<rect x="90" y="210" width="30" height="30" fill="#FDB082"/>
<rect x="90" y="240" width="30" height="30" fill="#FD8987"/>
<rect x="90" y="270" width="30" height="30" fill="#FD8F8F"/>
<rect x="90" y="300" width="30" height="30" fill="#FD6B82"/>
<rect x="90" y="330" width="30" height="30" fill="#FD5B82"/>
<rect x="90" y="360" width="30" height="30" fill="#FD8082"/>
<rect x="120" y="90" width="30" height="30" fill="#FDC1BE"/>
<rect x="120" y="120" width="30" height="30" fill="#FDC1B3"/>
<rect x="120" y="150" width="30" height="30" fill="#FDC29D"/>
<rect x="120" y="180" width="30" height="30" fill="#FDBB82"/>
<rect x="120" y="210" width="30" height="30" fill="#FDC382"/>
<rect x="120" y="240" width="30" height="30" fill="#FD8D82"/>
<rect x="120" y="270" width="30" height="30" fill="#FD8082"/>
<rect x="120" y="300" width="30" height="30" fill="#FD7382"/>
<rect x="120" y="330" width="30" height="30" fill="#FD5F82"/>
<rect x="120" y="360" width="30" height="30" fill="#FD8582"/>
<rect x="150" y="90" width="30" height="30" fill="#FDB1AC"/>
<rect x="150" y="120" width="30" height="30" fill="#FDC49F"/>
<rect x="150" y="150" width="30" height="30" fill="#FDD391"/>
<rect x="150" y="180" width="30" height="30" fill="#FDD582"/>
<rect x="150" y="210" width="30" height="30" fill="#FDCB91"/>
<rect x="150" y="240" width="30" height="30" fill="#FD9982"/>
<rect x="150" y="270" width="30" height="30" fill="#FD928A"/>
<rect x="150" y="300" width="30" height="30" fill="#FD9082"/>
<rect x="150" y="330" width="30" height="30" fill="#FDA787"/>
<rect x="150" y="360" width="30" height="30" fill="#FDBB98"/>
<rect x="180" y="90" width="30" height="30" fill="#FDB1AC"/>
<rect x="180" y="120" width="30" height="30" fill="#FDC49F"/>
<rect x="180" y="150" width="30" height="30" fill="#FDD582"/>
<rect x="180" y="180" width="30" height="30" fill="#FDD391"/>
<rect x="180" y="210" width="30" height="30" fill="#FDD391"/>
<rect x="180" y="240" width="30" height="30" fill="#FD9D88"/>
<rect x="180" y="270" width="30" height="30" fill="#FD9B9B"/>
<rect x="180" y="300" width="30" height="30" fill="#FDA39C"/>
<rect x="180" y="330" width="30" height="30" fill="#FDB1A4"/>
<rect x="180" y="360" width="30" height="30" fill="#FD9890"/>
<rect x="210" y="90" width="30" height="30" fill="#FDC1BE"/>
<rect x="210" y="120" width="30" height="30" fill="#FDBCA1"/>
<rect x="210" y="150" width="30" height="30" fill="#FDC782"/>
<rect x="210" y="180" width="30" height="30" fill="#FDC882"/>
<rect x="210" y="210" width="30" height="30" fill="#FDC882"/>
<rect x="210" y="240" width="30" height="30" fill="#FD9B93"/>
<rect x="210" y="270" width="30" height="30" fill="#FD9CA2"/>
<rect x="210" y="300" width="30" height="30" fill="#FD989F"/>
<rect x="210" y="330" width="30" height="30" fill="#FD939A"/>
<rect x="210" y="360" width="30" height="30" fill="#FD7E85"/>
<rect x="240" y="90" width="30" height="30" fill="#FDBEC1"/>
<rect x="240" y="120" width="30" height="30" fill="#FDB1AC"/>
<rect x="240" y="150" width="30" height="30" fill="#FDAC82"/>
<rect x="240" y="180" width="30" height="30" fill="#FDA082"/>
<rect x="240" y="210" width="30" height="30" fill="#FDA082"/>
<rect x="240" y="240" width="30" height="30" fill="#FD949F"/>
<rect x="240" y="270" width="30" height="30" fill="#FD92A3"/>
<rect x="240" y="300" width="30" height="30" fill="#FD91A0"/>
<rect x="240" y="330" width="30" height="30" fill="#FD8695"/>
<rect x="240" y="360" width="30" height="30" fill="#FD7282"/>
<rect x="270" y="90" width="30" height="30" fill="#FDBEC1"/>
<rect x="270" y="120" width="30" height="30" fill="#FDABB1"/>
<rect x="270" y="150" width="30" height="30" fill="#FD9E8C"/>
<rect x="270" y="180" width="30" height="30" fill="#FD9E8C"/>
<rect x="270" y="210" width="30" height="30" fill="#FD9E8C"/>
<rect x="270" y="240" width="30" height="30" fill="#FD92A2"/>
<rect x="270" y="270" width="30" height="30" fill="#FD90A0"/>
<rect x="270" y="300" width="30" height="30" fill="#FD8C9D"/>
<rect x="270" y="330" width="30" height="30" fill="#FD6E82"/>
<rect x="270" y="360" width="30" height="30" fill="#FD7382"/>
<rect x="300" y="90" width="30" height="30" fill="#FDBEC1"/>
<rect x="300" y="120" width="30" height="30" fill="#FDA3B1"/>
<rect x="300" y="150" width="30" height="30" fill="#FD9CA3"/>
<rect x="300" y="180" width="30" height="30" fill="#FD9F9C"/>
<rect x="300" y="210" width="30" height="30" fill="#FD9F9C"/>
<rect x="300" y="240" width="30" height="30" fill="#FD97A1"/>
<rect x="300" y="270" width="30" height="30" fill="#FD8F9E"/>
<rect x="300" y="300" width="30" height="30" fill="#FD8495"/>
<rect x="300" y="330" width="30" height="30" fill="#FD7B86"/>
<rect x="300" y="360" width="30" height="30" fill="#FD7182"/>
<rect x="330" y="90" width="30" height="30" fill="#FDBEC7"/>
<rect x="330" y="120" width="30" height="30" fill="#FDABB1"/>
<rect x="330" y="150" width="30" height="30" fill="#FDA4A7"/>
<rect x="330" y="180" width="30" height="30" fill="#FDA7A4"/>
<rect x="330" y="210" width="30" height="30" fill="#FDA7A4"/>
<rect x="330" y="240" width="30" height="30" fill="#FD9DA2"/>
<rect x="330" y="270" width="30" height="30" fill="#FDA1A5"/>
<rect x="330" y="300" width="30" height="30" fill="#FD8C97"/>
<rect x="330" y="330" width="30" height="30" fill="#FD7382"/>
<rect x="330" y="360" width="30" height="30" fill="#FD5B82"/>
<rect x="360" y="90" width="30" height="30" fill="#FDABB1"/>
<rect x="360" y="120" width="30" height="30" fill="#FDABB1"/>
<rect x="360" y="150" width="30" height="30" fill="#FDA4A7"/>
<rect x="360" y="180" width="30" height="30" fill="#FDA7AA"/>
<rect x="360" y="210" width="30" height="30" fill="#FDA7AA"/>
<rect x="360" y="240" width="30" height="30" fill="#FD9D9F"/>
<rect x="360" y="270" width="30" height="30" fill="#FDA2A7"/>
<rect x="360" y="300" width="30" height="30" fill="#FD9D9F"/>
<rect x="360" y="330" width="30" height="30" fill="#FD838A"/>
<rect x="360" y="360" width="30" height="30" fill="#FD5B82"/>
<rect y="90" width="30" height="30" fill="#FDABB1"/>
<rect y="120" width="30" height="30" fill="#FD979B"/>
<rect y="150" width="30" height="30" fill="#FD9D98"/>
<rect y="180" width="30" height="30" fill="#FDAEA3"/>
<rect y="210" width="30" height="30" fill="#FDAEA3"/>
<rect y="240" width="30" height="30" fill="#FDADA8"/>
<rect y="270" width="30" height="30" fill="#FDB2B9"/>
<rect y="300" width="30" height="30" fill="#FDAFB0"/>
<rect y="330" width="30" height="30" fill="#FDA6A3"/>
<rect y="360" width="30" height="30" fill="#FD8A83"/>
<rect x="210" y="30" width="30" height="30" fill="#FDC1BE"/>
<rect x="210" y="60" width="30" height="30" fill="#FDC1BE"/>
<rect x="180" y="60" width="30" height="30" fill="#FDABB1"/>
<rect x="120" y="60" width="30" height="30" fill="#FDABB1"/>
<rect x="240" y="30" width="30" height="30" fill="#FDD6CC"/>
<rect x="240" y="60" width="30" height="30" fill="#FDD6CC"/>
<rect x="270" y="60" width="30" height="30" fill="#FDD6CC"/>
<rect x="300" y="60" width="30" height="30" fill="#FDD6CC"/>
<rect x="330" y="60" width="30" height="30" fill="#FDD6CC"/>
</svg>
