<svg width="85" height="31" viewBox="0 0 85 31" fill="none" xmlns="http://www.w3.org/2000/svg">
<g id="Group 152">
<g id="Group 150">
<rect id="Rectangle 1229" y="-0.000244141" width="15" height="15" fill="#131313"/>
<g id="Beyond">
<path id="Vector" d="M63.2243 6.18849V1.68359H65.765V14.2973H63.5486L63.2964 13.0179C62.6837 13.8108 61.7827 14.4054 60.4493 14.4054C57.9626 14.4054 56.1426 12.5854 56.1426 9.64825C56.1426 6.78313 57.9626 4.92712 60.4312 4.92712C61.7106 4.92712 62.6296 5.43167 63.2243 6.18849ZM61.0079 12.3332C62.3954 12.3332 63.2603 11.252 63.2603 9.68429C63.2603 8.09856 62.3954 6.99937 61.0079 6.99937C59.6204 6.99937 58.7374 8.08054 58.7374 9.66627C58.7374 11.252 59.6204 12.3332 61.0079 12.3332Z" fill="#131313"/>
<path id="Vector_2" d="M51.765 4.92603C53.7652 4.92603 55.477 5.98918 55.477 9.16063V14.2962H52.9363V9.4129C52.9363 7.8452 52.3416 7.0163 51.0622 7.0163C49.7468 7.0163 48.99 7.95331 48.99 9.55706V14.2962H46.4492V5.03414H48.6656L48.8999 6.1874C49.4945 5.46661 50.3414 4.92603 51.765 4.92603Z" fill="#131313"/>
<path id="Vector_3" d="M40.3931 14.4043C37.4379 14.4043 35.5098 12.5123 35.5098 9.66517C35.5098 6.81808 37.4379 4.92603 40.3931 4.92603C43.3483 4.92603 45.2764 6.81808 45.2764 9.66517C45.2764 12.5303 43.3483 14.4043 40.3931 14.4043ZM40.3931 12.3321C41.8166 12.3321 42.6996 11.2329 42.6996 9.66517C42.6996 8.09747 41.8166 6.99828 40.3931 6.99828C38.9695 6.99828 38.1046 8.09747 38.1046 9.66517C38.1046 11.2329 38.9695 12.3321 40.3931 12.3321Z" fill="#131313"/>
<path id="Vector_4" d="M29.2319 14.3498L25.6641 5.03369H28.367L30.6194 11.6289L32.8178 5.03369H35.5388L31.4303 15.6112C30.8537 17.1428 30.3852 17.8997 28.9436 17.8997H26.4749V15.7553H27.8805C28.5292 15.7553 28.7454 15.5932 28.9977 14.9625L29.2319 14.3498Z" fill="#131313"/>
<path id="Vector_5" d="M21.2225 14.4043C18.1412 14.4043 16.2852 12.5483 16.2852 9.68319C16.2852 6.80006 18.1772 4.92603 21.0423 4.92603C23.8173 4.92603 25.6914 6.6559 25.7274 9.37686C25.7274 9.64715 25.7094 9.95349 25.6553 10.2418H18.934V10.3679C18.9881 11.6834 19.835 12.4762 21.1144 12.4762C22.1415 12.4762 22.8623 12.0257 23.0785 11.1608H25.5833C25.2949 12.9628 23.6912 14.4043 21.2225 14.4043ZM18.9881 8.584H23.1686C22.9884 7.44877 22.2136 6.81808 21.0603 6.81808C19.9611 6.81808 19.1322 7.48481 18.9881 8.584Z" fill="#131313"/>
</g>
<g id="good &#38;">
<path id="Vector_6" d="M50.0333 17.7742C50.73 17.7742 51.3487 17.8823 51.8893 18.0985C52.4299 18.3148 52.8563 18.6331 53.1687 19.0536C53.481 19.462 53.6372 19.9666 53.6372 20.5672C53.6372 21.3961 53.3909 22.0929 52.8984 22.6575C52.4058 23.2221 51.7932 23.7146 51.0604 24.1351L53.5651 26.5677C53.8054 26.1593 54.0156 25.7328 54.1958 25.2883C54.376 24.8318 54.5261 24.3753 54.6463 23.9188H57.4393C57.2591 24.5916 56.9948 25.3124 56.6464 26.0812C56.2981 26.85 55.8536 27.5708 55.313 28.2435L57.9619 30.8203H54.6463L53.6372 29.8293C53.3729 30.0095 53.0966 30.1716 52.8083 30.3158C52.52 30.46 52.2196 30.5861 51.9073 30.6942C51.595 30.7903 51.2646 30.8624 50.9162 30.9104C50.5678 30.9705 50.2074 31.0005 49.835 31.0005C48.862 31.0005 48.0271 30.8504 47.3303 30.55C46.6336 30.2377 46.099 29.8052 45.7266 29.2526C45.3542 28.7 45.168 28.0633 45.168 27.3426C45.168 26.7299 45.2581 26.2073 45.4383 25.7749C45.6305 25.3304 45.9008 24.946 46.2491 24.6216C46.6095 24.2852 47.036 23.9789 47.5285 23.7026C47.2162 23.3422 46.9639 23.0059 46.7717 22.6935C46.5915 22.3692 46.4594 22.0508 46.3753 21.7385C46.3032 21.4261 46.2672 21.0958 46.2672 20.7474C46.2672 20.1347 46.4233 19.6062 46.7357 19.1617C47.06 18.7172 47.5045 18.3748 48.0691 18.1346C48.6457 17.8943 49.3005 17.7742 50.0333 17.7742ZM49.0962 25.3064C48.868 25.4745 48.6698 25.6487 48.5016 25.8289C48.3454 26.0091 48.2193 26.2013 48.1232 26.4055C48.0391 26.6098 47.997 26.838 47.997 27.0903C47.997 27.6069 48.1893 28.0153 48.5737 28.3156C48.9581 28.6039 49.4386 28.7481 50.0152 28.7481C50.3997 28.7481 50.76 28.7 51.0964 28.6039C51.4328 28.5078 51.7391 28.3757 52.0154 28.2075L49.0962 25.3064ZM50.0152 19.8464C49.7149 19.8464 49.4266 19.9245 49.1503 20.0807C48.886 20.2248 48.7539 20.5071 48.7539 20.9276C48.7539 21.2279 48.8259 21.5162 48.9701 21.7925C49.1263 22.0688 49.3305 22.3511 49.5828 22.6395C50.0873 22.3632 50.4717 22.0869 50.736 21.8106C51.0123 21.5343 51.1505 21.2159 51.1505 20.8555C51.1505 20.4951 51.0303 20.2368 50.7901 20.0807C50.5498 19.9245 50.2915 19.8464 50.0152 19.8464Z" fill="#131313"/>
<path id="Vector_7" d="M41.0524 22.7119V18.207H43.5932V30.8207H41.3767L41.1245 29.5413C40.5118 30.3342 39.6108 30.9289 38.2774 30.9289C35.7907 30.9289 33.9707 29.1089 33.9707 26.1717C33.9707 23.3066 35.7907 21.4506 38.2594 21.4506C39.5388 21.4506 40.4578 21.9551 41.0524 22.7119ZM38.836 28.8566C40.2235 28.8566 41.0884 27.7754 41.0884 26.2077C41.0884 24.622 40.2235 23.5228 38.836 23.5228C37.4485 23.5228 36.5655 24.604 36.5655 26.1897C36.5655 27.7754 37.4485 28.8566 38.836 28.8566Z" fill="#131313"/>
<path id="Vector_8" d="M28.4106 30.928C25.4554 30.928 23.5273 29.0359 23.5273 26.1889C23.5273 23.3418 25.4554 21.4497 28.4106 21.4497C31.3659 21.4497 33.294 23.3418 33.294 26.1889C33.294 29.054 31.3659 30.928 28.4106 30.928ZM28.4106 28.8558C29.8342 28.8558 30.7172 27.7566 30.7172 26.1889C30.7172 24.6212 29.8342 23.522 28.4106 23.522C26.9871 23.522 26.1222 24.6212 26.1222 26.1889C26.1222 27.7566 26.9871 28.8558 28.4106 28.8558Z" fill="#131313"/>
<path id="Vector_9" d="M17.9653 30.928C15.0101 30.928 13.082 29.0359 13.082 26.1889C13.082 23.3418 15.0101 21.4497 17.9653 21.4497C20.9205 21.4497 22.8486 23.3418 22.8486 26.1889C22.8486 29.054 20.9205 30.928 17.9653 30.928ZM17.9653 28.8558C19.3889 28.8558 20.2718 27.7566 20.2718 26.1889C20.2718 24.6212 19.3889 23.522 17.9653 23.522C16.5418 23.522 15.6769 24.6212 15.6769 26.1889C15.6769 27.7566 16.5418 28.8558 17.9653 28.8558Z" fill="#131313"/>
<path id="Vector_10" d="M6.00052 30.9271C2.3966 30.9271 0 28.3863 0 24.5121C0 20.6379 2.37858 18.0972 6.25279 18.0972C9.2981 18.0972 11.4424 19.9712 11.7668 22.6922H9.06385C8.7395 21.3047 7.7304 20.3857 6.18072 20.3857C4.07242 20.3857 2.757 22.0795 2.757 24.5121C2.757 26.9448 4.01837 28.6386 6.18072 28.6386C7.62228 28.6386 9.08187 27.8818 9.33414 26.1159V25.9537H6.19873V23.8094H11.8389V30.819H9.94681L9.67651 29.3053C9.00979 30.1883 7.78446 30.9271 6.00052 30.9271Z" fill="#131313"/>
</g>
<g id="evil">
<path id="Vector_11" d="M81.9844 30.9531V18.3394H84.5251V30.9531H81.9844Z" fill="#131313"/>
<path id="Vector_12" d="M79.3135 20.6998C78.4846 20.6998 77.8359 20.0872 77.8359 19.2763C77.8359 18.4474 78.4846 17.8347 79.3135 17.8347C80.1424 17.8347 80.7911 18.4474 80.7911 19.2763C80.7911 20.0872 80.1424 20.6998 79.3135 20.6998ZM78.0342 30.953V21.6909H80.5929V30.953H78.0342Z" fill="#131313"/>
<path id="Vector_13" d="M71.0602 30.954L67.7266 21.6919H70.4475L72.6819 28.3591L74.8803 21.6919H77.5472L74.2136 30.954H71.0602Z" fill="#131313"/>
<path id="Vector_14" d="M59.3145 30.9531V18.3394H67.7837V20.6639H62.0174V23.493H66.7025V25.7094H62.0174V28.6285H67.9819V30.9531H59.3145Z" fill="#131313"/>
</g>
</g>
<path id="Union" fill-rule="evenodd" clip-rule="evenodd" d="M4.85423 0.999756H3V2.85398H4.85423V0.999756ZM4.85423 2.85538H3V4.70961H4.85423V2.85538ZM3 6.57469H4.85423V8.42892H3V6.57469ZM4.85423 8.43032H3V10.2845H4.85423V8.43032ZM3 10.2859H4.85423V12.1402H3V10.2859ZM4.85423 12.1456H3V13.9998H4.85423V12.1456ZM4.85739 12.1456H6.71161V13.9998H4.85739V12.1456ZM8.56913 12.1456H6.7149V13.9998H8.56913V12.1456ZM8.57242 12.1456H10.4266V13.9998H8.57242V12.1456ZM6.71161 0.999756H4.85739V2.85398H6.71161V0.999756ZM6.7149 0.999756H8.56913V2.85398H6.7149V0.999756ZM10.4266 0.999756H8.57242V2.85398H10.4266V0.999756ZM10.4299 8.43032H12.2842V10.2845H10.4299V8.43032ZM12.2842 4.71504H10.4299V6.56926H12.2842V4.71504ZM10.4299 10.2859H12.2842V12.1402H10.4299V10.2859ZM10.4266 6.57469H8.57242V8.42892H10.4266V6.57469ZM10.4299 2.85538H12.2842V4.70961H10.4299V2.85538ZM8.56913 6.57469H6.7149V8.42892H8.56913V6.57469ZM4.85739 6.57469H6.71161V8.42892H4.85739V6.57469ZM4.85423 4.71504H3V6.56926H4.85423V4.71504Z" fill="#F5F4F1"/>
</g>
</svg>
