<svg width="85" height="31" viewBox="0 0 85 31" fill="none" xmlns="http://www.w3.org/2000/svg">
<g id="Group 152">
<g id="Group 150">
<rect id="Rectangle 1229" y="-0.000244141" width="15" height="15" fill="#F6F3F1"/>
<g id="Beyond">
<path id="Vector" d="M63.2233 6.18849V1.68359H65.7641V14.2973H63.5476L63.2954 13.0179C62.6827 13.8108 61.7817 14.4054 60.4483 14.4054C57.9616 14.4054 56.1416 12.5854 56.1416 9.64825C56.1416 6.78313 57.9616 4.92712 60.4303 4.92712C61.7097 4.92712 62.6287 5.43167 63.2233 6.18849ZM61.0069 12.3332C62.3944 12.3332 63.2593 11.252 63.2593 9.68429C63.2593 8.09856 62.3944 6.99937 61.0069 6.99937C59.6194 6.99937 58.7364 8.08054 58.7364 9.66627C58.7364 11.252 59.6194 12.3332 61.0069 12.3332Z" fill="#F6F3F1"/>
<path id="Vector_2" d="M51.7645 4.92603C53.7647 4.92603 55.4765 5.98918 55.4765 9.16063V14.2962H52.9358V9.4129C52.9358 7.8452 52.3411 7.0163 51.0617 7.0163C49.7463 7.0163 48.9895 7.95331 48.9895 9.55706V14.2962H46.4487V5.03414H48.6651L48.8994 6.1874C49.494 5.46661 50.341 4.92603 51.7645 4.92603Z" fill="#F6F3F1"/>
<path id="Vector_3" d="M40.3933 14.4043C37.4381 14.4043 35.51 12.5123 35.51 9.66517C35.51 6.81808 37.4381 4.92603 40.3933 4.92603C43.3485 4.92603 45.2766 6.81808 45.2766 9.66517C45.2766 12.5303 43.3485 14.4043 40.3933 14.4043ZM40.3933 12.3321C41.8169 12.3321 42.6998 11.2329 42.6998 9.66517C42.6998 8.09747 41.8169 6.99828 40.3933 6.99828C38.9698 6.99828 38.1048 8.09747 38.1048 9.66517C38.1048 11.2329 38.9698 12.3321 40.3933 12.3321Z" fill="#F6F3F1"/>
<path id="Vector_4" d="M29.2313 14.3498L25.6635 5.03369H28.3664L30.6188 11.6289L32.8172 5.03369H35.5382L31.4297 15.6112C30.8531 17.1428 30.3846 17.8997 28.943 17.8997H26.4743V15.7553H27.8799C28.5286 15.7553 28.7448 15.5932 28.9971 14.9625L29.2313 14.3498Z" fill="#F6F3F1"/>
<path id="Vector_5" d="M21.2229 14.4043C18.1415 14.4043 16.2855 12.5483 16.2855 9.68319C16.2855 6.80006 18.1776 4.92603 21.0427 4.92603C23.8177 4.92603 25.6917 6.6559 25.7278 9.37686C25.7278 9.64715 25.7098 9.95349 25.6557 10.2418H18.9344V10.3679C18.9885 11.6834 19.8354 12.4762 21.1148 12.4762C22.1419 12.4762 22.8627 12.0257 23.0789 11.1608H25.5836C25.2953 12.9628 23.6916 14.4043 21.2229 14.4043ZM18.9885 8.584H23.169C22.9888 7.44877 22.214 6.81808 21.0607 6.81808C19.9615 6.81808 19.1326 7.48481 18.9885 8.584Z" fill="#F6F3F1"/>
</g>
<g id="good &#38;">
<path id="Vector_6" d="M50.0329 17.7742C50.7296 17.7742 51.3483 17.8823 51.8889 18.0985C52.4295 18.3148 52.856 18.6331 53.1683 19.0536C53.4806 19.462 53.6368 19.9666 53.6368 20.5672C53.6368 21.3961 53.3905 22.0929 52.898 22.6575C52.4055 23.2221 51.7928 23.7146 51.06 24.1351L53.5647 26.5677C53.805 26.1593 54.0152 25.7328 54.1954 25.2883C54.3756 24.8318 54.5258 24.3753 54.6459 23.9188H57.4389C57.2587 24.5916 56.9945 25.3124 56.6461 26.0812C56.2977 26.85 55.8532 27.5708 55.3126 28.2435L57.9615 30.8203H54.6459L53.6368 29.8293C53.3725 30.0095 53.0962 30.1716 52.8079 30.3158C52.5196 30.46 52.2193 30.5861 51.9069 30.6942C51.5946 30.7903 51.2642 30.8624 50.9158 30.9104C50.5675 30.9705 50.2071 31.0005 49.8347 31.0005C48.8616 31.0005 48.0267 30.8504 47.33 30.55C46.6332 30.2377 46.0986 29.8052 45.7262 29.2526C45.3538 28.7 45.1676 28.0633 45.1676 27.3426C45.1676 26.7299 45.2577 26.2073 45.4379 25.7749C45.6301 25.3304 45.9004 24.946 46.2488 24.6216C46.6092 24.2852 47.0356 23.9789 47.5282 23.7026C47.2158 23.3422 46.9636 23.0059 46.7713 22.6935C46.5912 22.3692 46.459 22.0508 46.3749 21.7385C46.3028 21.4261 46.2668 21.0958 46.2668 20.7474C46.2668 20.1347 46.423 19.6062 46.7353 19.1617C47.0597 18.7172 47.5041 18.3748 48.0688 18.1346C48.6454 17.8943 49.3001 17.7742 50.0329 17.7742ZM49.0959 25.3064C48.8676 25.4745 48.6694 25.6487 48.5012 25.8289C48.3451 26.0091 48.2189 26.2013 48.1228 26.4055C48.0387 26.6098 47.9967 26.838 47.9967 27.0903C47.9967 27.6069 48.1889 28.0153 48.5733 28.3156C48.9577 28.6039 49.4382 28.7481 50.0149 28.7481C50.3993 28.7481 50.7597 28.7 51.096 28.6039C51.4324 28.5078 51.7387 28.3757 52.015 28.2075L49.0959 25.3064ZM50.0149 19.8464C49.7145 19.8464 49.4262 19.9245 49.1499 20.0807C48.8856 20.2248 48.7535 20.5071 48.7535 20.9276C48.7535 21.2279 48.8256 21.5162 48.9697 21.7925C49.1259 22.0688 49.3301 22.3511 49.5824 22.6395C50.0869 22.3632 50.4714 22.0869 50.7357 21.8106C51.012 21.5343 51.1501 21.2159 51.1501 20.8555C51.1501 20.4951 51.03 20.2368 50.7897 20.0807C50.5494 19.9245 50.2912 19.8464 50.0149 19.8464Z" fill="#F6F3F1"/>
<path id="Vector_7" d="M41.0524 22.7119V18.207H43.5932V30.8207H41.3767L41.1245 29.5413C40.5118 30.3342 39.6108 30.9289 38.2774 30.9289C35.7907 30.9289 33.9707 29.1089 33.9707 26.1717C33.9707 23.3066 35.7907 21.4506 38.2594 21.4506C39.5388 21.4506 40.4578 21.9551 41.0524 22.7119ZM38.836 28.8566C40.2235 28.8566 41.0884 27.7754 41.0884 26.2077C41.0884 24.622 40.2235 23.5228 38.836 23.5228C37.4485 23.5228 36.5655 24.604 36.5655 26.1897C36.5655 27.7754 37.4485 28.8566 38.836 28.8566Z" fill="#F6F3F1"/>
<path id="Vector_8" d="M28.4097 30.928C25.4545 30.928 23.5264 29.0359 23.5264 26.1889C23.5264 23.3418 25.4545 21.4497 28.4097 21.4497C31.3649 21.4497 33.293 23.3418 33.293 26.1889C33.293 29.054 31.3649 30.928 28.4097 30.928ZM28.4097 28.8558C29.8332 28.8558 30.7162 27.7566 30.7162 26.1889C30.7162 24.6212 29.8332 23.522 28.4097 23.522C26.9861 23.522 26.1212 24.6212 26.1212 26.1889C26.1212 27.7566 26.9861 28.8558 28.4097 28.8558Z" fill="#F6F3F1"/>
<path id="Vector_9" d="M17.965 30.928C15.0098 30.928 13.0817 29.0359 13.0817 26.1889C13.0817 23.3418 15.0098 21.4497 17.965 21.4497C20.9202 21.4497 22.8483 23.3418 22.8483 26.1889C22.8483 29.054 20.9202 30.928 17.965 30.928ZM17.965 28.8558C19.3885 28.8558 20.2715 27.7566 20.2715 26.1889C20.2715 24.6212 19.3885 23.522 17.965 23.522C16.5414 23.522 15.6765 24.6212 15.6765 26.1889C15.6765 27.7566 16.5414 28.8558 17.965 28.8558Z" fill="#F6F3F1"/>
<path id="Vector_10" d="M6.0004 30.9271C2.39648 30.9271 -0.00012207 28.3863 -0.00012207 24.5121C-0.00012207 20.6379 2.37846 18.0972 6.25267 18.0972C9.29798 18.0972 11.4423 19.9712 11.7667 22.6922H9.06373C8.73937 21.3047 7.73028 20.3857 6.18059 20.3857C4.0723 20.3857 2.75687 22.0795 2.75687 24.5121C2.75687 26.9448 4.01824 28.6386 6.18059 28.6386C7.62216 28.6386 9.08174 27.8818 9.33402 26.1159V25.9537H6.19861V23.8094H11.8387V30.819H9.94668L9.67639 29.3053C9.00967 30.1883 7.78434 30.9271 6.0004 30.9271Z" fill="#F6F3F1"/>
</g>
<g id="evil">
<path id="Vector_11" d="M81.9852 30.9531V18.3394H84.526V30.9531H81.9852Z" fill="#F6F3F1"/>
<path id="Vector_12" d="M79.3134 20.6998C78.4845 20.6998 77.8358 20.0872 77.8358 19.2763C77.8358 18.4474 78.4845 17.8347 79.3134 17.8347C80.1423 17.8347 80.791 18.4474 80.791 19.2763C80.791 20.0872 80.1423 20.6998 79.3134 20.6998ZM78.034 30.953V21.6909H80.5928V30.953H78.034Z" fill="#F6F3F1"/>
<path id="Vector_13" d="M71.0607 30.954L67.7271 21.6919H70.448L72.6824 28.3591L74.8808 21.6919H77.5477L74.2141 30.954H71.0607Z" fill="#F6F3F1"/>
<path id="Vector_14" d="M59.3145 30.9531V18.3394H67.7837V20.6639H62.0174V23.493H66.7025V25.7094H62.0174V28.6285H67.9819V30.9531H59.3145Z" fill="#F6F3F1"/>
</g>
</g>
<path id="Union" fill-rule="evenodd" clip-rule="evenodd" d="M4.85423 0.999756H3V2.85398H4.85423V0.999756ZM4.85423 2.85538H3V4.70961H4.85423V2.85538ZM3 6.57469H4.85423V8.42892H3V6.57469ZM4.85423 8.43032H3V10.2845H4.85423V8.43032ZM3 10.2859H4.85423V12.1402H3V10.2859ZM4.85423 12.1456H3V13.9998H4.85423V12.1456ZM4.85739 12.1456H6.71161V13.9998H4.85739V12.1456ZM8.56913 12.1456H6.7149V13.9998H8.56913V12.1456ZM8.57242 12.1456H10.4266V13.9998H8.57242V12.1456ZM6.71161 0.999756H4.85739V2.85398H6.71161V0.999756ZM6.7149 0.999756H8.56913V2.85398H6.7149V0.999756ZM10.4266 0.999756H8.57242V2.85398H10.4266V0.999756ZM10.4299 8.43032H12.2842V10.2845H10.4299V8.43032ZM12.2842 4.71504H10.4299V6.56926H12.2842V4.71504ZM10.4299 10.2859H12.2842V12.1402H10.4299V10.2859ZM10.4266 6.57469H8.57242V8.42892H10.4266V6.57469ZM10.4299 2.85538H12.2842V4.70961H10.4299V2.85538ZM8.56913 6.57469H6.7149V8.42892H8.56913V6.57469ZM4.85739 6.57469H6.71161V8.42892H4.85739V6.57469ZM4.85423 4.71504H3V6.56926H4.85423V4.71504Z" fill="#131313"/>
</g>
</svg>
