<svg width="330" height="15" viewBox="0 0 330 15" fill="none" xmlns="http://www.w3.org/2000/svg">
<rect width="15" height="15" fill="#FAA7BB"/>
<rect x="15" width="15" height="15" fill="#FAA7BB"/>
<rect x="30" width="15" height="15" fill="#FAA7BB"/>
<rect x="45" width="15" height="15" fill="#FAA7BB"/>
<rect x="60" width="15" height="15" fill="#FAA7BB"/>
<rect x="75" width="15" height="15" fill="#FAA7BB"/>
<rect x="90" width="15" height="15" fill="#FAA7BB"/>
<rect x="105" width="15" height="15" fill="#FAA7BB"/>
<rect x="120" width="15" height="15" fill="#FAA7BB"/>
<rect x="135" width="15" height="15" fill="#FAA7BB"/>
<rect x="150" width="15" height="15" fill="#FAA7BB"/>
<rect x="165" width="15" height="15" fill="#FAA7BB"/>
<rect x="180" width="15" height="15" fill="#FAA7BB"/>
<rect x="195" width="15" height="15" fill="#FAA7BB"/>
<rect x="210" width="15" height="15" fill="#FAA7BB"/>
<rect x="225" width="15" height="15" fill="#FAA7BB"/>
<rect x="240" width="15" height="15" fill="#FAA7BB"/>
<rect x="255" width="15" height="15" fill="#FAA7BB"/>
<rect x="270" width="15" height="15" fill="#F696AD"/>
<rect x="285" width="15" height="15" fill="#EB6F8D"/>
<rect x="300" width="15" height="15" fill="#ED3D67"/>
<rect x="315" width="15" height="15" fill="#DE305A"/>
</svg>
