<svg width="390" height="287" viewBox="0 0 390 287" fill="none" xmlns="http://www.w3.org/2000/svg">
<g filter="url(#filter0_b_160_14794)">
<rect y="24" width="390" height="263" fill="#F6F3F1"/>
</g>
<g filter="url(#filter1_b_160_14794)">
<rect x="25" width="340" height="24.9448" fill="#F6F3F1"/>
</g>
<rect x="15" width="5" height="4.98896" fill="#F6F3F1"/>
<rect x="5" y="14.9669" width="5" height="4.98896" fill="#F6F3F1"/>
<rect x="10" y="9.97791" width="5" height="4.98896" fill="#F6F3F1"/>
<rect x="15" y="4.98901" width="5" height="4.98896" fill="#F6F3F1"/>
<rect x="15" y="9.97791" width="5" height="4.98896" fill="#F6F3F1"/>
<rect x="15" y="14.9669" width="5" height="4.98896" fill="#F6F3F1"/>
<rect x="15" y="19.9558" width="5" height="4.98896" fill="#F6F3F1"/>
<rect x="5" y="19.9558" width="5" height="4.98896" fill="#F6F3F1"/>
<rect x="20" width="5" height="4.98896" fill="#F6F3F1"/>
<rect x="20" y="4.98901" width="5" height="4.98896" fill="#F6F3F1"/>
<rect x="20" y="9.97791" width="5" height="4.98896" fill="#F6F3F1"/>
<rect x="20" y="14.9669" width="5" height="4.98896" fill="#F6F3F1"/>
<rect x="20" y="19.9558" width="5" height="4.98896" fill="#F6F3F1"/>
<rect x="10" y="19.9558" width="5" height="4.98896" fill="#F6F3F1"/>
<rect x="10" y="14.9669" width="5" height="4.98896" fill="#F6F3F1"/>
<rect x="5" y="4.98901" width="5" height="4.98896" fill="#F6F3F1"/>
<rect y="19.9558" width="5" height="4.98896" fill="#F6F3F1"/>
<rect x="10" y="4.98901" width="5" height="4.98896" fill="#F6F3F1"/>
<rect x="5" y="9.97791" width="5" height="4.98896" fill="#F6F3F1"/>
<rect y="14.9669" width="5" height="4.98896" fill="#F6F3F1"/>
<rect width="5" height="4.98896" transform="matrix(-1 0 0 1 375 0)" fill="#F6F3F1"/>
<rect width="5" height="4.98896" transform="matrix(-1 0 0 1 385 14.9669)" fill="#F6F3F1"/>
<rect width="5" height="4.98896" transform="matrix(-1 0 0 1 380 9.97791)" fill="#F6F3F1"/>
<rect width="5" height="4.98896" transform="matrix(-1 0 0 1 375 4.98901)" fill="#F6F3F1"/>
<rect width="5" height="4.98896" transform="matrix(-1 0 0 1 375 9.97791)" fill="#F6F3F1"/>
<rect width="5" height="4.98896" transform="matrix(-1 0 0 1 375 14.9669)" fill="#F6F3F1"/>
<rect width="5" height="4.98896" transform="matrix(-1 0 0 1 375 19.9558)" fill="#F6F3F1"/>
<rect width="5" height="4.98896" transform="matrix(-1 0 0 1 385 19.9558)" fill="#F6F3F1"/>
<rect width="5" height="4.98896" transform="matrix(-1 0 0 1 370 0)" fill="#F6F3F1"/>
<rect width="5" height="4.98896" transform="matrix(-1 0 0 1 370 4.98901)" fill="#F6F3F1"/>
<rect width="5" height="4.98896" transform="matrix(-1 0 0 1 370 9.97791)" fill="#F6F3F1"/>
<rect width="5" height="4.98896" transform="matrix(-1 0 0 1 370 14.9669)" fill="#F6F3F1"/>
<rect width="5" height="4.98896" transform="matrix(-1 0 0 1 370 19.9558)" fill="#F6F3F1"/>
<rect width="5" height="4.98896" transform="matrix(-1 0 0 1 380 19.9558)" fill="#F6F3F1"/>
<rect width="5" height="4.98896" transform="matrix(-1 0 0 1 380 14.9669)" fill="#F6F3F1"/>
<rect width="5" height="4.98896" transform="matrix(-1 0 0 1 385 4.98901)" fill="#F6F3F1"/>
<rect width="5" height="4.98896" transform="matrix(-1 0 0 1 390 19.9558)" fill="#F6F3F1"/>
<rect width="5" height="4.98896" transform="matrix(-1 0 0 1 380 4.98901)" fill="#F6F3F1"/>
<rect width="5" height="4.98896" transform="matrix(-1 0 0 1 385 9.97791)" fill="#F6F3F1"/>
<rect width="5" height="4.98896" transform="matrix(-1 0 0 1 390 14.9669)" fill="#F6F3F1"/>
<path d="M70.52 28.68C72.728 28.68 74.328 30.264 74.328 32.872C74.328 35.416 72.728 37.096 70.504 37.096C69.32 37.096 68.504 36.584 67.976 35.88L67.752 37H65.784V25.8H68.04V29.816C68.584 29.16 69.384 28.68 70.52 28.68ZM70.008 35.256C71.24 35.256 72.04 34.296 72.04 32.888C72.04 31.48 71.24 30.52 70.008 30.52C68.776 30.52 68.008 31.48 68.008 32.872C68.008 34.28 68.776 35.256 70.008 35.256ZM79.6449 37.096C76.9089 37.096 75.2609 35.448 75.2609 32.904C75.2609 30.344 76.9409 28.68 79.4849 28.68C81.9489 28.68 83.6129 30.216 83.6449 32.632C83.6449 32.872 83.6289 33.144 83.5809 33.4H77.6129V33.512C77.6609 34.68 78.4129 35.384 79.5489 35.384C80.4609 35.384 81.1009 34.984 81.2929 34.216H83.5169C83.2609 35.816 81.8369 37.096 79.6449 37.096ZM77.6609 31.928H81.3729C81.2129 30.92 80.5249 30.36 79.5009 30.36C78.5249 30.36 77.7889 30.952 77.6609 31.928ZM86.8551 37.048L83.6871 28.776H86.0871L88.0871 34.632L90.0391 28.776H92.4551L88.8071 38.168C88.2951 39.528 87.8791 40.2 86.5991 40.2H84.4071V38.296H85.6551C86.2311 38.296 86.4231 38.152 86.6471 37.592L86.8551 37.048ZM96.8469 37.096C94.2229 37.096 92.5109 35.416 92.5109 32.888C92.5109 30.36 94.2229 28.68 96.8469 28.68C99.4709 28.68 101.183 30.36 101.183 32.888C101.183 35.432 99.4709 37.096 96.8469 37.096ZM96.8469 35.256C98.1109 35.256 98.8949 34.28 98.8949 32.888C98.8949 31.496 98.1109 30.52 96.8469 30.52C95.5829 30.52 94.8149 31.496 94.8149 32.888C94.8149 34.28 95.5829 35.256 96.8469 35.256ZM107.145 28.68C108.921 28.68 110.441 29.624 110.441 32.44V37H108.185V32.664C108.185 31.272 107.657 30.536 106.521 30.536C105.353 30.536 104.681 31.368 104.681 32.792V37H102.425V28.776H104.393L104.601 29.8C105.129 29.16 105.881 28.68 107.145 28.68ZM117.799 29.8V25.8H120.055V37H118.087L117.863 35.864C117.319 36.568 116.519 37.096 115.335 37.096C113.127 37.096 111.511 35.48 111.511 32.872C111.511 30.328 113.127 28.68 115.319 28.68C116.455 28.68 117.271 29.128 117.799 29.8ZM115.831 35.256C117.063 35.256 117.831 34.296 117.831 32.904C117.831 31.496 117.063 30.52 115.831 30.52C114.599 30.52 113.815 31.48 113.815 32.888C113.815 34.296 114.599 35.256 115.831 35.256ZM127.676 29.912L127.868 28.776H129.852V36.76C129.852 38.792 128.604 40.296 125.452 40.296C123.164 40.296 121.596 39.256 121.484 37.352H123.756C123.964 38.136 124.588 38.584 125.628 38.584C126.892 38.584 127.644 37.96 127.644 36.68V35.816C127.1 36.504 126.284 36.952 125.132 36.952C122.924 36.968 121.308 35.352 121.308 32.808C121.308 30.296 122.924 28.664 125.116 28.664C126.3 28.664 127.132 29.192 127.676 29.912ZM125.628 35.144C126.86 35.144 127.628 34.2 127.628 32.84C127.628 31.464 126.86 30.488 125.628 30.488C124.396 30.488 123.612 31.448 123.612 32.824C123.612 34.2 124.396 35.144 125.628 35.144ZM135.441 37.096C132.817 37.096 131.105 35.416 131.105 32.888C131.105 30.36 132.817 28.68 135.441 28.68C138.065 28.68 139.777 30.36 139.777 32.888C139.777 35.432 138.065 37.096 135.441 37.096ZM135.441 35.256C136.705 35.256 137.489 34.28 137.489 32.888C137.489 31.496 136.705 30.52 135.441 30.52C134.177 30.52 133.409 31.496 133.409 32.888C133.409 34.28 134.177 35.256 135.441 35.256ZM145.034 37.096C142.41 37.096 140.698 35.416 140.698 32.888C140.698 30.36 142.41 28.68 145.034 28.68C147.658 28.68 149.37 30.36 149.37 32.888C149.37 35.432 147.658 37.096 145.034 37.096ZM145.034 35.256C146.298 35.256 147.082 34.28 147.082 32.888C147.082 31.496 146.298 30.52 145.034 30.52C143.77 30.52 143.002 31.496 143.002 32.888C143.002 34.28 143.77 35.256 145.034 35.256ZM156.58 29.8V25.8H158.836V37H156.868L156.644 35.864C156.1 36.568 155.3 37.096 154.116 37.096C151.908 37.096 150.292 35.48 150.292 32.872C150.292 30.328 151.908 28.68 154.1 28.68C155.236 28.68 156.052 29.128 156.58 29.8ZM154.612 35.256C155.844 35.256 156.612 34.296 156.612 32.904C156.612 31.496 155.844 30.52 154.612 30.52C153.38 30.52 152.596 31.48 152.596 32.888C152.596 34.296 153.38 35.256 154.612 35.256ZM168.249 35.096H168.505V37H167.353C166.185 37 165.817 36.44 165.833 35.656C165.257 36.568 164.425 37.096 163.145 37.096C161.369 37.096 160.089 36.248 160.089 34.68C160.089 32.936 161.401 31.944 163.865 31.944H165.497V31.544C165.497 30.808 164.969 30.328 164.025 30.328C163.145 30.328 162.553 30.728 162.457 31.336H160.281C160.441 29.736 161.913 28.68 164.089 28.68C166.393 28.68 167.721 29.704 167.721 31.672V34.584C167.721 35.016 167.897 35.096 168.249 35.096ZM165.497 33.608V33.448H163.849C162.905 33.448 162.361 33.832 162.361 34.52C162.361 35.096 162.825 35.464 163.577 35.464C164.761 35.464 165.481 34.728 165.497 33.608ZM174.098 28.68C175.874 28.68 177.394 29.624 177.394 32.44V37H175.138V32.664C175.138 31.272 174.61 30.536 173.474 30.536C172.306 30.536 171.634 31.368 171.634 32.792V37H169.378V28.776H171.346L171.554 29.8C172.082 29.16 172.834 28.68 174.098 28.68ZM184.752 29.8V25.8H187.008V37H185.04L184.816 35.864C184.272 36.568 183.472 37.096 182.288 37.096C180.08 37.096 178.464 35.48 178.464 32.872C178.464 30.328 180.08 28.68 182.272 28.68C183.408 28.68 184.224 29.128 184.752 29.8ZM182.784 35.256C184.016 35.256 184.784 34.296 184.784 32.904C184.784 31.496 184.016 30.52 182.784 30.52C181.552 30.52 180.768 31.48 180.768 32.888C180.768 34.296 181.552 35.256 182.784 35.256ZM192.645 37.096C189.909 37.096 188.261 35.448 188.261 32.904C188.261 30.344 189.941 28.68 192.485 28.68C194.949 28.68 196.613 30.216 196.645 32.632C196.645 32.872 196.629 33.144 196.581 33.4H190.613V33.512C190.661 34.68 191.413 35.384 192.549 35.384C193.461 35.384 194.101 34.984 194.293 34.216H196.517C196.261 35.816 194.837 37.096 192.645 37.096ZM190.661 31.928H194.373C194.213 30.92 193.525 30.36 192.501 30.36C191.525 30.36 190.789 30.952 190.661 31.928ZM199.647 37L196.687 28.776H199.103L201.087 34.696L203.039 28.776H205.407L202.447 37H199.647ZM207.295 27.896C206.559 27.896 205.983 27.352 205.983 26.632C205.983 25.896 206.559 25.352 207.295 25.352C208.031 25.352 208.607 25.896 208.607 26.632C208.607 27.352 208.031 27.896 207.295 27.896ZM206.159 37V28.776H208.431V37H206.159ZM209.987 37V25.8H212.243V37H209.987ZM213.655 35.768C213.655 34.984 214.231 34.424 215.015 34.424C215.783 34.424 216.375 34.984 216.375 35.768C216.375 36.536 215.783 37.096 215.015 37.096C214.231 37.096 213.655 36.536 213.655 35.768ZM221.203 37.096C218.595 37.096 217.011 35.48 217.011 32.888C217.011 30.344 218.675 28.68 221.283 28.68C223.523 28.68 224.915 29.896 225.235 31.848H222.883C222.691 31.032 222.131 30.52 221.251 30.52C220.067 30.52 219.315 31.496 219.315 32.888C219.315 34.296 220.067 35.256 221.251 35.256C222.131 35.256 222.723 34.728 222.883 33.896H225.251C224.931 35.864 223.443 37.096 221.203 37.096ZM230.456 37.096C227.832 37.096 226.12 35.416 226.12 32.888C226.12 30.36 227.832 28.68 230.456 28.68C233.08 28.68 234.792 30.36 234.792 32.888C234.792 35.432 233.08 37.096 230.456 37.096ZM230.456 35.256C231.72 35.256 232.504 34.28 232.504 32.888C232.504 31.496 231.72 30.52 230.456 30.52C229.192 30.52 228.424 31.496 228.424 32.888C228.424 34.28 229.192 35.256 230.456 35.256ZM245.874 28.68C247.57 28.68 248.914 29.64 248.914 32.28V37H246.658V32.408C246.658 31.176 246.21 30.536 245.234 30.536C244.258 30.536 243.602 31.256 243.602 32.504V37H241.346V32.408C241.346 31.176 240.898 30.536 239.906 30.536C238.93 30.536 238.29 31.288 238.29 32.52V37H236.034V28.776H238.002L238.21 29.8C238.706 29.16 239.426 28.696 240.626 28.68C241.634 28.664 242.578 29.032 243.09 30.072C243.666 29.192 244.626 28.68 245.874 28.68Z" fill="#131313"/>
<rect x="20" y="17" width="26" height="26" fill="#131313"/>
<path fill-rule="evenodd" clip-rule="evenodd" d="M28.4135 18.7344H25.1995V21.9484H28.4135V18.7344ZM28.4132 21.9498H25.1992V25.1637H28.4132V21.9498ZM25.1992 28.399H28.4132V31.613H25.1992V28.399ZM28.4132 31.6143H25.1992V34.8283H28.4132V31.6143ZM25.1992 34.8297H28.4132V38.0437H25.1992V34.8297ZM28.4132 38.0543H25.1992V41.2683H28.4132V38.0543ZM28.4189 38.0543H31.6329V41.2683H28.4189V38.0543ZM34.8518 38.0543H31.6378V41.2683H34.8518V38.0543ZM34.858 38.0543H38.072V41.2683H34.858V38.0543ZM31.6329 18.7344H28.4189V21.9484H31.6329V18.7344ZM31.6378 18.7344H34.8518V21.9484H31.6378V18.7344ZM38.072 18.7344H34.858V21.9484H38.072V18.7344ZM38.0777 31.6143H41.2917V34.8283H38.0777V31.6143ZM41.2917 25.1744H38.0777V28.3884H41.2917V25.1744ZM38.0777 34.8297H41.2917V38.0437H38.0777V34.8297ZM38.072 28.399H34.858V31.613H38.072V28.399ZM38.0777 21.9498H41.2917V25.1637H38.0777V21.9498ZM34.8518 28.399H31.6378V31.613H34.8518V28.399ZM28.4189 28.399H31.6329V31.613H28.4189V28.399ZM28.4132 25.1744H25.1992V28.3884H28.4132V25.1744Z" fill="#F5F4F1"/>
<rect y="61" width="390" height="226" fill="#6CB9F1"/>
<defs>
<filter id="filter0_b_160_14794" x="-4" y="20" width="398" height="271" filterUnits="userSpaceOnUse" color-interpolation-filters="sRGB">
<feFlood flood-opacity="0" result="BackgroundImageFix"/>
<feGaussianBlur in="BackgroundImageFix" stdDeviation="2"/>
<feComposite in2="SourceAlpha" operator="in" result="effect1_backgroundBlur_160_14794"/>
<feBlend mode="normal" in="SourceGraphic" in2="effect1_backgroundBlur_160_14794" result="shape"/>
</filter>
<filter id="filter1_b_160_14794" x="21" y="-4" width="348" height="32.9448" filterUnits="userSpaceOnUse" color-interpolation-filters="sRGB">
<feFlood flood-opacity="0" result="BackgroundImageFix"/>
<feGaussianBlur in="BackgroundImageFix" stdDeviation="2"/>
<feComposite in2="SourceAlpha" operator="in" result="effect1_backgroundBlur_160_14794"/>
<feBlend mode="normal" in="SourceGraphic" in2="effect1_backgroundBlur_160_14794" result="shape"/>
</filter>
</defs>
</svg>
