<svg width="11" height="16" viewBox="0 0 11 16" fill="none" xmlns="http://www.w3.org/2000/svg">
<g id="Vector">
<path d="M9.625 15.5L8.25 15.5L8.25 14.1364L9.625 14.1364L9.625 15.5Z" fill="#F6F3F1"/>
<path d="M9.625 1.86364L8.25 1.86364L8.25 0.5L9.625 0.5L9.625 1.86364Z" fill="#F6F3F1"/>
<path d="M11 14.1364L9.625 14.1364L9.625 12.7727L11 12.7727L11 14.1364Z" fill="#F6F3F1"/>
<path d="M11 3.22727L9.625 3.22727L9.625 1.86364L11 1.86364L11 3.22727Z" fill="#F6F3F1"/>
<path d="M9.625 14.1364L8.25 14.1364L8.25 12.7727L9.625 12.7727L9.625 14.1364Z" fill="#F6F3F1"/>
<path d="M9.625 3.22727L8.25 3.22727L8.25 1.86364L9.625 1.86364L9.625 3.22727Z" fill="#F6F3F1"/>
<path d="M9.625 12.7727L8.25 12.7727L8.25 11.4091L9.625 11.4091L9.625 12.7727Z" fill="#F6F3F1"/>
<path d="M9.625 4.59091L8.25 4.59091L8.25 3.22727L9.625 3.22727L9.625 4.59091Z" fill="#F6F3F1"/>
<path d="M8.25 14.1364L6.875 14.1364L6.875 12.7727L8.25 12.7727L8.25 14.1364Z" fill="#F6F3F1"/>
<path d="M8.25 3.22727L6.875 3.22727L6.875 1.86364L8.25 1.86364L8.25 3.22727Z" fill="#F6F3F1"/>
<path d="M8.25 12.7727L6.875 12.7727L6.875 11.4091L8.25 11.4091L8.25 12.7727Z" fill="#F6F3F1"/>
<path d="M8.25 4.59091L6.875 4.59091L6.875 3.22727L8.25 3.22727L8.25 4.59091Z" fill="#F6F3F1"/>
<path d="M8.25 11.4091L6.875 11.4091L6.875 10.0455L8.25 10.0455L8.25 11.4091Z" fill="#F6F3F1"/>
<path d="M6.875 14.1364L5.5 14.1364L5.5 12.7727L6.875 12.7727L6.875 14.1364Z" fill="#F6F3F1"/>
<path d="M6.875 3.22727L5.5 3.22727L5.5 1.86364L6.875 1.86364L6.875 3.22727Z" fill="#F6F3F1"/>
<path d="M6.875 12.7727L5.5 12.7727L5.5 11.4091L6.875 11.4091L6.875 12.7727Z" fill="#F6F3F1"/>
<path d="M6.875 4.59091L5.5 4.59091L5.5 3.22727L6.875 3.22727L6.875 4.59091Z" fill="#F6F3F1"/>
<path d="M6.875 11.4091L5.5 11.4091L5.5 10.0455L6.875 10.0455L6.875 11.4091Z" fill="#F6F3F1"/>
<path d="M6.875 10.0455L5.5 10.0455L5.5 8.68182L6.875 8.68182L6.875 10.0455Z" fill="#F6F3F1"/>
<path d="M6.875 7.31818L5.5 7.31818L5.5 5.95455L6.875 5.95455L6.875 7.31818Z" fill="#F6F3F1"/>
<path d="M6.875 5.95455L5.5 5.95455L5.5 4.59091L6.875 4.59091L6.875 5.95455Z" fill="#F6F3F1"/>
<path d="M8.25 5.95455L6.875 5.95455L6.875 4.59091L8.25 4.59091L8.25 5.95455Z" fill="#F6F3F1"/>
<path d="M5.5 12.7727L4.125 12.7727L4.125 11.4091L5.5 11.4091L5.5 12.7727Z" fill="#F6F3F1"/>
<path d="M5.5 4.59091L4.125 4.59091L4.125 3.22727L5.5 3.22727L5.5 4.59091Z" fill="#F6F3F1"/>
<path d="M5.5 11.4091L4.125 11.4091L4.125 10.0455L5.5 10.0455L5.5 11.4091Z" fill="#F6F3F1"/>
<path d="M5.5 10.0455L4.125 10.0455L4.125 8.68182L5.5 8.68182L5.5 10.0455Z" fill="#F6F3F1"/>
<path d="M5.5 7.31818L4.125 7.31818L4.125 5.95455L5.5 5.95455L5.5 7.31818Z" fill="#F6F3F1"/>
<path d="M5.5 5.95455L4.125 5.95455L4.125 4.59091L5.5 4.59091L5.5 5.95455Z" fill="#F6F3F1"/>
<path d="M5.5 8.68182L4.125 8.68182L4.125 7.31818L5.5 7.31818L5.5 8.68182Z" fill="#F6F3F1"/>
<path d="M4.125 11.4091L2.75 11.4091L2.75 10.0455L4.125 10.0455L4.125 11.4091Z" fill="#F6F3F1"/>
<path d="M4.125 10.0455L2.75 10.0455L2.75 8.68182L4.125 8.68182L4.125 10.0455Z" fill="#F6F3F1"/>
<path d="M4.125 7.31818L2.75 7.31818L2.75 5.95455L4.125 5.95455L4.125 7.31818Z" fill="#F6F3F1"/>
<path d="M4.125 5.95455L2.75 5.95455L2.75 4.59091L4.125 4.59091L4.125 5.95455Z" fill="#F6F3F1"/>
<path d="M4.125 8.68182L2.75 8.68182L2.75 7.31818L4.125 7.31818L4.125 8.68182Z" fill="#F6F3F1"/>
<path d="M2.75 10.0455L1.375 10.0455L1.375 8.68182L2.75 8.68182L2.75 10.0455Z" fill="#F6F3F1"/>
<path d="M1.375 8.68182L-5.96064e-07 8.68182L-7.15277e-07 7.31818L1.375 7.31818L1.375 8.68182Z" fill="#F6F3F1"/>
<path d="M2.75 8.68182L1.375 8.68182L1.375 7.31818L2.75 7.31818L2.75 8.68182Z" fill="#F6F3F1"/>
<path d="M2.75 7.31818L1.375 7.31818L1.375 5.95455L2.75 5.95455L2.75 7.31818Z" fill="#F6F3F1"/>
<path d="M8.25 15.5L6.875 15.5L6.875 14.1364L8.25 14.1364L8.25 15.5Z" fill="#F6F3F1"/>
<path d="M8.25 1.86364L6.875 1.86364L6.875 0.5L8.25 0.5L8.25 1.86364Z" fill="#F6F3F1"/>
</g>
</svg>
