<svg width="16" height="13" viewBox="0 0 16 13" fill="none" xmlns="http://www.w3.org/2000/svg">
<g id="Vector">
<path d="M9.6 4.86364H10.6667V5.95455H9.6V4.86364Z" fill="#131313"/>
<path d="M10.6667 4.86364H11.7333V5.95455H10.6667V4.86364Z" fill="#131313"/>
<path d="M11.7333 3.77273H12.8V4.86364H11.7333V3.77273Z" fill="#131313"/>
<path d="M12.8 2.68182H13.8667V3.77273H12.8V2.68182Z" fill="#131313"/>
<path d="M13.8667 1.59091H14.9333V2.68182H13.8667V1.59091Z" fill="#131313"/>
<path d="M14.9333 1.59091H16V2.68182H14.9333V1.59091Z" fill="#131313"/>
<path d="M10.6667 3.77273H11.7333V4.86364H10.6667V3.77273Z" fill="#131313"/>
<path d="M11.7333 2.68182H12.8V3.77273H11.7333V2.68182Z" fill="#131313"/>
<path d="M12.8 1.59091H13.8667V2.68182H12.8V1.59091Z" fill="#131313"/>
<path d="M13.8667 0.5H14.9333V1.59091H13.8667V0.5Z" fill="#131313"/>
<path d="M8.53333 5.95455H9.6V7.04545H8.53333V5.95455Z" fill="#131313"/>
<path d="M7.46667 7.04545H8.53333V8.13636H7.46667V7.04545Z" fill="#131313"/>
<path d="M6.4 8.13636H7.46667V9.22727H6.4V8.13636Z" fill="#131313"/>
<path d="M5.33333 9.22727H6.4V10.3182H5.33333V9.22727Z" fill="#131313"/>
<path d="M4.26667 9.22727H5.33333V10.3182H4.26667V9.22727Z" fill="#131313"/>
<path d="M3.2 9.22727H4.26667V10.3182H3.2V9.22727Z" fill="#131313"/>
<path d="M3.2 8.13636H4.26667V9.22727H3.2V8.13636Z" fill="#131313"/>
<path d="M2.13333 8.13636H3.2V9.22727H2.13333V8.13636Z" fill="#131313"/>
<path d="M2.13333 7.04545H3.2V8.13636H2.13333V7.04545Z" fill="#131313"/>
<path d="M1.06667 7.04545H2.13333V8.13636H1.06667V7.04545Z" fill="#131313"/>
<path d="M1.06667 5.95455H2.13333V7.04545H1.06667V5.95455Z" fill="#131313"/>
<path d="M0 7.04545H1.06667V8.13636H0V7.04545Z" fill="#131313"/>
<path d="M1.06667 8.13636H2.13333V9.22727H1.06667V8.13636Z" fill="#131313"/>
<path d="M2.13333 9.22727H3.2V10.3182H2.13333V9.22727Z" fill="#131313"/>
<path d="M8.53333 7.04545H9.6V8.13636H8.53333V7.04545Z" fill="#131313"/>
<path d="M7.46667 8.13636H8.53333V9.22727H7.46667V8.13636Z" fill="#131313"/>
<path d="M6.4 9.22727H7.46667V10.3182H6.4V9.22727Z" fill="#131313"/>
<path d="M5.33333 10.3182H6.4V11.4091H5.33333V10.3182Z" fill="#131313"/>
<path d="M4.26667 10.3182H5.33333V11.4091H4.26667V10.3182Z" fill="#131313"/>
<path d="M3.2 10.3182H4.26667V11.4091H3.2V10.3182Z" fill="#131313"/>
<path d="M8.53333 8.13636H9.6V9.22727H8.53333V8.13636Z" fill="#131313"/>
<path d="M7.46667 9.22727H8.53333V10.3182H7.46667V9.22727Z" fill="#131313"/>
<path d="M6.4 10.3182H7.46667V11.4091H6.4V10.3182Z" fill="#131313"/>
<path d="M5.33333 11.4091H6.4V12.5H5.33333V11.4091Z" fill="#131313"/>
<path d="M4.26667 11.4091H5.33333V12.5H4.26667V11.4091Z" fill="#131313"/>
<path d="M9.6 5.95455H10.6667V7.04545H9.6V5.95455Z" fill="#131313"/>
<path d="M9.6 7.04545H10.6667V8.13636H9.6V7.04545Z" fill="#131313"/>
<path d="M10.6667 5.95455H11.7333V7.04545H10.6667V5.95455Z" fill="#131313"/>
<path d="M11.7333 4.86364H12.8V5.95455H11.7333V4.86364Z" fill="#131313"/>
<path d="M12.8 3.77273H13.8667V4.86364H12.8V3.77273Z" fill="#131313"/>
<path d="M13.8667 2.68182H14.9333V3.77273H13.8667V2.68182Z" fill="#131313"/>
</g>
</svg>
