<svg width="11" height="15" viewBox="0 0 11 15" fill="none" xmlns="http://www.w3.org/2000/svg">
<g id="Vector">
<path d="M1.375 0H2.75V1.36364H1.375V0Z" fill="#131313"/>
<path d="M1.375 13.6364H2.75V15H1.375V13.6364Z" fill="#131313"/>
<path d="M0 1.36364H1.375V2.72727H0V1.36364Z" fill="#131313"/>
<path d="M0 12.2727H1.375V13.6364H0V12.2727Z" fill="#131313"/>
<path d="M1.375 1.36364H2.75V2.72727H1.375V1.36364Z" fill="#131313"/>
<path d="M1.375 12.2727H2.75V13.6364H1.375V12.2727Z" fill="#131313"/>
<path d="M1.375 2.72727H2.75V4.09091H1.375V2.72727Z" fill="#131313"/>
<path d="M1.375 10.9091H2.75V12.2727H1.375V10.9091Z" fill="#131313"/>
<path d="M2.75 1.36364H4.125V2.72727H2.75V1.36364Z" fill="#131313"/>
<path d="M2.75 12.2727H4.125V13.6364H2.75V12.2727Z" fill="#131313"/>
<path d="M2.75 2.72727H4.125V4.09091H2.75V2.72727Z" fill="#131313"/>
<path d="M2.75 10.9091H4.125V12.2727H2.75V10.9091Z" fill="#131313"/>
<path d="M2.75 4.09091H4.125V5.45455H2.75V4.09091Z" fill="#131313"/>
<path d="M4.125 1.36364H5.5V2.72727H4.125V1.36364Z" fill="#131313"/>
<path d="M4.125 12.2727H5.5V13.6364H4.125V12.2727Z" fill="#131313"/>
<path d="M4.125 2.72727H5.5V4.09091H4.125V2.72727Z" fill="#131313"/>
<path d="M4.125 10.9091H5.5V12.2727H4.125V10.9091Z" fill="#131313"/>
<path d="M4.125 4.09091H5.5V5.45455H4.125V4.09091Z" fill="#131313"/>
<path d="M4.125 5.45455H5.5V6.81818H4.125V5.45455Z" fill="#131313"/>
<path d="M4.125 8.18182H5.5V9.54545H4.125V8.18182Z" fill="#131313"/>
<path d="M4.125 9.54545H5.5V10.9091H4.125V9.54545Z" fill="#131313"/>
<path d="M2.75 9.54545H4.125V10.9091H2.75V9.54545Z" fill="#131313"/>
<path d="M5.5 2.72727H6.875V4.09091H5.5V2.72727Z" fill="#131313"/>
<path d="M5.5 10.9091H6.875V12.2727H5.5V10.9091Z" fill="#131313"/>
<path d="M5.5 4.09091H6.875V5.45455H5.5V4.09091Z" fill="#131313"/>
<path d="M5.5 5.45455H6.875V6.81818H5.5V5.45455Z" fill="#131313"/>
<path d="M5.5 8.18182H6.875V9.54545H5.5V8.18182Z" fill="#131313"/>
<path d="M5.5 9.54545H6.875V10.9091H5.5V9.54545Z" fill="#131313"/>
<path d="M5.5 6.81818H6.875V8.18182H5.5V6.81818Z" fill="#131313"/>
<path d="M6.875 4.09091H8.25V5.45455H6.875V4.09091Z" fill="#131313"/>
<path d="M6.875 5.45455H8.25V6.81818H6.875V5.45455Z" fill="#131313"/>
<path d="M6.875 8.18182H8.25V9.54545H6.875V8.18182Z" fill="#131313"/>
<path d="M6.875 9.54545H8.25V10.9091H6.875V9.54545Z" fill="#131313"/>
<path d="M6.875 6.81818H8.25V8.18182H6.875V6.81818Z" fill="#131313"/>
<path d="M8.25 5.45455H9.625V6.81818H8.25V5.45455Z" fill="#131313"/>
<path d="M9.625 6.81818H11V8.18182H9.625V6.81818Z" fill="#131313"/>
<path d="M8.25 6.81818H9.625V8.18182H8.25V6.81818Z" fill="#131313"/>
<path d="M8.25 8.18182H9.625V9.54545H8.25V8.18182Z" fill="#131313"/>
<path d="M2.75 0H4.125V1.36364H2.75V0Z" fill="#131313"/>
<path d="M2.75 13.6364H4.125V15H2.75V13.6364Z" fill="#131313"/>
</g>
</svg>
