<svg width="11" height="16" viewBox="0 0 11 16" fill="none" xmlns="http://www.w3.org/2000/svg">
<g id="Vector">
<path d="M1.375 0.5H2.75V1.86364H1.375V0.5Z" fill="#F6F3F1"/>
<path d="M1.375 14.1364H2.75V15.5H1.375V14.1364Z" fill="#F6F3F1"/>
<path d="M0 1.86364H1.375V3.22727H0V1.86364Z" fill="#F6F3F1"/>
<path d="M0 12.7727H1.375V14.1364H0V12.7727Z" fill="#F6F3F1"/>
<path d="M1.375 1.86364H2.75V3.22727H1.375V1.86364Z" fill="#F6F3F1"/>
<path d="M1.375 12.7727H2.75V14.1364H1.375V12.7727Z" fill="#F6F3F1"/>
<path d="M1.375 3.22727H2.75V4.59091H1.375V3.22727Z" fill="#F6F3F1"/>
<path d="M1.375 11.4091H2.75V12.7727H1.375V11.4091Z" fill="#F6F3F1"/>
<path d="M2.75 1.86364H4.125V3.22727H2.75V1.86364Z" fill="#F6F3F1"/>
<path d="M2.75 12.7727H4.125V14.1364H2.75V12.7727Z" fill="#F6F3F1"/>
<path d="M2.75 3.22727H4.125V4.59091H2.75V3.22727Z" fill="#F6F3F1"/>
<path d="M2.75 11.4091H4.125V12.7727H2.75V11.4091Z" fill="#F6F3F1"/>
<path d="M2.75 4.59091H4.125V5.95455H2.75V4.59091Z" fill="#F6F3F1"/>
<path d="M4.125 1.86364H5.5V3.22727H4.125V1.86364Z" fill="#F6F3F1"/>
<path d="M4.125 12.7727H5.5V14.1364H4.125V12.7727Z" fill="#F6F3F1"/>
<path d="M4.125 3.22727H5.5V4.59091H4.125V3.22727Z" fill="#F6F3F1"/>
<path d="M4.125 11.4091H5.5V12.7727H4.125V11.4091Z" fill="#F6F3F1"/>
<path d="M4.125 4.59091H5.5V5.95455H4.125V4.59091Z" fill="#F6F3F1"/>
<path d="M4.125 5.95455H5.5V7.31818H4.125V5.95455Z" fill="#F6F3F1"/>
<path d="M4.125 8.68182H5.5V10.0455H4.125V8.68182Z" fill="#F6F3F1"/>
<path d="M4.125 10.0455H5.5V11.4091H4.125V10.0455Z" fill="#F6F3F1"/>
<path d="M2.75 10.0455H4.125V11.4091H2.75V10.0455Z" fill="#F6F3F1"/>
<path d="M5.5 3.22727H6.875V4.59091H5.5V3.22727Z" fill="#F6F3F1"/>
<path d="M5.5 11.4091H6.875V12.7727H5.5V11.4091Z" fill="#F6F3F1"/>
<path d="M5.5 4.59091H6.875V5.95455H5.5V4.59091Z" fill="#F6F3F1"/>
<path d="M5.5 5.95455H6.875V7.31818H5.5V5.95455Z" fill="#F6F3F1"/>
<path d="M5.5 8.68182H6.875V10.0455H5.5V8.68182Z" fill="#F6F3F1"/>
<path d="M5.5 10.0455H6.875V11.4091H5.5V10.0455Z" fill="#F6F3F1"/>
<path d="M5.5 7.31818H6.875V8.68182H5.5V7.31818Z" fill="#F6F3F1"/>
<path d="M6.875 4.59091H8.25V5.95455H6.875V4.59091Z" fill="#F6F3F1"/>
<path d="M6.875 5.95455H8.25V7.31818H6.875V5.95455Z" fill="#F6F3F1"/>
<path d="M6.875 8.68182H8.25V10.0455H6.875V8.68182Z" fill="#F6F3F1"/>
<path d="M6.875 10.0455H8.25V11.4091H6.875V10.0455Z" fill="#F6F3F1"/>
<path d="M6.875 7.31818H8.25V8.68182H6.875V7.31818Z" fill="#F6F3F1"/>
<path d="M8.25 5.95455H9.625V7.31818H8.25V5.95455Z" fill="#F6F3F1"/>
<path d="M9.625 7.31818H11V8.68182H9.625V7.31818Z" fill="#F6F3F1"/>
<path d="M8.25 7.31818H9.625V8.68182H8.25V7.31818Z" fill="#F6F3F1"/>
<path d="M8.25 8.68182H9.625V10.0455H8.25V8.68182Z" fill="#F6F3F1"/>
<path d="M2.75 0.5H4.125V1.86364H2.75V0.5Z" fill="#F6F3F1"/>
<path d="M2.75 14.1364H4.125V15.5H2.75V14.1364Z" fill="#F6F3F1"/>
</g>
</svg>
