<svg width="11" height="15" viewBox="0 0 11 15" fill="none" xmlns="http://www.w3.org/2000/svg">
<g id="Vector">
<path d="M1.375 2.40413e-07L2.75 4.80825e-07L2.75 1.36364L1.375 1.36364L1.375 2.40413e-07Z" fill="#FCD290"/>
<path d="M1.375 13.6364L2.75 13.6364L2.75 15L1.375 15L1.375 13.6364Z" fill="#FCD290"/>
<path d="M-2.38426e-07 1.36364L1.375 1.36364L1.375 2.72727L-4.76852e-07 2.72727L-2.38426e-07 1.36364Z" fill="#FCD290"/>
<path d="M-2.14583e-06 12.2727L1.375 12.2727L1.375 13.6364L-2.38426e-06 13.6364L-2.14583e-06 12.2727Z" fill="#FCD290"/>
<path d="M1.375 1.36364L2.75 1.36364L2.75 2.72727L1.375 2.72727L1.375 1.36364Z" fill="#FCD290"/>
<path d="M1.375 12.2727L2.75 12.2727L2.75 13.6364L1.375 13.6364L1.375 12.2727Z" fill="#FCD290"/>
<path d="M1.375 2.72727L2.75 2.72727L2.75 4.09091L1.375 4.09091L1.375 2.72727Z" fill="#FCD290"/>
<path d="M1.375 10.9091L2.75 10.9091L2.75 12.2727L1.375 12.2727L1.375 10.9091Z" fill="#FCD290"/>
<path d="M2.75 1.36364L4.125 1.36364L4.125 2.72727L2.75 2.72727L2.75 1.36364Z" fill="#FCD290"/>
<path d="M2.75 12.2727L4.125 12.2727L4.125 13.6364L2.75 13.6364L2.75 12.2727Z" fill="#FCD290"/>
<path d="M2.75 2.72727L4.125 2.72727L4.125 4.09091L2.75 4.09091L2.75 2.72727Z" fill="#FCD290"/>
<path d="M2.75 10.9091L4.125 10.9091L4.125 12.2727L2.75 12.2727L2.75 10.9091Z" fill="#FCD290"/>
<path d="M2.75 4.09091L4.125 4.09091L4.125 5.45455L2.75 5.45455L2.75 4.09091Z" fill="#FCD290"/>
<path d="M4.125 1.36364L5.5 1.36364L5.5 2.72727L4.125 2.72727L4.125 1.36364Z" fill="#FCD290"/>
<path d="M4.125 12.2727L5.5 12.2727L5.5 13.6364L4.125 13.6364L4.125 12.2727Z" fill="#FCD290"/>
<path d="M4.125 2.72727L5.5 2.72727L5.5 4.09091L4.125 4.09091L4.125 2.72727Z" fill="#FCD290"/>
<path d="M4.125 10.9091L5.5 10.9091L5.5 12.2727L4.125 12.2727L4.125 10.9091Z" fill="#FCD290"/>
<path d="M4.125 4.09091L5.5 4.09091L5.5 5.45455L4.125 5.45455L4.125 4.09091Z" fill="#FCD290"/>
<path d="M4.125 5.45455L5.5 5.45455L5.5 6.81818L4.125 6.81818L4.125 5.45455Z" fill="#FCD290"/>
<path d="M4.125 8.18182L5.5 8.18182L5.5 9.54546L4.125 9.54546L4.125 8.18182Z" fill="#FCD290"/>
<path d="M4.125 9.54546L5.5 9.54546L5.5 10.9091L4.125 10.9091L4.125 9.54546Z" fill="#FCD290"/>
<path d="M2.75 9.54546L4.125 9.54546L4.125 10.9091L2.75 10.9091L2.75 9.54546Z" fill="#FCD290"/>
<path d="M5.5 2.72727L6.875 2.72727L6.875 4.09091L5.5 4.09091L5.5 2.72727Z" fill="#FCD290"/>
<path d="M5.5 10.9091L6.875 10.9091L6.875 12.2727L5.5 12.2727L5.5 10.9091Z" fill="#FCD290"/>
<path d="M5.5 4.09091L6.875 4.09091L6.875 5.45455L5.5 5.45455L5.5 4.09091Z" fill="#FCD290"/>
<path d="M5.5 5.45455L6.875 5.45455L6.875 6.81818L5.5 6.81818L5.5 5.45455Z" fill="#FCD290"/>
<path d="M5.5 8.18182L6.875 8.18182L6.875 9.54546L5.5 9.54546L5.5 8.18182Z" fill="#FCD290"/>
<path d="M5.5 9.54546L6.875 9.54546L6.875 10.9091L5.5 10.9091L5.5 9.54546Z" fill="#FCD290"/>
<path d="M5.5 6.81818L6.875 6.81818L6.875 8.18182L5.5 8.18182L5.5 6.81818Z" fill="#FCD290"/>
<path d="M6.875 4.09091L8.25 4.09091L8.25 5.45455L6.875 5.45455L6.875 4.09091Z" fill="#FCD290"/>
<path d="M6.875 5.45455L8.25 5.45455L8.25 6.81818L6.875 6.81818L6.875 5.45455Z" fill="#FCD290"/>
<path d="M6.875 8.18182L8.25 8.18182L8.25 9.54546L6.875 9.54546L6.875 8.18182Z" fill="#FCD290"/>
<path d="M6.875 9.54546L8.25 9.54546L8.25 10.9091L6.875 10.9091L6.875 9.54546Z" fill="#FCD290"/>
<path d="M6.875 6.81818L8.25 6.81818L8.25 8.18182L6.875 8.18182L6.875 6.81818Z" fill="#FCD290"/>
<path d="M8.25 5.45455L9.625 5.45455L9.625 6.81818L8.25 6.81818L8.25 5.45455Z" fill="#FCD290"/>
<path d="M9.625 6.81818L11 6.81818L11 8.18182L9.625 8.18182L9.625 6.81818Z" fill="#FCD290"/>
<path d="M8.25 6.81818L9.625 6.81818L9.625 8.18182L8.25 8.18182L8.25 6.81818Z" fill="#FCD290"/>
<path d="M8.25 8.18182L9.625 8.18182L9.625 9.54546L8.25 9.54546L8.25 8.18182Z" fill="#FCD290"/>
<path d="M2.75 4.80825e-07L4.125 7.21238e-07L4.125 1.36364L2.75 1.36364L2.75 4.80825e-07Z" fill="#FCD290"/>
<path d="M2.75 13.6364L4.125 13.6364L4.125 15L2.75 15L2.75 13.6364Z" fill="#FCD290"/>
</g>
</svg>
