<svg width="101" height="35" viewBox="0 0 101 35" fill="none" xmlns="http://www.w3.org/2000/svg">
<rect x="0.5" y="0.5" width="100" height="34" fill="#FCD290"/>
<rect x="0.5" y="0.5" width="100" height="34" stroke="#131313"/>
<path d="M14.32 24.62C10.16 24.62 7.64 21.8 7.64 17.5C7.64 13.2 10.26 10.38 14.5 10.38C17.82 10.38 20.16 12.46 20.52 15.5H17.48C17.12 13.94 16 12.92 14.34 12.92C12.06 12.92 10.7 14.8 10.7 17.5C10.7 20.18 12.04 22.08 14.3 22.08C16 22.08 17.12 21.06 17.48 19.5H20.5C20.16 22.54 17.74 24.62 14.32 24.62ZM27.0039 24.62C23.7239 24.62 21.5839 22.52 21.5839 19.36C21.5839 16.2 23.7239 14.1 27.0039 14.1C30.2839 14.1 32.4239 16.2 32.4239 19.36C32.4239 22.54 30.2839 24.62 27.0039 24.62ZM27.0039 22.32C28.5839 22.32 29.5639 21.1 29.5639 19.36C29.5639 17.62 28.5839 16.4 27.0039 16.4C25.4239 16.4 24.4639 17.62 24.4639 19.36C24.4639 21.1 25.4239 22.32 27.0039 22.32ZM35.3961 13.12C34.4761 13.12 33.7561 12.44 33.7561 11.54C33.7561 10.62 34.4761 9.94 35.3961 9.94C36.3161 9.94 37.0361 10.62 37.0361 11.54C37.0361 12.44 36.3161 13.12 35.3961 13.12ZM33.9761 24.5V14.22H36.8161V24.5H33.9761ZM44.6613 14.1C46.8813 14.1 48.7813 15.28 48.7813 18.8V24.5H45.9613V19.08C45.9613 17.34 45.3013 16.42 43.8813 16.42C42.4213 16.42 41.5813 17.46 41.5813 19.24V24.5H38.7613V14.22H41.2213L41.4813 15.5C42.1413 14.7 43.0813 14.1 44.6613 14.1Z" fill="#131313"/>
<path d="M75.0632 17.3V22.7H73.2632V24.5H64.2632V22.7H62.4632V20.9H66.0632V22.7H71.4632V17.3H62.4632V11.9H73.2632V13.7H66.0632V15.5H73.2632V17.3H75.0632ZM89.0694 11.9V13.7H87.2694V11.9H89.0694ZM87.2694 13.7V15.5H85.4694V13.7H87.2694ZM85.4694 15.5V17.3H83.6694V15.5H85.4694ZM81.8694 11.9V15.5H78.2694V11.9H81.8694ZM89.0694 19.1V22.7H85.4694V19.1H89.0694ZM83.6694 17.3V19.1H81.8694V17.3H83.6694ZM81.8694 19.1V20.9H80.0694V19.1H81.8694ZM80.0694 20.9V22.7H78.2694V20.9H80.0694Z" fill="#131313"/>
</svg>
