<svg width="294" height="35" viewBox="0 0 294 35" fill="none" xmlns="http://www.w3.org/2000/svg">
<rect x="0.5" y="0.5" width="293" height="34" fill="#89CDFF"/>
<rect x="0.5" y="0.5" width="293" height="34" stroke="#131313"/>
<path d="M14.3 24.5H9.2V10.5H14.3C18.66 10.5 21.56 13.36 21.56 17.48C21.56 21.58 18.66 24.5 14.3 24.5ZM12.2 13V22H14.3C16.98 22 18.48 20.14 18.48 17.48C18.48 14.8 16.98 13 14.3 13H12.2ZM28.2397 24.62C24.8197 24.62 22.7597 22.56 22.7597 19.38C22.7597 16.18 24.8597 14.1 28.0397 14.1C31.1197 14.1 33.1997 16.02 33.2397 19.04C33.2397 19.34 33.2197 19.68 33.1597 20H25.6997V20.14C25.7597 21.6 26.6997 22.48 28.1197 22.48C29.2597 22.48 30.0597 21.98 30.2997 21.02H33.0797C32.7597 23.02 30.9797 24.62 28.2397 24.62ZM25.7597 18.16H30.3997C30.1997 16.9 29.3397 16.2 28.0597 16.2C26.8397 16.2 25.9197 16.94 25.7597 18.16ZM39.8008 24.62C36.5208 24.62 34.3808 22.52 34.3808 19.36C34.3808 16.2 36.5208 14.1 39.8008 14.1C43.0808 14.1 45.2208 16.2 45.2208 19.36C45.2208 22.54 43.0808 24.62 39.8008 24.62ZM39.8008 22.32C41.3808 22.32 42.3608 21.1 42.3608 19.36C42.3608 17.62 41.3808 16.4 39.8008 16.4C38.2208 16.4 37.2608 17.62 37.2608 19.36C37.2608 21.1 38.2208 22.32 39.8008 22.32ZM52.673 14.1C54.893 14.1 56.793 15.28 56.793 18.8V24.5H53.973V19.08C53.973 17.34 53.313 16.42 51.893 16.42C50.433 16.42 49.593 17.46 49.593 19.24V24.5H46.773V14.22H49.233L49.493 15.5C50.153 14.7 51.093 14.1 52.673 14.1ZM59.3098 21.56V16.6H57.6098V14.22H59.3098V11.34H62.1298V14.22H64.4898V16.6H62.1298V21.1C62.1298 21.82 62.4098 22.12 63.1498 22.12H64.5498V24.5H62.2498C60.2898 24.5 59.3098 23.52 59.3098 21.56ZM70.7188 24.62C67.4388 24.62 65.2988 22.52 65.2988 19.36C65.2988 16.2 67.4388 14.1 70.7188 14.1C73.9988 14.1 76.1388 16.2 76.1388 19.36C76.1388 22.54 73.9988 24.62 70.7188 24.62ZM70.7188 22.32C72.2988 22.32 73.2788 21.1 73.2788 19.36C73.2788 17.62 72.2988 16.4 70.7188 16.4C69.1388 16.4 68.1788 17.62 68.1788 19.36C68.1788 21.1 69.1388 22.32 70.7188 22.32ZM77.6909 24.5V10.5H80.5109V24.5H77.6909ZM87.4961 24.62C84.2161 24.62 82.0761 22.52 82.0761 19.36C82.0761 16.2 84.2161 14.1 87.4961 14.1C90.7761 14.1 92.9161 16.2 92.9161 19.36C92.9161 22.54 90.7761 24.62 87.4961 24.62ZM87.4961 22.32C89.0761 22.32 90.0561 21.1 90.0561 19.36C90.0561 17.62 89.0761 16.4 87.4961 16.4C85.9161 16.4 84.9561 17.62 84.9561 19.36C84.9561 21.1 85.9161 22.32 87.4961 22.32ZM102.028 15.64L102.268 14.22H104.748V24.2C104.748 26.74 103.188 28.62 99.2483 28.62C96.3883 28.62 94.4283 27.32 94.2883 24.94H97.1283C97.3883 25.92 98.1683 26.48 99.4683 26.48C101.048 26.48 101.988 25.7 101.988 24.1V23.02C101.308 23.88 100.288 24.44 98.8483 24.44C96.0883 24.46 94.0683 22.44 94.0683 19.26C94.0683 16.12 96.0883 14.08 98.8283 14.08C100.308 14.08 101.348 14.74 102.028 15.64ZM99.4683 22.18C101.008 22.18 101.968 21 101.968 19.3C101.968 17.58 101.008 16.36 99.4683 16.36C97.9283 16.36 96.9483 17.56 96.9483 19.28C96.9483 21 97.9283 22.18 99.4683 22.18ZM109.674 24.56L105.714 14.22H108.714L111.214 21.54L113.654 14.22H116.674L112.114 25.96C111.474 27.66 110.954 28.5 109.354 28.5H106.614V26.12H108.174C108.894 26.12 109.134 25.94 109.414 25.24L109.674 24.56Z" fill="#131313"/>
<path d="M254.033 19.1V22.7H252.215V24.5H243.233V22.7H241.433V20.9H245.015V22.7H250.433V19.1H245.015V17.3H246.833V15.5H248.633V13.7H243.233V11.9H254.033V13.7H252.233V15.5H250.433V17.3H252.233V19.1H254.033ZM268.94 19.1V20.9H267.14V24.5H263.54V20.9H256.34V17.3H258.122V15.5H259.939V13.7H261.74V11.9H267.14V19.1H268.94ZM259.939 19.1H263.54V15.5H261.74V17.3H259.939V19.1ZM282.946 11.9V13.7H281.146V11.9H282.946ZM281.146 13.7V15.5H279.346V13.7H281.146ZM279.346 15.5V17.3H277.546V15.5H279.346ZM275.746 11.9V15.5H272.146V11.9H275.746ZM282.946 19.1V22.7H279.346V19.1H282.946ZM277.546 17.3V19.1H275.746V17.3H277.546ZM275.746 19.1V20.9H273.946V19.1H275.746ZM273.946 20.9V22.7H272.146V20.9H273.946Z" fill="#131313"/>
</svg>
