<svg width="351" height="307" viewBox="0 0 351 307" fill="none" xmlns="http://www.w3.org/2000/svg">
<rect x="0.398438" width="350" height="307" fill="#FA839F"/>
<mask id="mask0_667_2097" style="mask-type:alpha" maskUnits="userSpaceOnUse" x="0" y="140" width="351" height="167">
<rect y="140.543" width="350.434" height="166.456" fill="#FA839F"/>
</mask>
<g mask="url(#mask0_667_2097)">
<rect x="160.615" y="286.557" width="29.2028" height="29.2028" fill="#FD8D82"/>
<rect x="160.615" y="257.354" width="29.2028" height="29.2028" fill="#FD8D82"/>
<rect x="160.615" y="228.15" width="29.2028" height="29.2028" fill="#FD7E82"/>
<rect x="160.615" y="198.949" width="29.2028" height="29.2028" fill="#FD7E82"/>
<rect x="160.615" y="169.746" width="29.2028" height="29.2028" fill="#FAA7A7"/>
<rect x="189.818" y="198.949" width="29.2028" height="29.2028" fill="#FAA7A7"/>
<rect x="219.02" y="228.15" width="29.2028" height="29.2028" fill="#FAA7A7"/>
<rect x="248.223" y="257.354" width="29.2028" height="29.2028" fill="#FAA7A7"/>
<rect x="248.223" y="228.15" width="29.2028" height="29.2028" fill="#FAA7A7"/>
<rect x="277.426" y="286.557" width="29.2028" height="29.2028" fill="#FAA7A7"/>
<rect x="306.629" y="286.557" width="29.2028" height="29.2028" fill="#FAA7A7"/>
<rect x="14.6016" y="257.354" width="29.2028" height="29.2028" fill="#FCC8C8"/>
<rect x="-14.6016" y="257.354" width="29.2028" height="29.2028" fill="#FBD8D8"/>
<rect x="14.6016" y="228.15" width="29.2028" height="29.2028" fill="#FBD8D8"/>
<rect x="-14.6016" y="228.15" width="29.2028" height="29.2028" fill="#FBD8D8"/>
<rect x="-14.6016" y="199.268" width="29.2028" height="29.2028" fill="#FA839F"/>
<rect x="14.6016" y="169.906" width="29.2028" height="29.2028" fill="#FA839F"/>
<rect x="43.8027" y="140.543" width="29.2028" height="29.2028" fill="#FA839F"/>
<rect x="14.6016" y="140.543" width="29.2028" height="29.2028" fill="#FA839F"/>
<rect x="73.0059" y="140.543" width="29.2028" height="29.2028" fill="#FA839F"/>
<rect x="248.223" y="140.543" width="29.2028" height="29.2028" fill="#FA839F"/>
<rect x="277.426" y="140.543" width="29.2028" height="29.2028" fill="#FA839F"/>
<rect x="306.629" y="140.543" width="29.2028" height="29.2028" fill="#FA839F"/>
<rect x="335.832" y="199.268" width="29.2028" height="29.2028" fill="#FA839F"/>
<rect x="335.832" y="169.906" width="29.2028" height="29.2028" fill="#FA839F"/>
<rect x="306.629" y="169.906" width="29.2028" height="29.2028" fill="#FA839F"/>
<rect x="-14.6016" y="169.906" width="29.2028" height="29.2028" fill="#FA839F"/>
<rect x="335.832" y="257.354" width="29.2028" height="29.2028" fill="#FBD8D8"/>
<rect x="306.629" y="228.15" width="29.2028" height="29.2028" fill="#FBD8D8"/>
<rect x="335.832" y="228.15" width="29.2028" height="29.2028" fill="#FBD8D8"/>
<rect x="306.629" y="198.949" width="29.2028" height="29.2028" fill="#FBD8D8"/>
<rect x="277.426" y="169.746" width="29.2028" height="29.2028" fill="#FBD8D8"/>
<rect x="248.223" y="169.746" width="29.2028" height="29.2028" fill="#FBD8D8"/>
<rect x="219.02" y="169.746" width="29.2028" height="29.2028" fill="#FBD8D8"/>
<rect x="219.02" y="140.543" width="29.2028" height="29.2028" fill="#FBD8D8"/>
<rect x="189.818" y="140.543" width="29.2028" height="29.2028" fill="#FBD8D8"/>
<rect x="131.414" y="140.543" width="29.2028" height="29.2028" fill="#FBD8D8"/>
<rect x="102.211" y="169.746" width="29.2028" height="29.2028" fill="#FBD8D8"/>
<rect x="73.0078" y="169.906" width="29.2028" height="29.2028" fill="#FBD8D8"/>
<rect x="43.8047" y="169.906" width="29.2028" height="29.2028" fill="#FBD8D8"/>
<rect x="14.6016" y="198.949" width="29.2028" height="29.2028" fill="#FBD8D8"/>
<rect x="102.211" y="140.543" width="29.2028" height="29.2028" fill="#FBD8D8"/>
<rect x="43.8047" y="257.354" width="29.2028" height="29.2028" fill="#FCC8C8"/>
<rect x="43.8047" y="228.15" width="29.2028" height="29.2028" fill="#FCC8C8"/>
<rect x="73.0059" y="198.949" width="29.2028" height="29.2028" fill="#FCC8C8"/>
<rect x="102.211" y="198.949" width="29.2028" height="29.2028" fill="#FCC8C8"/>
<rect x="131.414" y="169.746" width="29.2028" height="29.2028" fill="#FCC8C8"/>
<rect x="160.615" y="140.543" width="29.2028" height="29.2028" fill="#FCC8C8"/>
<rect x="189.818" y="169.746" width="29.2028" height="29.2028" fill="#FCC8C8"/>
<rect x="219.02" y="198.949" width="29.2028" height="29.2028" fill="#FCC8C8"/>
<rect x="248.223" y="198.949" width="29.2028" height="29.2028" fill="#FCC8C8"/>
<rect x="277.426" y="257.354" width="29.2028" height="29.2028" fill="#FCC8C8"/>
<rect x="306.629" y="257.354" width="29.2028" height="29.2028" fill="#FCC8C8"/>
<rect x="335.832" y="286.557" width="29.2028" height="29.2028" fill="#FCC8C8"/>
<rect x="277.426" y="228.15" width="29.2028" height="29.2028" fill="#FCC8C8"/>
<rect x="277.426" y="198.949" width="29.2028" height="29.2028" fill="#FCC8C8"/>
<rect x="43.8027" y="198.949" width="29.2028" height="29.2028" fill="#FCC8C8"/>
<rect x="-14.6016" y="286.557" width="29.2028" height="29.2028" fill="#FCC8C8"/>
<rect x="14.6016" y="286.557" width="29.2028" height="29.2028" fill="#FAA7A7"/>
<rect x="43.8047" y="286.557" width="29.2028" height="29.2028" fill="#FAA7A7"/>
<rect x="73.0078" y="257.354" width="29.2028" height="29.2028" fill="#FAA7A7"/>
<rect x="73.0078" y="228.15" width="29.2028" height="29.2028" fill="#FAA7A7"/>
<rect x="102.211" y="228.15" width="29.2028" height="29.2028" fill="#FAA7A7"/>
<rect x="131.414" y="198.949" width="29.2028" height="29.2028" fill="#FAA7A7"/>
<rect x="189.818" y="228.15" width="29.2028" height="29.2028" fill="#FD7E82"/>
<rect x="219.02" y="257.354" width="29.2028" height="29.2028" fill="#FD7E82"/>
<rect x="248.223" y="286.557" width="29.2028" height="29.2028" fill="#FD7E82"/>
<rect x="73.0078" y="286.557" width="29.2028" height="29.2028" fill="#FD7E82"/>
<rect x="102.211" y="257.354" width="29.2028" height="29.2028" fill="#FD7E82"/>
<rect x="131.414" y="228.15" width="29.2028" height="29.2028" fill="#FD7E82"/>
<rect x="189.818" y="257.354" width="29.2028" height="29.2028" fill="#FD7E82"/>
<rect x="219.02" y="286.557" width="29.2028" height="29.2028" fill="#FD7E82"/>
<rect x="102.211" y="286.557" width="29.2028" height="29.2028" fill="#FD7E82"/>
<rect x="131.414" y="257.354" width="29.2028" height="29.2028" fill="#FD7E82"/>
<rect x="189.818" y="286.557" width="29.2028" height="29.2028" fill="#FD8D82"/>
<rect x="131.414" y="286.557" width="29.2028" height="29.2028" fill="#FD8D82"/>
</g>
</svg>
