<svg width="352" height="167" viewBox="0 0 352 167" fill="none" xmlns="http://www.w3.org/2000/svg">
<mask id="mask0_7_1244" style="mask-type:alpha" maskUnits="userSpaceOnUse" x="0" y="0" width="352" height="167">
<rect x="0.601562" y="0.542969" width="350.434" height="166.456" fill="#FA839F"/>
</mask>
<g mask="url(#mask0_7_1244)">
<rect x="161.217" y="146.557" width="29.2028" height="29.2028" fill="#FD8D82"/>
<rect x="161.217" y="117.354" width="29.2028" height="29.2028" fill="#FD8D82"/>
<rect x="161.217" y="88.1504" width="29.2028" height="29.2028" fill="#FD7E82"/>
<rect x="161.217" y="58.9492" width="29.2028" height="29.2028" fill="#FD7E82"/>
<rect x="161.217" y="29.7461" width="29.2028" height="29.2028" fill="#FAA7A7"/>
<rect x="190.42" y="58.9492" width="29.2028" height="29.2028" fill="#FAA7A7"/>
<rect x="219.622" y="88.1504" width="29.2028" height="29.2028" fill="#FAA7A7"/>
<rect x="248.825" y="117.354" width="29.2028" height="29.2028" fill="#FAA7A7"/>
<rect x="248.825" y="88.1504" width="29.2028" height="29.2028" fill="#FAA7A7"/>
<rect x="278.027" y="146.557" width="29.2028" height="29.2028" fill="#FAA7A7"/>
<rect x="307.23" y="146.557" width="29.2028" height="29.2028" fill="#FAA7A7"/>
<rect x="15.2031" y="117.354" width="29.2028" height="29.2028" fill="#FCC8C8"/>
<rect x="-14" y="117.354" width="29.2028" height="29.2028" fill="#FBD8D8"/>
<rect x="15.2031" y="88.1504" width="29.2028" height="29.2028" fill="#FBD8D8"/>
<rect x="-14" y="88.1504" width="29.2028" height="29.2028" fill="#FBD8D8"/>
<rect x="-14" y="59.2676" width="29.2028" height="29.2028" fill="#FA839F"/>
<rect x="15.2031" y="29.9062" width="29.2028" height="29.2028" fill="#FA839F"/>
<rect x="44.4053" y="0.542969" width="29.2028" height="29.2028" fill="#FA839F"/>
<rect x="15.2031" y="0.542969" width="29.2028" height="29.2028" fill="#FA839F"/>
<rect x="73.6084" y="0.542969" width="29.2028" height="29.2028" fill="#FA839F"/>
<rect x="248.825" y="0.542969" width="29.2028" height="29.2028" fill="#FA839F"/>
<rect x="278.027" y="0.542969" width="29.2028" height="29.2028" fill="#FA839F"/>
<rect x="307.231" y="0.542969" width="29.2028" height="29.2028" fill="#FA839F"/>
<rect x="336.434" y="59.2676" width="29.2028" height="29.2028" fill="#FA839F"/>
<rect x="336.434" y="29.9062" width="29.2028" height="29.2028" fill="#FA839F"/>
<rect x="307.23" y="29.9062" width="29.2028" height="29.2028" fill="#FA839F"/>
<rect x="-14" y="29.9062" width="29.2028" height="29.2028" fill="#FA839F"/>
<rect x="336.434" y="117.354" width="29.2028" height="29.2028" fill="#FBD8D8"/>
<rect x="307.23" y="88.1504" width="29.2028" height="29.2028" fill="#FBD8D8"/>
<rect x="336.434" y="88.1504" width="29.2028" height="29.2028" fill="#FBD8D8"/>
<rect x="307.231" y="58.949" width="29.2028" height="29.2028" fill="#FBD8D8"/>
<rect x="278.027" y="29.7461" width="29.2028" height="29.2028" fill="#FBD8D8"/>
<rect x="248.825" y="29.7461" width="29.2028" height="29.2028" fill="#FBD8D8"/>
<rect x="219.622" y="29.7461" width="29.2028" height="29.2028" fill="#FBD8D8"/>
<rect x="219.622" y="0.542969" width="29.2028" height="29.2028" fill="#FBD8D8"/>
<rect x="190.42" y="0.542969" width="29.2028" height="29.2028" fill="#FBD8D8"/>
<rect x="132.015" y="0.542969" width="29.2028" height="29.2028" fill="#FBD8D8"/>
<rect x="102.812" y="29.7461" width="29.2028" height="29.2028" fill="#FBD8D8"/>
<rect x="73.6084" y="29.9062" width="29.2028" height="29.2028" fill="#FBD8D8"/>
<rect x="44.4053" y="29.9062" width="29.2028" height="29.2028" fill="#FBD8D8"/>
<rect x="15.2031" y="58.949" width="29.2028" height="29.2028" fill="#FBD8D8"/>
<rect x="102.812" y="0.542969" width="29.2028" height="29.2028" fill="#FBD8D8"/>
<rect x="44.4053" y="117.354" width="29.2028" height="29.2028" fill="#FCC8C8"/>
<rect x="44.4053" y="88.1504" width="29.2028" height="29.2028" fill="#FCC8C8"/>
<rect x="73.6084" y="58.949" width="29.2028" height="29.2028" fill="#FCC8C8"/>
<rect x="102.812" y="58.9492" width="29.2028" height="29.2028" fill="#FCC8C8"/>
<rect x="132.015" y="29.7461" width="29.2028" height="29.2028" fill="#FCC8C8"/>
<rect x="161.217" y="0.542969" width="29.2028" height="29.2028" fill="#FCC8C8"/>
<rect x="190.42" y="29.7461" width="29.2028" height="29.2028" fill="#FCC8C8"/>
<rect x="219.622" y="58.9492" width="29.2028" height="29.2028" fill="#FCC8C8"/>
<rect x="248.825" y="58.9492" width="29.2028" height="29.2028" fill="#FCC8C8"/>
<rect x="278.027" y="117.354" width="29.2028" height="29.2028" fill="#FCC8C8"/>
<rect x="307.23" y="117.354" width="29.2028" height="29.2028" fill="#FCC8C8"/>
<rect x="336.434" y="146.557" width="29.2028" height="29.2028" fill="#FCC8C8"/>
<rect x="278.027" y="88.1504" width="29.2028" height="29.2028" fill="#FCC8C8"/>
<rect x="278.027" y="58.9492" width="29.2028" height="29.2028" fill="#FCC8C8"/>
<rect x="44.4053" y="58.949" width="29.2028" height="29.2028" fill="#FCC8C8"/>
<rect x="-14" y="146.557" width="29.2028" height="29.2028" fill="#FCC8C8"/>
<rect x="15.2031" y="146.557" width="29.2028" height="29.2028" fill="#FAA7A7"/>
<rect x="44.4053" y="146.557" width="29.2028" height="29.2028" fill="#FAA7A7"/>
<rect x="73.6084" y="117.354" width="29.2028" height="29.2028" fill="#FAA7A7"/>
<rect x="73.6084" y="88.1504" width="29.2028" height="29.2028" fill="#FAA7A7"/>
<rect x="102.812" y="88.1504" width="29.2028" height="29.2028" fill="#FAA7A7"/>
<rect x="132.015" y="58.9492" width="29.2028" height="29.2028" fill="#FAA7A7"/>
<rect x="190.42" y="88.1504" width="29.2028" height="29.2028" fill="#FD7E82"/>
<rect x="219.622" y="117.354" width="29.2028" height="29.2028" fill="#FD7E82"/>
<rect x="248.825" y="146.557" width="29.2028" height="29.2028" fill="#FD7E82"/>
<rect x="73.6084" y="146.557" width="29.2028" height="29.2028" fill="#FD7E82"/>
<rect x="102.812" y="117.354" width="29.2028" height="29.2028" fill="#FD7E82"/>
<rect x="132.015" y="88.1504" width="29.2028" height="29.2028" fill="#FD7E82"/>
<rect x="190.42" y="117.354" width="29.2028" height="29.2028" fill="#FD7E82"/>
<rect x="219.622" y="146.557" width="29.2028" height="29.2028" fill="#FD7E82"/>
<rect x="102.812" y="146.557" width="29.2028" height="29.2028" fill="#FD7E82"/>
<rect x="132.015" y="117.354" width="29.2028" height="29.2028" fill="#FD7E82"/>
<rect x="190.42" y="146.557" width="29.2028" height="29.2028" fill="#FD8D82"/>
<rect x="132.015" y="146.557" width="29.2028" height="29.2028" fill="#FD8D82"/>
</g>
</svg>
