<svg width="309" height="36" viewBox="0 0 309 36" fill="none" xmlns="http://www.w3.org/2000/svg">
<rect x="0.5" y="0.5" width="308" height="35" fill="#FD9DAF"/>
<rect x="0.5" y="0.5" width="308" height="35" stroke="#131313"/>
<path d="M9.1 18.96V11H12.1V19.12C12.1 21.34 12.92 22.54 14.84 22.54C16.78 22.54 17.6 21.34 17.6 19.12V11H20.6V18.96C20.6 22.94 18.62 25.12 14.84 25.12C11.08 25.12 9.1 22.94 9.1 18.96ZM23.4114 22.06V17.1H21.7114V14.72H23.4114V11.84H26.2314V14.72H28.5914V17.1H26.2314V21.6C26.2314 22.32 26.5114 22.62 27.2514 22.62H28.6514V25H26.3514C24.3914 25 23.4114 24.02 23.4114 22.06ZM31.3766 13.62C30.4566 13.62 29.7366 12.94 29.7366 12.04C29.7366 11.12 30.4566 10.44 31.3766 10.44C32.2966 10.44 33.0166 11.12 33.0166 12.04C33.0166 12.94 32.2966 13.62 31.3766 13.62ZM29.9566 25V14.72H32.7966V25H29.9566ZM34.7417 25V11H37.5617V25H34.7417ZM40.9469 13.62C40.0269 13.62 39.3069 12.94 39.3069 12.04C39.3069 11.12 40.0269 10.44 40.9469 10.44C41.8669 10.44 42.5869 11.12 42.5869 12.04C42.5869 12.94 41.8669 13.62 40.9469 13.62ZM39.5269 25V14.72H42.3669V25H39.5269ZM45.052 22.06V17.1H43.352V14.72H45.052V11.84H47.872V14.72H50.232V17.1H47.872V21.6C47.872 22.32 48.152 22.62 48.892 22.62H50.292V25H47.992C46.032 25 45.052 24.02 45.052 22.06ZM61.3386 22.62H61.6586V25H60.2186C58.7586 25 58.2986 24.3 58.3186 23.32C57.5986 24.46 56.5586 25.12 54.9586 25.12C52.7386 25.12 51.1386 24.06 51.1386 22.1C51.1386 19.92 52.7786 18.68 55.8586 18.68H57.8986V18.18C57.8986 17.26 57.2386 16.66 56.0586 16.66C54.9586 16.66 54.2186 17.16 54.0986 17.92H51.3786C51.5786 15.92 53.4186 14.6 56.1386 14.6C59.0186 14.6 60.6786 15.88 60.6786 18.34V21.98C60.6786 22.52 60.8986 22.62 61.3386 22.62ZM57.8986 20.76V20.56H55.8386C54.6586 20.56 53.9786 21.04 53.9786 21.9C53.9786 22.62 54.5586 23.08 55.4986 23.08C56.9786 23.08 57.8786 22.16 57.8986 20.76ZM68.5295 14.72H69.0095V17.28H67.8895C66.2095 17.28 65.5695 18.4 65.5695 19.96V25H62.7495V14.72H65.3095L65.5695 16.26C66.1295 15.34 66.9295 14.72 68.5295 14.72ZM71.6891 13.62C70.7691 13.62 70.0491 12.94 70.0491 12.04C70.0491 11.12 70.7691 10.44 71.6891 10.44C72.6091 10.44 73.3291 11.12 73.3291 12.04C73.3291 12.94 72.6091 13.62 71.6891 13.62ZM70.2691 25V14.72H73.1091V25H70.2691ZM84.8542 22.62H85.1742V25H83.7342C82.2742 25 81.8142 24.3 81.8342 23.32C81.1142 24.46 80.0742 25.12 78.4742 25.12C76.2542 25.12 74.6542 24.06 74.6542 22.1C74.6542 19.92 76.2942 18.68 79.3742 18.68H81.4142V18.18C81.4142 17.26 80.7542 16.66 79.5742 16.66C78.4742 16.66 77.7342 17.16 77.6142 17.92H74.8942C75.0942 15.92 76.9342 14.6 79.6542 14.6C82.5342 14.6 84.1942 15.88 84.1942 18.34V21.98C84.1942 22.52 84.4142 22.62 84.8542 22.62ZM81.4142 20.76V20.56H79.3542C78.1742 20.56 77.4942 21.04 77.4942 21.9C77.4942 22.62 78.0742 23.08 79.0142 23.08C80.4942 23.08 81.3942 22.16 81.4142 20.76ZM92.1652 14.6C94.3852 14.6 96.2852 15.78 96.2852 19.3V25H93.4652V19.58C93.4652 17.84 92.8052 16.92 91.3852 16.92C89.9252 16.92 89.0852 17.96 89.0852 19.74V25H86.2652V14.72H88.7252L88.9852 16C89.6452 15.2 90.5852 14.6 92.1652 14.6ZM99.482 13.62C98.562 13.62 97.842 12.94 97.842 12.04C97.842 11.12 98.562 10.44 99.482 10.44C100.402 10.44 101.122 11.12 101.122 12.04C101.122 12.94 100.402 13.62 99.482 13.62ZM98.062 25V14.72H100.902V25H98.062ZM102.367 21.58H105.047C105.147 22.48 105.927 23.1 107.307 23.1C108.487 23.1 109.207 22.72 109.207 22C109.207 21.16 108.507 21.1 106.847 20.88C104.447 20.6 102.587 20.06 102.587 17.94C102.587 15.9 104.367 14.56 107.007 14.58C109.767 14.58 111.667 15.8 111.807 17.9H109.107C109.027 17.08 108.247 16.58 107.107 16.58C106.007 16.58 105.287 16.98 105.287 17.64C105.287 18.42 106.167 18.5 107.647 18.68C110.007 18.92 111.967 19.46 111.967 21.78C111.967 23.82 110.047 25.12 107.287 25.12C104.427 25.12 102.487 23.78 102.367 21.58ZM125.753 14.6C127.873 14.6 129.553 15.8 129.553 19.1V25H126.733V19.26C126.733 17.72 126.173 16.92 124.953 16.92C123.733 16.92 122.913 17.82 122.913 19.38V25H120.093V19.26C120.093 17.72 119.533 16.92 118.293 16.92C117.073 16.92 116.273 17.86 116.273 19.4V25H113.453V14.72H115.913L116.173 16C116.793 15.2 117.693 14.62 119.193 14.6C120.453 14.58 121.633 15.04 122.273 16.34C122.993 15.24 124.193 14.6 125.753 14.6Z" fill="#131313"/>
<path d="M269.033 19.6V23.2H267.215V25H258.233V23.2H256.433V21.4H260.015V23.2H265.433V19.6H260.015V17.8H261.833V16H263.633V14.2H258.233V12.4H269.033V14.2H267.233V16H265.433V17.8H267.233V19.6H269.033ZM283.94 12.4V16H282.122V17.8H280.34V19.6H278.54V25H274.939V19.6H276.74V17.8H278.54V16H280.34V14.2H274.939V16H271.34V12.4H283.94ZM297.946 12.4V14.2H296.146V12.4H297.946ZM296.146 14.2V16H294.346V14.2H296.146ZM294.346 16V17.8H292.546V16H294.346ZM290.746 12.4V16H287.146V12.4H290.746ZM297.946 19.6V23.2H294.346V19.6H297.946ZM292.546 17.8V19.6H290.746V17.8H292.546ZM290.746 19.6V21.4H288.946V19.6H290.746ZM288.946 21.4V23.2H287.146V21.4H288.946Z" fill="#131313"/>
</svg>
