<svg width="221" height="35" viewBox="0 0 221 35" fill="none" xmlns="http://www.w3.org/2000/svg">
<rect x="0.5" y="0.5" width="220" height="34" fill="#DCECA1"/>
<rect x="0.5" y="0.5" width="220" height="34" stroke="#131313"/>
<path d="M12.76 24.5L8 10.5H11.18L14.54 20.86L17.98 10.5H21.08L16.34 24.5H12.76ZM23.4859 13.12C22.5659 13.12 21.8459 12.44 21.8459 11.54C21.8459 10.62 22.5659 9.94 23.4859 9.94C24.4059 9.94 25.1259 10.62 25.1259 11.54C25.1259 12.44 24.4059 13.12 23.4859 13.12ZM22.0659 24.5V14.22H24.9059V24.5H22.0659ZM32.6311 14.22H33.1111V16.78H31.9911C30.3111 16.78 29.6711 17.9 29.6711 19.46V24.5H26.8511V14.22H29.4111L29.6711 15.76C30.2311 14.84 31.0311 14.22 32.6311 14.22ZM35.5598 21.56V16.6H33.8598V14.22H35.5598V11.34H38.3798V14.22H40.7398V16.6H38.3798V21.1C38.3798 21.82 38.6598 22.12 39.3998 22.12H40.7998V24.5H38.4998C36.5398 24.5 35.5598 23.52 35.5598 21.56ZM48.965 19.36V14.22H51.785V24.5H49.285L49.025 23.26C48.365 24.06 47.465 24.62 46.005 24.62C43.885 24.62 41.925 23.56 41.925 19.92V14.22H44.745V19.54C44.745 21.38 45.345 22.28 46.745 22.28C48.145 22.28 48.965 21.26 48.965 19.36ZM58.8256 24.62C55.4056 24.62 53.3456 22.56 53.3456 19.38C53.3456 16.18 55.4456 14.1 58.6256 14.1C61.7056 14.1 63.7856 16.02 63.8256 19.04C63.8256 19.34 63.8056 19.68 63.7456 20H56.2856V20.14C56.3456 21.6 57.2856 22.48 58.7056 22.48C59.8456 22.48 60.6456 21.98 60.8856 21.02H63.6656C63.3456 23.02 61.5656 24.62 58.8256 24.62ZM56.3456 18.16H60.9856C60.7856 16.9 59.9256 16.2 58.6456 16.2C57.4256 16.2 56.5056 16.94 56.3456 18.16Z" fill="#131313"/>
<path d="M181.033 22.7V24.5H168.433V20.9H170.233V19.1H172.033V17.3H175.633V15.5H177.433V13.7H172.033V15.5H168.433V13.7H170.233V11.9H179.233V13.7H181.033V17.3H179.233V19.1H177.433V20.9H173.833V22.7H181.033ZM195.94 19.1V20.9H194.14V24.5H190.54V20.9H183.34V17.3H185.122V15.5H186.939V13.7H188.74V11.9H194.14V19.1H195.94ZM186.939 19.1H190.54V15.5H188.74V17.3H186.939V19.1ZM209.946 11.9V13.7H208.146V11.9H209.946ZM208.146 13.7V15.5H206.346V13.7H208.146ZM206.346 15.5V17.3H204.546V15.5H206.346ZM202.746 11.9V15.5H199.146V11.9H202.746ZM209.946 19.1V22.7H206.346V19.1H209.946ZM204.546 17.3V19.1H202.746V17.3H204.546ZM202.746 19.1V20.9H200.946V19.1H202.746ZM200.946 20.9V22.7H199.146V20.9H200.946Z" fill="#131313"/>
</svg>
