<svg width="350" height="320" viewBox="0 0 350 320" fill="none" xmlns="http://www.w3.org/2000/svg">
<rect width="350" height="320" fill="#131313"/>
<mask id="mask0_160_15086" style="mask-type:alpha" maskUnits="userSpaceOnUse" x="0" y="0" width="350" height="320">
<rect width="350" height="320" fill="#131313"/>
</mask>
<g mask="url(#mask0_160_15086)">
<g opacity="0.39">
<line x1="25.15" y1="-208" x2="25.15" y2="647" stroke="#6CB9F1" stroke-width="0.3"/>
<line x1="55.15" y1="-208" x2="55.15" y2="647" stroke="#6CB9F1" stroke-width="0.3"/>
<line x1="85.15" y1="-208" x2="85.15" y2="647" stroke="#6CB9F1" stroke-width="0.3"/>
<line x1="115.15" y1="-208" x2="115.15" y2="647" stroke="#6CB9F1" stroke-width="0.3"/>
<line x1="145.15" y1="-208" x2="145.15" y2="647" stroke="#6CB9F1" stroke-width="0.3"/>
<line x1="175.15" y1="-208" x2="175.15" y2="647" stroke="#6CB9F1" stroke-width="0.3"/>
<line x1="205.15" y1="-208" x2="205.15" y2="647" stroke="#6CB9F1" stroke-width="0.3"/>
<line x1="235.15" y1="-208" x2="235.15" y2="647" stroke="#6CB9F1" stroke-width="0.3"/>
<line x1="265.15" y1="-208" x2="265.15" y2="647" stroke="#6CB9F1" stroke-width="0.3"/>
<line x1="295.15" y1="-208" x2="295.15" y2="647" stroke="#6CB9F1" stroke-width="0.3"/>
<line x1="325.15" y1="-208" x2="325.15" y2="647" stroke="#6CB9F1" stroke-width="0.3"/>
<line x1="10.15" y1="-208" x2="10.15" y2="647" stroke="#6CB9F1" stroke-width="0.3"/>
<line x1="40.15" y1="-208" x2="40.15" y2="647" stroke="#6CB9F1" stroke-width="0.3"/>
<line x1="70.15" y1="-208" x2="70.15" y2="647" stroke="#6CB9F1" stroke-width="0.3"/>
<line x1="100.15" y1="-208" x2="100.15" y2="647" stroke="#6CB9F1" stroke-width="0.3"/>
<line x1="130.15" y1="-208" x2="130.15" y2="647" stroke="#6CB9F1" stroke-width="0.3"/>
<line x1="160.15" y1="-208" x2="160.15" y2="647" stroke="#6CB9F1" stroke-width="0.3"/>
<line x1="190.15" y1="-208" x2="190.15" y2="647" stroke="#6CB9F1" stroke-width="0.3"/>
<line x1="220.15" y1="-208" x2="220.15" y2="647" stroke="#6CB9F1" stroke-width="0.3"/>
<line x1="250.15" y1="-208" x2="250.15" y2="647" stroke="#6CB9F1" stroke-width="0.3"/>
<line x1="280.15" y1="-208" x2="280.15" y2="647" stroke="#6CB9F1" stroke-width="0.3"/>
<line x1="310.15" y1="-208" x2="310.15" y2="647" stroke="#6CB9F1" stroke-width="0.3"/>
<line x1="340.15" y1="-208" x2="340.15" y2="647" stroke="#6CB9F1" stroke-width="0.3"/>
<line x1="370" y1="212.15" x2="-20" y2="212.15" stroke="#6CB9F1" stroke-width="0.3"/>
<line x1="370" y1="242.15" x2="-20" y2="242.15" stroke="#6CB9F1" stroke-width="0.3"/>
<line x1="370" y1="272.15" x2="-20" y2="272.15" stroke="#6CB9F1" stroke-width="0.3"/>
<line x1="370" y1="302.15" x2="-20" y2="302.15" stroke="#6CB9F1" stroke-width="0.3"/>
<line x1="370" y1="17.1501" x2="-20" y2="17.15" stroke="#6CB9F1" stroke-width="0.3"/>
<line x1="370" y1="47.1501" x2="-20" y2="47.15" stroke="#6CB9F1" stroke-width="0.3"/>
<line x1="370" y1="77.15" x2="-20" y2="77.1499" stroke="#6CB9F1" stroke-width="0.3"/>
<line x1="370" y1="107.15" x2="-20" y2="107.15" stroke="#6CB9F1" stroke-width="0.3"/>
<line x1="370" y1="137.15" x2="-20" y2="137.15" stroke="#6CB9F1" stroke-width="0.3"/>
<line x1="370" y1="167.15" x2="-20" y2="167.15" stroke="#6CB9F1" stroke-width="0.3"/>
<line x1="370" y1="197.15" x2="-20" y2="197.15" stroke="#6CB9F1" stroke-width="0.3"/>
<line x1="370" y1="227.15" x2="-20" y2="227.15" stroke="#6CB9F1" stroke-width="0.3"/>
<line x1="370" y1="257.15" x2="-20" y2="257.15" stroke="#6CB9F1" stroke-width="0.3"/>
<line x1="370" y1="287.15" x2="-20" y2="287.15" stroke="#6CB9F1" stroke-width="0.3"/>
<line x1="370" y1="317.15" x2="-20" y2="317.15" stroke="#6CB9F1" stroke-width="0.3"/>
<line x1="370" y1="2.15012" x2="-20" y2="2.15005" stroke="#6CB9F1" stroke-width="0.3"/>
<line x1="370" y1="32.1501" x2="-20" y2="32.15" stroke="#6CB9F1" stroke-width="0.3"/>
<line x1="370" y1="62.15" x2="-20" y2="62.1499" stroke="#6CB9F1" stroke-width="0.3"/>
<line x1="370" y1="92.15" x2="-20" y2="92.1499" stroke="#6CB9F1" stroke-width="0.3"/>
<line x1="370" y1="122.15" x2="-20" y2="122.15" stroke="#6CB9F1" stroke-width="0.3"/>
<line x1="370" y1="152.15" x2="-20" y2="152.15" stroke="#6CB9F1" stroke-width="0.3"/>
<line x1="370" y1="182.15" x2="-20" y2="182.15" stroke="#6CB9F1" stroke-width="0.3"/>
</g>
</g>
</svg>
