<svg width="349" height="62" viewBox="0 0 349 62" fill="none" xmlns="http://www.w3.org/2000/svg">
<path d="M10.928 13.936H12.032V16H10.88C9.92 16 9.52 15.728 9.136 15.248C8.288 15.792 7.232 16.096 6.064 16.096C2.768 16.096 0.512 13.664 0.512 10.4C0.512 7.136 2.768 4.704 6.064 4.704C9.36 4.704 11.616 7.136 11.616 10.4C11.616 11.728 11.248 12.928 10.576 13.872C10.672 13.904 10.784 13.936 10.928 13.936ZM2.96 10.4C2.96 12.512 4.176 14.064 6.064 14.064C6.72 14.064 7.296 13.872 7.776 13.536L7.616 13.344C7.376 13.024 7.168 12.848 6.816 12.848H5.776V10.816H6.992C7.936 10.816 8.256 11.152 8.64 11.632L8.896 11.952C9.072 11.488 9.152 10.96 9.152 10.4C9.152 8.288 7.936 6.736 6.064 6.736C4.176 6.736 2.96 8.288 2.96 10.4ZM18.4908 11.888V7.776H20.7468V16H18.7468L18.5388 15.008C18.0108 15.648 17.2908 16.096 16.1228 16.096C14.4268 16.096 12.8588 15.248 12.8588 12.336V7.776H15.1148V12.032C15.1148 13.504 15.5948 14.224 16.7148 14.224C17.8348 14.224 18.4908 13.408 18.4908 11.888ZM26.3793 16.096C23.6432 16.096 21.9953 14.448 21.9953 11.904C21.9953 9.344 23.6753 7.68 26.2193 7.68C28.6833 7.68 30.3472 9.216 30.3793 11.632C30.3793 11.872 30.3633 12.144 30.3153 12.4H24.3473V12.512C24.3953 13.68 25.1473 14.384 26.2833 14.384C27.1953 14.384 27.8353 13.984 28.0273 13.216H30.2513C29.9953 14.816 28.5713 16.096 26.3793 16.096ZM24.3953 10.928H28.1073C27.9473 9.92 27.2593 9.36 26.2352 9.36C25.2593 9.36 24.5233 9.952 24.3953 10.928ZM31.1656 13.264H33.3096C33.3896 13.984 34.0136 14.48 35.1176 14.48C36.0616 14.48 36.6376 14.176 36.6376 13.6C36.6376 12.928 36.0776 12.88 34.7496 12.704C32.8296 12.48 31.3416 12.048 31.3416 10.352C31.3416 8.72 32.7656 7.648 34.8776 7.664C37.0856 7.664 38.6056 8.64 38.7176 10.32H36.5576C36.4936 9.664 35.8696 9.264 34.9576 9.264C34.0776 9.264 33.5016 9.584 33.5016 10.112C33.5016 10.736 34.2056 10.8 35.3896 10.944C37.2776 11.136 38.8456 11.568 38.8456 13.424C38.8456 15.056 37.3096 16.096 35.1016 16.096C32.8136 16.096 31.2616 15.024 31.1656 13.264ZM40.626 13.648V9.68H39.266V7.776H40.626V5.472H42.882V7.776H44.77V9.68H42.882V13.28C42.882 13.856 43.106 14.096 43.698 14.096H44.818V16H42.978C41.41 16 40.626 15.216 40.626 13.648ZM46.9981 6.896C46.2621 6.896 45.6861 6.352 45.6861 5.632C45.6861 4.896 46.2621 4.352 46.9981 4.352C47.7341 4.352 48.3101 4.896 48.3101 5.632C48.3101 6.352 47.7341 6.896 46.9981 6.896ZM45.8621 16V7.776H48.1341V16H45.8621ZM53.7063 16.096C51.0823 16.096 49.3703 14.416 49.3703 11.888C49.3703 9.36 51.0823 7.68 53.7063 7.68C56.3303 7.68 58.0423 9.36 58.0423 11.888C58.0423 14.432 56.3303 16.096 53.7063 16.096ZM53.7063 14.256C54.9703 14.256 55.7543 13.28 55.7543 11.888C55.7543 10.496 54.9703 9.52 53.7063 9.52C52.4423 9.52 51.6743 10.496 51.6743 11.888C51.6743 13.28 52.4423 14.256 53.7063 14.256ZM64.004 7.68C65.78 7.68 67.3 8.624 67.3 11.44V16H65.044V11.664C65.044 10.272 64.516 9.536 63.38 9.536C62.212 9.536 61.54 10.368 61.54 11.792V16H59.284V7.776H61.252L61.46 8.8C61.988 8.16 62.74 7.68 64.004 7.68ZM72.1303 13.6V11.696L77.0743 4.8H79.8743V11.68H81.4263V13.6H79.8743V16H77.6183V13.6H72.1303ZM77.6183 7.088L74.3383 11.68H77.6183V7.088ZM91.8338 12.368H86.2338V10.528H91.8338V12.368ZM97.5255 16V4.8H104.661V6.08H98.9175V9.664H103.702V10.944H98.9175V14.72H104.87V16H97.5255ZM106.598 13.872V9.04H105.126V7.84H106.598V5.552H107.91V7.84H110.022V9.04H107.91V13.856C107.91 14.544 108.15 14.8 108.854 14.8H110.15V16H108.726C107.158 16 106.598 15.312 106.598 13.872ZM115.287 7.744C117.111 7.744 118.599 8.752 118.599 11.456V16H117.287V11.536C117.287 9.84 116.471 8.944 115.063 8.944C113.543 8.944 112.599 10.08 112.599 11.92V16H111.287V4.8H112.599V9.184C113.079 8.416 113.911 7.744 115.287 7.744ZM120.943 6.464C120.463 6.464 120.095 6.112 120.095 5.616C120.095 5.12 120.463 4.768 120.943 4.768C121.423 4.768 121.791 5.12 121.791 5.616C121.791 6.112 121.423 6.464 120.943 6.464ZM120.271 16V7.84H121.583V16H120.271ZM127.044 16.096C124.66 16.096 123.092 14.48 123.092 11.936C123.092 9.44 124.708 7.744 127.076 7.744C129.076 7.744 130.34 8.864 130.676 10.656H129.3C129.06 9.568 128.26 8.912 127.06 8.912C125.492 8.912 124.436 10.16 124.436 11.936C124.436 13.712 125.492 14.928 127.06 14.928C128.228 14.928 129.028 14.256 129.284 13.216H130.676C130.356 14.976 129.028 16.096 127.044 16.096ZM139.331 14.8H139.747V16H139.027C137.939 16 137.571 15.536 137.555 14.736C137.043 15.472 136.227 16.096 134.819 16.096C133.027 16.096 131.811 15.2 131.811 13.712C131.811 12.08 132.947 11.168 135.091 11.168H137.491V10.608C137.491 9.552 136.739 8.912 135.459 8.912C134.307 8.912 133.539 9.456 133.379 10.288H132.067C132.259 8.688 133.555 7.744 135.523 7.744C137.603 7.744 138.803 8.784 138.803 10.688V14.256C138.803 14.688 138.963 14.8 139.331 14.8ZM137.491 12.672V12.272H134.963C133.795 12.272 133.139 12.704 133.139 13.632C133.139 14.432 133.827 14.976 134.915 14.976C136.547 14.976 137.491 14.032 137.491 12.672ZM140.755 16V4.8H142.067V16H140.755ZM157.156 7.744C158.852 7.744 160.244 8.72 160.244 11.296V16H158.932V11.376C158.932 9.776 158.228 8.944 156.996 8.944C155.636 8.944 154.804 9.968 154.804 11.632V16H153.492V11.376C153.492 9.776 152.772 8.944 151.524 8.944C150.18 8.944 149.364 10.064 149.364 11.696V16H148.052V7.84H149.188L149.364 8.96C149.796 8.368 150.484 7.744 151.748 7.744C152.884 7.744 153.86 8.256 154.324 9.296C154.82 8.416 155.7 7.744 157.156 7.744ZM169.143 14.8H169.559V16H168.839C167.751 16 167.383 15.536 167.367 14.736C166.855 15.472 166.039 16.096 164.631 16.096C162.839 16.096 161.623 15.2 161.623 13.712C161.623 12.08 162.759 11.168 164.903 11.168H167.303V10.608C167.303 9.552 166.551 8.912 165.271 8.912C164.119 8.912 163.351 9.456 163.191 10.288H161.879C162.071 8.688 163.367 7.744 165.335 7.744C167.415 7.744 168.615 8.784 168.615 10.688V14.256C168.615 14.688 168.775 14.8 169.143 14.8ZM167.303 12.672V12.272H164.775C163.607 12.272 162.951 12.704 162.951 13.632C162.951 14.432 163.639 14.976 164.727 14.976C166.359 14.976 167.303 14.032 167.303 12.672ZM174.138 16.096C171.754 16.096 170.186 14.48 170.186 11.936C170.186 9.44 171.802 7.744 174.17 7.744C176.17 7.744 177.434 8.864 177.77 10.656H176.394C176.154 9.568 175.354 8.912 174.154 8.912C172.586 8.912 171.53 10.16 171.53 11.936C171.53 13.712 172.586 14.928 174.154 14.928C175.322 14.928 176.122 14.256 176.378 13.216H177.77C177.45 14.976 176.122 16.096 174.138 16.096ZM183.209 7.744C185.033 7.744 186.521 8.752 186.521 11.456V16H185.209V11.536C185.209 9.84 184.393 8.944 182.985 8.944C181.465 8.944 180.521 10.08 180.521 11.92V16H179.209V4.8H180.521V9.184C181.001 8.416 181.833 7.744 183.209 7.744ZM188.865 6.464C188.385 6.464 188.017 6.112 188.017 5.616C188.017 5.12 188.385 4.768 188.865 4.768C189.345 4.768 189.713 5.12 189.713 5.616C189.713 6.112 189.345 6.464 188.865 6.464ZM188.193 16V7.84H189.505V16H188.193ZM195.302 7.744C197.142 7.744 198.598 8.752 198.598 11.456V16H197.286V11.536C197.286 9.84 196.502 8.944 195.078 8.944C193.542 8.944 192.614 10.08 192.614 11.92V16H191.302V7.84H192.438L192.614 8.944C193.094 8.32 193.926 7.744 195.302 7.744ZM203.937 16.096C201.489 16.096 199.889 14.416 199.889 11.92C199.889 9.44 201.457 7.744 203.761 7.744C206.065 7.744 207.569 9.2 207.633 11.616C207.633 11.792 207.617 11.984 207.601 12.176H201.265V12.288C201.313 13.84 202.289 14.928 203.841 14.928C204.993 14.928 205.889 14.32 206.161 13.264H207.489C207.169 14.896 205.825 16.096 203.937 16.096ZM201.345 11.088H206.225C206.097 9.68 205.137 8.896 203.777 8.896C202.577 8.896 201.473 9.76 201.345 11.088ZM208.763 13.312H210.107C210.155 14.272 211.003 14.976 212.363 14.976C213.515 14.976 214.331 14.48 214.331 13.728C214.331 12.704 213.435 12.624 212.219 12.48C210.395 12.256 208.939 11.888 208.939 10.192C208.939 8.704 210.299 7.728 212.139 7.744C213.995 7.76 215.339 8.624 215.467 10.32H214.123C214.027 9.488 213.259 8.864 212.139 8.864C211.003 8.864 210.235 9.344 210.235 10.096C210.235 10.992 211.099 11.104 212.283 11.248C214.139 11.472 215.627 11.824 215.627 13.632C215.627 15.152 214.171 16.096 212.363 16.096C210.251 16.096 208.795 15.104 208.763 13.312Z" fill="#131313"/>
<path d="M348.033 5.375L348.033 6.75L346.715 6.75L346.715 5.375L348.033 5.375Z" fill="#131313"/>
<path d="M334.85 5.375L334.85 6.75L333.532 6.75L333.532 5.375L334.85 5.375Z" fill="#131313"/>
<path d="M346.715 4L346.715 5.375L345.397 5.375L345.397 4L346.715 4Z" fill="#131313"/>
<path d="M336.169 4L336.169 5.375L334.85 5.375L334.85 4L336.169 4Z" fill="#131313"/>
<path d="M346.715 5.375L346.715 6.75L345.397 6.75L345.397 5.375L346.715 5.375Z" fill="#131313"/>
<path d="M336.169 5.375L336.169 6.75L334.85 6.75L334.85 5.375L336.169 5.375Z" fill="#131313"/>
<path d="M345.397 5.375L345.397 6.75L344.079 6.75L344.079 5.375L345.397 5.375Z" fill="#131313"/>
<path d="M337.487 5.375L337.487 6.75L336.169 6.75L336.169 5.375L337.487 5.375Z" fill="#131313"/>
<path d="M346.715 6.75L346.715 8.125L345.397 8.125L345.397 6.75L346.715 6.75Z" fill="#131313"/>
<path d="M336.169 6.75L336.169 8.125L334.85 8.125L334.85 6.75L336.169 6.75Z" fill="#131313"/>
<path d="M345.397 6.75L345.397 8.125L344.079 8.125L344.079 6.75L345.397 6.75Z" fill="#131313"/>
<path d="M337.487 6.75L337.487 8.125L336.169 8.125L336.169 6.75L337.487 6.75Z" fill="#131313"/>
<path d="M344.079 6.75L344.079 8.125L342.76 8.125L342.76 6.75L344.079 6.75Z" fill="#131313"/>
<path d="M346.715 8.125L346.715 9.5L345.397 9.5L345.397 8.125L346.715 8.125Z" fill="#131313"/>
<path d="M336.169 8.125L336.169 9.5L334.85 9.5L334.85 8.125L336.169 8.125Z" fill="#131313"/>
<path d="M345.397 8.125L345.397 9.5L344.079 9.5L344.079 8.125L345.397 8.125Z" fill="#131313"/>
<path d="M337.487 8.125L337.487 9.5L336.169 9.5L336.169 8.125L337.487 8.125Z" fill="#131313"/>
<path d="M344.079 8.125L344.079 9.5L342.76 9.5L342.76 8.125L344.079 8.125Z" fill="#131313"/>
<path d="M342.76 8.125L342.76 9.5L341.442 9.5L341.442 8.125L342.76 8.125Z" fill="#131313"/>
<path d="M340.124 8.125L340.124 9.5L338.805 9.5L338.805 8.125L340.124 8.125Z" fill="#131313"/>
<path d="M338.805 8.125L338.805 9.5L337.487 9.5L337.487 8.125L338.805 8.125Z" fill="#131313"/>
<path d="M338.805 6.75L338.805 8.125L337.487 8.125L337.487 6.75L338.805 6.75Z" fill="#131313"/>
<path d="M345.397 9.5L345.397 10.875L344.079 10.875L344.079 9.5L345.397 9.5Z" fill="#131313"/>
<path d="M337.487 9.5L337.487 10.875L336.169 10.875L336.169 9.5L337.487 9.5Z" fill="#131313"/>
<path d="M344.079 9.5L344.079 10.875L342.76 10.875L342.76 9.5L344.079 9.5Z" fill="#131313"/>
<path d="M342.76 9.5L342.76 10.875L341.442 10.875L341.442 9.5L342.76 9.5Z" fill="#131313"/>
<path d="M340.124 9.5L340.124 10.875L338.805 10.875L338.805 9.5L340.124 9.5Z" fill="#131313"/>
<path d="M338.805 9.5L338.805 10.875L337.487 10.875L337.487 9.5L338.805 9.5Z" fill="#131313"/>
<path d="M341.442 9.5L341.442 10.875L340.124 10.875L340.124 9.5L341.442 9.5Z" fill="#131313"/>
<path d="M344.079 10.875L344.079 12.25L342.76 12.25L342.76 10.875L344.079 10.875Z" fill="#131313"/>
<path d="M342.76 10.875L342.76 12.25L341.442 12.25L341.442 10.875L342.76 10.875Z" fill="#131313"/>
<path d="M340.124 10.875L340.124 12.25L338.805 12.25L338.805 10.875L340.124 10.875Z" fill="#131313"/>
<path d="M338.805 10.875L338.805 12.25L337.487 12.25L337.487 10.875L338.805 10.875Z" fill="#131313"/>
<path d="M341.442 10.875L341.442 12.25L340.124 12.25L340.124 10.875L341.442 10.875Z" fill="#131313"/>
<path d="M342.76 12.25L342.76 13.625L341.442 13.625L341.442 12.25L342.76 12.25Z" fill="#131313"/>
<path d="M341.442 13.625L341.442 15L340.124 15L340.124 13.625L341.442 13.625Z" fill="#131313"/>
<path d="M341.442 12.25L341.442 13.625L340.124 13.625L340.124 12.25L341.442 12.25Z" fill="#131313"/>
<path d="M340.124 12.25L340.124 13.625L338.805 13.625L338.805 12.25L340.124 12.25Z" fill="#131313"/>
<path d="M348.033 6.75L348.033 8.125L346.715 8.125L346.715 6.75L348.033 6.75Z" fill="#131313"/>
<path d="M334.85 6.75L334.85 8.125L333.532 8.125L333.532 6.75L334.85 6.75Z" fill="#131313"/>
<rect x="0.5" y="32.5" width="209" height="29" fill="#FD9DAF"/>
<rect x="0.5" y="32.5" width="209" height="29" stroke="#131313"/>
<path d="M11.5059 48.38L8.42188 43.1H10.5219L12.4059 46.544L14.3859 43.1H16.3899L13.3059 48.38V51.5H11.5059V48.38ZM18.9251 51.572C16.8731 51.572 15.6371 50.336 15.6371 48.428C15.6371 46.508 16.8971 45.26 18.8051 45.26C20.6531 45.26 21.9011 46.412 21.9251 48.224C21.9251 48.404 21.9131 48.608 21.8771 48.8H17.4011V48.884C17.4371 49.76 18.0011 50.288 18.8531 50.288C19.5371 50.288 20.0171 49.988 20.1611 49.412H21.8291C21.6371 50.612 20.5691 51.572 18.9251 51.572ZM17.4371 47.696H20.2211C20.1011 46.94 19.5851 46.52 18.8171 46.52C18.0851 46.52 17.5331 46.964 17.4371 47.696ZM22.5148 49.448H24.1228C24.1828 49.988 24.6508 50.36 25.4788 50.36C26.1868 50.36 26.6188 50.132 26.6188 49.7C26.6188 49.196 26.1988 49.16 25.2028 49.028C23.7628 48.86 22.6468 48.536 22.6468 47.264C22.6468 46.04 23.7148 45.236 25.2988 45.248C26.9548 45.248 28.0948 45.98 28.1788 47.24H26.5588C26.5108 46.748 26.0428 46.448 25.3588 46.448C24.6988 46.448 24.2668 46.688 24.2668 47.084C24.2668 47.552 24.7948 47.6 25.6828 47.708C27.0988 47.852 28.2748 48.176 28.2748 49.568C28.2748 50.792 27.1228 51.572 25.4668 51.572C23.7508 51.572 22.5868 50.768 22.5148 49.448Z" fill="#131313"/>
<path d="M38.4455 50.18C38.0255 49.448 37.7855 48.44 37.7855 47.336C37.7855 44.696 38.9735 43.028 40.9775 43.028C42.5015 43.028 43.5455 43.94 43.7495 45.344H42.7415C42.5495 44.492 41.9495 43.916 40.9295 43.916C39.4655 43.916 38.6615 45.248 38.6615 47.144C38.6615 47.264 38.6615 47.348 38.6735 47.552C38.6855 47.504 38.6975 47.432 38.7455 47.324C39.1175 46.496 39.9575 45.944 41.0855 45.944C42.7415 45.944 43.9055 47.036 43.9055 48.752C43.9055 50.372 42.7175 51.572 40.9895 51.572C39.8255 51.572 38.9735 51.044 38.4455 50.18ZM42.8975 48.752C42.8975 47.636 42.1775 46.832 41.0135 46.832C39.8495 46.832 39.0575 47.624 39.0575 48.776C39.0575 49.904 39.8255 50.684 40.9775 50.684C42.1415 50.684 42.8975 49.88 42.8975 48.752ZM44.5271 49.448V48.548L48.8111 43.1H49.9391V48.524H51.2951V49.448H49.9391V51.5H48.9311V49.448H44.5271ZM48.9311 44.336L45.6551 48.524H48.9311V44.336ZM51.7786 50.9C51.7786 50.492 52.0666 50.228 52.4626 50.228C52.8586 50.228 53.1466 50.492 53.1466 50.9C53.1466 51.308 52.8586 51.572 52.4626 51.572C52.0666 51.572 51.7786 51.308 51.7786 50.9ZM53.7012 44.024V43.1H59.6292V43.808L55.5012 51.5H54.4092L58.5252 44.024H53.7012ZM62.0978 42.812C62.6898 42.812 63.1378 43.048 63.4418 43.52C63.7458 43.984 63.8978 44.64 63.8978 45.488C63.8978 46.336 63.7498 47 63.4538 47.48C63.1658 47.952 62.7138 48.188 62.0978 48.188C61.7218 48.188 61.4018 48.08 61.1378 47.864C60.8738 47.648 60.6738 47.34 60.5378 46.94C60.4098 46.532 60.3458 46.048 60.3458 45.488C60.3458 44.64 60.4858 43.984 60.7658 43.52C61.0458 43.048 61.4898 42.812 62.0978 42.812ZM62.0978 43.556C61.7938 43.556 61.5698 43.72 61.4258 44.048C61.2898 44.368 61.2218 44.848 61.2218 45.488C61.2218 46.128 61.2898 46.612 61.4258 46.94C61.5698 47.268 61.7938 47.432 62.0978 47.432C62.4098 47.432 62.6418 47.272 62.7938 46.952C62.9458 46.624 63.0218 46.136 63.0218 45.488C63.0218 44.848 62.9458 44.368 62.7938 44.048C62.6418 43.72 62.4098 43.556 62.0978 43.556ZM67.5818 42.932L62.8298 51.5H61.9058L66.6578 42.932H67.5818ZM67.3418 46.244C67.7338 46.244 68.0618 46.352 68.3258 46.568C68.5898 46.776 68.7898 47.08 68.9258 47.48C69.0698 47.872 69.1418 48.352 69.1418 48.92C69.1418 49.768 68.9938 50.432 68.6978 50.912C68.4098 51.384 67.9578 51.62 67.3418 51.62C66.9658 51.62 66.6458 51.512 66.3818 51.296C66.1178 51.08 65.9178 50.772 65.7818 50.372C65.6538 49.964 65.5898 49.48 65.5898 48.92C65.5898 48.072 65.7298 47.416 66.0098 46.952C66.2898 46.48 66.7338 46.244 67.3418 46.244ZM67.3418 47C67.0378 47 66.8138 47.16 66.6698 47.48C66.5338 47.8 66.4658 48.28 66.4658 48.92C66.4658 49.568 66.5338 50.056 66.6698 50.384C66.8138 50.704 67.0378 50.864 67.3418 50.864C67.6538 50.864 67.8858 50.704 68.0378 50.384C68.1898 50.064 68.2658 49.576 68.2658 48.92C68.2658 48.28 68.1898 47.8 68.0378 47.48C67.8858 47.16 67.6538 47 67.3418 47Z" fill="#131313"/>
<mask id="path-6-inside-1_111_8673" fill="white">
<path d="M210 32H349V62H210V32Z"/>
</mask>
<path d="M210 32H349V62H210V32Z" fill="#89CDFF"/>
<path d="M349 32H350V31H349V32ZM349 62V63H350V62H349ZM210 33H349V31H210V33ZM348 32V62H350V32H348ZM349 61H210V63H349V61Z" fill="#131313" mask="url(#path-6-inside-1_111_8673)"/>
<path d="M220.685 51.5H218.921V43.1H220.553L224.117 48.392V43.1H225.893V51.5H224.249L220.685 46.208V51.5ZM230.204 51.572C228.236 51.572 226.952 50.312 226.952 48.416C226.952 46.52 228.236 45.26 230.204 45.26C232.172 45.26 233.456 46.52 233.456 48.416C233.456 50.324 232.172 51.572 230.204 51.572ZM230.204 50.192C231.152 50.192 231.74 49.46 231.74 48.416C231.74 47.372 231.152 46.64 230.204 46.64C229.256 46.64 228.68 47.372 228.68 48.416C228.68 49.46 229.256 50.192 230.204 50.192Z" fill="#131313"/>
<path d="M247.116 47.132C247.884 47.276 248.688 47.888 248.688 49.172C248.688 50.6 247.488 51.572 245.664 51.572C243.84 51.572 242.664 50.576 242.664 48.908H243.66C243.672 50.012 244.536 50.672 245.724 50.672C246.816 50.672 247.656 50.06 247.656 49.1C247.656 48.224 246.936 47.66 245.628 47.66H244.908V46.784H245.568C246.816 46.784 247.44 46.16 247.44 45.308C247.44 44.456 246.672 43.928 245.664 43.928C244.608 43.928 243.84 44.564 243.828 45.524H242.832C242.844 44.048 243.996 43.028 245.652 43.028C247.38 43.028 248.472 43.928 248.472 45.248C248.472 46.304 247.92 46.916 247.116 47.132ZM252.832 45.872C254.476 45.872 255.616 47.024 255.616 48.692C255.616 50.552 254.248 51.56 252.676 51.56C250.804 51.56 249.724 50.348 249.64 48.884H250.636C250.732 49.856 251.464 50.66 252.676 50.66C253.66 50.66 254.584 50 254.584 48.704C254.584 47.564 253.852 46.76 252.688 46.76C252.172 46.76 251.14 46.904 250.78 47.9L249.808 47.876L250.084 43.1H255.112V44.024H251.008L250.816 46.676C251.332 46.064 252.052 45.872 252.832 45.872ZM256.263 50.9C256.263 50.492 256.551 50.228 256.947 50.228C257.343 50.228 257.631 50.492 257.631 50.9C257.631 51.308 257.343 51.572 256.947 51.572C256.551 51.572 256.263 51.308 256.263 50.9ZM262.643 47.132C263.411 47.276 264.215 47.888 264.215 49.172C264.215 50.6 263.015 51.572 261.191 51.572C259.367 51.572 258.191 50.576 258.191 48.908H259.187C259.199 50.012 260.063 50.672 261.251 50.672C262.343 50.672 263.183 50.06 263.183 49.1C263.183 48.224 262.463 47.66 261.155 47.66H260.435V46.784H261.095C262.343 46.784 262.967 46.16 262.967 45.308C262.967 44.456 262.199 43.928 261.191 43.928C260.135 43.928 259.367 44.564 259.355 45.524H258.359C258.371 44.048 259.523 43.028 261.179 43.028C262.907 43.028 263.999 43.928 263.999 45.248C263.999 46.304 263.447 46.916 262.643 47.132ZM267.039 42.812C267.631 42.812 268.079 43.048 268.383 43.52C268.687 43.984 268.839 44.64 268.839 45.488C268.839 46.336 268.691 47 268.395 47.48C268.107 47.952 267.655 48.188 267.039 48.188C266.663 48.188 266.343 48.08 266.079 47.864C265.815 47.648 265.615 47.34 265.479 46.94C265.351 46.532 265.287 46.048 265.287 45.488C265.287 44.64 265.427 43.984 265.707 43.52C265.987 43.048 266.431 42.812 267.039 42.812ZM267.039 43.556C266.735 43.556 266.511 43.72 266.367 44.048C266.231 44.368 266.163 44.848 266.163 45.488C266.163 46.128 266.231 46.612 266.367 46.94C266.511 47.268 266.735 47.432 267.039 47.432C267.351 47.432 267.583 47.272 267.735 46.952C267.887 46.624 267.963 46.136 267.963 45.488C267.963 44.848 267.887 44.368 267.735 44.048C267.583 43.72 267.351 43.556 267.039 43.556ZM272.523 42.932L267.771 51.5H266.847L271.599 42.932H272.523ZM272.283 46.244C272.675 46.244 273.003 46.352 273.267 46.568C273.531 46.776 273.731 47.08 273.867 47.48C274.011 47.872 274.083 48.352 274.083 48.92C274.083 49.768 273.935 50.432 273.639 50.912C273.351 51.384 272.899 51.62 272.283 51.62C271.907 51.62 271.587 51.512 271.323 51.296C271.059 51.08 270.859 50.772 270.723 50.372C270.595 49.964 270.531 49.48 270.531 48.92C270.531 48.072 270.671 47.416 270.951 46.952C271.231 46.48 271.675 46.244 272.283 46.244ZM272.283 47C271.979 47 271.755 47.16 271.611 47.48C271.475 47.8 271.407 48.28 271.407 48.92C271.407 49.568 271.475 50.056 271.611 50.384C271.755 50.704 271.979 50.864 272.283 50.864C272.595 50.864 272.827 50.704 272.979 50.384C273.131 50.064 273.207 49.576 273.207 48.92C273.207 48.28 273.131 47.8 272.979 47.48C272.827 47.16 272.595 47 272.283 47Z" fill="#131313"/>
</svg>
