<svg width="349" height="62" viewBox="0 0 349 62" fill="none" xmlns="http://www.w3.org/2000/svg">
<path d="M10.928 13.936H12.032V16H10.88C9.92 16 9.52 15.728 9.136 15.248C8.288 15.792 7.232 16.096 6.064 16.096C2.768 16.096 0.512 13.664 0.512 10.4C0.512 7.136 2.768 4.704 6.064 4.704C9.36 4.704 11.616 7.136 11.616 10.4C11.616 11.728 11.248 12.928 10.576 13.872C10.672 13.904 10.784 13.936 10.928 13.936ZM2.96 10.4C2.96 12.512 4.176 14.064 6.064 14.064C6.72 14.064 7.296 13.872 7.776 13.536L7.616 13.344C7.376 13.024 7.168 12.848 6.816 12.848H5.776V10.816H6.992C7.936 10.816 8.256 11.152 8.64 11.632L8.896 11.952C9.072 11.488 9.152 10.96 9.152 10.4C9.152 8.288 7.936 6.736 6.064 6.736C4.176 6.736 2.96 8.288 2.96 10.4ZM18.4908 11.888V7.776H20.7468V16H18.7468L18.5388 15.008C18.0108 15.648 17.2908 16.096 16.1228 16.096C14.4268 16.096 12.8588 15.248 12.8588 12.336V7.776H15.1148V12.032C15.1148 13.504 15.5948 14.224 16.7148 14.224C17.8348 14.224 18.4908 13.408 18.4908 11.888ZM26.3793 16.096C23.6432 16.096 21.9953 14.448 21.9953 11.904C21.9953 9.344 23.6753 7.68 26.2193 7.68C28.6833 7.68 30.3472 9.216 30.3793 11.632C30.3793 11.872 30.3633 12.144 30.3153 12.4H24.3473V12.512C24.3953 13.68 25.1473 14.384 26.2833 14.384C27.1953 14.384 27.8353 13.984 28.0273 13.216H30.2513C29.9953 14.816 28.5713 16.096 26.3793 16.096ZM24.3953 10.928H28.1073C27.9473 9.92 27.2593 9.36 26.2352 9.36C25.2593 9.36 24.5233 9.952 24.3953 10.928ZM31.1656 13.264H33.3096C33.3896 13.984 34.0136 14.48 35.1176 14.48C36.0616 14.48 36.6376 14.176 36.6376 13.6C36.6376 12.928 36.0776 12.88 34.7496 12.704C32.8296 12.48 31.3416 12.048 31.3416 10.352C31.3416 8.72 32.7656 7.648 34.8776 7.664C37.0856 7.664 38.6056 8.64 38.7176 10.32H36.5576C36.4936 9.664 35.8696 9.264 34.9576 9.264C34.0776 9.264 33.5016 9.584 33.5016 10.112C33.5016 10.736 34.2056 10.8 35.3896 10.944C37.2776 11.136 38.8456 11.568 38.8456 13.424C38.8456 15.056 37.3096 16.096 35.1016 16.096C32.8136 16.096 31.2616 15.024 31.1656 13.264ZM40.626 13.648V9.68H39.266V7.776H40.626V5.472H42.882V7.776H44.77V9.68H42.882V13.28C42.882 13.856 43.106 14.096 43.698 14.096H44.818V16H42.978C41.41 16 40.626 15.216 40.626 13.648ZM46.9981 6.896C46.2621 6.896 45.6861 6.352 45.6861 5.632C45.6861 4.896 46.2621 4.352 46.9981 4.352C47.7341 4.352 48.3101 4.896 48.3101 5.632C48.3101 6.352 47.7341 6.896 46.9981 6.896ZM45.8621 16V7.776H48.1341V16H45.8621ZM53.7063 16.096C51.0823 16.096 49.3703 14.416 49.3703 11.888C49.3703 9.36 51.0823 7.68 53.7063 7.68C56.3303 7.68 58.0423 9.36 58.0423 11.888C58.0423 14.432 56.3303 16.096 53.7063 16.096ZM53.7063 14.256C54.9703 14.256 55.7543 13.28 55.7543 11.888C55.7543 10.496 54.9703 9.52 53.7063 9.52C52.4423 9.52 51.6743 10.496 51.6743 11.888C51.6743 13.28 52.4423 14.256 53.7063 14.256ZM64.004 7.68C65.78 7.68 67.3 8.624 67.3 11.44V16H65.044V11.664C65.044 10.272 64.516 9.536 63.38 9.536C62.212 9.536 61.54 10.368 61.54 11.792V16H59.284V7.776H61.252L61.46 8.8C61.988 8.16 62.74 7.68 64.004 7.68ZM74.5623 5.824V4.8H76.8183V16H74.5143V8.752C74.3383 8.8 74.1463 8.816 73.9062 8.816H72.0343V6.912H73.6983C74.3383 6.912 74.5623 6.48 74.5623 5.824ZM78.3413 10.656V10.144C78.3413 6.8 80.2453 4.704 82.9493 4.704C85.6693 4.704 87.5733 6.8 87.5733 10.144V10.656C87.5733 14.064 85.6693 16.096 82.9493 16.096C80.2453 16.096 78.3413 14.064 78.3413 10.656ZM85.2693 10.576V10.224C85.2693 7.92 84.3253 6.656 82.9493 6.656C81.5893 6.656 80.6453 7.92 80.6453 10.224V10.576C80.6453 12.896 81.5893 14.144 82.9493 14.144C84.3253 14.144 85.2693 12.896 85.2693 10.576ZM87.9521 14.768C87.9521 13.984 88.5281 13.424 89.3121 13.424C90.0801 13.424 90.6721 13.984 90.6721 14.768C90.6721 15.536 90.0801 16.096 89.3121 16.096C88.5281 16.096 87.9521 15.536 87.9521 14.768ZM96.0613 8.368C98.3173 8.368 99.8373 9.92 99.8373 12.208C99.8373 14.784 97.9173 16.096 95.5973 16.096C93.0053 16.096 91.4053 14.448 91.3092 12.4H93.5973C93.7093 13.408 94.4133 14.208 95.6133 14.208C96.5893 14.208 97.5173 13.536 97.5173 12.208C97.5173 11.024 96.7653 10.192 95.5973 10.192C94.9733 10.192 94.1093 10.432 93.7093 11.36H91.4853L91.8053 4.8H99.1653V6.736H93.9013L93.7733 9.184C94.3333 8.672 95.0693 8.368 96.0613 8.368ZM105.046 11.616C105.046 10.7413 105.126 9.888 105.286 9.056C105.457 8.224 105.718 7.42933 106.07 6.672C106.422 5.91467 106.865 5.216 107.398 4.576H108.726C108.236 5.23733 107.82 5.952 107.478 6.72C107.148 7.488 106.897 8.28267 106.726 9.104C106.556 9.92533 106.47 10.7573 106.47 11.6C106.47 12.4213 106.556 13.2373 106.726 14.048C106.897 14.8587 107.148 15.6373 107.478 16.384C107.809 17.1413 108.22 17.856 108.71 18.528H107.398C106.865 17.8987 106.422 17.2107 106.07 16.464C105.718 15.728 105.457 14.9493 105.286 14.128C105.126 13.3067 105.046 12.4693 105.046 11.616ZM113.571 11.856L109.347 4.8H110.979L114.275 10.352L117.619 4.8H119.187L114.963 11.856V16H113.571V11.856ZM122.594 16.096C120.146 16.096 118.546 14.416 118.546 11.92C118.546 9.44 120.114 7.744 122.418 7.744C124.722 7.744 126.226 9.2 126.29 11.616C126.29 11.792 126.274 11.984 126.258 12.176H119.922V12.288C119.97 13.84 120.946 14.928 122.498 14.928C123.65 14.928 124.546 14.32 124.818 13.264H126.146C125.826 14.896 124.482 16.096 122.594 16.096ZM120.002 11.088H124.882C124.754 9.68 123.794 8.896 122.434 8.896C121.234 8.896 120.13 9.76 120.002 11.088ZM127.419 13.312H128.763C128.811 14.272 129.659 14.976 131.019 14.976C132.171 14.976 132.987 14.48 132.987 13.728C132.987 12.704 132.091 12.624 130.875 12.48C129.051 12.256 127.595 11.888 127.595 10.192C127.595 8.704 128.955 7.728 130.795 7.744C132.651 7.76 133.995 8.624 134.123 10.32H132.779C132.683 9.488 131.915 8.864 130.795 8.864C129.659 8.864 128.891 9.344 128.891 10.096C128.891 10.992 129.755 11.104 130.939 11.248C132.795 11.472 134.283 11.824 134.283 13.632C134.283 15.152 132.827 16.096 131.019 16.096C128.907 16.096 127.451 15.104 127.419 13.312ZM139.004 11.616C139.004 12.4693 138.918 13.3067 138.748 14.128C138.588 14.9493 138.332 15.728 137.98 16.464C137.638 17.2107 137.196 17.8987 136.652 18.528H135.34C135.83 17.856 136.241 17.1413 136.572 16.384C136.902 15.6373 137.153 14.8587 137.324 14.048C137.494 13.2373 137.58 12.4213 137.58 11.6C137.58 10.7573 137.494 9.92533 137.324 9.104C137.153 8.28267 136.902 7.488 136.572 6.72C136.241 5.952 135.825 5.23733 135.324 4.576H136.652C137.196 5.216 137.638 5.91467 137.98 6.672C138.332 7.42933 138.588 8.224 138.748 9.056C138.918 9.888 139.004 10.7413 139.004 11.616Z" fill="#131313"/>
<path d="M333.531 13.625L333.531 12.25L334.85 12.25L334.85 13.625L333.531 13.625Z" fill="#131313"/>
<path d="M346.714 13.625L346.714 12.25L348.033 12.25L348.033 13.625L346.714 13.625Z" fill="#131313"/>
<path d="M334.85 15L334.85 13.625L336.168 13.625L336.168 15L334.85 15Z" fill="#131313"/>
<path d="M345.396 15L345.396 13.625L346.714 13.625L346.714 15L345.396 15Z" fill="#131313"/>
<path d="M334.85 13.625L334.85 12.25L336.168 12.25L336.168 13.625L334.85 13.625Z" fill="#131313"/>
<path d="M345.396 13.625L345.396 12.25L346.714 12.25L346.714 13.625L345.396 13.625Z" fill="#131313"/>
<path d="M336.168 13.625L336.168 12.25L337.486 12.25L337.486 13.625L336.168 13.625Z" fill="#131313"/>
<path d="M344.078 13.625L344.078 12.25L345.396 12.25L345.396 13.625L344.078 13.625Z" fill="#131313"/>
<path d="M334.85 12.25L334.85 10.875L336.168 10.875L336.168 12.25L334.85 12.25Z" fill="#131313"/>
<path d="M345.396 12.25L345.396 10.875L346.714 10.875L346.714 12.25L345.396 12.25Z" fill="#131313"/>
<path d="M336.168 12.25L336.168 10.875L337.486 10.875L337.486 12.25L336.168 12.25Z" fill="#131313"/>
<path d="M344.078 12.25L344.078 10.875L345.396 10.875L345.396 12.25L344.078 12.25Z" fill="#131313"/>
<path d="M337.486 12.25L337.486 10.875L338.804 10.875L338.804 12.25L337.486 12.25Z" fill="#131313"/>
<path d="M334.85 10.875L334.85 9.5L336.168 9.5L336.168 10.875L334.85 10.875Z" fill="#131313"/>
<path d="M345.396 10.875L345.396 9.5L346.714 9.5L346.714 10.875L345.396 10.875Z" fill="#131313"/>
<path d="M336.168 10.875L336.168 9.5L337.486 9.5L337.486 10.875L336.168 10.875Z" fill="#131313"/>
<path d="M344.078 10.875L344.078 9.5L345.396 9.5L345.396 10.875L344.078 10.875Z" fill="#131313"/>
<path d="M337.486 10.875L337.486 9.5L338.804 9.5L338.804 10.875L337.486 10.875Z" fill="#131313"/>
<path d="M338.804 10.875L338.804 9.5L340.123 9.5L340.123 10.875L338.804 10.875Z" fill="#131313"/>
<path d="M341.441 10.875L341.441 9.5L342.759 9.5L342.759 10.875L341.441 10.875Z" fill="#131313"/>
<path d="M342.759 10.875L342.759 9.5L344.078 9.5L344.078 10.875L342.759 10.875Z" fill="#131313"/>
<path d="M342.759 12.25L342.759 10.875L344.078 10.875L344.078 12.25L342.759 12.25Z" fill="#131313"/>
<path d="M336.168 9.5L336.168 8.125L337.486 8.125L337.486 9.5L336.168 9.5Z" fill="#131313"/>
<path d="M344.078 9.5L344.078 8.125L345.396 8.125L345.396 9.5L344.078 9.5Z" fill="#131313"/>
<path d="M337.486 9.5L337.486 8.125L338.804 8.125L338.804 9.5L337.486 9.5Z" fill="#131313"/>
<path d="M338.804 9.5L338.804 8.125L340.123 8.125L340.123 9.5L338.804 9.5Z" fill="#131313"/>
<path d="M341.441 9.5L341.441 8.125L342.759 8.125L342.759 9.5L341.441 9.5Z" fill="#131313"/>
<path d="M342.759 9.5L342.759 8.125L344.078 8.125L344.078 9.5L342.759 9.5Z" fill="#131313"/>
<path d="M340.123 9.5L340.123 8.125L341.441 8.125L341.441 9.5L340.123 9.5Z" fill="#131313"/>
<path d="M337.486 8.125L337.486 6.75L338.804 6.75L338.804 8.125L337.486 8.125Z" fill="#131313"/>
<path d="M338.804 8.125L338.804 6.75L340.123 6.75L340.123 8.125L338.804 8.125Z" fill="#131313"/>
<path d="M341.441 8.125L341.441 6.75L342.759 6.75L342.759 8.125L341.441 8.125Z" fill="#131313"/>
<path d="M342.759 8.125L342.759 6.75L344.078 6.75L344.078 8.125L342.759 8.125Z" fill="#131313"/>
<path d="M340.123 8.125L340.123 6.75L341.441 6.75L341.441 8.125L340.123 8.125Z" fill="#131313"/>
<path d="M338.804 6.75L338.804 5.375L340.123 5.375L340.123 6.75L338.804 6.75Z" fill="#131313"/>
<path d="M340.123 5.375L340.123 4L341.441 4L341.441 5.375L340.123 5.375Z" fill="#131313"/>
<path d="M340.123 6.75L340.123 5.375L341.441 5.375L341.441 6.75L340.123 6.75Z" fill="#131313"/>
<path d="M341.441 6.75L341.441 5.375L342.759 5.375L342.759 6.75L341.441 6.75Z" fill="#131313"/>
<path d="M333.531 12.25L333.531 10.875L334.85 10.875L334.85 12.25L333.531 12.25Z" fill="#131313"/>
<path d="M346.714 12.25L346.714 10.875L348.033 10.875L348.033 12.25L346.714 12.25Z" fill="#131313"/>
<rect x="0.5" y="32.5" width="243" height="29" fill="#DCECA1"/>
<rect x="0.5" y="32.5" width="243" height="29" stroke="#131313"/>
<path d="M11.5059 48.38L8.42188 43.1H10.5219L12.4059 46.544L14.3859 43.1H16.3899L13.3059 48.38V51.5H11.5059V48.38ZM18.9251 51.572C16.8731 51.572 15.6371 50.336 15.6371 48.428C15.6371 46.508 16.8971 45.26 18.8051 45.26C20.6531 45.26 21.9011 46.412 21.9251 48.224C21.9251 48.404 21.9131 48.608 21.8771 48.8H17.4011V48.884C17.4371 49.76 18.0011 50.288 18.8531 50.288C19.5371 50.288 20.0171 49.988 20.1611 49.412H21.8291C21.6371 50.612 20.5691 51.572 18.9251 51.572ZM17.4371 47.696H20.2211C20.1011 46.94 19.5851 46.52 18.8171 46.52C18.0851 46.52 17.5331 46.964 17.4371 47.696ZM22.5148 49.448H24.1228C24.1828 49.988 24.6508 50.36 25.4788 50.36C26.1868 50.36 26.6188 50.132 26.6188 49.7C26.6188 49.196 26.1988 49.16 25.2028 49.028C23.7628 48.86 22.6468 48.536 22.6468 47.264C22.6468 46.04 23.7148 45.236 25.2988 45.248C26.9548 45.248 28.0948 45.98 28.1788 47.24H26.5588C26.5108 46.748 26.0428 46.448 25.3588 46.448C24.6988 46.448 24.2668 46.688 24.2668 47.084C24.2668 47.552 24.7948 47.6 25.6828 47.708C27.0988 47.852 28.2748 48.176 28.2748 49.568C28.2748 50.792 27.1228 51.572 25.4668 51.572C23.7508 51.572 22.5868 50.768 22.5148 49.448Z" fill="#131313"/>
<path d="M37.3047 44.024V43.1H43.2327V43.808L39.1047 51.5H38.0127L42.1287 44.024H37.3047ZM44.2678 50.18C43.8478 49.448 43.6078 48.44 43.6078 47.336C43.6078 44.696 44.7958 43.028 46.7998 43.028C48.3238 43.028 49.3678 43.94 49.5718 45.344H48.5638C48.3718 44.492 47.7718 43.916 46.7518 43.916C45.2878 43.916 44.4838 45.248 44.4838 47.144C44.4838 47.264 44.4838 47.348 44.4958 47.552C44.5078 47.504 44.5198 47.432 44.5678 47.324C44.9398 46.496 45.7798 45.944 46.9078 45.944C48.5638 45.944 49.7278 47.036 49.7278 48.752C49.7278 50.372 48.5398 51.572 46.8118 51.572C45.6478 51.572 44.7958 51.044 44.2678 50.18ZM48.7198 48.752C48.7198 47.636 47.9998 46.832 46.8358 46.832C45.6718 46.832 44.8798 47.624 44.8798 48.776C44.8798 49.904 45.6478 50.684 46.7998 50.684C47.9638 50.684 48.7198 49.88 48.7198 48.752ZM50.3704 50.9C50.3704 50.492 50.6584 50.228 51.0544 50.228C51.4504 50.228 51.7384 50.492 51.7384 50.9C51.7384 51.308 51.4504 51.572 51.0544 51.572C50.6584 51.572 50.3704 51.308 50.3704 50.9ZM56.7509 47.132C57.5189 47.276 58.3229 47.888 58.3229 49.172C58.3229 50.6 57.1229 51.572 55.2989 51.572C53.4749 51.572 52.2989 50.576 52.2989 48.908H53.2949C53.3069 50.012 54.1709 50.672 55.3589 50.672C56.4509 50.672 57.2909 50.06 57.2909 49.1C57.2909 48.224 56.5709 47.66 55.2629 47.66H54.5429V46.784H55.2029C56.4509 46.784 57.0749 46.16 57.0749 45.308C57.0749 44.456 56.3069 43.928 55.2989 43.928C54.2429 43.928 53.4749 44.564 53.4629 45.524H52.4669C52.4789 44.048 53.6309 43.028 55.2869 43.028C57.0149 43.028 58.1069 43.928 58.1069 45.248C58.1069 46.304 57.5549 46.916 56.7509 47.132ZM61.1466 42.812C61.7386 42.812 62.1866 43.048 62.4906 43.52C62.7946 43.984 62.9466 44.64 62.9466 45.488C62.9466 46.336 62.7986 47 62.5026 47.48C62.2146 47.952 61.7626 48.188 61.1466 48.188C60.7706 48.188 60.4506 48.08 60.1866 47.864C59.9226 47.648 59.7226 47.34 59.5866 46.94C59.4586 46.532 59.3946 46.048 59.3946 45.488C59.3946 44.64 59.5346 43.984 59.8146 43.52C60.0946 43.048 60.5386 42.812 61.1466 42.812ZM61.1466 43.556C60.8426 43.556 60.6186 43.72 60.4746 44.048C60.3386 44.368 60.2706 44.848 60.2706 45.488C60.2706 46.128 60.3386 46.612 60.4746 46.94C60.6186 47.268 60.8426 47.432 61.1466 47.432C61.4586 47.432 61.6906 47.272 61.8426 46.952C61.9946 46.624 62.0706 46.136 62.0706 45.488C62.0706 44.848 61.9946 44.368 61.8426 44.048C61.6906 43.72 61.4586 43.556 61.1466 43.556ZM66.6306 42.932L61.8786 51.5H60.9546L65.7066 42.932H66.6306ZM66.3906 46.244C66.7826 46.244 67.1106 46.352 67.3746 46.568C67.6386 46.776 67.8386 47.08 67.9746 47.48C68.1186 47.872 68.1906 48.352 68.1906 48.92C68.1906 49.768 68.0426 50.432 67.7466 50.912C67.4586 51.384 67.0066 51.62 66.3906 51.62C66.0146 51.62 65.6946 51.512 65.4306 51.296C65.1666 51.08 64.9666 50.772 64.8306 50.372C64.7026 49.964 64.6386 49.48 64.6386 48.92C64.6386 48.072 64.7786 47.416 65.0586 46.952C65.3386 46.48 65.7826 46.244 66.3906 46.244ZM66.3906 47C66.0866 47 65.8626 47.16 65.7186 47.48C65.5826 47.8 65.5146 48.28 65.5146 48.92C65.5146 49.568 65.5826 50.056 65.7186 50.384C65.8626 50.704 66.0866 50.864 66.3906 50.864C66.7026 50.864 66.9346 50.704 67.0866 50.384C67.2386 50.064 67.3146 49.576 67.3146 48.92C67.3146 48.28 67.2386 47.8 67.0866 47.48C66.9346 47.16 66.7026 47 66.3906 47Z" fill="#131313"/>
<mask id="path-6-inside-1_538_2882" fill="white">
<path d="M244 32H349V62H244V32Z"/>
</mask>
<path d="M244 32H349V62H244V32Z" fill="#89CDFF"/>
<path d="M349 32H350V31H349V32ZM349 62V63H350V62H349ZM244 33H349V31H244V33ZM348 32V62H350V32H348ZM349 61H244V63H349V61Z" fill="#131313" mask="url(#path-6-inside-1_538_2882)"/>
<path d="M254.685 51.5H252.921V43.1H254.553L258.117 48.392V43.1H259.893V51.5H258.249L254.685 46.208V51.5ZM264.204 51.572C262.236 51.572 260.952 50.312 260.952 48.416C260.952 46.52 262.236 45.26 264.204 45.26C266.172 45.26 267.456 46.52 267.456 48.416C267.456 50.324 266.172 51.572 264.204 51.572ZM264.204 50.192C265.152 50.192 265.74 49.46 265.74 48.416C265.74 47.372 265.152 46.64 264.204 46.64C263.256 46.64 262.68 47.372 262.68 48.416C262.68 49.46 263.256 50.192 264.204 50.192Z" fill="#131313"/>
<path d="M276.52 51.5V50.648L279.784 47.816C280.564 47.144 281.212 46.496 281.212 45.584C281.212 44.528 280.492 43.928 279.376 43.928C278.296 43.928 277.576 44.648 277.576 45.8V45.956H276.568V45.74C276.568 44.156 277.684 43.028 279.376 43.028C281.188 43.028 282.244 44.024 282.244 45.536C282.244 46.796 281.428 47.588 280.432 48.44L277.912 50.576H282.304V51.5H276.52ZM287.466 47.132C288.234 47.276 289.038 47.888 289.038 49.172C289.038 50.6 287.838 51.572 286.014 51.572C284.19 51.572 283.014 50.576 283.014 48.908H284.01C284.022 50.012 284.886 50.672 286.074 50.672C287.166 50.672 288.006 50.06 288.006 49.1C288.006 48.224 287.286 47.66 285.978 47.66H285.258V46.784H285.918C287.166 46.784 287.79 46.16 287.79 45.308C287.79 44.456 287.022 43.928 286.014 43.928C284.958 43.928 284.19 44.564 284.178 45.524H283.182C283.194 44.048 284.346 43.028 286.002 43.028C287.73 43.028 288.822 43.928 288.822 45.248C288.822 46.304 288.27 46.916 287.466 47.132ZM289.792 50.9C289.792 50.492 290.08 50.228 290.476 50.228C290.872 50.228 291.16 50.492 291.16 50.9C291.16 51.308 290.872 51.572 290.476 51.572C290.08 51.572 289.792 51.308 289.792 50.9ZM291.715 44.024V43.1H297.643V43.808L293.515 51.5H292.423L296.539 44.024H291.715ZM300.111 42.812C300.703 42.812 301.151 43.048 301.455 43.52C301.759 43.984 301.911 44.64 301.911 45.488C301.911 46.336 301.763 47 301.467 47.48C301.179 47.952 300.727 48.188 300.111 48.188C299.735 48.188 299.415 48.08 299.151 47.864C298.887 47.648 298.687 47.34 298.551 46.94C298.423 46.532 298.359 46.048 298.359 45.488C298.359 44.64 298.499 43.984 298.779 43.52C299.059 43.048 299.503 42.812 300.111 42.812ZM300.111 43.556C299.807 43.556 299.583 43.72 299.439 44.048C299.303 44.368 299.235 44.848 299.235 45.488C299.235 46.128 299.303 46.612 299.439 46.94C299.583 47.268 299.807 47.432 300.111 47.432C300.423 47.432 300.655 47.272 300.807 46.952C300.959 46.624 301.035 46.136 301.035 45.488C301.035 44.848 300.959 44.368 300.807 44.048C300.655 43.72 300.423 43.556 300.111 43.556ZM305.595 42.932L300.843 51.5H299.919L304.671 42.932H305.595ZM305.355 46.244C305.747 46.244 306.075 46.352 306.339 46.568C306.603 46.776 306.803 47.08 306.939 47.48C307.083 47.872 307.155 48.352 307.155 48.92C307.155 49.768 307.007 50.432 306.711 50.912C306.423 51.384 305.971 51.62 305.355 51.62C304.979 51.62 304.659 51.512 304.395 51.296C304.131 51.08 303.931 50.772 303.795 50.372C303.667 49.964 303.603 49.48 303.603 48.92C303.603 48.072 303.743 47.416 304.023 46.952C304.303 46.48 304.747 46.244 305.355 46.244ZM305.355 47C305.051 47 304.827 47.16 304.683 47.48C304.547 47.8 304.479 48.28 304.479 48.92C304.479 49.568 304.547 50.056 304.683 50.384C304.827 50.704 305.051 50.864 305.355 50.864C305.667 50.864 305.899 50.704 306.051 50.384C306.203 50.064 306.279 49.576 306.279 48.92C306.279 48.28 306.203 47.8 306.051 47.48C305.899 47.16 305.667 47 305.355 47Z" fill="#131313"/>
</svg>
