<svg width="349" height="62" viewBox="0 0 349 62" fill="none" xmlns="http://www.w3.org/2000/svg">
<path d="M10.928 13.936H12.032V16H10.88C9.92 16 9.52 15.728 9.136 15.248C8.288 15.792 7.232 16.096 6.064 16.096C2.768 16.096 0.512 13.664 0.512 10.4C0.512 7.136 2.768 4.704 6.064 4.704C9.36 4.704 11.616 7.136 11.616 10.4C11.616 11.728 11.248 12.928 10.576 13.872C10.672 13.904 10.784 13.936 10.928 13.936ZM2.96 10.4C2.96 12.512 4.176 14.064 6.064 14.064C6.72 14.064 7.296 13.872 7.776 13.536L7.616 13.344C7.376 13.024 7.168 12.848 6.816 12.848H5.776V10.816H6.992C7.936 10.816 8.256 11.152 8.64 11.632L8.896 11.952C9.072 11.488 9.152 10.96 9.152 10.4C9.152 8.288 7.936 6.736 6.064 6.736C4.176 6.736 2.96 8.288 2.96 10.4ZM18.4908 11.888V7.776H20.7468V16H18.7468L18.5388 15.008C18.0108 15.648 17.2908 16.096 16.1228 16.096C14.4268 16.096 12.8588 15.248 12.8588 12.336V7.776H15.1148V12.032C15.1148 13.504 15.5948 14.224 16.7148 14.224C17.8348 14.224 18.4908 13.408 18.4908 11.888ZM26.3793 16.096C23.6432 16.096 21.9953 14.448 21.9953 11.904C21.9953 9.344 23.6753 7.68 26.2193 7.68C28.6833 7.68 30.3472 9.216 30.3793 11.632C30.3793 11.872 30.3633 12.144 30.3153 12.4H24.3473V12.512C24.3953 13.68 25.1473 14.384 26.2833 14.384C27.1953 14.384 27.8353 13.984 28.0273 13.216H30.2513C29.9953 14.816 28.5713 16.096 26.3793 16.096ZM24.3953 10.928H28.1073C27.9473 9.92 27.2593 9.36 26.2352 9.36C25.2593 9.36 24.5233 9.952 24.3953 10.928ZM31.1656 13.264H33.3096C33.3896 13.984 34.0136 14.48 35.1176 14.48C36.0616 14.48 36.6376 14.176 36.6376 13.6C36.6376 12.928 36.0776 12.88 34.7496 12.704C32.8296 12.48 31.3416 12.048 31.3416 10.352C31.3416 8.72 32.7656 7.648 34.8776 7.664C37.0856 7.664 38.6056 8.64 38.7176 10.32H36.5576C36.4936 9.664 35.8696 9.264 34.9576 9.264C34.0776 9.264 33.5016 9.584 33.5016 10.112C33.5016 10.736 34.2056 10.8 35.3896 10.944C37.2776 11.136 38.8456 11.568 38.8456 13.424C38.8456 15.056 37.3096 16.096 35.1016 16.096C32.8136 16.096 31.2616 15.024 31.1656 13.264ZM40.626 13.648V9.68H39.266V7.776H40.626V5.472H42.882V7.776H44.77V9.68H42.882V13.28C42.882 13.856 43.106 14.096 43.698 14.096H44.818V16H42.978C41.41 16 40.626 15.216 40.626 13.648ZM46.9981 6.896C46.2621 6.896 45.6861 6.352 45.6861 5.632C45.6861 4.896 46.2621 4.352 46.9981 4.352C47.7341 4.352 48.3101 4.896 48.3101 5.632C48.3101 6.352 47.7341 6.896 46.9981 6.896ZM45.8621 16V7.776H48.1341V16H45.8621ZM53.7063 16.096C51.0823 16.096 49.3703 14.416 49.3703 11.888C49.3703 9.36 51.0823 7.68 53.7063 7.68C56.3303 7.68 58.0423 9.36 58.0423 11.888C58.0423 14.432 56.3303 16.096 53.7063 16.096ZM53.7063 14.256C54.9703 14.256 55.7543 13.28 55.7543 11.888C55.7543 10.496 54.9703 9.52 53.7063 9.52C52.4423 9.52 51.6743 10.496 51.6743 11.888C51.6743 13.28 52.4423 14.256 53.7063 14.256ZM64.004 7.68C65.78 7.68 67.3 8.624 67.3 11.44V16H65.044V11.664C65.044 10.272 64.516 9.536 63.38 9.536C62.212 9.536 61.54 10.368 61.54 11.792V16H59.284V7.776H61.252L61.46 8.8C61.988 8.16 62.74 7.68 64.004 7.68ZM74.5623 5.824V4.8H76.8183V16H74.5143V8.752C74.3383 8.8 74.1463 8.816 73.9062 8.816H72.0343V6.912H73.6983C74.3383 6.912 74.5623 6.48 74.5623 5.824ZM78.0053 13.6V11.696L82.9493 4.8H85.7493V11.68H87.3013V13.6H85.7493V16H83.4933V13.6H78.0053ZM83.4933 7.088L80.2133 11.68H83.4933V7.088ZM97.7088 12.368H92.1088V10.528H97.7088V12.368ZM103.401 16V4.8H110.536V6.08H104.793V9.664H109.577V10.944H104.793V14.72H110.745V16H103.401ZM118.172 9.248L118.348 7.84H119.484V15.6C119.484 17.952 118.236 19.296 115.436 19.296C113.356 19.296 111.9 18.32 111.692 16.528H113.036C113.26 17.552 114.172 18.128 115.532 18.128C117.244 18.128 118.172 17.328 118.172 15.552V14.592C117.628 15.52 116.748 16.096 115.372 16.096C113.116 16.096 111.452 14.576 111.452 11.92C111.452 9.424 113.116 7.744 115.372 7.744C116.748 7.744 117.66 8.336 118.172 9.248ZM115.5 14.928C117.1 14.928 118.188 13.696 118.188 11.952C118.188 10.16 117.1 8.912 115.5 8.912C113.884 8.912 112.796 10.144 112.796 11.92C112.796 13.696 113.884 14.928 115.5 14.928ZM125.031 16.096C122.647 16.096 120.983 14.4 120.983 11.92C120.983 9.44 122.647 7.744 125.031 7.744C127.415 7.744 129.079 9.44 129.079 11.92C129.079 14.4 127.415 16.096 125.031 16.096ZM125.031 14.928C126.647 14.928 127.735 13.664 127.735 11.92C127.735 10.176 126.647 8.912 125.031 8.912C123.415 8.912 122.327 10.176 122.327 11.92C122.327 13.664 123.415 14.928 125.031 14.928ZM131.256 6.464C130.776 6.464 130.408 6.112 130.408 5.616C130.408 5.12 130.776 4.768 131.256 4.768C131.736 4.768 132.104 5.12 132.104 5.616C132.104 6.112 131.736 6.464 131.256 6.464ZM130.584 16V7.84H131.896V16H130.584ZM133.357 13.312H134.701C134.749 14.272 135.597 14.976 136.957 14.976C138.109 14.976 138.925 14.48 138.925 13.728C138.925 12.704 138.029 12.624 136.813 12.48C134.989 12.256 133.533 11.888 133.533 10.192C133.533 8.704 134.893 7.728 136.733 7.744C138.589 7.76 139.933 8.624 140.061 10.32H138.717C138.621 9.488 137.853 8.864 136.733 8.864C135.597 8.864 134.829 9.344 134.829 10.096C134.829 10.992 135.693 11.104 136.877 11.248C138.733 11.472 140.221 11.824 140.221 13.632C140.221 15.152 138.765 16.096 136.957 16.096C134.845 16.096 133.389 15.104 133.357 13.312ZM150.781 7.744C152.477 7.744 153.869 8.72 153.869 11.296V16H152.557V11.376C152.557 9.776 151.853 8.944 150.621 8.944C149.261 8.944 148.429 9.968 148.429 11.632V16H147.117V11.376C147.117 9.776 146.397 8.944 145.149 8.944C143.805 8.944 142.989 10.064 142.989 11.696V16H141.677V7.84H142.813L142.989 8.96C143.421 8.368 144.109 7.744 145.373 7.744C146.509 7.744 147.485 8.256 147.949 9.296C148.445 8.416 149.325 7.744 150.781 7.744Z" fill="#131313"/>
<path d="M348.033 5.375L348.033 6.75L346.715 6.75L346.715 5.375L348.033 5.375Z" fill="#131313"/>
<path d="M334.85 5.375L334.85 6.75L333.532 6.75L333.532 5.375L334.85 5.375Z" fill="#131313"/>
<path d="M346.715 4L346.715 5.375L345.397 5.375L345.397 4L346.715 4Z" fill="#131313"/>
<path d="M336.169 4L336.169 5.375L334.85 5.375L334.85 4L336.169 4Z" fill="#131313"/>
<path d="M346.715 5.375L346.715 6.75L345.397 6.75L345.397 5.375L346.715 5.375Z" fill="#131313"/>
<path d="M336.169 5.375L336.169 6.75L334.85 6.75L334.85 5.375L336.169 5.375Z" fill="#131313"/>
<path d="M345.397 5.375L345.397 6.75L344.079 6.75L344.079 5.375L345.397 5.375Z" fill="#131313"/>
<path d="M337.487 5.375L337.487 6.75L336.169 6.75L336.169 5.375L337.487 5.375Z" fill="#131313"/>
<path d="M346.715 6.75L346.715 8.125L345.397 8.125L345.397 6.75L346.715 6.75Z" fill="#131313"/>
<path d="M336.169 6.75L336.169 8.125L334.85 8.125L334.85 6.75L336.169 6.75Z" fill="#131313"/>
<path d="M345.397 6.75L345.397 8.125L344.079 8.125L344.079 6.75L345.397 6.75Z" fill="#131313"/>
<path d="M337.487 6.75L337.487 8.125L336.169 8.125L336.169 6.75L337.487 6.75Z" fill="#131313"/>
<path d="M344.079 6.75L344.079 8.125L342.76 8.125L342.76 6.75L344.079 6.75Z" fill="#131313"/>
<path d="M346.715 8.125L346.715 9.5L345.397 9.5L345.397 8.125L346.715 8.125Z" fill="#131313"/>
<path d="M336.169 8.125L336.169 9.5L334.85 9.5L334.85 8.125L336.169 8.125Z" fill="#131313"/>
<path d="M345.397 8.125L345.397 9.5L344.079 9.5L344.079 8.125L345.397 8.125Z" fill="#131313"/>
<path d="M337.487 8.125L337.487 9.5L336.169 9.5L336.169 8.125L337.487 8.125Z" fill="#131313"/>
<path d="M344.079 8.125L344.079 9.5L342.76 9.5L342.76 8.125L344.079 8.125Z" fill="#131313"/>
<path d="M342.76 8.125L342.76 9.5L341.442 9.5L341.442 8.125L342.76 8.125Z" fill="#131313"/>
<path d="M340.124 8.125L340.124 9.5L338.805 9.5L338.805 8.125L340.124 8.125Z" fill="#131313"/>
<path d="M338.805 8.125L338.805 9.5L337.487 9.5L337.487 8.125L338.805 8.125Z" fill="#131313"/>
<path d="M338.805 6.75L338.805 8.125L337.487 8.125L337.487 6.75L338.805 6.75Z" fill="#131313"/>
<path d="M345.397 9.5L345.397 10.875L344.079 10.875L344.079 9.5L345.397 9.5Z" fill="#131313"/>
<path d="M337.487 9.5L337.487 10.875L336.169 10.875L336.169 9.5L337.487 9.5Z" fill="#131313"/>
<path d="M344.079 9.5L344.079 10.875L342.76 10.875L342.76 9.5L344.079 9.5Z" fill="#131313"/>
<path d="M342.76 9.5L342.76 10.875L341.442 10.875L341.442 9.5L342.76 9.5Z" fill="#131313"/>
<path d="M340.124 9.5L340.124 10.875L338.805 10.875L338.805 9.5L340.124 9.5Z" fill="#131313"/>
<path d="M338.805 9.5L338.805 10.875L337.487 10.875L337.487 9.5L338.805 9.5Z" fill="#131313"/>
<path d="M341.442 9.5L341.442 10.875L340.124 10.875L340.124 9.5L341.442 9.5Z" fill="#131313"/>
<path d="M344.079 10.875L344.079 12.25L342.76 12.25L342.76 10.875L344.079 10.875Z" fill="#131313"/>
<path d="M342.76 10.875L342.76 12.25L341.442 12.25L341.442 10.875L342.76 10.875Z" fill="#131313"/>
<path d="M340.124 10.875L340.124 12.25L338.805 12.25L338.805 10.875L340.124 10.875Z" fill="#131313"/>
<path d="M338.805 10.875L338.805 12.25L337.487 12.25L337.487 10.875L338.805 10.875Z" fill="#131313"/>
<path d="M341.442 10.875L341.442 12.25L340.124 12.25L340.124 10.875L341.442 10.875Z" fill="#131313"/>
<path d="M342.76 12.25L342.76 13.625L341.442 13.625L341.442 12.25L342.76 12.25Z" fill="#131313"/>
<path d="M341.442 13.625L341.442 15L340.124 15L340.124 13.625L341.442 13.625Z" fill="#131313"/>
<path d="M341.442 12.25L341.442 13.625L340.124 13.625L340.124 12.25L341.442 12.25Z" fill="#131313"/>
<path d="M340.124 12.25L340.124 13.625L338.805 13.625L338.805 12.25L340.124 12.25Z" fill="#131313"/>
<path d="M348.033 6.75L348.033 8.125L346.715 8.125L346.715 6.75L348.033 6.75Z" fill="#131313"/>
<path d="M334.85 6.75L334.85 8.125L333.532 8.125L333.532 6.75L334.85 6.75Z" fill="#131313"/>
<rect x="0.5" y="32.5" width="70" height="29" fill="#DCECA1"/>
<rect x="0.5" y="32.5" width="70" height="29" stroke="#131313"/>
<path d="M11.5059 48.38L8.42188 43.1H10.5219L12.4059 46.544L14.3859 43.1H16.3899L13.3059 48.38V51.5H11.5059V48.38ZM18.9251 51.572C16.8731 51.572 15.6371 50.336 15.6371 48.428C15.6371 46.508 16.8971 45.26 18.8051 45.26C20.6531 45.26 21.9011 46.412 21.9251 48.224C21.9251 48.404 21.9131 48.608 21.8771 48.8H17.4011V48.884C17.4371 49.76 18.0011 50.288 18.8531 50.288C19.5371 50.288 20.0171 49.988 20.1611 49.412H21.8291C21.6371 50.612 20.5691 51.572 18.9251 51.572ZM17.4371 47.696H20.2211C20.1011 46.94 19.5851 46.52 18.8171 46.52C18.0851 46.52 17.5331 46.964 17.4371 47.696ZM22.5148 49.448H24.1228C24.1828 49.988 24.6508 50.36 25.4788 50.36C26.1868 50.36 26.6188 50.132 26.6188 49.7C26.6188 49.196 26.1988 49.16 25.2028 49.028C23.7628 48.86 22.6468 48.536 22.6468 47.264C22.6468 46.04 23.7148 45.236 25.2988 45.248C26.9548 45.248 28.0948 45.98 28.1788 47.24H26.5588C26.5108 46.748 26.0428 46.448 25.3588 46.448C24.6988 46.448 24.2668 46.688 24.2668 47.084C24.2668 47.552 24.7948 47.6 25.6828 47.708C27.0988 47.852 28.2748 48.176 28.2748 49.568C28.2748 50.792 27.1228 51.572 25.4668 51.572C23.7508 51.572 22.5868 50.768 22.5148 49.448Z" fill="#131313"/>
<path d="M41.9325 47.132C42.7005 47.276 43.5045 47.888 43.5045 49.172C43.5045 50.6 42.3045 51.572 40.4805 51.572C38.6565 51.572 37.4805 50.576 37.4805 48.908H38.4765C38.4885 50.012 39.3525 50.672 40.5405 50.672C41.6325 50.672 42.4725 50.06 42.4725 49.1C42.4725 48.224 41.7525 47.66 40.4445 47.66H39.7245V46.784H40.3845C41.6325 46.784 42.2565 46.16 42.2565 45.308C42.2565 44.456 41.4885 43.928 40.4805 43.928C39.4245 43.928 38.6565 44.564 38.6445 45.524H37.6485C37.6605 44.048 38.8125 43.028 40.4685 43.028C42.1965 43.028 43.2885 43.928 43.2885 45.248C43.2885 46.304 42.7365 46.916 41.9325 47.132ZM44.259 50.9C44.259 50.492 44.547 50.228 44.943 50.228C45.339 50.228 45.627 50.492 45.627 50.9C45.627 51.308 45.339 51.572 44.943 51.572C44.547 51.572 44.259 51.308 44.259 50.9ZM45.9958 49.448V48.548L50.2798 43.1H51.4078V48.524H52.7638V49.448H51.4078V51.5H50.3998V49.448H45.9958ZM50.3998 44.336L47.1238 48.524H50.3998V44.336ZM55.2228 42.812C55.8148 42.812 56.2628 43.048 56.5668 43.52C56.8708 43.984 57.0228 44.64 57.0228 45.488C57.0228 46.336 56.8748 47 56.5788 47.48C56.2908 47.952 55.8388 48.188 55.2228 48.188C54.8468 48.188 54.5268 48.08 54.2628 47.864C53.9988 47.648 53.7988 47.34 53.6628 46.94C53.5348 46.532 53.4708 46.048 53.4708 45.488C53.4708 44.64 53.6108 43.984 53.8908 43.52C54.1708 43.048 54.6148 42.812 55.2228 42.812ZM55.2228 43.556C54.9188 43.556 54.6948 43.72 54.5508 44.048C54.4148 44.368 54.3468 44.848 54.3468 45.488C54.3468 46.128 54.4148 46.612 54.5508 46.94C54.6948 47.268 54.9188 47.432 55.2228 47.432C55.5348 47.432 55.7668 47.272 55.9188 46.952C56.0708 46.624 56.1468 46.136 56.1468 45.488C56.1468 44.848 56.0708 44.368 55.9188 44.048C55.7668 43.72 55.5348 43.556 55.2228 43.556ZM60.7068 42.932L55.9548 51.5H55.0308L59.7828 42.932H60.7068ZM60.4668 46.244C60.8588 46.244 61.1868 46.352 61.4508 46.568C61.7148 46.776 61.9148 47.08 62.0508 47.48C62.1948 47.872 62.2668 48.352 62.2668 48.92C62.2668 49.768 62.1188 50.432 61.8228 50.912C61.5348 51.384 61.0828 51.62 60.4668 51.62C60.0908 51.62 59.7708 51.512 59.5068 51.296C59.2428 51.08 59.0428 50.772 58.9068 50.372C58.7788 49.964 58.7148 49.48 58.7148 48.92C58.7148 48.072 58.8548 47.416 59.1348 46.952C59.4148 46.48 59.8588 46.244 60.4668 46.244ZM60.4668 47C60.1628 47 59.9388 47.16 59.7948 47.48C59.6588 47.8 59.5908 48.28 59.5908 48.92C59.5908 49.568 59.6588 50.056 59.7948 50.384C59.9388 50.704 60.1628 50.864 60.4668 50.864C60.7788 50.864 61.0108 50.704 61.1628 50.384C61.3148 50.064 61.3908 49.576 61.3908 48.92C61.3908 48.28 61.3148 47.8 61.1628 47.48C61.0108 47.16 60.7788 47 60.4668 47Z" fill="#131313"/>
<mask id="path-6-inside-1_111_8691" fill="white">
<path d="M71 32H349V62H71V32Z"/>
</mask>
<path d="M71 32H349V62H71V32Z" fill="#FD9DAF"/>
<path d="M349 32H350V31H349V32ZM349 62V63H350V62H349ZM71 33H349V31H71V33ZM348 32V62H350V32H348ZM349 61H71V63H349V61Z" fill="#131313" mask="url(#path-6-inside-1_111_8691)"/>
<path d="M81.6852 51.5H79.9212V43.1H81.5532L85.1172 48.392V43.1H86.8932V51.5H85.2492L81.6852 46.208V51.5ZM91.2035 51.572C89.2355 51.572 87.9515 50.312 87.9515 48.416C87.9515 46.52 89.2355 45.26 91.2035 45.26C93.1715 45.26 94.4555 46.52 94.4555 48.416C94.4555 50.324 93.1715 51.572 91.2035 51.572ZM91.2035 50.192C92.1515 50.192 92.7395 49.46 92.7395 48.416C92.7395 47.372 92.1515 46.64 91.2035 46.64C90.2555 46.64 89.6795 47.372 89.6795 48.416C89.6795 49.46 90.2555 50.192 91.2035 50.192Z" fill="#131313"/>
<path d="M106.478 51.572C104.954 51.572 103.91 50.66 103.706 49.256H104.714C104.906 50.108 105.506 50.684 106.526 50.684C107.99 50.684 108.794 49.352 108.794 47.456C108.794 47.336 108.794 47.252 108.782 47.048C108.77 47.096 108.758 47.168 108.71 47.276C108.338 48.104 107.498 48.656 106.37 48.656C104.714 48.656 103.55 47.564 103.55 45.848C103.55 44.228 104.738 43.028 106.466 43.028C107.63 43.028 108.482 43.556 109.01 44.42C109.43 45.152 109.67 46.16 109.67 47.264C109.67 49.904 108.482 51.572 106.478 51.572ZM106.442 47.768C107.606 47.768 108.398 46.976 108.398 45.824C108.398 44.696 107.63 43.916 106.478 43.916C105.314 43.916 104.558 44.72 104.558 45.848C104.558 46.964 105.278 47.768 106.442 47.768ZM111.36 50.18C110.94 49.448 110.7 48.44 110.7 47.336C110.7 44.696 111.888 43.028 113.892 43.028C115.416 43.028 116.46 43.94 116.664 45.344H115.656C115.464 44.492 114.864 43.916 113.844 43.916C112.38 43.916 111.576 45.248 111.576 47.144C111.576 47.264 111.576 47.348 111.588 47.552C111.6 47.504 111.612 47.432 111.66 47.324C112.032 46.496 112.872 45.944 114 45.944C115.656 45.944 116.82 47.036 116.82 48.752C116.82 50.372 115.632 51.572 113.904 51.572C112.74 51.572 111.888 51.044 111.36 50.18ZM115.812 48.752C115.812 47.636 115.092 46.832 113.928 46.832C112.764 46.832 111.972 47.624 111.972 48.776C111.972 49.904 112.74 50.684 113.892 50.684C115.056 50.684 115.812 49.88 115.812 48.752ZM117.462 50.9C117.462 50.492 117.75 50.228 118.146 50.228C118.542 50.228 118.83 50.492 118.83 50.9C118.83 51.308 118.542 51.572 118.146 51.572C117.75 51.572 117.462 51.308 117.462 50.9ZM120.02 50.18C119.6 49.448 119.36 48.44 119.36 47.336C119.36 44.696 120.548 43.028 122.552 43.028C124.076 43.028 125.12 43.94 125.324 45.344H124.316C124.124 44.492 123.524 43.916 122.504 43.916C121.04 43.916 120.236 45.248 120.236 47.144C120.236 47.264 120.236 47.348 120.248 47.552C120.26 47.504 120.272 47.432 120.32 47.324C120.692 46.496 121.532 45.944 122.66 45.944C124.316 45.944 125.48 47.036 125.48 48.752C125.48 50.372 124.292 51.572 122.564 51.572C121.4 51.572 120.548 51.044 120.02 50.18ZM124.472 48.752C124.472 47.636 123.752 46.832 122.588 46.832C121.424 46.832 120.632 47.624 120.632 48.776C120.632 49.904 121.4 50.684 122.552 50.684C123.716 50.684 124.472 49.88 124.472 48.752ZM128.285 42.812C128.877 42.812 129.325 43.048 129.629 43.52C129.933 43.984 130.085 44.64 130.085 45.488C130.085 46.336 129.937 47 129.641 47.48C129.353 47.952 128.901 48.188 128.285 48.188C127.909 48.188 127.589 48.08 127.325 47.864C127.061 47.648 126.861 47.34 126.725 46.94C126.597 46.532 126.533 46.048 126.533 45.488C126.533 44.64 126.673 43.984 126.953 43.52C127.233 43.048 127.677 42.812 128.285 42.812ZM128.285 43.556C127.981 43.556 127.757 43.72 127.613 44.048C127.477 44.368 127.409 44.848 127.409 45.488C127.409 46.128 127.477 46.612 127.613 46.94C127.757 47.268 127.981 47.432 128.285 47.432C128.597 47.432 128.829 47.272 128.981 46.952C129.133 46.624 129.209 46.136 129.209 45.488C129.209 44.848 129.133 44.368 128.981 44.048C128.829 43.72 128.597 43.556 128.285 43.556ZM133.769 42.932L129.017 51.5H128.093L132.845 42.932H133.769ZM133.529 46.244C133.921 46.244 134.249 46.352 134.513 46.568C134.777 46.776 134.977 47.08 135.113 47.48C135.257 47.872 135.329 48.352 135.329 48.92C135.329 49.768 135.181 50.432 134.885 50.912C134.597 51.384 134.145 51.62 133.529 51.62C133.153 51.62 132.833 51.512 132.569 51.296C132.305 51.08 132.105 50.772 131.969 50.372C131.841 49.964 131.777 49.48 131.777 48.92C131.777 48.072 131.917 47.416 132.197 46.952C132.477 46.48 132.921 46.244 133.529 46.244ZM133.529 47C133.225 47 133.001 47.16 132.857 47.48C132.721 47.8 132.653 48.28 132.653 48.92C132.653 49.568 132.721 50.056 132.857 50.384C133.001 50.704 133.225 50.864 133.529 50.864C133.841 50.864 134.073 50.704 134.225 50.384C134.377 50.064 134.453 49.576 134.453 48.92C134.453 48.28 134.377 47.8 134.225 47.48C134.073 47.16 133.841 47 133.529 47Z" fill="#131313"/>
</svg>
