<svg width="349" height="62" viewBox="0 0 349 62" fill="none" xmlns="http://www.w3.org/2000/svg">
<path d="M10.928 13.936H12.032V16H10.88C9.92 16 9.52 15.728 9.136 15.248C8.288 15.792 7.232 16.096 6.064 16.096C2.768 16.096 0.512 13.664 0.512 10.4C0.512 7.136 2.768 4.704 6.064 4.704C9.36 4.704 11.616 7.136 11.616 10.4C11.616 11.728 11.248 12.928 10.576 13.872C10.672 13.904 10.784 13.936 10.928 13.936ZM2.96 10.4C2.96 12.512 4.176 14.064 6.064 14.064C6.72 14.064 7.296 13.872 7.776 13.536L7.616 13.344C7.376 13.024 7.168 12.848 6.816 12.848H5.776V10.816H6.992C7.936 10.816 8.256 11.152 8.64 11.632L8.896 11.952C9.072 11.488 9.152 10.96 9.152 10.4C9.152 8.288 7.936 6.736 6.064 6.736C4.176 6.736 2.96 8.288 2.96 10.4ZM18.4908 11.888V7.776H20.7468V16H18.7468L18.5388 15.008C18.0108 15.648 17.2908 16.096 16.1228 16.096C14.4268 16.096 12.8588 15.248 12.8588 12.336V7.776H15.1148V12.032C15.1148 13.504 15.5948 14.224 16.7148 14.224C17.8348 14.224 18.4908 13.408 18.4908 11.888ZM26.3793 16.096C23.6432 16.096 21.9953 14.448 21.9953 11.904C21.9953 9.344 23.6753 7.68 26.2193 7.68C28.6833 7.68 30.3472 9.216 30.3793 11.632C30.3793 11.872 30.3633 12.144 30.3153 12.4H24.3473V12.512C24.3953 13.68 25.1473 14.384 26.2833 14.384C27.1953 14.384 27.8353 13.984 28.0273 13.216H30.2513C29.9953 14.816 28.5713 16.096 26.3793 16.096ZM24.3953 10.928H28.1073C27.9473 9.92 27.2593 9.36 26.2352 9.36C25.2593 9.36 24.5233 9.952 24.3953 10.928ZM31.1656 13.264H33.3096C33.3896 13.984 34.0136 14.48 35.1176 14.48C36.0616 14.48 36.6376 14.176 36.6376 13.6C36.6376 12.928 36.0776 12.88 34.7496 12.704C32.8296 12.48 31.3416 12.048 31.3416 10.352C31.3416 8.72 32.7656 7.648 34.8776 7.664C37.0856 7.664 38.6056 8.64 38.7176 10.32H36.5576C36.4936 9.664 35.8696 9.264 34.9576 9.264C34.0776 9.264 33.5016 9.584 33.5016 10.112C33.5016 10.736 34.2056 10.8 35.3896 10.944C37.2776 11.136 38.8456 11.568 38.8456 13.424C38.8456 15.056 37.3096 16.096 35.1016 16.096C32.8136 16.096 31.2616 15.024 31.1656 13.264ZM40.626 13.648V9.68H39.266V7.776H40.626V5.472H42.882V7.776H44.77V9.68H42.882V13.28C42.882 13.856 43.106 14.096 43.698 14.096H44.818V16H42.978C41.41 16 40.626 15.216 40.626 13.648ZM46.9981 6.896C46.2621 6.896 45.6861 6.352 45.6861 5.632C45.6861 4.896 46.2621 4.352 46.9981 4.352C47.7341 4.352 48.3101 4.896 48.3101 5.632C48.3101 6.352 47.7341 6.896 46.9981 6.896ZM45.8621 16V7.776H48.1341V16H45.8621ZM53.7063 16.096C51.0823 16.096 49.3703 14.416 49.3703 11.888C49.3703 9.36 51.0823 7.68 53.7063 7.68C56.3303 7.68 58.0423 9.36 58.0423 11.888C58.0423 14.432 56.3303 16.096 53.7063 16.096ZM53.7063 14.256C54.9703 14.256 55.7543 13.28 55.7543 11.888C55.7543 10.496 54.9703 9.52 53.7063 9.52C52.4423 9.52 51.6743 10.496 51.6743 11.888C51.6743 13.28 52.4423 14.256 53.7063 14.256ZM64.004 7.68C65.78 7.68 67.3 8.624 67.3 11.44V16H65.044V11.664C65.044 10.272 64.516 9.536 63.38 9.536C62.212 9.536 61.54 10.368 61.54 11.792V16H59.284V7.776H61.252L61.46 8.8C61.988 8.16 62.74 7.68 64.004 7.68ZM74.5623 5.824V4.8H76.8183V16H74.5143V8.752C74.3383 8.8 74.1463 8.816 73.9062 8.816H72.0343V6.912H73.6983C74.3383 6.912 74.5623 6.48 74.5623 5.824ZM83.0613 8.368C85.3173 8.368 86.8373 9.92 86.8373 12.208C86.8373 14.784 84.9173 16.096 82.5973 16.096C80.0053 16.096 78.4053 14.448 78.3092 12.4H80.5973C80.7093 13.408 81.4133 14.208 82.6133 14.208C83.5893 14.208 84.5173 13.536 84.5173 12.208C84.5173 11.024 83.7653 10.192 82.5973 10.192C81.9733 10.192 81.1093 10.432 80.7093 11.36H78.4853L78.8053 4.8H86.1653V6.736H80.9013L80.7733 9.184C81.3333 8.672 82.0693 8.368 83.0613 8.368ZM97.4275 12.368H91.8275V10.528H97.4275V12.368ZM103.119 16V4.8H104.879L108.847 14.096L112.767 4.8H114.495V16H113.135V7.168L109.423 16H108.191L104.479 7.168V16H103.119ZM120.234 16.096C117.85 16.096 116.186 14.4 116.186 11.92C116.186 9.44 117.85 7.744 120.234 7.744C122.618 7.744 124.282 9.44 124.282 11.92C124.282 14.4 122.618 16.096 120.234 16.096ZM120.234 14.928C121.85 14.928 122.938 13.664 122.938 11.92C122.938 10.176 121.85 8.912 120.234 8.912C118.618 8.912 117.53 10.176 117.53 11.92C117.53 13.664 118.618 14.928 120.234 14.928ZM129.787 7.744C131.627 7.744 133.083 8.752 133.083 11.456V16H131.771V11.536C131.771 9.84 130.987 8.944 129.563 8.944C128.027 8.944 127.099 10.08 127.099 11.92V16H125.787V7.84H126.923L127.099 8.944C127.579 8.32 128.411 7.744 129.787 7.744ZM138.422 16.096C135.974 16.096 134.374 14.416 134.374 11.92C134.374 9.44 135.942 7.744 138.246 7.744C140.55 7.744 142.054 9.2 142.118 11.616C142.118 11.792 142.102 11.984 142.086 12.176H135.75V12.288C135.798 13.84 136.774 14.928 138.326 14.928C139.478 14.928 140.374 14.32 140.646 13.264H141.974C141.654 14.896 140.31 16.096 138.422 16.096ZM135.83 11.088H140.71C140.582 9.68 139.622 8.896 138.262 8.896C137.062 8.896 135.958 9.76 135.83 11.088ZM145.623 16.048L142.439 7.84H143.831L146.343 14.352L148.775 7.84H150.167L146.407 17.376C145.895 18.688 145.591 19.2 144.439 19.2H142.871V18H144.039C144.791 18 144.919 17.808 145.223 17.04L145.623 16.048ZM158.614 16L154.582 4.8H156.054L159.478 14.352L162.885 4.8H164.326L160.294 16H158.614ZM164.232 13.312H165.576C165.624 14.272 166.472 14.976 167.832 14.976C168.984 14.976 169.8 14.48 169.8 13.728C169.8 12.704 168.904 12.624 167.688 12.48C165.864 12.256 164.408 11.888 164.408 10.192C164.408 8.704 165.768 7.728 167.608 7.744C169.464 7.76 170.808 8.624 170.936 10.32H169.592C169.496 9.488 168.728 8.864 167.608 8.864C166.472 8.864 165.704 9.344 165.704 10.096C165.704 10.992 166.568 11.104 167.752 11.248C169.608 11.472 171.096 11.824 171.096 13.632C171.096 15.152 169.64 16.096 167.832 16.096C165.72 16.096 164.264 15.104 164.232 13.312ZM172.267 15.2C172.267 14.656 172.651 14.304 173.179 14.304C173.707 14.304 174.091 14.656 174.091 15.2C174.091 15.744 173.707 16.096 173.179 16.096C172.651 16.096 172.267 15.744 172.267 15.2ZM186.6 16H180.104V4.8H181.496V14.72H186.6V16ZM188.49 6.464C188.01 6.464 187.642 6.112 187.642 5.616C187.642 5.12 188.01 4.768 188.49 4.768C188.97 4.768 189.338 5.12 189.338 5.616C189.338 6.112 188.97 6.464 188.49 6.464ZM187.818 16V7.84H189.13V16H187.818ZM190.063 9.04V7.84H191.535V6.928C191.535 5.488 192.143 4.8 193.663 4.8H195.151V6H193.743C193.087 6 192.847 6.272 192.847 6.896V7.84H195.151V9.04H192.847V16H191.535V9.04H190.063ZM199.484 16.096C197.036 16.096 195.436 14.416 195.436 11.92C195.436 9.44 197.004 7.744 199.308 7.744C201.612 7.744 203.116 9.2 203.18 11.616C203.18 11.792 203.164 11.984 203.148 12.176H196.812V12.288C196.86 13.84 197.836 14.928 199.388 14.928C200.54 14.928 201.436 14.32 201.708 13.264H203.036C202.716 14.896 201.372 16.096 199.484 16.096ZM196.892 11.088H201.772C201.644 9.68 200.684 8.896 199.324 8.896C198.124 8.896 197.02 9.76 196.892 11.088Z" fill="#131313"/>
<path d="M333.531 13.625L333.531 12.25L334.85 12.25L334.85 13.625L333.531 13.625Z" fill="#131313"/>
<path d="M346.714 13.625L346.714 12.25L348.033 12.25L348.033 13.625L346.714 13.625Z" fill="#131313"/>
<path d="M334.85 15L334.85 13.625L336.168 13.625L336.168 15L334.85 15Z" fill="#131313"/>
<path d="M345.396 15L345.396 13.625L346.714 13.625L346.714 15L345.396 15Z" fill="#131313"/>
<path d="M334.85 13.625L334.85 12.25L336.168 12.25L336.168 13.625L334.85 13.625Z" fill="#131313"/>
<path d="M345.396 13.625L345.396 12.25L346.714 12.25L346.714 13.625L345.396 13.625Z" fill="#131313"/>
<path d="M336.168 13.625L336.168 12.25L337.486 12.25L337.486 13.625L336.168 13.625Z" fill="#131313"/>
<path d="M344.078 13.625L344.078 12.25L345.396 12.25L345.396 13.625L344.078 13.625Z" fill="#131313"/>
<path d="M334.85 12.25L334.85 10.875L336.168 10.875L336.168 12.25L334.85 12.25Z" fill="#131313"/>
<path d="M345.396 12.25L345.396 10.875L346.714 10.875L346.714 12.25L345.396 12.25Z" fill="#131313"/>
<path d="M336.168 12.25L336.168 10.875L337.486 10.875L337.486 12.25L336.168 12.25Z" fill="#131313"/>
<path d="M344.078 12.25L344.078 10.875L345.396 10.875L345.396 12.25L344.078 12.25Z" fill="#131313"/>
<path d="M337.486 12.25L337.486 10.875L338.804 10.875L338.804 12.25L337.486 12.25Z" fill="#131313"/>
<path d="M334.85 10.875L334.85 9.5L336.168 9.5L336.168 10.875L334.85 10.875Z" fill="#131313"/>
<path d="M345.396 10.875L345.396 9.5L346.714 9.5L346.714 10.875L345.396 10.875Z" fill="#131313"/>
<path d="M336.168 10.875L336.168 9.5L337.486 9.5L337.486 10.875L336.168 10.875Z" fill="#131313"/>
<path d="M344.078 10.875L344.078 9.5L345.396 9.5L345.396 10.875L344.078 10.875Z" fill="#131313"/>
<path d="M337.486 10.875L337.486 9.5L338.804 9.5L338.804 10.875L337.486 10.875Z" fill="#131313"/>
<path d="M338.804 10.875L338.804 9.5L340.123 9.5L340.123 10.875L338.804 10.875Z" fill="#131313"/>
<path d="M341.441 10.875L341.441 9.5L342.759 9.5L342.759 10.875L341.441 10.875Z" fill="#131313"/>
<path d="M342.759 10.875L342.759 9.5L344.078 9.5L344.078 10.875L342.759 10.875Z" fill="#131313"/>
<path d="M342.759 12.25L342.759 10.875L344.078 10.875L344.078 12.25L342.759 12.25Z" fill="#131313"/>
<path d="M336.168 9.5L336.168 8.125L337.486 8.125L337.486 9.5L336.168 9.5Z" fill="#131313"/>
<path d="M344.078 9.5L344.078 8.125L345.396 8.125L345.396 9.5L344.078 9.5Z" fill="#131313"/>
<path d="M337.486 9.5L337.486 8.125L338.804 8.125L338.804 9.5L337.486 9.5Z" fill="#131313"/>
<path d="M338.804 9.5L338.804 8.125L340.123 8.125L340.123 9.5L338.804 9.5Z" fill="#131313"/>
<path d="M341.441 9.5L341.441 8.125L342.759 8.125L342.759 9.5L341.441 9.5Z" fill="#131313"/>
<path d="M342.759 9.5L342.759 8.125L344.078 8.125L344.078 9.5L342.759 9.5Z" fill="#131313"/>
<path d="M340.123 9.5L340.123 8.125L341.441 8.125L341.441 9.5L340.123 9.5Z" fill="#131313"/>
<path d="M337.486 8.125L337.486 6.75L338.804 6.75L338.804 8.125L337.486 8.125Z" fill="#131313"/>
<path d="M338.804 8.125L338.804 6.75L340.123 6.75L340.123 8.125L338.804 8.125Z" fill="#131313"/>
<path d="M341.441 8.125L341.441 6.75L342.759 6.75L342.759 8.125L341.441 8.125Z" fill="#131313"/>
<path d="M342.759 8.125L342.759 6.75L344.078 6.75L344.078 8.125L342.759 8.125Z" fill="#131313"/>
<path d="M340.123 8.125L340.123 6.75L341.441 6.75L341.441 8.125L340.123 8.125Z" fill="#131313"/>
<path d="M338.804 6.75L338.804 5.375L340.123 5.375L340.123 6.75L338.804 6.75Z" fill="#131313"/>
<path d="M340.123 5.375L340.123 4L341.441 4L341.441 5.375L340.123 5.375Z" fill="#131313"/>
<path d="M340.123 6.75L340.123 5.375L341.441 5.375L341.441 6.75L340.123 6.75Z" fill="#131313"/>
<path d="M341.441 6.75L341.441 5.375L342.759 5.375L342.759 6.75L341.441 6.75Z" fill="#131313"/>
<path d="M333.531 12.25L333.531 10.875L334.85 10.875L334.85 12.25L333.531 12.25Z" fill="#131313"/>
<path d="M346.714 12.25L346.714 10.875L348.033 10.875L348.033 12.25L346.714 12.25Z" fill="#131313"/>
<rect x="0.5" y="32.5" width="104" height="29" fill="#89CDFF"/>
<rect x="0.5" y="32.5" width="104" height="29" stroke="#131313"/>
<path d="M11.5059 48.38L8.42188 43.1H10.5219L12.4059 46.544L14.3859 43.1H16.3899L13.3059 48.38V51.5H11.5059V48.38ZM18.9251 51.572C16.8731 51.572 15.6371 50.336 15.6371 48.428C15.6371 46.508 16.8971 45.26 18.8051 45.26C20.6531 45.26 21.9011 46.412 21.9251 48.224C21.9251 48.404 21.9131 48.608 21.8771 48.8H17.4011V48.884C17.4371 49.76 18.0011 50.288 18.8531 50.288C19.5371 50.288 20.0171 49.988 20.1611 49.412H21.8291C21.6371 50.612 20.5691 51.572 18.9251 51.572ZM17.4371 47.696H20.2211C20.1011 46.94 19.5851 46.52 18.8171 46.52C18.0851 46.52 17.5331 46.964 17.4371 47.696ZM22.5148 49.448H24.1228C24.1828 49.988 24.6508 50.36 25.4788 50.36C26.1868 50.36 26.6188 50.132 26.6188 49.7C26.6188 49.196 26.1988 49.16 25.2028 49.028C23.7628 48.86 22.6468 48.536 22.6468 47.264C22.6468 46.04 23.7148 45.236 25.2988 45.248C26.9548 45.248 28.0948 45.98 28.1788 47.24H26.5588C26.5108 46.748 26.0428 46.448 25.3588 46.448C24.6988 46.448 24.2668 46.688 24.2668 47.084C24.2668 47.552 24.7948 47.6 25.6828 47.708C27.0988 47.852 28.2748 48.176 28.2748 49.568C28.2748 50.792 27.1228 51.572 25.4668 51.572C23.7508 51.572 22.5868 50.768 22.5148 49.448Z" fill="#131313"/>
<path d="M42.0224 47.132C42.7904 47.276 43.5944 47.888 43.5944 49.172C43.5944 50.6 42.3944 51.572 40.5704 51.572C38.7464 51.572 37.5704 50.576 37.5704 48.908H38.5664C38.5784 50.012 39.4424 50.672 40.6304 50.672C41.7224 50.672 42.5624 50.06 42.5624 49.1C42.5624 48.224 41.8424 47.66 40.5344 47.66H39.8144V46.784H40.4744C41.7224 46.784 42.3464 46.16 42.3464 45.308C42.3464 44.456 41.5784 43.928 40.5704 43.928C39.5144 43.928 38.7464 44.564 38.7344 45.524H37.7384C37.7504 44.048 38.9024 43.028 40.5584 43.028C42.2864 43.028 43.3784 43.928 43.3784 45.248C43.3784 46.304 42.8264 46.916 42.0224 47.132ZM46.0821 44.012V43.1H47.0661V51.5H46.0581V45.476C45.9381 45.584 45.7461 45.632 45.4821 45.632H44.1261V44.732H45.4941C45.8901 44.732 46.0821 44.432 46.0821 44.012ZM48.4504 50.9C48.4504 50.492 48.7384 50.228 49.1344 50.228C49.5304 50.228 49.8184 50.492 49.8184 50.9C49.8184 51.308 49.5304 51.572 49.1344 51.572C48.7384 51.572 48.4504 51.308 48.4504 50.9ZM50.6351 51.5V50.648L53.8991 47.816C54.6791 47.144 55.3271 46.496 55.3271 45.584C55.3271 44.528 54.6071 43.928 53.4911 43.928C52.4111 43.928 51.6911 44.648 51.6911 45.8V45.956H50.6831V45.74C50.6831 44.156 51.7991 43.028 53.4911 43.028C55.3031 43.028 56.3591 44.024 56.3591 45.536C56.3591 46.796 55.5431 47.588 54.5471 48.44L52.0271 50.576H56.4191V51.5H50.6351ZM59.133 42.812C59.725 42.812 60.173 43.048 60.477 43.52C60.781 43.984 60.933 44.64 60.933 45.488C60.933 46.336 60.785 47 60.489 47.48C60.201 47.952 59.749 48.188 59.133 48.188C58.757 48.188 58.437 48.08 58.173 47.864C57.909 47.648 57.709 47.34 57.573 46.94C57.445 46.532 57.381 46.048 57.381 45.488C57.381 44.64 57.521 43.984 57.801 43.52C58.081 43.048 58.525 42.812 59.133 42.812ZM59.133 43.556C58.829 43.556 58.605 43.72 58.461 44.048C58.325 44.368 58.257 44.848 58.257 45.488C58.257 46.128 58.325 46.612 58.461 46.94C58.605 47.268 58.829 47.432 59.133 47.432C59.445 47.432 59.677 47.272 59.829 46.952C59.981 46.624 60.057 46.136 60.057 45.488C60.057 44.848 59.981 44.368 59.829 44.048C59.677 43.72 59.445 43.556 59.133 43.556ZM64.617 42.932L59.865 51.5H58.941L63.693 42.932H64.617ZM64.377 46.244C64.769 46.244 65.097 46.352 65.361 46.568C65.625 46.776 65.825 47.08 65.961 47.48C66.105 47.872 66.177 48.352 66.177 48.92C66.177 49.768 66.029 50.432 65.733 50.912C65.445 51.384 64.993 51.62 64.377 51.62C64.001 51.62 63.681 51.512 63.417 51.296C63.153 51.08 62.953 50.772 62.817 50.372C62.689 49.964 62.625 49.48 62.625 48.92C62.625 48.072 62.765 47.416 63.045 46.952C63.325 46.48 63.769 46.244 64.377 46.244ZM64.377 47C64.073 47 63.849 47.16 63.705 47.48C63.569 47.8 63.501 48.28 63.501 48.92C63.501 49.568 63.569 50.056 63.705 50.384C63.849 50.704 64.073 50.864 64.377 50.864C64.689 50.864 64.921 50.704 65.073 50.384C65.225 50.064 65.301 49.576 65.301 48.92C65.301 48.28 65.225 47.8 65.073 47.48C64.921 47.16 64.689 47 64.377 47Z" fill="#131313"/>
<mask id="path-6-inside-1_538_2890" fill="white">
<path d="M105 32H349V62H105V32Z"/>
</mask>
<path d="M105 32H349V62H105V32Z" fill="#FD9DAF"/>
<path d="M349 32H350V31H349V32ZM349 62V63H350V62H349ZM105 33H349V31H105V33ZM348 32V62H350V32H348ZM349 61H105V63H349V61Z" fill="#131313" mask="url(#path-6-inside-1_538_2890)"/>
<path d="M115.685 51.5H113.921V43.1H115.553L119.117 48.392V43.1H120.893V51.5H119.249L115.685 46.208V51.5ZM125.204 51.572C123.236 51.572 121.952 50.312 121.952 48.416C121.952 46.52 123.236 45.26 125.204 45.26C127.172 45.26 128.456 46.52 128.456 48.416C128.456 50.324 127.172 51.572 125.204 51.572ZM125.204 50.192C126.152 50.192 126.74 49.46 126.74 48.416C126.74 47.372 126.152 46.64 125.204 46.64C124.256 46.64 123.68 47.372 123.68 48.416C123.68 49.46 124.256 50.192 125.204 50.192Z" fill="#131313"/>
<path d="M138.582 50.18C138.162 49.448 137.922 48.44 137.922 47.336C137.922 44.696 139.11 43.028 141.114 43.028C142.638 43.028 143.682 43.94 143.886 45.344H142.878C142.686 44.492 142.086 43.916 141.066 43.916C139.602 43.916 138.798 45.248 138.798 47.144C138.798 47.264 138.798 47.348 138.81 47.552C138.822 47.504 138.834 47.432 138.882 47.324C139.254 46.496 140.094 45.944 141.222 45.944C142.878 45.944 144.042 47.036 144.042 48.752C144.042 50.372 142.854 51.572 141.126 51.572C139.962 51.572 139.11 51.044 138.582 50.18ZM143.034 48.752C143.034 47.636 142.314 46.832 141.15 46.832C139.986 46.832 139.194 47.624 139.194 48.776C139.194 49.904 139.962 50.684 141.114 50.684C142.278 50.684 143.034 49.88 143.034 48.752ZM149.428 47.156C150.364 47.372 151.108 48.092 151.108 49.244C151.108 50.6 149.944 51.572 148.048 51.572C146.152 51.572 144.988 50.6 144.988 49.244C144.988 48.104 145.72 47.372 146.668 47.156C145.864 46.976 145.228 46.268 145.228 45.26C145.228 43.94 146.332 43.028 148.048 43.028C149.764 43.028 150.868 43.94 150.868 45.26C150.868 46.22 150.244 46.976 149.428 47.156ZM146.26 45.26C146.26 46.088 146.968 46.64 148.048 46.64C149.128 46.64 149.836 46.088 149.836 45.26C149.836 44.444 149.128 43.892 148.048 43.892C146.968 43.892 146.26 44.444 146.26 45.26ZM148.048 50.708C149.248 50.708 150.076 50.072 150.076 49.172C150.076 48.284 149.248 47.648 148.048 47.648C146.848 47.648 146.02 48.284 146.02 49.172C146.02 50.072 146.86 50.708 148.048 50.708ZM151.88 50.9C151.88 50.492 152.168 50.228 152.564 50.228C152.96 50.228 153.248 50.492 153.248 50.9C153.248 51.308 152.96 51.572 152.564 51.572C152.168 51.572 151.88 51.308 151.88 50.9ZM158.463 47.156C159.399 47.372 160.143 48.092 160.143 49.244C160.143 50.6 158.979 51.572 157.083 51.572C155.187 51.572 154.023 50.6 154.023 49.244C154.023 48.104 154.755 47.372 155.703 47.156C154.899 46.976 154.263 46.268 154.263 45.26C154.263 43.94 155.367 43.028 157.083 43.028C158.799 43.028 159.903 43.94 159.903 45.26C159.903 46.22 159.279 46.976 158.463 47.156ZM155.295 45.26C155.295 46.088 156.003 46.64 157.083 46.64C158.163 46.64 158.871 46.088 158.871 45.26C158.871 44.444 158.163 43.892 157.083 43.892C156.003 43.892 155.295 44.444 155.295 45.26ZM157.083 50.708C158.283 50.708 159.111 50.072 159.111 49.172C159.111 48.284 158.283 47.648 157.083 47.648C155.883 47.648 155.055 48.284 155.055 49.172C155.055 50.072 155.895 50.708 157.083 50.708ZM162.961 42.812C163.553 42.812 164.001 43.048 164.305 43.52C164.609 43.984 164.761 44.64 164.761 45.488C164.761 46.336 164.613 47 164.317 47.48C164.029 47.952 163.577 48.188 162.961 48.188C162.585 48.188 162.265 48.08 162.001 47.864C161.737 47.648 161.537 47.34 161.401 46.94C161.273 46.532 161.209 46.048 161.209 45.488C161.209 44.64 161.349 43.984 161.629 43.52C161.909 43.048 162.353 42.812 162.961 42.812ZM162.961 43.556C162.657 43.556 162.433 43.72 162.289 44.048C162.153 44.368 162.085 44.848 162.085 45.488C162.085 46.128 162.153 46.612 162.289 46.94C162.433 47.268 162.657 47.432 162.961 47.432C163.273 47.432 163.505 47.272 163.657 46.952C163.809 46.624 163.885 46.136 163.885 45.488C163.885 44.848 163.809 44.368 163.657 44.048C163.505 43.72 163.273 43.556 162.961 43.556ZM168.445 42.932L163.693 51.5H162.769L167.521 42.932H168.445ZM168.205 46.244C168.597 46.244 168.925 46.352 169.189 46.568C169.453 46.776 169.653 47.08 169.789 47.48C169.933 47.872 170.005 48.352 170.005 48.92C170.005 49.768 169.857 50.432 169.561 50.912C169.273 51.384 168.821 51.62 168.205 51.62C167.829 51.62 167.509 51.512 167.245 51.296C166.981 51.08 166.781 50.772 166.645 50.372C166.517 49.964 166.453 49.48 166.453 48.92C166.453 48.072 166.593 47.416 166.873 46.952C167.153 46.48 167.597 46.244 168.205 46.244ZM168.205 47C167.901 47 167.677 47.16 167.533 47.48C167.397 47.8 167.329 48.28 167.329 48.92C167.329 49.568 167.397 50.056 167.533 50.384C167.677 50.704 167.901 50.864 168.205 50.864C168.517 50.864 168.749 50.704 168.901 50.384C169.053 50.064 169.129 49.576 169.129 48.92C169.129 48.28 169.053 47.8 168.901 47.48C168.749 47.16 168.517 47 168.205 47Z" fill="#131313"/>
</svg>
