<svg width="349" height="62" viewBox="0 0 349 62" fill="none" xmlns="http://www.w3.org/2000/svg">
<path d="M10.928 13.936H12.032V16H10.88C9.92 16 9.52 15.728 9.136 15.248C8.288 15.792 7.232 16.096 6.064 16.096C2.768 16.096 0.512 13.664 0.512 10.4C0.512 7.136 2.768 4.704 6.064 4.704C9.36 4.704 11.616 7.136 11.616 10.4C11.616 11.728 11.248 12.928 10.576 13.872C10.672 13.904 10.784 13.936 10.928 13.936ZM2.96 10.4C2.96 12.512 4.176 14.064 6.064 14.064C6.72 14.064 7.296 13.872 7.776 13.536L7.616 13.344C7.376 13.024 7.168 12.848 6.816 12.848H5.776V10.816H6.992C7.936 10.816 8.256 11.152 8.64 11.632L8.896 11.952C9.072 11.488 9.152 10.96 9.152 10.4C9.152 8.288 7.936 6.736 6.064 6.736C4.176 6.736 2.96 8.288 2.96 10.4ZM18.4908 11.888V7.776H20.7468V16H18.7468L18.5388 15.008C18.0108 15.648 17.2908 16.096 16.1228 16.096C14.4268 16.096 12.8588 15.248 12.8588 12.336V7.776H15.1148V12.032C15.1148 13.504 15.5948 14.224 16.7148 14.224C17.8348 14.224 18.4908 13.408 18.4908 11.888ZM26.3793 16.096C23.6432 16.096 21.9953 14.448 21.9953 11.904C21.9953 9.344 23.6753 7.68 26.2193 7.68C28.6833 7.68 30.3472 9.216 30.3793 11.632C30.3793 11.872 30.3633 12.144 30.3153 12.4H24.3473V12.512C24.3953 13.68 25.1473 14.384 26.2833 14.384C27.1953 14.384 27.8353 13.984 28.0273 13.216H30.2513C29.9953 14.816 28.5713 16.096 26.3793 16.096ZM24.3953 10.928H28.1073C27.9473 9.92 27.2593 9.36 26.2352 9.36C25.2593 9.36 24.5233 9.952 24.3953 10.928ZM31.1656 13.264H33.3096C33.3896 13.984 34.0136 14.48 35.1176 14.48C36.0616 14.48 36.6376 14.176 36.6376 13.6C36.6376 12.928 36.0776 12.88 34.7496 12.704C32.8296 12.48 31.3416 12.048 31.3416 10.352C31.3416 8.72 32.7656 7.648 34.8776 7.664C37.0856 7.664 38.6056 8.64 38.7176 10.32H36.5576C36.4936 9.664 35.8696 9.264 34.9576 9.264C34.0776 9.264 33.5016 9.584 33.5016 10.112C33.5016 10.736 34.2056 10.8 35.3896 10.944C37.2776 11.136 38.8456 11.568 38.8456 13.424C38.8456 15.056 37.3096 16.096 35.1016 16.096C32.8136 16.096 31.2616 15.024 31.1656 13.264ZM40.626 13.648V9.68H39.266V7.776H40.626V5.472H42.882V7.776H44.77V9.68H42.882V13.28C42.882 13.856 43.106 14.096 43.698 14.096H44.818V16H42.978C41.41 16 40.626 15.216 40.626 13.648ZM46.9981 6.896C46.2621 6.896 45.6861 6.352 45.6861 5.632C45.6861 4.896 46.2621 4.352 46.9981 4.352C47.7341 4.352 48.3101 4.896 48.3101 5.632C48.3101 6.352 47.7341 6.896 46.9981 6.896ZM45.8621 16V7.776H48.1341V16H45.8621ZM53.7063 16.096C51.0823 16.096 49.3703 14.416 49.3703 11.888C49.3703 9.36 51.0823 7.68 53.7063 7.68C56.3303 7.68 58.0423 9.36 58.0423 11.888C58.0423 14.432 56.3303 16.096 53.7063 16.096ZM53.7063 14.256C54.9703 14.256 55.7543 13.28 55.7543 11.888C55.7543 10.496 54.9703 9.52 53.7063 9.52C52.4423 9.52 51.6743 10.496 51.6743 11.888C51.6743 13.28 52.4423 14.256 53.7063 14.256ZM64.004 7.68C65.78 7.68 67.3 8.624 67.3 11.44V16H65.044V11.664C65.044 10.272 64.516 9.536 63.38 9.536C62.212 9.536 61.54 10.368 61.54 11.792V16H59.284V7.776H61.252L61.46 8.8C61.988 8.16 62.74 7.68 64.004 7.68ZM74.5623 5.824V4.8H76.8183V16H74.5143V8.752C74.3383 8.8 74.1463 8.816 73.9062 8.816H72.0343V6.912H73.6983C74.3383 6.912 74.5623 6.48 74.5623 5.824ZM84.4853 10.176C85.6853 10.416 86.6613 11.2 86.6613 12.832C86.6613 14.768 84.9973 16.096 82.3573 16.096C79.7173 16.096 78.0373 14.752 78.0373 12.352H80.3253C80.3573 13.616 81.2533 14.288 82.4693 14.288C83.5093 14.288 84.3253 13.696 84.3253 12.688C84.3253 11.808 83.6693 11.248 82.3733 11.248H81.2693V9.408H82.2453C83.4773 9.408 84.1013 8.784 84.1013 7.904C84.1013 6.992 83.3333 6.512 82.3733 6.512C81.2853 6.512 80.5173 7.184 80.4853 8.224H78.2293C78.2613 6.128 79.9573 4.704 82.4053 4.704C84.9333 4.704 86.4373 5.888 86.4373 7.728C86.4373 9.088 85.5893 9.888 84.4853 10.176ZM97.3963 12.368H91.7963V10.528H97.3963V12.368ZM103.088 16V4.8H104.48V16H103.088ZM110.459 7.744C112.299 7.744 113.755 8.752 113.755 11.456V16H112.443V11.536C112.443 9.84 111.659 8.944 110.235 8.944C108.699 8.944 107.771 10.08 107.771 11.92V16H106.459V7.84H107.595L107.771 8.944C108.251 8.32 109.083 7.744 110.459 7.744ZM116.035 13.872V9.04H114.563V7.84H116.035V5.552H117.347V7.84H119.459V9.04H117.347V13.856C117.347 14.544 117.587 14.8 118.291 14.8H119.587V16H118.163C116.595 16 116.035 15.312 116.035 13.872ZM124.281 16.096C121.833 16.096 120.233 14.416 120.233 11.92C120.233 9.44 121.801 7.744 124.105 7.744C126.409 7.744 127.913 9.2 127.977 11.616C127.977 11.792 127.961 11.984 127.945 12.176H121.609V12.288C121.657 13.84 122.633 14.928 124.185 14.928C125.337 14.928 126.233 14.32 126.505 13.264H127.833C127.513 14.896 126.169 16.096 124.281 16.096ZM121.689 11.088H126.569C126.441 9.68 125.481 8.896 124.121 8.896C122.921 8.896 121.817 9.76 121.689 11.088ZM133.25 7.84H133.618V9.12H132.962C131.25 9.12 130.786 10.544 130.786 11.84V16H129.474V7.84H130.61L130.786 9.072C131.17 8.448 131.794 7.84 133.25 7.84ZM134.188 9.04V7.84H135.66V6.928C135.66 5.488 136.268 4.8 137.788 4.8H139.276V6H137.868C137.212 6 136.972 6.272 136.972 6.896V7.84H139.276V9.04H136.972V16H135.66V9.04H134.188ZM143.609 16.096C141.161 16.096 139.561 14.416 139.561 11.92C139.561 9.44 141.129 7.744 143.433 7.744C145.737 7.744 147.241 9.2 147.305 11.616C147.305 11.792 147.289 11.984 147.273 12.176H140.937V12.288C140.985 13.84 141.961 14.928 143.513 14.928C144.665 14.928 145.561 14.32 145.833 13.264H147.161C146.841 14.896 145.497 16.096 143.609 16.096ZM141.017 11.088H145.897C145.769 9.68 144.809 8.896 143.449 8.896C142.249 8.896 141.145 9.76 141.017 11.088ZM152.578 7.84H152.946V9.12H152.29C150.578 9.12 150.114 10.544 150.114 11.84V16H148.802V7.84H149.938L150.114 9.072C150.498 8.448 151.122 7.84 152.578 7.84ZM157.375 16.096C154.927 16.096 153.327 14.416 153.327 11.92C153.327 9.44 154.895 7.744 157.199 7.744C159.503 7.744 161.007 9.2 161.071 11.616C161.071 11.792 161.055 11.984 161.039 12.176H154.703V12.288C154.751 13.84 155.727 14.928 157.279 14.928C158.431 14.928 159.327 14.32 159.599 13.264H160.927C160.607 14.896 159.263 16.096 157.375 16.096ZM154.783 11.088H159.663C159.535 9.68 158.575 8.896 157.215 8.896C156.015 8.896 154.911 9.76 154.783 11.088ZM168.627 16L165.987 7.84H167.363L169.395 14.48L171.539 7.84H172.755L174.787 14.48L176.915 7.84H178.243L175.523 16H174.083L172.115 9.936L170.067 16H168.627ZM179.943 6.464C179.463 6.464 179.095 6.112 179.095 5.616C179.095 5.12 179.463 4.768 179.943 4.768C180.423 4.768 180.791 5.12 180.791 5.616C180.791 6.112 180.423 6.464 179.943 6.464ZM179.271 16V7.84H180.583V16H179.271ZM182.988 13.872V9.04H181.516V7.84H182.988V5.552H184.3V7.84H186.412V9.04H184.3V13.856C184.3 14.544 184.54 14.8 185.244 14.8H186.54V16H185.116C183.548 16 182.988 15.312 182.988 13.872ZM191.677 7.744C193.501 7.744 194.989 8.752 194.989 11.456V16H193.677V11.536C193.677 9.84 192.861 8.944 191.453 8.944C189.933 8.944 188.989 10.08 188.989 11.92V16H187.677V4.8H188.989V9.184C189.469 8.416 190.301 7.744 191.677 7.744ZM199.985 9.04V7.84H201.457V6.928C201.457 5.488 202.065 4.8 203.585 4.8H205.073V6H203.665C203.009 6 202.769 6.272 202.769 6.896V7.84H205.073V9.04H202.769V16H201.457V9.04H199.985ZM212.987 14.8H213.403V16H212.683C211.595 16 211.227 15.536 211.211 14.736C210.699 15.472 209.883 16.096 208.475 16.096C206.683 16.096 205.467 15.2 205.467 13.712C205.467 12.08 206.603 11.168 208.747 11.168H211.147V10.608C211.147 9.552 210.395 8.912 209.115 8.912C207.963 8.912 207.195 9.456 207.035 10.288H205.723C205.915 8.688 207.211 7.744 209.179 7.744C211.259 7.744 212.459 8.784 212.459 10.688V14.256C212.459 14.688 212.619 14.8 212.987 14.8ZM211.147 12.672V12.272H208.619C207.451 12.272 206.795 12.704 206.795 13.632C206.795 14.432 207.483 14.976 208.571 14.976C210.203 14.976 211.147 14.032 211.147 12.672ZM215.02 13.872V9.04H213.548V7.84H215.02V5.552H216.332V7.84H218.444V9.04H216.332V13.856C216.332 14.544 216.572 14.8 217.276 14.8H218.572V16H217.148C215.58 16 215.02 15.312 215.02 13.872ZM223.265 16.096C220.817 16.096 219.217 14.416 219.217 11.92C219.217 9.44 220.785 7.744 223.089 7.744C225.393 7.744 226.897 9.2 226.961 11.616C226.961 11.792 226.945 11.984 226.929 12.176H220.593V12.288C220.641 13.84 221.617 14.928 223.169 14.928C224.321 14.928 225.217 14.32 225.489 13.264H226.817C226.497 14.896 225.153 16.096 223.265 16.096ZM220.673 11.088H225.553C225.425 9.68 224.465 8.896 223.105 8.896C221.905 8.896 220.801 9.76 220.673 11.088Z" fill="#131313"/>
<path d="M333.531 13.625L333.531 12.25L334.85 12.25L334.85 13.625L333.531 13.625Z" fill="#131313"/>
<path d="M346.714 13.625L346.714 12.25L348.033 12.25L348.033 13.625L346.714 13.625Z" fill="#131313"/>
<path d="M334.85 15L334.85 13.625L336.168 13.625L336.168 15L334.85 15Z" fill="#131313"/>
<path d="M345.396 15L345.396 13.625L346.714 13.625L346.714 15L345.396 15Z" fill="#131313"/>
<path d="M334.85 13.625L334.85 12.25L336.168 12.25L336.168 13.625L334.85 13.625Z" fill="#131313"/>
<path d="M345.396 13.625L345.396 12.25L346.714 12.25L346.714 13.625L345.396 13.625Z" fill="#131313"/>
<path d="M336.168 13.625L336.168 12.25L337.486 12.25L337.486 13.625L336.168 13.625Z" fill="#131313"/>
<path d="M344.078 13.625L344.078 12.25L345.396 12.25L345.396 13.625L344.078 13.625Z" fill="#131313"/>
<path d="M334.85 12.25L334.85 10.875L336.168 10.875L336.168 12.25L334.85 12.25Z" fill="#131313"/>
<path d="M345.396 12.25L345.396 10.875L346.714 10.875L346.714 12.25L345.396 12.25Z" fill="#131313"/>
<path d="M336.168 12.25L336.168 10.875L337.486 10.875L337.486 12.25L336.168 12.25Z" fill="#131313"/>
<path d="M344.078 12.25L344.078 10.875L345.396 10.875L345.396 12.25L344.078 12.25Z" fill="#131313"/>
<path d="M337.486 12.25L337.486 10.875L338.804 10.875L338.804 12.25L337.486 12.25Z" fill="#131313"/>
<path d="M334.85 10.875L334.85 9.5L336.168 9.5L336.168 10.875L334.85 10.875Z" fill="#131313"/>
<path d="M345.396 10.875L345.396 9.5L346.714 9.5L346.714 10.875L345.396 10.875Z" fill="#131313"/>
<path d="M336.168 10.875L336.168 9.5L337.486 9.5L337.486 10.875L336.168 10.875Z" fill="#131313"/>
<path d="M344.078 10.875L344.078 9.5L345.396 9.5L345.396 10.875L344.078 10.875Z" fill="#131313"/>
<path d="M337.486 10.875L337.486 9.5L338.804 9.5L338.804 10.875L337.486 10.875Z" fill="#131313"/>
<path d="M338.804 10.875L338.804 9.5L340.123 9.5L340.123 10.875L338.804 10.875Z" fill="#131313"/>
<path d="M341.441 10.875L341.441 9.5L342.759 9.5L342.759 10.875L341.441 10.875Z" fill="#131313"/>
<path d="M342.759 10.875L342.759 9.5L344.078 9.5L344.078 10.875L342.759 10.875Z" fill="#131313"/>
<path d="M342.759 12.25L342.759 10.875L344.078 10.875L344.078 12.25L342.759 12.25Z" fill="#131313"/>
<path d="M336.168 9.5L336.168 8.125L337.486 8.125L337.486 9.5L336.168 9.5Z" fill="#131313"/>
<path d="M344.078 9.5L344.078 8.125L345.396 8.125L345.396 9.5L344.078 9.5Z" fill="#131313"/>
<path d="M337.486 9.5L337.486 8.125L338.804 8.125L338.804 9.5L337.486 9.5Z" fill="#131313"/>
<path d="M338.804 9.5L338.804 8.125L340.123 8.125L340.123 9.5L338.804 9.5Z" fill="#131313"/>
<path d="M341.441 9.5L341.441 8.125L342.759 8.125L342.759 9.5L341.441 9.5Z" fill="#131313"/>
<path d="M342.759 9.5L342.759 8.125L344.078 8.125L344.078 9.5L342.759 9.5Z" fill="#131313"/>
<path d="M340.123 9.5L340.123 8.125L341.441 8.125L341.441 9.5L340.123 9.5Z" fill="#131313"/>
<path d="M337.486 8.125L337.486 6.75L338.804 6.75L338.804 8.125L337.486 8.125Z" fill="#131313"/>
<path d="M338.804 8.125L338.804 6.75L340.123 6.75L340.123 8.125L338.804 8.125Z" fill="#131313"/>
<path d="M341.441 8.125L341.441 6.75L342.759 6.75L342.759 8.125L341.441 8.125Z" fill="#131313"/>
<path d="M342.759 8.125L342.759 6.75L344.078 6.75L344.078 8.125L342.759 8.125Z" fill="#131313"/>
<path d="M340.123 8.125L340.123 6.75L341.441 6.75L341.441 8.125L340.123 8.125Z" fill="#131313"/>
<path d="M338.804 6.75L338.804 5.375L340.123 5.375L340.123 6.75L338.804 6.75Z" fill="#131313"/>
<path d="M340.123 5.375L340.123 4L341.441 4L341.441 5.375L340.123 5.375Z" fill="#131313"/>
<path d="M340.123 6.75L340.123 5.375L341.441 5.375L341.441 6.75L340.123 6.75Z" fill="#131313"/>
<path d="M341.441 6.75L341.441 5.375L342.759 5.375L342.759 6.75L341.441 6.75Z" fill="#131313"/>
<path d="M333.531 12.25L333.531 10.875L334.85 10.875L334.85 12.25L333.531 12.25Z" fill="#131313"/>
<path d="M346.714 12.25L346.714 10.875L348.033 10.875L348.033 12.25L346.714 12.25Z" fill="#131313"/>
<rect x="0.5" y="32.5" width="173" height="29" fill="#FD9DAF"/>
<rect x="0.5" y="32.5" width="173" height="29" stroke="#131313"/>
<path d="M11.5059 48.38L8.42188 43.1H10.5219L12.4059 46.544L14.3859 43.1H16.3899L13.3059 48.38V51.5H11.5059V48.38ZM18.9251 51.572C16.8731 51.572 15.6371 50.336 15.6371 48.428C15.6371 46.508 16.8971 45.26 18.8051 45.26C20.6531 45.26 21.9011 46.412 21.9251 48.224C21.9251 48.404 21.9131 48.608 21.8771 48.8H17.4011V48.884C17.4371 49.76 18.0011 50.288 18.8531 50.288C19.5371 50.288 20.0171 49.988 20.1611 49.412H21.8291C21.6371 50.612 20.5691 51.572 18.9251 51.572ZM17.4371 47.696H20.2211C20.1011 46.94 19.5851 46.52 18.8171 46.52C18.0851 46.52 17.5331 46.964 17.4371 47.696ZM22.5148 49.448H24.1228C24.1828 49.988 24.6508 50.36 25.4788 50.36C26.1868 50.36 26.6188 50.132 26.6188 49.7C26.6188 49.196 26.1988 49.16 25.2028 49.028C23.7628 48.86 22.6468 48.536 22.6468 47.264C22.6468 46.04 23.7148 45.236 25.2988 45.248C26.9548 45.248 28.0948 45.98 28.1788 47.24H26.5588C26.5108 46.748 26.0428 46.448 25.3588 46.448C24.6988 46.448 24.2668 46.688 24.2668 47.084C24.2668 47.552 24.7948 47.6 25.6828 47.708C27.0988 47.852 28.2748 48.176 28.2748 49.568C28.2748 50.792 27.1228 51.572 25.4668 51.572C23.7508 51.572 22.5868 50.768 22.5148 49.448Z" fill="#131313"/>
<path d="M37.197 49.448V48.548L41.481 43.1H42.609V48.524H43.965V49.448H42.609V51.5H41.601V49.448H37.197ZM41.601 44.336L38.325 48.524H41.601V44.336ZM45.26 50.18C44.84 49.448 44.6 48.44 44.6 47.336C44.6 44.696 45.788 43.028 47.792 43.028C49.316 43.028 50.36 43.94 50.564 45.344H49.556C49.364 44.492 48.764 43.916 47.744 43.916C46.28 43.916 45.476 45.248 45.476 47.144C45.476 47.264 45.476 47.348 45.488 47.552C45.5 47.504 45.512 47.432 45.56 47.324C45.932 46.496 46.772 45.944 47.9 45.944C49.556 45.944 50.72 47.036 50.72 48.752C50.72 50.372 49.532 51.572 47.804 51.572C46.64 51.572 45.788 51.044 45.26 50.18ZM49.712 48.752C49.712 47.636 48.992 46.832 47.828 46.832C46.664 46.832 45.872 47.624 45.872 48.776C45.872 49.904 46.64 50.684 47.792 50.684C48.956 50.684 49.712 49.88 49.712 48.752ZM51.3625 50.9C51.3625 50.492 51.6505 50.228 52.0465 50.228C52.4425 50.228 52.7305 50.492 52.7305 50.9C52.7305 51.308 52.4425 51.572 52.0465 51.572C51.6505 51.572 51.3625 51.308 51.3625 50.9ZM53.0994 49.448V48.548L57.3834 43.1H58.5114V48.524H59.8674V49.448H58.5114V51.5H57.5034V49.448H53.0994ZM57.5034 44.336L54.2274 48.524H57.5034V44.336ZM62.3263 42.812C62.9183 42.812 63.3663 43.048 63.6703 43.52C63.9743 43.984 64.1263 44.64 64.1263 45.488C64.1263 46.336 63.9783 47 63.6823 47.48C63.3943 47.952 62.9423 48.188 62.3263 48.188C61.9503 48.188 61.6303 48.08 61.3663 47.864C61.1023 47.648 60.9023 47.34 60.7663 46.94C60.6383 46.532 60.5743 46.048 60.5743 45.488C60.5743 44.64 60.7143 43.984 60.9943 43.52C61.2743 43.048 61.7183 42.812 62.3263 42.812ZM62.3263 43.556C62.0223 43.556 61.7983 43.72 61.6543 44.048C61.5183 44.368 61.4503 44.848 61.4503 45.488C61.4503 46.128 61.5183 46.612 61.6543 46.94C61.7983 47.268 62.0223 47.432 62.3263 47.432C62.6383 47.432 62.8703 47.272 63.0223 46.952C63.1743 46.624 63.2503 46.136 63.2503 45.488C63.2503 44.848 63.1743 44.368 63.0223 44.048C62.8703 43.72 62.6383 43.556 62.3263 43.556ZM67.8103 42.932L63.0583 51.5H62.1343L66.8863 42.932H67.8103ZM67.5703 46.244C67.9623 46.244 68.2903 46.352 68.5543 46.568C68.8183 46.776 69.0183 47.08 69.1543 47.48C69.2983 47.872 69.3703 48.352 69.3703 48.92C69.3703 49.768 69.2223 50.432 68.9263 50.912C68.6383 51.384 68.1863 51.62 67.5703 51.62C67.1943 51.62 66.8743 51.512 66.6103 51.296C66.3463 51.08 66.1463 50.772 66.0103 50.372C65.8823 49.964 65.8183 49.48 65.8183 48.92C65.8183 48.072 65.9583 47.416 66.2383 46.952C66.5183 46.48 66.9623 46.244 67.5703 46.244ZM67.5703 47C67.2663 47 67.0423 47.16 66.8983 47.48C66.7623 47.8 66.6943 48.28 66.6943 48.92C66.6943 49.568 66.7623 50.056 66.8983 50.384C67.0423 50.704 67.2663 50.864 67.5703 50.864C67.8823 50.864 68.1143 50.704 68.2663 50.384C68.4183 50.064 68.4943 49.576 68.4943 48.92C68.4943 48.28 68.4183 47.8 68.2663 47.48C68.1143 47.16 67.8823 47 67.5703 47Z" fill="#131313"/>
<mask id="path-6-inside-1_538_2884" fill="white">
<path d="M174 32H349V62H174V32Z"/>
</mask>
<path d="M174 32H349V62H174V32Z" fill="#FCD290"/>
<path d="M349 32H350V31H349V32ZM349 62V63H350V62H349ZM174 33H349V31H174V33ZM348 32V62H350V32H348ZM349 61H174V63H349V61Z" fill="#131313" mask="url(#path-6-inside-1_538_2884)"/>
<path d="M184.685 51.5H182.921V43.1H184.553L188.117 48.392V43.1H189.893V51.5H188.249L184.685 46.208V51.5ZM194.204 51.572C192.236 51.572 190.952 50.312 190.952 48.416C190.952 46.52 192.236 45.26 194.204 45.26C196.172 45.26 197.456 46.52 197.456 48.416C197.456 50.324 196.172 51.572 194.204 51.572ZM194.204 50.192C195.152 50.192 195.74 49.46 195.74 48.416C195.74 47.372 195.152 46.64 194.204 46.64C193.256 46.64 192.68 47.372 192.68 48.416C192.68 49.46 193.256 50.192 194.204 50.192Z" fill="#131313"/>
<path d="M209.965 45.872C211.609 45.872 212.749 47.024 212.749 48.692C212.749 50.552 211.381 51.56 209.809 51.56C207.937 51.56 206.857 50.348 206.773 48.884H207.769C207.865 49.856 208.597 50.66 209.809 50.66C210.793 50.66 211.717 50 211.717 48.704C211.717 47.564 210.985 46.76 209.821 46.76C209.305 46.76 208.273 46.904 207.913 47.9L206.941 47.876L207.217 43.1H212.245V44.024H208.141L207.949 46.676C208.465 46.064 209.185 45.872 209.965 45.872ZM217.913 47.132C218.681 47.276 219.485 47.888 219.485 49.172C219.485 50.6 218.285 51.572 216.461 51.572C214.637 51.572 213.461 50.576 213.461 48.908H214.457C214.469 50.012 215.333 50.672 216.521 50.672C217.613 50.672 218.453 50.06 218.453 49.1C218.453 48.224 217.733 47.66 216.425 47.66H215.705V46.784H216.365C217.613 46.784 218.237 46.16 218.237 45.308C218.237 44.456 217.469 43.928 216.461 43.928C215.405 43.928 214.637 44.564 214.625 45.524H213.629C213.641 44.048 214.793 43.028 216.449 43.028C218.177 43.028 219.269 43.928 219.269 45.248C219.269 46.304 218.717 46.916 217.913 47.132ZM220.24 50.9C220.24 50.492 220.528 50.228 220.924 50.228C221.32 50.228 221.608 50.492 221.608 50.9C221.608 51.308 221.32 51.572 220.924 51.572C220.528 51.572 220.24 51.308 220.24 50.9ZM222.797 50.18C222.377 49.448 222.137 48.44 222.137 47.336C222.137 44.696 223.325 43.028 225.329 43.028C226.853 43.028 227.897 43.94 228.101 45.344H227.093C226.901 44.492 226.301 43.916 225.281 43.916C223.817 43.916 223.013 45.248 223.013 47.144C223.013 47.264 223.013 47.348 223.025 47.552C223.037 47.504 223.049 47.432 223.097 47.324C223.469 46.496 224.309 45.944 225.437 45.944C227.093 45.944 228.257 47.036 228.257 48.752C228.257 50.372 227.069 51.572 225.341 51.572C224.177 51.572 223.325 51.044 222.797 50.18ZM227.249 48.752C227.249 47.636 226.529 46.832 225.365 46.832C224.201 46.832 223.409 47.624 223.409 48.776C223.409 49.904 224.177 50.684 225.329 50.684C226.493 50.684 227.249 49.88 227.249 48.752ZM231.063 42.812C231.655 42.812 232.103 43.048 232.407 43.52C232.711 43.984 232.863 44.64 232.863 45.488C232.863 46.336 232.715 47 232.419 47.48C232.131 47.952 231.679 48.188 231.063 48.188C230.687 48.188 230.367 48.08 230.103 47.864C229.839 47.648 229.639 47.34 229.503 46.94C229.375 46.532 229.311 46.048 229.311 45.488C229.311 44.64 229.451 43.984 229.731 43.52C230.011 43.048 230.455 42.812 231.063 42.812ZM231.063 43.556C230.759 43.556 230.535 43.72 230.391 44.048C230.255 44.368 230.187 44.848 230.187 45.488C230.187 46.128 230.255 46.612 230.391 46.94C230.535 47.268 230.759 47.432 231.063 47.432C231.375 47.432 231.607 47.272 231.759 46.952C231.911 46.624 231.987 46.136 231.987 45.488C231.987 44.848 231.911 44.368 231.759 44.048C231.607 43.72 231.375 43.556 231.063 43.556ZM236.547 42.932L231.795 51.5H230.871L235.623 42.932H236.547ZM236.307 46.244C236.699 46.244 237.027 46.352 237.291 46.568C237.555 46.776 237.755 47.08 237.891 47.48C238.035 47.872 238.107 48.352 238.107 48.92C238.107 49.768 237.959 50.432 237.663 50.912C237.375 51.384 236.923 51.62 236.307 51.62C235.931 51.62 235.611 51.512 235.347 51.296C235.083 51.08 234.883 50.772 234.747 50.372C234.619 49.964 234.555 49.48 234.555 48.92C234.555 48.072 234.695 47.416 234.975 46.952C235.255 46.48 235.699 46.244 236.307 46.244ZM236.307 47C236.003 47 235.779 47.16 235.635 47.48C235.499 47.8 235.431 48.28 235.431 48.92C235.431 49.568 235.499 50.056 235.635 50.384C235.779 50.704 236.003 50.864 236.307 50.864C236.619 50.864 236.851 50.704 237.003 50.384C237.155 50.064 237.231 49.576 237.231 48.92C237.231 48.28 237.155 47.8 237.003 47.48C236.851 47.16 236.619 47 236.307 47Z" fill="#131313"/>
</svg>
