<svg width="349" height="62" viewBox="0 0 349 62" fill="none" xmlns="http://www.w3.org/2000/svg">
<path d="M10.928 13.936H12.032V16H10.88C9.92 16 9.52 15.728 9.136 15.248C8.288 15.792 7.232 16.096 6.064 16.096C2.768 16.096 0.512 13.664 0.512 10.4C0.512 7.136 2.768 4.704 6.064 4.704C9.36 4.704 11.616 7.136 11.616 10.4C11.616 11.728 11.248 12.928 10.576 13.872C10.672 13.904 10.784 13.936 10.928 13.936ZM2.96 10.4C2.96 12.512 4.176 14.064 6.064 14.064C6.72 14.064 7.296 13.872 7.776 13.536L7.616 13.344C7.376 13.024 7.168 12.848 6.816 12.848H5.776V10.816H6.992C7.936 10.816 8.256 11.152 8.64 11.632L8.896 11.952C9.072 11.488 9.152 10.96 9.152 10.4C9.152 8.288 7.936 6.736 6.064 6.736C4.176 6.736 2.96 8.288 2.96 10.4ZM18.4908 11.888V7.776H20.7468V16H18.7468L18.5388 15.008C18.0108 15.648 17.2908 16.096 16.1228 16.096C14.4268 16.096 12.8588 15.248 12.8588 12.336V7.776H15.1148V12.032C15.1148 13.504 15.5948 14.224 16.7148 14.224C17.8348 14.224 18.4908 13.408 18.4908 11.888ZM26.3793 16.096C23.6432 16.096 21.9953 14.448 21.9953 11.904C21.9953 9.344 23.6753 7.68 26.2193 7.68C28.6833 7.68 30.3472 9.216 30.3793 11.632C30.3793 11.872 30.3633 12.144 30.3153 12.4H24.3473V12.512C24.3953 13.68 25.1473 14.384 26.2833 14.384C27.1953 14.384 27.8353 13.984 28.0273 13.216H30.2513C29.9953 14.816 28.5713 16.096 26.3793 16.096ZM24.3953 10.928H28.1073C27.9473 9.92 27.2593 9.36 26.2352 9.36C25.2593 9.36 24.5233 9.952 24.3953 10.928ZM31.1656 13.264H33.3096C33.3896 13.984 34.0136 14.48 35.1176 14.48C36.0616 14.48 36.6376 14.176 36.6376 13.6C36.6376 12.928 36.0776 12.88 34.7496 12.704C32.8296 12.48 31.3416 12.048 31.3416 10.352C31.3416 8.72 32.7656 7.648 34.8776 7.664C37.0856 7.664 38.6056 8.64 38.7176 10.32H36.5576C36.4936 9.664 35.8696 9.264 34.9576 9.264C34.0776 9.264 33.5016 9.584 33.5016 10.112C33.5016 10.736 34.2056 10.8 35.3896 10.944C37.2776 11.136 38.8456 11.568 38.8456 13.424C38.8456 15.056 37.3096 16.096 35.1016 16.096C32.8136 16.096 31.2616 15.024 31.1656 13.264ZM40.626 13.648V9.68H39.266V7.776H40.626V5.472H42.882V7.776H44.77V9.68H42.882V13.28C42.882 13.856 43.106 14.096 43.698 14.096H44.818V16H42.978C41.41 16 40.626 15.216 40.626 13.648ZM46.9981 6.896C46.2621 6.896 45.6861 6.352 45.6861 5.632C45.6861 4.896 46.2621 4.352 46.9981 4.352C47.7341 4.352 48.3101 4.896 48.3101 5.632C48.3101 6.352 47.7341 6.896 46.9981 6.896ZM45.8621 16V7.776H48.1341V16H45.8621ZM53.7063 16.096C51.0823 16.096 49.3703 14.416 49.3703 11.888C49.3703 9.36 51.0823 7.68 53.7063 7.68C56.3303 7.68 58.0423 9.36 58.0423 11.888C58.0423 14.432 56.3303 16.096 53.7063 16.096ZM53.7063 14.256C54.9703 14.256 55.7543 13.28 55.7543 11.888C55.7543 10.496 54.9703 9.52 53.7063 9.52C52.4423 9.52 51.6743 10.496 51.6743 11.888C51.6743 13.28 52.4423 14.256 53.7063 14.256ZM64.004 7.68C65.78 7.68 67.3 8.624 67.3 11.44V16H65.044V11.664C65.044 10.272 64.516 9.536 63.38 9.536C62.212 9.536 61.54 10.368 61.54 11.792V16H59.284V7.776H61.252L61.46 8.8C61.988 8.16 62.74 7.68 64.004 7.68ZM74.5623 5.824V4.8H76.8183V16H74.5143V8.752C74.3383 8.8 74.1463 8.816 73.9062 8.816H72.0343V6.912H73.6983C74.3383 6.912 74.5623 6.48 74.5623 5.824ZM78.0053 13.6V11.696L82.9493 4.8H85.7493V11.68H87.3013V13.6H85.7493V16H83.4933V13.6H78.0053ZM83.4933 7.088L80.2133 11.68H83.4933V7.088ZM87.9365 14.768C87.9365 13.984 88.5125 13.424 89.2965 13.424C90.0645 13.424 90.6565 13.984 90.6565 14.768C90.6565 15.536 90.0645 16.096 89.2965 16.096C88.5125 16.096 87.9365 15.536 87.9365 14.768ZM96.0456 8.368C98.3016 8.368 99.8216 9.92 99.8216 12.208C99.8216 14.784 97.9016 16.096 95.5816 16.096C92.9896 16.096 91.3896 14.448 91.2936 12.4H93.5816C93.6936 13.408 94.3976 14.208 95.5976 14.208C96.5736 14.208 97.5016 13.536 97.5016 12.208C97.5016 11.024 96.7496 10.192 95.5816 10.192C94.9576 10.192 94.0936 10.432 93.6936 11.36H91.4696L91.7896 4.8H99.1496V6.736H93.8856L93.7576 9.184C94.3176 8.672 95.0536 8.368 96.0456 8.368ZM105.031 11.616C105.031 10.7413 105.111 9.888 105.271 9.056C105.441 8.224 105.703 7.42933 106.055 6.672C106.407 5.91467 106.849 5.216 107.383 4.576H108.711C108.22 5.23733 107.804 5.952 107.463 6.72C107.132 7.488 106.881 8.28267 106.711 9.104C106.54 9.92533 106.455 10.7573 106.455 11.6C106.455 12.4213 106.54 13.2373 106.711 14.048C106.881 14.8587 107.132 15.6373 107.463 16.384C107.793 17.1413 108.204 17.856 108.695 18.528H107.383C106.849 17.8987 106.407 17.2107 106.055 16.464C105.703 15.728 105.441 14.9493 105.271 14.128C105.111 13.3067 105.031 12.4693 105.031 11.616ZM111.636 16H110.276V4.8H111.556L117.572 13.44V4.8H118.932V16H117.652L111.636 7.36V16ZM124.672 16.096C122.288 16.096 120.624 14.4 120.624 11.92C120.624 9.44 122.288 7.744 124.672 7.744C127.056 7.744 128.72 9.44 128.72 11.92C128.72 14.4 127.056 16.096 124.672 16.096ZM124.672 14.928C126.288 14.928 127.376 13.664 127.376 11.92C127.376 10.176 126.288 8.912 124.672 8.912C123.056 8.912 121.968 10.176 121.968 11.92C121.968 13.664 123.056 14.928 124.672 14.928ZM133.488 11.616C133.488 12.4693 133.403 13.3067 133.232 14.128C133.072 14.9493 132.816 15.728 132.464 16.464C132.123 17.2107 131.68 17.8987 131.136 18.528H129.824C130.315 17.856 130.725 17.1413 131.056 16.384C131.387 15.6373 131.637 14.8587 131.808 14.048C131.979 13.2373 132.064 12.4213 132.064 11.6C132.064 10.7573 131.979 9.92533 131.808 9.104C131.637 8.28267 131.387 7.488 131.056 6.72C130.725 5.952 130.309 5.23733 129.808 4.576H131.136C131.68 5.216 132.123 5.91467 132.464 6.672C132.816 7.42933 133.072 8.224 133.232 9.056C133.403 9.888 133.488 10.7413 133.488 11.616Z" fill="#131313"/>
<path d="M333.531 13.625L333.531 12.25L334.85 12.25L334.85 13.625L333.531 13.625Z" fill="#131313"/>
<path d="M346.714 13.625L346.714 12.25L348.033 12.25L348.033 13.625L346.714 13.625Z" fill="#131313"/>
<path d="M334.85 15L334.85 13.625L336.168 13.625L336.168 15L334.85 15Z" fill="#131313"/>
<path d="M345.396 15L345.396 13.625L346.714 13.625L346.714 15L345.396 15Z" fill="#131313"/>
<path d="M334.85 13.625L334.85 12.25L336.168 12.25L336.168 13.625L334.85 13.625Z" fill="#131313"/>
<path d="M345.396 13.625L345.396 12.25L346.714 12.25L346.714 13.625L345.396 13.625Z" fill="#131313"/>
<path d="M336.168 13.625L336.168 12.25L337.486 12.25L337.486 13.625L336.168 13.625Z" fill="#131313"/>
<path d="M344.078 13.625L344.078 12.25L345.396 12.25L345.396 13.625L344.078 13.625Z" fill="#131313"/>
<path d="M334.85 12.25L334.85 10.875L336.168 10.875L336.168 12.25L334.85 12.25Z" fill="#131313"/>
<path d="M345.396 12.25L345.396 10.875L346.714 10.875L346.714 12.25L345.396 12.25Z" fill="#131313"/>
<path d="M336.168 12.25L336.168 10.875L337.486 10.875L337.486 12.25L336.168 12.25Z" fill="#131313"/>
<path d="M344.078 12.25L344.078 10.875L345.396 10.875L345.396 12.25L344.078 12.25Z" fill="#131313"/>
<path d="M337.486 12.25L337.486 10.875L338.804 10.875L338.804 12.25L337.486 12.25Z" fill="#131313"/>
<path d="M334.85 10.875L334.85 9.5L336.168 9.5L336.168 10.875L334.85 10.875Z" fill="#131313"/>
<path d="M345.396 10.875L345.396 9.5L346.714 9.5L346.714 10.875L345.396 10.875Z" fill="#131313"/>
<path d="M336.168 10.875L336.168 9.5L337.486 9.5L337.486 10.875L336.168 10.875Z" fill="#131313"/>
<path d="M344.078 10.875L344.078 9.5L345.396 9.5L345.396 10.875L344.078 10.875Z" fill="#131313"/>
<path d="M337.486 10.875L337.486 9.5L338.804 9.5L338.804 10.875L337.486 10.875Z" fill="#131313"/>
<path d="M338.804 10.875L338.804 9.5L340.123 9.5L340.123 10.875L338.804 10.875Z" fill="#131313"/>
<path d="M341.441 10.875L341.441 9.5L342.759 9.5L342.759 10.875L341.441 10.875Z" fill="#131313"/>
<path d="M342.759 10.875L342.759 9.5L344.078 9.5L344.078 10.875L342.759 10.875Z" fill="#131313"/>
<path d="M342.759 12.25L342.759 10.875L344.078 10.875L344.078 12.25L342.759 12.25Z" fill="#131313"/>
<path d="M336.168 9.5L336.168 8.125L337.486 8.125L337.486 9.5L336.168 9.5Z" fill="#131313"/>
<path d="M344.078 9.5L344.078 8.125L345.396 8.125L345.396 9.5L344.078 9.5Z" fill="#131313"/>
<path d="M337.486 9.5L337.486 8.125L338.804 8.125L338.804 9.5L337.486 9.5Z" fill="#131313"/>
<path d="M338.804 9.5L338.804 8.125L340.123 8.125L340.123 9.5L338.804 9.5Z" fill="#131313"/>
<path d="M341.441 9.5L341.441 8.125L342.759 8.125L342.759 9.5L341.441 9.5Z" fill="#131313"/>
<path d="M342.759 9.5L342.759 8.125L344.078 8.125L344.078 9.5L342.759 9.5Z" fill="#131313"/>
<path d="M340.123 9.5L340.123 8.125L341.441 8.125L341.441 9.5L340.123 9.5Z" fill="#131313"/>
<path d="M337.486 8.125L337.486 6.75L338.804 6.75L338.804 8.125L337.486 8.125Z" fill="#131313"/>
<path d="M338.804 8.125L338.804 6.75L340.123 6.75L340.123 8.125L338.804 8.125Z" fill="#131313"/>
<path d="M341.441 8.125L341.441 6.75L342.759 6.75L342.759 8.125L341.441 8.125Z" fill="#131313"/>
<path d="M342.759 8.125L342.759 6.75L344.078 6.75L344.078 8.125L342.759 8.125Z" fill="#131313"/>
<path d="M340.123 8.125L340.123 6.75L341.441 6.75L341.441 8.125L340.123 8.125Z" fill="#131313"/>
<path d="M338.804 6.75L338.804 5.375L340.123 5.375L340.123 6.75L338.804 6.75Z" fill="#131313"/>
<path d="M340.123 5.375L340.123 4L341.441 4L341.441 5.375L340.123 5.375Z" fill="#131313"/>
<path d="M340.123 6.75L340.123 5.375L341.441 5.375L341.441 6.75L340.123 6.75Z" fill="#131313"/>
<path d="M341.441 6.75L341.441 5.375L342.759 5.375L342.759 6.75L341.441 6.75Z" fill="#131313"/>
<path d="M333.531 12.25L333.531 10.875L334.85 10.875L334.85 12.25L333.531 12.25Z" fill="#131313"/>
<path d="M346.714 12.25L346.714 10.875L348.033 10.875L348.033 12.25L346.714 12.25Z" fill="#131313"/>
<rect x="0.5" y="32.5" width="70" height="29" fill="#FD9DAF"/>
<rect x="0.5" y="32.5" width="70" height="29" stroke="#131313"/>
<path d="M11.5059 48.38L8.42188 43.1H10.5219L12.4059 46.544L14.3859 43.1H16.3899L13.3059 48.38V51.5H11.5059V48.38ZM18.9251 51.572C16.8731 51.572 15.6371 50.336 15.6371 48.428C15.6371 46.508 16.8971 45.26 18.8051 45.26C20.6531 45.26 21.9011 46.412 21.9251 48.224C21.9251 48.404 21.9131 48.608 21.8771 48.8H17.4011V48.884C17.4371 49.76 18.0011 50.288 18.8531 50.288C19.5371 50.288 20.0171 49.988 20.1611 49.412H21.8291C21.6371 50.612 20.5691 51.572 18.9251 51.572ZM17.4371 47.696H20.2211C20.1011 46.94 19.5851 46.52 18.8171 46.52C18.0851 46.52 17.5331 46.964 17.4371 47.696ZM22.5148 49.448H24.1228C24.1828 49.988 24.6508 50.36 25.4788 50.36C26.1868 50.36 26.6188 50.132 26.6188 49.7C26.6188 49.196 26.1988 49.16 25.2028 49.028C23.7628 48.86 22.6468 48.536 22.6468 47.264C22.6468 46.04 23.7148 45.236 25.2988 45.248C26.9548 45.248 28.0948 45.98 28.1788 47.24H26.5588C26.5108 46.748 26.0428 46.448 25.3588 46.448C24.6988 46.448 24.2668 46.688 24.2668 47.084C24.2668 47.552 24.7948 47.6 25.6828 47.708C27.0988 47.852 28.2748 48.176 28.2748 49.568C28.2748 50.792 27.1228 51.572 25.4668 51.572C23.7508 51.572 22.5868 50.768 22.5148 49.448Z" fill="#131313"/>
<path d="M39.4376 44.012V43.1H40.4216V51.5H39.4136V45.476C39.2936 45.584 39.1016 45.632 38.8376 45.632H37.4816V44.732H38.8496C39.2456 44.732 39.4376 44.432 39.4376 44.012ZM41.7699 47.492V47.108C41.7699 44.72 43.0659 43.028 44.9619 43.028C46.8459 43.028 48.1419 44.72 48.1419 47.108V47.492C48.1419 50 46.8459 51.572 44.9619 51.572C43.0659 51.572 41.7699 50 41.7699 47.492ZM47.1219 47.456V47.144C47.1219 45.152 46.2579 43.952 44.9619 43.952C43.6539 43.952 42.7899 45.152 42.7899 47.144V47.456C42.7899 49.448 43.6539 50.648 44.9619 50.648C46.2579 50.648 47.1219 49.448 47.1219 47.456ZM48.6145 50.9C48.6145 50.492 48.9025 50.228 49.2985 50.228C49.6945 50.228 49.9825 50.492 49.9825 50.9C49.9825 51.308 49.6945 51.572 49.2985 51.572C48.9025 51.572 48.6145 51.308 48.6145 50.9ZM50.5371 44.024V43.1H56.4651V43.808L52.3371 51.5H51.2451L55.3611 44.024H50.5371ZM58.9338 42.812C59.5258 42.812 59.9738 43.048 60.2778 43.52C60.5818 43.984 60.7338 44.64 60.7338 45.488C60.7338 46.336 60.5858 47 60.2898 47.48C60.0018 47.952 59.5498 48.188 58.9338 48.188C58.5578 48.188 58.2378 48.08 57.9738 47.864C57.7098 47.648 57.5098 47.34 57.3738 46.94C57.2458 46.532 57.1818 46.048 57.1818 45.488C57.1818 44.64 57.3218 43.984 57.6018 43.52C57.8818 43.048 58.3258 42.812 58.9338 42.812ZM58.9338 43.556C58.6298 43.556 58.4058 43.72 58.2618 44.048C58.1258 44.368 58.0578 44.848 58.0578 45.488C58.0578 46.128 58.1258 46.612 58.2618 46.94C58.4058 47.268 58.6298 47.432 58.9338 47.432C59.2458 47.432 59.4778 47.272 59.6298 46.952C59.7818 46.624 59.8578 46.136 59.8578 45.488C59.8578 44.848 59.7818 44.368 59.6298 44.048C59.4778 43.72 59.2458 43.556 58.9338 43.556ZM64.4178 42.932L59.6658 51.5H58.7418L63.4938 42.932H64.4178ZM64.1778 46.244C64.5698 46.244 64.8978 46.352 65.1618 46.568C65.4258 46.776 65.6258 47.08 65.7618 47.48C65.9058 47.872 65.9778 48.352 65.9778 48.92C65.9778 49.768 65.8298 50.432 65.5338 50.912C65.2458 51.384 64.7938 51.62 64.1778 51.62C63.8018 51.62 63.4818 51.512 63.2178 51.296C62.9538 51.08 62.7538 50.772 62.6178 50.372C62.4898 49.964 62.4258 49.48 62.4258 48.92C62.4258 48.072 62.5658 47.416 62.8458 46.952C63.1258 46.48 63.5698 46.244 64.1778 46.244ZM64.1778 47C63.8738 47 63.6498 47.16 63.5058 47.48C63.3698 47.8 63.3018 48.28 63.3018 48.92C63.3018 49.568 63.3698 50.056 63.5058 50.384C63.6498 50.704 63.8738 50.864 64.1778 50.864C64.4898 50.864 64.7218 50.704 64.8738 50.384C65.0258 50.064 65.1018 49.576 65.1018 48.92C65.1018 48.28 65.0258 47.8 64.8738 47.48C64.7218 47.16 64.4898 47 64.1778 47Z" fill="#131313"/>
<mask id="path-6-inside-1_538_2889" fill="white">
<path d="M71 32H349V62H71V32Z"/>
</mask>
<path d="M71 32H349V62H71V32Z" fill="#FCD290"/>
<path d="M349 32H350V31H349V32ZM349 62V63H350V62H349ZM71 33H349V31H71V33ZM348 32V62H350V32H348ZM349 61H71V63H349V61Z" fill="#131313" mask="url(#path-6-inside-1_538_2889)"/>
<path d="M81.6852 51.5H79.9212V43.1H81.5532L85.1172 48.392V43.1H86.8932V51.5H85.2492L81.6852 46.208V51.5ZM91.2035 51.572C89.2355 51.572 87.9515 50.312 87.9515 48.416C87.9515 46.52 89.2355 45.26 91.2035 45.26C93.1715 45.26 94.4555 46.52 94.4555 48.416C94.4555 50.324 93.1715 51.572 91.2035 51.572ZM91.2035 50.192C92.1515 50.192 92.7395 49.46 92.7395 48.416C92.7395 47.372 92.1515 46.64 91.2035 46.64C90.2555 46.64 89.6795 47.372 89.6795 48.416C89.6795 49.46 90.2555 50.192 91.2035 50.192Z" fill="#131313"/>
<path d="M108.125 47.156C109.061 47.372 109.805 48.092 109.805 49.244C109.805 50.6 108.641 51.572 106.745 51.572C104.849 51.572 103.685 50.6 103.685 49.244C103.685 48.104 104.417 47.372 105.365 47.156C104.561 46.976 103.925 46.268 103.925 45.26C103.925 43.94 105.029 43.028 106.745 43.028C108.461 43.028 109.565 43.94 109.565 45.26C109.565 46.22 108.941 46.976 108.125 47.156ZM104.957 45.26C104.957 46.088 105.665 46.64 106.745 46.64C107.825 46.64 108.533 46.088 108.533 45.26C108.533 44.444 107.825 43.892 106.745 43.892C105.665 43.892 104.957 44.444 104.957 45.26ZM106.745 50.708C107.945 50.708 108.773 50.072 108.773 49.172C108.773 48.284 107.945 47.648 106.745 47.648C105.545 47.648 104.717 48.284 104.717 49.172C104.717 50.072 105.557 50.708 106.745 50.708ZM113.679 51.572C112.155 51.572 111.111 50.66 110.907 49.256H111.915C112.107 50.108 112.707 50.684 113.727 50.684C115.191 50.684 115.995 49.352 115.995 47.456C115.995 47.336 115.995 47.252 115.983 47.048C115.971 47.096 115.959 47.168 115.911 47.276C115.539 48.104 114.699 48.656 113.571 48.656C111.915 48.656 110.751 47.564 110.751 45.848C110.751 44.228 111.939 43.028 113.667 43.028C114.831 43.028 115.683 43.556 116.211 44.42C116.631 45.152 116.871 46.16 116.871 47.264C116.871 49.904 115.683 51.572 113.679 51.572ZM113.643 47.768C114.807 47.768 115.599 46.976 115.599 45.824C115.599 44.696 114.831 43.916 113.679 43.916C112.515 43.916 111.759 44.72 111.759 45.848C111.759 46.964 112.479 47.768 113.643 47.768ZM117.386 50.9C117.386 50.492 117.674 50.228 118.07 50.228C118.466 50.228 118.754 50.492 118.754 50.9C118.754 51.308 118.466 51.572 118.07 51.572C117.674 51.572 117.386 51.308 117.386 50.9ZM123.767 47.132C124.535 47.276 125.339 47.888 125.339 49.172C125.339 50.6 124.139 51.572 122.315 51.572C120.491 51.572 119.315 50.576 119.315 48.908H120.311C120.323 50.012 121.187 50.672 122.375 50.672C123.467 50.672 124.307 50.06 124.307 49.1C124.307 48.224 123.587 47.66 122.279 47.66H121.559V46.784H122.219C123.467 46.784 124.091 46.16 124.091 45.308C124.091 44.456 123.323 43.928 122.315 43.928C121.259 43.928 120.491 44.564 120.479 45.524H119.483C119.495 44.048 120.647 43.028 122.303 43.028C124.031 43.028 125.123 43.928 125.123 45.248C125.123 46.304 124.571 46.916 123.767 47.132ZM128.162 42.812C128.754 42.812 129.202 43.048 129.506 43.52C129.81 43.984 129.962 44.64 129.962 45.488C129.962 46.336 129.814 47 129.518 47.48C129.23 47.952 128.778 48.188 128.162 48.188C127.786 48.188 127.466 48.08 127.202 47.864C126.938 47.648 126.738 47.34 126.602 46.94C126.474 46.532 126.41 46.048 126.41 45.488C126.41 44.64 126.55 43.984 126.83 43.52C127.11 43.048 127.554 42.812 128.162 42.812ZM128.162 43.556C127.858 43.556 127.634 43.72 127.49 44.048C127.354 44.368 127.286 44.848 127.286 45.488C127.286 46.128 127.354 46.612 127.49 46.94C127.634 47.268 127.858 47.432 128.162 47.432C128.474 47.432 128.706 47.272 128.858 46.952C129.01 46.624 129.086 46.136 129.086 45.488C129.086 44.848 129.01 44.368 128.858 44.048C128.706 43.72 128.474 43.556 128.162 43.556ZM133.646 42.932L128.894 51.5H127.97L132.722 42.932H133.646ZM133.406 46.244C133.798 46.244 134.126 46.352 134.39 46.568C134.654 46.776 134.854 47.08 134.99 47.48C135.134 47.872 135.206 48.352 135.206 48.92C135.206 49.768 135.058 50.432 134.762 50.912C134.474 51.384 134.022 51.62 133.406 51.62C133.03 51.62 132.71 51.512 132.446 51.296C132.182 51.08 131.982 50.772 131.846 50.372C131.718 49.964 131.654 49.48 131.654 48.92C131.654 48.072 131.794 47.416 132.074 46.952C132.354 46.48 132.798 46.244 133.406 46.244ZM133.406 47C133.102 47 132.878 47.16 132.734 47.48C132.598 47.8 132.53 48.28 132.53 48.92C132.53 49.568 132.598 50.056 132.734 50.384C132.878 50.704 133.102 50.864 133.406 50.864C133.718 50.864 133.95 50.704 134.102 50.384C134.254 50.064 134.33 49.576 134.33 48.92C134.33 48.28 134.254 47.8 134.102 47.48C133.95 47.16 133.718 47 133.406 47Z" fill="#131313"/>
</svg>
