<svg width="335" height="227" viewBox="0 0 335 227" fill="none" xmlns="http://www.w3.org/2000/svg">
<mask id="path-1-outside-1_203_17005" maskUnits="userSpaceOnUse" x="226" y="0" width="109" height="109" fill="black">
<rect fill="white" x="226" width="109" height="109"/>
<path d="M304.364 2H294.818V11.5455H304.364V2Z"/>
<path d="M294.818 2H285.273V11.5455H294.818V2Z"/>
<path d="M285.273 2H275.727V11.5455H285.273V2Z"/>
<path d="M275.727 2H266.182V11.5455H275.727V2Z"/>
<path d="M266.182 2H256.636V11.5455H266.182V2Z"/>
<path d="M313.909 11.5455H304.364V21.0909H313.909V11.5455Z"/>
<path d="M323.455 21.0909H313.909V30.6364H323.455V21.0909Z"/>
<path d="M333 30.6364H323.455V40.1818H333V30.6364Z"/>
<path d="M333 40.1818H323.455V49.7273H333V40.1818Z"/>
<path d="M333 49.7273H323.455V59.2727H333V49.7273Z"/>
<path d="M333 59.2727H323.455V68.8182H333V59.2727Z"/>
<path d="M333 68.8182H323.455V78.3636H333V68.8182Z"/>
<path d="M323.455 78.3636H313.909V87.9091H323.455V78.3636Z"/>
<path d="M313.909 87.9091H304.364V97.4545H313.909V87.9091Z"/>
<path d="M304.364 97.4545H294.818V107H304.364V97.4545Z"/>
<path d="M294.818 97.4545H285.273V107H294.818V97.4545Z"/>
<path d="M285.273 97.4545H275.727V107H285.273V97.4545Z"/>
<path d="M275.727 97.4545H266.182V107H275.727V97.4545Z"/>
<path d="M266.182 97.4545H256.636V107H266.182V97.4545Z"/>
<path d="M256.636 87.9091H247.091V97.4545H256.636V87.9091Z"/>
<path d="M247.091 78.3636H237.545V87.9091H247.091V78.3636Z"/>
<path d="M237.545 68.8182H228V78.3636H237.545V68.8182Z"/>
<path d="M237.545 59.2727H228V68.8182H237.545V59.2727Z"/>
<path d="M237.545 49.7273H228V59.2727H237.545V49.7273Z"/>
<path d="M237.545 40.1818H228V49.7273H237.545V40.1818Z"/>
<path d="M237.545 30.6364H228V40.1818H237.545V30.6364Z"/>
<path d="M247.091 21.0909H237.545V30.6364H247.091V21.0909Z"/>
<path d="M256.636 11.5455H247.091V21.0909H256.636V11.5455Z"/>
<path d="M285.273 49.7273H275.727V59.2727H285.273V49.7273Z"/>
<path d="M285.273 40.1818H275.727V49.7273H285.273V40.1818Z"/>
<path d="M294.818 40.1818H285.273V49.7273H294.818V40.1818Z"/>
<path d="M294.818 49.7273H285.273V59.2727H294.818V49.7273Z"/>
<path d="M294.818 59.2727H285.273V68.8182H294.818V59.2727Z"/>
<path d="M285.273 59.2727H275.727V68.8182H285.273V59.2727Z"/>
<path d="M294.818 68.8182H285.273V78.3636H294.818V68.8182Z"/>
<path d="M285.273 68.8182H275.727V78.3636H285.273V68.8182Z"/>
<path d="M275.727 68.8182H266.182V78.3636H275.727V68.8182Z"/>
<path d="M266.182 78.3636H256.636V87.9091H266.182V78.3636Z"/>
<path d="M266.182 87.9091H256.636V97.4545H266.182V87.9091Z"/>
<path d="M285.273 78.3636H275.727V87.9091H285.273V78.3636Z"/>
<path d="M285.273 87.9091H275.727V97.4545H285.273V87.9091Z"/>
<path d="M304.364 78.3636H294.818V87.9091H304.364V78.3636Z"/>
<path d="M304.364 87.9091H294.818V97.4545H304.364V87.9091Z"/>
<path d="M275.727 78.3636H266.182V87.9091H275.727V78.3636Z"/>
<path d="M275.727 87.9091H266.182V97.4545H275.727V87.9091Z"/>
<path d="M294.818 78.3636H285.273V87.9091H294.818V78.3636Z"/>
<path d="M294.818 87.9091H285.273V97.4545H294.818V87.9091Z"/>
<path d="M313.909 78.3636H304.364V87.9091H313.909V78.3636Z"/>
<path d="M313.909 40.1818H304.364V49.7273H313.909V40.1818Z"/>
<path d="M313.909 49.7273H304.364V59.2727H313.909V49.7273Z"/>
<path d="M313.909 59.2727H304.364V68.8182H313.909V59.2727Z"/>
<path d="M313.909 68.8182H304.364V78.3636H313.909V68.8182Z"/>
<path d="M304.364 40.1818H294.818V49.7273H304.364V40.1818Z"/>
<path d="M304.364 49.7273H294.818V59.2727H304.364V49.7273Z"/>
<path d="M304.364 59.2727H294.818V68.8182H304.364V59.2727Z"/>
<path d="M304.364 68.8182H294.818V78.3636H304.364V68.8182Z"/>
<path d="M323.455 40.1818H313.909V49.7273H323.455V40.1818Z"/>
<path d="M323.455 49.7273H313.909V59.2727H323.455V49.7273Z"/>
<path d="M323.455 59.2727H313.909V68.8182H323.455V59.2727Z"/>
<path d="M323.455 68.8182H313.909V78.3636H323.455V68.8182Z"/>
<path d="M294.818 30.6364H285.273V40.1818H294.818V30.6364Z"/>
<path d="M304.364 30.6364H294.818V40.1818H304.364V30.6364Z"/>
<path d="M285.273 30.6364H275.727V40.1818H285.273V30.6364Z"/>
<path d="M275.727 30.6364H266.182V40.1818H275.727V30.6364Z"/>
<path d="M266.182 21.0909H256.636V30.6364H266.182V21.0909Z"/>
<path d="M266.182 11.5455H256.636V21.0909H266.182V11.5455Z"/>
<path d="M275.727 11.5455H266.182V21.0909H275.727V11.5455Z"/>
<path d="M275.727 21.0909H266.182V30.6364H275.727V21.0909Z"/>
<path d="M285.273 21.0909H275.727V30.6364H285.273V21.0909Z"/>
<path d="M285.273 11.5455H275.727V21.0909H285.273V11.5455Z"/>
<path d="M294.818 11.5455H285.273V21.0909H294.818V11.5455Z"/>
<path d="M304.364 11.5455H294.818V21.0909H304.364V11.5455Z"/>
<path d="M313.909 21.0909H304.364V30.6364H313.909V21.0909Z"/>
<path d="M313.909 30.6364H304.364V40.1818H313.909V30.6364Z"/>
<path d="M323.455 30.6364H313.909V40.1818H323.455V30.6364Z"/>
<path d="M294.818 21.0909H285.273V30.6364H294.818V21.0909Z"/>
<path d="M304.364 21.0909H294.818V30.6364H304.364V21.0909Z"/>
<path d="M275.727 49.7273H266.182V59.2727H275.727V49.7273Z"/>
<path d="M266.182 40.1818H256.636V49.7273H266.182V40.1818Z"/>
<path d="M266.182 49.7273H256.636V59.2727H266.182V49.7273Z"/>
<path d="M266.182 59.2727H256.636V68.8182H266.182V59.2727Z"/>
<path d="M256.636 59.2727H247.091V68.8182H256.636V59.2727Z"/>
<path d="M247.091 59.2727H237.545V68.8182H247.091V59.2727Z"/>
<path d="M256.636 49.7273H247.091V59.2727H256.636V49.7273Z"/>
<path d="M256.636 40.1818H247.091V49.7273H256.636V40.1818Z"/>
<path d="M256.636 30.6364H247.091V40.1818H256.636V30.6364Z"/>
<path d="M247.091 49.7273H237.545V59.2727H247.091V49.7273Z"/>
<path d="M247.091 40.1818H237.545V49.7273H247.091V40.1818Z"/>
<path d="M247.091 30.6364H237.545V40.1818H247.091V30.6364Z"/>
<path d="M256.636 68.8182H247.091V78.3636H256.636V68.8182Z"/>
<path d="M247.091 68.8182H237.545V78.3636H247.091V68.8182Z"/>
<path d="M275.727 59.2727H266.182V68.8182H275.727V59.2727Z"/>
<path d="M266.182 68.8182H256.636V78.3636H266.182V68.8182Z"/>
<path d="M256.636 78.3636H247.091V87.9091H256.636V78.3636Z"/>
<path d="M275.727 40.1818H266.182V49.7273H275.727V40.1818Z"/>
<path d="M266.182 30.6364H256.636V40.1818H266.182V30.6364Z"/>
<path d="M256.636 21.0909H247.091V30.6364H256.636V21.0909Z"/>
<path d="M275.727 40.1818H266.182V49.7273H275.727V40.1818Z"/>
</mask>
<path d="M304.364 2H294.818V11.5455H304.364V2Z" fill="#FCD290"/>
<path d="M294.818 2H285.273V11.5455H294.818V2Z" fill="#FCD290"/>
<path d="M285.273 2H275.727V11.5455H285.273V2Z" fill="#FCD290"/>
<path d="M275.727 2H266.182V11.5455H275.727V2Z" fill="#FCD290"/>
<path d="M266.182 2H256.636V11.5455H266.182V2Z" fill="#FCD290"/>
<path d="M313.909 11.5455H304.364V21.0909H313.909V11.5455Z" fill="#FCD290"/>
<path d="M323.455 21.0909H313.909V30.6364H323.455V21.0909Z" fill="#FCD290"/>
<path d="M333 30.6364H323.455V40.1818H333V30.6364Z" fill="#FCD290"/>
<path d="M333 40.1818H323.455V49.7273H333V40.1818Z" fill="#FCD290"/>
<path d="M333 49.7273H323.455V59.2727H333V49.7273Z" fill="#FCD290"/>
<path d="M333 59.2727H323.455V68.8182H333V59.2727Z" fill="#FCD290"/>
<path d="M333 68.8182H323.455V78.3636H333V68.8182Z" fill="#FCD290"/>
<path d="M323.455 78.3636H313.909V87.9091H323.455V78.3636Z" fill="#FCD290"/>
<path d="M313.909 87.9091H304.364V97.4545H313.909V87.9091Z" fill="#FCD290"/>
<path d="M304.364 97.4545H294.818V107H304.364V97.4545Z" fill="#FCD290"/>
<path d="M294.818 97.4545H285.273V107H294.818V97.4545Z" fill="#FCD290"/>
<path d="M285.273 97.4545H275.727V107H285.273V97.4545Z" fill="#FCD290"/>
<path d="M275.727 97.4545H266.182V107H275.727V97.4545Z" fill="#FCD290"/>
<path d="M266.182 97.4545H256.636V107H266.182V97.4545Z" fill="#FCD290"/>
<path d="M256.636 87.9091H247.091V97.4545H256.636V87.9091Z" fill="#FCD290"/>
<path d="M247.091 78.3636H237.545V87.9091H247.091V78.3636Z" fill="#FCD290"/>
<path d="M237.545 68.8182H228V78.3636H237.545V68.8182Z" fill="#FCD290"/>
<path d="M237.545 59.2727H228V68.8182H237.545V59.2727Z" fill="#FCD290"/>
<path d="M237.545 49.7273H228V59.2727H237.545V49.7273Z" fill="#FD9DAF"/>
<path d="M237.545 40.1818H228V49.7273H237.545V40.1818Z" fill="#FD9DAF"/>
<path d="M237.545 30.6364H228V40.1818H237.545V30.6364Z" fill="#FD9DAF"/>
<path d="M247.091 21.0909H237.545V30.6364H247.091V21.0909Z" fill="#FCD290"/>
<path d="M256.636 11.5455H247.091V21.0909H256.636V11.5455Z" fill="#FCD290"/>
<path d="M285.273 49.7273H275.727V59.2727H285.273V49.7273Z" fill="#FD9DAF"/>
<path d="M285.273 40.1818H275.727V49.7273H285.273V40.1818Z" fill="#FCD290"/>
<path d="M294.818 40.1818H285.273V49.7273H294.818V40.1818Z" fill="#FCD290"/>
<path d="M294.818 49.7273H285.273V59.2727H294.818V49.7273Z" fill="#FCD290"/>
<path d="M294.818 59.2727H285.273V68.8182H294.818V59.2727Z" fill="#FCD290"/>
<path d="M285.273 59.2727H275.727V68.8182H285.273V59.2727Z" fill="#FCD290"/>
<path d="M294.818 68.8182H285.273V78.3636H294.818V68.8182Z" fill="#FCD290"/>
<path d="M285.273 68.8182H275.727V78.3636H285.273V68.8182Z" fill="#FCD290"/>
<path d="M275.727 68.8182H266.182V78.3636H275.727V68.8182Z" fill="#FCD290"/>
<path d="M266.182 78.3636H256.636V87.9091H266.182V78.3636Z" fill="#FCD290"/>
<path d="M266.182 87.9091H256.636V97.4545H266.182V87.9091Z" fill="#FCD290"/>
<path d="M285.273 78.3636H275.727V87.9091H285.273V78.3636Z" fill="#FCD290"/>
<path d="M285.273 87.9091H275.727V97.4545H285.273V87.9091Z" fill="#FCD290"/>
<path d="M304.364 78.3636H294.818V87.9091H304.364V78.3636Z" fill="#FCD290"/>
<path d="M304.364 87.9091H294.818V97.4545H304.364V87.9091Z" fill="#FCD290"/>
<path d="M275.727 78.3636H266.182V87.9091H275.727V78.3636Z" fill="#FCD290"/>
<path d="M275.727 87.9091H266.182V97.4545H275.727V87.9091Z" fill="#FCD290"/>
<path d="M294.818 78.3636H285.273V87.9091H294.818V78.3636Z" fill="#FCD290"/>
<path d="M294.818 87.9091H285.273V97.4545H294.818V87.9091Z" fill="#FCD290"/>
<path d="M313.909 78.3636H304.364V87.9091H313.909V78.3636Z" fill="#FCD290"/>
<path d="M313.909 40.1818H304.364V49.7273H313.909V40.1818Z" fill="#FCD290"/>
<path d="M313.909 49.7273H304.364V59.2727H313.909V49.7273Z" fill="#FCD290"/>
<path d="M313.909 59.2727H304.364V68.8182H313.909V59.2727Z" fill="#FCD290"/>
<path d="M313.909 68.8182H304.364V78.3636H313.909V68.8182Z" fill="#FCD290"/>
<path d="M304.364 40.1818H294.818V49.7273H304.364V40.1818Z" fill="#FCD290"/>
<path d="M304.364 49.7273H294.818V59.2727H304.364V49.7273Z" fill="#FCD290"/>
<path d="M304.364 59.2727H294.818V68.8182H304.364V59.2727Z" fill="#FCD290"/>
<path d="M304.364 68.8182H294.818V78.3636H304.364V68.8182Z" fill="#FCD290"/>
<path d="M323.455 40.1818H313.909V49.7273H323.455V40.1818Z" fill="#FCD290"/>
<path d="M323.455 49.7273H313.909V59.2727H323.455V49.7273Z" fill="#FCD290"/>
<path d="M323.455 59.2727H313.909V68.8182H323.455V59.2727Z" fill="#FCD290"/>
<path d="M323.455 68.8182H313.909V78.3636H323.455V68.8182Z" fill="#FCD290"/>
<path d="M294.818 30.6364H285.273V40.1818H294.818V30.6364Z" fill="#FCD290"/>
<path d="M304.364 30.6364H294.818V40.1818H304.364V30.6364Z" fill="#FCD290"/>
<path d="M285.273 30.6364H275.727V40.1818H285.273V30.6364Z" fill="#FCD290"/>
<path d="M275.727 30.6364H266.182V40.1818H275.727V30.6364Z" fill="#FCD290"/>
<path d="M266.182 21.0909H256.636V30.6364H266.182V21.0909Z" fill="#FCD290"/>
<path d="M266.182 11.5455H256.636V21.0909H266.182V11.5455Z" fill="#FCD290"/>
<path d="M275.727 11.5455H266.182V21.0909H275.727V11.5455Z" fill="#FCD290"/>
<path d="M275.727 21.0909H266.182V30.6364H275.727V21.0909Z" fill="#FCD290"/>
<path d="M285.273 21.0909H275.727V30.6364H285.273V21.0909Z" fill="#FCD290"/>
<path d="M285.273 11.5455H275.727V21.0909H285.273V11.5455Z" fill="#FCD290"/>
<path d="M294.818 11.5455H285.273V21.0909H294.818V11.5455Z" fill="#FCD290"/>
<path d="M304.364 11.5455H294.818V21.0909H304.364V11.5455Z" fill="#FCD290"/>
<path d="M313.909 21.0909H304.364V30.6364H313.909V21.0909Z" fill="#FCD290"/>
<path d="M313.909 30.6364H304.364V40.1818H313.909V30.6364Z" fill="#FCD290"/>
<path d="M323.455 30.6364H313.909V40.1818H323.455V30.6364Z" fill="#FCD290"/>
<path d="M294.818 21.0909H285.273V30.6364H294.818V21.0909Z" fill="#FCD290"/>
<path d="M304.364 21.0909H294.818V30.6364H304.364V21.0909Z" fill="#FCD290"/>
<path d="M275.727 49.7273H266.182V59.2727H275.727V49.7273Z" fill="#FD9DAF"/>
<path d="M266.182 40.1818H256.636V49.7273H266.182V40.1818Z" fill="#FD9DAF"/>
<path d="M266.182 49.7273H256.636V59.2727H266.182V49.7273Z" fill="#FD9DAF"/>
<path d="M266.182 59.2727H256.636V68.8182H266.182V59.2727Z" fill="#FCD290"/>
<path d="M256.636 59.2727H247.091V68.8182H256.636V59.2727Z" fill="#FCD290"/>
<path d="M247.091 59.2727H237.545V68.8182H247.091V59.2727Z" fill="#FCD290"/>
<path d="M256.636 49.7273H247.091V59.2727H256.636V49.7273Z" fill="#FD9DAF"/>
<path d="M256.636 40.1818H247.091V49.7273H256.636V40.1818Z" fill="#FD9DAF"/>
<path d="M256.636 30.6364H247.091V40.1818H256.636V30.6364Z" fill="#FCD290"/>
<path d="M247.091 49.7273H237.545V59.2727H247.091V49.7273Z" fill="#FD9DAF"/>
<path d="M247.091 40.1818H237.545V49.7273H247.091V40.1818Z" fill="#FD9DAF"/>
<path d="M247.091 30.6364H237.545V40.1818H247.091V30.6364Z" fill="#FCD290"/>
<path d="M256.636 68.8182H247.091V78.3636H256.636V68.8182Z" fill="#FCD290"/>
<path d="M247.091 68.8182H237.545V78.3636H247.091V68.8182Z" fill="#FCD290"/>
<path d="M275.727 59.2727H266.182V68.8182H275.727V59.2727Z" fill="#FCD290"/>
<path d="M266.182 68.8182H256.636V78.3636H266.182V68.8182Z" fill="#FCD290"/>
<path d="M256.636 78.3636H247.091V87.9091H256.636V78.3636Z" fill="#FCD290"/>
<path d="M275.727 40.1818H266.182V49.7273H275.727V40.1818Z" fill="#FD9DAF"/>
<path d="M266.182 30.6364H256.636V40.1818H266.182V30.6364Z" fill="#FCD290"/>
<path d="M256.636 21.0909H247.091V30.6364H256.636V21.0909Z" fill="#FCD290"/>
<path d="M275.727 40.1818H266.182V49.7273H275.727V40.1818Z" fill="#FD9DAF"/>
<path d="M304.364 11.5455V10.7955H305.114V11.5455H304.364ZM256.636 11.5455H255.886V10.7955H256.636V11.5455ZM313.909 21.0909V20.3409H314.659V21.0909H313.909ZM323.455 30.6364V29.8864H324.205V30.6364H323.455ZM323.455 78.3636H324.205V79.1136H323.455V78.3636ZM313.909 87.9091H314.659V88.6591H313.909V87.9091ZM304.364 97.4545H305.114V98.2045H304.364V97.4545ZM256.636 97.4545V98.2045H255.886V97.4545H256.636ZM247.091 87.9091V88.6591H246.341V87.9091H247.091ZM237.545 78.3636V79.1136H236.795V78.3636H237.545ZM237.545 30.6364H236.795V29.8864H237.545V30.6364ZM247.091 21.0909H246.341V20.3409H247.091V21.0909ZM295.568 2V11.5455H294.068V2H295.568ZM294.818 10.7955H304.364V12.2955H294.818V10.7955ZM286.023 2V11.5455H284.523V2H286.023ZM285.273 10.7955H294.818V12.2955H285.273V10.7955ZM276.477 2V11.5455H274.977V2H276.477ZM275.727 10.7955H285.273V12.2955H275.727V10.7955ZM266.932 2V11.5455H265.432V2H266.932ZM266.182 10.7955H275.727V12.2955H266.182V10.7955ZM256.636 10.7955H266.182V12.2955H256.636V10.7955ZM305.114 11.5455V21.0909H303.614V11.5455H305.114ZM304.364 20.3409H313.909V21.8409H304.364V20.3409ZM314.659 21.0909V30.6364H313.159V21.0909H314.659ZM313.909 29.8864H323.455V31.3864H313.909V29.8864ZM324.205 30.6364V40.1818H322.705V30.6364H324.205ZM323.455 39.4318H333V40.9318H323.455V39.4318ZM324.205 40.1818V49.7273H322.705V40.1818H324.205ZM323.455 48.9773H333V50.4773H323.455V48.9773ZM324.205 49.7273V59.2727H322.705V49.7273H324.205ZM323.455 58.5227H333V60.0227H323.455V58.5227ZM324.205 59.2727V68.8182H322.705V59.2727H324.205ZM323.455 68.0682H333V69.5682H323.455V68.0682ZM324.205 68.8182V78.3636H322.705V68.8182H324.205ZM323.455 79.1136H313.909V77.6136H323.455V79.1136ZM314.659 78.3636V87.9091H313.159V78.3636H314.659ZM313.909 88.6591H304.364V87.1591H313.909V88.6591ZM305.114 87.9091V97.4545H303.614V87.9091H305.114ZM304.364 98.2045H294.818V96.7045H304.364V98.2045ZM295.568 97.4545V107H294.068V97.4545H295.568ZM294.818 98.2045H285.273V96.7045H294.818V98.2045ZM286.023 97.4545V107H284.523V97.4545H286.023ZM285.273 98.2045H275.727V96.7045H285.273V98.2045ZM276.477 97.4545V107H274.977V97.4545H276.477ZM275.727 98.2045H266.182V96.7045H275.727V98.2045ZM266.932 97.4545V107H265.432V97.4545H266.932ZM266.182 98.2045H256.636V96.7045H266.182V98.2045ZM256.636 88.6591H247.091V87.1591H256.636V88.6591ZM255.886 97.4545V87.9091H257.386V97.4545H255.886ZM247.091 79.1136H237.545V77.6136H247.091V79.1136ZM246.341 87.9091V78.3636H247.841V87.9091H246.341ZM237.545 69.5682H228V68.0682H237.545V69.5682ZM236.795 78.3636V68.8182H238.295V78.3636H236.795ZM237.545 60.0227H228V58.5227H237.545V60.0227ZM236.795 68.8182V59.2727H238.295V68.8182H236.795ZM237.545 50.4773H228V48.9773H237.545V50.4773ZM236.795 59.2727V49.7273H238.295V59.2727H236.795ZM237.545 40.9318H228V39.4318H237.545V40.9318ZM236.795 49.7273V40.1818H238.295V49.7273H236.795ZM236.795 40.1818V30.6364H238.295V40.1818H236.795ZM237.545 29.8864H247.091V31.3864H237.545V29.8864ZM246.341 30.6364V21.0909H247.841V30.6364H246.341ZM247.091 20.3409H256.636V21.8409H247.091V20.3409ZM255.886 21.0909V11.5455H257.386V21.0909H255.886ZM285.273 50.4773H275.727V48.9773H285.273V50.4773ZM276.477 49.7273V59.2727H274.977V49.7273H276.477ZM275.727 58.5227H285.273V60.0227H275.727V58.5227ZM284.523 59.2727V49.7273H286.023V59.2727H284.523ZM285.273 40.9318H275.727V39.4318H285.273V40.9318ZM276.477 40.1818V49.7273H274.977V40.1818H276.477ZM284.523 49.7273V40.1818H286.023V49.7273H284.523ZM294.818 40.9318H285.273V39.4318H294.818V40.9318ZM285.273 48.9773H294.818V50.4773H285.273V48.9773ZM294.068 49.7273V40.1818H295.568V49.7273H294.068ZM285.273 58.5227H294.818V60.0227H285.273V58.5227ZM294.068 59.2727V49.7273H295.568V59.2727H294.068ZM286.023 59.2727V68.8182H284.523V59.2727H286.023ZM285.273 68.0682H294.818V69.5682H285.273V68.0682ZM294.068 68.8182V59.2727H295.568V68.8182H294.068ZM276.477 59.2727V68.8182H274.977V59.2727H276.477ZM275.727 68.0682H285.273V69.5682H275.727V68.0682ZM286.023 68.8182V78.3636H284.523V68.8182H286.023ZM285.273 77.6136H294.818V79.1136H285.273V77.6136ZM294.068 78.3636V68.8182H295.568V78.3636H294.068ZM276.477 68.8182V78.3636H274.977V68.8182H276.477ZM275.727 77.6136H285.273V79.1136H275.727V77.6136ZM275.727 69.5682H266.182V68.0682H275.727V69.5682ZM266.932 68.8182V78.3636H265.432V68.8182H266.932ZM266.182 77.6136H275.727V79.1136H266.182V77.6136ZM266.182 79.1136H256.636V77.6136H266.182V79.1136ZM257.386 78.3636V87.9091H255.886V78.3636H257.386ZM256.636 87.1591H266.182V88.6591H256.636V87.1591ZM265.432 87.9091V78.3636H266.932V87.9091H265.432ZM265.432 97.4545V87.9091H266.932V97.4545H265.432ZM276.477 78.3636V87.9091H274.977V78.3636H276.477ZM275.727 87.1591H285.273V88.6591H275.727V87.1591ZM284.523 87.9091V78.3636H286.023V87.9091H284.523ZM276.477 87.9091V97.4545H274.977V87.9091H276.477ZM284.523 97.4545V87.9091H286.023V97.4545H284.523ZM304.364 79.1136H294.818V77.6136H304.364V79.1136ZM295.568 78.3636V87.9091H294.068V78.3636H295.568ZM294.818 87.1591H304.364V88.6591H294.818V87.1591ZM303.614 87.9091V78.3636H305.114V87.9091H303.614ZM295.568 87.9091V97.4545H294.068V87.9091H295.568ZM266.182 87.1591H275.727V88.6591H266.182V87.1591ZM285.273 87.1591H294.818V88.6591H285.273V87.1591ZM313.909 79.1136H304.364V77.6136H313.909V79.1136ZM313.909 40.9318H304.364V39.4318H313.909V40.9318ZM305.114 40.1818V49.7273H303.614V40.1818H305.114ZM304.364 48.9773H313.909V50.4773H304.364V48.9773ZM313.159 49.7273V40.1818H314.659V49.7273H313.159ZM305.114 49.7273V59.2727H303.614V49.7273H305.114ZM304.364 58.5227H313.909V60.0227H304.364V58.5227ZM313.159 59.2727V49.7273H314.659V59.2727H313.159ZM305.114 59.2727V68.8182H303.614V59.2727H305.114ZM304.364 68.0682H313.909V69.5682H304.364V68.0682ZM313.159 68.8182V59.2727H314.659V68.8182H313.159ZM305.114 68.8182V78.3636H303.614V68.8182H305.114ZM313.159 78.3636V68.8182H314.659V78.3636H313.159ZM304.364 40.9318H294.818V39.4318H304.364V40.9318ZM294.818 48.9773H304.364V50.4773H294.818V48.9773ZM294.818 58.5227H304.364V60.0227H294.818V58.5227ZM294.818 68.0682H304.364V69.5682H294.818V68.0682ZM323.455 40.9318H313.909V39.4318H323.455V40.9318ZM313.909 48.9773H323.455V50.4773H313.909V48.9773ZM313.909 58.5227H323.455V60.0227H313.909V58.5227ZM313.909 68.0682H323.455V69.5682H313.909V68.0682ZM294.818 31.3864H285.273V29.8864H294.818V31.3864ZM286.023 30.6364V40.1818H284.523V30.6364H286.023ZM294.068 40.1818V30.6364H295.568V40.1818H294.068ZM304.364 31.3864H294.818V29.8864H304.364V31.3864ZM303.614 40.1818V30.6364H305.114V40.1818H303.614ZM285.273 31.3864H275.727V29.8864H285.273V31.3864ZM276.477 30.6364V40.1818H274.977V30.6364H276.477ZM275.727 31.3864H266.182V29.8864H275.727V31.3864ZM266.932 30.6364V40.1818H265.432V30.6364H266.932ZM266.182 39.4318H275.727V40.9318H266.182V39.4318ZM266.182 21.8409H256.636V20.3409H266.182V21.8409ZM257.386 21.0909V30.6364H255.886V21.0909H257.386ZM256.636 29.8864H266.182V31.3864H256.636V29.8864ZM265.432 30.6364V21.0909H266.932V30.6364H265.432ZM265.432 21.0909V11.5455H266.932V21.0909H265.432ZM266.182 20.3409H275.727V21.8409H266.182V20.3409ZM274.977 21.0909V11.5455H276.477V21.0909H274.977ZM274.977 30.6364V21.0909H276.477V30.6364H274.977ZM285.273 21.8409H275.727V20.3409H285.273V21.8409ZM284.523 30.6364V21.0909H286.023V30.6364H284.523ZM284.523 21.0909V11.5455H286.023V21.0909H284.523ZM285.273 20.3409H294.818V21.8409H285.273V20.3409ZM294.068 21.0909V11.5455H295.568V21.0909H294.068ZM294.818 20.3409H304.364V21.8409H294.818V20.3409ZM305.114 21.0909V30.6364H303.614V21.0909H305.114ZM304.364 29.8864H313.909V31.3864H304.364V29.8864ZM313.159 40.1818V30.6364H314.659V40.1818H313.159ZM294.068 30.6364V21.0909H295.568V30.6364H294.068ZM275.727 50.4773H266.182V48.9773H275.727V50.4773ZM266.932 49.7273V59.2727H265.432V49.7273H266.932ZM266.182 58.5227H275.727V60.0227H266.182V58.5227ZM266.182 40.9318H256.636V39.4318H266.182V40.9318ZM257.386 40.1818V49.7273H255.886V40.1818H257.386ZM256.636 48.9773H266.182V50.4773H256.636V48.9773ZM265.432 49.7273V40.1818H266.932V49.7273H265.432ZM257.386 49.7273V59.2727H255.886V49.7273H257.386ZM256.636 58.5227H266.182V60.0227H256.636V58.5227ZM257.386 59.2727V68.8182H255.886V59.2727H257.386ZM256.636 68.0682H266.182V69.5682H256.636V68.0682ZM265.432 68.8182V59.2727H266.932V68.8182H265.432ZM256.636 60.0227H247.091V58.5227H256.636V60.0227ZM247.841 59.2727V68.8182H246.341V59.2727H247.841ZM247.091 68.0682H256.636V69.5682H247.091V68.0682ZM247.091 60.0227H237.545V58.5227H247.091V60.0227ZM237.545 68.0682H247.091V69.5682H237.545V68.0682ZM256.636 50.4773H247.091V48.9773H256.636V50.4773ZM247.841 49.7273V59.2727H246.341V49.7273H247.841ZM256.636 40.9318H247.091V39.4318H256.636V40.9318ZM247.841 40.1818V49.7273H246.341V40.1818H247.841ZM256.636 31.3864H247.091V29.8864H256.636V31.3864ZM247.841 30.6364V40.1818H246.341V30.6364H247.841ZM255.886 40.1818V30.6364H257.386V40.1818H255.886ZM247.091 50.4773H237.545V48.9773H247.091V50.4773ZM247.091 40.9318H237.545V39.4318H247.091V40.9318ZM247.841 68.8182V78.3636H246.341V68.8182H247.841ZM247.091 77.6136H256.636V79.1136H247.091V77.6136ZM255.886 78.3636V68.8182H257.386V78.3636H255.886ZM304.364 2V0.5H305.864V2H304.364ZM304.364 11.5455V13.0455H302.864V11.5455H304.364ZM256.636 2H255.136V0.5H256.636V2ZM256.636 11.5455H258.136V13.0455H256.636V11.5455ZM313.909 11.5455V10.0455H315.409V11.5455H313.909ZM313.909 21.0909V22.5909H312.409V21.0909H313.909ZM323.455 21.0909V19.5909H324.955V21.0909H323.455ZM323.455 30.6364V32.1364H321.955V30.6364H323.455ZM333 30.6364V29.1364H334.5V30.6364H333ZM323.455 78.3636H321.955V76.8636H323.455V78.3636ZM333 78.3636H334.5V79.8636H333V78.3636ZM313.909 87.9091H312.409V86.4091H313.909V87.9091ZM323.455 87.9091H324.955V89.4091H323.455V87.9091ZM304.364 97.4545H302.864V95.9545H304.364V97.4545ZM313.909 97.4545H315.409V98.9545H313.909V97.4545ZM304.364 107H305.864V108.5H304.364V107ZM256.636 97.4545V95.9545H258.136V97.4545H256.636ZM256.636 107V108.5H255.136V107H256.636ZM247.091 87.9091V86.4091H248.591V87.9091H247.091ZM247.091 97.4545V98.9545H245.591V97.4545H247.091ZM237.545 78.3636V76.8636H239.045V78.3636H237.545ZM237.545 87.9091V89.4091H236.045V87.9091H237.545ZM228 78.3636V79.8636H226.5V78.3636H228ZM237.545 30.6364H239.045V32.1364H237.545V30.6364ZM228 30.6364H226.5V29.1364H228V30.6364ZM247.091 21.0909H248.591V22.5909H247.091V21.0909ZM237.545 21.0909H236.045V19.5909H237.545V21.0909ZM247.091 11.5455H245.591V10.0455H247.091V11.5455ZM304.364 3.5H294.818V0.5H304.364V3.5ZM302.864 11.5455V2H305.864V11.5455H302.864ZM294.818 3.5H285.273V0.5H294.818V3.5ZM285.273 3.5H275.727V0.5H285.273V3.5ZM275.727 3.5H266.182V0.5H275.727V3.5ZM266.182 3.5H256.636V0.5H266.182V3.5ZM258.136 2V11.5455H255.136V2H258.136ZM313.909 13.0455H304.364V10.0455H313.909V13.0455ZM312.409 21.0909V11.5455H315.409V21.0909H312.409ZM323.455 22.5909H313.909V19.5909H323.455V22.5909ZM321.955 30.6364V21.0909H324.955V30.6364H321.955ZM333 32.1364H323.455V29.1364H333V32.1364ZM331.5 40.1818V30.6364H334.5V40.1818H331.5ZM331.5 49.7273V40.1818H334.5V49.7273H331.5ZM331.5 59.2727V49.7273H334.5V59.2727H331.5ZM331.5 68.8182V59.2727H334.5V68.8182H331.5ZM323.455 76.8636H333V79.8636H323.455V76.8636ZM331.5 78.3636V68.8182H334.5V78.3636H331.5ZM313.909 86.4091H323.455V89.4091H313.909V86.4091ZM321.955 87.9091V78.3636H324.955V87.9091H321.955ZM304.364 95.9545H313.909V98.9545H304.364V95.9545ZM312.409 97.4545V87.9091H315.409V97.4545H312.409ZM294.818 105.5H304.364V108.5H294.818V105.5ZM302.864 107V97.4545H305.864V107H302.864ZM285.273 105.5H294.818V108.5H285.273V105.5ZM275.727 105.5H285.273V108.5H275.727V105.5ZM266.182 105.5H275.727V108.5H266.182V105.5ZM258.136 97.4545V107H255.136V97.4545H258.136ZM256.636 105.5H266.182V108.5H256.636V105.5ZM248.591 87.9091V97.4545H245.591V87.9091H248.591ZM247.091 95.9545H256.636V98.9545H247.091V95.9545ZM239.045 78.3636V87.9091H236.045V78.3636H239.045ZM237.545 86.4091H247.091V89.4091H237.545V86.4091ZM229.5 68.8182V78.3636H226.5V68.8182H229.5ZM228 76.8636H237.545V79.8636H228V76.8636ZM229.5 59.2727V68.8182H226.5V59.2727H229.5ZM229.5 49.7273V59.2727H226.5V49.7273H229.5ZM229.5 40.1818V49.7273H226.5V40.1818H229.5ZM237.545 32.1364H228V29.1364H237.545V32.1364ZM229.5 30.6364V40.1818H226.5V30.6364H229.5ZM247.091 22.5909H237.545V19.5909H247.091V22.5909ZM239.045 21.0909V30.6364H236.045V21.0909H239.045ZM256.636 13.0455H247.091V10.0455H256.636V13.0455ZM248.591 11.5455V21.0909H245.591V11.5455H248.591Z" fill="#131313" mask="url(#path-1-outside-1_203_17005)"/>
<mask id="path-3-outside-2_203_17005" maskUnits="userSpaceOnUse" x="114" y="104" width="107" height="107" fill="black">
<rect fill="white" x="114" y="104" width="107" height="107"/>
<path d="M190.909 106H181.545V115.364H190.909V106Z"/>
<path d="M181.545 106H172.182V115.364H181.545V106Z"/>
<path d="M172.182 106H162.818V115.364H172.182V106Z"/>
<path d="M162.818 106H153.455V115.364H162.818V106Z"/>
<path d="M153.455 106H144.091V115.364H153.455V106Z"/>
<path d="M200.273 115.364H190.909V124.727H200.273V115.364Z"/>
<path d="M209.636 124.727H200.273V134.091H209.636V124.727Z"/>
<path d="M219 134.091H209.636V143.455H219V134.091Z"/>
<path d="M219 143.455H209.636V152.818H219V143.455Z"/>
<path d="M219 152.818H209.636V162.182H219V152.818Z"/>
<path d="M219 162.182H209.636V171.545H219V162.182Z"/>
<path d="M219 171.545H209.636V180.909H219V171.545Z"/>
<path d="M209.636 180.909H200.273V190.273H209.636V180.909Z"/>
<path d="M200.273 190.273H190.909V199.636H200.273V190.273Z"/>
<path d="M190.909 199.636H181.545V209H190.909V199.636Z"/>
<path d="M181.545 199.636H172.182V209H181.545V199.636Z"/>
<path d="M172.182 199.636H162.818V209H172.182V199.636Z"/>
<path d="M162.818 199.636H153.455V209H162.818V199.636Z"/>
<path d="M153.455 199.636H144.091V209H153.455V199.636Z"/>
<path d="M144.091 190.273H134.727V199.636H144.091V190.273Z"/>
<path d="M134.727 180.909H125.364V190.273H134.727V180.909Z"/>
<path d="M125.364 171.545H116V180.909H125.364V171.545Z"/>
<path d="M125.364 162.182H116V171.545H125.364V162.182Z"/>
<path d="M125.364 152.818H116V162.182H125.364V152.818Z"/>
<path d="M125.364 143.455H116V152.818H125.364V143.455Z"/>
<path d="M125.364 134.091H116V143.455H125.364V134.091Z"/>
<path d="M134.727 124.727H125.364V134.091H134.727V124.727Z"/>
<path d="M144.091 115.364H134.727V124.727H144.091V115.364Z"/>
<path d="M172.182 152.818H162.818V162.182H172.182V152.818Z"/>
<path d="M172.182 143.455H162.818V152.818H172.182V143.455Z"/>
<path d="M181.545 143.455H172.182V152.818H181.545V143.455Z"/>
<path d="M181.545 152.818H172.182V162.182H181.545V152.818Z"/>
<path d="M181.545 162.182H172.182V171.545H181.545V162.182Z"/>
<path d="M172.182 162.182H162.818V171.545H172.182V162.182Z"/>
<path d="M181.545 171.545H172.182V180.909H181.545V171.545Z"/>
<path d="M172.182 171.545H162.818V180.909H172.182V171.545Z"/>
<path d="M162.818 171.545H153.455V180.909H162.818V171.545Z"/>
<path d="M153.455 180.909H144.091V190.273H153.455V180.909Z"/>
<path d="M153.455 190.273H144.091V199.636H153.455V190.273Z"/>
<path d="M172.182 180.909H162.818V190.273H172.182V180.909Z"/>
<path d="M172.182 190.273H162.818V199.636H172.182V190.273Z"/>
<path d="M190.909 180.909H181.545V190.273H190.909V180.909Z"/>
<path d="M190.909 190.273H181.545V199.636H190.909V190.273Z"/>
<path d="M162.818 180.909H153.455V190.273H162.818V180.909Z"/>
<path d="M162.818 190.273H153.455V199.636H162.818V190.273Z"/>
<path d="M181.545 180.909H172.182V190.273H181.545V180.909Z"/>
<path d="M181.545 190.273H172.182V199.636H181.545V190.273Z"/>
<path d="M200.273 180.909H190.909V190.273H200.273V180.909Z"/>
<path d="M200.273 143.455H190.909V152.818H200.273V143.455Z"/>
<path d="M200.273 152.818H190.909V162.182H200.273V152.818Z"/>
<path d="M200.273 162.182H190.909V171.545H200.273V162.182Z"/>
<path d="M200.273 171.545H190.909V180.909H200.273V171.545Z"/>
<path d="M190.909 143.455H181.545V152.818H190.909V143.455Z"/>
<path d="M190.909 152.818H181.545V162.182H190.909V152.818Z"/>
<path d="M190.909 162.182H181.545V171.545H190.909V162.182Z"/>
<path d="M190.909 171.545H181.545V180.909H190.909V171.545Z"/>
<path d="M209.636 143.455H200.273V152.818H209.636V143.455Z"/>
<path d="M209.636 152.818H200.273V162.182H209.636V152.818Z"/>
<path d="M209.636 162.182H200.273V171.545H209.636V162.182Z"/>
<path d="M209.636 171.545H200.273V180.909H209.636V171.545Z"/>
<path d="M181.545 134.091H172.182V143.455H181.545V134.091Z"/>
<path d="M190.909 134.091H181.545V143.455H190.909V134.091Z"/>
<path d="M172.182 134.091H162.818V143.455H172.182V134.091Z"/>
<path d="M162.818 134.091H153.455V143.455H162.818V134.091Z"/>
<path d="M153.455 124.727H144.091V134.091H153.455V124.727Z"/>
<path d="M153.455 115.364H144.091V124.727H153.455V115.364Z"/>
<path d="M162.818 115.364H153.455V124.727H162.818V115.364Z"/>
<path d="M162.818 124.727H153.455V134.091H162.818V124.727Z"/>
<path d="M172.182 124.727H162.818V134.091H172.182V124.727Z"/>
<path d="M172.182 115.364H162.818V124.727H172.182V115.364Z"/>
<path d="M181.545 115.364H172.182V124.727H181.545V115.364Z"/>
<path d="M190.909 115.364H181.545V124.727H190.909V115.364Z"/>
<path d="M200.273 124.727H190.909V134.091H200.273V124.727Z"/>
<path d="M200.273 134.091H190.909V143.455H200.273V134.091Z"/>
<path d="M209.636 134.091H200.273V143.455H209.636V134.091Z"/>
<path d="M181.545 124.727H172.182V134.091H181.545V124.727Z"/>
<path d="M190.909 124.727H181.545V134.091H190.909V124.727Z"/>
<path d="M162.818 152.818H153.455V162.182H162.818V152.818Z"/>
<path d="M153.455 143.455H144.091V152.818H153.455V143.455Z"/>
<path d="M153.455 152.818H144.091V162.182H153.455V152.818Z"/>
<path d="M153.455 162.182H144.091V171.545H153.455V162.182Z"/>
<path d="M144.091 162.182H134.727V171.545H144.091V162.182Z"/>
<path d="M134.727 162.182H125.364V171.545H134.727V162.182Z"/>
<path d="M144.091 152.818H134.727V162.182H144.091V152.818Z"/>
<path d="M144.091 143.455H134.727V152.818H144.091V143.455Z"/>
<path d="M144.091 134.091H134.727V143.455H144.091V134.091Z"/>
<path d="M134.727 152.818H125.364V162.182H134.727V152.818Z"/>
<path d="M134.727 143.455H125.364V152.818H134.727V143.455Z"/>
<path d="M134.727 134.091H125.364V143.455H134.727V134.091Z"/>
<path d="M144.091 171.545H134.727V180.909H144.091V171.545Z"/>
<path d="M134.727 171.545H125.364V180.909H134.727V171.545Z"/>
<path d="M162.818 162.182H153.455V171.545H162.818V162.182Z"/>
<path d="M153.455 171.545H144.091V180.909H153.455V171.545Z"/>
<path d="M144.091 180.909H134.727V190.273H144.091V180.909Z"/>
<path d="M162.818 143.455H153.455V152.818H162.818V143.455Z"/>
<path d="M153.455 134.091H144.091V143.455H153.455V134.091Z"/>
<path d="M144.091 124.727H134.727V134.091H144.091V124.727Z"/>
</mask>
<path d="M190.909 106H181.545V115.364H190.909V106Z" fill="#FCD290"/>
<path d="M181.545 106H172.182V115.364H181.545V106Z" fill="#FCD290"/>
<path d="M172.182 106H162.818V115.364H172.182V106Z" fill="#FCD290"/>
<path d="M162.818 106H153.455V115.364H162.818V106Z" fill="#FCD290"/>
<path d="M153.455 106H144.091V115.364H153.455V106Z" fill="#FCD290"/>
<path d="M200.273 115.364H190.909V124.727H200.273V115.364Z" fill="#FCD290"/>
<path d="M209.636 124.727H200.273V134.091H209.636V124.727Z" fill="#FCD290"/>
<path d="M219 134.091H209.636V143.455H219V134.091Z" fill="#FCD290"/>
<path d="M219 143.455H209.636V152.818H219V143.455Z" fill="#FCD290"/>
<path d="M219 152.818H209.636V162.182H219V152.818Z" fill="#FCD290"/>
<path d="M219 162.182H209.636V171.545H219V162.182Z" fill="#FCD290"/>
<path d="M219 171.545H209.636V180.909H219V171.545Z" fill="#FCD290"/>
<path d="M209.636 180.909H200.273V190.273H209.636V180.909Z" fill="#FCD290"/>
<path d="M200.273 190.273H190.909V199.636H200.273V190.273Z" fill="#FCD290"/>
<path d="M190.909 199.636H181.545V209H190.909V199.636Z" fill="#FCD290"/>
<path d="M181.545 199.636H172.182V209H181.545V199.636Z" fill="#FCD290"/>
<path d="M172.182 199.636H162.818V209H172.182V199.636Z" fill="#FCD290"/>
<path d="M162.818 199.636H153.455V209H162.818V199.636Z" fill="#FCD290"/>
<path d="M153.455 199.636H144.091V209H153.455V199.636Z" fill="#FCD290"/>
<path d="M144.091 190.273H134.727V199.636H144.091V190.273Z" fill="#FCD290"/>
<path d="M134.727 180.909H125.364V190.273H134.727V180.909Z" fill="#FCD290"/>
<path d="M125.364 171.545H116V180.909H125.364V171.545Z" fill="#FCD290"/>
<path d="M125.364 162.182H116V171.545H125.364V162.182Z" fill="#FD9DAF"/>
<path d="M125.364 152.818H116V162.182H125.364V152.818Z" fill="#FD9DAF"/>
<path d="M125.364 143.455H116V152.818H125.364V143.455Z" fill="#FD9DAF"/>
<path d="M125.364 134.091H116V143.455H125.364V134.091Z" fill="#FCD290"/>
<path d="M134.727 124.727H125.364V134.091H134.727V124.727Z" fill="#FCD290"/>
<path d="M144.091 115.364H134.727V124.727H144.091V115.364Z" fill="#FCD290"/>
<path d="M172.182 152.818H162.818V162.182H172.182V152.818Z" fill="#FD9DAF"/>
<path d="M172.182 143.455H162.818V152.818H172.182V143.455Z" fill="#FCD290"/>
<path d="M181.545 143.455H172.182V152.818H181.545V143.455Z" fill="#FCD290"/>
<path d="M181.545 152.818H172.182V162.182H181.545V152.818Z" fill="#FCD290"/>
<path d="M181.545 162.182H172.182V171.545H181.545V162.182Z" fill="#FCD290"/>
<path d="M172.182 162.182H162.818V171.545H172.182V162.182Z" fill="#FCD290"/>
<path d="M181.545 171.545H172.182V180.909H181.545V171.545Z" fill="#FCD290"/>
<path d="M172.182 171.545H162.818V180.909H172.182V171.545Z" fill="#FCD290"/>
<path d="M162.818 171.545H153.455V180.909H162.818V171.545Z" fill="#FCD290"/>
<path d="M153.455 180.909H144.091V190.273H153.455V180.909Z" fill="#FCD290"/>
<path d="M153.455 190.273H144.091V199.636H153.455V190.273Z" fill="#FCD290"/>
<path d="M172.182 180.909H162.818V190.273H172.182V180.909Z" fill="#FCD290"/>
<path d="M172.182 190.273H162.818V199.636H172.182V190.273Z" fill="#FCD290"/>
<path d="M190.909 180.909H181.545V190.273H190.909V180.909Z" fill="#FCD290"/>
<path d="M190.909 190.273H181.545V199.636H190.909V190.273Z" fill="#FCD290"/>
<path d="M162.818 180.909H153.455V190.273H162.818V180.909Z" fill="#FCD290"/>
<path d="M162.818 190.273H153.455V199.636H162.818V190.273Z" fill="#FCD290"/>
<path d="M181.545 180.909H172.182V190.273H181.545V180.909Z" fill="#FCD290"/>
<path d="M181.545 190.273H172.182V199.636H181.545V190.273Z" fill="#FCD290"/>
<path d="M200.273 180.909H190.909V190.273H200.273V180.909Z" fill="#FCD290"/>
<path d="M200.273 143.455H190.909V152.818H200.273V143.455Z" fill="#FCD290"/>
<path d="M200.273 152.818H190.909V162.182H200.273V152.818Z" fill="#FCD290"/>
<path d="M200.273 162.182H190.909V171.545H200.273V162.182Z" fill="#FCD290"/>
<path d="M200.273 171.545H190.909V180.909H200.273V171.545Z" fill="#FCD290"/>
<path d="M190.909 143.455H181.545V152.818H190.909V143.455Z" fill="#FCD290"/>
<path d="M190.909 152.818H181.545V162.182H190.909V152.818Z" fill="#FCD290"/>
<path d="M190.909 162.182H181.545V171.545H190.909V162.182Z" fill="#FCD290"/>
<path d="M190.909 171.545H181.545V180.909H190.909V171.545Z" fill="#FCD290"/>
<path d="M209.636 143.455H200.273V152.818H209.636V143.455Z" fill="#FCD290"/>
<path d="M209.636 152.818H200.273V162.182H209.636V152.818Z" fill="#FCD290"/>
<path d="M209.636 162.182H200.273V171.545H209.636V162.182Z" fill="#FCD290"/>
<path d="M209.636 171.545H200.273V180.909H209.636V171.545Z" fill="#FCD290"/>
<path d="M181.545 134.091H172.182V143.455H181.545V134.091Z" fill="#FCD290"/>
<path d="M190.909 134.091H181.545V143.455H190.909V134.091Z" fill="#FCD290"/>
<path d="M172.182 134.091H162.818V143.455H172.182V134.091Z" fill="#FCD290"/>
<path d="M162.818 134.091H153.455V143.455H162.818V134.091Z" fill="#FCD290"/>
<path d="M153.455 124.727H144.091V134.091H153.455V124.727Z" fill="#FCD290"/>
<path d="M153.455 115.364H144.091V124.727H153.455V115.364Z" fill="#FCD290"/>
<path d="M162.818 115.364H153.455V124.727H162.818V115.364Z" fill="#FCD290"/>
<path d="M162.818 124.727H153.455V134.091H162.818V124.727Z" fill="#FCD290"/>
<path d="M172.182 124.727H162.818V134.091H172.182V124.727Z" fill="#FCD290"/>
<path d="M172.182 115.364H162.818V124.727H172.182V115.364Z" fill="#FCD290"/>
<path d="M181.545 115.364H172.182V124.727H181.545V115.364Z" fill="#FCD290"/>
<path d="M190.909 115.364H181.545V124.727H190.909V115.364Z" fill="#FCD290"/>
<path d="M200.273 124.727H190.909V134.091H200.273V124.727Z" fill="#FCD290"/>
<path d="M200.273 134.091H190.909V143.455H200.273V134.091Z" fill="#FCD290"/>
<path d="M209.636 134.091H200.273V143.455H209.636V134.091Z" fill="#FCD290"/>
<path d="M181.545 124.727H172.182V134.091H181.545V124.727Z" fill="#FCD290"/>
<path d="M190.909 124.727H181.545V134.091H190.909V124.727Z" fill="#FCD290"/>
<path d="M162.818 152.818H153.455V162.182H162.818V152.818Z" fill="#FD9DAF"/>
<path d="M153.455 143.455H144.091V152.818H153.455V143.455Z" fill="#FCD290"/>
<path d="M153.455 152.818H144.091V162.182H153.455V152.818Z" fill="#FD9DAF"/>
<path d="M153.455 162.182H144.091V171.545H153.455V162.182Z" fill="#FD9DAF"/>
<path d="M144.091 162.182H134.727V171.545H144.091V162.182Z" fill="#FD9DAF"/>
<path d="M134.727 162.182H125.364V171.545H134.727V162.182Z" fill="#FD9DAF"/>
<path d="M144.091 152.818H134.727V162.182H144.091V152.818Z" fill="#FD9DAF"/>
<path d="M144.091 143.455H134.727V152.818H144.091V143.455Z" fill="#FD9DAF"/>
<path d="M144.091 134.091H134.727V143.455H144.091V134.091Z" fill="#FCD290"/>
<path d="M134.727 152.818H125.364V162.182H134.727V152.818Z" fill="#FD9DAF"/>
<path d="M134.727 143.455H125.364V152.818H134.727V143.455Z" fill="#FD9DAF"/>
<path d="M134.727 134.091H125.364V143.455H134.727V134.091Z" fill="#FCD290"/>
<path d="M144.091 171.545H134.727V180.909H144.091V171.545Z" fill="#FCD290"/>
<path d="M134.727 171.545H125.364V180.909H134.727V171.545Z" fill="#FCD290"/>
<path d="M162.818 162.182H153.455V171.545H162.818V162.182Z" fill="#FCD290"/>
<path d="M153.455 171.545H144.091V180.909H153.455V171.545Z" fill="#FCD290"/>
<path d="M144.091 180.909H134.727V190.273H144.091V180.909Z" fill="#FCD290"/>
<path d="M162.818 143.455H153.455V152.818H162.818V143.455Z" fill="#FCD290"/>
<path d="M153.455 134.091H144.091V143.455H153.455V134.091Z" fill="#FCD290"/>
<path d="M144.091 124.727H134.727V134.091H144.091V124.727Z" fill="#FCD290"/>
<path d="M190.909 115.364V114.614H191.659V115.364H190.909ZM144.091 115.364H143.341V114.614H144.091V115.364ZM200.273 124.727V123.977H201.023V124.727H200.273ZM209.636 134.091V133.341H210.386V134.091H209.636ZM209.636 180.909H210.386V181.659H209.636V180.909ZM200.273 190.273H201.023V191.023H200.273V190.273ZM190.909 199.636H191.659V200.386H190.909V199.636ZM144.091 199.636V200.386H143.341V199.636H144.091ZM134.727 190.273V191.023H133.977V190.273H134.727ZM125.364 180.909V181.659H124.614V180.909H125.364ZM125.364 134.091H124.614V133.341H125.364V134.091ZM134.727 124.727H133.977V123.977H134.727V124.727ZM182.295 106V115.364H180.795V106H182.295ZM181.545 114.614H190.909V116.114H181.545V114.614ZM172.932 106V115.364H171.432V106H172.932ZM172.182 114.614H181.545V116.114H172.182V114.614ZM163.568 106V115.364H162.068V106H163.568ZM162.818 114.614H172.182V116.114H162.818V114.614ZM154.205 106V115.364H152.705V106H154.205ZM153.455 114.614H162.818V116.114H153.455V114.614ZM144.091 114.614H153.455V116.114H144.091V114.614ZM191.659 115.364V124.727H190.159V115.364H191.659ZM190.909 123.977H200.273V125.477H190.909V123.977ZM201.023 124.727V134.091H199.523V124.727H201.023ZM200.273 133.341H209.636V134.841H200.273V133.341ZM210.386 134.091V143.455H208.886V134.091H210.386ZM209.636 142.705H219V144.205H209.636V142.705ZM210.386 143.455V152.818H208.886V143.455H210.386ZM209.636 152.068H219V153.568H209.636V152.068ZM210.386 152.818V162.182H208.886V152.818H210.386ZM209.636 161.432H219V162.932H209.636V161.432ZM210.386 162.182V171.545H208.886V162.182H210.386ZM209.636 170.795H219V172.295H209.636V170.795ZM210.386 171.545V180.909H208.886V171.545H210.386ZM209.636 181.659H200.273V180.159H209.636V181.659ZM201.023 180.909V190.273H199.523V180.909H201.023ZM200.273 191.023H190.909V189.523H200.273V191.023ZM191.659 190.273V199.636H190.159V190.273H191.659ZM190.909 200.386H181.545V198.886H190.909V200.386ZM182.295 199.636V209H180.795V199.636H182.295ZM181.545 200.386H172.182V198.886H181.545V200.386ZM172.932 199.636V209H171.432V199.636H172.932ZM172.182 200.386H162.818V198.886H172.182V200.386ZM163.568 199.636V209H162.068V199.636H163.568ZM162.818 200.386H153.455V198.886H162.818V200.386ZM154.205 199.636V209H152.705V199.636H154.205ZM153.455 200.386H144.091V198.886H153.455V200.386ZM144.091 191.023H134.727V189.523H144.091V191.023ZM143.341 199.636V190.273H144.841V199.636H143.341ZM134.727 181.659H125.364V180.159H134.727V181.659ZM133.977 190.273V180.909H135.477V190.273H133.977ZM125.364 172.295H116V170.795H125.364V172.295ZM124.614 180.909V171.545H126.114V180.909H124.614ZM125.364 162.932H116V161.432H125.364V162.932ZM124.614 171.545V162.182H126.114V171.545H124.614ZM125.364 153.568H116V152.068H125.364V153.568ZM124.614 162.182V152.818H126.114V162.182H124.614ZM125.364 144.205H116V142.705H125.364V144.205ZM124.614 152.818V143.455H126.114V152.818H124.614ZM124.614 143.455V134.091H126.114V143.455H124.614ZM125.364 133.341H134.727V134.841H125.364V133.341ZM133.977 134.091V124.727H135.477V134.091H133.977ZM134.727 123.977H144.091V125.477H134.727V123.977ZM143.341 124.727V115.364H144.841V124.727H143.341ZM172.182 153.568H162.818V152.068H172.182V153.568ZM163.568 152.818V162.182H162.068V152.818H163.568ZM162.818 161.432H172.182V162.932H162.818V161.432ZM171.432 162.182V152.818H172.932V162.182H171.432ZM172.182 144.205H162.818V142.705H172.182V144.205ZM163.568 143.455V152.818H162.068V143.455H163.568ZM171.432 152.818V143.455H172.932V152.818H171.432ZM181.545 144.205H172.182V142.705H181.545V144.205ZM172.182 152.068H181.545V153.568H172.182V152.068ZM180.795 152.818V143.455H182.295V152.818H180.795ZM172.182 161.432H181.545V162.932H172.182V161.432ZM180.795 162.182V152.818H182.295V162.182H180.795ZM172.932 162.182V171.545H171.432V162.182H172.932ZM172.182 170.795H181.545V172.295H172.182V170.795ZM180.795 171.545V162.182H182.295V171.545H180.795ZM163.568 162.182V171.545H162.068V162.182H163.568ZM162.818 170.795H172.182V172.295H162.818V170.795ZM172.932 171.545V180.909H171.432V171.545H172.932ZM172.182 180.159H181.545V181.659H172.182V180.159ZM180.795 180.909V171.545H182.295V180.909H180.795ZM163.568 171.545V180.909H162.068V171.545H163.568ZM162.818 180.159H172.182V181.659H162.818V180.159ZM162.818 172.295H153.455V170.795H162.818V172.295ZM154.205 171.545V180.909H152.705V171.545H154.205ZM153.455 180.159H162.818V181.659H153.455V180.159ZM153.455 181.659H144.091V180.159H153.455V181.659ZM144.841 180.909V190.273H143.341V180.909H144.841ZM144.091 189.523H153.455V191.023H144.091V189.523ZM152.705 190.273V180.909H154.205V190.273H152.705ZM152.705 199.636V190.273H154.205V199.636H152.705ZM163.568 180.909V190.273H162.068V180.909H163.568ZM162.818 189.523H172.182V191.023H162.818V189.523ZM171.432 190.273V180.909H172.932V190.273H171.432ZM163.568 190.273V199.636H162.068V190.273H163.568ZM171.432 199.636V190.273H172.932V199.636H171.432ZM190.909 181.659H181.545V180.159H190.909V181.659ZM182.295 180.909V190.273H180.795V180.909H182.295ZM181.545 189.523H190.909V191.023H181.545V189.523ZM190.159 190.273V180.909H191.659V190.273H190.159ZM182.295 190.273V199.636H180.795V190.273H182.295ZM153.455 189.523H162.818V191.023H153.455V189.523ZM172.182 189.523H181.545V191.023H172.182V189.523ZM200.273 181.659H190.909V180.159H200.273V181.659ZM200.273 144.205H190.909V142.705H200.273V144.205ZM191.659 143.455V152.818H190.159V143.455H191.659ZM190.909 152.068H200.273V153.568H190.909V152.068ZM199.523 152.818V143.455H201.023V152.818H199.523ZM191.659 152.818V162.182H190.159V152.818H191.659ZM190.909 161.432H200.273V162.932H190.909V161.432ZM199.523 162.182V152.818H201.023V162.182H199.523ZM191.659 162.182V171.545H190.159V162.182H191.659ZM190.909 170.795H200.273V172.295H190.909V170.795ZM199.523 171.545V162.182H201.023V171.545H199.523ZM191.659 171.545V180.909H190.159V171.545H191.659ZM199.523 180.909V171.545H201.023V180.909H199.523ZM190.909 144.205H181.545V142.705H190.909V144.205ZM181.545 152.068H190.909V153.568H181.545V152.068ZM181.545 161.432H190.909V162.932H181.545V161.432ZM181.545 170.795H190.909V172.295H181.545V170.795ZM209.636 144.205H200.273V142.705H209.636V144.205ZM200.273 152.068H209.636V153.568H200.273V152.068ZM200.273 161.432H209.636V162.932H200.273V161.432ZM200.273 170.795H209.636V172.295H200.273V170.795ZM181.545 134.841H172.182V133.341H181.545V134.841ZM172.932 134.091V143.455H171.432V134.091H172.932ZM180.795 143.455V134.091H182.295V143.455H180.795ZM190.909 134.841H181.545V133.341H190.909V134.841ZM190.159 143.455V134.091H191.659V143.455H190.159ZM172.182 134.841H162.818V133.341H172.182V134.841ZM163.568 134.091V143.455H162.068V134.091H163.568ZM162.818 134.841H153.455V133.341H162.818V134.841ZM154.205 134.091V143.455H152.705V134.091H154.205ZM153.455 142.705H162.818V144.205H153.455V142.705ZM153.455 125.477H144.091V123.977H153.455V125.477ZM144.841 124.727V134.091H143.341V124.727H144.841ZM144.091 133.341H153.455V134.841H144.091V133.341ZM152.705 134.091V124.727H154.205V134.091H152.705ZM152.705 124.727V115.364H154.205V124.727H152.705ZM153.455 123.977H162.818V125.477H153.455V123.977ZM162.068 124.727V115.364H163.568V124.727H162.068ZM162.068 134.091V124.727H163.568V134.091H162.068ZM172.182 125.477H162.818V123.977H172.182V125.477ZM171.432 134.091V124.727H172.932V134.091H171.432ZM171.432 124.727V115.364H172.932V124.727H171.432ZM172.182 123.977H181.545V125.477H172.182V123.977ZM180.795 124.727V115.364H182.295V124.727H180.795ZM181.545 123.977H190.909V125.477H181.545V123.977ZM191.659 124.727V134.091H190.159V124.727H191.659ZM190.909 133.341H200.273V134.841H190.909V133.341ZM199.523 143.455V134.091H201.023V143.455H199.523ZM180.795 134.091V124.727H182.295V134.091H180.795ZM162.818 153.568H153.455V152.068H162.818V153.568ZM154.205 152.818V162.182H152.705V152.818H154.205ZM153.455 161.432H162.818V162.932H153.455V161.432ZM153.455 144.205H144.091V142.705H153.455V144.205ZM144.841 143.455V152.818H143.341V143.455H144.841ZM144.091 152.068H153.455V153.568H144.091V152.068ZM152.705 152.818V143.455H154.205V152.818H152.705ZM144.841 152.818V162.182H143.341V152.818H144.841ZM144.091 161.432H153.455V162.932H144.091V161.432ZM144.841 162.182V171.545H143.341V162.182H144.841ZM144.091 170.795H153.455V172.295H144.091V170.795ZM152.705 171.545V162.182H154.205V171.545H152.705ZM144.091 162.932H134.727V161.432H144.091V162.932ZM135.477 162.182V171.545H133.977V162.182H135.477ZM134.727 170.795H144.091V172.295H134.727V170.795ZM134.727 162.932H125.364V161.432H134.727V162.932ZM125.364 170.795H134.727V172.295H125.364V170.795ZM144.091 153.568H134.727V152.068H144.091V153.568ZM135.477 152.818V162.182H133.977V152.818H135.477ZM144.091 144.205H134.727V142.705H144.091V144.205ZM135.477 143.455V152.818H133.977V143.455H135.477ZM144.091 134.841H134.727V133.341H144.091V134.841ZM135.477 134.091V143.455H133.977V134.091H135.477ZM143.341 143.455V134.091H144.841V143.455H143.341ZM134.727 153.568H125.364V152.068H134.727V153.568ZM134.727 144.205H125.364V142.705H134.727V144.205ZM135.477 171.545V180.909H133.977V171.545H135.477ZM134.727 180.159H144.091V181.659H134.727V180.159ZM143.341 180.909V171.545H144.841V180.909H143.341ZM190.909 106V104.5H192.409V106H190.909ZM190.909 115.364V116.864H189.409V115.364H190.909ZM144.091 106H142.591V104.5H144.091V106ZM144.091 115.364H145.591V116.864H144.091V115.364ZM200.273 115.364V113.864H201.773V115.364H200.273ZM200.273 124.727V126.227H198.773V124.727H200.273ZM209.636 124.727V123.227H211.136V124.727H209.636ZM209.636 134.091V135.591H208.136V134.091H209.636ZM219 134.091V132.591H220.5V134.091H219ZM209.636 180.909H208.136V179.409H209.636V180.909ZM219 180.909H220.5V182.409H219V180.909ZM200.273 190.273H198.773V188.773H200.273V190.273ZM209.636 190.273H211.136V191.773H209.636V190.273ZM190.909 199.636H189.409V198.136H190.909V199.636ZM200.273 199.636H201.773V201.136H200.273V199.636ZM190.909 209H192.409V210.5H190.909V209ZM144.091 199.636V198.136H145.591V199.636H144.091ZM144.091 209V210.5H142.591V209H144.091ZM134.727 190.273V188.773H136.227V190.273H134.727ZM134.727 199.636V201.136H133.227V199.636H134.727ZM125.364 180.909V179.409H126.864V180.909H125.364ZM125.364 190.273V191.773H123.864V190.273H125.364ZM116 180.909V182.409H114.5V180.909H116ZM125.364 134.091H126.864V135.591H125.364V134.091ZM116 134.091H114.5V132.591H116V134.091ZM134.727 124.727H136.227V126.227H134.727V124.727ZM125.364 124.727H123.864V123.227H125.364V124.727ZM134.727 115.364H133.227V113.864H134.727V115.364ZM190.909 107.5H181.545V104.5H190.909V107.5ZM189.409 115.364V106H192.409V115.364H189.409ZM181.545 107.5H172.182V104.5H181.545V107.5ZM172.182 107.5H162.818V104.5H172.182V107.5ZM162.818 107.5H153.455V104.5H162.818V107.5ZM153.455 107.5H144.091V104.5H153.455V107.5ZM145.591 106V115.364H142.591V106H145.591ZM200.273 116.864H190.909V113.864H200.273V116.864ZM198.773 124.727V115.364H201.773V124.727H198.773ZM209.636 126.227H200.273V123.227H209.636V126.227ZM208.136 134.091V124.727H211.136V134.091H208.136ZM219 135.591H209.636V132.591H219V135.591ZM217.5 143.455V134.091H220.5V143.455H217.5ZM217.5 152.818V143.455H220.5V152.818H217.5ZM217.5 162.182V152.818H220.5V162.182H217.5ZM217.5 171.545V162.182H220.5V171.545H217.5ZM209.636 179.409H219V182.409H209.636V179.409ZM217.5 180.909V171.545H220.5V180.909H217.5ZM200.273 188.773H209.636V191.773H200.273V188.773ZM208.136 190.273V180.909H211.136V190.273H208.136ZM190.909 198.136H200.273V201.136H190.909V198.136ZM198.773 199.636V190.273H201.773V199.636H198.773ZM181.545 207.5H190.909V210.5H181.545V207.5ZM189.409 209V199.636H192.409V209H189.409ZM172.182 207.5H181.545V210.5H172.182V207.5ZM162.818 207.5H172.182V210.5H162.818V207.5ZM153.455 207.5H162.818V210.5H153.455V207.5ZM145.591 199.636V209H142.591V199.636H145.591ZM144.091 207.5H153.455V210.5H144.091V207.5ZM136.227 190.273V199.636H133.227V190.273H136.227ZM134.727 198.136H144.091V201.136H134.727V198.136ZM126.864 180.909V190.273H123.864V180.909H126.864ZM125.364 188.773H134.727V191.773H125.364V188.773ZM117.5 171.545V180.909H114.5V171.545H117.5ZM116 179.409H125.364V182.409H116V179.409ZM117.5 162.182V171.545H114.5V162.182H117.5ZM117.5 152.818V162.182H114.5V152.818H117.5ZM117.5 143.455V152.818H114.5V143.455H117.5ZM125.364 135.591H116V132.591H125.364V135.591ZM117.5 134.091V143.455H114.5V134.091H117.5ZM134.727 126.227H125.364V123.227H134.727V126.227ZM126.864 124.727V134.091H123.864V124.727H126.864ZM144.091 116.864H134.727V113.864H144.091V116.864ZM136.227 115.364V124.727H133.227V115.364H136.227Z" fill="#131313" mask="url(#path-3-outside-2_203_17005)"/>
<mask id="path-5-outside-3_203_17005" maskUnits="userSpaceOnUse" x="0" y="0" width="109" height="109" fill="black">
<rect fill="white" width="109" height="109"/>
<path d="M78.3636 2H68.8182V11.5455H78.3636V2Z"/>
<path d="M68.8182 2H59.2727V11.5455H68.8182V2Z"/>
<path d="M59.2727 2H49.7273V11.5455H59.2727V2Z"/>
<path d="M49.7273 2H40.1818V11.5455H49.7273V2Z"/>
<path d="M40.1818 2H30.6364V11.5455H40.1818V2Z"/>
<path d="M87.9091 11.5455H78.3636V21.0909H87.9091V11.5455Z"/>
<path d="M97.4545 21.0909H87.9091V30.6364H97.4545V21.0909Z"/>
<path d="M107 30.6364H97.4545V40.1818H107V30.6364Z"/>
<path d="M107 40.1818H97.4545V49.7273H107V40.1818Z"/>
<path d="M107 49.7273H97.4545V59.2727H107V49.7273Z"/>
<path d="M107 59.2727H97.4545V68.8182H107V59.2727Z"/>
<path d="M107 68.8182H97.4545V78.3636H107V68.8182Z"/>
<path d="M97.4545 78.3636H87.9091V87.9091H97.4545V78.3636Z"/>
<path d="M87.9091 87.9091H78.3636V97.4545H87.9091V87.9091Z"/>
<path d="M78.3636 97.4545H68.8182V107H78.3636V97.4545Z"/>
<path d="M68.8182 97.4545H59.2727V107H68.8182V97.4545Z"/>
<path d="M59.2727 97.4545H49.7273V107H59.2727V97.4545Z"/>
<path d="M49.7273 97.4545H40.1818V107H49.7273V97.4545Z"/>
<path d="M40.1818 97.4545H30.6364V107H40.1818V97.4545Z"/>
<path d="M30.6364 87.9091H21.0909V97.4545H30.6364V87.9091Z"/>
<path d="M21.0909 78.3636H11.5455V87.9091H21.0909V78.3636Z"/>
<path d="M11.5455 68.8182H2V78.3636H11.5455V68.8182Z"/>
<path d="M11.5455 59.2727H2V68.8182H11.5455V59.2727Z"/>
<path d="M11.5455 49.7273H2V59.2727H11.5455V49.7273Z"/>
<path d="M11.5455 40.1818H2V49.7273H11.5455V40.1818Z"/>
<path d="M11.5455 30.6364H2V40.1818H11.5455V30.6364Z"/>
<path d="M21.0909 21.0909H11.5455V30.6364H21.0909V21.0909Z"/>
<path d="M30.6364 11.5455H21.0909V21.0909H30.6364V11.5455Z"/>
<path d="M59.2727 49.7273H49.7273V59.2727H59.2727V49.7273Z"/>
<path d="M59.2727 40.1818H49.7273V49.7273H59.2727V40.1818Z"/>
<path d="M68.8182 40.1818H59.2727V49.7273H68.8182V40.1818Z"/>
<path d="M68.8182 49.7273H59.2727V59.2727H68.8182V49.7273Z"/>
<path d="M68.8182 59.2727H59.2727V68.8182H68.8182V59.2727Z"/>
<path d="M59.2727 59.2727H49.7273V68.8182H59.2727V59.2727Z"/>
<path d="M68.8182 68.8182H59.2727V78.3636H68.8182V68.8182Z"/>
<path d="M59.2727 68.8182H49.7273V78.3636H59.2727V68.8182Z"/>
<path d="M49.7273 68.8182H40.1818V78.3636H49.7273V68.8182Z"/>
<path d="M40.1818 78.3636H30.6364V87.9091H40.1818V78.3636Z"/>
<path d="M40.1818 87.9091H30.6364V97.4545H40.1818V87.9091Z"/>
<path d="M59.2727 78.3636H49.7273V87.9091H59.2727V78.3636Z"/>
<path d="M59.2727 87.9091H49.7273V97.4545H59.2727V87.9091Z"/>
<path d="M78.3636 78.3636H68.8182V87.9091H78.3636V78.3636Z"/>
<path d="M78.3636 87.9091H68.8182V97.4545H78.3636V87.9091Z"/>
<path d="M49.7273 78.3636H40.1818V87.9091H49.7273V78.3636Z"/>
<path d="M49.7273 87.9091H40.1818V97.4545H49.7273V87.9091Z"/>
<path d="M68.8182 78.3636H59.2727V87.9091H68.8182V78.3636Z"/>
<path d="M68.8182 87.9091H59.2727V97.4545H68.8182V87.9091Z"/>
<path d="M87.9091 78.3636H78.3636V87.9091H87.9091V78.3636Z"/>
<path d="M87.9091 40.1818H78.3636V49.7273H87.9091V40.1818Z"/>
<path d="M87.9091 49.7273H78.3636V59.2727H87.9091V49.7273Z"/>
<path d="M87.9091 59.2727H78.3636V68.8182H87.9091V59.2727Z"/>
<path d="M87.9091 68.8182H78.3636V78.3636H87.9091V68.8182Z"/>
<path d="M78.3636 40.1818H68.8182V49.7273H78.3636V40.1818Z"/>
<path d="M78.3636 49.7273H68.8182V59.2727H78.3636V49.7273Z"/>
<path d="M78.3636 59.2727H68.8182V68.8182H78.3636V59.2727Z"/>
<path d="M78.3636 68.8182H68.8182V78.3636H78.3636V68.8182Z"/>
<path d="M97.4545 40.1818H87.9091V49.7273H97.4545V40.1818Z"/>
<path d="M97.4545 49.7273H87.9091V59.2727H97.4545V49.7273Z"/>
<path d="M97.4545 59.2727H87.9091V68.8182H97.4545V59.2727Z"/>
<path d="M97.4545 68.8182H87.9091V78.3636H97.4545V68.8182Z"/>
<path d="M68.8182 30.6364H59.2727V40.1818H68.8182V30.6364Z"/>
<path d="M78.3636 30.6364H68.8182V40.1818H78.3636V30.6364Z"/>
<path d="M59.2727 30.6364H49.7273V40.1818H59.2727V30.6364Z"/>
<path d="M49.7273 30.6364H40.1818V40.1818H49.7273V30.6364Z"/>
<path d="M40.1818 21.0909H30.6364V30.6364H40.1818V21.0909Z"/>
<path d="M40.1818 11.5455H30.6364V21.0909H40.1818V11.5455Z"/>
<path d="M49.7273 11.5455H40.1818V21.0909H49.7273V11.5455Z"/>
<path d="M49.7273 21.0909H40.1818V30.6364H49.7273V21.0909Z"/>
<path d="M59.2727 21.0909H49.7273V30.6364H59.2727V21.0909Z"/>
<path d="M59.2727 11.5455H49.7273V21.0909H59.2727V11.5455Z"/>
<path d="M68.8182 11.5455H59.2727V21.0909H68.8182V11.5455Z"/>
<path d="M78.3636 11.5455H68.8182V21.0909H78.3636V11.5455Z"/>
<path d="M87.9091 21.0909H78.3636V30.6364H87.9091V21.0909Z"/>
<path d="M87.9091 30.6364H78.3636V40.1818H87.9091V30.6364Z"/>
<path d="M97.4545 30.6364H87.9091V40.1818H97.4545V30.6364Z"/>
<path d="M68.8182 21.0909H59.2727V30.6364H68.8182V21.0909Z"/>
<path d="M78.3636 21.0909H68.8182V30.6364H78.3636V21.0909Z"/>
<path d="M49.7273 49.7273H40.1818V59.2727H49.7273V49.7273Z"/>
<path d="M40.1818 40.1818H30.6364V49.7273H40.1818V40.1818Z"/>
<path d="M40.1818 49.7273H30.6364V59.2727H40.1818V49.7273Z"/>
<path d="M40.1818 59.2727H30.6364V68.8182H40.1818V59.2727Z"/>
<path d="M30.6364 59.2727H21.0909V68.8182H30.6364V59.2727Z"/>
<path d="M21.0909 59.2727H11.5455V68.8182H21.0909V59.2727Z"/>
<path d="M30.6364 49.7273H21.0909V59.2727H30.6364V49.7273Z"/>
<path d="M30.6364 40.1818H21.0909V49.7273H30.6364V40.1818Z"/>
<path d="M30.6364 30.6364H21.0909V40.1818H30.6364V30.6364Z"/>
<path d="M21.0909 49.7273H11.5455V59.2727H21.0909V49.7273Z"/>
<path d="M21.0909 40.1818H11.5455V49.7273H21.0909V40.1818Z"/>
<path d="M21.0909 30.6364H11.5455V40.1818H21.0909V30.6364Z"/>
<path d="M30.6364 68.8182H21.0909V78.3636H30.6364V68.8182Z"/>
<path d="M21.0909 68.8182H11.5455V78.3636H21.0909V68.8182Z"/>
<path d="M49.7273 59.2727H40.1818V68.8182H49.7273V59.2727Z"/>
<path d="M40.1818 68.8182H30.6364V78.3636H40.1818V68.8182Z"/>
<path d="M30.6364 78.3636H21.0909V87.9091H30.6364V78.3636Z"/>
<path d="M49.7273 40.1818H40.1818V49.7273H49.7273V40.1818Z"/>
<path d="M40.1818 30.6364H30.6364V40.1818H40.1818V30.6364Z"/>
<path d="M30.6364 21.0909H21.0909V30.6364H30.6364V21.0909Z"/>
</mask>
<path d="M78.3636 2H68.8182V11.5455H78.3636V2Z" fill="#FCD290"/>
<path d="M68.8182 2H59.2727V11.5455H68.8182V2Z" fill="#FCD290"/>
<path d="M59.2727 2H49.7273V11.5455H59.2727V2Z" fill="#FCD290"/>
<path d="M49.7273 2H40.1818V11.5455H49.7273V2Z" fill="#FCD290"/>
<path d="M40.1818 2H30.6364V11.5455H40.1818V2Z" fill="#FCD290"/>
<path d="M87.9091 11.5455H78.3636V21.0909H87.9091V11.5455Z" fill="#FCD290"/>
<path d="M97.4545 21.0909H87.9091V30.6364H97.4545V21.0909Z" fill="#FCD290"/>
<path d="M107 30.6364H97.4545V40.1818H107V30.6364Z" fill="#FCD290"/>
<path d="M107 40.1818H97.4545V49.7273H107V40.1818Z" fill="#FCD290"/>
<path d="M107 49.7273H97.4545V59.2727H107V49.7273Z" fill="#FCD290"/>
<path d="M107 59.2727H97.4545V68.8182H107V59.2727Z" fill="#FCD290"/>
<path d="M107 68.8182H97.4545V78.3636H107V68.8182Z" fill="#FCD290"/>
<path d="M97.4545 78.3636H87.9091V87.9091H97.4545V78.3636Z" fill="#FCD290"/>
<path d="M87.9091 87.9091H78.3636V97.4545H87.9091V87.9091Z" fill="#FCD290"/>
<path d="M78.3636 97.4545H68.8182V107H78.3636V97.4545Z" fill="#FCD290"/>
<path d="M68.8182 97.4545H59.2727V107H68.8182V97.4545Z" fill="#FCD290"/>
<path d="M59.2727 97.4545H49.7273V107H59.2727V97.4545Z" fill="#FCD290"/>
<path d="M49.7273 97.4545H40.1818V107H49.7273V97.4545Z" fill="#FCD290"/>
<path d="M40.1818 97.4545H30.6364V107H40.1818V97.4545Z" fill="#FCD290"/>
<path d="M30.6364 87.9091H21.0909V97.4545H30.6364V87.9091Z" fill="#FCD290"/>
<path d="M21.0909 78.3636H11.5455V87.9091H21.0909V78.3636Z" fill="#FCD290"/>
<path d="M11.5455 68.8182H2V78.3636H11.5455V68.8182Z" fill="#FD9DAF"/>
<path d="M11.5455 59.2727H2V68.8182H11.5455V59.2727Z" fill="#FD9DAF"/>
<path d="M11.5455 49.7273H2V59.2727H11.5455V49.7273Z" fill="#FD9DAF"/>
<path d="M11.5455 40.1818H2V49.7273H11.5455V40.1818Z" fill="#FD9DAF"/>
<path d="M11.5455 30.6364H2V40.1818H11.5455V30.6364Z" fill="#FD9DAF"/>
<path d="M21.0909 21.0909H11.5455V30.6364H21.0909V21.0909Z" fill="#FCD290"/>
<path d="M30.6364 11.5455H21.0909V21.0909H30.6364V11.5455Z" fill="#FCD290"/>
<path d="M59.2727 49.7273H49.7273V59.2727H59.2727V49.7273Z" fill="#FD9DAF"/>
<path d="M59.2727 40.1818H49.7273V49.7273H59.2727V40.1818Z" fill="#FCD290"/>
<path d="M68.8182 40.1818H59.2727V49.7273H68.8182V40.1818Z" fill="#FCD290"/>
<path d="M68.8182 49.7273H59.2727V59.2727H68.8182V49.7273Z" fill="#FCD290"/>
<path d="M68.8182 59.2727H59.2727V68.8182H68.8182V59.2727Z" fill="#FCD290"/>
<path d="M59.2727 59.2727H49.7273V68.8182H59.2727V59.2727Z" fill="#FCD290"/>
<path d="M68.8182 68.8182H59.2727V78.3636H68.8182V68.8182Z" fill="#FCD290"/>
<path d="M59.2727 68.8182H49.7273V78.3636H59.2727V68.8182Z" fill="#FCD290"/>
<path d="M49.7273 68.8182H40.1818V78.3636H49.7273V68.8182Z" fill="#FCD290"/>
<path d="M40.1818 78.3636H30.6364V87.9091H40.1818V78.3636Z" fill="#FCD290"/>
<path d="M40.1818 87.9091H30.6364V97.4545H40.1818V87.9091Z" fill="#FCD290"/>
<path d="M59.2727 78.3636H49.7273V87.9091H59.2727V78.3636Z" fill="#FCD290"/>
<path d="M59.2727 87.9091H49.7273V97.4545H59.2727V87.9091Z" fill="#FCD290"/>
<path d="M78.3636 78.3636H68.8182V87.9091H78.3636V78.3636Z" fill="#FCD290"/>
<path d="M78.3636 87.9091H68.8182V97.4545H78.3636V87.9091Z" fill="#FCD290"/>
<path d="M49.7273 78.3636H40.1818V87.9091H49.7273V78.3636Z" fill="#FCD290"/>
<path d="M49.7273 87.9091H40.1818V97.4545H49.7273V87.9091Z" fill="#FCD290"/>
<path d="M68.8182 78.3636H59.2727V87.9091H68.8182V78.3636Z" fill="#FCD290"/>
<path d="M68.8182 87.9091H59.2727V97.4545H68.8182V87.9091Z" fill="#FCD290"/>
<path d="M87.9091 78.3636H78.3636V87.9091H87.9091V78.3636Z" fill="#FCD290"/>
<path d="M87.9091 40.1818H78.3636V49.7273H87.9091V40.1818Z" fill="#FCD290"/>
<path d="M87.9091 49.7273H78.3636V59.2727H87.9091V49.7273Z" fill="#FCD290"/>
<path d="M87.9091 59.2727H78.3636V68.8182H87.9091V59.2727Z" fill="#FCD290"/>
<path d="M87.9091 68.8182H78.3636V78.3636H87.9091V68.8182Z" fill="#FCD290"/>
<path d="M78.3636 40.1818H68.8182V49.7273H78.3636V40.1818Z" fill="#FCD290"/>
<path d="M78.3636 49.7273H68.8182V59.2727H78.3636V49.7273Z" fill="#FCD290"/>
<path d="M78.3636 59.2727H68.8182V68.8182H78.3636V59.2727Z" fill="#FCD290"/>
<path d="M78.3636 68.8182H68.8182V78.3636H78.3636V68.8182Z" fill="#FCD290"/>
<path d="M97.4545 40.1818H87.9091V49.7273H97.4545V40.1818Z" fill="#FCD290"/>
<path d="M97.4545 49.7273H87.9091V59.2727H97.4545V49.7273Z" fill="#FCD290"/>
<path d="M97.4545 59.2727H87.9091V68.8182H97.4545V59.2727Z" fill="#FCD290"/>
<path d="M97.4545 68.8182H87.9091V78.3636H97.4545V68.8182Z" fill="#FCD290"/>
<path d="M68.8182 30.6364H59.2727V40.1818H68.8182V30.6364Z" fill="#FCD290"/>
<path d="M78.3636 30.6364H68.8182V40.1818H78.3636V30.6364Z" fill="#FCD290"/>
<path d="M59.2727 30.6364H49.7273V40.1818H59.2727V30.6364Z" fill="#FCD290"/>
<path d="M49.7273 30.6364H40.1818V40.1818H49.7273V30.6364Z" fill="#FCD290"/>
<path d="M40.1818 21.0909H30.6364V30.6364H40.1818V21.0909Z" fill="#FCD290"/>
<path d="M40.1818 11.5455H30.6364V21.0909H40.1818V11.5455Z" fill="#FCD290"/>
<path d="M49.7273 11.5455H40.1818V21.0909H49.7273V11.5455Z" fill="#FCD290"/>
<path d="M49.7273 21.0909H40.1818V30.6364H49.7273V21.0909Z" fill="#FCD290"/>
<path d="M59.2727 21.0909H49.7273V30.6364H59.2727V21.0909Z" fill="#FCD290"/>
<path d="M59.2727 11.5455H49.7273V21.0909H59.2727V11.5455Z" fill="#FCD290"/>
<path d="M68.8182 11.5455H59.2727V21.0909H68.8182V11.5455Z" fill="#FCD290"/>
<path d="M78.3636 11.5455H68.8182V21.0909H78.3636V11.5455Z" fill="#FCD290"/>
<path d="M87.9091 21.0909H78.3636V30.6364H87.9091V21.0909Z" fill="#FCD290"/>
<path d="M87.9091 30.6364H78.3636V40.1818H87.9091V30.6364Z" fill="#FCD290"/>
<path d="M97.4545 30.6364H87.9091V40.1818H97.4545V30.6364Z" fill="#FCD290"/>
<path d="M68.8182 21.0909H59.2727V30.6364H68.8182V21.0909Z" fill="#FCD290"/>
<path d="M78.3636 21.0909H68.8182V30.6364H78.3636V21.0909Z" fill="#FCD290"/>
<path d="M49.7273 49.7273H40.1818V59.2727H49.7273V49.7273Z" fill="#FD9DAF"/>
<path d="M40.1818 40.1818H30.6364V49.7273H40.1818V40.1818Z" fill="#FD9DAF"/>
<path d="M40.1818 49.7273H30.6364V59.2727H40.1818V49.7273Z" fill="#FD9DAF"/>
<path d="M40.1818 59.2727H30.6364V68.8182H40.1818V59.2727Z" fill="#FCD290"/>
<path d="M30.6364 59.2727H21.0909V68.8182H30.6364V59.2727Z" fill="#FD9DAF"/>
<path d="M21.0909 59.2727H11.5455V68.8182H21.0909V59.2727Z" fill="#FD9DAF"/>
<path d="M30.6364 49.7273H21.0909V59.2727H30.6364V49.7273Z" fill="#FD9DAF"/>
<path d="M30.6364 40.1818H21.0909V49.7273H30.6364V40.1818Z" fill="#FD9DAF"/>
<path d="M30.6364 30.6364H21.0909V40.1818H30.6364V30.6364Z" fill="#FD9DAF"/>
<path d="M21.0909 49.7273H11.5455V59.2727H21.0909V49.7273Z" fill="#FD9DAF"/>
<path d="M21.0909 40.1818H11.5455V49.7273H21.0909V40.1818Z" fill="#FD9DAF"/>
<path d="M21.0909 30.6364H11.5455V40.1818H21.0909V30.6364Z" fill="#FD9DAF"/>
<path d="M30.6364 68.8182H21.0909V78.3636H30.6364V68.8182Z" fill="#FCD290"/>
<path d="M21.0909 68.8182H11.5455V78.3636H21.0909V68.8182Z" fill="#FCD290"/>
<path d="M49.7273 59.2727H40.1818V68.8182H49.7273V59.2727Z" fill="#FCD290"/>
<path d="M40.1818 68.8182H30.6364V78.3636H40.1818V68.8182Z" fill="#FCD290"/>
<path d="M30.6364 78.3636H21.0909V87.9091H30.6364V78.3636Z" fill="#FCD290"/>
<path d="M49.7273 40.1818H40.1818V49.7273H49.7273V40.1818Z" fill="#FCD290"/>
<path d="M40.1818 30.6364H30.6364V40.1818H40.1818V30.6364Z" fill="#FCD290"/>
<path d="M30.6364 21.0909H21.0909V30.6364H30.6364V21.0909Z" fill="#FCD290"/>
<path d="M78.3636 11.5455V10.7955H79.1136V11.5455H78.3636ZM30.6364 11.5455H29.8864V10.7955H30.6364V11.5455ZM87.9091 21.0909V20.3409H88.6591V21.0909H87.9091ZM97.4545 30.6364V29.8864H98.2045V30.6364H97.4545ZM97.4545 78.3636H98.2045V79.1136H97.4545V78.3636ZM87.9091 87.9091H88.6591V88.6591H87.9091V87.9091ZM78.3636 97.4545H79.1136V98.2045H78.3636V97.4545ZM30.6364 97.4545V98.2045H29.8864V97.4545H30.6364ZM21.0909 87.9091V88.6591H20.3409V87.9091H21.0909ZM11.5455 78.3636V79.1136H10.7955V78.3636H11.5455ZM11.5455 30.6364H10.7955V29.8864H11.5455V30.6364ZM21.0909 21.0909H20.3409V20.3409H21.0909V21.0909ZM69.5682 2V11.5455H68.0682V2H69.5682ZM68.8182 10.7955H78.3636V12.2955H68.8182V10.7955ZM60.0227 2V11.5455H58.5227V2H60.0227ZM59.2727 10.7955H68.8182V12.2955H59.2727V10.7955ZM50.4773 2V11.5455H48.9773V2H50.4773ZM49.7273 10.7955H59.2727V12.2955H49.7273V10.7955ZM40.9318 2V11.5455H39.4318V2H40.9318ZM40.1818 10.7955H49.7273V12.2955H40.1818V10.7955ZM30.6364 10.7955H40.1818V12.2955H30.6364V10.7955ZM79.1136 11.5455V21.0909H77.6136V11.5455H79.1136ZM78.3636 20.3409H87.9091V21.8409H78.3636V20.3409ZM88.6591 21.0909V30.6364H87.1591V21.0909H88.6591ZM87.9091 29.8864H97.4545V31.3864H87.9091V29.8864ZM98.2045 30.6364V40.1818H96.7045V30.6364H98.2045ZM97.4545 39.4318H107V40.9318H97.4545V39.4318ZM98.2045 40.1818V49.7273H96.7045V40.1818H98.2045ZM97.4545 48.9773H107V50.4773H97.4545V48.9773ZM98.2045 49.7273V59.2727H96.7045V49.7273H98.2045ZM97.4545 58.5227H107V60.0227H97.4545V58.5227ZM98.2045 59.2727V68.8182H96.7045V59.2727H98.2045ZM97.4545 68.0682H107V69.5682H97.4545V68.0682ZM98.2045 68.8182V78.3636H96.7045V68.8182H98.2045ZM97.4545 79.1136H87.9091V77.6136H97.4545V79.1136ZM88.6591 78.3636V87.9091H87.1591V78.3636H88.6591ZM87.9091 88.6591H78.3636V87.1591H87.9091V88.6591ZM79.1136 87.9091V97.4545H77.6136V87.9091H79.1136ZM78.3636 98.2045H68.8182V96.7045H78.3636V98.2045ZM69.5682 97.4545V107H68.0682V97.4545H69.5682ZM68.8182 98.2045H59.2727V96.7045H68.8182V98.2045ZM60.0227 97.4545V107H58.5227V97.4545H60.0227ZM59.2727 98.2045H49.7273V96.7045H59.2727V98.2045ZM50.4773 97.4545V107H48.9773V97.4545H50.4773ZM49.7273 98.2045H40.1818V96.7045H49.7273V98.2045ZM40.9318 97.4545V107H39.4318V97.4545H40.9318ZM40.1818 98.2045H30.6364V96.7045H40.1818V98.2045ZM30.6364 88.6591H21.0909V87.1591H30.6364V88.6591ZM29.8864 97.4545V87.9091H31.3864V97.4545H29.8864ZM21.0909 79.1136H11.5455V77.6136H21.0909V79.1136ZM20.3409 87.9091V78.3636H21.8409V87.9091H20.3409ZM11.5455 69.5682H2V68.0682H11.5455V69.5682ZM10.7955 78.3636V68.8182H12.2955V78.3636H10.7955ZM11.5455 60.0227H2V58.5227H11.5455V60.0227ZM10.7955 68.8182V59.2727H12.2955V68.8182H10.7955ZM11.5455 50.4773H2V48.9773H11.5455V50.4773ZM10.7955 59.2727V49.7273H12.2955V59.2727H10.7955ZM11.5455 40.9318H2V39.4318H11.5455V40.9318ZM10.7955 49.7273V40.1818H12.2955V49.7273H10.7955ZM10.7955 40.1818V30.6364H12.2955V40.1818H10.7955ZM11.5455 29.8864H21.0909V31.3864H11.5455V29.8864ZM20.3409 30.6364V21.0909H21.8409V30.6364H20.3409ZM21.0909 20.3409H30.6364V21.8409H21.0909V20.3409ZM29.8864 21.0909V11.5455H31.3864V21.0909H29.8864ZM59.2727 50.4773H49.7273V48.9773H59.2727V50.4773ZM50.4773 49.7273V59.2727H48.9773V49.7273H50.4773ZM49.7273 58.5227H59.2727V60.0227H49.7273V58.5227ZM58.5227 59.2727V49.7273H60.0227V59.2727H58.5227ZM59.2727 40.9318H49.7273V39.4318H59.2727V40.9318ZM50.4773 40.1818V49.7273H48.9773V40.1818H50.4773ZM58.5227 49.7273V40.1818H60.0227V49.7273H58.5227ZM68.8182 40.9318H59.2727V39.4318H68.8182V40.9318ZM59.2727 48.9773H68.8182V50.4773H59.2727V48.9773ZM68.0682 49.7273V40.1818H69.5682V49.7273H68.0682ZM59.2727 58.5227H68.8182V60.0227H59.2727V58.5227ZM68.0682 59.2727V49.7273H69.5682V59.2727H68.0682ZM60.0227 59.2727V68.8182H58.5227V59.2727H60.0227ZM59.2727 68.0682H68.8182V69.5682H59.2727V68.0682ZM68.0682 68.8182V59.2727H69.5682V68.8182H68.0682ZM50.4773 59.2727V68.8182H48.9773V59.2727H50.4773ZM49.7273 68.0682H59.2727V69.5682H49.7273V68.0682ZM60.0227 68.8182V78.3636H58.5227V68.8182H60.0227ZM59.2727 77.6136H68.8182V79.1136H59.2727V77.6136ZM68.0682 78.3636V68.8182H69.5682V78.3636H68.0682ZM50.4773 68.8182V78.3636H48.9773V68.8182H50.4773ZM49.7273 77.6136H59.2727V79.1136H49.7273V77.6136ZM49.7273 69.5682H40.1818V68.0682H49.7273V69.5682ZM40.9318 68.8182V78.3636H39.4318V68.8182H40.9318ZM40.1818 77.6136H49.7273V79.1136H40.1818V77.6136ZM40.1818 79.1136H30.6364V77.6136H40.1818V79.1136ZM31.3864 78.3636V87.9091H29.8864V78.3636H31.3864ZM30.6364 87.1591H40.1818V88.6591H30.6364V87.1591ZM39.4318 87.9091V78.3636H40.9318V87.9091H39.4318ZM39.4318 97.4545V87.9091H40.9318V97.4545H39.4318ZM50.4773 78.3636V87.9091H48.9773V78.3636H50.4773ZM49.7273 87.1591H59.2727V88.6591H49.7273V87.1591ZM58.5227 87.9091V78.3636H60.0227V87.9091H58.5227ZM50.4773 87.9091V97.4545H48.9773V87.9091H50.4773ZM58.5227 97.4545V87.9091H60.0227V97.4545H58.5227ZM78.3636 79.1136H68.8182V77.6136H78.3636V79.1136ZM69.5682 78.3636V87.9091H68.0682V78.3636H69.5682ZM68.8182 87.1591H78.3636V88.6591H68.8182V87.1591ZM77.6136 87.9091V78.3636H79.1136V87.9091H77.6136ZM69.5682 87.9091V97.4545H68.0682V87.9091H69.5682ZM40.1818 87.1591H49.7273V88.6591H40.1818V87.1591ZM59.2727 87.1591H68.8182V88.6591H59.2727V87.1591ZM87.9091 79.1136H78.3636V77.6136H87.9091V79.1136ZM87.9091 40.9318H78.3636V39.4318H87.9091V40.9318ZM79.1136 40.1818V49.7273H77.6136V40.1818H79.1136ZM78.3636 48.9773H87.9091V50.4773H78.3636V48.9773ZM87.1591 49.7273V40.1818H88.6591V49.7273H87.1591ZM79.1136 49.7273V59.2727H77.6136V49.7273H79.1136ZM78.3636 58.5227H87.9091V60.0227H78.3636V58.5227ZM87.1591 59.2727V49.7273H88.6591V59.2727H87.1591ZM79.1136 59.2727V68.8182H77.6136V59.2727H79.1136ZM78.3636 68.0682H87.9091V69.5682H78.3636V68.0682ZM87.1591 68.8182V59.2727H88.6591V68.8182H87.1591ZM79.1136 68.8182V78.3636H77.6136V68.8182H79.1136ZM87.1591 78.3636V68.8182H88.6591V78.3636H87.1591ZM78.3636 40.9318H68.8182V39.4318H78.3636V40.9318ZM68.8182 48.9773H78.3636V50.4773H68.8182V48.9773ZM68.8182 58.5227H78.3636V60.0227H68.8182V58.5227ZM68.8182 68.0682H78.3636V69.5682H68.8182V68.0682ZM97.4545 40.9318H87.9091V39.4318H97.4545V40.9318ZM87.9091 48.9773H97.4545V50.4773H87.9091V48.9773ZM87.9091 58.5227H97.4545V60.0227H87.9091V58.5227ZM87.9091 68.0682H97.4545V69.5682H87.9091V68.0682ZM68.8182 31.3864H59.2727V29.8864H68.8182V31.3864ZM60.0227 30.6364V40.1818H58.5227V30.6364H60.0227ZM68.0682 40.1818V30.6364H69.5682V40.1818H68.0682ZM78.3636 31.3864H68.8182V29.8864H78.3636V31.3864ZM77.6136 40.1818V30.6364H79.1136V40.1818H77.6136ZM59.2727 31.3864H49.7273V29.8864H59.2727V31.3864ZM50.4773 30.6364V40.1818H48.9773V30.6364H50.4773ZM49.7273 31.3864H40.1818V29.8864H49.7273V31.3864ZM40.9318 30.6364V40.1818H39.4318V30.6364H40.9318ZM40.1818 39.4318H49.7273V40.9318H40.1818V39.4318ZM40.1818 21.8409H30.6364V20.3409H40.1818V21.8409ZM31.3864 21.0909V30.6364H29.8864V21.0909H31.3864ZM30.6364 29.8864H40.1818V31.3864H30.6364V29.8864ZM39.4318 30.6364V21.0909H40.9318V30.6364H39.4318ZM39.4318 21.0909V11.5455H40.9318V21.0909H39.4318ZM40.1818 20.3409H49.7273V21.8409H40.1818V20.3409ZM48.9773 21.0909V11.5455H50.4773V21.0909H48.9773ZM48.9773 30.6364V21.0909H50.4773V30.6364H48.9773ZM59.2727 21.8409H49.7273V20.3409H59.2727V21.8409ZM58.5227 30.6364V21.0909H60.0227V30.6364H58.5227ZM58.5227 21.0909V11.5455H60.0227V21.0909H58.5227ZM59.2727 20.3409H68.8182V21.8409H59.2727V20.3409ZM68.0682 21.0909V11.5455H69.5682V21.0909H68.0682ZM68.8182 20.3409H78.3636V21.8409H68.8182V20.3409ZM79.1136 21.0909V30.6364H77.6136V21.0909H79.1136ZM78.3636 29.8864H87.9091V31.3864H78.3636V29.8864ZM87.1591 40.1818V30.6364H88.6591V40.1818H87.1591ZM68.0682 30.6364V21.0909H69.5682V30.6364H68.0682ZM49.7273 50.4773H40.1818V48.9773H49.7273V50.4773ZM40.9318 49.7273V59.2727H39.4318V49.7273H40.9318ZM40.1818 58.5227H49.7273V60.0227H40.1818V58.5227ZM40.1818 40.9318H30.6364V39.4318H40.1818V40.9318ZM31.3864 40.1818V49.7273H29.8864V40.1818H31.3864ZM30.6364 48.9773H40.1818V50.4773H30.6364V48.9773ZM39.4318 49.7273V40.1818H40.9318V49.7273H39.4318ZM31.3864 49.7273V59.2727H29.8864V49.7273H31.3864ZM30.6364 58.5227H40.1818V60.0227H30.6364V58.5227ZM31.3864 59.2727V68.8182H29.8864V59.2727H31.3864ZM30.6364 68.0682H40.1818V69.5682H30.6364V68.0682ZM39.4318 68.8182V59.2727H40.9318V68.8182H39.4318ZM30.6364 60.0227H21.0909V58.5227H30.6364V60.0227ZM21.8409 59.2727V68.8182H20.3409V59.2727H21.8409ZM21.0909 68.0682H30.6364V69.5682H21.0909V68.0682ZM21.0909 60.0227H11.5455V58.5227H21.0909V60.0227ZM11.5455 68.0682H21.0909V69.5682H11.5455V68.0682ZM30.6364 50.4773H21.0909V48.9773H30.6364V50.4773ZM21.8409 49.7273V59.2727H20.3409V49.7273H21.8409ZM30.6364 40.9318H21.0909V39.4318H30.6364V40.9318ZM21.8409 40.1818V49.7273H20.3409V40.1818H21.8409ZM30.6364 31.3864H21.0909V29.8864H30.6364V31.3864ZM21.8409 30.6364V40.1818H20.3409V30.6364H21.8409ZM29.8864 40.1818V30.6364H31.3864V40.1818H29.8864ZM21.0909 50.4773H11.5455V48.9773H21.0909V50.4773ZM21.0909 40.9318H11.5455V39.4318H21.0909V40.9318ZM21.8409 68.8182V78.3636H20.3409V68.8182H21.8409ZM21.0909 77.6136H30.6364V79.1136H21.0909V77.6136ZM29.8864 78.3636V68.8182H31.3864V78.3636H29.8864ZM78.3636 2V0.5H79.8636V2H78.3636ZM78.3636 11.5455V13.0455H76.8636V11.5455H78.3636ZM30.6364 2H29.1364V0.5H30.6364V2ZM30.6364 11.5455H32.1364V13.0455H30.6364V11.5455ZM87.9091 11.5455V10.0455H89.4091V11.5455H87.9091ZM87.9091 21.0909V22.5909H86.4091V21.0909H87.9091ZM97.4545 21.0909V19.5909H98.9545V21.0909H97.4545ZM97.4545 30.6364V32.1364H95.9545V30.6364H97.4545ZM107 30.6364V29.1364H108.5V30.6364H107ZM97.4545 78.3636H95.9545V76.8636H97.4545V78.3636ZM107 78.3636H108.5V79.8636H107V78.3636ZM87.9091 87.9091H86.4091V86.4091H87.9091V87.9091ZM97.4545 87.9091H98.9545V89.4091H97.4545V87.9091ZM78.3636 97.4545H76.8636V95.9545H78.3636V97.4545ZM87.9091 97.4545H89.4091V98.9545H87.9091V97.4545ZM78.3636 107H79.8636V108.5H78.3636V107ZM30.6364 97.4545V95.9545H32.1364V97.4545H30.6364ZM30.6364 107V108.5H29.1364V107H30.6364ZM21.0909 87.9091V86.4091H22.5909V87.9091H21.0909ZM21.0909 97.4545V98.9545H19.5909V97.4545H21.0909ZM11.5455 78.3636V76.8636H13.0455V78.3636H11.5455ZM11.5455 87.9091V89.4091H10.0455V87.9091H11.5455ZM2 78.3636V79.8636H0.5V78.3636H2ZM11.5455 30.6364H13.0455V32.1364H11.5455V30.6364ZM2 30.6364H0.5V29.1364H2V30.6364ZM21.0909 21.0909H22.5909V22.5909H21.0909V21.0909ZM11.5455 21.0909H10.0455V19.5909H11.5455V21.0909ZM21.0909 11.5455H19.5909V10.0455H21.0909V11.5455ZM78.3636 3.5H68.8182V0.5H78.3636V3.5ZM76.8636 11.5455V2H79.8636V11.5455H76.8636ZM68.8182 3.5H59.2727V0.5H68.8182V3.5ZM59.2727 3.5H49.7273V0.5H59.2727V3.5ZM49.7273 3.5H40.1818V0.5H49.7273V3.5ZM40.1818 3.5H30.6364V0.5H40.1818V3.5ZM32.1364 2V11.5455H29.1364V2H32.1364ZM87.9091 13.0455H78.3636V10.0455H87.9091V13.0455ZM86.4091 21.0909V11.5455H89.4091V21.0909H86.4091ZM97.4545 22.5909H87.9091V19.5909H97.4545V22.5909ZM95.9545 30.6364V21.0909H98.9545V30.6364H95.9545ZM107 32.1364H97.4545V29.1364H107V32.1364ZM105.5 40.1818V30.6364H108.5V40.1818H105.5ZM105.5 49.7273V40.1818H108.5V49.7273H105.5ZM105.5 59.2727V49.7273H108.5V59.2727H105.5ZM105.5 68.8182V59.2727H108.5V68.8182H105.5ZM97.4545 76.8636H107V79.8636H97.4545V76.8636ZM105.5 78.3636V68.8182H108.5V78.3636H105.5ZM87.9091 86.4091H97.4545V89.4091H87.9091V86.4091ZM95.9545 87.9091V78.3636H98.9545V87.9091H95.9545ZM78.3636 95.9545H87.9091V98.9545H78.3636V95.9545ZM86.4091 97.4545V87.9091H89.4091V97.4545H86.4091ZM68.8182 105.5H78.3636V108.5H68.8182V105.5ZM76.8636 107V97.4545H79.8636V107H76.8636ZM59.2727 105.5H68.8182V108.5H59.2727V105.5ZM49.7273 105.5H59.2727V108.5H49.7273V105.5ZM40.1818 105.5H49.7273V108.5H40.1818V105.5ZM32.1364 97.4545V107H29.1364V97.4545H32.1364ZM30.6364 105.5H40.1818V108.5H30.6364V105.5ZM22.5909 87.9091V97.4545H19.5909V87.9091H22.5909ZM21.0909 95.9545H30.6364V98.9545H21.0909V95.9545ZM13.0455 78.3636V87.9091H10.0455V78.3636H13.0455ZM11.5455 86.4091H21.0909V89.4091H11.5455V86.4091ZM3.5 68.8182V78.3636H0.5V68.8182H3.5ZM2 76.8636H11.5455V79.8636H2V76.8636ZM3.5 59.2727V68.8182H0.5V59.2727H3.5ZM3.5 49.7273V59.2727H0.5V49.7273H3.5ZM3.5 40.1818V49.7273H0.5V40.1818H3.5ZM11.5455 32.1364H2V29.1364H11.5455V32.1364ZM3.5 30.6364V40.1818H0.5V30.6364H3.5ZM21.0909 22.5909H11.5455V19.5909H21.0909V22.5909ZM13.0455 21.0909V30.6364H10.0455V21.0909H13.0455ZM30.6364 13.0455H21.0909V10.0455H30.6364V13.0455ZM22.5909 11.5455V21.0909H19.5909V11.5455H22.5909Z" fill="#131313" mask="url(#path-5-outside-3_203_17005)"/>
<path d="M268.845 123V114.6H271.209L273.537 120.768L275.793 114.6H278.109V123H276.393V117.372L274.209 123H272.745L270.561 117.372V123H268.845ZM282.46 123.072C280.408 123.072 279.172 121.836 279.172 119.928C279.172 118.008 280.432 116.76 282.34 116.76C284.188 116.76 285.436 117.912 285.46 119.724C285.46 119.904 285.448 120.108 285.412 120.3H280.936V120.384C280.972 121.26 281.536 121.788 282.388 121.788C283.072 121.788 283.552 121.488 283.696 120.912H285.364C285.172 122.112 284.104 123.072 282.46 123.072ZM280.972 119.196H283.756C283.636 118.44 283.12 118.02 282.352 118.02C281.62 118.02 281.068 118.464 280.972 119.196ZM289.925 116.76C291.257 116.76 292.397 117.468 292.397 119.58V123H290.705V119.748C290.705 118.704 290.309 118.152 289.457 118.152C288.581 118.152 288.077 118.776 288.077 119.844V123H286.385V116.832H287.861L288.017 117.6C288.413 117.12 288.977 116.76 289.925 116.76Z" fill="#131313"/>
<path d="M35.8079 123L33.4679 114.6L35.3399 114.588L36.8879 120.732L38.5319 114.6H40.1519L41.7479 120.732L43.3319 114.6H45.1559L42.8159 123H40.7519L39.2879 117.42L37.8719 123H35.8079ZM48.2348 123.072C46.2668 123.072 44.9828 121.812 44.9828 119.916C44.9828 118.02 46.2668 116.76 48.2348 116.76C50.2028 116.76 51.4868 118.02 51.4868 119.916C51.4868 121.824 50.2028 123.072 48.2348 123.072ZM48.2348 121.692C49.1828 121.692 49.7708 120.96 49.7708 119.916C49.7708 118.872 49.1828 118.14 48.2348 118.14C47.2868 118.14 46.7108 118.872 46.7108 119.916C46.7108 120.96 47.2868 121.692 48.2348 121.692ZM59.7981 116.76C61.0701 116.76 62.0781 117.48 62.0781 119.46V123H60.3861V119.556C60.3861 118.632 60.0501 118.152 59.3181 118.152C58.5861 118.152 58.0941 118.692 58.0941 119.628V123H56.4021V119.556C56.4021 118.632 56.0661 118.152 55.3221 118.152C54.5901 118.152 54.1101 118.716 54.1101 119.64V123H52.4181V116.832H53.8941L54.0501 117.6C54.4221 117.12 54.9621 116.772 55.8621 116.76C56.6181 116.748 57.3261 117.024 57.7101 117.804C58.1421 117.144 58.8621 116.76 59.7981 116.76ZM66.1653 123.072C64.1133 123.072 62.8773 121.836 62.8773 119.928C62.8773 118.008 64.1373 116.76 66.0453 116.76C67.8933 116.76 69.1413 117.912 69.1653 119.724C69.1653 119.904 69.1533 120.108 69.1173 120.3H64.6413V120.384C64.6773 121.26 65.2413 121.788 66.0933 121.788C66.7773 121.788 67.2573 121.488 67.4013 120.912H69.0693C68.8773 122.112 67.8093 123.072 66.1653 123.072ZM64.6773 119.196H67.4613C67.3413 118.44 66.8253 118.02 66.0573 118.02C65.3253 118.02 64.7733 118.464 64.6773 119.196ZM73.63 116.76C74.962 116.76 76.102 117.468 76.102 119.58V123H74.41V119.748C74.41 118.704 74.014 118.152 73.162 118.152C72.286 118.152 71.782 118.776 71.782 119.844V123H70.09V116.832H71.566L71.722 117.6C72.118 117.12 72.682 116.76 73.63 116.76Z" fill="#131313"/>
<path d="M157.075 220.8C157.075 223.248 155.383 225.072 152.911 225.072C150.439 225.072 148.747 223.248 148.747 220.8C148.747 218.352 150.439 216.528 152.911 216.528C155.383 216.528 157.075 218.352 157.075 220.8ZM150.583 220.8C150.583 222.384 151.495 223.548 152.911 223.548C154.315 223.548 155.227 222.384 155.227 220.8C155.227 219.216 154.315 218.052 152.911 218.052C151.495 218.052 150.583 219.216 150.583 220.8ZM158.477 223.236V220.26H157.457V218.832H158.477V217.104H160.169V218.832H161.585V220.26H160.169V222.96C160.169 223.392 160.337 223.572 160.781 223.572H161.621V225H160.241C159.065 225 158.477 224.412 158.477 223.236ZM165.92 218.76C167.288 218.76 168.416 219.492 168.416 221.58V225H166.724V221.724C166.724 220.716 166.316 220.152 165.476 220.152C164.612 220.152 164.096 220.776 164.096 221.832V225H162.404V216.6H164.096V219.588C164.492 219.108 165.044 218.76 165.92 218.76ZM172.507 225.072C170.455 225.072 169.219 223.836 169.219 221.928C169.219 220.008 170.479 218.76 172.387 218.76C174.235 218.76 175.483 219.912 175.507 221.724C175.507 221.904 175.495 222.108 175.459 222.3H170.983V222.384C171.019 223.26 171.583 223.788 172.435 223.788C173.119 223.788 173.599 223.488 173.743 222.912H175.411C175.219 224.112 174.151 225.072 172.507 225.072ZM171.019 221.196H173.803C173.683 220.44 173.167 220.02 172.399 220.02C171.667 220.02 171.115 220.464 171.019 221.196ZM179.9 218.832H180.188V220.368H179.516C178.508 220.368 178.124 221.04 178.124 221.976V225H176.432V218.832H177.968L178.124 219.756C178.46 219.204 178.94 218.832 179.9 218.832ZM180.573 222.948H182.181C182.241 223.488 182.709 223.86 183.537 223.86C184.245 223.86 184.677 223.632 184.677 223.2C184.677 222.696 184.257 222.66 183.261 222.528C181.821 222.36 180.705 222.036 180.705 220.764C180.705 219.54 181.773 218.736 183.357 218.748C185.013 218.748 186.153 219.48 186.237 220.74H184.617C184.569 220.248 184.101 219.948 183.417 219.948C182.757 219.948 182.325 220.188 182.325 220.584C182.325 221.052 182.853 221.1 183.741 221.208C185.157 221.352 186.333 221.676 186.333 223.068C186.333 224.292 185.181 225.072 183.525 225.072C181.809 225.072 180.645 224.268 180.573 222.948Z" fill="#131313"/>
<path d="M237 30.5V40.5H275V50H285V59H227.5M115 143.5H144V153H172V162H153.5V171.5H115M11 30H30.5V40.5H40.5V50H59V59.5H30.5V69H11V81.5" stroke="#131313" stroke-width="1.5"/>
</svg>
