<svg width="349" height="62" viewBox="0 0 349 62" fill="none" xmlns="http://www.w3.org/2000/svg">
<path d="M10.928 13.936H12.032V16H10.88C9.92 16 9.52 15.728 9.136 15.248C8.288 15.792 7.232 16.096 6.064 16.096C2.768 16.096 0.512 13.664 0.512 10.4C0.512 7.136 2.768 4.704 6.064 4.704C9.36 4.704 11.616 7.136 11.616 10.4C11.616 11.728 11.248 12.928 10.576 13.872C10.672 13.904 10.784 13.936 10.928 13.936ZM2.96 10.4C2.96 12.512 4.176 14.064 6.064 14.064C6.72 14.064 7.296 13.872 7.776 13.536L7.616 13.344C7.376 13.024 7.168 12.848 6.816 12.848H5.776V10.816H6.992C7.936 10.816 8.256 11.152 8.64 11.632L8.896 11.952C9.072 11.488 9.152 10.96 9.152 10.4C9.152 8.288 7.936 6.736 6.064 6.736C4.176 6.736 2.96 8.288 2.96 10.4ZM18.4908 11.888V7.776H20.7468V16H18.7468L18.5388 15.008C18.0108 15.648 17.2908 16.096 16.1228 16.096C14.4268 16.096 12.8588 15.248 12.8588 12.336V7.776H15.1148V12.032C15.1148 13.504 15.5948 14.224 16.7148 14.224C17.8348 14.224 18.4908 13.408 18.4908 11.888ZM26.3793 16.096C23.6432 16.096 21.9953 14.448 21.9953 11.904C21.9953 9.344 23.6753 7.68 26.2193 7.68C28.6833 7.68 30.3472 9.216 30.3793 11.632C30.3793 11.872 30.3633 12.144 30.3153 12.4H24.3473V12.512C24.3953 13.68 25.1473 14.384 26.2833 14.384C27.1953 14.384 27.8353 13.984 28.0273 13.216H30.2513C29.9953 14.816 28.5713 16.096 26.3793 16.096ZM24.3953 10.928H28.1073C27.9473 9.92 27.2593 9.36 26.2352 9.36C25.2593 9.36 24.5233 9.952 24.3953 10.928ZM31.1656 13.264H33.3096C33.3896 13.984 34.0136 14.48 35.1176 14.48C36.0616 14.48 36.6376 14.176 36.6376 13.6C36.6376 12.928 36.0776 12.88 34.7496 12.704C32.8296 12.48 31.3416 12.048 31.3416 10.352C31.3416 8.72 32.7656 7.648 34.8776 7.664C37.0856 7.664 38.6056 8.64 38.7176 10.32H36.5576C36.4936 9.664 35.8696 9.264 34.9576 9.264C34.0776 9.264 33.5016 9.584 33.5016 10.112C33.5016 10.736 34.2056 10.8 35.3896 10.944C37.2776 11.136 38.8456 11.568 38.8456 13.424C38.8456 15.056 37.3096 16.096 35.1016 16.096C32.8136 16.096 31.2616 15.024 31.1656 13.264ZM40.626 13.648V9.68H39.266V7.776H40.626V5.472H42.882V7.776H44.77V9.68H42.882V13.28C42.882 13.856 43.106 14.096 43.698 14.096H44.818V16H42.978C41.41 16 40.626 15.216 40.626 13.648ZM46.9981 6.896C46.2621 6.896 45.6861 6.352 45.6861 5.632C45.6861 4.896 46.2621 4.352 46.9981 4.352C47.7341 4.352 48.3101 4.896 48.3101 5.632C48.3101 6.352 47.7341 6.896 46.9981 6.896ZM45.8621 16V7.776H48.1341V16H45.8621ZM53.7063 16.096C51.0823 16.096 49.3703 14.416 49.3703 11.888C49.3703 9.36 51.0823 7.68 53.7063 7.68C56.3303 7.68 58.0423 9.36 58.0423 11.888C58.0423 14.432 56.3303 16.096 53.7063 16.096ZM53.7063 14.256C54.9703 14.256 55.7543 13.28 55.7543 11.888C55.7543 10.496 54.9703 9.52 53.7063 9.52C52.4423 9.52 51.6743 10.496 51.6743 11.888C51.6743 13.28 52.4423 14.256 53.7063 14.256ZM64.004 7.68C65.78 7.68 67.3 8.624 67.3 11.44V16H65.044V11.664C65.044 10.272 64.516 9.536 63.38 9.536C62.212 9.536 61.54 10.368 61.54 11.792V16H59.284V7.776H61.252L61.46 8.8C61.988 8.16 62.74 7.68 64.004 7.68ZM76.5303 16.096C74.2263 16.096 72.7383 14.912 72.4823 12.848H74.7543C74.9463 13.728 75.6343 14.24 76.6583 14.24C78.1463 14.24 78.9463 13.04 78.9463 11.024C78.9463 10.944 78.9463 10.848 78.9303 10.736L78.6903 11.088C78.1463 11.84 77.2503 12.256 76.1943 12.256C73.9223 12.256 72.3863 10.8 72.3863 8.512C72.3863 6.288 74.0663 4.704 76.5623 4.704C78.0663 4.704 79.2343 5.296 80.0183 6.336C80.7383 7.296 81.1543 8.656 81.1543 10.272C81.1543 13.984 79.5063 16.096 76.5303 16.096ZM76.5463 10.48C77.6823 10.48 78.4823 9.68 78.4823 8.48C78.4823 7.296 77.7143 6.512 76.5783 6.512C75.4423 6.512 74.6903 7.312 74.6903 8.48C74.6903 9.664 75.4103 10.48 76.5463 10.48ZM91.9119 12.368H86.3119V10.528H91.9119V12.368ZM97.6036 16V4.8H101.892C104.132 4.8 105.62 6.144 105.62 8.24C105.62 9.808 104.676 11.024 103.236 11.424L105.748 16H104.18L101.812 11.696H98.9956V16H97.6036ZM101.796 6.08H98.9956V10.416H101.78C103.252 10.416 104.196 9.552 104.196 8.24C104.196 6.928 103.252 6.08 101.796 6.08ZM114.065 14.8H114.481V16H113.761C112.673 16 112.305 15.536 112.289 14.736C111.777 15.472 110.961 16.096 109.553 16.096C107.761 16.096 106.545 15.2 106.545 13.712C106.545 12.08 107.681 11.168 109.825 11.168H112.225V10.608C112.225 9.552 111.473 8.912 110.193 8.912C109.041 8.912 108.273 9.456 108.113 10.288H106.801C106.993 8.688 108.289 7.744 110.257 7.744C112.337 7.744 113.537 8.784 113.537 10.688V14.256C113.537 14.688 113.697 14.8 114.065 14.8ZM112.225 12.672V12.272H109.697C108.529 12.272 107.873 12.704 107.873 13.632C107.873 14.432 108.561 14.976 109.649 14.976C111.281 14.976 112.225 14.032 112.225 12.672ZM116.162 6.464C115.682 6.464 115.314 6.112 115.314 5.616C115.314 5.12 115.682 4.768 116.162 4.768C116.642 4.768 117.01 5.12 117.01 5.616C117.01 6.112 116.642 6.464 116.162 6.464ZM115.49 16V7.84H116.802V16H115.49ZM118.263 13.312H119.607C119.655 14.272 120.503 14.976 121.863 14.976C123.015 14.976 123.831 14.48 123.831 13.728C123.831 12.704 122.935 12.624 121.719 12.48C119.895 12.256 118.439 11.888 118.439 10.192C118.439 8.704 119.799 7.728 121.639 7.744C123.495 7.76 124.839 8.624 124.967 10.32H123.623C123.527 9.488 122.759 8.864 121.639 8.864C120.503 8.864 119.735 9.344 119.735 10.096C119.735 10.992 120.599 11.104 121.783 11.248C123.639 11.472 125.127 11.824 125.127 13.632C125.127 15.152 123.671 16.096 121.863 16.096C119.751 16.096 118.295 15.104 118.263 13.312ZM130.344 16.096C127.896 16.096 126.296 14.416 126.296 11.92C126.296 9.44 127.864 7.744 130.168 7.744C132.472 7.744 133.976 9.2 134.04 11.616C134.04 11.792 134.024 11.984 134.008 12.176H127.672V12.288C127.72 13.84 128.696 14.928 130.248 14.928C131.4 14.928 132.296 14.32 132.568 13.264H133.896C133.576 14.896 132.232 16.096 130.344 16.096ZM127.752 11.088H132.632C132.504 9.68 131.544 8.896 130.184 8.896C128.984 8.896 127.88 9.76 127.752 11.088ZM146.94 14.8H147.356V16H146.636C145.548 16 145.18 15.536 145.164 14.736C144.652 15.472 143.836 16.096 142.428 16.096C140.636 16.096 139.42 15.2 139.42 13.712C139.42 12.08 140.556 11.168 142.7 11.168H145.1V10.608C145.1 9.552 144.348 8.912 143.068 8.912C141.916 8.912 141.148 9.456 140.988 10.288H139.676C139.868 8.688 141.164 7.744 143.132 7.744C145.212 7.744 146.412 8.784 146.412 10.688V14.256C146.412 14.688 146.572 14.8 146.94 14.8ZM145.1 12.672V12.272H142.572C141.404 12.272 140.748 12.704 140.748 13.632C140.748 14.432 141.436 14.976 142.524 14.976C144.156 14.976 145.1 14.032 145.1 12.672ZM152.216 13.312H153.56C153.608 14.272 154.456 14.976 155.816 14.976C156.968 14.976 157.784 14.48 157.784 13.728C157.784 12.704 156.888 12.624 155.672 12.48C153.848 12.256 152.392 11.888 152.392 10.192C152.392 8.704 153.752 7.728 155.592 7.744C157.448 7.76 158.792 8.624 158.92 10.32H157.576C157.48 9.488 156.712 8.864 155.592 8.864C154.456 8.864 153.688 9.344 153.688 10.096C153.688 10.992 154.552 11.104 155.736 11.248C157.592 11.472 159.08 11.824 159.08 13.632C159.08 15.152 157.624 16.096 155.816 16.096C153.704 16.096 152.248 15.104 152.216 13.312ZM167.753 14.8H168.169V16H167.449C166.361 16 165.993 15.536 165.977 14.736C165.465 15.472 164.649 16.096 163.241 16.096C161.449 16.096 160.233 15.2 160.233 13.712C160.233 12.08 161.369 11.168 163.513 11.168H165.913V10.608C165.913 9.552 165.161 8.912 163.881 8.912C162.729 8.912 161.961 9.456 161.801 10.288H160.489C160.681 8.688 161.977 7.744 163.945 7.744C166.025 7.744 167.225 8.784 167.225 10.688V14.256C167.225 14.688 167.385 14.8 167.753 14.8ZM165.913 12.672V12.272H163.385C162.217 12.272 161.561 12.704 161.561 13.632C161.561 14.432 162.249 14.976 163.337 14.976C164.969 14.976 165.913 14.032 165.913 12.672ZM172.748 16.096C170.364 16.096 168.796 14.48 168.796 11.936C168.796 9.44 170.412 7.744 172.78 7.744C174.78 7.744 176.044 8.864 176.38 10.656H175.004C174.764 9.568 173.964 8.912 172.764 8.912C171.196 8.912 170.14 10.16 170.14 11.936C170.14 13.712 171.196 14.928 172.764 14.928C173.932 14.928 174.732 14.256 174.988 13.216H176.38C176.06 14.976 174.732 16.096 172.748 16.096ZM181.594 7.84H181.962V9.12H181.306C179.594 9.12 179.13 10.544 179.13 11.84V16H177.818V7.84H178.954L179.13 9.072C179.514 8.448 180.138 7.84 181.594 7.84ZM183.771 6.464C183.291 6.464 182.923 6.112 182.923 5.616C182.923 5.12 183.291 4.768 183.771 4.768C184.251 4.768 184.619 5.12 184.619 5.616C184.619 6.112 184.251 6.464 183.771 6.464ZM183.099 16V7.84H184.411V16H183.099ZM185.345 9.04V7.84H186.817V6.928C186.817 5.488 187.424 4.8 188.945 4.8H190.433V6H189.025C188.369 6 188.129 6.272 188.129 6.896V7.84H190.433V9.04H188.129V16H186.817V9.04H185.345ZM192.052 6.464C191.572 6.464 191.204 6.112 191.204 5.616C191.204 5.12 191.572 4.768 192.052 4.768C192.532 4.768 192.9 5.12 192.9 5.616C192.9 6.112 192.532 6.464 192.052 6.464ZM191.38 16V7.84H192.692V16H191.38ZM198.154 16.096C195.77 16.096 194.202 14.48 194.202 11.936C194.202 9.44 195.818 7.744 198.186 7.744C200.186 7.744 201.45 8.864 201.786 10.656H200.41C200.17 9.568 199.37 8.912 198.17 8.912C196.602 8.912 195.546 10.16 195.546 11.936C195.546 13.712 196.602 14.928 198.17 14.928C199.338 14.928 200.138 14.256 200.394 13.216H201.786C201.466 14.976 200.138 16.096 198.154 16.096ZM206.984 16.096C204.536 16.096 202.936 14.416 202.936 11.92C202.936 9.44 204.504 7.744 206.808 7.744C209.112 7.744 210.616 9.2 210.68 11.616C210.68 11.792 210.664 11.984 210.648 12.176H204.312V12.288C204.36 13.84 205.336 14.928 206.888 14.928C208.04 14.928 208.936 14.32 209.208 13.264H210.536C210.216 14.896 208.872 16.096 206.984 16.096ZM204.392 11.088H209.272C209.144 9.68 208.184 8.896 206.824 8.896C205.624 8.896 204.52 9.76 204.392 11.088Z" fill="#131313"/>
<path d="M333.531 13.625L333.531 12.25L334.85 12.25L334.85 13.625L333.531 13.625Z" fill="#131313"/>
<path d="M346.714 13.625L346.714 12.25L348.033 12.25L348.033 13.625L346.714 13.625Z" fill="#131313"/>
<path d="M334.85 15L334.85 13.625L336.168 13.625L336.168 15L334.85 15Z" fill="#131313"/>
<path d="M345.396 15L345.396 13.625L346.714 13.625L346.714 15L345.396 15Z" fill="#131313"/>
<path d="M334.85 13.625L334.85 12.25L336.168 12.25L336.168 13.625L334.85 13.625Z" fill="#131313"/>
<path d="M345.396 13.625L345.396 12.25L346.714 12.25L346.714 13.625L345.396 13.625Z" fill="#131313"/>
<path d="M336.168 13.625L336.168 12.25L337.486 12.25L337.486 13.625L336.168 13.625Z" fill="#131313"/>
<path d="M344.078 13.625L344.078 12.25L345.396 12.25L345.396 13.625L344.078 13.625Z" fill="#131313"/>
<path d="M334.85 12.25L334.85 10.875L336.168 10.875L336.168 12.25L334.85 12.25Z" fill="#131313"/>
<path d="M345.396 12.25L345.396 10.875L346.714 10.875L346.714 12.25L345.396 12.25Z" fill="#131313"/>
<path d="M336.168 12.25L336.168 10.875L337.486 10.875L337.486 12.25L336.168 12.25Z" fill="#131313"/>
<path d="M344.078 12.25L344.078 10.875L345.396 10.875L345.396 12.25L344.078 12.25Z" fill="#131313"/>
<path d="M337.486 12.25L337.486 10.875L338.804 10.875L338.804 12.25L337.486 12.25Z" fill="#131313"/>
<path d="M334.85 10.875L334.85 9.5L336.168 9.5L336.168 10.875L334.85 10.875Z" fill="#131313"/>
<path d="M345.396 10.875L345.396 9.5L346.714 9.5L346.714 10.875L345.396 10.875Z" fill="#131313"/>
<path d="M336.168 10.875L336.168 9.5L337.486 9.5L337.486 10.875L336.168 10.875Z" fill="#131313"/>
<path d="M344.078 10.875L344.078 9.5L345.396 9.5L345.396 10.875L344.078 10.875Z" fill="#131313"/>
<path d="M337.486 10.875L337.486 9.5L338.804 9.5L338.804 10.875L337.486 10.875Z" fill="#131313"/>
<path d="M338.804 10.875L338.804 9.5L340.123 9.5L340.123 10.875L338.804 10.875Z" fill="#131313"/>
<path d="M341.441 10.875L341.441 9.5L342.759 9.5L342.759 10.875L341.441 10.875Z" fill="#131313"/>
<path d="M342.759 10.875L342.759 9.5L344.078 9.5L344.078 10.875L342.759 10.875Z" fill="#131313"/>
<path d="M342.759 12.25L342.759 10.875L344.078 10.875L344.078 12.25L342.759 12.25Z" fill="#131313"/>
<path d="M336.168 9.5L336.168 8.125L337.486 8.125L337.486 9.5L336.168 9.5Z" fill="#131313"/>
<path d="M344.078 9.5L344.078 8.125L345.396 8.125L345.396 9.5L344.078 9.5Z" fill="#131313"/>
<path d="M337.486 9.5L337.486 8.125L338.804 8.125L338.804 9.5L337.486 9.5Z" fill="#131313"/>
<path d="M338.804 9.5L338.804 8.125L340.123 8.125L340.123 9.5L338.804 9.5Z" fill="#131313"/>
<path d="M341.441 9.5L341.441 8.125L342.759 8.125L342.759 9.5L341.441 9.5Z" fill="#131313"/>
<path d="M342.759 9.5L342.759 8.125L344.078 8.125L344.078 9.5L342.759 9.5Z" fill="#131313"/>
<path d="M340.123 9.5L340.123 8.125L341.441 8.125L341.441 9.5L340.123 9.5Z" fill="#131313"/>
<path d="M337.486 8.125L337.486 6.75L338.804 6.75L338.804 8.125L337.486 8.125Z" fill="#131313"/>
<path d="M338.804 8.125L338.804 6.75L340.123 6.75L340.123 8.125L338.804 8.125Z" fill="#131313"/>
<path d="M341.441 8.125L341.441 6.75L342.759 6.75L342.759 8.125L341.441 8.125Z" fill="#131313"/>
<path d="M342.759 8.125L342.759 6.75L344.078 6.75L344.078 8.125L342.759 8.125Z" fill="#131313"/>
<path d="M340.123 8.125L340.123 6.75L341.441 6.75L341.441 8.125L340.123 8.125Z" fill="#131313"/>
<path d="M338.804 6.75L338.804 5.375L340.123 5.375L340.123 6.75L338.804 6.75Z" fill="#131313"/>
<path d="M340.123 5.375L340.123 4L341.441 4L341.441 5.375L340.123 5.375Z" fill="#131313"/>
<path d="M340.123 6.75L340.123 5.375L341.441 5.375L341.441 6.75L340.123 6.75Z" fill="#131313"/>
<path d="M341.441 6.75L341.441 5.375L342.759 5.375L342.759 6.75L341.441 6.75Z" fill="#131313"/>
<path d="M333.531 12.25L333.531 10.875L334.85 10.875L334.85 12.25L333.531 12.25Z" fill="#131313"/>
<path d="M346.714 12.25L346.714 10.875L348.033 10.875L348.033 12.25L346.714 12.25Z" fill="#131313"/>
<rect x="0.5" y="32.5" width="209" height="29" fill="#FD9DAF"/>
<rect x="0.5" y="32.5" width="209" height="29" stroke="#131313"/>
<path d="M11.5059 48.38L8.42188 43.1H10.5219L12.4059 46.544L14.3859 43.1H16.3899L13.3059 48.38V51.5H11.5059V48.38ZM18.9251 51.572C16.8731 51.572 15.6371 50.336 15.6371 48.428C15.6371 46.508 16.8971 45.26 18.8051 45.26C20.6531 45.26 21.9011 46.412 21.9251 48.224C21.9251 48.404 21.9131 48.608 21.8771 48.8H17.4011V48.884C17.4371 49.76 18.0011 50.288 18.8531 50.288C19.5371 50.288 20.0171 49.988 20.1611 49.412H21.8291C21.6371 50.612 20.5691 51.572 18.9251 51.572ZM17.4371 47.696H20.2211C20.1011 46.94 19.5851 46.52 18.8171 46.52C18.0851 46.52 17.5331 46.964 17.4371 47.696ZM22.5148 49.448H24.1228C24.1828 49.988 24.6508 50.36 25.4788 50.36C26.1868 50.36 26.6188 50.132 26.6188 49.7C26.6188 49.196 26.1988 49.16 25.2028 49.028C23.7628 48.86 22.6468 48.536 22.6468 47.264C22.6468 46.04 23.7148 45.236 25.2988 45.248C26.9548 45.248 28.0948 45.98 28.1788 47.24H26.5588C26.5108 46.748 26.0428 46.448 25.3588 46.448C24.6988 46.448 24.2668 46.688 24.2668 47.084C24.2668 47.552 24.7948 47.6 25.6828 47.708C27.0988 47.852 28.2748 48.176 28.2748 49.568C28.2748 50.792 27.1228 51.572 25.4668 51.572C23.7508 51.572 22.5868 50.768 22.5148 49.448Z" fill="#131313"/>
<path d="M38.4514 50.18C38.0314 49.448 37.7914 48.44 37.7914 47.336C37.7914 44.696 38.9794 43.028 40.9834 43.028C42.5074 43.028 43.5514 43.94 43.7554 45.344H42.7474C42.5554 44.492 41.9554 43.916 40.9354 43.916C39.4714 43.916 38.6674 45.248 38.6674 47.144C38.6674 47.264 38.6674 47.348 38.6794 47.552C38.6914 47.504 38.7034 47.432 38.7514 47.324C39.1234 46.496 39.9634 45.944 41.0914 45.944C42.7474 45.944 43.9114 47.036 43.9114 48.752C43.9114 50.372 42.7234 51.572 40.9954 51.572C39.8314 51.572 38.9794 51.044 38.4514 50.18ZM42.9034 48.752C42.9034 47.636 42.1834 46.832 41.0194 46.832C39.8554 46.832 39.0634 47.624 39.0634 48.776C39.0634 49.904 39.8314 50.684 40.9834 50.684C42.1474 50.684 42.9034 49.88 42.9034 48.752ZM44.533 49.448V48.548L48.817 43.1H49.945V48.524H51.301V49.448H49.945V51.5H48.937V49.448H44.533ZM48.937 44.336L45.661 48.524H48.937V44.336ZM51.7844 50.9C51.7844 50.492 52.0724 50.228 52.4684 50.228C52.8644 50.228 53.1524 50.492 53.1524 50.9C53.1524 51.308 52.8644 51.572 52.4684 51.572C52.0724 51.572 51.7844 51.308 51.7844 50.9ZM54.9356 44.012V43.1H55.9196V51.5H54.9116V45.476C54.7916 45.584 54.5996 45.632 54.3356 45.632H52.9796V44.732H54.3476C54.7436 44.732 54.9356 44.432 54.9356 44.012ZM59.092 42.812C59.684 42.812 60.132 43.048 60.436 43.52C60.74 43.984 60.892 44.64 60.892 45.488C60.892 46.336 60.744 47 60.448 47.48C60.16 47.952 59.708 48.188 59.092 48.188C58.716 48.188 58.396 48.08 58.132 47.864C57.868 47.648 57.668 47.34 57.532 46.94C57.404 46.532 57.34 46.048 57.34 45.488C57.34 44.64 57.48 43.984 57.76 43.52C58.04 43.048 58.484 42.812 59.092 42.812ZM59.092 43.556C58.788 43.556 58.564 43.72 58.42 44.048C58.284 44.368 58.216 44.848 58.216 45.488C58.216 46.128 58.284 46.612 58.42 46.94C58.564 47.268 58.788 47.432 59.092 47.432C59.404 47.432 59.636 47.272 59.788 46.952C59.94 46.624 60.016 46.136 60.016 45.488C60.016 44.848 59.94 44.368 59.788 44.048C59.636 43.72 59.404 43.556 59.092 43.556ZM64.576 42.932L59.824 51.5H58.9L63.652 42.932H64.576ZM64.336 46.244C64.728 46.244 65.056 46.352 65.32 46.568C65.584 46.776 65.784 47.08 65.92 47.48C66.064 47.872 66.136 48.352 66.136 48.92C66.136 49.768 65.988 50.432 65.692 50.912C65.404 51.384 64.952 51.62 64.336 51.62C63.96 51.62 63.64 51.512 63.376 51.296C63.112 51.08 62.912 50.772 62.776 50.372C62.648 49.964 62.584 49.48 62.584 48.92C62.584 48.072 62.724 47.416 63.004 46.952C63.284 46.48 63.728 46.244 64.336 46.244ZM64.336 47C64.032 47 63.808 47.16 63.664 47.48C63.528 47.8 63.46 48.28 63.46 48.92C63.46 49.568 63.528 50.056 63.664 50.384C63.808 50.704 64.032 50.864 64.336 50.864C64.648 50.864 64.88 50.704 65.032 50.384C65.184 50.064 65.26 49.576 65.26 48.92C65.26 48.28 65.184 47.8 65.032 47.48C64.88 47.16 64.648 47 64.336 47Z" fill="#131313"/>
<mask id="path-6-inside-1_538_2878" fill="white">
<path d="M210 32H349V62H210V32Z"/>
</mask>
<path d="M210 32H349V62H210V32Z" fill="#FCD290"/>
<path d="M349 32H350V31H349V32ZM349 62V63H350V62H349ZM210 33H349V31H210V33ZM348 32V62H350V32H348ZM349 61H210V63H349V61Z" fill="#131313" mask="url(#path-6-inside-1_538_2878)"/>
<path d="M220.685 51.5H218.921V43.1H220.553L224.117 48.392V43.1H225.893V51.5H224.249L220.685 46.208V51.5ZM230.204 51.572C228.236 51.572 226.952 50.312 226.952 48.416C226.952 46.52 228.236 45.26 230.204 45.26C232.172 45.26 233.456 46.52 233.456 48.416C233.456 50.324 232.172 51.572 230.204 51.572ZM230.204 50.192C231.152 50.192 231.74 49.46 231.74 48.416C231.74 47.372 231.152 46.64 230.204 46.64C229.256 46.64 228.68 47.372 228.68 48.416C228.68 49.46 229.256 50.192 230.204 50.192Z" fill="#131313"/>
<path d="M247.04 47.132C247.808 47.276 248.612 47.888 248.612 49.172C248.612 50.6 247.412 51.572 245.588 51.572C243.764 51.572 242.588 50.576 242.588 48.908H243.584C243.596 50.012 244.46 50.672 245.648 50.672C246.74 50.672 247.58 50.06 247.58 49.1C247.58 48.224 246.86 47.66 245.552 47.66H244.832V46.784H245.492C246.74 46.784 247.364 46.16 247.364 45.308C247.364 44.456 246.596 43.928 245.588 43.928C244.532 43.928 243.764 44.564 243.752 45.524H242.756C242.768 44.048 243.92 43.028 245.576 43.028C247.304 43.028 248.396 43.928 248.396 45.248C248.396 46.304 247.844 46.916 247.04 47.132ZM252.756 45.872C254.4 45.872 255.54 47.024 255.54 48.692C255.54 50.552 254.172 51.56 252.6 51.56C250.728 51.56 249.648 50.348 249.564 48.884H250.56C250.656 49.856 251.388 50.66 252.6 50.66C253.584 50.66 254.508 50 254.508 48.704C254.508 47.564 253.776 46.76 252.612 46.76C252.096 46.76 251.064 46.904 250.704 47.9L249.732 47.876L250.008 43.1H255.036V44.024H250.932L250.74 46.676C251.256 46.064 251.976 45.872 252.756 45.872ZM256.187 50.9C256.187 50.492 256.475 50.228 256.871 50.228C257.267 50.228 257.555 50.492 257.555 50.9C257.555 51.308 257.267 51.572 256.871 51.572C256.475 51.572 256.187 51.308 256.187 50.9ZM261.07 51.572C259.546 51.572 258.502 50.66 258.298 49.256H259.306C259.498 50.108 260.098 50.684 261.118 50.684C262.582 50.684 263.386 49.352 263.386 47.456C263.386 47.336 263.386 47.252 263.374 47.048C263.362 47.096 263.35 47.168 263.302 47.276C262.93 48.104 262.09 48.656 260.962 48.656C259.306 48.656 258.142 47.564 258.142 45.848C258.142 44.228 259.33 43.028 261.058 43.028C262.222 43.028 263.074 43.556 263.602 44.42C264.022 45.152 264.262 46.16 264.262 47.264C264.262 49.904 263.074 51.572 261.07 51.572ZM261.034 47.768C262.198 47.768 262.99 46.976 262.99 45.824C262.99 44.696 262.222 43.916 261.07 43.916C259.906 43.916 259.15 44.72 259.15 45.848C259.15 46.964 259.87 47.768 261.034 47.768ZM267.115 42.812C267.707 42.812 268.155 43.048 268.459 43.52C268.763 43.984 268.915 44.64 268.915 45.488C268.915 46.336 268.767 47 268.471 47.48C268.183 47.952 267.731 48.188 267.115 48.188C266.739 48.188 266.419 48.08 266.155 47.864C265.891 47.648 265.691 47.34 265.555 46.94C265.427 46.532 265.363 46.048 265.363 45.488C265.363 44.64 265.503 43.984 265.783 43.52C266.063 43.048 266.507 42.812 267.115 42.812ZM267.115 43.556C266.811 43.556 266.587 43.72 266.443 44.048C266.307 44.368 266.239 44.848 266.239 45.488C266.239 46.128 266.307 46.612 266.443 46.94C266.587 47.268 266.811 47.432 267.115 47.432C267.427 47.432 267.659 47.272 267.811 46.952C267.963 46.624 268.039 46.136 268.039 45.488C268.039 44.848 267.963 44.368 267.811 44.048C267.659 43.72 267.427 43.556 267.115 43.556ZM272.599 42.932L267.847 51.5H266.923L271.675 42.932H272.599ZM272.359 46.244C272.751 46.244 273.079 46.352 273.343 46.568C273.607 46.776 273.807 47.08 273.943 47.48C274.087 47.872 274.159 48.352 274.159 48.92C274.159 49.768 274.011 50.432 273.715 50.912C273.427 51.384 272.975 51.62 272.359 51.62C271.983 51.62 271.663 51.512 271.399 51.296C271.135 51.08 270.935 50.772 270.799 50.372C270.671 49.964 270.607 49.48 270.607 48.92C270.607 48.072 270.747 47.416 271.027 46.952C271.307 46.48 271.751 46.244 272.359 46.244ZM272.359 47C272.055 47 271.831 47.16 271.687 47.48C271.551 47.8 271.483 48.28 271.483 48.92C271.483 49.568 271.551 50.056 271.687 50.384C271.831 50.704 272.055 50.864 272.359 50.864C272.671 50.864 272.903 50.704 273.055 50.384C273.207 50.064 273.283 49.576 273.283 48.92C273.283 48.28 273.207 47.8 273.055 47.48C272.903 47.16 272.671 47 272.359 47Z" fill="#131313"/>
</svg>
