<svg width="12" height="9" viewBox="0 0 12 9" fill="none" xmlns="http://www.w3.org/2000/svg">
<path d="M1.31174e-08 7.80002L2.62347e-08 6.70002L1.09091 6.70002L1.09091 7.80002L1.31174e-08 7.80002Z" fill="#131313"/>
<path d="M10.9091 7.80002L10.9091 6.70002L12 6.70002L12 7.80002L10.9091 7.80002Z" fill="#131313"/>
<path d="M1.09091 8.90002L1.09091 7.80002L2.18182 7.80002L2.18182 8.90002L1.09091 8.90002Z" fill="#131313"/>
<path d="M9.81818 8.90002L9.81818 7.80002L10.9091 7.80002L10.9091 8.90002L9.81818 8.90002Z" fill="#131313"/>
<path d="M1.09091 7.80002L1.09091 6.70002L2.18182 6.70002L2.18182 7.80002L1.09091 7.80002Z" fill="#131313"/>
<path d="M9.81818 7.80002L9.81818 6.70002L10.9091 6.70002L10.9091 7.80002L9.81818 7.80002Z" fill="#131313"/>
<path d="M2.18182 7.80002L2.18182 6.70002L3.27273 6.70002L3.27273 7.80002L2.18182 7.80002Z" fill="#131313"/>
<path d="M8.72727 7.80002L8.72727 6.70002L9.81818 6.70002L9.81818 7.80002L8.72727 7.80002Z" fill="#131313"/>
<path d="M1.09091 6.70002L1.09091 5.60002L2.18182 5.60002L2.18182 6.70002L1.09091 6.70002Z" fill="#131313"/>
<path d="M9.81818 6.70002L9.81818 5.60002L10.9091 5.60002L10.9091 6.70002L9.81818 6.70002Z" fill="#131313"/>
<path d="M2.18182 6.70002L2.18182 5.60002L3.27273 5.60002L3.27273 6.70002L2.18182 6.70002Z" fill="#131313"/>
<path d="M8.72727 6.70002L8.72727 5.60002L9.81818 5.60002L9.81818 6.70002L8.72727 6.70002Z" fill="#131313"/>
<path d="M3.27273 6.70002L3.27273 5.60002L4.36364 5.60002L4.36364 6.70002L3.27273 6.70002Z" fill="#131313"/>
<path d="M1.09091 5.60002L1.09091 4.50002L2.18182 4.50002L2.18182 5.60002L1.09091 5.60002Z" fill="#131313"/>
<path d="M9.81818 5.60002L9.81818 4.50002L10.9091 4.50002L10.9091 5.60002L9.81818 5.60002Z" fill="#131313"/>
<path d="M2.18182 5.60002L2.18182 4.50002L3.27273 4.50002L3.27273 5.60002L2.18182 5.60002Z" fill="#131313"/>
<path d="M8.72727 5.60002L8.72727 4.50002L9.81818 4.50002L9.81818 5.60002L8.72727 5.60002Z" fill="#131313"/>
<path d="M3.27273 5.60002L3.27273 4.50002L4.36364 4.50002L4.36364 5.60002L3.27273 5.60002Z" fill="#131313"/>
<path d="M4.36364 5.60002L4.36364 4.50002L5.45455 4.50002L5.45455 5.60002L4.36364 5.60002Z" fill="#131313"/>
<path d="M6.54545 5.60002L6.54545 4.50002L7.63636 4.50002L7.63636 5.60002L6.54545 5.60002Z" fill="#131313"/>
<path d="M7.63636 5.60002L7.63636 4.50002L8.72727 4.50002L8.72727 5.60002L7.63636 5.60002Z" fill="#131313"/>
<path d="M7.63636 6.70002L7.63636 5.60002L8.72727 5.60002L8.72727 6.70002L7.63636 6.70002Z" fill="#131313"/>
<path d="M2.18182 4.50002L2.18182 3.40002L3.27273 3.40002L3.27273 4.50002L2.18182 4.50002Z" fill="#131313"/>
<path d="M8.72727 4.50002L8.72727 3.40002L9.81818 3.40002L9.81818 4.50002L8.72727 4.50002Z" fill="#131313"/>
<path d="M3.27273 4.50002L3.27273 3.40002L4.36364 3.40002L4.36364 4.50002L3.27273 4.50002Z" fill="#131313"/>
<path d="M4.36364 4.50002L4.36364 3.40002L5.45455 3.40002L5.45455 4.50002L4.36364 4.50002Z" fill="#131313"/>
<path d="M6.54545 4.50002L6.54545 3.40002L7.63636 3.40002L7.63636 4.50002L6.54545 4.50002Z" fill="#131313"/>
<path d="M7.63636 4.50002L7.63636 3.40002L8.72727 3.40002L8.72727 4.50002L7.63636 4.50002Z" fill="#131313"/>
<path d="M5.45455 4.50002L5.45455 3.40002L6.54545 3.40002L6.54545 4.50002L5.45455 4.50002Z" fill="#131313"/>
<path d="M3.27273 3.40002L3.27273 2.30002L4.36364 2.30002L4.36364 3.40002L3.27273 3.40002Z" fill="#131313"/>
<path d="M4.36364 3.40002L4.36364 2.30002L5.45455 2.30002L5.45455 3.40002L4.36364 3.40002Z" fill="#131313"/>
<path d="M6.54545 3.40002L6.54545 2.30002L7.63636 2.30002L7.63636 3.40002L6.54545 3.40002Z" fill="#131313"/>
<path d="M7.63636 3.40002L7.63636 2.30002L8.72727 2.30002L8.72727 3.40002L7.63636 3.40002Z" fill="#131313"/>
<path d="M5.45455 3.40002L5.45455 2.30002L6.54545 2.30002L6.54545 3.40002L5.45455 3.40002Z" fill="#131313"/>
<path d="M4.36364 2.30002L4.36364 1.20002L5.45455 1.20002L5.45455 2.30002L4.36364 2.30002Z" fill="#131313"/>
<path d="M5.45455 1.20002L5.45455 0.100025L6.54545 0.100025L6.54545 1.20002L5.45455 1.20002Z" fill="#131313"/>
<path d="M5.45455 2.30002L5.45455 1.20002L6.54545 1.20002L6.54545 2.30002L5.45455 2.30002Z" fill="#131313"/>
<path d="M6.54545 2.30002L6.54545 1.20002L7.63636 1.20002L7.63636 2.30002L6.54545 2.30002Z" fill="#131313"/>
<path d="M2.62347e-08 6.70002L3.93521e-08 5.60002L1.09091 5.60002L1.09091 6.70002L2.62347e-08 6.70002Z" fill="#131313"/>
<path d="M10.9091 6.70002L10.9091 5.60002L12 5.60002L12 6.70002L10.9091 6.70002Z" fill="#131313"/>
</svg>
