<svg width="12" height="9" viewBox="0 0 12 9" fill="none" xmlns="http://www.w3.org/2000/svg">
<path d="M12 1.19998L12 2.29998L10.9091 2.29998L10.9091 1.19998L12 1.19998Z" fill="#131313"/>
<path d="M1.09091 1.19998L1.09091 2.29997L-9.6165e-08 2.29997L-4.80825e-08 1.19997L1.09091 1.19998Z" fill="#131313"/>
<path d="M10.9091 0.0999755L10.9091 1.19998L9.81818 1.19998L9.81818 0.0999755L10.9091 0.0999755Z" fill="#131313"/>
<path d="M2.18182 0.0999752L2.18182 1.19998L1.09091 1.19998L1.09091 0.0999751L2.18182 0.0999752Z" fill="#131313"/>
<path d="M10.9091 1.19998L10.9091 2.29998L9.81818 2.29998L9.81818 1.19998L10.9091 1.19998Z" fill="#131313"/>
<path d="M2.18182 1.19998L2.18182 2.29997L1.09091 2.29997L1.09091 1.19998L2.18182 1.19998Z" fill="#131313"/>
<path d="M9.81818 1.19998L9.81818 2.29998L8.72727 2.29998L8.72727 1.19998L9.81818 1.19998Z" fill="#131313"/>
<path d="M3.27273 1.19998L3.27273 2.29998L2.18182 2.29997L2.18182 1.19998L3.27273 1.19998Z" fill="#131313"/>
<path d="M10.9091 2.29998L10.9091 3.39998L9.81818 3.39998L9.81818 2.29998L10.9091 2.29998Z" fill="#131313"/>
<path d="M2.18182 2.29997L2.18182 3.39998L1.09091 3.39998L1.09091 2.29997L2.18182 2.29997Z" fill="#131313"/>
<path d="M9.81818 2.29998L9.81818 3.39998L8.72727 3.39998L8.72727 2.29998L9.81818 2.29998Z" fill="#131313"/>
<path d="M3.27273 2.29998L3.27273 3.39998L2.18182 3.39998L2.18182 2.29997L3.27273 2.29998Z" fill="#131313"/>
<path d="M8.72727 2.29998L8.72727 3.39998L7.63636 3.39998L7.63636 2.29998L8.72727 2.29998Z" fill="#131313"/>
<path d="M10.9091 3.39998L10.9091 4.49998L9.81818 4.49998L9.81818 3.39998L10.9091 3.39998Z" fill="#131313"/>
<path d="M2.18182 3.39998L2.18182 4.49997L1.09091 4.49997L1.09091 3.39998L2.18182 3.39998Z" fill="#131313"/>
<path d="M9.81818 3.39998L9.81818 4.49998L8.72727 4.49998L8.72727 3.39998L9.81818 3.39998Z" fill="#131313"/>
<path d="M3.27273 3.39998L3.27273 4.49997L2.18182 4.49997L2.18182 3.39998L3.27273 3.39998Z" fill="#131313"/>
<path d="M8.72727 3.39998L8.72727 4.49998L7.63636 4.49998L7.63636 3.39998L8.72727 3.39998Z" fill="#131313"/>
<path d="M7.63636 3.39998L7.63636 4.49998L6.54545 4.49997L6.54545 3.39998L7.63636 3.39998Z" fill="#131313"/>
<path d="M5.45455 3.39998L5.45455 4.49997L4.36364 4.49997L4.36364 3.39998L5.45455 3.39998Z" fill="#131313"/>
<path d="M4.36364 3.39998L4.36364 4.49997L3.27273 4.49997L3.27273 3.39998L4.36364 3.39998Z" fill="#131313"/>
<path d="M4.36364 2.29998L4.36364 3.39998L3.27273 3.39998L3.27273 2.29998L4.36364 2.29998Z" fill="#131313"/>
<path d="M9.81818 4.49998L9.81818 5.59998L8.72727 5.59998L8.72727 4.49998L9.81818 4.49998Z" fill="#131313"/>
<path d="M3.27273 4.49997L3.27273 5.59998L2.18182 5.59998L2.18182 4.49997L3.27273 4.49997Z" fill="#131313"/>
<path d="M8.72727 4.49998L8.72727 5.59998L7.63636 5.59998L7.63636 4.49998L8.72727 4.49998Z" fill="#131313"/>
<path d="M7.63636 4.49998L7.63636 5.59998L6.54545 5.59998L6.54545 4.49997L7.63636 4.49998Z" fill="#131313"/>
<path d="M5.45455 4.49997L5.45455 5.59998L4.36364 5.59998L4.36364 4.49997L5.45455 4.49997Z" fill="#131313"/>
<path d="M4.36364 4.49997L4.36364 5.59998L3.27273 5.59998L3.27273 4.49997L4.36364 4.49997Z" fill="#131313"/>
<path d="M6.54545 4.49997L6.54545 5.59998L5.45455 5.59998L5.45455 4.49997L6.54545 4.49997Z" fill="#131313"/>
<path d="M8.72727 5.59998L8.72727 6.69998L7.63636 6.69998L7.63636 5.59998L8.72727 5.59998Z" fill="#131313"/>
<path d="M7.63636 5.59998L7.63636 6.69998L6.54545 6.69998L6.54545 5.59998L7.63636 5.59998Z" fill="#131313"/>
<path d="M5.45455 5.59998L5.45455 6.69998L4.36364 6.69998L4.36364 5.59998L5.45455 5.59998Z" fill="#131313"/>
<path d="M4.36364 5.59998L4.36364 6.69998L3.27273 6.69998L3.27273 5.59998L4.36364 5.59998Z" fill="#131313"/>
<path d="M6.54545 5.59998L6.54545 6.69998L5.45455 6.69998L5.45455 5.59998L6.54545 5.59998Z" fill="#131313"/>
<path d="M7.63636 6.69998L7.63636 7.79998L6.54545 7.79998L6.54545 6.69998L7.63636 6.69998Z" fill="#131313"/>
<path d="M6.54545 7.79998L6.54545 8.89997L5.45455 8.89997L5.45455 7.79998L6.54545 7.79998Z" fill="#131313"/>
<path d="M6.54545 6.69998L6.54545 7.79998L5.45455 7.79998L5.45455 6.69998L6.54545 6.69998Z" fill="#131313"/>
<path d="M5.45455 6.69998L5.45455 7.79998L4.36364 7.79998L4.36364 6.69998L5.45455 6.69998Z" fill="#131313"/>
<path d="M12 2.29998L12 3.39998L10.9091 3.39998L10.9091 2.29998L12 2.29998Z" fill="#131313"/>
<path d="M1.09091 2.29997L1.09091 3.39998L-1.44248e-07 3.39998L-9.6165e-08 2.29997L1.09091 2.29997Z" fill="#131313"/>
</svg>
