<svg width="349" height="62" viewBox="0 0 349 62" fill="none" xmlns="http://www.w3.org/2000/svg">
<path d="M10.928 13.936H12.032V16H10.88C9.92 16 9.52 15.728 9.136 15.248C8.288 15.792 7.232 16.096 6.064 16.096C2.768 16.096 0.512 13.664 0.512 10.4C0.512 7.136 2.768 4.704 6.064 4.704C9.36 4.704 11.616 7.136 11.616 10.4C11.616 11.728 11.248 12.928 10.576 13.872C10.672 13.904 10.784 13.936 10.928 13.936ZM2.96 10.4C2.96 12.512 4.176 14.064 6.064 14.064C6.72 14.064 7.296 13.872 7.776 13.536L7.616 13.344C7.376 13.024 7.168 12.848 6.816 12.848H5.776V10.816H6.992C7.936 10.816 8.256 11.152 8.64 11.632L8.896 11.952C9.072 11.488 9.152 10.96 9.152 10.4C9.152 8.288 7.936 6.736 6.064 6.736C4.176 6.736 2.96 8.288 2.96 10.4ZM18.4908 11.888V7.776H20.7468V16H18.7468L18.5388 15.008C18.0108 15.648 17.2908 16.096 16.1228 16.096C14.4268 16.096 12.8588 15.248 12.8588 12.336V7.776H15.1148V12.032C15.1148 13.504 15.5948 14.224 16.7148 14.224C17.8348 14.224 18.4908 13.408 18.4908 11.888ZM26.3793 16.096C23.6432 16.096 21.9953 14.448 21.9953 11.904C21.9953 9.344 23.6753 7.68 26.2193 7.68C28.6833 7.68 30.3472 9.216 30.3793 11.632C30.3793 11.872 30.3633 12.144 30.3153 12.4H24.3473V12.512C24.3953 13.68 25.1473 14.384 26.2833 14.384C27.1953 14.384 27.8353 13.984 28.0273 13.216H30.2513C29.9953 14.816 28.5713 16.096 26.3793 16.096ZM24.3953 10.928H28.1073C27.9473 9.92 27.2593 9.36 26.2352 9.36C25.2593 9.36 24.5233 9.952 24.3953 10.928ZM31.1656 13.264H33.3096C33.3896 13.984 34.0136 14.48 35.1176 14.48C36.0616 14.48 36.6376 14.176 36.6376 13.6C36.6376 12.928 36.0776 12.88 34.7496 12.704C32.8296 12.48 31.3416 12.048 31.3416 10.352C31.3416 8.72 32.7656 7.648 34.8776 7.664C37.0856 7.664 38.6056 8.64 38.7176 10.32H36.5576C36.4936 9.664 35.8696 9.264 34.9576 9.264C34.0776 9.264 33.5016 9.584 33.5016 10.112C33.5016 10.736 34.2056 10.8 35.3896 10.944C37.2776 11.136 38.8456 11.568 38.8456 13.424C38.8456 15.056 37.3096 16.096 35.1016 16.096C32.8136 16.096 31.2616 15.024 31.1656 13.264ZM40.626 13.648V9.68H39.266V7.776H40.626V5.472H42.882V7.776H44.77V9.68H42.882V13.28C42.882 13.856 43.106 14.096 43.698 14.096H44.818V16H42.978C41.41 16 40.626 15.216 40.626 13.648ZM46.9981 6.896C46.2621 6.896 45.6861 6.352 45.6861 5.632C45.6861 4.896 46.2621 4.352 46.9981 4.352C47.7341 4.352 48.3101 4.896 48.3101 5.632C48.3101 6.352 47.7341 6.896 46.9981 6.896ZM45.8621 16V7.776H48.1341V16H45.8621ZM53.7063 16.096C51.0823 16.096 49.3703 14.416 49.3703 11.888C49.3703 9.36 51.0823 7.68 53.7063 7.68C56.3303 7.68 58.0423 9.36 58.0423 11.888C58.0423 14.432 56.3303 16.096 53.7063 16.096ZM53.7063 14.256C54.9703 14.256 55.7543 13.28 55.7543 11.888C55.7543 10.496 54.9703 9.52 53.7063 9.52C52.4423 9.52 51.6743 10.496 51.6743 11.888C51.6743 13.28 52.4423 14.256 53.7063 14.256ZM64.004 7.68C65.78 7.68 67.3 8.624 67.3 11.44V16H65.044V11.664C65.044 10.272 64.516 9.536 63.38 9.536C62.212 9.536 61.54 10.368 61.54 11.792V16H59.284V7.776H61.252L61.46 8.8C61.988 8.16 62.74 7.68 64.004 7.68ZM78.6103 10.176C79.8103 10.416 80.7863 11.2 80.7863 12.832C80.7863 14.768 79.1223 16.096 76.4823 16.096C73.8423 16.096 72.1623 14.752 72.1623 12.352H74.4503C74.4823 13.616 75.3783 14.288 76.5943 14.288C77.6343 14.288 78.4503 13.696 78.4503 12.688C78.4503 11.808 77.7943 11.248 76.4983 11.248H75.3943V9.408H76.3703C77.6023 9.408 78.2263 8.784 78.2263 7.904C78.2263 6.992 77.4583 6.512 76.4983 6.512C75.4103 6.512 74.6423 7.184 74.6103 8.224H72.3543C72.3863 6.128 74.0823 4.704 76.5303 4.704C79.0583 4.704 80.5623 5.888 80.5623 7.728C80.5623 9.088 79.7143 9.888 78.6103 10.176ZM91.5213 12.368H85.9213V10.528H91.5213V12.368ZM107.485 10.4C107.485 13.696 105.293 16.096 102.141 16.096C98.989 16.096 96.797 13.696 96.797 10.4C96.797 7.104 98.989 4.704 102.141 4.704C105.293 4.704 107.485 7.104 107.485 10.4ZM98.221 10.4C98.221 12.976 99.805 14.816 102.141 14.816C104.477 14.816 106.061 12.976 106.061 10.4C106.061 7.824 104.477 5.984 102.141 5.984C99.805 5.984 98.221 7.824 98.221 10.4ZM114.764 11.92V7.84H116.076V16H114.94L114.764 14.912C114.284 15.52 113.5 16.096 112.156 16.096C110.364 16.096 108.94 15.088 108.94 12.384V7.84H110.252V12.304C110.252 14 111.02 14.896 112.38 14.896C113.868 14.896 114.764 13.76 114.764 11.92ZM118.504 13.872V9.04H117.032V7.84H118.504V5.552H119.816V7.84H121.928V9.04H119.816V13.856C119.816 14.544 120.056 14.8 120.76 14.8H122.056V16H120.632C119.064 16 118.504 15.312 118.504 13.872ZM131.14 16.096C128.756 16.096 127.092 14.4 127.092 11.92C127.092 9.44 128.756 7.744 131.14 7.744C133.524 7.744 135.188 9.44 135.188 11.92C135.188 14.4 133.524 16.096 131.14 16.096ZM131.14 14.928C132.756 14.928 133.844 13.664 133.844 11.92C133.844 10.176 132.756 8.912 131.14 8.912C129.524 8.912 128.436 10.176 128.436 11.92C128.436 13.664 129.524 14.928 131.14 14.928ZM135.735 9.04V7.84H137.207V6.928C137.207 5.488 137.815 4.8 139.335 4.8H140.823V6H139.415C138.759 6 138.519 6.272 138.519 6.896V7.84H140.823V9.04H138.519V16H137.207V9.04H135.735ZM145.959 16V4.8H147.271V16H145.959ZM152.828 16.096C150.444 16.096 148.78 14.4 148.78 11.92C148.78 9.44 150.444 7.744 152.828 7.744C155.212 7.744 156.876 9.44 156.876 11.92C156.876 14.4 155.212 16.096 152.828 16.096ZM152.828 14.928C154.444 14.928 155.532 13.664 155.532 11.92C155.532 10.176 154.444 8.912 152.828 8.912C151.212 8.912 150.124 10.176 150.124 11.92C150.124 13.664 151.212 14.928 152.828 14.928ZM160.261 16L157.205 7.84H158.613L161.077 14.512L163.525 7.84H164.901L161.845 16H160.261ZM169.281 16.096C166.833 16.096 165.233 14.416 165.233 11.92C165.233 9.44 166.801 7.744 169.105 7.744C171.409 7.744 172.913 9.2 172.977 11.616C172.977 11.792 172.961 11.984 172.945 12.176H166.609V12.288C166.657 13.84 167.633 14.928 169.185 14.928C170.337 14.928 171.233 14.32 171.505 13.264H172.833C172.513 14.896 171.169 16.096 169.281 16.096ZM166.689 11.088H171.569C171.441 9.68 170.481 8.896 169.121 8.896C167.921 8.896 166.817 9.76 166.689 11.088Z" fill="#131313"/>
<path d="M348.033 5.375L348.033 6.75L346.715 6.75L346.715 5.375L348.033 5.375Z" fill="#131313"/>
<path d="M334.85 5.375L334.85 6.75L333.532 6.75L333.532 5.375L334.85 5.375Z" fill="#131313"/>
<path d="M346.715 4L346.715 5.375L345.397 5.375L345.397 4L346.715 4Z" fill="#131313"/>
<path d="M336.169 4L336.169 5.375L334.85 5.375L334.85 4L336.169 4Z" fill="#131313"/>
<path d="M346.715 5.375L346.715 6.75L345.397 6.75L345.397 5.375L346.715 5.375Z" fill="#131313"/>
<path d="M336.169 5.375L336.169 6.75L334.85 6.75L334.85 5.375L336.169 5.375Z" fill="#131313"/>
<path d="M345.397 5.375L345.397 6.75L344.079 6.75L344.079 5.375L345.397 5.375Z" fill="#131313"/>
<path d="M337.487 5.375L337.487 6.75L336.169 6.75L336.169 5.375L337.487 5.375Z" fill="#131313"/>
<path d="M346.715 6.75L346.715 8.125L345.397 8.125L345.397 6.75L346.715 6.75Z" fill="#131313"/>
<path d="M336.169 6.75L336.169 8.125L334.85 8.125L334.85 6.75L336.169 6.75Z" fill="#131313"/>
<path d="M345.397 6.75L345.397 8.125L344.079 8.125L344.079 6.75L345.397 6.75Z" fill="#131313"/>
<path d="M337.487 6.75L337.487 8.125L336.169 8.125L336.169 6.75L337.487 6.75Z" fill="#131313"/>
<path d="M344.079 6.75L344.079 8.125L342.76 8.125L342.76 6.75L344.079 6.75Z" fill="#131313"/>
<path d="M346.715 8.125L346.715 9.5L345.397 9.5L345.397 8.125L346.715 8.125Z" fill="#131313"/>
<path d="M336.169 8.125L336.169 9.5L334.85 9.5L334.85 8.125L336.169 8.125Z" fill="#131313"/>
<path d="M345.397 8.125L345.397 9.5L344.079 9.5L344.079 8.125L345.397 8.125Z" fill="#131313"/>
<path d="M337.487 8.125L337.487 9.5L336.169 9.5L336.169 8.125L337.487 8.125Z" fill="#131313"/>
<path d="M344.079 8.125L344.079 9.5L342.76 9.5L342.76 8.125L344.079 8.125Z" fill="#131313"/>
<path d="M342.76 8.125L342.76 9.5L341.442 9.5L341.442 8.125L342.76 8.125Z" fill="#131313"/>
<path d="M340.124 8.125L340.124 9.5L338.805 9.5L338.805 8.125L340.124 8.125Z" fill="#131313"/>
<path d="M338.805 8.125L338.805 9.5L337.487 9.5L337.487 8.125L338.805 8.125Z" fill="#131313"/>
<path d="M338.805 6.75L338.805 8.125L337.487 8.125L337.487 6.75L338.805 6.75Z" fill="#131313"/>
<path d="M345.397 9.5L345.397 10.875L344.079 10.875L344.079 9.5L345.397 9.5Z" fill="#131313"/>
<path d="M337.487 9.5L337.487 10.875L336.169 10.875L336.169 9.5L337.487 9.5Z" fill="#131313"/>
<path d="M344.079 9.5L344.079 10.875L342.76 10.875L342.76 9.5L344.079 9.5Z" fill="#131313"/>
<path d="M342.76 9.5L342.76 10.875L341.442 10.875L341.442 9.5L342.76 9.5Z" fill="#131313"/>
<path d="M340.124 9.5L340.124 10.875L338.805 10.875L338.805 9.5L340.124 9.5Z" fill="#131313"/>
<path d="M338.805 9.5L338.805 10.875L337.487 10.875L337.487 9.5L338.805 9.5Z" fill="#131313"/>
<path d="M341.442 9.5L341.442 10.875L340.124 10.875L340.124 9.5L341.442 9.5Z" fill="#131313"/>
<path d="M344.079 10.875L344.079 12.25L342.76 12.25L342.76 10.875L344.079 10.875Z" fill="#131313"/>
<path d="M342.76 10.875L342.76 12.25L341.442 12.25L341.442 10.875L342.76 10.875Z" fill="#131313"/>
<path d="M340.124 10.875L340.124 12.25L338.805 12.25L338.805 10.875L340.124 10.875Z" fill="#131313"/>
<path d="M338.805 10.875L338.805 12.25L337.487 12.25L337.487 10.875L338.805 10.875Z" fill="#131313"/>
<path d="M341.442 10.875L341.442 12.25L340.124 12.25L340.124 10.875L341.442 10.875Z" fill="#131313"/>
<path d="M342.76 12.25L342.76 13.625L341.442 13.625L341.442 12.25L342.76 12.25Z" fill="#131313"/>
<path d="M341.442 13.625L341.442 15L340.124 15L340.124 13.625L341.442 13.625Z" fill="#131313"/>
<path d="M341.442 12.25L341.442 13.625L340.124 13.625L340.124 12.25L341.442 12.25Z" fill="#131313"/>
<path d="M340.124 12.25L340.124 13.625L338.805 13.625L338.805 12.25L340.124 12.25Z" fill="#131313"/>
<path d="M348.033 6.75L348.033 8.125L346.715 8.125L346.715 6.75L348.033 6.75Z" fill="#131313"/>
<path d="M334.85 6.75L334.85 8.125L333.532 8.125L333.532 6.75L334.85 6.75Z" fill="#131313"/>
<rect x="0.5" y="32.5" width="243" height="29" fill="#DCECA1"/>
<rect x="0.5" y="32.5" width="243" height="29" stroke="#131313"/>
<path d="M11.5059 48.38L8.42188 43.1H10.5219L12.4059 46.544L14.3859 43.1H16.3899L13.3059 48.38V51.5H11.5059V48.38ZM18.9251 51.572C16.8731 51.572 15.6371 50.336 15.6371 48.428C15.6371 46.508 16.8971 45.26 18.8051 45.26C20.6531 45.26 21.9011 46.412 21.9251 48.224C21.9251 48.404 21.9131 48.608 21.8771 48.8H17.4011V48.884C17.4371 49.76 18.0011 50.288 18.8531 50.288C19.5371 50.288 20.0171 49.988 20.1611 49.412H21.8291C21.6371 50.612 20.5691 51.572 18.9251 51.572ZM17.4371 47.696H20.2211C20.1011 46.94 19.5851 46.52 18.8171 46.52C18.0851 46.52 17.5331 46.964 17.4371 47.696ZM22.5148 49.448H24.1228C24.1828 49.988 24.6508 50.36 25.4788 50.36C26.1868 50.36 26.6188 50.132 26.6188 49.7C26.6188 49.196 26.1988 49.16 25.2028 49.028C23.7628 48.86 22.6468 48.536 22.6468 47.264C22.6468 46.04 23.7148 45.236 25.2988 45.248C26.9548 45.248 28.0948 45.98 28.1788 47.24H26.5588C26.5108 46.748 26.0428 46.448 25.3588 46.448C24.6988 46.448 24.2668 46.688 24.2668 47.084C24.2668 47.552 24.7948 47.6 25.6828 47.708C27.0988 47.852 28.2748 48.176 28.2748 49.568C28.2748 50.792 27.1228 51.572 25.4668 51.572C23.7508 51.572 22.5868 50.768 22.5148 49.448Z" fill="#131313"/>
<path d="M42.043 47.156C42.979 47.372 43.723 48.092 43.723 49.244C43.723 50.6 42.559 51.572 40.663 51.572C38.767 51.572 37.603 50.6 37.603 49.244C37.603 48.104 38.335 47.372 39.283 47.156C38.479 46.976 37.843 46.268 37.843 45.26C37.843 43.94 38.947 43.028 40.663 43.028C42.379 43.028 43.483 43.94 43.483 45.26C43.483 46.22 42.859 46.976 42.043 47.156ZM38.875 45.26C38.875 46.088 39.583 46.64 40.663 46.64C41.743 46.64 42.451 46.088 42.451 45.26C42.451 44.444 41.743 43.892 40.663 43.892C39.583 43.892 38.875 44.444 38.875 45.26ZM40.663 50.708C41.863 50.708 42.691 50.072 42.691 49.172C42.691 48.284 41.863 47.648 40.663 47.648C39.463 47.648 38.635 48.284 38.635 49.172C38.635 50.072 39.475 50.708 40.663 50.708ZM44.7172 47.492V47.108C44.7172 44.72 46.0132 43.028 47.9092 43.028C49.7932 43.028 51.0892 44.72 51.0892 47.108V47.492C51.0892 50 49.7932 51.572 47.9092 51.572C46.0132 51.572 44.7172 50 44.7172 47.492ZM50.0692 47.456V47.144C50.0692 45.152 49.2052 43.952 47.9092 43.952C46.6012 43.952 45.7372 45.152 45.7372 47.144V47.456C45.7372 49.448 46.6012 50.648 47.9092 50.648C49.2052 50.648 50.0692 49.448 50.0692 47.456ZM51.5618 50.9C51.5618 50.492 51.8498 50.228 52.2458 50.228C52.6418 50.228 52.9298 50.492 52.9298 50.9C52.9298 51.308 52.6418 51.572 52.2458 51.572C51.8498 51.572 51.5618 51.308 51.5618 50.9ZM53.7464 51.5V50.648L57.0104 47.816C57.7904 47.144 58.4384 46.496 58.4384 45.584C58.4384 44.528 57.7184 43.928 56.6024 43.928C55.5224 43.928 54.8024 44.648 54.8024 45.8V45.956H53.7944V45.74C53.7944 44.156 54.9104 43.028 56.6024 43.028C58.4144 43.028 59.4704 44.024 59.4704 45.536C59.4704 46.796 58.6544 47.588 57.6584 48.44L55.1384 50.576H59.5304V51.5H53.7464ZM62.2443 42.812C62.8363 42.812 63.2843 43.048 63.5883 43.52C63.8923 43.984 64.0443 44.64 64.0443 45.488C64.0443 46.336 63.8963 47 63.6003 47.48C63.3123 47.952 62.8603 48.188 62.2443 48.188C61.8683 48.188 61.5483 48.08 61.2843 47.864C61.0203 47.648 60.8203 47.34 60.6843 46.94C60.5563 46.532 60.4923 46.048 60.4923 45.488C60.4923 44.64 60.6323 43.984 60.9123 43.52C61.1923 43.048 61.6363 42.812 62.2443 42.812ZM62.2443 43.556C61.9403 43.556 61.7163 43.72 61.5723 44.048C61.4363 44.368 61.3683 44.848 61.3683 45.488C61.3683 46.128 61.4363 46.612 61.5723 46.94C61.7163 47.268 61.9403 47.432 62.2443 47.432C62.5563 47.432 62.7883 47.272 62.9403 46.952C63.0923 46.624 63.1683 46.136 63.1683 45.488C63.1683 44.848 63.0923 44.368 62.9403 44.048C62.7883 43.72 62.5563 43.556 62.2443 43.556ZM67.7283 42.932L62.9763 51.5H62.0523L66.8043 42.932H67.7283ZM67.4883 46.244C67.8803 46.244 68.2083 46.352 68.4723 46.568C68.7363 46.776 68.9363 47.08 69.0723 47.48C69.2163 47.872 69.2883 48.352 69.2883 48.92C69.2883 49.768 69.1403 50.432 68.8443 50.912C68.5563 51.384 68.1043 51.62 67.4883 51.62C67.1123 51.62 66.7923 51.512 66.5283 51.296C66.2643 51.08 66.0643 50.772 65.9283 50.372C65.8003 49.964 65.7363 49.48 65.7363 48.92C65.7363 48.072 65.8763 47.416 66.1563 46.952C66.4363 46.48 66.8803 46.244 67.4883 46.244ZM67.4883 47C67.1843 47 66.9603 47.16 66.8163 47.48C66.6803 47.8 66.6123 48.28 66.6123 48.92C66.6123 49.568 66.6803 50.056 66.8163 50.384C66.9603 50.704 67.1843 50.864 67.4883 50.864C67.8003 50.864 68.0323 50.704 68.1843 50.384C68.3363 50.064 68.4123 49.576 68.4123 48.92C68.4123 48.28 68.3363 47.8 68.1843 47.48C68.0323 47.16 67.8003 47 67.4883 47Z" fill="#131313"/>
<mask id="path-6-inside-1_111_8672" fill="white">
<path d="M244 32H349V62H244V32Z"/>
</mask>
<path d="M244 32H349V62H244V32Z" fill="#89CDFF"/>
<path d="M349 32H350V31H349V32ZM349 62V63H350V62H349ZM244 33H349V31H244V33ZM348 32V62H350V32H348ZM349 61H244V63H349V61Z" fill="#131313" mask="url(#path-6-inside-1_111_8672)"/>
<path d="M254.685 51.5H252.921V43.1H254.553L258.117 48.392V43.1H259.893V51.5H258.249L254.685 46.208V51.5ZM264.204 51.572C262.236 51.572 260.952 50.312 260.952 48.416C260.952 46.52 262.236 45.26 264.204 45.26C266.172 45.26 267.456 46.52 267.456 48.416C267.456 50.324 266.172 51.572 264.204 51.572ZM264.204 50.192C265.152 50.192 265.74 49.46 265.74 48.416C265.74 47.372 265.152 46.64 264.204 46.64C263.256 46.64 262.68 47.372 262.68 48.416C262.68 49.46 263.256 50.192 264.204 50.192Z" fill="#131313"/>
<path d="M278.186 44.012V43.1H279.17V51.5H278.162V45.476C278.042 45.584 277.85 45.632 277.586 45.632H276.23V44.732H277.598C277.994 44.732 278.186 44.432 278.186 44.012ZM283.398 51.572C281.874 51.572 280.83 50.66 280.626 49.256H281.634C281.826 50.108 282.426 50.684 283.446 50.684C284.91 50.684 285.714 49.352 285.714 47.456C285.714 47.336 285.714 47.252 285.702 47.048C285.69 47.096 285.678 47.168 285.63 47.276C285.258 48.104 284.418 48.656 283.29 48.656C281.634 48.656 280.47 47.564 280.47 45.848C280.47 44.228 281.658 43.028 283.386 43.028C284.55 43.028 285.402 43.556 285.93 44.42C286.35 45.152 286.59 46.16 286.59 47.264C286.59 49.904 285.402 51.572 283.398 51.572ZM283.362 47.768C284.526 47.768 285.318 46.976 285.318 45.824C285.318 44.696 284.55 43.916 283.398 43.916C282.234 43.916 281.478 44.72 281.478 45.848C281.478 46.964 282.198 47.768 283.362 47.768ZM287.105 50.9C287.105 50.492 287.393 50.228 287.789 50.228C288.185 50.228 288.473 50.492 288.473 50.9C288.473 51.308 288.185 51.572 287.789 51.572C287.393 51.572 287.105 51.308 287.105 50.9ZM293.688 47.156C294.624 47.372 295.368 48.092 295.368 49.244C295.368 50.6 294.204 51.572 292.308 51.572C290.412 51.572 289.248 50.6 289.248 49.244C289.248 48.104 289.98 47.372 290.928 47.156C290.124 46.976 289.488 46.268 289.488 45.26C289.488 43.94 290.592 43.028 292.308 43.028C294.024 43.028 295.128 43.94 295.128 45.26C295.128 46.22 294.504 46.976 293.688 47.156ZM290.52 45.26C290.52 46.088 291.228 46.64 292.308 46.64C293.388 46.64 294.096 46.088 294.096 45.26C294.096 44.444 293.388 43.892 292.308 43.892C291.228 43.892 290.52 44.444 290.52 45.26ZM292.308 50.708C293.508 50.708 294.336 50.072 294.336 49.172C294.336 48.284 293.508 47.648 292.308 47.648C291.108 47.648 290.28 48.284 290.28 49.172C290.28 50.072 291.12 50.708 292.308 50.708ZM298.186 42.812C298.778 42.812 299.226 43.048 299.53 43.52C299.834 43.984 299.986 44.64 299.986 45.488C299.986 46.336 299.838 47 299.542 47.48C299.254 47.952 298.802 48.188 298.186 48.188C297.81 48.188 297.49 48.08 297.226 47.864C296.962 47.648 296.762 47.34 296.626 46.94C296.498 46.532 296.434 46.048 296.434 45.488C296.434 44.64 296.574 43.984 296.854 43.52C297.134 43.048 297.578 42.812 298.186 42.812ZM298.186 43.556C297.882 43.556 297.658 43.72 297.514 44.048C297.378 44.368 297.31 44.848 297.31 45.488C297.31 46.128 297.378 46.612 297.514 46.94C297.658 47.268 297.882 47.432 298.186 47.432C298.498 47.432 298.73 47.272 298.882 46.952C299.034 46.624 299.11 46.136 299.11 45.488C299.11 44.848 299.034 44.368 298.882 44.048C298.73 43.72 298.498 43.556 298.186 43.556ZM303.67 42.932L298.918 51.5H297.994L302.746 42.932H303.67ZM303.43 46.244C303.822 46.244 304.15 46.352 304.414 46.568C304.678 46.776 304.878 47.08 305.014 47.48C305.158 47.872 305.23 48.352 305.23 48.92C305.23 49.768 305.082 50.432 304.786 50.912C304.498 51.384 304.046 51.62 303.43 51.62C303.054 51.62 302.734 51.512 302.47 51.296C302.206 51.08 302.006 50.772 301.87 50.372C301.742 49.964 301.678 49.48 301.678 48.92C301.678 48.072 301.818 47.416 302.098 46.952C302.378 46.48 302.822 46.244 303.43 46.244ZM303.43 47C303.126 47 302.902 47.16 302.758 47.48C302.622 47.8 302.554 48.28 302.554 48.92C302.554 49.568 302.622 50.056 302.758 50.384C302.902 50.704 303.126 50.864 303.43 50.864C303.742 50.864 303.974 50.704 304.126 50.384C304.278 50.064 304.354 49.576 304.354 48.92C304.354 48.28 304.278 47.8 304.126 47.48C303.974 47.16 303.742 47 303.43 47Z" fill="#131313"/>
</svg>
