<svg width="349" height="62" viewBox="0 0 349 62" fill="none" xmlns="http://www.w3.org/2000/svg">
<path d="M10.928 13.936H12.032V16H10.88C9.92 16 9.52 15.728 9.136 15.248C8.288 15.792 7.232 16.096 6.064 16.096C2.768 16.096 0.512 13.664 0.512 10.4C0.512 7.136 2.768 4.704 6.064 4.704C9.36 4.704 11.616 7.136 11.616 10.4C11.616 11.728 11.248 12.928 10.576 13.872C10.672 13.904 10.784 13.936 10.928 13.936ZM2.96 10.4C2.96 12.512 4.176 14.064 6.064 14.064C6.72 14.064 7.296 13.872 7.776 13.536L7.616 13.344C7.376 13.024 7.168 12.848 6.816 12.848H5.776V10.816H6.992C7.936 10.816 8.256 11.152 8.64 11.632L8.896 11.952C9.072 11.488 9.152 10.96 9.152 10.4C9.152 8.288 7.936 6.736 6.064 6.736C4.176 6.736 2.96 8.288 2.96 10.4ZM18.4908 11.888V7.776H20.7468V16H18.7468L18.5388 15.008C18.0108 15.648 17.2908 16.096 16.1228 16.096C14.4268 16.096 12.8588 15.248 12.8588 12.336V7.776H15.1148V12.032C15.1148 13.504 15.5948 14.224 16.7148 14.224C17.8348 14.224 18.4908 13.408 18.4908 11.888ZM26.3793 16.096C23.6432 16.096 21.9953 14.448 21.9953 11.904C21.9953 9.344 23.6753 7.68 26.2193 7.68C28.6833 7.68 30.3472 9.216 30.3793 11.632C30.3793 11.872 30.3633 12.144 30.3153 12.4H24.3473V12.512C24.3953 13.68 25.1473 14.384 26.2833 14.384C27.1953 14.384 27.8353 13.984 28.0273 13.216H30.2513C29.9953 14.816 28.5713 16.096 26.3793 16.096ZM24.3953 10.928H28.1073C27.9473 9.92 27.2593 9.36 26.2352 9.36C25.2593 9.36 24.5233 9.952 24.3953 10.928ZM31.1656 13.264H33.3096C33.3896 13.984 34.0136 14.48 35.1176 14.48C36.0616 14.48 36.6376 14.176 36.6376 13.6C36.6376 12.928 36.0776 12.88 34.7496 12.704C32.8296 12.48 31.3416 12.048 31.3416 10.352C31.3416 8.72 32.7656 7.648 34.8776 7.664C37.0856 7.664 38.6056 8.64 38.7176 10.32H36.5576C36.4936 9.664 35.8696 9.264 34.9576 9.264C34.0776 9.264 33.5016 9.584 33.5016 10.112C33.5016 10.736 34.2056 10.8 35.3896 10.944C37.2776 11.136 38.8456 11.568 38.8456 13.424C38.8456 15.056 37.3096 16.096 35.1016 16.096C32.8136 16.096 31.2616 15.024 31.1656 13.264ZM40.626 13.648V9.68H39.266V7.776H40.626V5.472H42.882V7.776H44.77V9.68H42.882V13.28C42.882 13.856 43.106 14.096 43.698 14.096H44.818V16H42.978C41.41 16 40.626 15.216 40.626 13.648ZM46.9981 6.896C46.2621 6.896 45.6861 6.352 45.6861 5.632C45.6861 4.896 46.2621 4.352 46.9981 4.352C47.7341 4.352 48.3101 4.896 48.3101 5.632C48.3101 6.352 47.7341 6.896 46.9981 6.896ZM45.8621 16V7.776H48.1341V16H45.8621ZM53.7063 16.096C51.0823 16.096 49.3703 14.416 49.3703 11.888C49.3703 9.36 51.0823 7.68 53.7063 7.68C56.3303 7.68 58.0423 9.36 58.0423 11.888C58.0423 14.432 56.3303 16.096 53.7063 16.096ZM53.7063 14.256C54.9703 14.256 55.7543 13.28 55.7543 11.888C55.7543 10.496 54.9703 9.52 53.7063 9.52C52.4423 9.52 51.6743 10.496 51.6743 11.888C51.6743 13.28 52.4423 14.256 53.7063 14.256ZM64.004 7.68C65.78 7.68 67.3 8.624 67.3 11.44V16H65.044V11.664C65.044 10.272 64.516 9.536 63.38 9.536C62.212 9.536 61.54 10.368 61.54 11.792V16H59.284V7.776H61.252L61.46 8.8C61.988 8.16 62.74 7.68 64.004 7.68ZM74.5623 5.824V4.8H76.8183V16H74.5143V8.752C74.3383 8.8 74.1463 8.816 73.9062 8.816H72.0343V6.912H73.6983C74.3383 6.912 74.5623 6.48 74.5623 5.824ZM79.3653 14.336C78.7093 13.392 78.3413 12.064 78.3413 10.512C78.3413 6.768 80.1332 4.704 82.9493 4.704C85.0453 4.704 86.6933 5.904 86.9493 7.952H84.6773C84.4693 7.056 83.7653 6.56 82.7733 6.56C81.3333 6.56 80.5173 7.712 80.5173 9.776V10.048C80.5653 9.968 80.5973 9.904 80.6613 9.808C81.1733 9.008 82.1493 8.496 83.3013 8.496C85.5573 8.496 87.0933 10.032 87.0933 12.288C87.0933 14.576 85.4133 16.096 82.9173 16.096C81.3493 16.096 80.1493 15.456 79.3653 14.336ZM84.7893 12.288C84.7893 11.104 84.0693 10.288 82.9333 10.288C81.7973 10.288 81.0133 11.088 81.0133 12.288C81.0133 13.488 81.7653 14.288 82.9013 14.288C84.0373 14.288 84.7893 13.472 84.7893 12.288ZM97.7869 12.368H92.1869V10.528H97.7869V12.368ZM107.063 16H103.479V4.8H107.063C110.567 4.8 112.695 7.04 112.695 10.4C112.695 13.744 110.567 16 107.063 16ZM104.871 6.08V14.72H107.063C109.783 14.72 111.271 13.008 111.271 10.4C111.271 7.776 109.783 6.08 107.063 6.08H104.871ZM114.927 6.464C114.447 6.464 114.079 6.112 114.079 5.616C114.079 5.12 114.447 4.768 114.927 4.768C115.407 4.768 115.775 5.12 115.775 5.616C115.775 6.112 115.407 6.464 114.927 6.464ZM114.255 16V7.84H115.567V16H114.255ZM117.029 13.312H118.373C118.421 14.272 119.269 14.976 120.629 14.976C121.781 14.976 122.597 14.48 122.597 13.728C122.597 12.704 121.701 12.624 120.485 12.48C118.661 12.256 117.205 11.888 117.205 10.192C117.205 8.704 118.565 7.728 120.405 7.744C122.261 7.76 123.605 8.624 123.733 10.32H122.389C122.293 9.488 121.525 8.864 120.405 8.864C119.269 8.864 118.501 9.344 118.501 10.096C118.501 10.992 119.365 11.104 120.549 11.248C122.405 11.472 123.893 11.824 123.893 13.632C123.893 15.152 122.437 16.096 120.629 16.096C118.517 16.096 117.061 15.104 117.029 13.312ZM125.957 13.872V9.04H124.485V7.84H125.957V5.552H127.269V7.84H129.381V9.04H127.269V13.856C127.269 14.544 127.509 14.8 128.213 14.8H129.509V16H128.085C126.517 16 125.957 15.312 125.957 13.872ZM134.203 16.096C131.819 16.096 130.155 14.4 130.155 11.92C130.155 9.44 131.819 7.744 134.203 7.744C136.587 7.744 138.251 9.44 138.251 11.92C138.251 14.4 136.587 16.096 134.203 16.096ZM134.203 14.928C135.819 14.928 136.907 13.664 136.907 11.92C136.907 10.176 135.819 8.912 134.203 8.912C132.587 8.912 131.499 10.176 131.499 11.92C131.499 13.664 132.587 14.928 134.203 14.928ZM143.531 7.84H143.899V9.12H143.243C141.531 9.12 141.067 10.544 141.067 11.84V16H139.755V7.84H140.891L141.067 9.072C141.451 8.448 142.075 7.84 143.531 7.84ZM145.91 13.872V9.04H144.438V7.84H145.91V5.552H147.222V7.84H149.334V9.04H147.222V13.856C147.222 14.544 147.462 14.8 148.166 14.8H149.462V16H148.038C146.47 16 145.91 15.312 145.91 13.872ZM151.271 6.464C150.791 6.464 150.423 6.112 150.423 5.616C150.423 5.12 150.791 4.768 151.271 4.768C151.751 4.768 152.119 5.12 152.119 5.616C152.119 6.112 151.751 6.464 151.271 6.464ZM150.599 16V7.84H151.911V16H150.599ZM157.709 7.744C159.549 7.744 161.005 8.752 161.005 11.456V16H159.693V11.536C159.693 9.84 158.909 8.944 157.485 8.944C155.949 8.944 155.021 10.08 155.021 11.92V16H153.709V7.84H154.845L155.021 8.944C155.501 8.32 156.333 7.744 157.709 7.744ZM169.109 9.248L169.285 7.84H170.421V15.6C170.421 17.952 169.173 19.296 166.373 19.296C164.293 19.296 162.837 18.32 162.629 16.528H163.973C164.197 17.552 165.109 18.128 166.469 18.128C168.181 18.128 169.109 17.328 169.109 15.552V14.592C168.565 15.52 167.685 16.096 166.309 16.096C164.053 16.096 162.389 14.576 162.389 11.92C162.389 9.424 164.053 7.744 166.309 7.744C167.685 7.744 168.597 8.336 169.109 9.248ZM166.437 14.928C168.037 14.928 169.125 13.696 169.125 11.952C169.125 10.16 168.037 8.912 166.437 8.912C164.821 8.912 163.733 10.144 163.733 11.92C163.733 13.696 164.821 14.928 166.437 14.928ZM180.156 16.096C177.708 16.096 176.108 14.416 176.108 11.92C176.108 9.44 177.676 7.744 179.98 7.744C182.284 7.744 183.788 9.2 183.852 11.616C183.852 11.792 183.836 11.984 183.82 12.176H177.484V12.288C177.532 13.84 178.508 14.928 180.06 14.928C181.212 14.928 182.108 14.32 182.38 13.264H183.708C183.388 14.896 182.044 16.096 180.156 16.096ZM177.564 11.088H182.444C182.316 9.68 181.356 8.896 179.996 8.896C178.796 8.896 177.692 9.76 177.564 11.088ZM184.391 9.04V7.84H185.863V6.928C185.863 5.488 186.471 4.8 187.991 4.8H189.479V6H188.071C187.415 6 187.175 6.272 187.175 6.896V7.84H189.479V9.04H187.175V16H185.863V9.04H184.391ZM189.907 9.04V7.84H191.379V6.928C191.379 5.488 191.987 4.8 193.507 4.8H194.995V6H193.587C192.931 6 192.691 6.272 192.691 6.896V7.84H194.995V9.04H192.691V16H191.379V9.04H189.907ZM199.328 16.096C196.88 16.096 195.28 14.416 195.28 11.92C195.28 9.44 196.848 7.744 199.152 7.744C201.456 7.744 202.96 9.2 203.024 11.616C203.024 11.792 203.008 11.984 202.992 12.176H196.656V12.288C196.704 13.84 197.68 14.928 199.232 14.928C200.384 14.928 201.28 14.32 201.552 13.264H202.88C202.56 14.896 201.216 16.096 199.328 16.096ZM196.736 11.088H201.616C201.488 9.68 200.528 8.896 199.168 8.896C197.968 8.896 196.864 9.76 196.736 11.088ZM208.185 16.096C205.801 16.096 204.233 14.48 204.233 11.936C204.233 9.44 205.849 7.744 208.217 7.744C210.217 7.744 211.481 8.864 211.817 10.656H210.441C210.201 9.568 209.401 8.912 208.201 8.912C206.633 8.912 205.577 10.16 205.577 11.936C205.577 13.712 206.633 14.928 208.201 14.928C209.369 14.928 210.169 14.256 210.425 13.216H211.817C211.497 14.976 210.169 16.096 208.185 16.096ZM213.863 13.872V9.04H212.391V7.84H213.863V5.552H215.175V7.84H217.287V9.04H215.175V13.856C215.175 14.544 215.415 14.8 216.119 14.8H217.415V16H215.991C214.423 16 213.863 15.312 213.863 13.872Z" fill="#131313"/>
<path d="M333.531 13.625L333.531 12.25L334.85 12.25L334.85 13.625L333.531 13.625Z" fill="#131313"/>
<path d="M346.714 13.625L346.714 12.25L348.033 12.25L348.033 13.625L346.714 13.625Z" fill="#131313"/>
<path d="M334.85 15L334.85 13.625L336.168 13.625L336.168 15L334.85 15Z" fill="#131313"/>
<path d="M345.396 15L345.396 13.625L346.714 13.625L346.714 15L345.396 15Z" fill="#131313"/>
<path d="M334.85 13.625L334.85 12.25L336.168 12.25L336.168 13.625L334.85 13.625Z" fill="#131313"/>
<path d="M345.396 13.625L345.396 12.25L346.714 12.25L346.714 13.625L345.396 13.625Z" fill="#131313"/>
<path d="M336.168 13.625L336.168 12.25L337.486 12.25L337.486 13.625L336.168 13.625Z" fill="#131313"/>
<path d="M344.078 13.625L344.078 12.25L345.396 12.25L345.396 13.625L344.078 13.625Z" fill="#131313"/>
<path d="M334.85 12.25L334.85 10.875L336.168 10.875L336.168 12.25L334.85 12.25Z" fill="#131313"/>
<path d="M345.396 12.25L345.396 10.875L346.714 10.875L346.714 12.25L345.396 12.25Z" fill="#131313"/>
<path d="M336.168 12.25L336.168 10.875L337.486 10.875L337.486 12.25L336.168 12.25Z" fill="#131313"/>
<path d="M344.078 12.25L344.078 10.875L345.396 10.875L345.396 12.25L344.078 12.25Z" fill="#131313"/>
<path d="M337.486 12.25L337.486 10.875L338.804 10.875L338.804 12.25L337.486 12.25Z" fill="#131313"/>
<path d="M334.85 10.875L334.85 9.5L336.168 9.5L336.168 10.875L334.85 10.875Z" fill="#131313"/>
<path d="M345.396 10.875L345.396 9.5L346.714 9.5L346.714 10.875L345.396 10.875Z" fill="#131313"/>
<path d="M336.168 10.875L336.168 9.5L337.486 9.5L337.486 10.875L336.168 10.875Z" fill="#131313"/>
<path d="M344.078 10.875L344.078 9.5L345.396 9.5L345.396 10.875L344.078 10.875Z" fill="#131313"/>
<path d="M337.486 10.875L337.486 9.5L338.804 9.5L338.804 10.875L337.486 10.875Z" fill="#131313"/>
<path d="M338.804 10.875L338.804 9.5L340.123 9.5L340.123 10.875L338.804 10.875Z" fill="#131313"/>
<path d="M341.441 10.875L341.441 9.5L342.759 9.5L342.759 10.875L341.441 10.875Z" fill="#131313"/>
<path d="M342.759 10.875L342.759 9.5L344.078 9.5L344.078 10.875L342.759 10.875Z" fill="#131313"/>
<path d="M342.759 12.25L342.759 10.875L344.078 10.875L344.078 12.25L342.759 12.25Z" fill="#131313"/>
<path d="M336.168 9.5L336.168 8.125L337.486 8.125L337.486 9.5L336.168 9.5Z" fill="#131313"/>
<path d="M344.078 9.5L344.078 8.125L345.396 8.125L345.396 9.5L344.078 9.5Z" fill="#131313"/>
<path d="M337.486 9.5L337.486 8.125L338.804 8.125L338.804 9.5L337.486 9.5Z" fill="#131313"/>
<path d="M338.804 9.5L338.804 8.125L340.123 8.125L340.123 9.5L338.804 9.5Z" fill="#131313"/>
<path d="M341.441 9.5L341.441 8.125L342.759 8.125L342.759 9.5L341.441 9.5Z" fill="#131313"/>
<path d="M342.759 9.5L342.759 8.125L344.078 8.125L344.078 9.5L342.759 9.5Z" fill="#131313"/>
<path d="M340.123 9.5L340.123 8.125L341.441 8.125L341.441 9.5L340.123 9.5Z" fill="#131313"/>
<path d="M337.486 8.125L337.486 6.75L338.804 6.75L338.804 8.125L337.486 8.125Z" fill="#131313"/>
<path d="M338.804 8.125L338.804 6.75L340.123 6.75L340.123 8.125L338.804 8.125Z" fill="#131313"/>
<path d="M341.441 8.125L341.441 6.75L342.759 6.75L342.759 8.125L341.441 8.125Z" fill="#131313"/>
<path d="M342.759 8.125L342.759 6.75L344.078 6.75L344.078 8.125L342.759 8.125Z" fill="#131313"/>
<path d="M340.123 8.125L340.123 6.75L341.441 6.75L341.441 8.125L340.123 8.125Z" fill="#131313"/>
<path d="M338.804 6.75L338.804 5.375L340.123 5.375L340.123 6.75L338.804 6.75Z" fill="#131313"/>
<path d="M340.123 5.375L340.123 4L341.441 4L341.441 5.375L340.123 5.375Z" fill="#131313"/>
<path d="M340.123 6.75L340.123 5.375L341.441 5.375L341.441 6.75L340.123 6.75Z" fill="#131313"/>
<path d="M341.441 6.75L341.441 5.375L342.759 5.375L342.759 6.75L341.441 6.75Z" fill="#131313"/>
<path d="M333.531 12.25L333.531 10.875L334.85 10.875L334.85 12.25L333.531 12.25Z" fill="#131313"/>
<path d="M346.714 12.25L346.714 10.875L348.033 10.875L348.033 12.25L346.714 12.25Z" fill="#131313"/>
<rect x="0.5" y="32.5" width="277" height="29" fill="#F6F3F1"/>
<rect x="0.5" y="32.5" width="277" height="29" stroke="#131313"/>
<path d="M11.5059 48.38L8.42188 43.1H10.5219L12.4059 46.544L14.3859 43.1H16.3899L13.3059 48.38V51.5H11.5059V48.38ZM18.9251 51.572C16.8731 51.572 15.6371 50.336 15.6371 48.428C15.6371 46.508 16.8971 45.26 18.8051 45.26C20.6531 45.26 21.9011 46.412 21.9251 48.224C21.9251 48.404 21.9131 48.608 21.8771 48.8H17.4011V48.884C17.4371 49.76 18.0011 50.288 18.8531 50.288C19.5371 50.288 20.0171 49.988 20.1611 49.412H21.8291C21.6371 50.612 20.5691 51.572 18.9251 51.572ZM17.4371 47.696H20.2211C20.1011 46.94 19.5851 46.52 18.8171 46.52C18.0851 46.52 17.5331 46.964 17.4371 47.696ZM22.5148 49.448H24.1228C24.1828 49.988 24.6508 50.36 25.4788 50.36C26.1868 50.36 26.6188 50.132 26.6188 49.7C26.6188 49.196 26.1988 49.16 25.2028 49.028C23.7628 48.86 22.6468 48.536 22.6468 47.264C22.6468 46.04 23.7148 45.236 25.2988 45.248C26.9548 45.248 28.0948 45.98 28.1788 47.24H26.5588C26.5108 46.748 26.0428 46.448 25.3588 46.448C24.6988 46.448 24.2668 46.688 24.2668 47.084C24.2668 47.552 24.7948 47.6 25.6828 47.708C27.0988 47.852 28.2748 48.176 28.2748 49.568C28.2748 50.792 27.1228 51.572 25.4668 51.572C23.7508 51.572 22.5868 50.768 22.5148 49.448Z" fill="#131313"/>
<path d="M42.3595 47.156C43.2955 47.372 44.0395 48.092 44.0395 49.244C44.0395 50.6 42.8755 51.572 40.9795 51.572C39.0835 51.572 37.9195 50.6 37.9195 49.244C37.9195 48.104 38.6515 47.372 39.5995 47.156C38.7955 46.976 38.1595 46.268 38.1595 45.26C38.1595 43.94 39.2635 43.028 40.9795 43.028C42.6955 43.028 43.7995 43.94 43.7995 45.26C43.7995 46.22 43.1755 46.976 42.3595 47.156ZM39.1915 45.26C39.1915 46.088 39.8995 46.64 40.9795 46.64C42.0595 46.64 42.7675 46.088 42.7675 45.26C42.7675 44.444 42.0595 43.892 40.9795 43.892C39.8995 43.892 39.1915 44.444 39.1915 45.26ZM40.9795 50.708C42.1795 50.708 43.0075 50.072 43.0075 49.172C43.0075 48.284 42.1795 47.648 40.9795 47.648C39.7795 47.648 38.9515 48.284 38.9515 49.172C38.9515 50.072 39.7915 50.708 40.9795 50.708ZM48.1776 45.872C49.8216 45.872 50.9616 47.024 50.9616 48.692C50.9616 50.552 49.5936 51.56 48.0216 51.56C46.1496 51.56 45.0696 50.348 44.9856 48.884H45.9816C46.0776 49.856 46.8096 50.66 48.0216 50.66C49.0056 50.66 49.9296 50 49.9296 48.704C49.9296 47.564 49.1976 46.76 48.0336 46.76C47.5176 46.76 46.4856 46.904 46.1256 47.9L45.1536 47.876L45.4296 43.1H50.4576V44.024H46.3536L46.1616 46.676C46.6776 46.064 47.3976 45.872 48.1776 45.872ZM51.6086 50.9C51.6086 50.492 51.8966 50.228 52.2926 50.228C52.6886 50.228 52.9766 50.492 52.9766 50.9C52.9766 51.308 52.6886 51.572 52.2926 51.572C51.8966 51.572 51.6086 51.308 51.6086 50.9ZM53.5313 44.024V43.1H59.4593V43.808L55.3313 51.5H54.2393L58.3553 44.024H53.5313ZM61.9279 42.812C62.5199 42.812 62.9679 43.048 63.2719 43.52C63.5759 43.984 63.7279 44.64 63.7279 45.488C63.7279 46.336 63.5799 47 63.2839 47.48C62.9959 47.952 62.5439 48.188 61.9279 48.188C61.5519 48.188 61.2319 48.08 60.9679 47.864C60.7039 47.648 60.5039 47.34 60.3679 46.94C60.2399 46.532 60.1759 46.048 60.1759 45.488C60.1759 44.64 60.3159 43.984 60.5959 43.52C60.8759 43.048 61.3199 42.812 61.9279 42.812ZM61.9279 43.556C61.6239 43.556 61.3999 43.72 61.2559 44.048C61.1199 44.368 61.0519 44.848 61.0519 45.488C61.0519 46.128 61.1199 46.612 61.2559 46.94C61.3999 47.268 61.6239 47.432 61.9279 47.432C62.2399 47.432 62.4719 47.272 62.6239 46.952C62.7759 46.624 62.8519 46.136 62.8519 45.488C62.8519 44.848 62.7759 44.368 62.6239 44.048C62.4719 43.72 62.2399 43.556 61.9279 43.556ZM67.4119 42.932L62.6599 51.5H61.7359L66.4879 42.932H67.4119ZM67.1719 46.244C67.5639 46.244 67.8919 46.352 68.1559 46.568C68.4199 46.776 68.6199 47.08 68.7559 47.48C68.8999 47.872 68.9719 48.352 68.9719 48.92C68.9719 49.768 68.8239 50.432 68.5279 50.912C68.2399 51.384 67.7879 51.62 67.1719 51.62C66.7959 51.62 66.4759 51.512 66.2119 51.296C65.9479 51.08 65.7479 50.772 65.6119 50.372C65.4839 49.964 65.4199 49.48 65.4199 48.92C65.4199 48.072 65.5599 47.416 65.8399 46.952C66.1199 46.48 66.5639 46.244 67.1719 46.244ZM67.1719 47C66.8679 47 66.6439 47.16 66.4999 47.48C66.3639 47.8 66.2959 48.28 66.2959 48.92C66.2959 49.568 66.3639 50.056 66.4999 50.384C66.6439 50.704 66.8679 50.864 67.1719 50.864C67.4839 50.864 67.7159 50.704 67.8679 50.384C68.0199 50.064 68.0959 49.576 68.0959 48.92C68.0959 48.28 68.0199 47.8 67.8679 47.48C67.7159 47.16 67.4839 47 67.1719 47Z" fill="#131313"/>
<mask id="path-6-inside-1_538_2891" fill="white">
<path d="M278 32H349V62H278V32Z"/>
</mask>
<path d="M278 32H349V62H278V32Z" fill="#131313"/>
<path d="M349 32H350V31H349V32ZM349 62V63H350V62H349ZM278 33H349V31H278V33ZM348 32V62H350V32H348ZM349 61H278V63H349V61Z" fill="#131313" mask="url(#path-6-inside-1_538_2891)"/>
<path d="M288.685 51.5H286.921V43.1H288.553L292.117 48.392V43.1H293.893V51.5H292.249L288.685 46.208V51.5ZM298.204 51.572C296.236 51.572 294.952 50.312 294.952 48.416C294.952 46.52 296.236 45.26 298.204 45.26C300.172 45.26 301.456 46.52 301.456 48.416C301.456 50.324 300.172 51.572 298.204 51.572ZM298.204 50.192C299.152 50.192 299.74 49.46 299.74 48.416C299.74 47.372 299.152 46.64 298.204 46.64C297.256 46.64 296.68 47.372 296.68 48.416C296.68 49.46 297.256 50.192 298.204 50.192Z" fill="#F6F3F1"/>
<path d="M312.186 44.012V43.1H313.17V51.5H312.162V45.476C312.042 45.584 311.85 45.632 311.586 45.632H310.23V44.732H311.598C311.994 44.732 312.186 44.432 312.186 44.012ZM314.158 49.448V48.548L318.442 43.1H319.57V48.524H320.926V49.448H319.57V51.5H318.562V49.448H314.158ZM318.562 44.336L315.286 48.524H318.562V44.336ZM321.409 50.9C321.409 50.492 321.697 50.228 322.093 50.228C322.489 50.228 322.777 50.492 322.777 50.9C322.777 51.308 322.489 51.572 322.093 51.572C321.697 51.572 321.409 51.308 321.409 50.9ZM327.79 47.132C328.558 47.276 329.362 47.888 329.362 49.172C329.362 50.6 328.162 51.572 326.338 51.572C324.514 51.572 323.338 50.576 323.338 48.908H324.334C324.346 50.012 325.21 50.672 326.398 50.672C327.49 50.672 328.33 50.06 328.33 49.1C328.33 48.224 327.61 47.66 326.302 47.66H325.582V46.784H326.242C327.49 46.784 328.114 46.16 328.114 45.308C328.114 44.456 327.346 43.928 326.338 43.928C325.282 43.928 324.514 44.564 324.502 45.524H323.506C323.518 44.048 324.67 43.028 326.326 43.028C328.054 43.028 329.146 43.928 329.146 45.248C329.146 46.304 328.594 46.916 327.79 47.132ZM332.186 42.812C332.778 42.812 333.226 43.048 333.53 43.52C333.834 43.984 333.986 44.64 333.986 45.488C333.986 46.336 333.838 47 333.542 47.48C333.254 47.952 332.802 48.188 332.186 48.188C331.81 48.188 331.49 48.08 331.226 47.864C330.962 47.648 330.762 47.34 330.626 46.94C330.498 46.532 330.434 46.048 330.434 45.488C330.434 44.64 330.574 43.984 330.854 43.52C331.134 43.048 331.578 42.812 332.186 42.812ZM332.186 43.556C331.882 43.556 331.658 43.72 331.514 44.048C331.378 44.368 331.31 44.848 331.31 45.488C331.31 46.128 331.378 46.612 331.514 46.94C331.658 47.268 331.882 47.432 332.186 47.432C332.498 47.432 332.73 47.272 332.882 46.952C333.034 46.624 333.11 46.136 333.11 45.488C333.11 44.848 333.034 44.368 332.882 44.048C332.73 43.72 332.498 43.556 332.186 43.556ZM337.67 42.932L332.918 51.5H331.994L336.746 42.932H337.67ZM337.43 46.244C337.822 46.244 338.15 46.352 338.414 46.568C338.678 46.776 338.878 47.08 339.014 47.48C339.158 47.872 339.23 48.352 339.23 48.92C339.23 49.768 339.082 50.432 338.786 50.912C338.498 51.384 338.046 51.62 337.43 51.62C337.054 51.62 336.734 51.512 336.47 51.296C336.206 51.08 336.006 50.772 335.87 50.372C335.742 49.964 335.678 49.48 335.678 48.92C335.678 48.072 335.818 47.416 336.098 46.952C336.378 46.48 336.822 46.244 337.43 46.244ZM337.43 47C337.126 47 336.902 47.16 336.758 47.48C336.622 47.8 336.554 48.28 336.554 48.92C336.554 49.568 336.622 50.056 336.758 50.384C336.902 50.704 337.126 50.864 337.43 50.864C337.742 50.864 337.974 50.704 338.126 50.384C338.278 50.064 338.354 49.576 338.354 48.92C338.354 48.28 338.278 47.8 338.126 47.48C337.974 47.16 337.742 47 337.43 47Z" fill="#F6F3F1"/>
</svg>
