<svg width="349" height="62" viewBox="0 0 349 62" fill="none" xmlns="http://www.w3.org/2000/svg">
<path d="M10.928 13.936H12.032V16H10.88C9.92 16 9.52 15.728 9.136 15.248C8.288 15.792 7.232 16.096 6.064 16.096C2.768 16.096 0.512 13.664 0.512 10.4C0.512 7.136 2.768 4.704 6.064 4.704C9.36 4.704 11.616 7.136 11.616 10.4C11.616 11.728 11.248 12.928 10.576 13.872C10.672 13.904 10.784 13.936 10.928 13.936ZM2.96 10.4C2.96 12.512 4.176 14.064 6.064 14.064C6.72 14.064 7.296 13.872 7.776 13.536L7.616 13.344C7.376 13.024 7.168 12.848 6.816 12.848H5.776V10.816H6.992C7.936 10.816 8.256 11.152 8.64 11.632L8.896 11.952C9.072 11.488 9.152 10.96 9.152 10.4C9.152 8.288 7.936 6.736 6.064 6.736C4.176 6.736 2.96 8.288 2.96 10.4ZM18.4908 11.888V7.776H20.7468V16H18.7468L18.5388 15.008C18.0108 15.648 17.2908 16.096 16.1228 16.096C14.4268 16.096 12.8588 15.248 12.8588 12.336V7.776H15.1148V12.032C15.1148 13.504 15.5948 14.224 16.7148 14.224C17.8348 14.224 18.4908 13.408 18.4908 11.888ZM26.3793 16.096C23.6432 16.096 21.9953 14.448 21.9953 11.904C21.9953 9.344 23.6753 7.68 26.2193 7.68C28.6833 7.68 30.3472 9.216 30.3793 11.632C30.3793 11.872 30.3633 12.144 30.3153 12.4H24.3473V12.512C24.3953 13.68 25.1473 14.384 26.2833 14.384C27.1953 14.384 27.8353 13.984 28.0273 13.216H30.2513C29.9953 14.816 28.5713 16.096 26.3793 16.096ZM24.3953 10.928H28.1073C27.9473 9.92 27.2593 9.36 26.2352 9.36C25.2593 9.36 24.5233 9.952 24.3953 10.928ZM31.1656 13.264H33.3096C33.3896 13.984 34.0136 14.48 35.1176 14.48C36.0616 14.48 36.6376 14.176 36.6376 13.6C36.6376 12.928 36.0776 12.88 34.7496 12.704C32.8296 12.48 31.3416 12.048 31.3416 10.352C31.3416 8.72 32.7656 7.648 34.8776 7.664C37.0856 7.664 38.6056 8.64 38.7176 10.32H36.5576C36.4936 9.664 35.8696 9.264 34.9576 9.264C34.0776 9.264 33.5016 9.584 33.5016 10.112C33.5016 10.736 34.2056 10.8 35.3896 10.944C37.2776 11.136 38.8456 11.568 38.8456 13.424C38.8456 15.056 37.3096 16.096 35.1016 16.096C32.8136 16.096 31.2616 15.024 31.1656 13.264ZM40.626 13.648V9.68H39.266V7.776H40.626V5.472H42.882V7.776H44.77V9.68H42.882V13.28C42.882 13.856 43.106 14.096 43.698 14.096H44.818V16H42.978C41.41 16 40.626 15.216 40.626 13.648ZM46.9981 6.896C46.2621 6.896 45.6861 6.352 45.6861 5.632C45.6861 4.896 46.2621 4.352 46.9981 4.352C47.7341 4.352 48.3101 4.896 48.3101 5.632C48.3101 6.352 47.7341 6.896 46.9981 6.896ZM45.8621 16V7.776H48.1341V16H45.8621ZM53.7063 16.096C51.0823 16.096 49.3703 14.416 49.3703 11.888C49.3703 9.36 51.0823 7.68 53.7063 7.68C56.3303 7.68 58.0423 9.36 58.0423 11.888C58.0423 14.432 56.3303 16.096 53.7063 16.096ZM53.7063 14.256C54.9703 14.256 55.7543 13.28 55.7543 11.888C55.7543 10.496 54.9703 9.52 53.7063 9.52C52.4423 9.52 51.6743 10.496 51.6743 11.888C51.6743 13.28 52.4423 14.256 53.7063 14.256ZM64.004 7.68C65.78 7.68 67.3 8.624 67.3 11.44V16H65.044V11.664C65.044 10.272 64.516 9.536 63.38 9.536C62.212 9.536 61.54 10.368 61.54 11.792V16H59.284V7.776H61.252L61.46 8.8C61.988 8.16 62.74 7.68 64.004 7.68ZM72.2423 16V14.224L76.4983 10.704C77.4743 9.904 78.0823 9.232 78.0823 8.32C78.0823 7.216 77.3623 6.64 76.3383 6.64C75.2663 6.64 74.5303 7.376 74.5303 8.592V8.768H72.2103V8.448C72.2103 6.336 73.7943 4.704 76.3543 4.704C78.9783 4.704 80.4023 6.128 80.4023 8.224C80.4023 9.872 79.5063 10.88 78.0983 12.016L75.5863 14.064H80.4663V16H72.2423ZM91.0994 12.368H85.4994V10.528H91.0994V12.368ZM96.7911 16V4.8H98.1831V16H96.7911ZM99.8256 13.312H101.17C101.218 14.272 102.066 14.976 103.426 14.976C104.578 14.976 105.394 14.48 105.394 13.728C105.394 12.704 104.498 12.624 103.282 12.48C101.458 12.256 100.002 11.888 100.002 10.192C100.002 8.704 101.362 7.728 103.202 7.744C105.058 7.76 106.402 8.624 106.53 10.32H105.186C105.09 9.488 104.322 8.864 103.202 8.864C102.066 8.864 101.298 9.344 101.298 10.096C101.298 10.992 102.162 11.104 103.346 11.248C105.202 11.472 106.69 11.824 106.69 13.632C106.69 15.152 105.234 16.096 103.426 16.096C101.314 16.096 99.8576 15.104 99.8256 13.312ZM112.307 16V4.8H113.699V16H112.307ZM116.285 13.872V9.04H114.813V7.84H116.285V5.552H117.597V7.84H119.709V9.04H117.597V13.856C117.597 14.544 117.837 14.8 118.541 14.8H119.837V16H118.413C116.845 16 116.285 15.312 116.285 13.872ZM125.77 13.872V9.04H124.298V7.84H125.77V5.552H127.082V7.84H129.194V9.04H127.082V13.856C127.082 14.544 127.322 14.8 128.026 14.8H129.322V16H127.898C126.33 16 125.77 15.312 125.77 13.872ZM134.459 7.744C136.283 7.744 137.771 8.752 137.771 11.456V16H136.459V11.536C136.459 9.84 135.643 8.944 134.235 8.944C132.715 8.944 131.771 10.08 131.771 11.92V16H130.459V4.8H131.771V9.184C132.251 8.416 133.083 7.744 134.459 7.744ZM143.109 16.096C140.661 16.096 139.061 14.416 139.061 11.92C139.061 9.44 140.629 7.744 142.933 7.744C145.237 7.744 146.741 9.2 146.805 11.616C146.805 11.792 146.789 11.984 146.773 12.176H140.437V12.288C140.485 13.84 141.461 14.928 143.013 14.928C144.165 14.928 145.061 14.32 145.333 13.264H146.661C146.341 14.896 144.997 16.096 143.109 16.096ZM140.517 11.088H145.397C145.269 9.68 144.309 8.896 142.949 8.896C141.749 8.896 140.645 9.76 140.517 11.088ZM153.098 13.872V9.04H151.626V7.84H153.098V5.552H154.41V7.84H156.522V9.04H154.41V13.856C154.41 14.544 154.65 14.8 155.354 14.8H156.65V16H155.226C153.658 16 153.098 15.312 153.098 13.872ZM161.787 7.744C163.611 7.744 165.099 8.752 165.099 11.456V16H163.787V11.536C163.787 9.84 162.971 8.944 161.563 8.944C160.043 8.944 159.099 10.08 159.099 11.92V16H157.787V4.8H159.099V9.184C159.579 8.416 160.411 7.744 161.787 7.744ZM170.437 16.096C168.053 16.096 166.389 14.4 166.389 11.92C166.389 9.44 168.053 7.744 170.437 7.744C172.821 7.744 174.485 9.44 174.485 11.92C174.485 14.4 172.821 16.096 170.437 16.096ZM170.437 14.928C172.053 14.928 173.141 13.664 173.141 11.92C173.141 10.176 172.053 8.912 170.437 8.912C168.821 8.912 167.733 10.176 167.733 11.92C167.733 13.664 168.821 14.928 170.437 14.928ZM181.702 11.92V7.84H183.014V16H181.878L181.702 14.912C181.222 15.52 180.438 16.096 179.094 16.096C177.302 16.096 175.878 15.088 175.878 12.384V7.84H177.19V12.304C177.19 14 177.958 14.896 179.318 14.896C180.806 14.896 181.702 13.76 181.702 11.92ZM191.234 9.248L191.41 7.84H192.546V15.6C192.546 17.952 191.298 19.296 188.498 19.296C186.418 19.296 184.962 18.32 184.754 16.528H186.098C186.322 17.552 187.234 18.128 188.594 18.128C190.306 18.128 191.234 17.328 191.234 15.552V14.592C190.69 15.52 189.81 16.096 188.434 16.096C186.178 16.096 184.514 14.576 184.514 11.92C184.514 9.424 186.178 7.744 188.434 7.744C189.81 7.744 190.722 8.336 191.234 9.248ZM188.562 14.928C190.162 14.928 191.25 13.696 191.25 11.952C191.25 10.16 190.162 8.912 188.562 8.912C186.946 8.912 185.858 10.144 185.858 11.92C185.858 13.696 186.946 14.928 188.562 14.928ZM198.334 7.744C200.158 7.744 201.646 8.752 201.646 11.456V16H200.334V11.536C200.334 9.84 199.518 8.944 198.11 8.944C196.59 8.944 195.646 10.08 195.646 11.92V16H194.334V4.8H195.646V9.184C196.126 8.416 196.958 7.744 198.334 7.744ZM203.926 13.872V9.04H202.454V7.84H203.926V5.552H205.238V7.84H207.35V9.04H205.238V13.856C205.238 14.544 205.478 14.8 206.182 14.8H207.478V16H206.054C204.486 16 203.926 15.312 203.926 13.872ZM213.41 13.872V9.04H211.938V7.84H213.41V5.552H214.722V7.84H216.834V9.04H214.722V13.856C214.722 14.544 214.962 14.8 215.666 14.8H216.962V16H215.538C213.97 16 213.41 15.312 213.41 13.872ZM222.099 7.744C223.923 7.744 225.411 8.752 225.411 11.456V16H224.099V11.536C224.099 9.84 223.283 8.944 221.875 8.944C220.355 8.944 219.411 10.08 219.411 11.92V16H218.099V4.8H219.411V9.184C219.891 8.416 220.723 7.744 222.099 7.744ZM234.3 14.8H234.716V16H233.996C232.908 16 232.54 15.536 232.524 14.736C232.012 15.472 231.196 16.096 229.788 16.096C227.996 16.096 226.78 15.2 226.78 13.712C226.78 12.08 227.916 11.168 230.06 11.168H232.46V10.608C232.46 9.552 231.708 8.912 230.428 8.912C229.276 8.912 228.508 9.456 228.348 10.288H227.036C227.228 8.688 228.524 7.744 230.492 7.744C232.572 7.744 233.772 8.784 233.772 10.688V14.256C233.772 14.688 233.932 14.8 234.3 14.8ZM232.46 12.672V12.272H229.932C228.764 12.272 228.108 12.704 228.108 13.632C228.108 14.432 228.796 14.976 229.884 14.976C231.516 14.976 232.46 14.032 232.46 12.672ZM236.332 13.872V9.04H234.86V7.84H236.332V5.552H237.644V7.84H239.756V9.04H237.644V13.856C237.644 14.544 237.884 14.8 238.588 14.8H239.884V16H238.46C236.892 16 236.332 15.312 236.332 13.872ZM248.873 16.096C246.489 16.096 244.921 14.48 244.921 11.936C244.921 9.44 246.537 7.744 248.905 7.744C250.905 7.744 252.169 8.864 252.505 10.656H251.129C250.889 9.568 250.089 8.912 248.889 8.912C247.321 8.912 246.265 10.16 246.265 11.936C246.265 13.712 247.321 14.928 248.889 14.928C250.057 14.928 250.857 14.256 251.113 13.216H252.505C252.185 14.976 250.857 16.096 248.873 16.096ZM257.703 16.096C255.319 16.096 253.655 14.4 253.655 11.92C253.655 9.44 255.319 7.744 257.703 7.744C260.087 7.744 261.751 9.44 261.751 11.92C261.751 14.4 260.087 16.096 257.703 16.096ZM257.703 14.928C259.319 14.928 260.407 13.664 260.407 11.92C260.407 10.176 259.319 8.912 257.703 8.912C256.087 8.912 254.999 10.176 254.999 11.92C254.999 13.664 256.087 14.928 257.703 14.928ZM268.967 11.92V7.84H270.279V16H269.143L268.967 14.912C268.487 15.52 267.703 16.096 266.359 16.096C264.567 16.096 263.143 15.088 263.143 12.384V7.84H264.455V12.304C264.455 14 265.223 14.896 266.583 14.896C268.071 14.896 268.967 13.76 268.967 11.92ZM276.068 7.744C277.908 7.744 279.364 8.752 279.364 11.456V16H278.052V11.536C278.052 9.84 277.268 8.944 275.844 8.944C274.308 8.944 273.38 10.08 273.38 11.92V16H272.068V7.84H273.204L273.38 8.944C273.86 8.32 274.692 7.744 276.068 7.744ZM281.645 13.872V9.04H280.173V7.84H281.645V5.552H282.957V7.84H285.069V9.04H282.957V13.856C282.957 14.544 283.197 14.8 283.901 14.8H285.197V16H283.773C282.205 16 281.645 15.312 281.645 13.872ZM285.998 13.312H287.342C287.39 14.272 288.238 14.976 289.598 14.976C290.75 14.976 291.566 14.48 291.566 13.728C291.566 12.704 290.67 12.624 289.454 12.48C287.63 12.256 286.174 11.888 286.174 10.192C286.174 8.704 287.534 7.728 289.374 7.744C291.23 7.76 292.574 8.624 292.702 10.32H291.358C291.262 9.488 290.494 8.864 289.374 8.864C288.238 8.864 287.47 9.344 287.47 10.096C287.47 10.992 288.334 11.104 289.518 11.248C291.374 11.472 292.862 11.824 292.862 13.632C292.862 15.152 291.406 16.096 289.598 16.096C287.486 16.096 286.03 15.104 285.998 13.312ZM295.662 12.352C295.662 11.9467 295.699 11.6 295.774 11.312C295.859 11.0133 295.998 10.7307 296.19 10.464C296.393 10.1973 296.665 9.92 297.006 9.632C297.422 9.28 297.742 8.98667 297.966 8.752C298.201 8.51733 298.366 8.288 298.462 8.064C298.558 7.84 298.606 7.568 298.606 7.248C298.606 6.736 298.441 6.34133 298.11 6.064C297.779 5.78667 297.299 5.648 296.67 5.648C296.147 5.648 295.683 5.71733 295.278 5.856C294.873 5.984 294.483 6.13867 294.11 6.32L293.614 5.2C294.041 4.976 294.51 4.78933 295.022 4.64C295.545 4.49067 296.126 4.416 296.766 4.416C297.779 4.416 298.563 4.66667 299.118 5.168C299.673 5.66933 299.95 6.352 299.95 7.216C299.95 7.696 299.87 8.10667 299.71 8.448C299.561 8.77867 299.342 9.088 299.054 9.376C298.777 9.65333 298.446 9.952 298.062 10.272C297.71 10.5707 297.438 10.832 297.246 11.056C297.065 11.28 296.942 11.504 296.878 11.728C296.814 11.9413 296.782 12.2027 296.782 12.512V12.784H295.662V12.352ZM295.294 15.136C295.294 14.7413 295.385 14.464 295.566 14.304C295.758 14.144 295.998 14.064 296.286 14.064C296.553 14.064 296.782 14.144 296.974 14.304C297.166 14.464 297.262 14.7413 297.262 15.136C297.262 15.52 297.166 15.7973 296.974 15.968C296.782 16.1387 296.553 16.224 296.286 16.224C295.998 16.224 295.758 16.1387 295.566 15.968C295.385 15.7973 295.294 15.52 295.294 15.136Z" fill="#131313"/>
<path d="M348.033 5.375L348.033 6.75L346.715 6.75L346.715 5.375L348.033 5.375Z" fill="#131313"/>
<path d="M334.85 5.375L334.85 6.75L333.532 6.75L333.532 5.375L334.85 5.375Z" fill="#131313"/>
<path d="M346.715 4L346.715 5.375L345.397 5.375L345.397 4L346.715 4Z" fill="#131313"/>
<path d="M336.169 4L336.169 5.375L334.85 5.375L334.85 4L336.169 4Z" fill="#131313"/>
<path d="M346.715 5.375L346.715 6.75L345.397 6.75L345.397 5.375L346.715 5.375Z" fill="#131313"/>
<path d="M336.169 5.375L336.169 6.75L334.85 6.75L334.85 5.375L336.169 5.375Z" fill="#131313"/>
<path d="M345.397 5.375L345.397 6.75L344.079 6.75L344.079 5.375L345.397 5.375Z" fill="#131313"/>
<path d="M337.487 5.375L337.487 6.75L336.169 6.75L336.169 5.375L337.487 5.375Z" fill="#131313"/>
<path d="M346.715 6.75L346.715 8.125L345.397 8.125L345.397 6.75L346.715 6.75Z" fill="#131313"/>
<path d="M336.169 6.75L336.169 8.125L334.85 8.125L334.85 6.75L336.169 6.75Z" fill="#131313"/>
<path d="M345.397 6.75L345.397 8.125L344.079 8.125L344.079 6.75L345.397 6.75Z" fill="#131313"/>
<path d="M337.487 6.75L337.487 8.125L336.169 8.125L336.169 6.75L337.487 6.75Z" fill="#131313"/>
<path d="M344.079 6.75L344.079 8.125L342.76 8.125L342.76 6.75L344.079 6.75Z" fill="#131313"/>
<path d="M346.715 8.125L346.715 9.5L345.397 9.5L345.397 8.125L346.715 8.125Z" fill="#131313"/>
<path d="M336.169 8.125L336.169 9.5L334.85 9.5L334.85 8.125L336.169 8.125Z" fill="#131313"/>
<path d="M345.397 8.125L345.397 9.5L344.079 9.5L344.079 8.125L345.397 8.125Z" fill="#131313"/>
<path d="M337.487 8.125L337.487 9.5L336.169 9.5L336.169 8.125L337.487 8.125Z" fill="#131313"/>
<path d="M344.079 8.125L344.079 9.5L342.76 9.5L342.76 8.125L344.079 8.125Z" fill="#131313"/>
<path d="M342.76 8.125L342.76 9.5L341.442 9.5L341.442 8.125L342.76 8.125Z" fill="#131313"/>
<path d="M340.124 8.125L340.124 9.5L338.805 9.5L338.805 8.125L340.124 8.125Z" fill="#131313"/>
<path d="M338.805 8.125L338.805 9.5L337.487 9.5L337.487 8.125L338.805 8.125Z" fill="#131313"/>
<path d="M338.805 6.75L338.805 8.125L337.487 8.125L337.487 6.75L338.805 6.75Z" fill="#131313"/>
<path d="M345.397 9.5L345.397 10.875L344.079 10.875L344.079 9.5L345.397 9.5Z" fill="#131313"/>
<path d="M337.487 9.5L337.487 10.875L336.169 10.875L336.169 9.5L337.487 9.5Z" fill="#131313"/>
<path d="M344.079 9.5L344.079 10.875L342.76 10.875L342.76 9.5L344.079 9.5Z" fill="#131313"/>
<path d="M342.76 9.5L342.76 10.875L341.442 10.875L341.442 9.5L342.76 9.5Z" fill="#131313"/>
<path d="M340.124 9.5L340.124 10.875L338.805 10.875L338.805 9.5L340.124 9.5Z" fill="#131313"/>
<path d="M338.805 9.5L338.805 10.875L337.487 10.875L337.487 9.5L338.805 9.5Z" fill="#131313"/>
<path d="M341.442 9.5L341.442 10.875L340.124 10.875L340.124 9.5L341.442 9.5Z" fill="#131313"/>
<path d="M344.079 10.875L344.079 12.25L342.76 12.25L342.76 10.875L344.079 10.875Z" fill="#131313"/>
<path d="M342.76 10.875L342.76 12.25L341.442 12.25L341.442 10.875L342.76 10.875Z" fill="#131313"/>
<path d="M340.124 10.875L340.124 12.25L338.805 12.25L338.805 10.875L340.124 10.875Z" fill="#131313"/>
<path d="M338.805 10.875L338.805 12.25L337.487 12.25L337.487 10.875L338.805 10.875Z" fill="#131313"/>
<path d="M341.442 10.875L341.442 12.25L340.124 12.25L340.124 10.875L341.442 10.875Z" fill="#131313"/>
<path d="M342.76 12.25L342.76 13.625L341.442 13.625L341.442 12.25L342.76 12.25Z" fill="#131313"/>
<path d="M341.442 13.625L341.442 15L340.124 15L340.124 13.625L341.442 13.625Z" fill="#131313"/>
<path d="M341.442 12.25L341.442 13.625L340.124 13.625L340.124 12.25L341.442 12.25Z" fill="#131313"/>
<path d="M340.124 12.25L340.124 13.625L338.805 13.625L338.805 12.25L340.124 12.25Z" fill="#131313"/>
<path d="M348.033 6.75L348.033 8.125L346.715 8.125L346.715 6.75L348.033 6.75Z" fill="#131313"/>
<path d="M334.85 6.75L334.85 8.125L333.532 8.125L333.532 6.75L334.85 6.75Z" fill="#131313"/>
<rect x="0.5" y="32.5" width="70" height="29" fill="#FD9DAF"/>
<rect x="0.5" y="32.5" width="70" height="29" stroke="#131313"/>
<path d="M11.5059 48.38L8.42188 43.1H10.5219L12.4059 46.544L14.3859 43.1H16.3899L13.3059 48.38V51.5H11.5059V48.38ZM18.9251 51.572C16.8731 51.572 15.6371 50.336 15.6371 48.428C15.6371 46.508 16.8971 45.26 18.8051 45.26C20.6531 45.26 21.9011 46.412 21.9251 48.224C21.9251 48.404 21.9131 48.608 21.8771 48.8H17.4011V48.884C17.4371 49.76 18.0011 50.288 18.8531 50.288C19.5371 50.288 20.0171 49.988 20.1611 49.412H21.8291C21.6371 50.612 20.5691 51.572 18.9251 51.572ZM17.4371 47.696H20.2211C20.1011 46.94 19.5851 46.52 18.8171 46.52C18.0851 46.52 17.5331 46.964 17.4371 47.696ZM22.5148 49.448H24.1228C24.1828 49.988 24.6508 50.36 25.4788 50.36C26.1868 50.36 26.6188 50.132 26.6188 49.7C26.6188 49.196 26.1988 49.16 25.2028 49.028C23.7628 48.86 22.6468 48.536 22.6468 47.264C22.6468 46.04 23.7148 45.236 25.2988 45.248C26.9548 45.248 28.0948 45.98 28.1788 47.24H26.5588C26.5108 46.748 26.0428 46.448 25.3588 46.448C24.6988 46.448 24.2668 46.688 24.2668 47.084C24.2668 47.552 24.7948 47.6 25.6828 47.708C27.0988 47.852 28.2748 48.176 28.2748 49.568C28.2748 50.792 27.1228 51.572 25.4668 51.572C23.7508 51.572 22.5868 50.768 22.5148 49.448Z" fill="#131313"/>
<path d="M39.3145 44.012V43.1H40.2985V51.5H39.2905V45.476C39.1705 45.584 38.9785 45.632 38.7145 45.632H37.3585V44.732H38.7265C39.1225 44.732 39.3145 44.432 39.3145 44.012ZM42.3069 50.18C41.8869 49.448 41.6469 48.44 41.6469 47.336C41.6469 44.696 42.8349 43.028 44.8389 43.028C46.3629 43.028 47.4069 43.94 47.6109 45.344H46.6029C46.4109 44.492 45.8109 43.916 44.7909 43.916C43.3269 43.916 42.5229 45.248 42.5229 47.144C42.5229 47.264 42.5229 47.348 42.5349 47.552C42.5469 47.504 42.5589 47.432 42.6069 47.324C42.9789 46.496 43.8189 45.944 44.9469 45.944C46.6029 45.944 47.7669 47.036 47.7669 48.752C47.7669 50.372 46.5789 51.572 44.8509 51.572C43.6869 51.572 42.8349 51.044 42.3069 50.18ZM46.7589 48.752C46.7589 47.636 46.0389 46.832 44.8749 46.832C43.7109 46.832 42.9189 47.624 42.9189 48.776C42.9189 49.904 43.6869 50.684 44.8389 50.684C46.0029 50.684 46.7589 49.88 46.7589 48.752ZM48.4094 50.9C48.4094 50.492 48.6974 50.228 49.0934 50.228C49.4894 50.228 49.7774 50.492 49.7774 50.9C49.7774 51.308 49.4894 51.572 49.0934 51.572C48.6974 51.572 48.4094 51.308 48.4094 50.9ZM53.5565 45.872C55.2005 45.872 56.3405 47.024 56.3405 48.692C56.3405 50.552 54.9725 51.56 53.4005 51.56C51.5285 51.56 50.4485 50.348 50.3645 48.884H51.3605C51.4565 49.856 52.1885 50.66 53.4005 50.66C54.3845 50.66 55.3085 50 55.3085 48.704C55.3085 47.564 54.5765 46.76 53.4125 46.76C52.8965 46.76 51.8645 46.904 51.5045 47.9L50.5325 47.876L50.8085 43.1H55.8365V44.024H51.7325L51.5405 46.676C52.0565 46.064 52.7765 45.872 53.5565 45.872ZM59.0568 42.812C59.6488 42.812 60.0968 43.048 60.4008 43.52C60.7048 43.984 60.8568 44.64 60.8568 45.488C60.8568 46.336 60.7088 47 60.4128 47.48C60.1248 47.952 59.6728 48.188 59.0568 48.188C58.6808 48.188 58.3608 48.08 58.0968 47.864C57.8328 47.648 57.6328 47.34 57.4968 46.94C57.3688 46.532 57.3048 46.048 57.3048 45.488C57.3048 44.64 57.4448 43.984 57.7248 43.52C58.0048 43.048 58.4488 42.812 59.0568 42.812ZM59.0568 43.556C58.7528 43.556 58.5288 43.72 58.3848 44.048C58.2488 44.368 58.1808 44.848 58.1808 45.488C58.1808 46.128 58.2488 46.612 58.3848 46.94C58.5288 47.268 58.7528 47.432 59.0568 47.432C59.3688 47.432 59.6008 47.272 59.7528 46.952C59.9048 46.624 59.9808 46.136 59.9808 45.488C59.9808 44.848 59.9048 44.368 59.7528 44.048C59.6008 43.72 59.3688 43.556 59.0568 43.556ZM64.5408 42.932L59.7888 51.5H58.8648L63.6168 42.932H64.5408ZM64.3008 46.244C64.6928 46.244 65.0208 46.352 65.2848 46.568C65.5488 46.776 65.7488 47.08 65.8848 47.48C66.0288 47.872 66.1008 48.352 66.1008 48.92C66.1008 49.768 65.9528 50.432 65.6568 50.912C65.3688 51.384 64.9168 51.62 64.3008 51.62C63.9248 51.62 63.6048 51.512 63.3408 51.296C63.0768 51.08 62.8768 50.772 62.7408 50.372C62.6128 49.964 62.5488 49.48 62.5488 48.92C62.5488 48.072 62.6888 47.416 62.9688 46.952C63.2488 46.48 63.6928 46.244 64.3008 46.244ZM64.3008 47C63.9968 47 63.7728 47.16 63.6288 47.48C63.4928 47.8 63.4248 48.28 63.4248 48.92C63.4248 49.568 63.4928 50.056 63.6288 50.384C63.7728 50.704 63.9968 50.864 64.3008 50.864C64.6128 50.864 64.8448 50.704 64.9968 50.384C65.1488 50.064 65.2248 49.576 65.2248 48.92C65.2248 48.28 65.1488 47.8 64.9968 47.48C64.8448 47.16 64.6128 47 64.3008 47Z" fill="#131313"/>
<mask id="path-6-inside-1_111_8671" fill="white">
<path d="M71 32H349V62H71V32Z"/>
</mask>
<path d="M71 32H349V62H71V32Z" fill="#DCECA1"/>
<path d="M349 32H350V31H349V32ZM349 62V63H350V62H349ZM71 33H349V31H71V33ZM348 32V62H350V32H348ZM349 61H71V63H349V61Z" fill="#131313" mask="url(#path-6-inside-1_111_8671)"/>
<path d="M81.6852 51.5H79.9212V43.1H81.5532L85.1172 48.392V43.1H86.8932V51.5H85.2492L81.6852 46.208V51.5ZM91.2035 51.572C89.2355 51.572 87.9515 50.312 87.9515 48.416C87.9515 46.52 89.2355 45.26 91.2035 45.26C93.1715 45.26 94.4555 46.52 94.4555 48.416C94.4555 50.324 93.1715 51.572 91.2035 51.572ZM91.2035 50.192C92.1515 50.192 92.7395 49.46 92.7395 48.416C92.7395 47.372 92.1515 46.64 91.2035 46.64C90.2555 46.64 89.6795 47.372 89.6795 48.416C89.6795 49.46 90.2555 50.192 91.2035 50.192Z" fill="#131313"/>
<path d="M108.184 47.156C109.12 47.372 109.864 48.092 109.864 49.244C109.864 50.6 108.7 51.572 106.804 51.572C104.908 51.572 103.744 50.6 103.744 49.244C103.744 48.104 104.476 47.372 105.424 47.156C104.62 46.976 103.984 46.268 103.984 45.26C103.984 43.94 105.088 43.028 106.804 43.028C108.52 43.028 109.624 43.94 109.624 45.26C109.624 46.22 109 46.976 108.184 47.156ZM105.016 45.26C105.016 46.088 105.724 46.64 106.804 46.64C107.884 46.64 108.592 46.088 108.592 45.26C108.592 44.444 107.884 43.892 106.804 43.892C105.724 43.892 105.016 44.444 105.016 45.26ZM106.804 50.708C108.004 50.708 108.832 50.072 108.832 49.172C108.832 48.284 108.004 47.648 106.804 47.648C105.604 47.648 104.776 48.284 104.776 49.172C104.776 50.072 105.616 50.708 106.804 50.708ZM115.13 47.132C115.898 47.276 116.702 47.888 116.702 49.172C116.702 50.6 115.502 51.572 113.678 51.572C111.854 51.572 110.678 50.576 110.678 48.908H111.674C111.686 50.012 112.55 50.672 113.738 50.672C114.83 50.672 115.67 50.06 115.67 49.1C115.67 48.224 114.95 47.66 113.642 47.66H112.922V46.784H113.582C114.83 46.784 115.454 46.16 115.454 45.308C115.454 44.456 114.686 43.928 113.678 43.928C112.622 43.928 111.854 44.564 111.842 45.524H110.846C110.858 44.048 112.01 43.028 113.666 43.028C115.394 43.028 116.486 43.928 116.486 45.248C116.486 46.304 115.934 46.916 115.13 47.132ZM117.456 50.9C117.456 50.492 117.744 50.228 118.14 50.228C118.536 50.228 118.824 50.492 118.824 50.9C118.824 51.308 118.536 51.572 118.14 51.572C117.744 51.572 117.456 51.308 117.456 50.9ZM122.603 45.872C124.247 45.872 125.387 47.024 125.387 48.692C125.387 50.552 124.019 51.56 122.447 51.56C120.575 51.56 119.495 50.348 119.411 48.884H120.407C120.503 49.856 121.235 50.66 122.447 50.66C123.431 50.66 124.355 50 124.355 48.704C124.355 47.564 123.623 46.76 122.459 46.76C121.943 46.76 120.911 46.904 120.551 47.9L119.579 47.876L119.855 43.1H124.883V44.024H120.779L120.587 46.676C121.103 46.064 121.823 45.872 122.603 45.872ZM128.104 42.812C128.696 42.812 129.144 43.048 129.448 43.52C129.752 43.984 129.904 44.64 129.904 45.488C129.904 46.336 129.756 47 129.46 47.48C129.172 47.952 128.72 48.188 128.104 48.188C127.728 48.188 127.408 48.08 127.144 47.864C126.88 47.648 126.68 47.34 126.544 46.94C126.416 46.532 126.352 46.048 126.352 45.488C126.352 44.64 126.492 43.984 126.772 43.52C127.052 43.048 127.496 42.812 128.104 42.812ZM128.104 43.556C127.8 43.556 127.576 43.72 127.432 44.048C127.296 44.368 127.228 44.848 127.228 45.488C127.228 46.128 127.296 46.612 127.432 46.94C127.576 47.268 127.8 47.432 128.104 47.432C128.416 47.432 128.648 47.272 128.8 46.952C128.952 46.624 129.028 46.136 129.028 45.488C129.028 44.848 128.952 44.368 128.8 44.048C128.648 43.72 128.416 43.556 128.104 43.556ZM133.588 42.932L128.836 51.5H127.912L132.664 42.932H133.588ZM133.348 46.244C133.74 46.244 134.068 46.352 134.332 46.568C134.596 46.776 134.796 47.08 134.932 47.48C135.076 47.872 135.148 48.352 135.148 48.92C135.148 49.768 135 50.432 134.704 50.912C134.416 51.384 133.964 51.62 133.348 51.62C132.972 51.62 132.652 51.512 132.388 51.296C132.124 51.08 131.924 50.772 131.788 50.372C131.66 49.964 131.596 49.48 131.596 48.92C131.596 48.072 131.736 47.416 132.016 46.952C132.296 46.48 132.74 46.244 133.348 46.244ZM133.348 47C133.044 47 132.82 47.16 132.676 47.48C132.54 47.8 132.472 48.28 132.472 48.92C132.472 49.568 132.54 50.056 132.676 50.384C132.82 50.704 133.044 50.864 133.348 50.864C133.66 50.864 133.892 50.704 134.044 50.384C134.196 50.064 134.272 49.576 134.272 48.92C134.272 48.28 134.196 47.8 134.044 47.48C133.892 47.16 133.66 47 133.348 47Z" fill="#131313"/>
</svg>
