<svg width="349" height="62" viewBox="0 0 349 62" fill="none" xmlns="http://www.w3.org/2000/svg">
<path d="M10.928 13.936H12.032V16H10.88C9.92 16 9.52 15.728 9.136 15.248C8.288 15.792 7.232 16.096 6.064 16.096C2.768 16.096 0.512 13.664 0.512 10.4C0.512 7.136 2.768 4.704 6.064 4.704C9.36 4.704 11.616 7.136 11.616 10.4C11.616 11.728 11.248 12.928 10.576 13.872C10.672 13.904 10.784 13.936 10.928 13.936ZM2.96 10.4C2.96 12.512 4.176 14.064 6.064 14.064C6.72 14.064 7.296 13.872 7.776 13.536L7.616 13.344C7.376 13.024 7.168 12.848 6.816 12.848H5.776V10.816H6.992C7.936 10.816 8.256 11.152 8.64 11.632L8.896 11.952C9.072 11.488 9.152 10.96 9.152 10.4C9.152 8.288 7.936 6.736 6.064 6.736C4.176 6.736 2.96 8.288 2.96 10.4ZM18.4908 11.888V7.776H20.7468V16H18.7468L18.5388 15.008C18.0108 15.648 17.2908 16.096 16.1228 16.096C14.4268 16.096 12.8588 15.248 12.8588 12.336V7.776H15.1148V12.032C15.1148 13.504 15.5948 14.224 16.7148 14.224C17.8348 14.224 18.4908 13.408 18.4908 11.888ZM26.3793 16.096C23.6432 16.096 21.9953 14.448 21.9953 11.904C21.9953 9.344 23.6753 7.68 26.2193 7.68C28.6833 7.68 30.3472 9.216 30.3793 11.632C30.3793 11.872 30.3633 12.144 30.3153 12.4H24.3473V12.512C24.3953 13.68 25.1473 14.384 26.2833 14.384C27.1953 14.384 27.8353 13.984 28.0273 13.216H30.2513C29.9953 14.816 28.5713 16.096 26.3793 16.096ZM24.3953 10.928H28.1073C27.9473 9.92 27.2593 9.36 26.2352 9.36C25.2593 9.36 24.5233 9.952 24.3953 10.928ZM31.1656 13.264H33.3096C33.3896 13.984 34.0136 14.48 35.1176 14.48C36.0616 14.48 36.6376 14.176 36.6376 13.6C36.6376 12.928 36.0776 12.88 34.7496 12.704C32.8296 12.48 31.3416 12.048 31.3416 10.352C31.3416 8.72 32.7656 7.648 34.8776 7.664C37.0856 7.664 38.6056 8.64 38.7176 10.32H36.5576C36.4936 9.664 35.8696 9.264 34.9576 9.264C34.0776 9.264 33.5016 9.584 33.5016 10.112C33.5016 10.736 34.2056 10.8 35.3896 10.944C37.2776 11.136 38.8456 11.568 38.8456 13.424C38.8456 15.056 37.3096 16.096 35.1016 16.096C32.8136 16.096 31.2616 15.024 31.1656 13.264ZM40.626 13.648V9.68H39.266V7.776H40.626V5.472H42.882V7.776H44.77V9.68H42.882V13.28C42.882 13.856 43.106 14.096 43.698 14.096H44.818V16H42.978C41.41 16 40.626 15.216 40.626 13.648ZM46.9981 6.896C46.2621 6.896 45.6861 6.352 45.6861 5.632C45.6861 4.896 46.2621 4.352 46.9981 4.352C47.7341 4.352 48.3101 4.896 48.3101 5.632C48.3101 6.352 47.7341 6.896 46.9981 6.896ZM45.8621 16V7.776H48.1341V16H45.8621ZM53.7063 16.096C51.0823 16.096 49.3703 14.416 49.3703 11.888C49.3703 9.36 51.0823 7.68 53.7063 7.68C56.3303 7.68 58.0423 9.36 58.0423 11.888C58.0423 14.432 56.3303 16.096 53.7063 16.096ZM53.7063 14.256C54.9703 14.256 55.7543 13.28 55.7543 11.888C55.7543 10.496 54.9703 9.52 53.7063 9.52C52.4423 9.52 51.6743 10.496 51.6743 11.888C51.6743 13.28 52.4423 14.256 53.7063 14.256ZM64.004 7.68C65.78 7.68 67.3 8.624 67.3 11.44V16H65.044V11.664C65.044 10.272 64.516 9.536 63.38 9.536C62.212 9.536 61.54 10.368 61.54 11.792V16H59.284V7.776H61.252L61.46 8.8C61.988 8.16 62.74 7.68 64.004 7.68ZM72.2423 16V14.224L76.4983 10.704C77.4743 9.904 78.0823 9.232 78.0823 8.32C78.0823 7.216 77.3623 6.64 76.3383 6.64C75.2663 6.64 74.5303 7.376 74.5303 8.592V8.768H72.2103V8.448C72.2103 6.336 73.7943 4.704 76.3543 4.704C78.9783 4.704 80.4023 6.128 80.4023 8.224C80.4023 9.872 79.5063 10.88 78.0983 12.016L75.5863 14.064H80.4663V16H72.2423ZM91.0994 12.368H85.4994V10.528H91.0994V12.368ZM96.7911 16V4.8H98.1831V16H96.7911ZM99.8256 13.312H101.17C101.218 14.272 102.066 14.976 103.426 14.976C104.578 14.976 105.394 14.48 105.394 13.728C105.394 12.704 104.498 12.624 103.282 12.48C101.458 12.256 100.002 11.888 100.002 10.192C100.002 8.704 101.362 7.728 103.202 7.744C105.058 7.76 106.402 8.624 106.53 10.32H105.186C105.09 9.488 104.322 8.864 103.202 8.864C102.066 8.864 101.298 9.344 101.298 10.096C101.298 10.992 102.162 11.104 103.346 11.248C105.202 11.472 106.69 11.824 106.69 13.632C106.69 15.152 105.234 16.096 103.426 16.096C101.314 16.096 99.8576 15.104 99.8256 13.312ZM112.787 6.464C112.307 6.464 111.939 6.112 111.939 5.616C111.939 5.12 112.307 4.768 112.787 4.768C113.267 4.768 113.635 5.12 113.635 5.616C113.635 6.112 113.267 6.464 112.787 6.464ZM112.115 16V7.84H113.427V16H112.115ZM115.832 13.872V9.04H114.36V7.84H115.832V5.552H117.144V7.84H119.256V9.04H117.144V13.856C117.144 14.544 117.384 14.8 118.088 14.8H119.384V16H117.96C116.392 16 115.832 15.312 115.832 13.872ZM125.317 13.872V9.04H123.845V7.84H125.317V5.552H126.629V7.84H128.741V9.04H126.629V13.856C126.629 14.544 126.869 14.8 127.573 14.8H128.869V16H127.445C125.877 16 125.317 15.312 125.317 13.872ZM134.005 7.744C135.829 7.744 137.317 8.752 137.317 11.456V16H136.005V11.536C136.005 9.84 135.189 8.944 133.781 8.944C132.261 8.944 131.317 10.08 131.317 11.92V16H130.005V4.8H131.317V9.184C131.797 8.416 132.629 7.744 134.005 7.744ZM142.656 16.096C140.208 16.096 138.608 14.416 138.608 11.92C138.608 9.44 140.176 7.744 142.48 7.744C144.784 7.744 146.288 9.2 146.352 11.616C146.352 11.792 146.336 11.984 146.32 12.176H139.984V12.288C140.032 13.84 141.008 14.928 142.56 14.928C143.712 14.928 144.608 14.32 144.88 13.264H146.208C145.888 14.896 144.544 16.096 142.656 16.096ZM140.064 11.088H144.944C144.816 9.68 143.856 8.896 142.496 8.896C141.296 8.896 140.192 9.76 140.064 11.088ZM152.645 13.872V9.04H151.173V7.84H152.645V5.552H153.957V7.84H156.069V9.04H153.957V13.856C153.957 14.544 154.197 14.8 154.901 14.8H156.197V16H154.773C153.205 16 152.645 15.312 152.645 13.872ZM161.334 7.744C163.158 7.744 164.646 8.752 164.646 11.456V16H163.334V11.536C163.334 9.84 162.518 8.944 161.11 8.944C159.59 8.944 158.646 10.08 158.646 11.92V16H157.334V4.8H158.646V9.184C159.126 8.416 159.958 7.744 161.334 7.744ZM169.984 16.096C167.6 16.096 165.936 14.4 165.936 11.92C165.936 9.44 167.6 7.744 169.984 7.744C172.368 7.744 174.032 9.44 174.032 11.92C174.032 14.4 172.368 16.096 169.984 16.096ZM169.984 14.928C171.6 14.928 172.688 13.664 172.688 11.92C172.688 10.176 171.6 8.912 169.984 8.912C168.368 8.912 167.28 10.176 167.28 11.92C167.28 13.664 168.368 14.928 169.984 14.928ZM181.249 11.92V7.84H182.561V16H181.425L181.249 14.912C180.769 15.52 179.985 16.096 178.641 16.096C176.849 16.096 175.425 15.088 175.425 12.384V7.84H176.737V12.304C176.737 14 177.505 14.896 178.865 14.896C180.353 14.896 181.249 13.76 181.249 11.92ZM190.781 9.248L190.957 7.84H192.093V15.6C192.093 17.952 190.845 19.296 188.045 19.296C185.965 19.296 184.509 18.32 184.301 16.528H185.645C185.869 17.552 186.781 18.128 188.141 18.128C189.853 18.128 190.781 17.328 190.781 15.552V14.592C190.237 15.52 189.357 16.096 187.981 16.096C185.725 16.096 184.061 14.576 184.061 11.92C184.061 9.424 185.725 7.744 187.981 7.744C189.357 7.744 190.269 8.336 190.781 9.248ZM188.109 14.928C189.709 14.928 190.797 13.696 190.797 11.952C190.797 10.16 189.709 8.912 188.109 8.912C186.493 8.912 185.405 10.144 185.405 11.92C185.405 13.696 186.493 14.928 188.109 14.928ZM197.88 7.744C199.704 7.744 201.192 8.752 201.192 11.456V16H199.88V11.536C199.88 9.84 199.064 8.944 197.656 8.944C196.136 8.944 195.192 10.08 195.192 11.92V16H193.88V4.8H195.192V9.184C195.672 8.416 196.504 7.744 197.88 7.744ZM203.473 13.872V9.04H202.001V7.84H203.473V5.552H204.785V7.84H206.897V9.04H204.785V13.856C204.785 14.544 205.025 14.8 205.729 14.8H207.025V16H205.601C204.033 16 203.473 15.312 203.473 13.872ZM212.957 13.872V9.04H211.485V7.84H212.957V5.552H214.269V7.84H216.381V9.04H214.269V13.856C214.269 14.544 214.509 14.8 215.213 14.8H216.509V16H215.085C213.517 16 212.957 15.312 212.957 13.872ZM221.646 7.744C223.47 7.744 224.958 8.752 224.958 11.456V16H223.646V11.536C223.646 9.84 222.83 8.944 221.422 8.944C219.902 8.944 218.958 10.08 218.958 11.92V16H217.646V4.8H218.958V9.184C219.438 8.416 220.27 7.744 221.646 7.744ZM233.846 14.8H234.262V16H233.542C232.454 16 232.086 15.536 232.07 14.736C231.558 15.472 230.742 16.096 229.334 16.096C227.542 16.096 226.326 15.2 226.326 13.712C226.326 12.08 227.462 11.168 229.606 11.168H232.006V10.608C232.006 9.552 231.254 8.912 229.974 8.912C228.822 8.912 228.054 9.456 227.894 10.288H226.582C226.774 8.688 228.07 7.744 230.038 7.744C232.118 7.744 233.318 8.784 233.318 10.688V14.256C233.318 14.688 233.478 14.8 233.846 14.8ZM232.006 12.672V12.272H229.478C228.31 12.272 227.654 12.704 227.654 13.632C227.654 14.432 228.342 14.976 229.43 14.976C231.062 14.976 232.006 14.032 232.006 12.672ZM235.879 13.872V9.04H234.407V7.84H235.879V5.552H237.191V7.84H239.303V9.04H237.191V13.856C237.191 14.544 237.431 14.8 238.135 14.8H239.431V16H238.007C236.439 16 235.879 15.312 235.879 13.872ZM248.419 16.096C246.035 16.096 244.467 14.48 244.467 11.936C244.467 9.44 246.083 7.744 248.451 7.744C250.451 7.744 251.715 8.864 252.051 10.656H250.675C250.435 9.568 249.635 8.912 248.435 8.912C246.867 8.912 245.811 10.16 245.811 11.936C245.811 13.712 246.867 14.928 248.435 14.928C249.603 14.928 250.403 14.256 250.659 13.216H252.051C251.731 14.976 250.403 16.096 248.419 16.096ZM257.25 16.096C254.866 16.096 253.202 14.4 253.202 11.92C253.202 9.44 254.866 7.744 257.25 7.744C259.634 7.744 261.298 9.44 261.298 11.92C261.298 14.4 259.634 16.096 257.25 16.096ZM257.25 14.928C258.866 14.928 259.954 13.664 259.954 11.92C259.954 10.176 258.866 8.912 257.25 8.912C255.634 8.912 254.546 10.176 254.546 11.92C254.546 13.664 255.634 14.928 257.25 14.928ZM268.514 11.92V7.84H269.826V16H268.69L268.514 14.912C268.034 15.52 267.25 16.096 265.906 16.096C264.114 16.096 262.69 15.088 262.69 12.384V7.84H264.002V12.304C264.002 14 264.77 14.896 266.13 14.896C267.618 14.896 268.514 13.76 268.514 11.92ZM275.615 7.744C277.455 7.744 278.911 8.752 278.911 11.456V16H277.599V11.536C277.599 9.84 276.815 8.944 275.391 8.944C273.855 8.944 272.927 10.08 272.927 11.92V16H271.615V7.84H272.751L272.927 8.944C273.407 8.32 274.239 7.744 275.615 7.744ZM281.192 13.872V9.04H279.72V7.84H281.192V5.552H282.504V7.84H284.616V9.04H282.504V13.856C282.504 14.544 282.744 14.8 283.448 14.8H284.744V16H283.32C281.752 16 281.192 15.312 281.192 13.872ZM285.544 13.312H286.888C286.936 14.272 287.784 14.976 289.144 14.976C290.296 14.976 291.112 14.48 291.112 13.728C291.112 12.704 290.216 12.624 289 12.48C287.176 12.256 285.72 11.888 285.72 10.192C285.72 8.704 287.08 7.728 288.92 7.744C290.776 7.76 292.12 8.624 292.248 10.32H290.904C290.808 9.488 290.04 8.864 288.92 8.864C287.784 8.864 287.016 9.344 287.016 10.096C287.016 10.992 287.88 11.104 289.064 11.248C290.92 11.472 292.408 11.824 292.408 13.632C292.408 15.152 290.952 16.096 289.144 16.096C287.032 16.096 285.576 15.104 285.544 13.312ZM295.209 12.352C295.209 11.9467 295.246 11.6 295.321 11.312C295.406 11.0133 295.545 10.7307 295.737 10.464C295.939 10.1973 296.211 9.92 296.553 9.632C296.969 9.28 297.289 8.98667 297.513 8.752C297.747 8.51733 297.913 8.288 298.009 8.064C298.105 7.84 298.153 7.568 298.153 7.248C298.153 6.736 297.987 6.34133 297.657 6.064C297.326 5.78667 296.846 5.648 296.217 5.648C295.694 5.648 295.23 5.71733 294.825 5.856C294.419 5.984 294.03 6.13867 293.657 6.32L293.161 5.2C293.587 4.976 294.057 4.78933 294.569 4.64C295.091 4.49067 295.673 4.416 296.313 4.416C297.326 4.416 298.11 4.66667 298.665 5.168C299.219 5.66933 299.497 6.352 299.497 7.216C299.497 7.696 299.417 8.10667 299.257 8.448C299.107 8.77867 298.889 9.088 298.601 9.376C298.323 9.65333 297.993 9.952 297.609 10.272C297.257 10.5707 296.985 10.832 296.793 11.056C296.611 11.28 296.489 11.504 296.425 11.728C296.361 11.9413 296.329 12.2027 296.329 12.512V12.784H295.209V12.352ZM294.841 15.136C294.841 14.7413 294.931 14.464 295.113 14.304C295.305 14.144 295.545 14.064 295.833 14.064C296.099 14.064 296.329 14.144 296.521 14.304C296.713 14.464 296.809 14.7413 296.809 15.136C296.809 15.52 296.713 15.7973 296.521 15.968C296.329 16.1387 296.099 16.224 295.833 16.224C295.545 16.224 295.305 16.1387 295.113 15.968C294.931 15.7973 294.841 15.52 294.841 15.136Z" fill="#131313"/>
<path d="M333.531 13.625L333.531 12.25L334.85 12.25L334.85 13.625L333.531 13.625Z" fill="#131313"/>
<path d="M346.714 13.625L346.714 12.25L348.033 12.25L348.033 13.625L346.714 13.625Z" fill="#131313"/>
<path d="M334.85 15L334.85 13.625L336.168 13.625L336.168 15L334.85 15Z" fill="#131313"/>
<path d="M345.396 15L345.396 13.625L346.714 13.625L346.714 15L345.396 15Z" fill="#131313"/>
<path d="M334.85 13.625L334.85 12.25L336.168 12.25L336.168 13.625L334.85 13.625Z" fill="#131313"/>
<path d="M345.396 13.625L345.396 12.25L346.714 12.25L346.714 13.625L345.396 13.625Z" fill="#131313"/>
<path d="M336.168 13.625L336.168 12.25L337.486 12.25L337.486 13.625L336.168 13.625Z" fill="#131313"/>
<path d="M344.078 13.625L344.078 12.25L345.396 12.25L345.396 13.625L344.078 13.625Z" fill="#131313"/>
<path d="M334.85 12.25L334.85 10.875L336.168 10.875L336.168 12.25L334.85 12.25Z" fill="#131313"/>
<path d="M345.396 12.25L345.396 10.875L346.714 10.875L346.714 12.25L345.396 12.25Z" fill="#131313"/>
<path d="M336.168 12.25L336.168 10.875L337.486 10.875L337.486 12.25L336.168 12.25Z" fill="#131313"/>
<path d="M344.078 12.25L344.078 10.875L345.396 10.875L345.396 12.25L344.078 12.25Z" fill="#131313"/>
<path d="M337.486 12.25L337.486 10.875L338.804 10.875L338.804 12.25L337.486 12.25Z" fill="#131313"/>
<path d="M334.85 10.875L334.85 9.5L336.168 9.5L336.168 10.875L334.85 10.875Z" fill="#131313"/>
<path d="M345.396 10.875L345.396 9.5L346.714 9.5L346.714 10.875L345.396 10.875Z" fill="#131313"/>
<path d="M336.168 10.875L336.168 9.5L337.486 9.5L337.486 10.875L336.168 10.875Z" fill="#131313"/>
<path d="M344.078 10.875L344.078 9.5L345.396 9.5L345.396 10.875L344.078 10.875Z" fill="#131313"/>
<path d="M337.486 10.875L337.486 9.5L338.804 9.5L338.804 10.875L337.486 10.875Z" fill="#131313"/>
<path d="M338.804 10.875L338.804 9.5L340.123 9.5L340.123 10.875L338.804 10.875Z" fill="#131313"/>
<path d="M341.441 10.875L341.441 9.5L342.759 9.5L342.759 10.875L341.441 10.875Z" fill="#131313"/>
<path d="M342.759 10.875L342.759 9.5L344.078 9.5L344.078 10.875L342.759 10.875Z" fill="#131313"/>
<path d="M342.759 12.25L342.759 10.875L344.078 10.875L344.078 12.25L342.759 12.25Z" fill="#131313"/>
<path d="M336.168 9.5L336.168 8.125L337.486 8.125L337.486 9.5L336.168 9.5Z" fill="#131313"/>
<path d="M344.078 9.5L344.078 8.125L345.396 8.125L345.396 9.5L344.078 9.5Z" fill="#131313"/>
<path d="M337.486 9.5L337.486 8.125L338.804 8.125L338.804 9.5L337.486 9.5Z" fill="#131313"/>
<path d="M338.804 9.5L338.804 8.125L340.123 8.125L340.123 9.5L338.804 9.5Z" fill="#131313"/>
<path d="M341.441 9.5L341.441 8.125L342.759 8.125L342.759 9.5L341.441 9.5Z" fill="#131313"/>
<path d="M342.759 9.5L342.759 8.125L344.078 8.125L344.078 9.5L342.759 9.5Z" fill="#131313"/>
<path d="M340.123 9.5L340.123 8.125L341.441 8.125L341.441 9.5L340.123 9.5Z" fill="#131313"/>
<path d="M337.486 8.125L337.486 6.75L338.804 6.75L338.804 8.125L337.486 8.125Z" fill="#131313"/>
<path d="M338.804 8.125L338.804 6.75L340.123 6.75L340.123 8.125L338.804 8.125Z" fill="#131313"/>
<path d="M341.441 8.125L341.441 6.75L342.759 6.75L342.759 8.125L341.441 8.125Z" fill="#131313"/>
<path d="M342.759 8.125L342.759 6.75L344.078 6.75L344.078 8.125L342.759 8.125Z" fill="#131313"/>
<path d="M340.123 8.125L340.123 6.75L341.441 6.75L341.441 8.125L340.123 8.125Z" fill="#131313"/>
<path d="M338.804 6.75L338.804 5.375L340.123 5.375L340.123 6.75L338.804 6.75Z" fill="#131313"/>
<path d="M340.123 5.375L340.123 4L341.441 4L341.441 5.375L340.123 5.375Z" fill="#131313"/>
<path d="M340.123 6.75L340.123 5.375L341.441 5.375L341.441 6.75L340.123 6.75Z" fill="#131313"/>
<path d="M341.441 6.75L341.441 5.375L342.759 5.375L342.759 6.75L341.441 6.75Z" fill="#131313"/>
<path d="M333.531 12.25L333.531 10.875L334.85 10.875L334.85 12.25L333.531 12.25Z" fill="#131313"/>
<path d="M346.714 12.25L346.714 10.875L348.033 10.875L348.033 12.25L346.714 12.25Z" fill="#131313"/>
<rect x="0.5" y="32.5" width="70" height="29" fill="#FD9DAF"/>
<rect x="0.5" y="32.5" width="70" height="29" stroke="#131313"/>
<path d="M11.5059 48.38L8.42188 43.1H10.5219L12.4059 46.544L14.3859 43.1H16.3899L13.3059 48.38V51.5H11.5059V48.38ZM18.9251 51.572C16.8731 51.572 15.6371 50.336 15.6371 48.428C15.6371 46.508 16.8971 45.26 18.8051 45.26C20.6531 45.26 21.9011 46.412 21.9251 48.224C21.9251 48.404 21.9131 48.608 21.8771 48.8H17.4011V48.884C17.4371 49.76 18.0011 50.288 18.8531 50.288C19.5371 50.288 20.0171 49.988 20.1611 49.412H21.8291C21.6371 50.612 20.5691 51.572 18.9251 51.572ZM17.4371 47.696H20.2211C20.1011 46.94 19.5851 46.52 18.8171 46.52C18.0851 46.52 17.5331 46.964 17.4371 47.696ZM22.5148 49.448H24.1228C24.1828 49.988 24.6508 50.36 25.4788 50.36C26.1868 50.36 26.6188 50.132 26.6188 49.7C26.6188 49.196 26.1988 49.16 25.2028 49.028C23.7628 48.86 22.6468 48.536 22.6468 47.264C22.6468 46.04 23.7148 45.236 25.2988 45.248C26.9548 45.248 28.0948 45.98 28.1788 47.24H26.5588C26.5108 46.748 26.0428 46.448 25.3588 46.448C24.6988 46.448 24.2668 46.688 24.2668 47.084C24.2668 47.552 24.7948 47.6 25.6828 47.708C27.0988 47.852 28.2748 48.176 28.2748 49.568C28.2748 50.792 27.1228 51.572 25.4668 51.572C23.7508 51.572 22.5868 50.768 22.5148 49.448Z" fill="#131313"/>
<path d="M39.3145 44.012V43.1H40.2985V51.5H39.2905V45.476C39.1705 45.584 38.9785 45.632 38.7145 45.632H37.3585V44.732H38.7265C39.1225 44.732 39.3145 44.432 39.3145 44.012ZM42.3069 50.18C41.8869 49.448 41.6469 48.44 41.6469 47.336C41.6469 44.696 42.8349 43.028 44.8389 43.028C46.3629 43.028 47.4069 43.94 47.6109 45.344H46.6029C46.4109 44.492 45.8109 43.916 44.7909 43.916C43.3269 43.916 42.5229 45.248 42.5229 47.144C42.5229 47.264 42.5229 47.348 42.5349 47.552C42.5469 47.504 42.5589 47.432 42.6069 47.324C42.9789 46.496 43.8189 45.944 44.9469 45.944C46.6029 45.944 47.7669 47.036 47.7669 48.752C47.7669 50.372 46.5789 51.572 44.8509 51.572C43.6869 51.572 42.8349 51.044 42.3069 50.18ZM46.7589 48.752C46.7589 47.636 46.0389 46.832 44.8749 46.832C43.7109 46.832 42.9189 47.624 42.9189 48.776C42.9189 49.904 43.6869 50.684 44.8389 50.684C46.0029 50.684 46.7589 49.88 46.7589 48.752ZM48.4094 50.9C48.4094 50.492 48.6974 50.228 49.0934 50.228C49.4894 50.228 49.7774 50.492 49.7774 50.9C49.7774 51.308 49.4894 51.572 49.0934 51.572C48.6974 51.572 48.4094 51.308 48.4094 50.9ZM53.5565 45.872C55.2005 45.872 56.3405 47.024 56.3405 48.692C56.3405 50.552 54.9725 51.56 53.4005 51.56C51.5285 51.56 50.4485 50.348 50.3645 48.884H51.3605C51.4565 49.856 52.1885 50.66 53.4005 50.66C54.3845 50.66 55.3085 50 55.3085 48.704C55.3085 47.564 54.5765 46.76 53.4125 46.76C52.8965 46.76 51.8645 46.904 51.5045 47.9L50.5325 47.876L50.8085 43.1H55.8365V44.024H51.7325L51.5405 46.676C52.0565 46.064 52.7765 45.872 53.5565 45.872ZM59.0568 42.812C59.6488 42.812 60.0968 43.048 60.4008 43.52C60.7048 43.984 60.8568 44.64 60.8568 45.488C60.8568 46.336 60.7088 47 60.4128 47.48C60.1248 47.952 59.6728 48.188 59.0568 48.188C58.6808 48.188 58.3608 48.08 58.0968 47.864C57.8328 47.648 57.6328 47.34 57.4968 46.94C57.3688 46.532 57.3048 46.048 57.3048 45.488C57.3048 44.64 57.4448 43.984 57.7248 43.52C58.0048 43.048 58.4488 42.812 59.0568 42.812ZM59.0568 43.556C58.7528 43.556 58.5288 43.72 58.3848 44.048C58.2488 44.368 58.1808 44.848 58.1808 45.488C58.1808 46.128 58.2488 46.612 58.3848 46.94C58.5288 47.268 58.7528 47.432 59.0568 47.432C59.3688 47.432 59.6008 47.272 59.7528 46.952C59.9048 46.624 59.9808 46.136 59.9808 45.488C59.9808 44.848 59.9048 44.368 59.7528 44.048C59.6008 43.72 59.3688 43.556 59.0568 43.556ZM64.5408 42.932L59.7888 51.5H58.8648L63.6168 42.932H64.5408ZM64.3008 46.244C64.6928 46.244 65.0208 46.352 65.2848 46.568C65.5488 46.776 65.7488 47.08 65.8848 47.48C66.0288 47.872 66.1008 48.352 66.1008 48.92C66.1008 49.768 65.9528 50.432 65.6568 50.912C65.3688 51.384 64.9168 51.62 64.3008 51.62C63.9248 51.62 63.6048 51.512 63.3408 51.296C63.0768 51.08 62.8768 50.772 62.7408 50.372C62.6128 49.964 62.5488 49.48 62.5488 48.92C62.5488 48.072 62.6888 47.416 62.9688 46.952C63.2488 46.48 63.6928 46.244 64.3008 46.244ZM64.3008 47C63.9968 47 63.7728 47.16 63.6288 47.48C63.4928 47.8 63.4248 48.28 63.4248 48.92C63.4248 49.568 63.4928 50.056 63.6288 50.384C63.7728 50.704 63.9968 50.864 64.3008 50.864C64.6128 50.864 64.8448 50.704 64.9968 50.384C65.1488 50.064 65.2248 49.576 65.2248 48.92C65.2248 48.28 65.1488 47.8 64.9968 47.48C64.8448 47.16 64.6128 47 64.3008 47Z" fill="#131313"/>
<mask id="path-6-inside-1_538_2867" fill="white">
<path d="M71 32H349V62H71V32Z"/>
</mask>
<path d="M71 32H349V62H71V32Z" fill="#DCECA1"/>
<path d="M349 32H350V31H349V32ZM349 62V63H350V62H349ZM71 33H349V31H71V33ZM348 32V62H350V32H348ZM349 61H71V63H349V61Z" fill="#131313" mask="url(#path-6-inside-1_538_2867)"/>
<path d="M81.6852 51.5H79.9212V43.1H81.5532L85.1172 48.392V43.1H86.8932V51.5H85.2492L81.6852 46.208V51.5ZM91.2035 51.572C89.2355 51.572 87.9515 50.312 87.9515 48.416C87.9515 46.52 89.2355 45.26 91.2035 45.26C93.1715 45.26 94.4555 46.52 94.4555 48.416C94.4555 50.324 93.1715 51.572 91.2035 51.572ZM91.2035 50.192C92.1515 50.192 92.7395 49.46 92.7395 48.416C92.7395 47.372 92.1515 46.64 91.2035 46.64C90.2555 46.64 89.6795 47.372 89.6795 48.416C89.6795 49.46 90.2555 50.192 91.2035 50.192Z" fill="#131313"/>
<path d="M108.184 47.156C109.12 47.372 109.864 48.092 109.864 49.244C109.864 50.6 108.7 51.572 106.804 51.572C104.908 51.572 103.744 50.6 103.744 49.244C103.744 48.104 104.476 47.372 105.424 47.156C104.62 46.976 103.984 46.268 103.984 45.26C103.984 43.94 105.088 43.028 106.804 43.028C108.52 43.028 109.624 43.94 109.624 45.26C109.624 46.22 109 46.976 108.184 47.156ZM105.016 45.26C105.016 46.088 105.724 46.64 106.804 46.64C107.884 46.64 108.592 46.088 108.592 45.26C108.592 44.444 107.884 43.892 106.804 43.892C105.724 43.892 105.016 44.444 105.016 45.26ZM106.804 50.708C108.004 50.708 108.832 50.072 108.832 49.172C108.832 48.284 108.004 47.648 106.804 47.648C105.604 47.648 104.776 48.284 104.776 49.172C104.776 50.072 105.616 50.708 106.804 50.708ZM115.13 47.132C115.898 47.276 116.702 47.888 116.702 49.172C116.702 50.6 115.502 51.572 113.678 51.572C111.854 51.572 110.678 50.576 110.678 48.908H111.674C111.686 50.012 112.55 50.672 113.738 50.672C114.83 50.672 115.67 50.06 115.67 49.1C115.67 48.224 114.95 47.66 113.642 47.66H112.922V46.784H113.582C114.83 46.784 115.454 46.16 115.454 45.308C115.454 44.456 114.686 43.928 113.678 43.928C112.622 43.928 111.854 44.564 111.842 45.524H110.846C110.858 44.048 112.01 43.028 113.666 43.028C115.394 43.028 116.486 43.928 116.486 45.248C116.486 46.304 115.934 46.916 115.13 47.132ZM117.456 50.9C117.456 50.492 117.744 50.228 118.14 50.228C118.536 50.228 118.824 50.492 118.824 50.9C118.824 51.308 118.536 51.572 118.14 51.572C117.744 51.572 117.456 51.308 117.456 50.9ZM122.603 45.872C124.247 45.872 125.387 47.024 125.387 48.692C125.387 50.552 124.019 51.56 122.447 51.56C120.575 51.56 119.495 50.348 119.411 48.884H120.407C120.503 49.856 121.235 50.66 122.447 50.66C123.431 50.66 124.355 50 124.355 48.704C124.355 47.564 123.623 46.76 122.459 46.76C121.943 46.76 120.911 46.904 120.551 47.9L119.579 47.876L119.855 43.1H124.883V44.024H120.779L120.587 46.676C121.103 46.064 121.823 45.872 122.603 45.872ZM128.104 42.812C128.696 42.812 129.144 43.048 129.448 43.52C129.752 43.984 129.904 44.64 129.904 45.488C129.904 46.336 129.756 47 129.46 47.48C129.172 47.952 128.72 48.188 128.104 48.188C127.728 48.188 127.408 48.08 127.144 47.864C126.88 47.648 126.68 47.34 126.544 46.94C126.416 46.532 126.352 46.048 126.352 45.488C126.352 44.64 126.492 43.984 126.772 43.52C127.052 43.048 127.496 42.812 128.104 42.812ZM128.104 43.556C127.8 43.556 127.576 43.72 127.432 44.048C127.296 44.368 127.228 44.848 127.228 45.488C127.228 46.128 127.296 46.612 127.432 46.94C127.576 47.268 127.8 47.432 128.104 47.432C128.416 47.432 128.648 47.272 128.8 46.952C128.952 46.624 129.028 46.136 129.028 45.488C129.028 44.848 128.952 44.368 128.8 44.048C128.648 43.72 128.416 43.556 128.104 43.556ZM133.588 42.932L128.836 51.5H127.912L132.664 42.932H133.588ZM133.348 46.244C133.74 46.244 134.068 46.352 134.332 46.568C134.596 46.776 134.796 47.08 134.932 47.48C135.076 47.872 135.148 48.352 135.148 48.92C135.148 49.768 135 50.432 134.704 50.912C134.416 51.384 133.964 51.62 133.348 51.62C132.972 51.62 132.652 51.512 132.388 51.296C132.124 51.08 131.924 50.772 131.788 50.372C131.66 49.964 131.596 49.48 131.596 48.92C131.596 48.072 131.736 47.416 132.016 46.952C132.296 46.48 132.74 46.244 133.348 46.244ZM133.348 47C133.044 47 132.82 47.16 132.676 47.48C132.54 47.8 132.472 48.28 132.472 48.92C132.472 49.568 132.54 50.056 132.676 50.384C132.82 50.704 133.044 50.864 133.348 50.864C133.66 50.864 133.892 50.704 134.044 50.384C134.196 50.064 134.272 49.576 134.272 48.92C134.272 48.28 134.196 47.8 134.044 47.48C133.892 47.16 133.66 47 133.348 47Z" fill="#131313"/>
</svg>
