<svg width="349" height="62" viewBox="0 0 349 62" fill="none" xmlns="http://www.w3.org/2000/svg">
<path d="M10.928 13.936H12.032V16H10.88C9.92 16 9.52 15.728 9.136 15.248C8.288 15.792 7.232 16.096 6.064 16.096C2.768 16.096 0.512 13.664 0.512 10.4C0.512 7.136 2.768 4.704 6.064 4.704C9.36 4.704 11.616 7.136 11.616 10.4C11.616 11.728 11.248 12.928 10.576 13.872C10.672 13.904 10.784 13.936 10.928 13.936ZM2.96 10.4C2.96 12.512 4.176 14.064 6.064 14.064C6.72 14.064 7.296 13.872 7.776 13.536L7.616 13.344C7.376 13.024 7.168 12.848 6.816 12.848H5.776V10.816H6.992C7.936 10.816 8.256 11.152 8.64 11.632L8.896 11.952C9.072 11.488 9.152 10.96 9.152 10.4C9.152 8.288 7.936 6.736 6.064 6.736C4.176 6.736 2.96 8.288 2.96 10.4ZM18.4908 11.888V7.776H20.7468V16H18.7468L18.5388 15.008C18.0108 15.648 17.2908 16.096 16.1228 16.096C14.4268 16.096 12.8588 15.248 12.8588 12.336V7.776H15.1148V12.032C15.1148 13.504 15.5948 14.224 16.7148 14.224C17.8348 14.224 18.4908 13.408 18.4908 11.888ZM26.3793 16.096C23.6432 16.096 21.9953 14.448 21.9953 11.904C21.9953 9.344 23.6753 7.68 26.2193 7.68C28.6833 7.68 30.3472 9.216 30.3793 11.632C30.3793 11.872 30.3633 12.144 30.3153 12.4H24.3473V12.512C24.3953 13.68 25.1473 14.384 26.2833 14.384C27.1953 14.384 27.8353 13.984 28.0273 13.216H30.2513C29.9953 14.816 28.5713 16.096 26.3793 16.096ZM24.3953 10.928H28.1073C27.9473 9.92 27.2593 9.36 26.2352 9.36C25.2593 9.36 24.5233 9.952 24.3953 10.928ZM31.1656 13.264H33.3096C33.3896 13.984 34.0136 14.48 35.1176 14.48C36.0616 14.48 36.6376 14.176 36.6376 13.6C36.6376 12.928 36.0776 12.88 34.7496 12.704C32.8296 12.48 31.3416 12.048 31.3416 10.352C31.3416 8.72 32.7656 7.648 34.8776 7.664C37.0856 7.664 38.6056 8.64 38.7176 10.32H36.5576C36.4936 9.664 35.8696 9.264 34.9576 9.264C34.0776 9.264 33.5016 9.584 33.5016 10.112C33.5016 10.736 34.2056 10.8 35.3896 10.944C37.2776 11.136 38.8456 11.568 38.8456 13.424C38.8456 15.056 37.3096 16.096 35.1016 16.096C32.8136 16.096 31.2616 15.024 31.1656 13.264ZM40.626 13.648V9.68H39.266V7.776H40.626V5.472H42.882V7.776H44.77V9.68H42.882V13.28C42.882 13.856 43.106 14.096 43.698 14.096H44.818V16H42.978C41.41 16 40.626 15.216 40.626 13.648ZM46.9981 6.896C46.2621 6.896 45.6861 6.352 45.6861 5.632C45.6861 4.896 46.2621 4.352 46.9981 4.352C47.7341 4.352 48.3101 4.896 48.3101 5.632C48.3101 6.352 47.7341 6.896 46.9981 6.896ZM45.8621 16V7.776H48.1341V16H45.8621ZM53.7063 16.096C51.0823 16.096 49.3703 14.416 49.3703 11.888C49.3703 9.36 51.0823 7.68 53.7063 7.68C56.3303 7.68 58.0423 9.36 58.0423 11.888C58.0423 14.432 56.3303 16.096 53.7063 16.096ZM53.7063 14.256C54.9703 14.256 55.7543 13.28 55.7543 11.888C55.7543 10.496 54.9703 9.52 53.7063 9.52C52.4423 9.52 51.6743 10.496 51.6743 11.888C51.6743 13.28 52.4423 14.256 53.7063 14.256ZM64.004 7.68C65.78 7.68 67.3 8.624 67.3 11.44V16H65.044V11.664C65.044 10.272 64.516 9.536 63.38 9.536C62.212 9.536 61.54 10.368 61.54 11.792V16H59.284V7.776H61.252L61.46 8.8C61.988 8.16 62.74 7.68 64.004 7.68ZM74.5623 5.824V4.8H76.8183V16H74.5143V8.752C74.3383 8.8 74.1463 8.816 73.9062 8.816H72.0343V6.912H73.6983C74.3383 6.912 74.5623 6.48 74.5623 5.824ZM78.3413 10.656V10.144C78.3413 6.8 80.2453 4.704 82.9493 4.704C85.6693 4.704 87.5733 6.8 87.5733 10.144V10.656C87.5733 14.064 85.6693 16.096 82.9493 16.096C80.2453 16.096 78.3413 14.064 78.3413 10.656ZM85.2693 10.576V10.224C85.2693 7.92 84.3253 6.656 82.9493 6.656C81.5893 6.656 80.6453 7.92 80.6453 10.224V10.576C80.6453 12.896 81.5893 14.144 82.9493 14.144C84.3253 14.144 85.2693 12.896 85.2693 10.576ZM98.3338 12.368H92.7338V10.528H98.3338V12.368ZM104.026 16V4.8H108.33C110.57 4.8 112.042 6.144 112.042 8.24C112.042 10.336 110.57 11.696 108.33 11.696H105.418V16H104.026ZM108.218 6.08H105.418V10.416H108.202C109.674 10.416 110.618 9.568 110.618 8.24C110.618 6.912 109.69 6.08 108.218 6.08ZM113.334 16V4.8H114.646V16H113.334ZM123.659 14.8H124.075V16H123.355C122.267 16 121.899 15.536 121.883 14.736C121.371 15.472 120.555 16.096 119.147 16.096C117.355 16.096 116.139 15.2 116.139 13.712C116.139 12.08 117.275 11.168 119.419 11.168H121.819V10.608C121.819 9.552 121.067 8.912 119.787 8.912C118.635 8.912 117.867 9.456 117.707 10.288H116.395C116.587 8.688 117.883 7.744 119.851 7.744C121.931 7.744 123.131 8.784 123.131 10.688V14.256C123.131 14.688 123.291 14.8 123.659 14.8ZM121.819 12.672V12.272H119.291C118.123 12.272 117.467 12.704 117.467 13.632C117.467 14.432 118.155 14.976 119.243 14.976C120.875 14.976 121.819 14.032 121.819 12.672ZM128.654 16.096C126.27 16.096 124.702 14.48 124.702 11.936C124.702 9.44 126.318 7.744 128.686 7.744C130.686 7.744 131.95 8.864 132.286 10.656H130.91C130.67 9.568 129.87 8.912 128.67 8.912C127.102 8.912 126.046 10.16 126.046 11.936C126.046 13.712 127.102 14.928 128.67 14.928C129.838 14.928 130.638 14.256 130.894 13.216H132.286C131.966 14.976 130.638 16.096 128.654 16.096ZM137.484 16.096C135.036 16.096 133.436 14.416 133.436 11.92C133.436 9.44 135.004 7.744 137.308 7.744C139.612 7.744 141.116 9.2 141.18 11.616C141.18 11.792 141.164 11.984 141.148 12.176H134.812V12.288C134.86 13.84 135.836 14.928 137.388 14.928C138.54 14.928 139.436 14.32 139.708 13.264H141.036C140.716 14.896 139.372 16.096 137.484 16.096ZM134.892 11.088H139.772C139.644 9.68 138.684 8.896 137.324 8.896C136.124 8.896 135.02 9.76 134.892 11.088ZM146.789 7.744C149.045 7.744 150.709 9.264 150.709 11.92C150.709 14.416 149.045 16.096 146.789 16.096C145.413 16.096 144.485 15.536 143.989 14.752L143.813 16H142.677V4.8H143.989V9.152C144.533 8.4 145.413 7.744 146.789 7.744ZM146.661 14.928C148.277 14.928 149.365 13.696 149.365 11.92C149.365 10.144 148.277 8.912 146.661 8.912C145.061 8.912 143.973 10.144 143.973 11.888C143.973 13.68 145.061 14.928 146.661 14.928ZM155.969 16.096C153.585 16.096 151.921 14.4 151.921 11.92C151.921 9.44 153.585 7.744 155.969 7.744C158.353 7.744 160.017 9.44 160.017 11.92C160.017 14.4 158.353 16.096 155.969 16.096ZM155.969 14.928C157.585 14.928 158.673 13.664 158.673 11.92C158.673 10.176 157.585 8.912 155.969 8.912C154.353 8.912 153.265 10.176 153.265 11.92C153.265 13.664 154.353 14.928 155.969 14.928ZM172.141 9.088V4.8H173.453V16H172.317L172.141 14.688C171.597 15.44 170.717 16.096 169.341 16.096C167.085 16.096 165.421 14.576 165.421 11.92C165.421 9.424 167.085 7.744 169.341 7.744C170.717 7.744 171.645 8.304 172.141 9.088ZM169.469 14.928C171.069 14.928 172.157 13.696 172.157 11.952C172.157 10.16 171.069 8.912 169.469 8.912C167.853 8.912 166.765 10.144 166.765 11.92C166.765 13.696 167.853 14.928 169.469 14.928ZM179 16.096C176.552 16.096 174.952 14.416 174.952 11.92C174.952 9.44 176.52 7.744 178.824 7.744C181.128 7.744 182.632 9.2 182.696 11.616C182.696 11.792 182.68 11.984 182.664 12.176H176.328V12.288C176.376 13.84 177.352 14.928 178.904 14.928C180.056 14.928 180.952 14.32 181.224 13.264H182.552C182.232 14.896 180.888 16.096 179 16.096ZM176.408 11.088H181.288C181.16 9.68 180.2 8.896 178.84 8.896C177.64 8.896 176.536 9.76 176.408 11.088ZM187.857 16.096C185.473 16.096 183.905 14.48 183.905 11.936C183.905 9.44 185.521 7.744 187.889 7.744C189.889 7.744 191.153 8.864 191.489 10.656H190.113C189.873 9.568 189.073 8.912 187.873 8.912C186.305 8.912 185.249 10.16 185.249 11.936C185.249 13.712 186.305 14.928 187.873 14.928C189.041 14.928 189.841 14.256 190.097 13.216H191.489C191.169 14.976 189.841 16.096 187.857 16.096ZM196.687 16.096C194.239 16.096 192.639 14.416 192.639 11.92C192.639 9.44 194.207 7.744 196.511 7.744C198.815 7.744 200.319 9.2 200.383 11.616C200.383 11.792 200.367 11.984 200.351 12.176H194.015V12.288C194.063 13.84 195.039 14.928 196.591 14.928C197.743 14.928 198.639 14.32 198.911 13.264H200.239C199.919 14.896 198.575 16.096 196.687 16.096ZM194.095 11.088H198.975C198.847 9.68 197.887 8.896 196.527 8.896C195.327 8.896 194.223 9.76 194.095 11.088ZM205.992 7.744C208.248 7.744 209.912 9.264 209.912 11.92C209.912 14.416 208.248 16.096 205.992 16.096C204.616 16.096 203.688 15.536 203.192 14.752V19.2H201.88V7.84H203.016L203.192 9.152C203.736 8.4 204.616 7.744 205.992 7.744ZM205.864 14.928C207.48 14.928 208.568 13.696 208.568 11.92C208.568 10.144 207.48 8.912 205.864 8.912C204.264 8.912 203.176 10.144 203.176 11.888C203.176 13.68 204.264 14.928 205.864 14.928ZM211.926 13.872V9.04H210.454V7.84H211.926V5.552H213.238V7.84H215.35V9.04H213.238V13.856C213.238 14.544 213.478 14.8 214.182 14.8H215.478V16H214.054C212.486 16 211.926 15.312 211.926 13.872ZM217.287 6.464C216.807 6.464 216.439 6.112 216.439 5.616C216.439 5.12 216.807 4.768 217.287 4.768C217.767 4.768 218.135 5.12 218.135 5.616C218.135 6.112 217.767 6.464 217.287 6.464ZM216.615 16V7.84H217.927V16H216.615ZM223.484 16.096C221.1 16.096 219.436 14.4 219.436 11.92C219.436 9.44 221.1 7.744 223.484 7.744C225.868 7.744 227.532 9.44 227.532 11.92C227.532 14.4 225.868 16.096 223.484 16.096ZM223.484 14.928C225.1 14.928 226.188 13.664 226.188 11.92C226.188 10.176 225.1 8.912 223.484 8.912C221.868 8.912 220.78 10.176 220.78 11.92C220.78 13.664 221.868 14.928 223.484 14.928ZM233.037 7.744C234.877 7.744 236.333 8.752 236.333 11.456V16H235.021V11.536C235.021 9.84 234.237 8.944 232.813 8.944C231.277 8.944 230.349 10.08 230.349 11.92V16H229.037V7.84H230.173L230.349 8.944C230.829 8.32 231.661 7.744 233.037 7.744Z" fill="#131313"/>
<path d="M348.033 5.375L348.033 6.75L346.715 6.75L346.715 5.375L348.033 5.375Z" fill="#131313"/>
<path d="M334.85 5.375L334.85 6.75L333.532 6.75L333.532 5.375L334.85 5.375Z" fill="#131313"/>
<path d="M346.715 4L346.715 5.375L345.397 5.375L345.397 4L346.715 4Z" fill="#131313"/>
<path d="M336.169 4L336.169 5.375L334.85 5.375L334.85 4L336.169 4Z" fill="#131313"/>
<path d="M346.715 5.375L346.715 6.75L345.397 6.75L345.397 5.375L346.715 5.375Z" fill="#131313"/>
<path d="M336.169 5.375L336.169 6.75L334.85 6.75L334.85 5.375L336.169 5.375Z" fill="#131313"/>
<path d="M345.397 5.375L345.397 6.75L344.079 6.75L344.079 5.375L345.397 5.375Z" fill="#131313"/>
<path d="M337.487 5.375L337.487 6.75L336.169 6.75L336.169 5.375L337.487 5.375Z" fill="#131313"/>
<path d="M346.715 6.75L346.715 8.125L345.397 8.125L345.397 6.75L346.715 6.75Z" fill="#131313"/>
<path d="M336.169 6.75L336.169 8.125L334.85 8.125L334.85 6.75L336.169 6.75Z" fill="#131313"/>
<path d="M345.397 6.75L345.397 8.125L344.079 8.125L344.079 6.75L345.397 6.75Z" fill="#131313"/>
<path d="M337.487 6.75L337.487 8.125L336.169 8.125L336.169 6.75L337.487 6.75Z" fill="#131313"/>
<path d="M344.079 6.75L344.079 8.125L342.76 8.125L342.76 6.75L344.079 6.75Z" fill="#131313"/>
<path d="M346.715 8.125L346.715 9.5L345.397 9.5L345.397 8.125L346.715 8.125Z" fill="#131313"/>
<path d="M336.169 8.125L336.169 9.5L334.85 9.5L334.85 8.125L336.169 8.125Z" fill="#131313"/>
<path d="M345.397 8.125L345.397 9.5L344.079 9.5L344.079 8.125L345.397 8.125Z" fill="#131313"/>
<path d="M337.487 8.125L337.487 9.5L336.169 9.5L336.169 8.125L337.487 8.125Z" fill="#131313"/>
<path d="M344.079 8.125L344.079 9.5L342.76 9.5L342.76 8.125L344.079 8.125Z" fill="#131313"/>
<path d="M342.76 8.125L342.76 9.5L341.442 9.5L341.442 8.125L342.76 8.125Z" fill="#131313"/>
<path d="M340.124 8.125L340.124 9.5L338.805 9.5L338.805 8.125L340.124 8.125Z" fill="#131313"/>
<path d="M338.805 8.125L338.805 9.5L337.487 9.5L337.487 8.125L338.805 8.125Z" fill="#131313"/>
<path d="M338.805 6.75L338.805 8.125L337.487 8.125L337.487 6.75L338.805 6.75Z" fill="#131313"/>
<path d="M345.397 9.5L345.397 10.875L344.079 10.875L344.079 9.5L345.397 9.5Z" fill="#131313"/>
<path d="M337.487 9.5L337.487 10.875L336.169 10.875L336.169 9.5L337.487 9.5Z" fill="#131313"/>
<path d="M344.079 9.5L344.079 10.875L342.76 10.875L342.76 9.5L344.079 9.5Z" fill="#131313"/>
<path d="M342.76 9.5L342.76 10.875L341.442 10.875L341.442 9.5L342.76 9.5Z" fill="#131313"/>
<path d="M340.124 9.5L340.124 10.875L338.805 10.875L338.805 9.5L340.124 9.5Z" fill="#131313"/>
<path d="M338.805 9.5L338.805 10.875L337.487 10.875L337.487 9.5L338.805 9.5Z" fill="#131313"/>
<path d="M341.442 9.5L341.442 10.875L340.124 10.875L340.124 9.5L341.442 9.5Z" fill="#131313"/>
<path d="M344.079 10.875L344.079 12.25L342.76 12.25L342.76 10.875L344.079 10.875Z" fill="#131313"/>
<path d="M342.76 10.875L342.76 12.25L341.442 12.25L341.442 10.875L342.76 10.875Z" fill="#131313"/>
<path d="M340.124 10.875L340.124 12.25L338.805 12.25L338.805 10.875L340.124 10.875Z" fill="#131313"/>
<path d="M338.805 10.875L338.805 12.25L337.487 12.25L337.487 10.875L338.805 10.875Z" fill="#131313"/>
<path d="M341.442 10.875L341.442 12.25L340.124 12.25L340.124 10.875L341.442 10.875Z" fill="#131313"/>
<path d="M342.76 12.25L342.76 13.625L341.442 13.625L341.442 12.25L342.76 12.25Z" fill="#131313"/>
<path d="M341.442 13.625L341.442 15L340.124 15L340.124 13.625L341.442 13.625Z" fill="#131313"/>
<path d="M341.442 12.25L341.442 13.625L340.124 13.625L340.124 12.25L341.442 12.25Z" fill="#131313"/>
<path d="M340.124 12.25L340.124 13.625L338.805 13.625L338.805 12.25L340.124 12.25Z" fill="#131313"/>
<path d="M348.033 6.75L348.033 8.125L346.715 8.125L346.715 6.75L348.033 6.75Z" fill="#131313"/>
<path d="M334.85 6.75L334.85 8.125L333.532 8.125L333.532 6.75L334.85 6.75Z" fill="#131313"/>
<rect x="0.5" y="32.5" width="70" height="29" fill="#89CDFF"/>
<rect x="0.5" y="32.5" width="70" height="29" stroke="#131313"/>
<path d="M11.5059 48.38L8.42188 43.1H10.5219L12.4059 46.544L14.3859 43.1H16.3899L13.3059 48.38V51.5H11.5059V48.38ZM18.9251 51.572C16.8731 51.572 15.6371 50.336 15.6371 48.428C15.6371 46.508 16.8971 45.26 18.8051 45.26C20.6531 45.26 21.9011 46.412 21.9251 48.224C21.9251 48.404 21.9131 48.608 21.8771 48.8H17.4011V48.884C17.4371 49.76 18.0011 50.288 18.8531 50.288C19.5371 50.288 20.0171 49.988 20.1611 49.412H21.8291C21.6371 50.612 20.5691 51.572 18.9251 51.572ZM17.4371 47.696H20.2211C20.1011 46.94 19.5851 46.52 18.8171 46.52C18.0851 46.52 17.5331 46.964 17.4371 47.696ZM22.5148 49.448H24.1228C24.1828 49.988 24.6508 50.36 25.4788 50.36C26.1868 50.36 26.6188 50.132 26.6188 49.7C26.6188 49.196 26.1988 49.16 25.2028 49.028C23.7628 48.86 22.6468 48.536 22.6468 47.264C22.6468 46.04 23.7148 45.236 25.2988 45.248C26.9548 45.248 28.0948 45.98 28.1788 47.24H26.5588C26.5108 46.748 26.0428 46.448 25.3588 46.448C24.6988 46.448 24.2668 46.688 24.2668 47.084C24.2668 47.552 24.7948 47.6 25.6828 47.708C27.0988 47.852 28.2748 48.176 28.2748 49.568C28.2748 50.792 27.1228 51.572 25.4668 51.572C23.7508 51.572 22.5868 50.768 22.5148 49.448Z" fill="#131313"/>
<path d="M39.5001 44.012V43.1H40.4841V51.5H39.4761V45.476C39.3561 45.584 39.1641 45.632 38.9001 45.632H37.5441V44.732H38.9121C39.3081 44.732 39.5001 44.432 39.5001 44.012ZM41.4004 44.024V43.1H47.3284V43.808L43.2004 51.5H42.1084L46.2244 44.024H41.4004ZM47.0481 50.9C47.0481 50.492 47.3361 50.228 47.7321 50.228C48.1281 50.228 48.4161 50.492 48.4161 50.9C48.4161 51.308 48.1281 51.572 47.7321 51.572C47.3361 51.572 47.0481 51.308 47.0481 50.9ZM49.6057 50.18C49.1857 49.448 48.9457 48.44 48.9457 47.336C48.9457 44.696 50.1337 43.028 52.1377 43.028C53.6617 43.028 54.7057 43.94 54.9097 45.344H53.9017C53.7097 44.492 53.1097 43.916 52.0897 43.916C50.6257 43.916 49.8217 45.248 49.8217 47.144C49.8217 47.264 49.8217 47.348 49.8337 47.552C49.8457 47.504 49.8577 47.432 49.9057 47.324C50.2777 46.496 51.1177 45.944 52.2457 45.944C53.9017 45.944 55.0657 47.036 55.0657 48.752C55.0657 50.372 53.8777 51.572 52.1497 51.572C50.9857 51.572 50.1337 51.044 49.6057 50.18ZM54.0577 48.752C54.0577 47.636 53.3377 46.832 52.1737 46.832C51.0097 46.832 50.2177 47.624 50.2177 48.776C50.2177 49.904 50.9857 50.684 52.1377 50.684C53.3017 50.684 54.0577 49.88 54.0577 48.752ZM57.8713 42.812C58.4633 42.812 58.9113 43.048 59.2153 43.52C59.5193 43.984 59.6713 44.64 59.6713 45.488C59.6713 46.336 59.5233 47 59.2273 47.48C58.9393 47.952 58.4873 48.188 57.8713 48.188C57.4953 48.188 57.1753 48.08 56.9113 47.864C56.6473 47.648 56.4473 47.34 56.3113 46.94C56.1833 46.532 56.1193 46.048 56.1193 45.488C56.1193 44.64 56.2593 43.984 56.5393 43.52C56.8193 43.048 57.2633 42.812 57.8713 42.812ZM57.8713 43.556C57.5673 43.556 57.3433 43.72 57.1993 44.048C57.0633 44.368 56.9953 44.848 56.9953 45.488C56.9953 46.128 57.0633 46.612 57.1993 46.94C57.3433 47.268 57.5673 47.432 57.8713 47.432C58.1833 47.432 58.4153 47.272 58.5673 46.952C58.7193 46.624 58.7953 46.136 58.7953 45.488C58.7953 44.848 58.7193 44.368 58.5673 44.048C58.4153 43.72 58.1833 43.556 57.8713 43.556ZM63.3553 42.932L58.6033 51.5H57.6793L62.4313 42.932H63.3553ZM63.1153 46.244C63.5073 46.244 63.8353 46.352 64.0993 46.568C64.3633 46.776 64.5633 47.08 64.6993 47.48C64.8433 47.872 64.9153 48.352 64.9153 48.92C64.9153 49.768 64.7673 50.432 64.4713 50.912C64.1833 51.384 63.7313 51.62 63.1153 51.62C62.7393 51.62 62.4193 51.512 62.1553 51.296C61.8913 51.08 61.6913 50.772 61.5553 50.372C61.4273 49.964 61.3633 49.48 61.3633 48.92C61.3633 48.072 61.5033 47.416 61.7833 46.952C62.0633 46.48 62.5073 46.244 63.1153 46.244ZM63.1153 47C62.8113 47 62.5873 47.16 62.4433 47.48C62.3073 47.8 62.2393 48.28 62.2393 48.92C62.2393 49.568 62.3073 50.056 62.4433 50.384C62.5873 50.704 62.8113 50.864 63.1153 50.864C63.4273 50.864 63.6593 50.704 63.8113 50.384C63.9633 50.064 64.0393 49.576 64.0393 48.92C64.0393 48.28 63.9633 47.8 63.8113 47.48C63.6593 47.16 63.4273 47 63.1153 47Z" fill="#131313"/>
<mask id="path-6-inside-1_111_8683" fill="white">
<path d="M71 32H349V62H71V32Z"/>
</mask>
<path d="M71 32H349V62H71V32Z" fill="#FD9DAF"/>
<path d="M349 32H350V31H349V32ZM349 62V63H350V62H349ZM71 33H349V31H71V33ZM348 32V62H350V32H348ZM349 61H71V63H349V61Z" fill="#131313" mask="url(#path-6-inside-1_111_8683)"/>
<path d="M81.6852 51.5H79.9212V43.1H81.5532L85.1172 48.392V43.1H86.8932V51.5H85.2492L81.6852 46.208V51.5ZM91.2035 51.572C89.2355 51.572 87.9515 50.312 87.9515 48.416C87.9515 46.52 89.2355 45.26 91.2035 45.26C93.1715 45.26 94.4555 46.52 94.4555 48.416C94.4555 50.324 93.1715 51.572 91.2035 51.572ZM91.2035 50.192C92.1515 50.192 92.7395 49.46 92.7395 48.416C92.7395 47.372 92.1515 46.64 91.2035 46.64C90.2555 46.64 89.6795 47.372 89.6795 48.416C89.6795 49.46 90.2555 50.192 91.2035 50.192Z" fill="#131313"/>
<path d="M108.113 47.156C109.049 47.372 109.793 48.092 109.793 49.244C109.793 50.6 108.629 51.572 106.733 51.572C104.837 51.572 103.673 50.6 103.673 49.244C103.673 48.104 104.405 47.372 105.353 47.156C104.549 46.976 103.913 46.268 103.913 45.26C103.913 43.94 105.017 43.028 106.733 43.028C108.449 43.028 109.553 43.94 109.553 45.26C109.553 46.22 108.929 46.976 108.113 47.156ZM104.945 45.26C104.945 46.088 105.653 46.64 106.733 46.64C107.813 46.64 108.521 46.088 108.521 45.26C108.521 44.444 107.813 43.892 106.733 43.892C105.653 43.892 104.945 44.444 104.945 45.26ZM106.733 50.708C107.933 50.708 108.761 50.072 108.761 49.172C108.761 48.284 107.933 47.648 106.733 47.648C105.533 47.648 104.705 48.284 104.705 49.172C104.705 50.072 105.545 50.708 106.733 50.708ZM110.5 51.5V50.648L113.764 47.816C114.544 47.144 115.192 46.496 115.192 45.584C115.192 44.528 114.472 43.928 113.356 43.928C112.276 43.928 111.556 44.648 111.556 45.8V45.956H110.548V45.74C110.548 44.156 111.664 43.028 113.356 43.028C115.168 43.028 116.224 44.024 116.224 45.536C116.224 46.796 115.408 47.588 114.412 48.44L111.892 50.576H116.284V51.5H110.5ZM117.21 50.9C117.21 50.492 117.498 50.228 117.894 50.228C118.29 50.228 118.578 50.492 118.578 50.9C118.578 51.308 118.29 51.572 117.894 51.572C117.498 51.572 117.21 51.308 117.21 50.9ZM118.947 49.448V48.548L123.231 43.1H124.359V48.524H125.715V49.448H124.359V51.5H123.351V49.448H118.947ZM123.351 44.336L120.075 48.524H123.351V44.336ZM128.174 42.812C128.766 42.812 129.214 43.048 129.518 43.52C129.822 43.984 129.974 44.64 129.974 45.488C129.974 46.336 129.826 47 129.53 47.48C129.242 47.952 128.79 48.188 128.174 48.188C127.798 48.188 127.478 48.08 127.214 47.864C126.95 47.648 126.75 47.34 126.614 46.94C126.486 46.532 126.422 46.048 126.422 45.488C126.422 44.64 126.562 43.984 126.842 43.52C127.122 43.048 127.566 42.812 128.174 42.812ZM128.174 43.556C127.87 43.556 127.646 43.72 127.502 44.048C127.366 44.368 127.298 44.848 127.298 45.488C127.298 46.128 127.366 46.612 127.502 46.94C127.646 47.268 127.87 47.432 128.174 47.432C128.486 47.432 128.718 47.272 128.87 46.952C129.022 46.624 129.098 46.136 129.098 45.488C129.098 44.848 129.022 44.368 128.87 44.048C128.718 43.72 128.486 43.556 128.174 43.556ZM133.658 42.932L128.906 51.5H127.982L132.734 42.932H133.658ZM133.418 46.244C133.81 46.244 134.138 46.352 134.402 46.568C134.666 46.776 134.866 47.08 135.002 47.48C135.146 47.872 135.218 48.352 135.218 48.92C135.218 49.768 135.07 50.432 134.774 50.912C134.486 51.384 134.034 51.62 133.418 51.62C133.042 51.62 132.722 51.512 132.458 51.296C132.194 51.08 131.994 50.772 131.858 50.372C131.73 49.964 131.666 49.48 131.666 48.92C131.666 48.072 131.806 47.416 132.086 46.952C132.366 46.48 132.81 46.244 133.418 46.244ZM133.418 47C133.114 47 132.89 47.16 132.746 47.48C132.61 47.8 132.542 48.28 132.542 48.92C132.542 49.568 132.61 50.056 132.746 50.384C132.89 50.704 133.114 50.864 133.418 50.864C133.73 50.864 133.962 50.704 134.114 50.384C134.266 50.064 134.342 49.576 134.342 48.92C134.342 48.28 134.266 47.8 134.114 47.48C133.962 47.16 133.73 47 133.418 47Z" fill="#131313"/>
</svg>
