<svg width="349" height="62" viewBox="0 0 349 62" fill="none" xmlns="http://www.w3.org/2000/svg">
<path d="M10.928 13.936H12.032V16H10.88C9.92 16 9.52 15.728 9.136 15.248C8.288 15.792 7.232 16.096 6.064 16.096C2.768 16.096 0.512 13.664 0.512 10.4C0.512 7.136 2.768 4.704 6.064 4.704C9.36 4.704 11.616 7.136 11.616 10.4C11.616 11.728 11.248 12.928 10.576 13.872C10.672 13.904 10.784 13.936 10.928 13.936ZM2.96 10.4C2.96 12.512 4.176 14.064 6.064 14.064C6.72 14.064 7.296 13.872 7.776 13.536L7.616 13.344C7.376 13.024 7.168 12.848 6.816 12.848H5.776V10.816H6.992C7.936 10.816 8.256 11.152 8.64 11.632L8.896 11.952C9.072 11.488 9.152 10.96 9.152 10.4C9.152 8.288 7.936 6.736 6.064 6.736C4.176 6.736 2.96 8.288 2.96 10.4ZM18.4908 11.888V7.776H20.7468V16H18.7468L18.5388 15.008C18.0108 15.648 17.2908 16.096 16.1228 16.096C14.4268 16.096 12.8588 15.248 12.8588 12.336V7.776H15.1148V12.032C15.1148 13.504 15.5948 14.224 16.7148 14.224C17.8348 14.224 18.4908 13.408 18.4908 11.888ZM26.3793 16.096C23.6432 16.096 21.9953 14.448 21.9953 11.904C21.9953 9.344 23.6753 7.68 26.2193 7.68C28.6833 7.68 30.3472 9.216 30.3793 11.632C30.3793 11.872 30.3633 12.144 30.3153 12.4H24.3473V12.512C24.3953 13.68 25.1473 14.384 26.2833 14.384C27.1953 14.384 27.8353 13.984 28.0273 13.216H30.2513C29.9953 14.816 28.5713 16.096 26.3793 16.096ZM24.3953 10.928H28.1073C27.9473 9.92 27.2593 9.36 26.2352 9.36C25.2593 9.36 24.5233 9.952 24.3953 10.928ZM31.1656 13.264H33.3096C33.3896 13.984 34.0136 14.48 35.1176 14.48C36.0616 14.48 36.6376 14.176 36.6376 13.6C36.6376 12.928 36.0776 12.88 34.7496 12.704C32.8296 12.48 31.3416 12.048 31.3416 10.352C31.3416 8.72 32.7656 7.648 34.8776 7.664C37.0856 7.664 38.6056 8.64 38.7176 10.32H36.5576C36.4936 9.664 35.8696 9.264 34.9576 9.264C34.0776 9.264 33.5016 9.584 33.5016 10.112C33.5016 10.736 34.2056 10.8 35.3896 10.944C37.2776 11.136 38.8456 11.568 38.8456 13.424C38.8456 15.056 37.3096 16.096 35.1016 16.096C32.8136 16.096 31.2616 15.024 31.1656 13.264ZM40.626 13.648V9.68H39.266V7.776H40.626V5.472H42.882V7.776H44.77V9.68H42.882V13.28C42.882 13.856 43.106 14.096 43.698 14.096H44.818V16H42.978C41.41 16 40.626 15.216 40.626 13.648ZM46.9981 6.896C46.2621 6.896 45.6861 6.352 45.6861 5.632C45.6861 4.896 46.2621 4.352 46.9981 4.352C47.7341 4.352 48.3101 4.896 48.3101 5.632C48.3101 6.352 47.7341 6.896 46.9981 6.896ZM45.8621 16V7.776H48.1341V16H45.8621ZM53.7063 16.096C51.0823 16.096 49.3703 14.416 49.3703 11.888C49.3703 9.36 51.0823 7.68 53.7063 7.68C56.3303 7.68 58.0423 9.36 58.0423 11.888C58.0423 14.432 56.3303 16.096 53.7063 16.096ZM53.7063 14.256C54.9703 14.256 55.7543 13.28 55.7543 11.888C55.7543 10.496 54.9703 9.52 53.7063 9.52C52.4423 9.52 51.6743 10.496 51.6743 11.888C51.6743 13.28 52.4423 14.256 53.7063 14.256ZM64.004 7.68C65.78 7.68 67.3 8.624 67.3 11.44V16H65.044V11.664C65.044 10.272 64.516 9.536 63.38 9.536C62.212 9.536 61.54 10.368 61.54 11.792V16H59.284V7.776H61.252L61.46 8.8C61.988 8.16 62.74 7.68 64.004 7.68ZM74.5623 5.824V4.8H76.8183V16H74.5143V8.752C74.3383 8.8 74.1463 8.816 73.9062 8.816H72.0343V6.912H73.6983C74.3383 6.912 74.5623 6.48 74.5623 5.824ZM84.4853 10.176C85.6853 10.416 86.6613 11.2 86.6613 12.832C86.6613 14.768 84.9973 16.096 82.3573 16.096C79.7173 16.096 78.0373 14.752 78.0373 12.352H80.3253C80.3573 13.616 81.2533 14.288 82.4693 14.288C83.5093 14.288 84.3253 13.696 84.3253 12.688C84.3253 11.808 83.6693 11.248 82.3733 11.248H81.2693V9.408H82.2453C83.4773 9.408 84.1013 8.784 84.1013 7.904C84.1013 6.992 83.3333 6.512 82.3733 6.512C81.2853 6.512 80.5173 7.184 80.4853 8.224H78.2293C78.2613 6.128 79.9573 4.704 82.4053 4.704C84.9333 4.704 86.4373 5.888 86.4373 7.728C86.4373 9.088 85.5893 9.888 84.4853 10.176ZM87.5303 14.768C87.5303 13.984 88.1063 13.424 88.8903 13.424C89.6583 13.424 90.2503 13.984 90.2503 14.768C90.2503 15.536 89.6583 16.096 88.8903 16.096C88.1063 16.096 87.5303 15.536 87.5303 14.768ZM95.6394 8.368C97.8954 8.368 99.4154 9.92 99.4154 12.208C99.4154 14.784 97.4954 16.096 95.1754 16.096C92.5834 16.096 90.9834 14.448 90.8874 12.4H93.1754C93.2874 13.408 93.9914 14.208 95.1914 14.208C96.1674 14.208 97.0954 13.536 97.0954 12.208C97.0954 11.024 96.3434 10.192 95.1754 10.192C94.5514 10.192 93.6874 10.432 93.2874 11.36H91.0634L91.3834 4.8H98.7434V6.736H93.4794L93.3514 9.184C93.9114 8.672 94.6474 8.368 95.6394 8.368ZM104.624 11.616C104.624 10.7413 104.704 9.888 104.864 9.056C105.035 8.224 105.296 7.42933 105.648 6.672C106 5.91467 106.443 5.216 106.976 4.576H108.304C107.814 5.23733 107.398 5.952 107.056 6.72C106.726 7.488 106.475 8.28267 106.304 9.104C106.134 9.92533 106.048 10.7573 106.048 11.6C106.048 12.4213 106.134 13.2373 106.304 14.048C106.475 14.8587 106.726 15.6373 107.056 16.384C107.387 17.1413 107.798 17.856 108.288 18.528H106.976C106.443 17.8987 106 17.2107 105.648 16.464C105.296 15.728 105.035 14.9493 104.864 14.128C104.704 13.3067 104.624 12.4693 104.624 11.616ZM111.229 16H109.869V4.8H111.149L117.165 13.44V4.8H118.525V16H117.245L111.229 7.36V16ZM124.265 16.096C121.881 16.096 120.217 14.4 120.217 11.92C120.217 9.44 121.881 7.744 124.265 7.744C126.649 7.744 128.313 9.44 128.313 11.92C128.313 14.4 126.649 16.096 124.265 16.096ZM124.265 14.928C125.881 14.928 126.969 13.664 126.969 11.92C126.969 10.176 125.881 8.912 124.265 8.912C122.649 8.912 121.561 10.176 121.561 11.92C121.561 13.664 122.649 14.928 124.265 14.928ZM133.082 11.616C133.082 12.4693 132.997 13.3067 132.826 14.128C132.666 14.9493 132.41 15.728 132.058 16.464C131.717 17.2107 131.274 17.8987 130.73 18.528H129.418C129.909 17.856 130.319 17.1413 130.65 16.384C130.981 15.6373 131.231 14.8587 131.402 14.048C131.573 13.2373 131.658 12.4213 131.658 11.6C131.658 10.7573 131.573 9.92533 131.402 9.104C131.231 8.28267 130.981 7.488 130.65 6.72C130.319 5.952 129.903 5.23733 129.402 4.576H130.73C131.274 5.216 131.717 5.91467 132.058 6.672C132.41 7.42933 132.666 8.224 132.826 9.056C132.997 9.888 133.082 10.7413 133.082 11.616Z" fill="#131313"/>
<path d="M348.033 5.375L348.033 6.75L346.715 6.75L346.715 5.375L348.033 5.375Z" fill="#131313"/>
<path d="M334.85 5.375L334.85 6.75L333.532 6.75L333.532 5.375L334.85 5.375Z" fill="#131313"/>
<path d="M346.715 4L346.715 5.375L345.397 5.375L345.397 4L346.715 4Z" fill="#131313"/>
<path d="M336.169 4L336.169 5.375L334.85 5.375L334.85 4L336.169 4Z" fill="#131313"/>
<path d="M346.715 5.375L346.715 6.75L345.397 6.75L345.397 5.375L346.715 5.375Z" fill="#131313"/>
<path d="M336.169 5.375L336.169 6.75L334.85 6.75L334.85 5.375L336.169 5.375Z" fill="#131313"/>
<path d="M345.397 5.375L345.397 6.75L344.079 6.75L344.079 5.375L345.397 5.375Z" fill="#131313"/>
<path d="M337.487 5.375L337.487 6.75L336.169 6.75L336.169 5.375L337.487 5.375Z" fill="#131313"/>
<path d="M346.715 6.75L346.715 8.125L345.397 8.125L345.397 6.75L346.715 6.75Z" fill="#131313"/>
<path d="M336.169 6.75L336.169 8.125L334.85 8.125L334.85 6.75L336.169 6.75Z" fill="#131313"/>
<path d="M345.397 6.75L345.397 8.125L344.079 8.125L344.079 6.75L345.397 6.75Z" fill="#131313"/>
<path d="M337.487 6.75L337.487 8.125L336.169 8.125L336.169 6.75L337.487 6.75Z" fill="#131313"/>
<path d="M344.079 6.75L344.079 8.125L342.76 8.125L342.76 6.75L344.079 6.75Z" fill="#131313"/>
<path d="M346.715 8.125L346.715 9.5L345.397 9.5L345.397 8.125L346.715 8.125Z" fill="#131313"/>
<path d="M336.169 8.125L336.169 9.5L334.85 9.5L334.85 8.125L336.169 8.125Z" fill="#131313"/>
<path d="M345.397 8.125L345.397 9.5L344.079 9.5L344.079 8.125L345.397 8.125Z" fill="#131313"/>
<path d="M337.487 8.125L337.487 9.5L336.169 9.5L336.169 8.125L337.487 8.125Z" fill="#131313"/>
<path d="M344.079 8.125L344.079 9.5L342.76 9.5L342.76 8.125L344.079 8.125Z" fill="#131313"/>
<path d="M342.76 8.125L342.76 9.5L341.442 9.5L341.442 8.125L342.76 8.125Z" fill="#131313"/>
<path d="M340.124 8.125L340.124 9.5L338.805 9.5L338.805 8.125L340.124 8.125Z" fill="#131313"/>
<path d="M338.805 8.125L338.805 9.5L337.487 9.5L337.487 8.125L338.805 8.125Z" fill="#131313"/>
<path d="M338.805 6.75L338.805 8.125L337.487 8.125L337.487 6.75L338.805 6.75Z" fill="#131313"/>
<path d="M345.397 9.5L345.397 10.875L344.079 10.875L344.079 9.5L345.397 9.5Z" fill="#131313"/>
<path d="M337.487 9.5L337.487 10.875L336.169 10.875L336.169 9.5L337.487 9.5Z" fill="#131313"/>
<path d="M344.079 9.5L344.079 10.875L342.76 10.875L342.76 9.5L344.079 9.5Z" fill="#131313"/>
<path d="M342.76 9.5L342.76 10.875L341.442 10.875L341.442 9.5L342.76 9.5Z" fill="#131313"/>
<path d="M340.124 9.5L340.124 10.875L338.805 10.875L338.805 9.5L340.124 9.5Z" fill="#131313"/>
<path d="M338.805 9.5L338.805 10.875L337.487 10.875L337.487 9.5L338.805 9.5Z" fill="#131313"/>
<path d="M341.442 9.5L341.442 10.875L340.124 10.875L340.124 9.5L341.442 9.5Z" fill="#131313"/>
<path d="M344.079 10.875L344.079 12.25L342.76 12.25L342.76 10.875L344.079 10.875Z" fill="#131313"/>
<path d="M342.76 10.875L342.76 12.25L341.442 12.25L341.442 10.875L342.76 10.875Z" fill="#131313"/>
<path d="M340.124 10.875L340.124 12.25L338.805 12.25L338.805 10.875L340.124 10.875Z" fill="#131313"/>
<path d="M338.805 10.875L338.805 12.25L337.487 12.25L337.487 10.875L338.805 10.875Z" fill="#131313"/>
<path d="M341.442 10.875L341.442 12.25L340.124 12.25L340.124 10.875L341.442 10.875Z" fill="#131313"/>
<path d="M342.76 12.25L342.76 13.625L341.442 13.625L341.442 12.25L342.76 12.25Z" fill="#131313"/>
<path d="M341.442 13.625L341.442 15L340.124 15L340.124 13.625L341.442 13.625Z" fill="#131313"/>
<path d="M341.442 12.25L341.442 13.625L340.124 13.625L340.124 12.25L341.442 12.25Z" fill="#131313"/>
<path d="M340.124 12.25L340.124 13.625L338.805 13.625L338.805 12.25L340.124 12.25Z" fill="#131313"/>
<path d="M348.033 6.75L348.033 8.125L346.715 8.125L346.715 6.75L348.033 6.75Z" fill="#131313"/>
<path d="M334.85 6.75L334.85 8.125L333.532 8.125L333.532 6.75L334.85 6.75Z" fill="#131313"/>
<rect x="0.5" y="32.5" width="173" height="29" fill="#FD9DAF"/>
<rect x="0.5" y="32.5" width="173" height="29" stroke="#131313"/>
<path d="M11.5059 48.38L8.42188 43.1H10.5219L12.4059 46.544L14.3859 43.1H16.3899L13.3059 48.38V51.5H11.5059V48.38ZM18.9251 51.572C16.8731 51.572 15.6371 50.336 15.6371 48.428C15.6371 46.508 16.8971 45.26 18.8051 45.26C20.6531 45.26 21.9011 46.412 21.9251 48.224C21.9251 48.404 21.9131 48.608 21.8771 48.8H17.4011V48.884C17.4371 49.76 18.0011 50.288 18.8531 50.288C19.5371 50.288 20.0171 49.988 20.1611 49.412H21.8291C21.6371 50.612 20.5691 51.572 18.9251 51.572ZM17.4371 47.696H20.2211C20.1011 46.94 19.5851 46.52 18.8171 46.52C18.0851 46.52 17.5331 46.964 17.4371 47.696ZM22.5148 49.448H24.1228C24.1828 49.988 24.6508 50.36 25.4788 50.36C26.1868 50.36 26.6188 50.132 26.6188 49.7C26.6188 49.196 26.1988 49.16 25.2028 49.028C23.7628 48.86 22.6468 48.536 22.6468 47.264C22.6468 46.04 23.7148 45.236 25.2988 45.248C26.9548 45.248 28.0948 45.98 28.1788 47.24H26.5588C26.5108 46.748 26.0428 46.448 25.3588 46.448C24.6988 46.448 24.2668 46.688 24.2668 47.084C24.2668 47.552 24.7948 47.6 25.6828 47.708C27.0988 47.852 28.2748 48.176 28.2748 49.568C28.2748 50.792 27.1228 51.572 25.4668 51.572C23.7508 51.572 22.5868 50.768 22.5148 49.448Z" fill="#131313"/>
<path d="M40.8202 45.872C42.4642 45.872 43.6042 47.024 43.6042 48.692C43.6042 50.552 42.2362 51.56 40.6642 51.56C38.7922 51.56 37.7122 50.348 37.6282 48.884H38.6242C38.7202 49.856 39.4522 50.66 40.6642 50.66C41.6482 50.66 42.5722 50 42.5722 48.704C42.5722 47.564 41.8402 46.76 40.6762 46.76C40.1602 46.76 39.1282 46.904 38.7682 47.9L37.7962 47.876L38.0722 43.1H43.1002V44.024H38.9962L38.8042 46.676C39.3202 46.064 40.0402 45.872 40.8202 45.872ZM43.7832 44.024V43.1H49.7112V43.808L45.5832 51.5H44.4912L48.6072 44.024H43.7832ZM49.4309 50.9C49.4309 50.492 49.7189 50.228 50.1149 50.228C50.5109 50.228 50.7989 50.492 50.7989 50.9C50.7989 51.308 50.5109 51.572 50.1149 51.572C49.7189 51.572 49.4309 51.308 49.4309 50.9ZM55.8114 47.132C56.5794 47.276 57.3834 47.888 57.3834 49.172C57.3834 50.6 56.1834 51.572 54.3594 51.572C52.5354 51.572 51.3594 50.576 51.3594 48.908H52.3554C52.3674 50.012 53.2314 50.672 54.4194 50.672C55.5114 50.672 56.3514 50.06 56.3514 49.1C56.3514 48.224 55.6314 47.66 54.3234 47.66H53.6034V46.784H54.2634C55.5114 46.784 56.1354 46.16 56.1354 45.308C56.1354 44.456 55.3674 43.928 54.3594 43.928C53.3034 43.928 52.5354 44.564 52.5234 45.524H51.5274C51.5394 44.048 52.6914 43.028 54.3474 43.028C56.0754 43.028 57.1674 43.928 57.1674 45.248C57.1674 46.304 56.6154 46.916 55.8114 47.132ZM60.2072 42.812C60.7992 42.812 61.2472 43.048 61.5512 43.52C61.8552 43.984 62.0072 44.64 62.0072 45.488C62.0072 46.336 61.8592 47 61.5632 47.48C61.2752 47.952 60.8232 48.188 60.2072 48.188C59.8312 48.188 59.5112 48.08 59.2472 47.864C58.9832 47.648 58.7832 47.34 58.6472 46.94C58.5192 46.532 58.4552 46.048 58.4552 45.488C58.4552 44.64 58.5952 43.984 58.8752 43.52C59.1552 43.048 59.5992 42.812 60.2072 42.812ZM60.2072 43.556C59.9032 43.556 59.6792 43.72 59.5352 44.048C59.3992 44.368 59.3312 44.848 59.3312 45.488C59.3312 46.128 59.3992 46.612 59.5352 46.94C59.6792 47.268 59.9032 47.432 60.2072 47.432C60.5192 47.432 60.7512 47.272 60.9032 46.952C61.0552 46.624 61.1312 46.136 61.1312 45.488C61.1312 44.848 61.0552 44.368 60.9032 44.048C60.7512 43.72 60.5192 43.556 60.2072 43.556ZM65.6912 42.932L60.9392 51.5H60.0152L64.7672 42.932H65.6912ZM65.4512 46.244C65.8432 46.244 66.1712 46.352 66.4352 46.568C66.6992 46.776 66.8992 47.08 67.0352 47.48C67.1792 47.872 67.2512 48.352 67.2512 48.92C67.2512 49.768 67.1032 50.432 66.8072 50.912C66.5192 51.384 66.0672 51.62 65.4512 51.62C65.0752 51.62 64.7552 51.512 64.4912 51.296C64.2272 51.08 64.0272 50.772 63.8912 50.372C63.7632 49.964 63.6992 49.48 63.6992 48.92C63.6992 48.072 63.8392 47.416 64.1192 46.952C64.3992 46.48 64.8432 46.244 65.4512 46.244ZM65.4512 47C65.1472 47 64.9232 47.16 64.7792 47.48C64.6432 47.8 64.5752 48.28 64.5752 48.92C64.5752 49.568 64.6432 50.056 64.7792 50.384C64.9232 50.704 65.1472 50.864 65.4512 50.864C65.7632 50.864 65.9952 50.704 66.1472 50.384C66.2992 50.064 66.3752 49.576 66.3752 48.92C66.3752 48.28 66.2992 47.8 66.1472 47.48C65.9952 47.16 65.7632 47 65.4512 47Z" fill="#131313"/>
<mask id="path-6-inside-1_111_8690" fill="white">
<path d="M174 32H349V62H174V32Z"/>
</mask>
<path d="M174 32H349V62H174V32Z" fill="#FCD290"/>
<path d="M349 32H350V31H349V32ZM349 62V63H350V62H349ZM174 33H349V31H174V33ZM348 32V62H350V32H348ZM349 61H174V63H349V61Z" fill="#131313" mask="url(#path-6-inside-1_111_8690)"/>
<path d="M184.685 51.5H182.921V43.1H184.553L188.117 48.392V43.1H189.893V51.5H188.249L184.685 46.208V51.5ZM194.204 51.572C192.236 51.572 190.952 50.312 190.952 48.416C190.952 46.52 192.236 45.26 194.204 45.26C196.172 45.26 197.456 46.52 197.456 48.416C197.456 50.324 196.172 51.572 194.204 51.572ZM194.204 50.192C195.152 50.192 195.74 49.46 195.74 48.416C195.74 47.372 195.152 46.64 194.204 46.64C193.256 46.64 192.68 47.372 192.68 48.416C192.68 49.46 193.256 50.192 194.204 50.192Z" fill="#131313"/>
<path d="M206.172 49.448V48.548L210.456 43.1H211.584V48.524H212.94V49.448H211.584V51.5H210.576V49.448H206.172ZM210.576 44.336L207.3 48.524H210.576V44.336ZM213.323 51.5V50.648L216.587 47.816C217.367 47.144 218.015 46.496 218.015 45.584C218.015 44.528 217.295 43.928 216.179 43.928C215.099 43.928 214.379 44.648 214.379 45.8V45.956H213.371V45.74C213.371 44.156 214.487 43.028 216.179 43.028C217.991 43.028 219.047 44.024 219.047 45.536C219.047 46.796 218.231 47.588 217.235 48.44L214.715 50.576H219.107V51.5H213.323ZM220.032 50.9C220.032 50.492 220.32 50.228 220.716 50.228C221.112 50.228 221.4 50.492 221.4 50.9C221.4 51.308 221.112 51.572 220.716 51.572C220.32 51.572 220.032 51.308 220.032 50.9ZM221.955 44.024V43.1H227.883V43.808L223.755 51.5H222.663L226.779 44.024H221.955ZM230.352 42.812C230.944 42.812 231.392 43.048 231.696 43.52C232 43.984 232.152 44.64 232.152 45.488C232.152 46.336 232.004 47 231.708 47.48C231.42 47.952 230.968 48.188 230.352 48.188C229.976 48.188 229.656 48.08 229.392 47.864C229.128 47.648 228.928 47.34 228.792 46.94C228.664 46.532 228.6 46.048 228.6 45.488C228.6 44.64 228.74 43.984 229.02 43.52C229.3 43.048 229.744 42.812 230.352 42.812ZM230.352 43.556C230.048 43.556 229.824 43.72 229.68 44.048C229.544 44.368 229.476 44.848 229.476 45.488C229.476 46.128 229.544 46.612 229.68 46.94C229.824 47.268 230.048 47.432 230.352 47.432C230.664 47.432 230.896 47.272 231.048 46.952C231.2 46.624 231.276 46.136 231.276 45.488C231.276 44.848 231.2 44.368 231.048 44.048C230.896 43.72 230.664 43.556 230.352 43.556ZM235.836 42.932L231.084 51.5H230.16L234.912 42.932H235.836ZM235.596 46.244C235.988 46.244 236.316 46.352 236.58 46.568C236.844 46.776 237.044 47.08 237.18 47.48C237.324 47.872 237.396 48.352 237.396 48.92C237.396 49.768 237.248 50.432 236.952 50.912C236.664 51.384 236.212 51.62 235.596 51.62C235.22 51.62 234.9 51.512 234.636 51.296C234.372 51.08 234.172 50.772 234.036 50.372C233.908 49.964 233.844 49.48 233.844 48.92C233.844 48.072 233.984 47.416 234.264 46.952C234.544 46.48 234.988 46.244 235.596 46.244ZM235.596 47C235.292 47 235.068 47.16 234.924 47.48C234.788 47.8 234.72 48.28 234.72 48.92C234.72 49.568 234.788 50.056 234.924 50.384C235.068 50.704 235.292 50.864 235.596 50.864C235.908 50.864 236.14 50.704 236.292 50.384C236.444 50.064 236.52 49.576 236.52 48.92C236.52 48.28 236.444 47.8 236.292 47.48C236.14 47.16 235.908 47 235.596 47Z" fill="#131313"/>
</svg>
