<svg width="349" height="62" viewBox="0 0 349 62" fill="none" xmlns="http://www.w3.org/2000/svg">
<path d="M10.928 13.936H12.032V16H10.88C9.92 16 9.52 15.728 9.136 15.248C8.288 15.792 7.232 16.096 6.064 16.096C2.768 16.096 0.512 13.664 0.512 10.4C0.512 7.136 2.768 4.704 6.064 4.704C9.36 4.704 11.616 7.136 11.616 10.4C11.616 11.728 11.248 12.928 10.576 13.872C10.672 13.904 10.784 13.936 10.928 13.936ZM2.96 10.4C2.96 12.512 4.176 14.064 6.064 14.064C6.72 14.064 7.296 13.872 7.776 13.536L7.616 13.344C7.376 13.024 7.168 12.848 6.816 12.848H5.776V10.816H6.992C7.936 10.816 8.256 11.152 8.64 11.632L8.896 11.952C9.072 11.488 9.152 10.96 9.152 10.4C9.152 8.288 7.936 6.736 6.064 6.736C4.176 6.736 2.96 8.288 2.96 10.4ZM18.4908 11.888V7.776H20.7468V16H18.7468L18.5388 15.008C18.0108 15.648 17.2908 16.096 16.1228 16.096C14.4268 16.096 12.8588 15.248 12.8588 12.336V7.776H15.1148V12.032C15.1148 13.504 15.5948 14.224 16.7148 14.224C17.8348 14.224 18.4908 13.408 18.4908 11.888ZM26.3793 16.096C23.6432 16.096 21.9953 14.448 21.9953 11.904C21.9953 9.344 23.6753 7.68 26.2193 7.68C28.6833 7.68 30.3472 9.216 30.3793 11.632C30.3793 11.872 30.3633 12.144 30.3153 12.4H24.3473V12.512C24.3953 13.68 25.1473 14.384 26.2833 14.384C27.1953 14.384 27.8353 13.984 28.0273 13.216H30.2513C29.9953 14.816 28.5713 16.096 26.3793 16.096ZM24.3953 10.928H28.1073C27.9473 9.92 27.2593 9.36 26.2352 9.36C25.2593 9.36 24.5233 9.952 24.3953 10.928ZM31.1656 13.264H33.3096C33.3896 13.984 34.0136 14.48 35.1176 14.48C36.0616 14.48 36.6376 14.176 36.6376 13.6C36.6376 12.928 36.0776 12.88 34.7496 12.704C32.8296 12.48 31.3416 12.048 31.3416 10.352C31.3416 8.72 32.7656 7.648 34.8776 7.664C37.0856 7.664 38.6056 8.64 38.7176 10.32H36.5576C36.4936 9.664 35.8696 9.264 34.9576 9.264C34.0776 9.264 33.5016 9.584 33.5016 10.112C33.5016 10.736 34.2056 10.8 35.3896 10.944C37.2776 11.136 38.8456 11.568 38.8456 13.424C38.8456 15.056 37.3096 16.096 35.1016 16.096C32.8136 16.096 31.2616 15.024 31.1656 13.264ZM40.626 13.648V9.68H39.266V7.776H40.626V5.472H42.882V7.776H44.77V9.68H42.882V13.28C42.882 13.856 43.106 14.096 43.698 14.096H44.818V16H42.978C41.41 16 40.626 15.216 40.626 13.648ZM46.9981 6.896C46.2621 6.896 45.6861 6.352 45.6861 5.632C45.6861 4.896 46.2621 4.352 46.9981 4.352C47.7341 4.352 48.3101 4.896 48.3101 5.632C48.3101 6.352 47.7341 6.896 46.9981 6.896ZM45.8621 16V7.776H48.1341V16H45.8621ZM53.7063 16.096C51.0823 16.096 49.3703 14.416 49.3703 11.888C49.3703 9.36 51.0823 7.68 53.7063 7.68C56.3303 7.68 58.0423 9.36 58.0423 11.888C58.0423 14.432 56.3303 16.096 53.7063 16.096ZM53.7063 14.256C54.9703 14.256 55.7543 13.28 55.7543 11.888C55.7543 10.496 54.9703 9.52 53.7063 9.52C52.4423 9.52 51.6743 10.496 51.6743 11.888C51.6743 13.28 52.4423 14.256 53.7063 14.256ZM64.004 7.68C65.78 7.68 67.3 8.624 67.3 11.44V16H65.044V11.664C65.044 10.272 64.516 9.536 63.38 9.536C62.212 9.536 61.54 10.368 61.54 11.792V16H59.284V7.776H61.252L61.46 8.8C61.988 8.16 62.74 7.68 64.004 7.68ZM74.5623 5.824V4.8H76.8183V16H74.5143V8.752C74.3383 8.8 74.1463 8.816 73.9062 8.816H72.0343V6.912H73.6983C74.3383 6.912 74.5623 6.48 74.5623 5.824ZM84.4853 10.176C85.6853 10.416 86.6613 11.2 86.6613 12.832C86.6613 14.768 84.9973 16.096 82.3573 16.096C79.7173 16.096 78.0373 14.752 78.0373 12.352H80.3253C80.3573 13.616 81.2533 14.288 82.4693 14.288C83.5093 14.288 84.3253 13.696 84.3253 12.688C84.3253 11.808 83.6693 11.248 82.3733 11.248H81.2693V9.408H82.2453C83.4773 9.408 84.1013 8.784 84.1013 7.904C84.1013 6.992 83.3333 6.512 82.3733 6.512C81.2853 6.512 80.5173 7.184 80.4853 8.224H78.2293C78.2613 6.128 79.9573 4.704 82.4053 4.704C84.9333 4.704 86.4373 5.888 86.4373 7.728C86.4373 9.088 85.5893 9.888 84.4853 10.176ZM87.5303 14.768C87.5303 13.984 88.1063 13.424 88.8903 13.424C89.6583 13.424 90.2503 13.984 90.2503 14.768C90.2503 15.536 89.6583 16.096 88.8903 16.096C88.1063 16.096 87.5303 15.536 87.5303 14.768ZM95.6394 8.368C97.8954 8.368 99.4154 9.92 99.4154 12.208C99.4154 14.784 97.4954 16.096 95.1754 16.096C92.5834 16.096 90.9834 14.448 90.8874 12.4H93.1754C93.2874 13.408 93.9914 14.208 95.1914 14.208C96.1674 14.208 97.0954 13.536 97.0954 12.208C97.0954 11.024 96.3434 10.192 95.1754 10.192C94.5514 10.192 93.6874 10.432 93.2874 11.36H91.0634L91.3834 4.8H98.7434V6.736H93.4794L93.3514 9.184C93.9114 8.672 94.6474 8.368 95.6394 8.368ZM104.624 11.616C104.624 10.7413 104.704 9.888 104.864 9.056C105.035 8.224 105.296 7.42933 105.648 6.672C106 5.91467 106.443 5.216 106.976 4.576H108.304C107.814 5.23733 107.398 5.952 107.056 6.72C106.726 7.488 106.475 8.28267 106.304 9.104C106.134 9.92533 106.048 10.7573 106.048 11.6C106.048 12.4213 106.134 13.2373 106.304 14.048C106.475 14.8587 106.726 15.6373 107.056 16.384C107.387 17.1413 107.798 17.856 108.288 18.528H106.976C106.443 17.8987 106 17.2107 105.648 16.464C105.296 15.728 105.035 14.9493 104.864 14.128C104.704 13.3067 104.624 12.4693 104.624 11.616ZM113.149 11.856L108.925 4.8H110.557L113.853 10.352L117.197 4.8H118.765L114.541 11.856V16H113.149V11.856ZM122.172 16.096C119.724 16.096 118.124 14.416 118.124 11.92C118.124 9.44 119.692 7.744 121.996 7.744C124.3 7.744 125.804 9.2 125.868 11.616C125.868 11.792 125.852 11.984 125.836 12.176H119.5V12.288C119.548 13.84 120.524 14.928 122.076 14.928C123.228 14.928 124.124 14.32 124.396 13.264H125.724C125.404 14.896 124.06 16.096 122.172 16.096ZM119.58 11.088H124.46C124.332 9.68 123.372 8.896 122.012 8.896C120.812 8.896 119.708 9.76 119.58 11.088ZM126.998 13.312H128.342C128.39 14.272 129.238 14.976 130.598 14.976C131.75 14.976 132.566 14.48 132.566 13.728C132.566 12.704 131.67 12.624 130.454 12.48C128.63 12.256 127.174 11.888 127.174 10.192C127.174 8.704 128.534 7.728 130.374 7.744C132.23 7.76 133.574 8.624 133.702 10.32H132.358C132.262 9.488 131.494 8.864 130.374 8.864C129.238 8.864 128.47 9.344 128.47 10.096C128.47 10.992 129.334 11.104 130.518 11.248C132.374 11.472 133.862 11.824 133.862 13.632C133.862 15.152 132.406 16.096 130.598 16.096C128.486 16.096 127.03 15.104 126.998 13.312ZM138.582 11.616C138.582 12.4693 138.497 13.3067 138.326 14.128C138.166 14.9493 137.91 15.728 137.558 16.464C137.217 17.2107 136.774 17.8987 136.23 18.528H134.918C135.409 17.856 135.819 17.1413 136.15 16.384C136.481 15.6373 136.731 14.8587 136.902 14.048C137.073 13.2373 137.158 12.4213 137.158 11.6C137.158 10.7573 137.073 9.92533 136.902 9.104C136.731 8.28267 136.481 7.488 136.15 6.72C135.819 5.952 135.403 5.23733 134.902 4.576H136.23C136.774 5.216 137.217 5.91467 137.558 6.672C137.91 7.42933 138.166 8.224 138.326 9.056C138.497 9.888 138.582 10.7413 138.582 11.616Z" fill="#131313"/>
<path d="M348.033 5.375L348.033 6.75L346.715 6.75L346.715 5.375L348.033 5.375Z" fill="#131313"/>
<path d="M334.85 5.375L334.85 6.75L333.532 6.75L333.532 5.375L334.85 5.375Z" fill="#131313"/>
<path d="M346.715 4L346.715 5.375L345.397 5.375L345.397 4L346.715 4Z" fill="#131313"/>
<path d="M336.169 4L336.169 5.375L334.85 5.375L334.85 4L336.169 4Z" fill="#131313"/>
<path d="M346.715 5.375L346.715 6.75L345.397 6.75L345.397 5.375L346.715 5.375Z" fill="#131313"/>
<path d="M336.169 5.375L336.169 6.75L334.85 6.75L334.85 5.375L336.169 5.375Z" fill="#131313"/>
<path d="M345.397 5.375L345.397 6.75L344.079 6.75L344.079 5.375L345.397 5.375Z" fill="#131313"/>
<path d="M337.487 5.375L337.487 6.75L336.169 6.75L336.169 5.375L337.487 5.375Z" fill="#131313"/>
<path d="M346.715 6.75L346.715 8.125L345.397 8.125L345.397 6.75L346.715 6.75Z" fill="#131313"/>
<path d="M336.169 6.75L336.169 8.125L334.85 8.125L334.85 6.75L336.169 6.75Z" fill="#131313"/>
<path d="M345.397 6.75L345.397 8.125L344.079 8.125L344.079 6.75L345.397 6.75Z" fill="#131313"/>
<path d="M337.487 6.75L337.487 8.125L336.169 8.125L336.169 6.75L337.487 6.75Z" fill="#131313"/>
<path d="M344.079 6.75L344.079 8.125L342.76 8.125L342.76 6.75L344.079 6.75Z" fill="#131313"/>
<path d="M346.715 8.125L346.715 9.5L345.397 9.5L345.397 8.125L346.715 8.125Z" fill="#131313"/>
<path d="M336.169 8.125L336.169 9.5L334.85 9.5L334.85 8.125L336.169 8.125Z" fill="#131313"/>
<path d="M345.397 8.125L345.397 9.5L344.079 9.5L344.079 8.125L345.397 8.125Z" fill="#131313"/>
<path d="M337.487 8.125L337.487 9.5L336.169 9.5L336.169 8.125L337.487 8.125Z" fill="#131313"/>
<path d="M344.079 8.125L344.079 9.5L342.76 9.5L342.76 8.125L344.079 8.125Z" fill="#131313"/>
<path d="M342.76 8.125L342.76 9.5L341.442 9.5L341.442 8.125L342.76 8.125Z" fill="#131313"/>
<path d="M340.124 8.125L340.124 9.5L338.805 9.5L338.805 8.125L340.124 8.125Z" fill="#131313"/>
<path d="M338.805 8.125L338.805 9.5L337.487 9.5L337.487 8.125L338.805 8.125Z" fill="#131313"/>
<path d="M338.805 6.75L338.805 8.125L337.487 8.125L337.487 6.75L338.805 6.75Z" fill="#131313"/>
<path d="M345.397 9.5L345.397 10.875L344.079 10.875L344.079 9.5L345.397 9.5Z" fill="#131313"/>
<path d="M337.487 9.5L337.487 10.875L336.169 10.875L336.169 9.5L337.487 9.5Z" fill="#131313"/>
<path d="M344.079 9.5L344.079 10.875L342.76 10.875L342.76 9.5L344.079 9.5Z" fill="#131313"/>
<path d="M342.76 9.5L342.76 10.875L341.442 10.875L341.442 9.5L342.76 9.5Z" fill="#131313"/>
<path d="M340.124 9.5L340.124 10.875L338.805 10.875L338.805 9.5L340.124 9.5Z" fill="#131313"/>
<path d="M338.805 9.5L338.805 10.875L337.487 10.875L337.487 9.5L338.805 9.5Z" fill="#131313"/>
<path d="M341.442 9.5L341.442 10.875L340.124 10.875L340.124 9.5L341.442 9.5Z" fill="#131313"/>
<path d="M344.079 10.875L344.079 12.25L342.76 12.25L342.76 10.875L344.079 10.875Z" fill="#131313"/>
<path d="M342.76 10.875L342.76 12.25L341.442 12.25L341.442 10.875L342.76 10.875Z" fill="#131313"/>
<path d="M340.124 10.875L340.124 12.25L338.805 12.25L338.805 10.875L340.124 10.875Z" fill="#131313"/>
<path d="M338.805 10.875L338.805 12.25L337.487 12.25L337.487 10.875L338.805 10.875Z" fill="#131313"/>
<path d="M341.442 10.875L341.442 12.25L340.124 12.25L340.124 10.875L341.442 10.875Z" fill="#131313"/>
<path d="M342.76 12.25L342.76 13.625L341.442 13.625L341.442 12.25L342.76 12.25Z" fill="#131313"/>
<path d="M341.442 13.625L341.442 15L340.124 15L340.124 13.625L341.442 13.625Z" fill="#131313"/>
<path d="M341.442 12.25L341.442 13.625L340.124 13.625L340.124 12.25L341.442 12.25Z" fill="#131313"/>
<path d="M340.124 12.25L340.124 13.625L338.805 13.625L338.805 12.25L340.124 12.25Z" fill="#131313"/>
<path d="M348.033 6.75L348.033 8.125L346.715 8.125L346.715 6.75L348.033 6.75Z" fill="#131313"/>
<path d="M334.85 6.75L334.85 8.125L333.532 8.125L333.532 6.75L334.85 6.75Z" fill="#131313"/>
<rect x="0.5" y="32.5" width="277" height="29" fill="#89CDFF"/>
<rect x="0.5" y="32.5" width="277" height="29" stroke="#131313"/>
<path d="M11.5059 48.38L8.42188 43.1H10.5219L12.4059 46.544L14.3859 43.1H16.3899L13.3059 48.38V51.5H11.5059V48.38ZM18.9251 51.572C16.8731 51.572 15.6371 50.336 15.6371 48.428C15.6371 46.508 16.8971 45.26 18.8051 45.26C20.6531 45.26 21.9011 46.412 21.9251 48.224C21.9251 48.404 21.9131 48.608 21.8771 48.8H17.4011V48.884C17.4371 49.76 18.0011 50.288 18.8531 50.288C19.5371 50.288 20.0171 49.988 20.1611 49.412H21.8291C21.6371 50.612 20.5691 51.572 18.9251 51.572ZM17.4371 47.696H20.2211C20.1011 46.94 19.5851 46.52 18.8171 46.52C18.0851 46.52 17.5331 46.964 17.4371 47.696ZM22.5148 49.448H24.1228C24.1828 49.988 24.6508 50.36 25.4788 50.36C26.1868 50.36 26.6188 50.132 26.6188 49.7C26.6188 49.196 26.1988 49.16 25.2028 49.028C23.7628 48.86 22.6468 48.536 22.6468 47.264C22.6468 46.04 23.7148 45.236 25.2988 45.248C26.9548 45.248 28.0948 45.98 28.1788 47.24H26.5588C26.5108 46.748 26.0428 46.448 25.3588 46.448C24.6988 46.448 24.2668 46.688 24.2668 47.084C24.2668 47.552 24.7948 47.6 25.6828 47.708C27.0988 47.852 28.2748 48.176 28.2748 49.568C28.2748 50.792 27.1228 51.572 25.4668 51.572C23.7508 51.572 22.5868 50.768 22.5148 49.448Z" fill="#131313"/>
<path d="M41.9669 47.156C42.9029 47.372 43.6469 48.092 43.6469 49.244C43.6469 50.6 42.4829 51.572 40.5869 51.572C38.6909 51.572 37.5269 50.6 37.5269 49.244C37.5269 48.104 38.2589 47.372 39.2069 47.156C38.4029 46.976 37.7669 46.268 37.7669 45.26C37.7669 43.94 38.8709 43.028 40.5869 43.028C42.3029 43.028 43.4069 43.94 43.4069 45.26C43.4069 46.22 42.7829 46.976 41.9669 47.156ZM38.7989 45.26C38.7989 46.088 39.5069 46.64 40.5869 46.64C41.6669 46.64 42.3749 46.088 42.3749 45.26C42.3749 44.444 41.6669 43.892 40.5869 43.892C39.5069 43.892 38.7989 44.444 38.7989 45.26ZM40.5869 50.708C41.7869 50.708 42.6149 50.072 42.6149 49.172C42.6149 48.284 41.7869 47.648 40.5869 47.648C39.3869 47.648 38.5589 48.284 38.5589 49.172C38.5589 50.072 39.3989 50.708 40.5869 50.708ZM49.045 47.156C49.981 47.372 50.725 48.092 50.725 49.244C50.725 50.6 49.561 51.572 47.665 51.572C45.769 51.572 44.605 50.6 44.605 49.244C44.605 48.104 45.337 47.372 46.285 47.156C45.481 46.976 44.845 46.268 44.845 45.26C44.845 43.94 45.949 43.028 47.665 43.028C49.381 43.028 50.485 43.94 50.485 45.26C50.485 46.22 49.861 46.976 49.045 47.156ZM45.877 45.26C45.877 46.088 46.585 46.64 47.665 46.64C48.745 46.64 49.453 46.088 49.453 45.26C49.453 44.444 48.745 43.892 47.665 43.892C46.585 43.892 45.877 44.444 45.877 45.26ZM47.665 50.708C48.865 50.708 49.693 50.072 49.693 49.172C49.693 48.284 48.865 47.648 47.665 47.648C46.465 47.648 45.637 48.284 45.637 49.172C45.637 50.072 46.477 50.708 47.665 50.708ZM51.4973 50.9C51.4973 50.492 51.7853 50.228 52.1813 50.228C52.5773 50.228 52.8653 50.492 52.8653 50.9C52.8653 51.308 52.5773 51.572 52.1813 51.572C51.7853 51.572 51.4973 51.308 51.4973 50.9ZM54.0549 50.18C53.6349 49.448 53.3949 48.44 53.3949 47.336C53.3949 44.696 54.5829 43.028 56.5869 43.028C58.1109 43.028 59.1549 43.94 59.3589 45.344H58.3509C58.1589 44.492 57.5589 43.916 56.5389 43.916C55.0749 43.916 54.2709 45.248 54.2709 47.144C54.2709 47.264 54.2709 47.348 54.2829 47.552C54.2949 47.504 54.3069 47.432 54.3549 47.324C54.7269 46.496 55.5669 45.944 56.6949 45.944C58.3509 45.944 59.5149 47.036 59.5149 48.752C59.5149 50.372 58.3269 51.572 56.5989 51.572C55.4349 51.572 54.5829 51.044 54.0549 50.18ZM58.5069 48.752C58.5069 47.636 57.7869 46.832 56.6229 46.832C55.4589 46.832 54.6669 47.624 54.6669 48.776C54.6669 49.904 55.4349 50.684 56.5869 50.684C57.7509 50.684 58.5069 49.88 58.5069 48.752ZM62.3205 42.812C62.9125 42.812 63.3605 43.048 63.6645 43.52C63.9685 43.984 64.1205 44.64 64.1205 45.488C64.1205 46.336 63.9725 47 63.6765 47.48C63.3885 47.952 62.9365 48.188 62.3205 48.188C61.9445 48.188 61.6245 48.08 61.3605 47.864C61.0965 47.648 60.8965 47.34 60.7605 46.94C60.6325 46.532 60.5685 46.048 60.5685 45.488C60.5685 44.64 60.7085 43.984 60.9885 43.52C61.2685 43.048 61.7125 42.812 62.3205 42.812ZM62.3205 43.556C62.0165 43.556 61.7925 43.72 61.6485 44.048C61.5125 44.368 61.4445 44.848 61.4445 45.488C61.4445 46.128 61.5125 46.612 61.6485 46.94C61.7925 47.268 62.0165 47.432 62.3205 47.432C62.6325 47.432 62.8645 47.272 63.0165 46.952C63.1685 46.624 63.2445 46.136 63.2445 45.488C63.2445 44.848 63.1685 44.368 63.0165 44.048C62.8645 43.72 62.6325 43.556 62.3205 43.556ZM67.8045 42.932L63.0525 51.5H62.1285L66.8805 42.932H67.8045ZM67.5645 46.244C67.9565 46.244 68.2845 46.352 68.5485 46.568C68.8125 46.776 69.0125 47.08 69.1485 47.48C69.2925 47.872 69.3645 48.352 69.3645 48.92C69.3645 49.768 69.2165 50.432 68.9205 50.912C68.6325 51.384 68.1805 51.62 67.5645 51.62C67.1885 51.62 66.8685 51.512 66.6045 51.296C66.3405 51.08 66.1405 50.772 66.0045 50.372C65.8765 49.964 65.8125 49.48 65.8125 48.92C65.8125 48.072 65.9525 47.416 66.2325 46.952C66.5125 46.48 66.9565 46.244 67.5645 46.244ZM67.5645 47C67.2605 47 67.0365 47.16 66.8925 47.48C66.7565 47.8 66.6885 48.28 66.6885 48.92C66.6885 49.568 66.7565 50.056 66.8925 50.384C67.0365 50.704 67.2605 50.864 67.5645 50.864C67.8765 50.864 68.1085 50.704 68.2605 50.384C68.4125 50.064 68.4885 49.576 68.4885 48.92C68.4885 48.28 68.4125 47.8 68.2605 47.48C68.1085 47.16 67.8765 47 67.5645 47Z" fill="#131313"/>
<mask id="path-6-inside-1_111_8689" fill="white">
<path d="M278 32H349V62H278V32Z"/>
</mask>
<path d="M278 32H349V62H278V32Z" fill="#FD9DAF"/>
<path d="M349 32H350V31H349V32ZM349 62V63H350V62H349ZM278 33H349V31H278V33ZM348 32V62H350V32H348ZM349 61H278V63H349V61Z" fill="#131313" mask="url(#path-6-inside-1_111_8689)"/>
<path d="M288.685 51.5H286.921V43.1H288.553L292.117 48.392V43.1H293.893V51.5H292.249L288.685 46.208V51.5ZM298.204 51.572C296.236 51.572 294.952 50.312 294.952 48.416C294.952 46.52 296.236 45.26 298.204 45.26C300.172 45.26 301.456 46.52 301.456 48.416C301.456 50.324 300.172 51.572 298.204 51.572ZM298.204 50.192C299.152 50.192 299.74 49.46 299.74 48.416C299.74 47.372 299.152 46.64 298.204 46.64C297.256 46.64 296.68 47.372 296.68 48.416C296.68 49.46 297.256 50.192 298.204 50.192Z" fill="#131313"/>
<path d="M312.109 44.012V43.1H313.093V51.5H312.085V45.476C311.965 45.584 311.773 45.632 311.509 45.632H310.153V44.732H311.521C311.917 44.732 312.109 44.432 312.109 44.012ZM315.93 44.012V43.1H316.914V51.5H315.906V45.476C315.786 45.584 315.594 45.632 315.33 45.632H313.974V44.732H315.342C315.738 44.732 315.93 44.432 315.93 44.012ZM318.298 50.9C318.298 50.492 318.586 50.228 318.982 50.228C319.378 50.228 319.666 50.492 319.666 50.9C319.666 51.308 319.378 51.572 318.982 51.572C318.586 51.572 318.298 51.308 318.298 50.9ZM320.035 49.448V48.548L324.319 43.1H325.447V48.524H326.803V49.448H325.447V51.5H324.439V49.448H320.035ZM324.439 44.336L321.163 48.524H324.439V44.336ZM329.262 42.812C329.854 42.812 330.302 43.048 330.606 43.52C330.91 43.984 331.062 44.64 331.062 45.488C331.062 46.336 330.914 47 330.618 47.48C330.33 47.952 329.878 48.188 329.262 48.188C328.886 48.188 328.566 48.08 328.302 47.864C328.038 47.648 327.838 47.34 327.702 46.94C327.574 46.532 327.51 46.048 327.51 45.488C327.51 44.64 327.65 43.984 327.93 43.52C328.21 43.048 328.654 42.812 329.262 42.812ZM329.262 43.556C328.958 43.556 328.734 43.72 328.59 44.048C328.454 44.368 328.386 44.848 328.386 45.488C328.386 46.128 328.454 46.612 328.59 46.94C328.734 47.268 328.958 47.432 329.262 47.432C329.574 47.432 329.806 47.272 329.958 46.952C330.11 46.624 330.186 46.136 330.186 45.488C330.186 44.848 330.11 44.368 329.958 44.048C329.806 43.72 329.574 43.556 329.262 43.556ZM334.746 42.932L329.994 51.5H329.07L333.822 42.932H334.746ZM334.506 46.244C334.898 46.244 335.226 46.352 335.49 46.568C335.754 46.776 335.954 47.08 336.09 47.48C336.234 47.872 336.306 48.352 336.306 48.92C336.306 49.768 336.158 50.432 335.862 50.912C335.574 51.384 335.122 51.62 334.506 51.62C334.13 51.62 333.81 51.512 333.546 51.296C333.282 51.08 333.082 50.772 332.946 50.372C332.818 49.964 332.754 49.48 332.754 48.92C332.754 48.072 332.894 47.416 333.174 46.952C333.454 46.48 333.898 46.244 334.506 46.244ZM334.506 47C334.202 47 333.978 47.16 333.834 47.48C333.698 47.8 333.63 48.28 333.63 48.92C333.63 49.568 333.698 50.056 333.834 50.384C333.978 50.704 334.202 50.864 334.506 50.864C334.818 50.864 335.05 50.704 335.202 50.384C335.354 50.064 335.43 49.576 335.43 48.92C335.43 48.28 335.354 47.8 335.202 47.48C335.05 47.16 334.818 47 334.506 47Z" fill="#131313"/>
</svg>
