<svg width="349" height="62" viewBox="0 0 349 62" fill="none" xmlns="http://www.w3.org/2000/svg">
<path d="M10.928 13.936H12.032V16H10.88C9.92 16 9.52 15.728 9.136 15.248C8.288 15.792 7.232 16.096 6.064 16.096C2.768 16.096 0.512 13.664 0.512 10.4C0.512 7.136 2.768 4.704 6.064 4.704C9.36 4.704 11.616 7.136 11.616 10.4C11.616 11.728 11.248 12.928 10.576 13.872C10.672 13.904 10.784 13.936 10.928 13.936ZM2.96 10.4C2.96 12.512 4.176 14.064 6.064 14.064C6.72 14.064 7.296 13.872 7.776 13.536L7.616 13.344C7.376 13.024 7.168 12.848 6.816 12.848H5.776V10.816H6.992C7.936 10.816 8.256 11.152 8.64 11.632L8.896 11.952C9.072 11.488 9.152 10.96 9.152 10.4C9.152 8.288 7.936 6.736 6.064 6.736C4.176 6.736 2.96 8.288 2.96 10.4ZM18.4908 11.888V7.776H20.7468V16H18.7468L18.5388 15.008C18.0108 15.648 17.2908 16.096 16.1228 16.096C14.4268 16.096 12.8588 15.248 12.8588 12.336V7.776H15.1148V12.032C15.1148 13.504 15.5948 14.224 16.7148 14.224C17.8348 14.224 18.4908 13.408 18.4908 11.888ZM26.3793 16.096C23.6432 16.096 21.9953 14.448 21.9953 11.904C21.9953 9.344 23.6753 7.68 26.2193 7.68C28.6833 7.68 30.3472 9.216 30.3793 11.632C30.3793 11.872 30.3633 12.144 30.3153 12.4H24.3473V12.512C24.3953 13.68 25.1473 14.384 26.2833 14.384C27.1953 14.384 27.8353 13.984 28.0273 13.216H30.2513C29.9953 14.816 28.5713 16.096 26.3793 16.096ZM24.3953 10.928H28.1073C27.9473 9.92 27.2593 9.36 26.2352 9.36C25.2593 9.36 24.5233 9.952 24.3953 10.928ZM31.1656 13.264H33.3096C33.3896 13.984 34.0136 14.48 35.1176 14.48C36.0616 14.48 36.6376 14.176 36.6376 13.6C36.6376 12.928 36.0776 12.88 34.7496 12.704C32.8296 12.48 31.3416 12.048 31.3416 10.352C31.3416 8.72 32.7656 7.648 34.8776 7.664C37.0856 7.664 38.6056 8.64 38.7176 10.32H36.5576C36.4936 9.664 35.8696 9.264 34.9576 9.264C34.0776 9.264 33.5016 9.584 33.5016 10.112C33.5016 10.736 34.2056 10.8 35.3896 10.944C37.2776 11.136 38.8456 11.568 38.8456 13.424C38.8456 15.056 37.3096 16.096 35.1016 16.096C32.8136 16.096 31.2616 15.024 31.1656 13.264ZM40.626 13.648V9.68H39.266V7.776H40.626V5.472H42.882V7.776H44.77V9.68H42.882V13.28C42.882 13.856 43.106 14.096 43.698 14.096H44.818V16H42.978C41.41 16 40.626 15.216 40.626 13.648ZM46.9981 6.896C46.2621 6.896 45.6861 6.352 45.6861 5.632C45.6861 4.896 46.2621 4.352 46.9981 4.352C47.7341 4.352 48.3101 4.896 48.3101 5.632C48.3101 6.352 47.7341 6.896 46.9981 6.896ZM45.8621 16V7.776H48.1341V16H45.8621ZM53.7063 16.096C51.0823 16.096 49.3703 14.416 49.3703 11.888C49.3703 9.36 51.0823 7.68 53.7063 7.68C56.3303 7.68 58.0423 9.36 58.0423 11.888C58.0423 14.432 56.3303 16.096 53.7063 16.096ZM53.7063 14.256C54.9703 14.256 55.7543 13.28 55.7543 11.888C55.7543 10.496 54.9703 9.52 53.7063 9.52C52.4423 9.52 51.6743 10.496 51.6743 11.888C51.6743 13.28 52.4423 14.256 53.7063 14.256ZM64.004 7.68C65.78 7.68 67.3 8.624 67.3 11.44V16H65.044V11.664C65.044 10.272 64.516 9.536 63.38 9.536C62.212 9.536 61.54 10.368 61.54 11.792V16H59.284V7.776H61.252L61.46 8.8C61.988 8.16 62.74 7.68 64.004 7.68ZM73.4903 14.336C72.8343 13.392 72.4663 12.064 72.4663 10.512C72.4663 6.768 74.2582 4.704 77.0743 4.704C79.1703 4.704 80.8183 5.904 81.0743 7.952H78.8023C78.5943 7.056 77.8903 6.56 76.8983 6.56C75.4583 6.56 74.6423 7.712 74.6423 9.776V10.048C74.6903 9.968 74.7223 9.904 74.7863 9.808C75.2983 9.008 76.2743 8.496 77.4263 8.496C79.6823 8.496 81.2183 10.032 81.2183 12.288C81.2183 14.576 79.5383 16.096 77.0423 16.096C75.4743 16.096 74.2743 15.456 73.4903 14.336ZM78.9143 12.288C78.9143 11.104 78.1943 10.288 77.0583 10.288C75.9223 10.288 75.1383 11.088 75.1383 12.288C75.1383 13.488 75.8903 14.288 77.0263 14.288C78.1623 14.288 78.9143 13.472 78.9143 12.288ZM91.9119 12.368H86.3119V10.528H91.9119V12.368ZM102.42 16.096C99.2036 16.096 97.1876 13.824 97.1876 10.4C97.1876 7.008 99.2836 4.704 102.532 4.704C105.012 4.704 106.82 6.144 107.236 8.464H105.764C105.332 6.912 104.148 5.984 102.468 5.984C100.116 5.984 98.6116 7.808 98.6116 10.4C98.6116 12.976 100.052 14.816 102.404 14.816C104.132 14.816 105.332 13.904 105.748 12.336H107.22C106.804 14.656 104.948 16.096 102.42 16.096ZM112.469 16.096C110.085 16.096 108.421 14.4 108.421 11.92C108.421 9.44 110.085 7.744 112.469 7.744C114.853 7.744 116.517 9.44 116.517 11.92C116.517 14.4 114.853 16.096 112.469 16.096ZM112.469 14.928C114.085 14.928 115.173 13.664 115.173 11.92C115.173 10.176 114.085 8.912 112.469 8.912C110.853 8.912 109.765 10.176 109.765 11.92C109.765 13.664 110.853 14.928 112.469 14.928ZM122.021 7.744C123.861 7.744 125.317 8.752 125.317 11.456V16H124.005V11.536C124.005 9.84 123.221 8.944 121.797 8.944C120.261 8.944 119.333 10.08 119.333 11.92V16H118.021V7.84H119.157L119.333 8.944C119.813 8.32 120.645 7.744 122.021 7.744ZM126.126 9.04V7.84H127.598V6.928C127.598 5.488 128.206 4.8 129.726 4.8H131.214V6H129.806C129.15 6 128.91 6.272 128.91 6.896V7.84H131.214V9.04H128.91V16H127.598V9.04H126.126ZM135.547 16.096C133.099 16.096 131.499 14.416 131.499 11.92C131.499 9.44 133.067 7.744 135.371 7.744C137.675 7.744 139.179 9.2 139.243 11.616C139.243 11.792 139.227 11.984 139.211 12.176H132.875V12.288C132.923 13.84 133.899 14.928 135.451 14.928C136.603 14.928 137.499 14.32 137.771 13.264H139.099C138.779 14.896 137.435 16.096 135.547 16.096ZM132.955 11.088H137.835C137.707 9.68 136.747 8.896 135.387 8.896C134.187 8.896 133.083 9.76 132.955 11.088ZM140.373 13.312H141.717C141.765 14.272 142.613 14.976 143.973 14.976C145.125 14.976 145.941 14.48 145.941 13.728C145.941 12.704 145.045 12.624 143.829 12.48C142.005 12.256 140.549 11.888 140.549 10.192C140.549 8.704 141.909 7.728 143.749 7.744C145.605 7.76 146.949 8.624 147.077 10.32H145.733C145.637 9.488 144.869 8.864 143.749 8.864C142.613 8.864 141.845 9.344 141.845 10.096C141.845 10.992 142.709 11.104 143.893 11.248C145.749 11.472 147.237 11.824 147.237 13.632C147.237 15.152 145.781 16.096 143.973 16.096C141.861 16.096 140.405 15.104 140.373 13.312ZM148.201 13.312H149.545C149.593 14.272 150.441 14.976 151.801 14.976C152.953 14.976 153.769 14.48 153.769 13.728C153.769 12.704 152.873 12.624 151.657 12.48C149.833 12.256 148.377 11.888 148.377 10.192C148.377 8.704 149.737 7.728 151.577 7.744C153.433 7.76 154.777 8.624 154.905 10.32H153.561C153.465 9.488 152.697 8.864 151.577 8.864C150.441 8.864 149.673 9.344 149.673 10.096C149.673 10.992 150.537 11.104 151.721 11.248C153.577 11.472 155.065 11.824 155.065 13.632C155.065 15.152 153.609 16.096 151.801 16.096C149.689 16.096 148.233 15.104 148.201 13.312ZM157.193 6.464C156.713 6.464 156.345 6.112 156.345 5.616C156.345 5.12 156.713 4.768 157.193 4.768C157.673 4.768 158.041 5.12 158.041 5.616C158.041 6.112 157.673 6.464 157.193 6.464ZM156.521 16V7.84H157.833V16H156.521ZM163.39 16.096C161.006 16.096 159.342 14.4 159.342 11.92C159.342 9.44 161.006 7.744 163.39 7.744C165.774 7.744 167.438 9.44 167.438 11.92C167.438 14.4 165.774 16.096 163.39 16.096ZM163.39 14.928C165.006 14.928 166.094 13.664 166.094 11.92C166.094 10.176 165.006 8.912 163.39 8.912C161.774 8.912 160.686 10.176 160.686 11.92C160.686 13.664 161.774 14.928 163.39 14.928ZM172.943 7.744C174.783 7.744 176.239 8.752 176.239 11.456V16H174.927V11.536C174.927 9.84 174.143 8.944 172.719 8.944C171.183 8.944 170.255 10.08 170.255 11.92V16H168.943V7.84H170.079L170.255 8.944C170.735 8.32 171.567 7.744 172.943 7.744Z" fill="#131313"/>
<path d="M348.033 5.375L348.033 6.75L346.715 6.75L346.715 5.375L348.033 5.375Z" fill="#131313"/>
<path d="M334.85 5.375L334.85 6.75L333.532 6.75L333.532 5.375L334.85 5.375Z" fill="#131313"/>
<path d="M346.715 4L346.715 5.375L345.397 5.375L345.397 4L346.715 4Z" fill="#131313"/>
<path d="M336.169 4L336.169 5.375L334.85 5.375L334.85 4L336.169 4Z" fill="#131313"/>
<path d="M346.715 5.375L346.715 6.75L345.397 6.75L345.397 5.375L346.715 5.375Z" fill="#131313"/>
<path d="M336.169 5.375L336.169 6.75L334.85 6.75L334.85 5.375L336.169 5.375Z" fill="#131313"/>
<path d="M345.397 5.375L345.397 6.75L344.079 6.75L344.079 5.375L345.397 5.375Z" fill="#131313"/>
<path d="M337.487 5.375L337.487 6.75L336.169 6.75L336.169 5.375L337.487 5.375Z" fill="#131313"/>
<path d="M346.715 6.75L346.715 8.125L345.397 8.125L345.397 6.75L346.715 6.75Z" fill="#131313"/>
<path d="M336.169 6.75L336.169 8.125L334.85 8.125L334.85 6.75L336.169 6.75Z" fill="#131313"/>
<path d="M345.397 6.75L345.397 8.125L344.079 8.125L344.079 6.75L345.397 6.75Z" fill="#131313"/>
<path d="M337.487 6.75L337.487 8.125L336.169 8.125L336.169 6.75L337.487 6.75Z" fill="#131313"/>
<path d="M344.079 6.75L344.079 8.125L342.76 8.125L342.76 6.75L344.079 6.75Z" fill="#131313"/>
<path d="M346.715 8.125L346.715 9.5L345.397 9.5L345.397 8.125L346.715 8.125Z" fill="#131313"/>
<path d="M336.169 8.125L336.169 9.5L334.85 9.5L334.85 8.125L336.169 8.125Z" fill="#131313"/>
<path d="M345.397 8.125L345.397 9.5L344.079 9.5L344.079 8.125L345.397 8.125Z" fill="#131313"/>
<path d="M337.487 8.125L337.487 9.5L336.169 9.5L336.169 8.125L337.487 8.125Z" fill="#131313"/>
<path d="M344.079 8.125L344.079 9.5L342.76 9.5L342.76 8.125L344.079 8.125Z" fill="#131313"/>
<path d="M342.76 8.125L342.76 9.5L341.442 9.5L341.442 8.125L342.76 8.125Z" fill="#131313"/>
<path d="M340.124 8.125L340.124 9.5L338.805 9.5L338.805 8.125L340.124 8.125Z" fill="#131313"/>
<path d="M338.805 8.125L338.805 9.5L337.487 9.5L337.487 8.125L338.805 8.125Z" fill="#131313"/>
<path d="M338.805 6.75L338.805 8.125L337.487 8.125L337.487 6.75L338.805 6.75Z" fill="#131313"/>
<path d="M345.397 9.5L345.397 10.875L344.079 10.875L344.079 9.5L345.397 9.5Z" fill="#131313"/>
<path d="M337.487 9.5L337.487 10.875L336.169 10.875L336.169 9.5L337.487 9.5Z" fill="#131313"/>
<path d="M344.079 9.5L344.079 10.875L342.76 10.875L342.76 9.5L344.079 9.5Z" fill="#131313"/>
<path d="M342.76 9.5L342.76 10.875L341.442 10.875L341.442 9.5L342.76 9.5Z" fill="#131313"/>
<path d="M340.124 9.5L340.124 10.875L338.805 10.875L338.805 9.5L340.124 9.5Z" fill="#131313"/>
<path d="M338.805 9.5L338.805 10.875L337.487 10.875L337.487 9.5L338.805 9.5Z" fill="#131313"/>
<path d="M341.442 9.5L341.442 10.875L340.124 10.875L340.124 9.5L341.442 9.5Z" fill="#131313"/>
<path d="M344.079 10.875L344.079 12.25L342.76 12.25L342.76 10.875L344.079 10.875Z" fill="#131313"/>
<path d="M342.76 10.875L342.76 12.25L341.442 12.25L341.442 10.875L342.76 10.875Z" fill="#131313"/>
<path d="M340.124 10.875L340.124 12.25L338.805 12.25L338.805 10.875L340.124 10.875Z" fill="#131313"/>
<path d="M338.805 10.875L338.805 12.25L337.487 12.25L337.487 10.875L338.805 10.875Z" fill="#131313"/>
<path d="M341.442 10.875L341.442 12.25L340.124 12.25L340.124 10.875L341.442 10.875Z" fill="#131313"/>
<path d="M342.76 12.25L342.76 13.625L341.442 13.625L341.442 12.25L342.76 12.25Z" fill="#131313"/>
<path d="M341.442 13.625L341.442 15L340.124 15L340.124 13.625L341.442 13.625Z" fill="#131313"/>
<path d="M341.442 12.25L341.442 13.625L340.124 13.625L340.124 12.25L341.442 12.25Z" fill="#131313"/>
<path d="M340.124 12.25L340.124 13.625L338.805 13.625L338.805 12.25L340.124 12.25Z" fill="#131313"/>
<path d="M348.033 6.75L348.033 8.125L346.715 8.125L346.715 6.75L348.033 6.75Z" fill="#131313"/>
<path d="M334.85 6.75L334.85 8.125L333.532 8.125L333.532 6.75L334.85 6.75Z" fill="#131313"/>
<rect x="0.5" y="32.5" width="243" height="29" fill="#DCECA1"/>
<rect x="0.5" y="32.5" width="243" height="29" stroke="#131313"/>
<path d="M11.5059 48.38L8.42188 43.1H10.5219L12.4059 46.544L14.3859 43.1H16.3899L13.3059 48.38V51.5H11.5059V48.38ZM18.9251 51.572C16.8731 51.572 15.6371 50.336 15.6371 48.428C15.6371 46.508 16.8971 45.26 18.8051 45.26C20.6531 45.26 21.9011 46.412 21.9251 48.224C21.9251 48.404 21.9131 48.608 21.8771 48.8H17.4011V48.884C17.4371 49.76 18.0011 50.288 18.8531 50.288C19.5371 50.288 20.0171 49.988 20.1611 49.412H21.8291C21.6371 50.612 20.5691 51.572 18.9251 51.572ZM17.4371 47.696H20.2211C20.1011 46.94 19.5851 46.52 18.8171 46.52C18.0851 46.52 17.5331 46.964 17.4371 47.696ZM22.5148 49.448H24.1228C24.1828 49.988 24.6508 50.36 25.4788 50.36C26.1868 50.36 26.6188 50.132 26.6188 49.7C26.6188 49.196 26.1988 49.16 25.2028 49.028C23.7628 48.86 22.6468 48.536 22.6468 47.264C22.6468 46.04 23.7148 45.236 25.2988 45.248C26.9548 45.248 28.0948 45.98 28.1788 47.24H26.5588C26.5108 46.748 26.0428 46.448 25.3588 46.448C24.6988 46.448 24.2668 46.688 24.2668 47.084C24.2668 47.552 24.7948 47.6 25.6828 47.708C27.0988 47.852 28.2748 48.176 28.2748 49.568C28.2748 50.792 27.1228 51.572 25.4668 51.572C23.7508 51.572 22.5868 50.768 22.5148 49.448Z" fill="#131313"/>
<path d="M38.217 50.18C37.797 49.448 37.557 48.44 37.557 47.336C37.557 44.696 38.745 43.028 40.749 43.028C42.273 43.028 43.317 43.94 43.521 45.344H42.513C42.321 44.492 41.721 43.916 40.701 43.916C39.237 43.916 38.433 45.248 38.433 47.144C38.433 47.264 38.433 47.348 38.445 47.552C38.457 47.504 38.469 47.432 38.517 47.324C38.889 46.496 39.729 45.944 40.857 45.944C42.513 45.944 43.677 47.036 43.677 48.752C43.677 50.372 42.489 51.572 40.761 51.572C39.597 51.572 38.745 51.044 38.217 50.18ZM42.669 48.752C42.669 47.636 41.949 46.832 40.785 46.832C39.621 46.832 38.829 47.624 38.829 48.776C38.829 49.904 39.597 50.684 40.749 50.684C41.913 50.684 42.669 49.88 42.669 48.752ZM47.5386 51.572C46.0146 51.572 44.9706 50.66 44.7666 49.256H45.7746C45.9666 50.108 46.5666 50.684 47.5866 50.684C49.0506 50.684 49.8546 49.352 49.8546 47.456C49.8546 47.336 49.8546 47.252 49.8426 47.048C49.8306 47.096 49.8186 47.168 49.7706 47.276C49.3986 48.104 48.5586 48.656 47.4306 48.656C45.7746 48.656 44.6106 47.564 44.6106 45.848C44.6106 44.228 45.7986 43.028 47.5266 43.028C48.6906 43.028 49.5426 43.556 50.0706 44.42C50.4906 45.152 50.7306 46.16 50.7306 47.264C50.7306 49.904 49.5426 51.572 47.5386 51.572ZM47.5026 47.768C48.6666 47.768 49.4586 46.976 49.4586 45.824C49.4586 44.696 48.6906 43.916 47.5386 43.916C46.3746 43.916 45.6186 44.72 45.6186 45.848C45.6186 46.964 46.3386 47.768 47.5026 47.768ZM51.2454 50.9C51.2454 50.492 51.5334 50.228 51.9294 50.228C52.3254 50.228 52.6134 50.492 52.6134 50.9C52.6134 51.308 52.3254 51.572 51.9294 51.572C51.5334 51.572 51.2454 51.308 51.2454 50.9ZM57.8282 47.156C58.7642 47.372 59.5082 48.092 59.5082 49.244C59.5082 50.6 58.3442 51.572 56.4482 51.572C54.5522 51.572 53.3882 50.6 53.3882 49.244C53.3882 48.104 54.1202 47.372 55.0682 47.156C54.2642 46.976 53.6282 46.268 53.6282 45.26C53.6282 43.94 54.7322 43.028 56.4482 43.028C58.1642 43.028 59.2682 43.94 59.2682 45.26C59.2682 46.22 58.6442 46.976 57.8282 47.156ZM54.6602 45.26C54.6602 46.088 55.3682 46.64 56.4482 46.64C57.5282 46.64 58.2362 46.088 58.2362 45.26C58.2362 44.444 57.5282 43.892 56.4482 43.892C55.3682 43.892 54.6602 44.444 54.6602 45.26ZM56.4482 50.708C57.6482 50.708 58.4762 50.072 58.4762 49.172C58.4762 48.284 57.6482 47.648 56.4482 47.648C55.2482 47.648 54.4202 48.284 54.4202 49.172C54.4202 50.072 55.2602 50.708 56.4482 50.708ZM62.3263 42.812C62.9183 42.812 63.3663 43.048 63.6703 43.52C63.9743 43.984 64.1263 44.64 64.1263 45.488C64.1263 46.336 63.9783 47 63.6823 47.48C63.3943 47.952 62.9423 48.188 62.3263 48.188C61.9503 48.188 61.6303 48.08 61.3663 47.864C61.1023 47.648 60.9023 47.34 60.7663 46.94C60.6383 46.532 60.5743 46.048 60.5743 45.488C60.5743 44.64 60.7143 43.984 60.9943 43.52C61.2743 43.048 61.7183 42.812 62.3263 42.812ZM62.3263 43.556C62.0223 43.556 61.7983 43.72 61.6543 44.048C61.5183 44.368 61.4503 44.848 61.4503 45.488C61.4503 46.128 61.5183 46.612 61.6543 46.94C61.7983 47.268 62.0223 47.432 62.3263 47.432C62.6383 47.432 62.8703 47.272 63.0223 46.952C63.1743 46.624 63.2503 46.136 63.2503 45.488C63.2503 44.848 63.1743 44.368 63.0223 44.048C62.8703 43.72 62.6383 43.556 62.3263 43.556ZM67.8103 42.932L63.0583 51.5H62.1343L66.8863 42.932H67.8103ZM67.5703 46.244C67.9623 46.244 68.2903 46.352 68.5543 46.568C68.8183 46.776 69.0183 47.08 69.1543 47.48C69.2983 47.872 69.3703 48.352 69.3703 48.92C69.3703 49.768 69.2223 50.432 68.9263 50.912C68.6383 51.384 68.1863 51.62 67.5703 51.62C67.1943 51.62 66.8743 51.512 66.6103 51.296C66.3463 51.08 66.1463 50.772 66.0103 50.372C65.8823 49.964 65.8183 49.48 65.8183 48.92C65.8183 48.072 65.9583 47.416 66.2383 46.952C66.5183 46.48 66.9623 46.244 67.5703 46.244ZM67.5703 47C67.2663 47 67.0423 47.16 66.8983 47.48C66.7623 47.8 66.6943 48.28 66.6943 48.92C66.6943 49.568 66.7623 50.056 66.8983 50.384C67.0423 50.704 67.2663 50.864 67.5703 50.864C67.8823 50.864 68.1143 50.704 68.2663 50.384C68.4183 50.064 68.4943 49.576 68.4943 48.92C68.4943 48.28 68.4183 47.8 68.2663 47.48C68.1143 47.16 67.8823 47 67.5703 47Z" fill="#131313"/>
<mask id="path-6-inside-1_111_8677" fill="white">
<path d="M244 32H349V62H244V32Z"/>
</mask>
<path d="M244 32H349V62H244V32Z" fill="#FD9DAF"/>
<path d="M349 32H350V31H349V32ZM349 62V63H350V62H349ZM244 33H349V31H244V33ZM348 32V62H350V32H348ZM349 61H244V63H349V61Z" fill="#131313" mask="url(#path-6-inside-1_111_8677)"/>
<path d="M254.685 51.5H252.921V43.1H254.553L258.117 48.392V43.1H259.893V51.5H258.249L254.685 46.208V51.5ZM264.204 51.572C262.236 51.572 260.952 50.312 260.952 48.416C260.952 46.52 262.236 45.26 264.204 45.26C266.172 45.26 267.456 46.52 267.456 48.416C267.456 50.324 266.172 51.572 264.204 51.572ZM264.204 50.192C265.152 50.192 265.74 49.46 265.74 48.416C265.74 47.372 265.152 46.64 264.204 46.64C263.256 46.64 262.68 47.372 262.68 48.416C262.68 49.46 263.256 50.192 264.204 50.192Z" fill="#131313"/>
<path d="M281.028 47.132C281.796 47.276 282.6 47.888 282.6 49.172C282.6 50.6 281.4 51.572 279.576 51.572C277.752 51.572 276.576 50.576 276.576 48.908H277.572C277.584 50.012 278.448 50.672 279.636 50.672C280.728 50.672 281.568 50.06 281.568 49.1C281.568 48.224 280.848 47.66 279.54 47.66H278.82V46.784H279.48C280.728 46.784 281.352 46.16 281.352 45.308C281.352 44.456 280.584 43.928 279.576 43.928C278.52 43.928 277.752 44.564 277.74 45.524H276.744C276.756 44.048 277.908 43.028 279.564 43.028C281.292 43.028 282.384 43.928 282.384 45.248C282.384 46.304 281.832 46.916 281.028 47.132ZM283.6 47.492V47.108C283.6 44.72 284.896 43.028 286.792 43.028C288.676 43.028 289.972 44.72 289.972 47.108V47.492C289.972 50 288.676 51.572 286.792 51.572C284.896 51.572 283.6 50 283.6 47.492ZM288.952 47.456V47.144C288.952 45.152 288.088 43.952 286.792 43.952C285.484 43.952 284.62 45.152 284.62 47.144V47.456C284.62 49.448 285.484 50.648 286.792 50.648C288.088 50.648 288.952 49.448 288.952 47.456ZM290.445 50.9C290.445 50.492 290.733 50.228 291.129 50.228C291.525 50.228 291.813 50.492 291.813 50.9C291.813 51.308 291.525 51.572 291.129 51.572C290.733 51.572 290.445 51.308 290.445 50.9ZM292.629 51.5V50.648L295.893 47.816C296.673 47.144 297.321 46.496 297.321 45.584C297.321 44.528 296.601 43.928 295.485 43.928C294.405 43.928 293.685 44.648 293.685 45.8V45.956H292.677V45.74C292.677 44.156 293.793 43.028 295.485 43.028C297.297 43.028 298.353 44.024 298.353 45.536C298.353 46.796 297.537 47.588 296.541 48.44L294.021 50.576H298.413V51.5H292.629ZM301.127 42.812C301.719 42.812 302.167 43.048 302.471 43.52C302.775 43.984 302.927 44.64 302.927 45.488C302.927 46.336 302.779 47 302.483 47.48C302.195 47.952 301.743 48.188 301.127 48.188C300.751 48.188 300.431 48.08 300.167 47.864C299.903 47.648 299.703 47.34 299.567 46.94C299.439 46.532 299.375 46.048 299.375 45.488C299.375 44.64 299.515 43.984 299.795 43.52C300.075 43.048 300.519 42.812 301.127 42.812ZM301.127 43.556C300.823 43.556 300.599 43.72 300.455 44.048C300.319 44.368 300.251 44.848 300.251 45.488C300.251 46.128 300.319 46.612 300.455 46.94C300.599 47.268 300.823 47.432 301.127 47.432C301.439 47.432 301.671 47.272 301.823 46.952C301.975 46.624 302.051 46.136 302.051 45.488C302.051 44.848 301.975 44.368 301.823 44.048C301.671 43.72 301.439 43.556 301.127 43.556ZM306.611 42.932L301.859 51.5H300.935L305.687 42.932H306.611ZM306.371 46.244C306.763 46.244 307.091 46.352 307.355 46.568C307.619 46.776 307.819 47.08 307.955 47.48C308.099 47.872 308.171 48.352 308.171 48.92C308.171 49.768 308.023 50.432 307.727 50.912C307.439 51.384 306.987 51.62 306.371 51.62C305.995 51.62 305.675 51.512 305.411 51.296C305.147 51.08 304.947 50.772 304.811 50.372C304.683 49.964 304.619 49.48 304.619 48.92C304.619 48.072 304.759 47.416 305.039 46.952C305.319 46.48 305.763 46.244 306.371 46.244ZM306.371 47C306.067 47 305.843 47.16 305.699 47.48C305.563 47.8 305.495 48.28 305.495 48.92C305.495 49.568 305.563 50.056 305.699 50.384C305.843 50.704 306.067 50.864 306.371 50.864C306.683 50.864 306.915 50.704 307.067 50.384C307.219 50.064 307.295 49.576 307.295 48.92C307.295 48.28 307.219 47.8 307.067 47.48C306.915 47.16 306.683 47 306.371 47Z" fill="#131313"/>
</svg>
