<svg width="349" height="62" viewBox="0 0 349 62" fill="none" xmlns="http://www.w3.org/2000/svg">
<path d="M10.928 13.936H12.032V16H10.88C9.92 16 9.52 15.728 9.136 15.248C8.288 15.792 7.232 16.096 6.064 16.096C2.768 16.096 0.512 13.664 0.512 10.4C0.512 7.136 2.768 4.704 6.064 4.704C9.36 4.704 11.616 7.136 11.616 10.4C11.616 11.728 11.248 12.928 10.576 13.872C10.672 13.904 10.784 13.936 10.928 13.936ZM2.96 10.4C2.96 12.512 4.176 14.064 6.064 14.064C6.72 14.064 7.296 13.872 7.776 13.536L7.616 13.344C7.376 13.024 7.168 12.848 6.816 12.848H5.776V10.816H6.992C7.936 10.816 8.256 11.152 8.64 11.632L8.896 11.952C9.072 11.488 9.152 10.96 9.152 10.4C9.152 8.288 7.936 6.736 6.064 6.736C4.176 6.736 2.96 8.288 2.96 10.4ZM18.4908 11.888V7.776H20.7468V16H18.7468L18.5388 15.008C18.0108 15.648 17.2908 16.096 16.1228 16.096C14.4268 16.096 12.8588 15.248 12.8588 12.336V7.776H15.1148V12.032C15.1148 13.504 15.5948 14.224 16.7148 14.224C17.8348 14.224 18.4908 13.408 18.4908 11.888ZM26.3793 16.096C23.6432 16.096 21.9953 14.448 21.9953 11.904C21.9953 9.344 23.6753 7.68 26.2193 7.68C28.6833 7.68 30.3472 9.216 30.3793 11.632C30.3793 11.872 30.3633 12.144 30.3153 12.4H24.3473V12.512C24.3953 13.68 25.1473 14.384 26.2833 14.384C27.1953 14.384 27.8353 13.984 28.0273 13.216H30.2513C29.9953 14.816 28.5713 16.096 26.3793 16.096ZM24.3953 10.928H28.1073C27.9473 9.92 27.2593 9.36 26.2352 9.36C25.2593 9.36 24.5233 9.952 24.3953 10.928ZM31.1656 13.264H33.3096C33.3896 13.984 34.0136 14.48 35.1176 14.48C36.0616 14.48 36.6376 14.176 36.6376 13.6C36.6376 12.928 36.0776 12.88 34.7496 12.704C32.8296 12.48 31.3416 12.048 31.3416 10.352C31.3416 8.72 32.7656 7.648 34.8776 7.664C37.0856 7.664 38.6056 8.64 38.7176 10.32H36.5576C36.4936 9.664 35.8696 9.264 34.9576 9.264C34.0776 9.264 33.5016 9.584 33.5016 10.112C33.5016 10.736 34.2056 10.8 35.3896 10.944C37.2776 11.136 38.8456 11.568 38.8456 13.424C38.8456 15.056 37.3096 16.096 35.1016 16.096C32.8136 16.096 31.2616 15.024 31.1656 13.264ZM40.626 13.648V9.68H39.266V7.776H40.626V5.472H42.882V7.776H44.77V9.68H42.882V13.28C42.882 13.856 43.106 14.096 43.698 14.096H44.818V16H42.978C41.41 16 40.626 15.216 40.626 13.648ZM46.9981 6.896C46.2621 6.896 45.6861 6.352 45.6861 5.632C45.6861 4.896 46.2621 4.352 46.9981 4.352C47.7341 4.352 48.3101 4.896 48.3101 5.632C48.3101 6.352 47.7341 6.896 46.9981 6.896ZM45.8621 16V7.776H48.1341V16H45.8621ZM53.7063 16.096C51.0823 16.096 49.3703 14.416 49.3703 11.888C49.3703 9.36 51.0823 7.68 53.7063 7.68C56.3303 7.68 58.0423 9.36 58.0423 11.888C58.0423 14.432 56.3303 16.096 53.7063 16.096ZM53.7063 14.256C54.9703 14.256 55.7543 13.28 55.7543 11.888C55.7543 10.496 54.9703 9.52 53.7063 9.52C52.4423 9.52 51.6743 10.496 51.6743 11.888C51.6743 13.28 52.4423 14.256 53.7063 14.256ZM64.004 7.68C65.78 7.68 67.3 8.624 67.3 11.44V16H65.044V11.664C65.044 10.272 64.516 9.536 63.38 9.536C62.212 9.536 61.54 10.368 61.54 11.792V16H59.284V7.776H61.252L61.46 8.8C61.988 8.16 62.74 7.68 64.004 7.68ZM72.0503 6.752V4.8H80.2583V6.288L75.3303 16H72.8343L77.7303 6.752H72.0503ZM79.5146 14.768C79.5146 13.984 80.0906 13.424 80.8746 13.424C81.6426 13.424 82.2346 13.984 82.2346 14.768C82.2346 15.536 81.6426 16.096 80.8746 16.096C80.0906 16.096 79.5146 15.536 79.5146 14.768ZM87.6238 8.368C89.8798 8.368 91.3998 9.92 91.3998 12.208C91.3998 14.784 89.4798 16.096 87.1598 16.096C84.5678 16.096 82.9678 14.448 82.8717 12.4H85.1598C85.2718 13.408 85.9758 14.208 87.1758 14.208C88.1518 14.208 89.0798 13.536 89.0798 12.208C89.0798 11.024 88.3278 10.192 87.1598 10.192C86.5358 10.192 85.6718 10.432 85.2718 11.36H83.0478L83.3678 4.8H90.7278V6.736H85.4638L85.3358 9.184C85.8958 8.672 86.6318 8.368 87.6238 8.368ZM96.6088 11.616C96.6088 10.7413 96.6888 9.888 96.8488 9.056C97.0194 8.224 97.2808 7.42933 97.6328 6.672C97.9848 5.91467 98.4274 5.216 98.9608 4.576H100.289C99.7981 5.23733 99.3821 5.952 99.0408 6.72C98.7101 7.488 98.4594 8.28267 98.2888 9.104C98.1181 9.92533 98.0328 10.7573 98.0328 11.6C98.0328 12.4213 98.1181 13.2373 98.2888 14.048C98.4594 14.8587 98.7101 15.6373 99.0408 16.384C99.3714 17.1413 99.7821 17.856 100.273 18.528H98.9608C98.4274 17.8987 97.9848 17.2107 97.6328 16.464C97.2808 15.728 97.0194 14.9493 96.8488 14.128C96.6888 13.3067 96.6088 12.4693 96.6088 11.616ZM103.214 16H101.854V4.8H103.134L109.15 13.44V4.8H110.51V16H109.23L103.214 7.36V16ZM116.25 16.096C113.866 16.096 112.202 14.4 112.202 11.92C112.202 9.44 113.866 7.744 116.25 7.744C118.634 7.744 120.298 9.44 120.298 11.92C120.298 14.4 118.634 16.096 116.25 16.096ZM116.25 14.928C117.866 14.928 118.954 13.664 118.954 11.92C118.954 10.176 117.866 8.912 116.25 8.912C114.634 8.912 113.546 10.176 113.546 11.92C113.546 13.664 114.634 14.928 116.25 14.928ZM125.066 11.616C125.066 12.4693 124.981 13.3067 124.81 14.128C124.65 14.9493 124.394 15.728 124.042 16.464C123.701 17.2107 123.258 17.8987 122.714 18.528H121.402C121.893 17.856 122.304 17.1413 122.634 16.384C122.965 15.6373 123.216 14.8587 123.386 14.048C123.557 13.2373 123.642 12.4213 123.642 11.6C123.642 10.7573 123.557 9.92533 123.386 9.104C123.216 8.28267 122.965 7.488 122.634 6.72C122.304 5.952 121.888 5.23733 121.386 4.576H122.714C123.258 5.216 123.701 5.91467 124.042 6.672C124.394 7.42933 124.65 8.224 124.81 9.056C124.981 9.888 125.066 10.7413 125.066 11.616Z" fill="#131313"/>
<path d="M348.033 5.375L348.033 6.75L346.715 6.75L346.715 5.375L348.033 5.375Z" fill="#131313"/>
<path d="M334.85 5.375L334.85 6.75L333.532 6.75L333.532 5.375L334.85 5.375Z" fill="#131313"/>
<path d="M346.715 4L346.715 5.375L345.397 5.375L345.397 4L346.715 4Z" fill="#131313"/>
<path d="M336.169 4L336.169 5.375L334.85 5.375L334.85 4L336.169 4Z" fill="#131313"/>
<path d="M346.715 5.375L346.715 6.75L345.397 6.75L345.397 5.375L346.715 5.375Z" fill="#131313"/>
<path d="M336.169 5.375L336.169 6.75L334.85 6.75L334.85 5.375L336.169 5.375Z" fill="#131313"/>
<path d="M345.397 5.375L345.397 6.75L344.079 6.75L344.079 5.375L345.397 5.375Z" fill="#131313"/>
<path d="M337.487 5.375L337.487 6.75L336.169 6.75L336.169 5.375L337.487 5.375Z" fill="#131313"/>
<path d="M346.715 6.75L346.715 8.125L345.397 8.125L345.397 6.75L346.715 6.75Z" fill="#131313"/>
<path d="M336.169 6.75L336.169 8.125L334.85 8.125L334.85 6.75L336.169 6.75Z" fill="#131313"/>
<path d="M345.397 6.75L345.397 8.125L344.079 8.125L344.079 6.75L345.397 6.75Z" fill="#131313"/>
<path d="M337.487 6.75L337.487 8.125L336.169 8.125L336.169 6.75L337.487 6.75Z" fill="#131313"/>
<path d="M344.079 6.75L344.079 8.125L342.76 8.125L342.76 6.75L344.079 6.75Z" fill="#131313"/>
<path d="M346.715 8.125L346.715 9.5L345.397 9.5L345.397 8.125L346.715 8.125Z" fill="#131313"/>
<path d="M336.169 8.125L336.169 9.5L334.85 9.5L334.85 8.125L336.169 8.125Z" fill="#131313"/>
<path d="M345.397 8.125L345.397 9.5L344.079 9.5L344.079 8.125L345.397 8.125Z" fill="#131313"/>
<path d="M337.487 8.125L337.487 9.5L336.169 9.5L336.169 8.125L337.487 8.125Z" fill="#131313"/>
<path d="M344.079 8.125L344.079 9.5L342.76 9.5L342.76 8.125L344.079 8.125Z" fill="#131313"/>
<path d="M342.76 8.125L342.76 9.5L341.442 9.5L341.442 8.125L342.76 8.125Z" fill="#131313"/>
<path d="M340.124 8.125L340.124 9.5L338.805 9.5L338.805 8.125L340.124 8.125Z" fill="#131313"/>
<path d="M338.805 8.125L338.805 9.5L337.487 9.5L337.487 8.125L338.805 8.125Z" fill="#131313"/>
<path d="M338.805 6.75L338.805 8.125L337.487 8.125L337.487 6.75L338.805 6.75Z" fill="#131313"/>
<path d="M345.397 9.5L345.397 10.875L344.079 10.875L344.079 9.5L345.397 9.5Z" fill="#131313"/>
<path d="M337.487 9.5L337.487 10.875L336.169 10.875L336.169 9.5L337.487 9.5Z" fill="#131313"/>
<path d="M344.079 9.5L344.079 10.875L342.76 10.875L342.76 9.5L344.079 9.5Z" fill="#131313"/>
<path d="M342.76 9.5L342.76 10.875L341.442 10.875L341.442 9.5L342.76 9.5Z" fill="#131313"/>
<path d="M340.124 9.5L340.124 10.875L338.805 10.875L338.805 9.5L340.124 9.5Z" fill="#131313"/>
<path d="M338.805 9.5L338.805 10.875L337.487 10.875L337.487 9.5L338.805 9.5Z" fill="#131313"/>
<path d="M341.442 9.5L341.442 10.875L340.124 10.875L340.124 9.5L341.442 9.5Z" fill="#131313"/>
<path d="M344.079 10.875L344.079 12.25L342.76 12.25L342.76 10.875L344.079 10.875Z" fill="#131313"/>
<path d="M342.76 10.875L342.76 12.25L341.442 12.25L341.442 10.875L342.76 10.875Z" fill="#131313"/>
<path d="M340.124 10.875L340.124 12.25L338.805 12.25L338.805 10.875L340.124 10.875Z" fill="#131313"/>
<path d="M338.805 10.875L338.805 12.25L337.487 12.25L337.487 10.875L338.805 10.875Z" fill="#131313"/>
<path d="M341.442 10.875L341.442 12.25L340.124 12.25L340.124 10.875L341.442 10.875Z" fill="#131313"/>
<path d="M342.76 12.25L342.76 13.625L341.442 13.625L341.442 12.25L342.76 12.25Z" fill="#131313"/>
<path d="M341.442 13.625L341.442 15L340.124 15L340.124 13.625L341.442 13.625Z" fill="#131313"/>
<path d="M341.442 12.25L341.442 13.625L340.124 13.625L340.124 12.25L341.442 12.25Z" fill="#131313"/>
<path d="M340.124 12.25L340.124 13.625L338.805 13.625L338.805 12.25L340.124 12.25Z" fill="#131313"/>
<path d="M348.033 6.75L348.033 8.125L346.715 8.125L346.715 6.75L348.033 6.75Z" fill="#131313"/>
<path d="M334.85 6.75L334.85 8.125L333.532 8.125L333.532 6.75L334.85 6.75Z" fill="#131313"/>
<rect x="0.5" y="32.5" width="70" height="29" fill="#89D8FF"/>
<rect x="0.5" y="32.5" width="70" height="29" stroke="#131313"/>
<path d="M11.5059 48.38L8.42188 43.1H10.5219L12.4059 46.544L14.3859 43.1H16.3899L13.3059 48.38V51.5H11.5059V48.38ZM18.9251 51.572C16.8731 51.572 15.6371 50.336 15.6371 48.428C15.6371 46.508 16.8971 45.26 18.8051 45.26C20.6531 45.26 21.9011 46.412 21.9251 48.224C21.9251 48.404 21.9131 48.608 21.8771 48.8H17.4011V48.884C17.4371 49.76 18.0011 50.288 18.8531 50.288C19.5371 50.288 20.0171 49.988 20.1611 49.412H21.8291C21.6371 50.612 20.5691 51.572 18.9251 51.572ZM17.4371 47.696H20.2211C20.1011 46.94 19.5851 46.52 18.8171 46.52C18.0851 46.52 17.5331 46.964 17.4371 47.696ZM22.5148 49.448H24.1228C24.1828 49.988 24.6508 50.36 25.4788 50.36C26.1868 50.36 26.6188 50.132 26.6188 49.7C26.6188 49.196 26.1988 49.16 25.2028 49.028C23.7628 48.86 22.6468 48.536 22.6468 47.264C22.6468 46.04 23.7148 45.236 25.2988 45.248C26.9548 45.248 28.0948 45.98 28.1788 47.24H26.5588C26.5108 46.748 26.0428 46.448 25.3588 46.448C24.6988 46.448 24.2668 46.688 24.2668 47.084C24.2668 47.552 24.7948 47.6 25.6828 47.708C27.0988 47.852 28.2748 48.176 28.2748 49.568C28.2748 50.792 27.1228 51.572 25.4668 51.572C23.7508 51.572 22.5868 50.768 22.5148 49.448Z" fill="#131313"/>
<path d="M39.2677 44.012V43.1H40.2517V51.5H39.2437V45.476C39.1237 45.584 38.9317 45.632 38.6677 45.632H37.3117V44.732H38.6797C39.0757 44.732 39.2677 44.432 39.2677 44.012ZM43.088 44.012V43.1H44.072V51.5H43.064V45.476C42.944 45.584 42.752 45.632 42.488 45.632H41.132V44.732H42.5C42.896 44.732 43.088 44.432 43.088 44.012ZM45.4563 50.9C45.4563 50.492 45.7443 50.228 46.1403 50.228C46.5363 50.228 46.8243 50.492 46.8243 50.9C46.8243 51.308 46.5363 51.572 46.1403 51.572C45.7443 51.572 45.4563 51.308 45.4563 50.9ZM50.6034 45.872C52.2474 45.872 53.3874 47.024 53.3874 48.692C53.3874 50.552 52.0194 51.56 50.4474 51.56C48.5754 51.56 47.4954 50.348 47.4114 48.884H48.4074C48.5034 49.856 49.2354 50.66 50.4474 50.66C51.4314 50.66 52.3554 50 52.3554 48.704C52.3554 47.564 51.6234 46.76 50.4594 46.76C49.9434 46.76 48.9114 46.904 48.5514 47.9L47.5794 47.876L47.8554 43.1H52.8834V44.024H48.7794L48.5874 46.676C49.1034 46.064 49.8234 45.872 50.6034 45.872ZM56.1037 42.812C56.6957 42.812 57.1437 43.048 57.4477 43.52C57.7517 43.984 57.9037 44.64 57.9037 45.488C57.9037 46.336 57.7557 47 57.4597 47.48C57.1717 47.952 56.7197 48.188 56.1037 48.188C55.7277 48.188 55.4077 48.08 55.1437 47.864C54.8797 47.648 54.6797 47.34 54.5437 46.94C54.4157 46.532 54.3517 46.048 54.3517 45.488C54.3517 44.64 54.4917 43.984 54.7717 43.52C55.0517 43.048 55.4957 42.812 56.1037 42.812ZM56.1037 43.556C55.7997 43.556 55.5757 43.72 55.4317 44.048C55.2957 44.368 55.2277 44.848 55.2277 45.488C55.2277 46.128 55.2957 46.612 55.4317 46.94C55.5757 47.268 55.7997 47.432 56.1037 47.432C56.4157 47.432 56.6477 47.272 56.7997 46.952C56.9517 46.624 57.0277 46.136 57.0277 45.488C57.0277 44.848 56.9517 44.368 56.7997 44.048C56.6477 43.72 56.4157 43.556 56.1037 43.556ZM61.5877 42.932L56.8357 51.5H55.9117L60.6637 42.932H61.5877ZM61.3477 46.244C61.7397 46.244 62.0677 46.352 62.3317 46.568C62.5957 46.776 62.7957 47.08 62.9317 47.48C63.0757 47.872 63.1477 48.352 63.1477 48.92C63.1477 49.768 62.9997 50.432 62.7037 50.912C62.4157 51.384 61.9637 51.62 61.3477 51.62C60.9717 51.62 60.6517 51.512 60.3877 51.296C60.1237 51.08 59.9237 50.772 59.7877 50.372C59.6597 49.964 59.5957 49.48 59.5957 48.92C59.5957 48.072 59.7357 47.416 60.0157 46.952C60.2957 46.48 60.7397 46.244 61.3477 46.244ZM61.3477 47C61.0437 47 60.8197 47.16 60.6757 47.48C60.5397 47.8 60.4717 48.28 60.4717 48.92C60.4717 49.568 60.5397 50.056 60.6757 50.384C60.8197 50.704 61.0437 50.864 61.3477 50.864C61.6597 50.864 61.8917 50.704 62.0437 50.384C62.1957 50.064 62.2717 49.576 62.2717 48.92C62.2717 48.28 62.1957 47.8 62.0437 47.48C61.8917 47.16 61.6597 47 61.3477 47Z" fill="#131313"/>
<mask id="path-6-inside-1_111_8680" fill="white">
<path d="M71 32H349V62H71V32Z"/>
</mask>
<path d="M71 32H349V62H71V32Z" fill="#DCECA1"/>
<path d="M349 32H350V31H349V32ZM349 62V63H350V62H349ZM71 33H349V31H71V33ZM348 32V62H350V32H348ZM349 61H71V63H349V61Z" fill="#131313" mask="url(#path-6-inside-1_111_8680)"/>
<path d="M81.6852 51.5H79.9212V43.1H81.5532L85.1172 48.392V43.1H86.8932V51.5H85.2492L81.6852 46.208V51.5ZM91.2035 51.572C89.2355 51.572 87.9515 50.312 87.9515 48.416C87.9515 46.52 89.2355 45.26 91.2035 45.26C93.1715 45.26 94.4555 46.52 94.4555 48.416C94.4555 50.324 93.1715 51.572 91.2035 51.572ZM91.2035 50.192C92.1515 50.192 92.7395 49.46 92.7395 48.416C92.7395 47.372 92.1515 46.64 91.2035 46.64C90.2555 46.64 89.6795 47.372 89.6795 48.416C89.6795 49.46 90.2555 50.192 91.2035 50.192Z" fill="#131313"/>
<path d="M108.055 47.156C108.991 47.372 109.735 48.092 109.735 49.244C109.735 50.6 108.571 51.572 106.675 51.572C104.779 51.572 103.615 50.6 103.615 49.244C103.615 48.104 104.347 47.372 105.295 47.156C104.491 46.976 103.855 46.268 103.855 45.26C103.855 43.94 104.959 43.028 106.675 43.028C108.391 43.028 109.495 43.94 109.495 45.26C109.495 46.22 108.871 46.976 108.055 47.156ZM104.887 45.26C104.887 46.088 105.595 46.64 106.675 46.64C107.755 46.64 108.463 46.088 108.463 45.26C108.463 44.444 107.755 43.892 106.675 43.892C105.595 43.892 104.887 44.444 104.887 45.26ZM106.675 50.708C107.875 50.708 108.703 50.072 108.703 49.172C108.703 48.284 107.875 47.648 106.675 47.648C105.475 47.648 104.647 48.284 104.647 49.172C104.647 50.072 105.487 50.708 106.675 50.708ZM115.133 47.156C116.069 47.372 116.813 48.092 116.813 49.244C116.813 50.6 115.649 51.572 113.753 51.572C111.857 51.572 110.693 50.6 110.693 49.244C110.693 48.104 111.425 47.372 112.373 47.156C111.569 46.976 110.933 46.268 110.933 45.26C110.933 43.94 112.037 43.028 113.753 43.028C115.469 43.028 116.573 43.94 116.573 45.26C116.573 46.22 115.949 46.976 115.133 47.156ZM111.965 45.26C111.965 46.088 112.673 46.64 113.753 46.64C114.833 46.64 115.541 46.088 115.541 45.26C115.541 44.444 114.833 43.892 113.753 43.892C112.673 43.892 111.965 44.444 111.965 45.26ZM113.753 50.708C114.953 50.708 115.781 50.072 115.781 49.172C115.781 48.284 114.953 47.648 113.753 47.648C112.553 47.648 111.725 48.284 111.725 49.172C111.725 50.072 112.565 50.708 113.753 50.708ZM117.585 50.9C117.585 50.492 117.873 50.228 118.269 50.228C118.665 50.228 118.953 50.492 118.953 50.9C118.953 51.308 118.665 51.572 118.269 51.572C117.873 51.572 117.585 51.308 117.585 50.9ZM122.732 45.872C124.376 45.872 125.516 47.024 125.516 48.692C125.516 50.552 124.148 51.56 122.576 51.56C120.704 51.56 119.624 50.348 119.54 48.884H120.536C120.632 49.856 121.364 50.66 122.576 50.66C123.56 50.66 124.484 50 124.484 48.704C124.484 47.564 123.752 46.76 122.588 46.76C122.072 46.76 121.04 46.904 120.68 47.9L119.708 47.876L119.984 43.1H125.012V44.024H120.908L120.716 46.676C121.232 46.064 121.952 45.872 122.732 45.872ZM128.233 42.812C128.825 42.812 129.273 43.048 129.577 43.52C129.881 43.984 130.033 44.64 130.033 45.488C130.033 46.336 129.885 47 129.589 47.48C129.301 47.952 128.849 48.188 128.233 48.188C127.857 48.188 127.537 48.08 127.273 47.864C127.009 47.648 126.809 47.34 126.673 46.94C126.545 46.532 126.481 46.048 126.481 45.488C126.481 44.64 126.621 43.984 126.901 43.52C127.181 43.048 127.625 42.812 128.233 42.812ZM128.233 43.556C127.929 43.556 127.705 43.72 127.561 44.048C127.425 44.368 127.357 44.848 127.357 45.488C127.357 46.128 127.425 46.612 127.561 46.94C127.705 47.268 127.929 47.432 128.233 47.432C128.545 47.432 128.777 47.272 128.929 46.952C129.081 46.624 129.157 46.136 129.157 45.488C129.157 44.848 129.081 44.368 128.929 44.048C128.777 43.72 128.545 43.556 128.233 43.556ZM133.717 42.932L128.965 51.5H128.041L132.793 42.932H133.717ZM133.477 46.244C133.869 46.244 134.197 46.352 134.461 46.568C134.725 46.776 134.925 47.08 135.061 47.48C135.205 47.872 135.277 48.352 135.277 48.92C135.277 49.768 135.129 50.432 134.833 50.912C134.545 51.384 134.093 51.62 133.477 51.62C133.101 51.62 132.781 51.512 132.517 51.296C132.253 51.08 132.053 50.772 131.917 50.372C131.789 49.964 131.725 49.48 131.725 48.92C131.725 48.072 131.865 47.416 132.145 46.952C132.425 46.48 132.869 46.244 133.477 46.244ZM133.477 47C133.173 47 132.949 47.16 132.805 47.48C132.669 47.8 132.601 48.28 132.601 48.92C132.601 49.568 132.669 50.056 132.805 50.384C132.949 50.704 133.173 50.864 133.477 50.864C133.789 50.864 134.021 50.704 134.173 50.384C134.325 50.064 134.401 49.576 134.401 48.92C134.401 48.28 134.325 47.8 134.173 47.48C134.021 47.16 133.789 47 133.477 47Z" fill="#131313"/>
</svg>
