<svg width="349" height="62" viewBox="0 0 349 62" fill="none" xmlns="http://www.w3.org/2000/svg">
<path d="M10.928 13.936H12.032V16H10.88C9.92 16 9.52 15.728 9.136 15.248C8.288 15.792 7.232 16.096 6.064 16.096C2.768 16.096 0.512 13.664 0.512 10.4C0.512 7.136 2.768 4.704 6.064 4.704C9.36 4.704 11.616 7.136 11.616 10.4C11.616 11.728 11.248 12.928 10.576 13.872C10.672 13.904 10.784 13.936 10.928 13.936ZM2.96 10.4C2.96 12.512 4.176 14.064 6.064 14.064C6.72 14.064 7.296 13.872 7.776 13.536L7.616 13.344C7.376 13.024 7.168 12.848 6.816 12.848H5.776V10.816H6.992C7.936 10.816 8.256 11.152 8.64 11.632L8.896 11.952C9.072 11.488 9.152 10.96 9.152 10.4C9.152 8.288 7.936 6.736 6.064 6.736C4.176 6.736 2.96 8.288 2.96 10.4ZM18.4908 11.888V7.776H20.7468V16H18.7468L18.5388 15.008C18.0108 15.648 17.2908 16.096 16.1228 16.096C14.4268 16.096 12.8588 15.248 12.8588 12.336V7.776H15.1148V12.032C15.1148 13.504 15.5948 14.224 16.7148 14.224C17.8348 14.224 18.4908 13.408 18.4908 11.888ZM26.3793 16.096C23.6432 16.096 21.9953 14.448 21.9953 11.904C21.9953 9.344 23.6753 7.68 26.2193 7.68C28.6833 7.68 30.3472 9.216 30.3793 11.632C30.3793 11.872 30.3633 12.144 30.3153 12.4H24.3473V12.512C24.3953 13.68 25.1473 14.384 26.2833 14.384C27.1953 14.384 27.8353 13.984 28.0273 13.216H30.2513C29.9953 14.816 28.5713 16.096 26.3793 16.096ZM24.3953 10.928H28.1073C27.9473 9.92 27.2593 9.36 26.2352 9.36C25.2593 9.36 24.5233 9.952 24.3953 10.928ZM31.1656 13.264H33.3096C33.3896 13.984 34.0136 14.48 35.1176 14.48C36.0616 14.48 36.6376 14.176 36.6376 13.6C36.6376 12.928 36.0776 12.88 34.7496 12.704C32.8296 12.48 31.3416 12.048 31.3416 10.352C31.3416 8.72 32.7656 7.648 34.8776 7.664C37.0856 7.664 38.6056 8.64 38.7176 10.32H36.5576C36.4936 9.664 35.8696 9.264 34.9576 9.264C34.0776 9.264 33.5016 9.584 33.5016 10.112C33.5016 10.736 34.2056 10.8 35.3896 10.944C37.2776 11.136 38.8456 11.568 38.8456 13.424C38.8456 15.056 37.3096 16.096 35.1016 16.096C32.8136 16.096 31.2616 15.024 31.1656 13.264ZM40.626 13.648V9.68H39.266V7.776H40.626V5.472H42.882V7.776H44.77V9.68H42.882V13.28C42.882 13.856 43.106 14.096 43.698 14.096H44.818V16H42.978C41.41 16 40.626 15.216 40.626 13.648ZM46.9981 6.896C46.2621 6.896 45.6861 6.352 45.6861 5.632C45.6861 4.896 46.2621 4.352 46.9981 4.352C47.7341 4.352 48.3101 4.896 48.3101 5.632C48.3101 6.352 47.7341 6.896 46.9981 6.896ZM45.8621 16V7.776H48.1341V16H45.8621ZM53.7063 16.096C51.0823 16.096 49.3703 14.416 49.3703 11.888C49.3703 9.36 51.0823 7.68 53.7063 7.68C56.3303 7.68 58.0423 9.36 58.0423 11.888C58.0423 14.432 56.3303 16.096 53.7063 16.096ZM53.7063 14.256C54.9703 14.256 55.7543 13.28 55.7543 11.888C55.7543 10.496 54.9703 9.52 53.7063 9.52C52.4423 9.52 51.6743 10.496 51.6743 11.888C51.6743 13.28 52.4423 14.256 53.7063 14.256ZM64.004 7.68C65.78 7.68 67.3 8.624 67.3 11.44V16H65.044V11.664C65.044 10.272 64.516 9.536 63.38 9.536C62.212 9.536 61.54 10.368 61.54 11.792V16H59.284V7.776H61.252L61.46 8.8C61.988 8.16 62.74 7.68 64.004 7.68ZM72.0503 6.752V4.8H80.2583V6.288L75.3303 16H72.8343L77.7303 6.752H72.0503ZM79.5146 14.768C79.5146 13.984 80.0906 13.424 80.8746 13.424C81.6426 13.424 82.2346 13.984 82.2346 14.768C82.2346 15.536 81.6426 16.096 80.8746 16.096C80.0906 16.096 79.5146 15.536 79.5146 14.768ZM87.6238 8.368C89.8798 8.368 91.3998 9.92 91.3998 12.208C91.3998 14.784 89.4798 16.096 87.1598 16.096C84.5678 16.096 82.9678 14.448 82.8717 12.4H85.1598C85.2718 13.408 85.9758 14.208 87.1758 14.208C88.1518 14.208 89.0798 13.536 89.0798 12.208C89.0798 11.024 88.3278 10.192 87.1598 10.192C86.5358 10.192 85.6718 10.432 85.2718 11.36H83.0478L83.3678 4.8H90.7278V6.736H85.4638L85.3358 9.184C85.8958 8.672 86.6318 8.368 87.6238 8.368ZM96.6088 11.616C96.6088 10.7413 96.6888 9.888 96.8488 9.056C97.0194 8.224 97.2808 7.42933 97.6328 6.672C97.9848 5.91467 98.4274 5.216 98.9608 4.576H100.289C99.7981 5.23733 99.3821 5.952 99.0408 6.72C98.7101 7.488 98.4594 8.28267 98.2888 9.104C98.1181 9.92533 98.0328 10.7573 98.0328 11.6C98.0328 12.4213 98.1181 13.2373 98.2888 14.048C98.4594 14.8587 98.7101 15.6373 99.0408 16.384C99.3714 17.1413 99.7821 17.856 100.273 18.528H98.9608C98.4274 17.8987 97.9848 17.2107 97.6328 16.464C97.2808 15.728 97.0194 14.9493 96.8488 14.128C96.6888 13.3067 96.6088 12.4693 96.6088 11.616ZM105.134 11.856L100.91 4.8H102.542L105.838 10.352L109.182 4.8H110.75L106.526 11.856V16H105.134V11.856ZM114.156 16.096C111.708 16.096 110.108 14.416 110.108 11.92C110.108 9.44 111.676 7.744 113.98 7.744C116.284 7.744 117.788 9.2 117.852 11.616C117.852 11.792 117.836 11.984 117.82 12.176H111.484V12.288C111.532 13.84 112.508 14.928 114.06 14.928C115.212 14.928 116.108 14.32 116.38 13.264H117.708C117.388 14.896 116.044 16.096 114.156 16.096ZM111.564 11.088H116.444C116.316 9.68 115.356 8.896 113.996 8.896C112.796 8.896 111.692 9.76 111.564 11.088ZM118.982 13.312H120.326C120.374 14.272 121.222 14.976 122.582 14.976C123.734 14.976 124.55 14.48 124.55 13.728C124.55 12.704 123.654 12.624 122.438 12.48C120.614 12.256 119.158 11.888 119.158 10.192C119.158 8.704 120.518 7.728 122.358 7.744C124.214 7.76 125.558 8.624 125.686 10.32H124.342C124.246 9.488 123.478 8.864 122.358 8.864C121.222 8.864 120.454 9.344 120.454 10.096C120.454 10.992 121.318 11.104 122.502 11.248C124.358 11.472 125.846 11.824 125.846 13.632C125.846 15.152 124.39 16.096 122.582 16.096C120.47 16.096 119.014 15.104 118.982 13.312ZM130.566 11.616C130.566 12.4693 130.481 13.3067 130.31 14.128C130.15 14.9493 129.894 15.728 129.542 16.464C129.201 17.2107 128.758 17.8987 128.214 18.528H126.902C127.393 17.856 127.804 17.1413 128.134 16.384C128.465 15.6373 128.716 14.8587 128.886 14.048C129.057 13.2373 129.142 12.4213 129.142 11.6C129.142 10.7573 129.057 9.92533 128.886 9.104C128.716 8.28267 128.465 7.488 128.134 6.72C127.804 5.952 127.388 5.23733 126.886 4.576H128.214C128.758 5.216 129.201 5.91467 129.542 6.672C129.894 7.42933 130.15 8.224 130.31 9.056C130.481 9.888 130.566 10.7413 130.566 11.616Z" fill="#131313"/>
<path d="M348.033 5.375L348.033 6.75L346.715 6.75L346.715 5.375L348.033 5.375Z" fill="#131313"/>
<path d="M334.85 5.375L334.85 6.75L333.532 6.75L333.532 5.375L334.85 5.375Z" fill="#131313"/>
<path d="M346.715 4L346.715 5.375L345.397 5.375L345.397 4L346.715 4Z" fill="#131313"/>
<path d="M336.169 4L336.169 5.375L334.85 5.375L334.85 4L336.169 4Z" fill="#131313"/>
<path d="M346.715 5.375L346.715 6.75L345.397 6.75L345.397 5.375L346.715 5.375Z" fill="#131313"/>
<path d="M336.169 5.375L336.169 6.75L334.85 6.75L334.85 5.375L336.169 5.375Z" fill="#131313"/>
<path d="M345.397 5.375L345.397 6.75L344.079 6.75L344.079 5.375L345.397 5.375Z" fill="#131313"/>
<path d="M337.487 5.375L337.487 6.75L336.169 6.75L336.169 5.375L337.487 5.375Z" fill="#131313"/>
<path d="M346.715 6.75L346.715 8.125L345.397 8.125L345.397 6.75L346.715 6.75Z" fill="#131313"/>
<path d="M336.169 6.75L336.169 8.125L334.85 8.125L334.85 6.75L336.169 6.75Z" fill="#131313"/>
<path d="M345.397 6.75L345.397 8.125L344.079 8.125L344.079 6.75L345.397 6.75Z" fill="#131313"/>
<path d="M337.487 6.75L337.487 8.125L336.169 8.125L336.169 6.75L337.487 6.75Z" fill="#131313"/>
<path d="M344.079 6.75L344.079 8.125L342.76 8.125L342.76 6.75L344.079 6.75Z" fill="#131313"/>
<path d="M346.715 8.125L346.715 9.5L345.397 9.5L345.397 8.125L346.715 8.125Z" fill="#131313"/>
<path d="M336.169 8.125L336.169 9.5L334.85 9.5L334.85 8.125L336.169 8.125Z" fill="#131313"/>
<path d="M345.397 8.125L345.397 9.5L344.079 9.5L344.079 8.125L345.397 8.125Z" fill="#131313"/>
<path d="M337.487 8.125L337.487 9.5L336.169 9.5L336.169 8.125L337.487 8.125Z" fill="#131313"/>
<path d="M344.079 8.125L344.079 9.5L342.76 9.5L342.76 8.125L344.079 8.125Z" fill="#131313"/>
<path d="M342.76 8.125L342.76 9.5L341.442 9.5L341.442 8.125L342.76 8.125Z" fill="#131313"/>
<path d="M340.124 8.125L340.124 9.5L338.805 9.5L338.805 8.125L340.124 8.125Z" fill="#131313"/>
<path d="M338.805 8.125L338.805 9.5L337.487 9.5L337.487 8.125L338.805 8.125Z" fill="#131313"/>
<path d="M338.805 6.75L338.805 8.125L337.487 8.125L337.487 6.75L338.805 6.75Z" fill="#131313"/>
<path d="M345.397 9.5L345.397 10.875L344.079 10.875L344.079 9.5L345.397 9.5Z" fill="#131313"/>
<path d="M337.487 9.5L337.487 10.875L336.169 10.875L336.169 9.5L337.487 9.5Z" fill="#131313"/>
<path d="M344.079 9.5L344.079 10.875L342.76 10.875L342.76 9.5L344.079 9.5Z" fill="#131313"/>
<path d="M342.76 9.5L342.76 10.875L341.442 10.875L341.442 9.5L342.76 9.5Z" fill="#131313"/>
<path d="M340.124 9.5L340.124 10.875L338.805 10.875L338.805 9.5L340.124 9.5Z" fill="#131313"/>
<path d="M338.805 9.5L338.805 10.875L337.487 10.875L337.487 9.5L338.805 9.5Z" fill="#131313"/>
<path d="M341.442 9.5L341.442 10.875L340.124 10.875L340.124 9.5L341.442 9.5Z" fill="#131313"/>
<path d="M344.079 10.875L344.079 12.25L342.76 12.25L342.76 10.875L344.079 10.875Z" fill="#131313"/>
<path d="M342.76 10.875L342.76 12.25L341.442 12.25L341.442 10.875L342.76 10.875Z" fill="#131313"/>
<path d="M340.124 10.875L340.124 12.25L338.805 12.25L338.805 10.875L340.124 10.875Z" fill="#131313"/>
<path d="M338.805 10.875L338.805 12.25L337.487 12.25L337.487 10.875L338.805 10.875Z" fill="#131313"/>
<path d="M341.442 10.875L341.442 12.25L340.124 12.25L340.124 10.875L341.442 10.875Z" fill="#131313"/>
<path d="M342.76 12.25L342.76 13.625L341.442 13.625L341.442 12.25L342.76 12.25Z" fill="#131313"/>
<path d="M341.442 13.625L341.442 15L340.124 15L340.124 13.625L341.442 13.625Z" fill="#131313"/>
<path d="M341.442 12.25L341.442 13.625L340.124 13.625L340.124 12.25L341.442 12.25Z" fill="#131313"/>
<path d="M340.124 12.25L340.124 13.625L338.805 13.625L338.805 12.25L340.124 12.25Z" fill="#131313"/>
<path d="M348.033 6.75L348.033 8.125L346.715 8.125L346.715 6.75L348.033 6.75Z" fill="#131313"/>
<path d="M334.85 6.75L334.85 8.125L333.532 8.125L333.532 6.75L334.85 6.75Z" fill="#131313"/>
<rect x="0.5" y="32.5" width="173" height="29" fill="#FCD290"/>
<rect x="0.5" y="32.5" width="173" height="29" stroke="#131313"/>
<path d="M11.5059 48.38L8.42188 43.1H10.5219L12.4059 46.544L14.3859 43.1H16.3899L13.3059 48.38V51.5H11.5059V48.38ZM18.9251 51.572C16.8731 51.572 15.6371 50.336 15.6371 48.428C15.6371 46.508 16.8971 45.26 18.8051 45.26C20.6531 45.26 21.9011 46.412 21.9251 48.224C21.9251 48.404 21.9131 48.608 21.8771 48.8H17.4011V48.884C17.4371 49.76 18.0011 50.288 18.8531 50.288C19.5371 50.288 20.0171 49.988 20.1611 49.412H21.8291C21.6371 50.612 20.5691 51.572 18.9251 51.572ZM17.4371 47.696H20.2211C20.1011 46.94 19.5851 46.52 18.8171 46.52C18.0851 46.52 17.5331 46.964 17.4371 47.696ZM22.5148 49.448H24.1228C24.1828 49.988 24.6508 50.36 25.4788 50.36C26.1868 50.36 26.6188 50.132 26.6188 49.7C26.6188 49.196 26.1988 49.16 25.2028 49.028C23.7628 48.86 22.6468 48.536 22.6468 47.264C22.6468 46.04 23.7148 45.236 25.2988 45.248C26.9548 45.248 28.0948 45.98 28.1788 47.24H26.5588C26.5108 46.748 26.0428 46.448 25.3588 46.448C24.6988 46.448 24.2668 46.688 24.2668 47.084C24.2668 47.552 24.7948 47.6 25.6828 47.708C27.0988 47.852 28.2748 48.176 28.2748 49.568C28.2748 50.792 27.1228 51.572 25.4668 51.572C23.7508 51.572 22.5868 50.768 22.5148 49.448Z" fill="#131313"/>
<path d="M37.4453 44.024V43.1H43.3733V43.808L39.2453 51.5H38.1533L42.2693 44.024H37.4453ZM48.2462 47.156C49.1822 47.372 49.9262 48.092 49.9262 49.244C49.9262 50.6 48.7622 51.572 46.8662 51.572C44.9702 51.572 43.8062 50.6 43.8062 49.244C43.8062 48.104 44.5382 47.372 45.4862 47.156C44.6822 46.976 44.0462 46.268 44.0462 45.26C44.0462 43.94 45.1502 43.028 46.8662 43.028C48.5822 43.028 49.6862 43.94 49.6862 45.26C49.6862 46.22 49.0622 46.976 48.2462 47.156ZM45.0782 45.26C45.0782 46.088 45.7862 46.64 46.8662 46.64C47.9462 46.64 48.6542 46.088 48.6542 45.26C48.6542 44.444 47.9462 43.892 46.8662 43.892C45.7862 43.892 45.0782 44.444 45.0782 45.26ZM46.8662 50.708C48.0662 50.708 48.8942 50.072 48.8942 49.172C48.8942 48.284 48.0662 47.648 46.8662 47.648C45.6662 47.648 44.8382 48.284 44.8382 49.172C44.8382 50.072 45.6782 50.708 46.8662 50.708ZM50.6985 50.9C50.6985 50.492 50.9865 50.228 51.3825 50.228C51.7785 50.228 52.0665 50.492 52.0665 50.9C52.0665 51.308 51.7785 51.572 51.3825 51.572C50.9865 51.572 50.6985 51.308 50.6985 50.9ZM53.8497 44.012V43.1H54.8337V51.5H53.8257V45.476C53.7057 45.584 53.5137 45.632 53.2497 45.632H51.8937V44.732H53.2617C53.6577 44.732 53.8497 44.432 53.8497 44.012ZM58.006 42.812C58.598 42.812 59.046 43.048 59.35 43.52C59.654 43.984 59.806 44.64 59.806 45.488C59.806 46.336 59.658 47 59.362 47.48C59.074 47.952 58.622 48.188 58.006 48.188C57.63 48.188 57.31 48.08 57.046 47.864C56.782 47.648 56.582 47.34 56.446 46.94C56.318 46.532 56.254 46.048 56.254 45.488C56.254 44.64 56.394 43.984 56.674 43.52C56.954 43.048 57.398 42.812 58.006 42.812ZM58.006 43.556C57.702 43.556 57.478 43.72 57.334 44.048C57.198 44.368 57.13 44.848 57.13 45.488C57.13 46.128 57.198 46.612 57.334 46.94C57.478 47.268 57.702 47.432 58.006 47.432C58.318 47.432 58.55 47.272 58.702 46.952C58.854 46.624 58.93 46.136 58.93 45.488C58.93 44.848 58.854 44.368 58.702 44.048C58.55 43.72 58.318 43.556 58.006 43.556ZM63.49 42.932L58.738 51.5H57.814L62.566 42.932H63.49ZM63.25 46.244C63.642 46.244 63.97 46.352 64.234 46.568C64.498 46.776 64.698 47.08 64.834 47.48C64.978 47.872 65.05 48.352 65.05 48.92C65.05 49.768 64.902 50.432 64.606 50.912C64.318 51.384 63.866 51.62 63.25 51.62C62.874 51.62 62.554 51.512 62.29 51.296C62.026 51.08 61.826 50.772 61.69 50.372C61.562 49.964 61.498 49.48 61.498 48.92C61.498 48.072 61.638 47.416 61.918 46.952C62.198 46.48 62.642 46.244 63.25 46.244ZM63.25 47C62.946 47 62.722 47.16 62.578 47.48C62.442 47.8 62.374 48.28 62.374 48.92C62.374 49.568 62.442 50.056 62.578 50.384C62.722 50.704 62.946 50.864 63.25 50.864C63.562 50.864 63.794 50.704 63.946 50.384C64.098 50.064 64.174 49.576 64.174 48.92C64.174 48.28 64.098 47.8 63.946 47.48C63.794 47.16 63.562 47 63.25 47Z" fill="#131313"/>
<mask id="path-6-inside-1_111_8679" fill="white">
<path d="M174 32H349V62H174V32Z"/>
</mask>
<path d="M174 32H349V62H174V32Z" fill="#89CDFF"/>
<path d="M349 32H350V31H349V32ZM349 62V63H350V62H349ZM174 33H349V31H174V33ZM348 32V62H350V32H348ZM349 61H174V63H349V61Z" fill="#131313" mask="url(#path-6-inside-1_111_8679)"/>
<path d="M184.685 51.5H182.921V43.1H184.553L188.117 48.392V43.1H189.893V51.5H188.249L184.685 46.208V51.5ZM194.204 51.572C192.236 51.572 190.952 50.312 190.952 48.416C190.952 46.52 192.236 45.26 194.204 45.26C196.172 45.26 197.456 46.52 197.456 48.416C197.456 50.324 196.172 51.572 194.204 51.572ZM194.204 50.192C195.152 50.192 195.74 49.46 195.74 48.416C195.74 47.372 195.152 46.64 194.204 46.64C193.256 46.64 192.68 47.372 192.68 48.416C192.68 49.46 193.256 50.192 194.204 50.192Z" fill="#131313"/>
<path d="M206.586 51.5V50.648L209.85 47.816C210.63 47.144 211.278 46.496 211.278 45.584C211.278 44.528 210.558 43.928 209.442 43.928C208.362 43.928 207.642 44.648 207.642 45.8V45.956H206.634V45.74C206.634 44.156 207.75 43.028 209.442 43.028C211.254 43.028 212.31 44.024 212.31 45.536C212.31 46.796 211.494 47.588 210.498 48.44L207.978 50.576H212.37V51.5H206.586ZM214.748 44.012V43.1H215.732V51.5H214.724V45.476C214.604 45.584 214.412 45.632 214.148 45.632H212.792V44.732H214.16C214.556 44.732 214.748 44.432 214.748 44.012ZM217.116 50.9C217.116 50.492 217.404 50.228 217.8 50.228C218.196 50.228 218.484 50.492 218.484 50.9C218.484 51.308 218.196 51.572 217.8 51.572C217.404 51.572 217.116 51.308 217.116 50.9ZM222 51.572C220.476 51.572 219.432 50.66 219.228 49.256H220.236C220.428 50.108 221.028 50.684 222.048 50.684C223.512 50.684 224.316 49.352 224.316 47.456C224.316 47.336 224.316 47.252 224.304 47.048C224.292 47.096 224.28 47.168 224.232 47.276C223.86 48.104 223.02 48.656 221.892 48.656C220.236 48.656 219.072 47.564 219.072 45.848C219.072 44.228 220.26 43.028 221.988 43.028C223.152 43.028 224.004 43.556 224.532 44.42C224.952 45.152 225.192 46.16 225.192 47.264C225.192 49.904 224.004 51.572 222 51.572ZM221.964 47.768C223.128 47.768 223.92 46.976 223.92 45.824C223.92 44.696 223.152 43.916 222 43.916C220.836 43.916 220.08 44.72 220.08 45.848C220.08 46.964 220.8 47.768 221.964 47.768ZM228.045 42.812C228.637 42.812 229.085 43.048 229.389 43.52C229.693 43.984 229.845 44.64 229.845 45.488C229.845 46.336 229.697 47 229.401 47.48C229.113 47.952 228.661 48.188 228.045 48.188C227.669 48.188 227.349 48.08 227.085 47.864C226.821 47.648 226.621 47.34 226.485 46.94C226.357 46.532 226.293 46.048 226.293 45.488C226.293 44.64 226.433 43.984 226.713 43.52C226.993 43.048 227.437 42.812 228.045 42.812ZM228.045 43.556C227.741 43.556 227.517 43.72 227.373 44.048C227.237 44.368 227.169 44.848 227.169 45.488C227.169 46.128 227.237 46.612 227.373 46.94C227.517 47.268 227.741 47.432 228.045 47.432C228.357 47.432 228.589 47.272 228.741 46.952C228.893 46.624 228.969 46.136 228.969 45.488C228.969 44.848 228.893 44.368 228.741 44.048C228.589 43.72 228.357 43.556 228.045 43.556ZM233.529 42.932L228.777 51.5H227.853L232.605 42.932H233.529ZM233.289 46.244C233.681 46.244 234.009 46.352 234.273 46.568C234.537 46.776 234.737 47.08 234.873 47.48C235.017 47.872 235.089 48.352 235.089 48.92C235.089 49.768 234.941 50.432 234.645 50.912C234.357 51.384 233.905 51.62 233.289 51.62C232.913 51.62 232.593 51.512 232.329 51.296C232.065 51.08 231.865 50.772 231.729 50.372C231.601 49.964 231.537 49.48 231.537 48.92C231.537 48.072 231.677 47.416 231.957 46.952C232.237 46.48 232.681 46.244 233.289 46.244ZM233.289 47C232.985 47 232.761 47.16 232.617 47.48C232.481 47.8 232.413 48.28 232.413 48.92C232.413 49.568 232.481 50.056 232.617 50.384C232.761 50.704 232.985 50.864 233.289 50.864C233.601 50.864 233.833 50.704 233.985 50.384C234.137 50.064 234.213 49.576 234.213 48.92C234.213 48.28 234.137 47.8 233.985 47.48C233.833 47.16 233.601 47 233.289 47Z" fill="#131313"/>
</svg>
