<svg width="349" height="62" viewBox="0 0 349 62" fill="none" xmlns="http://www.w3.org/2000/svg">
<path d="M10.928 13.936H12.032V16H10.88C9.92 16 9.52 15.728 9.136 15.248C8.288 15.792 7.232 16.096 6.064 16.096C2.768 16.096 0.512 13.664 0.512 10.4C0.512 7.136 2.768 4.704 6.064 4.704C9.36 4.704 11.616 7.136 11.616 10.4C11.616 11.728 11.248 12.928 10.576 13.872C10.672 13.904 10.784 13.936 10.928 13.936ZM2.96 10.4C2.96 12.512 4.176 14.064 6.064 14.064C6.72 14.064 7.296 13.872 7.776 13.536L7.616 13.344C7.376 13.024 7.168 12.848 6.816 12.848H5.776V10.816H6.992C7.936 10.816 8.256 11.152 8.64 11.632L8.896 11.952C9.072 11.488 9.152 10.96 9.152 10.4C9.152 8.288 7.936 6.736 6.064 6.736C4.176 6.736 2.96 8.288 2.96 10.4ZM18.4908 11.888V7.776H20.7468V16H18.7468L18.5388 15.008C18.0108 15.648 17.2908 16.096 16.1228 16.096C14.4268 16.096 12.8588 15.248 12.8588 12.336V7.776H15.1148V12.032C15.1148 13.504 15.5948 14.224 16.7148 14.224C17.8348 14.224 18.4908 13.408 18.4908 11.888ZM26.3793 16.096C23.6432 16.096 21.9953 14.448 21.9953 11.904C21.9953 9.344 23.6753 7.68 26.2193 7.68C28.6833 7.68 30.3472 9.216 30.3793 11.632C30.3793 11.872 30.3633 12.144 30.3153 12.4H24.3473V12.512C24.3953 13.68 25.1473 14.384 26.2833 14.384C27.1953 14.384 27.8353 13.984 28.0273 13.216H30.2513C29.9953 14.816 28.5713 16.096 26.3793 16.096ZM24.3953 10.928H28.1073C27.9473 9.92 27.2593 9.36 26.2352 9.36C25.2593 9.36 24.5233 9.952 24.3953 10.928ZM31.1656 13.264H33.3096C33.3896 13.984 34.0136 14.48 35.1176 14.48C36.0616 14.48 36.6376 14.176 36.6376 13.6C36.6376 12.928 36.0776 12.88 34.7496 12.704C32.8296 12.48 31.3416 12.048 31.3416 10.352C31.3416 8.72 32.7656 7.648 34.8776 7.664C37.0856 7.664 38.6056 8.64 38.7176 10.32H36.5576C36.4936 9.664 35.8696 9.264 34.9576 9.264C34.0776 9.264 33.5016 9.584 33.5016 10.112C33.5016 10.736 34.2056 10.8 35.3896 10.944C37.2776 11.136 38.8456 11.568 38.8456 13.424C38.8456 15.056 37.3096 16.096 35.1016 16.096C32.8136 16.096 31.2616 15.024 31.1656 13.264ZM40.626 13.648V9.68H39.266V7.776H40.626V5.472H42.882V7.776H44.77V9.68H42.882V13.28C42.882 13.856 43.106 14.096 43.698 14.096H44.818V16H42.978C41.41 16 40.626 15.216 40.626 13.648ZM46.9981 6.896C46.2621 6.896 45.6861 6.352 45.6861 5.632C45.6861 4.896 46.2621 4.352 46.9981 4.352C47.7341 4.352 48.3101 4.896 48.3101 5.632C48.3101 6.352 47.7341 6.896 46.9981 6.896ZM45.8621 16V7.776H48.1341V16H45.8621ZM53.7063 16.096C51.0823 16.096 49.3703 14.416 49.3703 11.888C49.3703 9.36 51.0823 7.68 53.7063 7.68C56.3303 7.68 58.0423 9.36 58.0423 11.888C58.0423 14.432 56.3303 16.096 53.7063 16.096ZM53.7063 14.256C54.9703 14.256 55.7543 13.28 55.7543 11.888C55.7543 10.496 54.9703 9.52 53.7063 9.52C52.4423 9.52 51.6743 10.496 51.6743 11.888C51.6743 13.28 52.4423 14.256 53.7063 14.256ZM64.004 7.68C65.78 7.68 67.3 8.624 67.3 11.44V16H65.044V11.664C65.044 10.272 64.516 9.536 63.38 9.536C62.212 9.536 61.54 10.368 61.54 11.792V16H59.284V7.776H61.252L61.46 8.8C61.988 8.16 62.74 7.68 64.004 7.68ZM72.0503 6.752V4.8H80.2583V6.288L75.3303 16H72.8343L77.7303 6.752H72.0503ZM90.6306 12.368H85.0306V10.528H90.6306V12.368ZM95.8744 12.336H97.3144C97.4264 13.84 98.5944 14.832 100.306 14.832C101.81 14.832 102.882 14.144 102.882 12.928C102.882 11.536 101.506 11.248 99.8104 10.96C98.0024 10.656 96.1464 10.064 96.1464 7.888C96.1464 5.984 97.6984 4.704 99.9704 4.704C102.466 4.704 104.002 6.096 104.13 8.112H102.69C102.53 6.816 101.49 5.968 99.9704 5.968C98.5144 5.968 97.5384 6.608 97.5384 7.808C97.5384 9.152 98.8984 9.424 100.578 9.712C102.402 10.016 104.274 10.624 104.274 12.8C104.274 14.736 102.642 16.096 100.29 16.096C97.5544 16.096 95.9544 14.544 95.8744 12.336ZM111.561 11.92V7.84H112.873V16H111.737L111.561 14.912C111.081 15.52 110.297 16.096 108.953 16.096C107.161 16.096 105.737 15.088 105.737 12.384V7.84H107.049V12.304C107.049 14 107.817 14.896 109.177 14.896C110.665 14.896 111.561 13.76 111.561 11.92ZM118.438 7.84H118.806V9.12H118.15C116.438 9.12 115.974 10.544 115.974 11.84V16H114.662V7.84H115.798L115.974 9.072C116.358 8.448 116.982 7.84 118.438 7.84ZM122.339 16L119.283 7.84H120.691L123.155 14.512L125.603 7.84H126.979L123.923 16H122.339ZM128.631 6.464C128.151 6.464 127.783 6.112 127.783 5.616C127.783 5.12 128.151 4.768 128.631 4.768C129.111 4.768 129.479 5.12 129.479 5.616C129.479 6.112 129.111 6.464 128.631 6.464ZM127.959 16V7.84H129.271V16H127.959ZM133.308 16L130.252 7.84H131.66L134.124 14.512L136.572 7.84H137.948L134.892 16H133.308ZM145.753 14.8H146.169V16H145.449C144.361 16 143.993 15.536 143.977 14.736C143.465 15.472 142.649 16.096 141.241 16.096C139.449 16.096 138.233 15.2 138.233 13.712C138.233 12.08 139.369 11.168 141.513 11.168H143.913V10.608C143.913 9.552 143.161 8.912 141.881 8.912C140.729 8.912 139.961 9.456 139.801 10.288H138.489C138.681 8.688 139.977 7.744 141.945 7.744C144.025 7.744 145.225 8.784 145.225 10.688V14.256C145.225 14.688 145.385 14.8 145.753 14.8ZM143.913 12.672V12.272H141.385C140.217 12.272 139.561 12.704 139.561 13.632C139.561 14.432 140.249 14.976 141.337 14.976C142.969 14.976 143.913 14.032 143.913 12.672ZM147.177 16V4.8H148.489V16H147.177ZM158.234 16.096C155.85 16.096 154.186 14.4 154.186 11.92C154.186 9.44 155.85 7.744 158.234 7.744C160.618 7.744 162.282 9.44 162.282 11.92C162.282 14.4 160.618 16.096 158.234 16.096ZM158.234 14.928C159.85 14.928 160.938 13.664 160.938 11.92C160.938 10.176 159.85 8.912 158.234 8.912C156.618 8.912 155.53 10.176 155.53 11.92C155.53 13.664 156.618 14.928 158.234 14.928ZM162.829 9.04V7.84H164.301V6.928C164.301 5.488 164.909 4.8 166.429 4.8H167.917V6H166.509C165.853 6 165.613 6.272 165.613 6.896V7.84H167.917V9.04H165.613V16H164.301V9.04H162.829ZM173.66 13.872V9.04H172.188V7.84H173.66V5.552H174.972V7.84H177.084V9.04H174.972V13.856C174.972 14.544 175.212 14.8 175.916 14.8H177.212V16H175.788C174.22 16 173.66 15.312 173.66 13.872ZM182.349 7.744C184.173 7.744 185.661 8.752 185.661 11.456V16H184.349V11.536C184.349 9.84 183.533 8.944 182.125 8.944C180.605 8.944 179.661 10.08 179.661 11.92V16H178.349V4.8H179.661V9.184C180.141 8.416 180.973 7.744 182.349 7.744ZM191 16.096C188.552 16.096 186.952 14.416 186.952 11.92C186.952 9.44 188.52 7.744 190.824 7.744C193.128 7.744 194.632 9.2 194.696 11.616C194.696 11.792 194.68 11.984 194.664 12.176H188.328V12.288C188.376 13.84 189.352 14.928 190.904 14.928C192.056 14.928 192.952 14.32 193.224 13.264H194.552C194.232 14.896 192.888 16.096 191 16.096ZM188.408 11.088H193.288C193.16 9.68 192.2 8.896 190.84 8.896C189.64 8.896 188.536 9.76 188.408 11.088ZM199.516 9.04V7.84H200.988V6.928C200.988 5.488 201.596 4.8 203.116 4.8H204.604V6H203.196C202.54 6 202.3 6.272 202.3 6.896V7.84H204.604V9.04H202.3V16H200.988V9.04H199.516ZM206.224 6.464C205.744 6.464 205.376 6.112 205.376 5.616C205.376 5.12 205.744 4.768 206.224 4.768C206.704 4.768 207.072 5.12 207.072 5.616C207.072 6.112 206.704 6.464 206.224 6.464ZM205.552 16V7.84H206.864V16H205.552ZM209.27 13.872V9.04H207.798V7.84H209.27V5.552H210.582V7.84H212.694V9.04H210.582V13.856C210.582 14.544 210.822 14.8 211.526 14.8H212.822V16H211.398C209.83 16 209.27 15.312 209.27 13.872ZM214.723 13.872V9.04H213.251V7.84H214.723V5.552H216.035V7.84H218.147V9.04H216.035V13.856C216.035 14.544 216.275 14.8 216.979 14.8H218.275V16H216.851C215.283 16 214.723 15.312 214.723 13.872ZM222.969 16.096C220.521 16.096 218.921 14.416 218.921 11.92C218.921 9.44 220.489 7.744 222.793 7.744C225.097 7.744 226.601 9.2 226.665 11.616C226.665 11.792 226.649 11.984 226.633 12.176H220.297V12.288C220.345 13.84 221.321 14.928 222.873 14.928C224.025 14.928 224.921 14.32 225.193 13.264H226.521C226.201 14.896 224.857 16.096 222.969 16.096ZM220.377 11.088H225.257C225.129 9.68 224.169 8.896 222.809 8.896C221.609 8.896 220.505 9.76 220.377 11.088ZM227.794 13.312H229.138C229.186 14.272 230.034 14.976 231.394 14.976C232.546 14.976 233.362 14.48 233.362 13.728C233.362 12.704 232.466 12.624 231.25 12.48C229.426 12.256 227.97 11.888 227.97 10.192C227.97 8.704 229.33 7.728 231.17 7.744C233.026 7.76 234.37 8.624 234.498 10.32H233.154C233.058 9.488 232.29 8.864 231.17 8.864C230.034 8.864 229.266 9.344 229.266 10.096C229.266 10.992 230.13 11.104 231.314 11.248C233.17 11.472 234.658 11.824 234.658 13.632C234.658 15.152 233.202 16.096 231.394 16.096C229.282 16.096 227.826 15.104 227.794 13.312ZM236.723 13.872V9.04H235.251V7.84H236.723V5.552H238.035V7.84H240.147V9.04H238.035V13.856C238.035 14.544 238.275 14.8 238.979 14.8H240.275V16H238.851C237.283 16 236.723 15.312 236.723 13.872Z" fill="#131313"/>
<path d="M348.033 5.375L348.033 6.75L346.715 6.75L346.715 5.375L348.033 5.375Z" fill="#131313"/>
<path d="M334.85 5.375L334.85 6.75L333.532 6.75L333.532 5.375L334.85 5.375Z" fill="#131313"/>
<path d="M346.715 4L346.715 5.375L345.397 5.375L345.397 4L346.715 4Z" fill="#131313"/>
<path d="M336.169 4L336.169 5.375L334.85 5.375L334.85 4L336.169 4Z" fill="#131313"/>
<path d="M346.715 5.375L346.715 6.75L345.397 6.75L345.397 5.375L346.715 5.375Z" fill="#131313"/>
<path d="M336.169 5.375L336.169 6.75L334.85 6.75L334.85 5.375L336.169 5.375Z" fill="#131313"/>
<path d="M345.397 5.375L345.397 6.75L344.079 6.75L344.079 5.375L345.397 5.375Z" fill="#131313"/>
<path d="M337.487 5.375L337.487 6.75L336.169 6.75L336.169 5.375L337.487 5.375Z" fill="#131313"/>
<path d="M346.715 6.75L346.715 8.125L345.397 8.125L345.397 6.75L346.715 6.75Z" fill="#131313"/>
<path d="M336.169 6.75L336.169 8.125L334.85 8.125L334.85 6.75L336.169 6.75Z" fill="#131313"/>
<path d="M345.397 6.75L345.397 8.125L344.079 8.125L344.079 6.75L345.397 6.75Z" fill="#131313"/>
<path d="M337.487 6.75L337.487 8.125L336.169 8.125L336.169 6.75L337.487 6.75Z" fill="#131313"/>
<path d="M344.079 6.75L344.079 8.125L342.76 8.125L342.76 6.75L344.079 6.75Z" fill="#131313"/>
<path d="M346.715 8.125L346.715 9.5L345.397 9.5L345.397 8.125L346.715 8.125Z" fill="#131313"/>
<path d="M336.169 8.125L336.169 9.5L334.85 9.5L334.85 8.125L336.169 8.125Z" fill="#131313"/>
<path d="M345.397 8.125L345.397 9.5L344.079 9.5L344.079 8.125L345.397 8.125Z" fill="#131313"/>
<path d="M337.487 8.125L337.487 9.5L336.169 9.5L336.169 8.125L337.487 8.125Z" fill="#131313"/>
<path d="M344.079 8.125L344.079 9.5L342.76 9.5L342.76 8.125L344.079 8.125Z" fill="#131313"/>
<path d="M342.76 8.125L342.76 9.5L341.442 9.5L341.442 8.125L342.76 8.125Z" fill="#131313"/>
<path d="M340.124 8.125L340.124 9.5L338.805 9.5L338.805 8.125L340.124 8.125Z" fill="#131313"/>
<path d="M338.805 8.125L338.805 9.5L337.487 9.5L337.487 8.125L338.805 8.125Z" fill="#131313"/>
<path d="M338.805 6.75L338.805 8.125L337.487 8.125L337.487 6.75L338.805 6.75Z" fill="#131313"/>
<path d="M345.397 9.5L345.397 10.875L344.079 10.875L344.079 9.5L345.397 9.5Z" fill="#131313"/>
<path d="M337.487 9.5L337.487 10.875L336.169 10.875L336.169 9.5L337.487 9.5Z" fill="#131313"/>
<path d="M344.079 9.5L344.079 10.875L342.76 10.875L342.76 9.5L344.079 9.5Z" fill="#131313"/>
<path d="M342.76 9.5L342.76 10.875L341.442 10.875L341.442 9.5L342.76 9.5Z" fill="#131313"/>
<path d="M340.124 9.5L340.124 10.875L338.805 10.875L338.805 9.5L340.124 9.5Z" fill="#131313"/>
<path d="M338.805 9.5L338.805 10.875L337.487 10.875L337.487 9.5L338.805 9.5Z" fill="#131313"/>
<path d="M341.442 9.5L341.442 10.875L340.124 10.875L340.124 9.5L341.442 9.5Z" fill="#131313"/>
<path d="M344.079 10.875L344.079 12.25L342.76 12.25L342.76 10.875L344.079 10.875Z" fill="#131313"/>
<path d="M342.76 10.875L342.76 12.25L341.442 12.25L341.442 10.875L342.76 10.875Z" fill="#131313"/>
<path d="M340.124 10.875L340.124 12.25L338.805 12.25L338.805 10.875L340.124 10.875Z" fill="#131313"/>
<path d="M338.805 10.875L338.805 12.25L337.487 12.25L337.487 10.875L338.805 10.875Z" fill="#131313"/>
<path d="M341.442 10.875L341.442 12.25L340.124 12.25L340.124 10.875L341.442 10.875Z" fill="#131313"/>
<path d="M342.76 12.25L342.76 13.625L341.442 13.625L341.442 12.25L342.76 12.25Z" fill="#131313"/>
<path d="M341.442 13.625L341.442 15L340.124 15L340.124 13.625L341.442 13.625Z" fill="#131313"/>
<path d="M341.442 12.25L341.442 13.625L340.124 13.625L340.124 12.25L341.442 12.25Z" fill="#131313"/>
<path d="M340.124 12.25L340.124 13.625L338.805 13.625L338.805 12.25L340.124 12.25Z" fill="#131313"/>
<path d="M348.033 6.75L348.033 8.125L346.715 8.125L346.715 6.75L348.033 6.75Z" fill="#131313"/>
<path d="M334.85 6.75L334.85 8.125L333.532 8.125L333.532 6.75L334.85 6.75Z" fill="#131313"/>
<rect x="0.5" y="32.5" width="243" height="29" fill="#FD9DAF"/>
<rect x="0.5" y="32.5" width="243" height="29" stroke="#131313"/>
<path d="M11.5059 48.38L8.42188 43.1H10.5219L12.4059 46.544L14.3859 43.1H16.3899L13.3059 48.38V51.5H11.5059V48.38ZM18.9251 51.572C16.8731 51.572 15.6371 50.336 15.6371 48.428C15.6371 46.508 16.8971 45.26 18.8051 45.26C20.6531 45.26 21.9011 46.412 21.9251 48.224C21.9251 48.404 21.9131 48.608 21.8771 48.8H17.4011V48.884C17.4371 49.76 18.0011 50.288 18.8531 50.288C19.5371 50.288 20.0171 49.988 20.1611 49.412H21.8291C21.6371 50.612 20.5691 51.572 18.9251 51.572ZM17.4371 47.696H20.2211C20.1011 46.94 19.5851 46.52 18.8171 46.52C18.0851 46.52 17.5331 46.964 17.4371 47.696ZM22.5148 49.448H24.1228C24.1828 49.988 24.6508 50.36 25.4788 50.36C26.1868 50.36 26.6188 50.132 26.6188 49.7C26.6188 49.196 26.1988 49.16 25.2028 49.028C23.7628 48.86 22.6468 48.536 22.6468 47.264C22.6468 46.04 23.7148 45.236 25.2988 45.248C26.9548 45.248 28.0948 45.98 28.1788 47.24H26.5588C26.5108 46.748 26.0428 46.448 25.3588 46.448C24.6988 46.448 24.2668 46.688 24.2668 47.084C24.2668 47.552 24.7948 47.6 25.6828 47.708C27.0988 47.852 28.2748 48.176 28.2748 49.568C28.2748 50.792 27.1228 51.572 25.4668 51.572C23.7508 51.572 22.5868 50.768 22.5148 49.448Z" fill="#131313"/>
<path d="M38.2073 50.18C37.7873 49.448 37.5473 48.44 37.5473 47.336C37.5473 44.696 38.7353 43.028 40.7393 43.028C42.2633 43.028 43.3073 43.94 43.5113 45.344H42.5033C42.3113 44.492 41.7113 43.916 40.6913 43.916C39.2273 43.916 38.4233 45.248 38.4233 47.144C38.4233 47.264 38.4233 47.348 38.4353 47.552C38.4473 47.504 38.4593 47.432 38.5073 47.324C38.8793 46.496 39.7193 45.944 40.8473 45.944C42.5033 45.944 43.6673 47.036 43.6673 48.752C43.6673 50.372 42.4793 51.572 40.7513 51.572C39.5873 51.572 38.7353 51.044 38.2073 50.18ZM42.6593 48.752C42.6593 47.636 41.9393 46.832 40.7753 46.832C39.6113 46.832 38.8193 47.624 38.8193 48.776C38.8193 49.904 39.5873 50.684 40.7393 50.684C41.9033 50.684 42.6593 49.88 42.6593 48.752ZM44.0059 44.024V43.1H49.9339V43.808L45.8059 51.5H44.7139L48.8299 44.024H44.0059ZM49.6536 50.9C49.6536 50.492 49.9416 50.228 50.3376 50.228C50.7336 50.228 51.0216 50.492 51.0216 50.9C51.0216 51.308 50.7336 51.572 50.3376 51.572C49.9416 51.572 49.6536 51.308 49.6536 50.9ZM51.8382 51.5V50.648L55.1022 47.816C55.8822 47.144 56.5302 46.496 56.5302 45.584C56.5302 44.528 55.8102 43.928 54.6942 43.928C53.6142 43.928 52.8942 44.648 52.8942 45.8V45.956H51.8862V45.74C51.8862 44.156 53.0022 43.028 54.6942 43.028C56.5062 43.028 57.5622 44.024 57.5622 45.536C57.5622 46.796 56.7462 47.588 55.7502 48.44L53.2302 50.576H57.6222V51.5H51.8382ZM60.3361 42.812C60.9281 42.812 61.3761 43.048 61.6801 43.52C61.9841 43.984 62.1361 44.64 62.1361 45.488C62.1361 46.336 61.9881 47 61.6921 47.48C61.4041 47.952 60.9521 48.188 60.3361 48.188C59.9601 48.188 59.6401 48.08 59.3761 47.864C59.1121 47.648 58.9121 47.34 58.7761 46.94C58.6481 46.532 58.5841 46.048 58.5841 45.488C58.5841 44.64 58.7241 43.984 59.0041 43.52C59.2841 43.048 59.7281 42.812 60.3361 42.812ZM60.3361 43.556C60.0321 43.556 59.8081 43.72 59.6641 44.048C59.5281 44.368 59.4601 44.848 59.4601 45.488C59.4601 46.128 59.5281 46.612 59.6641 46.94C59.8081 47.268 60.0321 47.432 60.3361 47.432C60.6481 47.432 60.8801 47.272 61.0321 46.952C61.1841 46.624 61.2601 46.136 61.2601 45.488C61.2601 44.848 61.1841 44.368 61.0321 44.048C60.8801 43.72 60.6481 43.556 60.3361 43.556ZM65.8201 42.932L61.0681 51.5H60.1441L64.8961 42.932H65.8201ZM65.5801 46.244C65.9721 46.244 66.3001 46.352 66.5641 46.568C66.8281 46.776 67.0281 47.08 67.1641 47.48C67.3081 47.872 67.3801 48.352 67.3801 48.92C67.3801 49.768 67.2321 50.432 66.9361 50.912C66.6481 51.384 66.1961 51.62 65.5801 51.62C65.2041 51.62 64.8841 51.512 64.6201 51.296C64.3561 51.08 64.1561 50.772 64.0201 50.372C63.8921 49.964 63.8281 49.48 63.8281 48.92C63.8281 48.072 63.9681 47.416 64.2481 46.952C64.5281 46.48 64.9721 46.244 65.5801 46.244ZM65.5801 47C65.2761 47 65.0521 47.16 64.9081 47.48C64.7721 47.8 64.7041 48.28 64.7041 48.92C64.7041 49.568 64.7721 50.056 64.9081 50.384C65.0521 50.704 65.2761 50.864 65.5801 50.864C65.8921 50.864 66.1241 50.704 66.2761 50.384C66.4281 50.064 66.5041 49.576 66.5041 48.92C66.5041 48.28 66.4281 47.8 66.2761 47.48C66.1241 47.16 65.8921 47 65.5801 47Z" fill="#131313"/>
<mask id="path-6-inside-1_111_8678" fill="white">
<path d="M244 32H349V62H244V32Z"/>
</mask>
<path d="M244 32H349V62H244V32Z" fill="#89CDFF"/>
<path d="M349 32H350V31H349V32ZM349 62V63H350V62H349ZM244 33H349V31H244V33ZM348 32V62H350V32H348ZM349 61H244V63H349V61Z" fill="#131313" mask="url(#path-6-inside-1_111_8678)"/>
<path d="M254.685 51.5H252.921V43.1H254.553L258.117 48.392V43.1H259.893V51.5H258.249L254.685 46.208V51.5ZM264.204 51.572C262.236 51.572 260.952 50.312 260.952 48.416C260.952 46.52 262.236 45.26 264.204 45.26C266.172 45.26 267.456 46.52 267.456 48.416C267.456 50.324 266.172 51.572 264.204 51.572ZM264.204 50.192C265.152 50.192 265.74 49.46 265.74 48.416C265.74 47.372 265.152 46.64 264.204 46.64C263.256 46.64 262.68 47.372 262.68 48.416C262.68 49.46 263.256 50.192 264.204 50.192Z" fill="#131313"/>
<path d="M281.022 47.132C281.79 47.276 282.594 47.888 282.594 49.172C282.594 50.6 281.394 51.572 279.57 51.572C277.746 51.572 276.57 50.576 276.57 48.908H277.566C277.578 50.012 278.442 50.672 279.63 50.672C280.722 50.672 281.562 50.06 281.562 49.1C281.562 48.224 280.842 47.66 279.534 47.66H278.814V46.784H279.474C280.722 46.784 281.346 46.16 281.346 45.308C281.346 44.456 280.578 43.928 279.57 43.928C278.514 43.928 277.746 44.564 277.734 45.524H276.738C276.75 44.048 277.902 43.028 279.558 43.028C281.286 43.028 282.378 43.928 282.378 45.248C282.378 46.304 281.826 46.916 281.022 47.132ZM283.342 51.5V50.648L286.606 47.816C287.386 47.144 288.034 46.496 288.034 45.584C288.034 44.528 287.314 43.928 286.198 43.928C285.118 43.928 284.398 44.648 284.398 45.8V45.956H283.39V45.74C283.39 44.156 284.506 43.028 286.198 43.028C288.01 43.028 289.066 44.024 289.066 45.536C289.066 46.796 288.25 47.588 287.254 48.44L284.734 50.576H289.126V51.5H283.342ZM290.052 50.9C290.052 50.492 290.34 50.228 290.736 50.228C291.132 50.228 291.42 50.492 291.42 50.9C291.42 51.308 291.132 51.572 290.736 51.572C290.34 51.572 290.052 51.308 290.052 50.9ZM296.635 47.156C297.571 47.372 298.315 48.092 298.315 49.244C298.315 50.6 297.151 51.572 295.255 51.572C293.359 51.572 292.195 50.6 292.195 49.244C292.195 48.104 292.927 47.372 293.875 47.156C293.071 46.976 292.435 46.268 292.435 45.26C292.435 43.94 293.539 43.028 295.255 43.028C296.971 43.028 298.075 43.94 298.075 45.26C298.075 46.22 297.451 46.976 296.635 47.156ZM293.467 45.26C293.467 46.088 294.175 46.64 295.255 46.64C296.335 46.64 297.043 46.088 297.043 45.26C297.043 44.444 296.335 43.892 295.255 43.892C294.175 43.892 293.467 44.444 293.467 45.26ZM295.255 50.708C296.455 50.708 297.283 50.072 297.283 49.172C297.283 48.284 296.455 47.648 295.255 47.648C294.055 47.648 293.227 48.284 293.227 49.172C293.227 50.072 294.067 50.708 295.255 50.708ZM301.133 42.812C301.725 42.812 302.173 43.048 302.477 43.52C302.781 43.984 302.933 44.64 302.933 45.488C302.933 46.336 302.785 47 302.489 47.48C302.201 47.952 301.749 48.188 301.133 48.188C300.757 48.188 300.437 48.08 300.173 47.864C299.909 47.648 299.709 47.34 299.573 46.94C299.445 46.532 299.381 46.048 299.381 45.488C299.381 44.64 299.521 43.984 299.801 43.52C300.081 43.048 300.525 42.812 301.133 42.812ZM301.133 43.556C300.829 43.556 300.605 43.72 300.461 44.048C300.325 44.368 300.257 44.848 300.257 45.488C300.257 46.128 300.325 46.612 300.461 46.94C300.605 47.268 300.829 47.432 301.133 47.432C301.445 47.432 301.677 47.272 301.829 46.952C301.981 46.624 302.057 46.136 302.057 45.488C302.057 44.848 301.981 44.368 301.829 44.048C301.677 43.72 301.445 43.556 301.133 43.556ZM306.617 42.932L301.865 51.5H300.941L305.693 42.932H306.617ZM306.377 46.244C306.769 46.244 307.097 46.352 307.361 46.568C307.625 46.776 307.825 47.08 307.961 47.48C308.105 47.872 308.177 48.352 308.177 48.92C308.177 49.768 308.029 50.432 307.733 50.912C307.445 51.384 306.993 51.62 306.377 51.62C306.001 51.62 305.681 51.512 305.417 51.296C305.153 51.08 304.953 50.772 304.817 50.372C304.689 49.964 304.625 49.48 304.625 48.92C304.625 48.072 304.765 47.416 305.045 46.952C305.325 46.48 305.769 46.244 306.377 46.244ZM306.377 47C306.073 47 305.849 47.16 305.705 47.48C305.569 47.8 305.501 48.28 305.501 48.92C305.501 49.568 305.569 50.056 305.705 50.384C305.849 50.704 306.073 50.864 306.377 50.864C306.689 50.864 306.921 50.704 307.073 50.384C307.225 50.064 307.301 49.576 307.301 48.92C307.301 48.28 307.225 47.8 307.073 47.48C306.921 47.16 306.689 47 306.377 47Z" fill="#131313"/>
</svg>
