<svg width="330" height="227" viewBox="0 0 330 227" fill="none" xmlns="http://www.w3.org/2000/svg">
<path d="M2.58 38V7.9H11.051L19.393 30.002L27.477 7.9H35.776V38H29.627V17.833L21.801 38H16.555L8.729 17.833V38H2.58ZM51.3679 38.258C44.0149 38.258 39.5859 33.829 39.5859 26.992C39.5859 20.112 44.1009 15.64 50.9379 15.64C57.5599 15.64 62.0319 19.768 62.1179 26.261C62.1179 26.906 62.0749 27.637 61.9459 28.325H45.9069V28.626C46.0359 31.765 48.0569 33.657 51.1099 33.657C53.5609 33.657 55.2809 32.582 55.7969 30.518H61.7739C61.0859 34.818 57.2589 38.258 51.3679 38.258ZM46.0359 24.369H56.0119C55.5819 21.66 53.7329 20.155 50.9809 20.155C48.3579 20.155 46.3799 21.746 46.0359 24.369ZM78.1162 15.64C82.8892 15.64 86.9742 18.177 86.9742 25.745V38H80.9112V26.347C80.9112 22.606 79.4922 20.628 76.4392 20.628C73.3002 20.628 71.4942 22.864 71.4942 26.691V38H65.4312V15.898H70.7202L71.2792 18.65C72.6982 16.93 74.7192 15.64 78.1162 15.64ZM0.602 76.55V71.433L13.889 52.9H21.414V71.39H25.585V76.55H21.414V83H15.351V76.55H0.602ZM15.351 59.049L6.536 71.39H15.351V59.049ZM27.6241 68.638V67.262C27.6241 58.275 32.7411 52.642 40.0081 52.642C47.3181 52.642 52.4351 58.275 52.4351 67.262V68.638C52.4351 77.797 47.3181 83.258 40.0081 83.258C32.7411 83.258 27.6241 77.797 27.6241 68.638ZM46.2431 68.423V67.477C46.2431 61.285 43.7061 57.888 40.0081 57.888C36.3531 57.888 33.8161 61.285 33.8161 67.477V68.423C33.8161 74.658 36.3531 78.012 40.0081 78.012C43.7061 78.012 46.2431 74.658 46.2431 68.423ZM71.0239 73.239H55.9739V68.294H71.0239V73.239ZM86.9205 62.489C92.9835 62.489 97.0685 66.66 97.0685 72.809C97.0685 79.732 91.9085 83.258 85.6735 83.258C78.7075 83.258 74.4075 78.829 74.1495 73.325H80.2985C80.5995 76.034 82.4915 78.184 85.7165 78.184C88.3395 78.184 90.8335 76.378 90.8335 72.809C90.8335 69.627 88.8125 67.391 85.6735 67.391C83.9965 67.391 81.6745 68.036 80.5995 70.53H74.6225L75.4825 52.9H95.2625V58.103H81.1155L80.7715 64.682C82.2765 63.306 84.2545 62.489 86.9205 62.489ZM110.521 83.258C104.329 83.258 100.33 80.076 99.6418 74.529H105.748C106.264 76.894 108.113 78.27 110.865 78.27C114.864 78.27 117.014 75.045 117.014 69.627C117.014 69.412 117.014 69.154 116.971 68.853L116.326 69.799C114.864 71.82 112.456 72.938 109.618 72.938C103.512 72.938 99.3838 69.025 99.3838 62.876C99.3838 56.899 103.899 52.642 110.607 52.642C114.649 52.642 117.788 54.233 119.895 57.028C121.83 59.608 122.948 63.263 122.948 67.606C122.948 77.582 118.519 83.258 110.521 83.258ZM110.564 68.165C113.617 68.165 115.767 66.015 115.767 62.79C115.767 59.608 113.703 57.501 110.65 57.501C107.597 57.501 105.576 59.651 105.576 62.79C105.576 65.972 107.511 68.165 110.564 68.165ZM13.545 128H2.58V97.9H13.545C22.919 97.9 29.154 104.049 29.154 112.907C29.154 121.722 22.919 128 13.545 128ZM9.03 103.275V122.625H13.545C19.307 122.625 22.532 118.626 22.532 112.907C22.532 107.145 19.307 103.275 13.545 103.275H9.03ZM35.6463 103.533C33.6683 103.533 32.1203 102.071 32.1203 100.136C32.1203 98.158 33.6683 96.696 35.6463 96.696C37.6243 96.696 39.1723 98.158 39.1723 100.136C39.1723 102.071 37.6243 103.533 35.6463 103.533ZM32.5933 128V105.898H38.6993V128H32.5933ZM48.6864 128L40.7314 105.898H47.2244L52.5564 121.808L57.8024 105.898H64.1664L56.2114 128H48.6864ZM75.9303 128.258C68.8783 128.258 64.2773 123.743 64.2773 116.949C64.2773 110.155 68.8783 105.64 75.9303 105.64C82.9823 105.64 87.5833 110.155 87.5833 116.949C87.5833 123.786 82.9823 128.258 75.9303 128.258ZM75.9303 123.313C79.3273 123.313 81.4343 120.69 81.4343 116.949C81.4343 113.208 79.3273 110.585 75.9303 110.585C72.5333 110.585 70.4693 113.208 70.4693 116.949C70.4693 120.69 72.5333 123.313 75.9303 123.313ZM103.347 105.898H104.379V111.402H101.971C98.3595 111.402 96.9835 113.81 96.9835 117.164V128H90.9205V105.898H96.4245L96.9835 109.209C98.1875 107.231 99.9075 105.898 103.347 105.898ZM116.78 128.258C109.771 128.258 105.514 123.915 105.514 116.949C105.514 110.112 109.986 105.64 116.995 105.64C123.015 105.64 126.756 108.908 127.616 114.154H121.295C120.779 111.961 119.274 110.585 116.909 110.585C113.727 110.585 111.706 113.208 111.706 116.949C111.706 120.733 113.727 123.313 116.909 123.313C119.274 123.313 120.865 121.894 121.295 119.658H127.659C126.799 124.947 122.8 128.258 116.78 128.258ZM141.777 128.258C134.424 128.258 129.995 123.829 129.995 116.992C129.995 110.112 134.51 105.64 141.347 105.64C147.969 105.64 152.441 109.768 152.527 116.261C152.527 116.906 152.484 117.637 152.355 118.325H136.316V118.626C136.445 121.765 138.466 123.657 141.519 123.657C143.97 123.657 145.69 122.582 146.206 120.518H152.183C151.495 124.818 147.668 128.258 141.777 128.258ZM136.445 114.369H146.421C145.991 111.66 144.142 110.155 141.39 110.155C138.767 110.155 136.789 111.746 136.445 114.369ZM171.879 108.65V97.9H177.942V128H172.653L172.051 124.947C170.589 126.839 168.439 128.258 165.257 128.258C159.323 128.258 154.98 123.915 154.98 116.906C154.98 110.069 159.323 105.64 165.214 105.64C168.267 105.64 170.46 106.844 171.879 108.65ZM166.59 123.313C169.901 123.313 171.965 120.733 171.965 116.992C171.965 113.208 169.901 110.585 166.59 110.585C163.279 110.585 161.172 113.165 161.172 116.949C161.172 120.733 163.279 123.313 166.59 123.313ZM2.365 160.014V142.9H8.815V160.358C8.815 165.131 10.578 167.711 14.706 167.711C18.877 167.711 20.64 165.131 20.64 160.358V142.9H27.09V160.014C27.09 168.571 22.833 173.258 14.706 173.258C6.622 173.258 2.365 168.571 2.365 160.014ZM44.2285 150.64C49.0015 150.64 53.0865 153.177 53.0865 160.745V173H47.0235V161.347C47.0235 157.606 45.6045 155.628 42.5515 155.628C39.4125 155.628 37.6065 157.864 37.6065 161.691V173H31.5435V150.898H36.8325L37.3915 153.65C38.8105 151.93 40.8315 150.64 44.2285 150.64ZM59.9598 148.533C57.9818 148.533 56.4338 147.071 56.4338 145.136C56.4338 143.158 57.9818 141.696 59.9598 141.696C61.9378 141.696 63.4858 143.158 63.4858 145.136C63.4858 147.071 61.9378 148.533 59.9598 148.533ZM56.9068 173V150.898H63.0128V173H56.9068ZM68.7859 166.679V156.015H65.1309V150.898H68.7859V144.706H74.8489V150.898H79.9229V156.015H74.8489V165.69C74.8489 167.238 75.4509 167.883 77.0419 167.883H80.0519V173H75.1069C70.8929 173 68.7859 170.893 68.7859 166.679ZM93.444 173.258C86.091 173.258 81.662 168.829 81.662 161.992C81.662 155.112 86.177 150.64 93.014 150.64C99.636 150.64 104.108 154.768 104.194 161.261C104.194 161.906 104.151 162.637 104.022 163.325H87.983V163.626C88.112 166.765 90.133 168.657 93.186 168.657C95.637 168.657 97.357 167.582 97.873 165.518H103.85C103.162 169.818 99.335 173.258 93.444 173.258ZM88.112 159.369H98.088C97.658 156.66 95.809 155.155 93.057 155.155C90.434 155.155 88.456 156.746 88.112 159.369ZM123.546 153.65V142.9H129.609V173H124.32L123.718 169.947C122.256 171.839 120.106 173.258 116.924 173.258C110.99 173.258 106.647 168.915 106.647 161.906C106.647 155.069 110.99 150.64 116.881 150.64C119.934 150.64 122.127 151.844 123.546 153.65ZM118.257 168.313C121.568 168.313 123.632 165.733 123.632 161.992C123.632 158.208 121.568 155.585 118.257 155.585C114.946 155.585 112.839 158.165 112.839 161.949C112.839 165.733 114.946 168.313 118.257 168.313ZM143.772 163.11L150.093 163.196C150.308 166.12 152.63 168.141 156.328 168.141C159.295 168.141 161.488 166.851 161.488 164.486C161.488 161.949 159.037 161.433 154.006 160.444C148.932 159.498 144.46 157.864 144.46 151.758C144.46 146.426 148.889 142.642 155.683 142.642C162.778 142.642 167.293 146.34 167.379 152.102H161.058C160.757 149.565 158.822 147.802 155.683 147.802C152.931 147.802 150.953 148.963 150.953 151.285C150.953 153.736 153.318 154.252 158.306 155.198C163.466 156.144 168.024 157.692 167.981 163.755C167.938 169.388 163.294 173.258 156.242 173.258C148.588 173.258 143.815 169.216 143.772 163.11ZM172.969 166.679V156.015H169.314V150.898H172.969V144.706H179.032V150.898H184.106V156.015H179.032V165.69C179.032 167.238 179.634 167.883 181.225 167.883H184.235V173H179.29C175.076 173 172.969 170.893 172.969 166.679ZM207.985 167.883H208.673V173H205.577C202.438 173 201.449 171.495 201.492 169.388C199.944 171.839 197.708 173.258 194.268 173.258C189.495 173.258 186.055 170.979 186.055 166.765C186.055 162.078 189.581 159.412 196.203 159.412H200.589V158.337C200.589 156.359 199.17 155.069 196.633 155.069C194.268 155.069 192.677 156.144 192.419 157.778H186.571C187.001 153.478 190.957 150.64 196.805 150.64C202.997 150.64 206.566 153.392 206.566 158.681V166.507C206.566 167.668 207.039 167.883 207.985 167.883ZM200.589 163.884V163.454H196.16C193.623 163.454 192.161 164.486 192.161 166.335C192.161 167.883 193.408 168.872 195.429 168.872C198.611 168.872 200.546 166.894 200.589 163.884ZM212.609 166.679V156.015H208.954V150.898H212.609V144.706H218.672V150.898H223.746V156.015H218.672V165.69C218.672 167.238 219.274 167.883 220.865 167.883H223.875V173H218.93C214.716 173 212.609 170.893 212.609 166.679ZM237.267 173.258C229.914 173.258 225.485 168.829 225.485 161.992C225.485 155.112 230 150.64 236.837 150.64C243.459 150.64 247.931 154.768 248.017 161.261C248.017 161.906 247.974 162.637 247.845 163.325H231.806V163.626C231.935 166.765 233.956 168.657 237.009 168.657C239.46 168.657 241.18 167.582 241.696 165.518H247.673C246.985 169.818 243.158 173.258 237.267 173.258ZM231.935 159.369H241.911C241.481 156.66 239.632 155.155 236.88 155.155C234.257 155.155 232.279 156.746 231.935 159.369ZM250.131 165.647H255.893C256.108 167.582 257.785 168.915 260.752 168.915C263.289 168.915 264.837 168.098 264.837 166.55C264.837 164.744 263.332 164.615 259.763 164.142C254.603 163.54 250.604 162.379 250.604 157.821C250.604 153.435 254.431 150.554 260.107 150.597C266.041 150.597 270.126 153.22 270.427 157.735H264.622C264.45 155.972 262.773 154.897 260.322 154.897C257.957 154.897 256.409 155.757 256.409 157.176C256.409 158.853 258.301 159.025 261.483 159.412C266.557 159.928 270.771 161.089 270.771 166.077C270.771 170.463 266.643 173.258 260.709 173.258C254.56 173.258 250.389 170.377 250.131 165.647Z" fill="#131313"/>
<path d="M106.578 38L99.3535 15.898H105.761L110.19 31.464L114.361 15.898H119.822L123.864 31.507L128.379 15.898H134.571L127.304 38H120.854L116.984 24.67L113.028 38H106.578ZM149.291 15.64C154.193 15.64 158.235 18.263 158.235 25.745V38H152.172V26.261C152.172 22.649 150.71 20.628 147.7 20.628C144.604 20.628 142.755 22.864 142.755 26.648V38H136.692V7.9H142.755V18.607C144.174 16.887 146.152 15.64 149.291 15.64ZM172.764 38.258C165.712 38.258 161.111 33.743 161.111 26.949C161.111 20.155 165.712 15.64 172.764 15.64C179.816 15.64 184.417 20.155 184.417 26.949C184.417 33.786 179.816 38.258 172.764 38.258ZM172.764 33.313C176.161 33.313 178.268 30.69 178.268 26.949C178.268 23.208 176.161 20.585 172.764 20.585C169.367 20.585 167.303 23.208 167.303 26.949C167.303 30.69 169.367 33.313 172.764 33.313ZM219.49 32.883H220.178V38H217.082C213.943 38 212.954 36.495 212.997 34.388C211.449 36.839 209.213 38.258 205.773 38.258C201 38.258 197.56 35.979 197.56 31.765C197.56 27.078 201.086 24.412 207.708 24.412H212.094V23.337C212.094 21.359 210.675 20.069 208.138 20.069C205.773 20.069 204.182 21.144 203.924 22.778H198.076C198.506 18.478 202.462 15.64 208.31 15.64C214.502 15.64 218.071 18.392 218.071 23.681V31.507C218.071 32.668 218.544 32.883 219.49 32.883ZM212.094 28.884V28.454H207.665C205.128 28.454 203.666 29.486 203.666 31.335C203.666 32.883 204.913 33.872 206.934 33.872C210.116 33.872 212.051 31.894 212.094 28.884ZM234.951 15.898H235.983V21.402H233.575C229.963 21.402 228.587 23.81 228.587 27.164V38H222.524V15.898H228.028L228.587 19.209C229.791 17.231 231.511 15.898 234.951 15.898ZM248.899 38.258C241.546 38.258 237.117 33.829 237.117 26.992C237.117 20.112 241.632 15.64 248.469 15.64C255.091 15.64 259.563 19.768 259.649 26.261C259.649 26.906 259.606 27.637 259.477 28.325H243.438V28.626C243.567 31.765 245.588 33.657 248.641 33.657C251.092 33.657 252.812 32.582 253.328 30.518H259.305C258.617 34.818 254.79 38.258 248.899 38.258ZM243.567 24.369H253.543C253.113 21.66 251.264 20.155 248.512 20.155C245.889 20.155 243.911 21.746 243.567 24.369ZM127.519 76.206C130.228 76.206 132.034 78.528 132.034 81.839C132.034 86.655 128.895 89.192 123.993 89.235V86.096C126.745 86.053 128.078 84.72 128.078 83.172C128.078 83 128.078 82.742 128.035 82.57C127.605 82.785 127.175 82.914 126.659 82.914C125.068 82.914 123.735 81.839 123.735 79.646C123.735 77.754 125.412 76.206 127.519 76.206ZM167.126 77.883H167.814V83H164.718C161.579 83 160.59 81.495 160.633 79.388C159.085 81.839 156.849 83.258 153.409 83.258C148.636 83.258 145.196 80.979 145.196 76.765C145.196 72.078 148.722 69.412 155.344 69.412H159.73V68.337C159.73 66.359 158.311 65.069 155.774 65.069C153.409 65.069 151.818 66.144 151.56 67.778H145.712C146.142 63.478 150.098 60.64 155.946 60.64C162.138 60.64 165.707 63.392 165.707 68.681V76.507C165.707 77.668 166.18 77.883 167.126 77.883ZM159.73 73.884V73.454H155.301C152.764 73.454 151.302 74.486 151.302 76.335C151.302 77.883 152.549 78.872 154.57 78.872C157.752 78.872 159.687 76.894 159.73 73.884ZM182.845 60.64C187.618 60.64 191.703 63.177 191.703 70.745V83H185.64V71.347C185.64 67.606 184.221 65.628 181.168 65.628C178.029 65.628 176.223 67.864 176.223 71.691V83H170.16V60.898H175.449L176.008 63.65C177.427 61.93 179.448 60.64 182.845 60.64ZM211.478 63.65V52.9H217.541V83H212.252L211.65 79.947C210.188 81.839 208.038 83.258 204.856 83.258C198.922 83.258 194.579 78.915 194.579 71.906C194.579 65.069 198.922 60.64 204.813 60.64C207.866 60.64 210.059 61.844 211.478 63.65ZM206.189 78.313C209.5 78.313 211.564 75.733 211.564 71.992C211.564 68.208 209.5 65.585 206.189 65.585C202.878 65.585 200.771 68.165 200.771 71.949C200.771 75.733 202.878 78.313 206.189 78.313ZM253.504 77.883H254.192V83H251.096C247.957 83 246.968 81.495 247.011 79.388C245.463 81.839 243.227 83.258 239.787 83.258C235.014 83.258 231.574 80.979 231.574 76.765C231.574 72.078 235.1 69.412 241.722 69.412H246.108V68.337C246.108 66.359 244.689 65.069 242.152 65.069C239.787 65.069 238.196 66.144 237.938 67.778H232.09C232.52 63.478 236.476 60.64 242.324 60.64C248.516 60.64 252.085 63.392 252.085 68.681V76.507C252.085 77.668 252.558 77.883 253.504 77.883ZM246.108 73.884V73.454H241.679C239.142 73.454 237.68 74.486 237.68 76.335C237.68 77.883 238.927 78.872 240.948 78.872C244.13 78.872 246.065 76.894 246.108 73.884ZM268.965 60.898H269.997V66.402H267.589C263.977 66.402 262.601 68.81 262.601 72.164V83H256.538V60.898H262.042L262.601 64.209C263.805 62.231 265.525 60.898 268.965 60.898ZM282.913 83.258C275.56 83.258 271.131 78.829 271.131 71.992C271.131 65.112 275.646 60.64 282.483 60.64C289.105 60.64 293.577 64.768 293.663 71.261C293.663 71.906 293.62 72.637 293.491 73.325H277.452V73.626C277.581 76.765 279.602 78.657 282.655 78.657C285.106 78.657 286.826 77.582 287.342 75.518H293.319C292.631 79.818 288.804 83.258 282.913 83.258ZM277.581 69.369H287.557C287.127 66.66 285.278 65.155 282.526 65.155C279.903 65.155 277.925 66.746 277.581 69.369ZM184.965 121.206C187.674 121.206 189.48 123.528 189.48 126.839C189.48 131.655 186.341 134.192 181.439 134.235V131.096C184.191 131.053 185.524 129.72 185.524 128.172C185.524 128 185.524 127.742 185.481 127.57C185.051 127.785 184.621 127.914 184.105 127.914C182.514 127.914 181.181 126.839 181.181 124.646C181.181 122.754 182.858 121.206 184.965 121.206ZM201.438 111.015V105.898H205.093V104.264C205.093 100.179 207.286 97.9 211.758 97.9H216.703V103.06H212.833C211.629 103.06 211.027 103.619 211.027 104.866V105.898H216.703V111.015H211.156V128H205.093V111.015H201.438ZM231.424 105.898H232.456V111.402H230.048C226.436 111.402 225.06 113.81 225.06 117.164V128H218.997V105.898H224.501L225.06 109.209C226.264 107.231 227.984 105.898 231.424 105.898ZM245.243 128.258C238.191 128.258 233.59 123.743 233.59 116.949C233.59 110.155 238.191 105.64 245.243 105.64C252.295 105.64 256.896 110.155 256.896 116.949C256.896 123.786 252.295 128.258 245.243 128.258ZM245.243 123.313C248.64 123.313 250.747 120.69 250.747 116.949C250.747 113.208 248.64 110.585 245.243 110.585C241.846 110.585 239.782 113.208 239.782 116.949C239.782 120.69 241.846 123.313 245.243 123.313ZM286.678 105.64C291.236 105.64 294.848 108.22 294.848 115.315V128H288.785V115.659C288.785 112.348 287.581 110.628 284.958 110.628C282.335 110.628 280.572 112.563 280.572 115.917V128H274.509V115.659C274.509 112.348 273.305 110.628 270.639 110.628C268.016 110.628 266.296 112.649 266.296 115.96V128H260.233V105.898H265.522L266.081 108.65C267.414 106.93 269.349 105.683 272.574 105.64C275.283 105.597 277.82 106.586 279.196 109.381C280.744 107.016 283.324 105.64 286.678 105.64ZM276.507 166.206C279.216 166.206 281.022 168.528 281.022 171.839C281.022 176.655 277.883 179.192 272.981 179.235V176.096C275.733 176.053 277.066 174.72 277.066 173.172C277.066 173 277.066 172.742 277.023 172.57C276.593 172.785 276.163 172.914 275.647 172.914C274.056 172.914 272.723 171.839 272.723 169.646C272.723 167.754 274.4 166.206 276.507 166.206ZM12.9 218.258C5.848 218.258 1.247 213.743 1.247 206.949C1.247 200.155 5.848 195.64 12.9 195.64C19.952 195.64 24.553 200.155 24.553 206.949C24.553 213.786 19.952 218.258 12.9 218.258ZM12.9 213.313C16.297 213.313 18.404 210.69 18.404 206.949C18.404 203.208 16.297 200.585 12.9 200.585C9.503 200.585 7.439 203.208 7.439 206.949C7.439 210.69 9.503 213.313 12.9 213.313ZM40.5752 195.64C45.3482 195.64 49.4332 198.177 49.4332 205.745V218H43.3702V206.347C43.3702 202.606 41.9512 200.628 38.8982 200.628C35.7592 200.628 33.9532 202.864 33.9532 206.691V218H27.8902V195.898H33.1792L33.7382 198.65C35.1572 196.93 37.1782 195.64 40.5752 195.64ZM84.9895 212.883H85.6775V218H82.5815C79.4425 218 78.4535 216.495 78.4965 214.388C76.9485 216.839 74.7125 218.258 71.2725 218.258C66.4995 218.258 63.0595 215.979 63.0595 211.765C63.0595 207.078 66.5855 204.412 73.2075 204.412H77.5935V203.337C77.5935 201.359 76.1745 200.069 73.6375 200.069C71.2725 200.069 69.6815 201.144 69.4235 202.778H63.5755C64.0055 198.478 67.9615 195.64 73.8095 195.64C80.0015 195.64 83.5705 198.392 83.5705 203.681V211.507C83.5705 212.668 84.0435 212.883 84.9895 212.883ZM77.5935 208.884V208.454H73.1645C70.6275 208.454 69.1655 209.486 69.1655 211.335C69.1655 212.883 70.4125 213.872 72.4335 213.872C75.6155 213.872 77.5505 211.894 77.5935 208.884ZM92.8202 218L84.8652 195.898H91.3582L96.6902 211.808L101.936 195.898H108.3L100.345 218H92.8202ZM120.193 218.258C112.84 218.258 108.411 213.829 108.411 206.992C108.411 200.112 112.926 195.64 119.763 195.64C126.385 195.64 130.857 199.768 130.943 206.261C130.943 206.906 130.9 207.637 130.771 208.325H114.732V208.626C114.861 211.765 116.882 213.657 119.935 213.657C122.386 213.657 124.106 212.582 124.622 210.518H130.599C129.911 214.818 126.084 218.258 120.193 218.258ZM114.861 204.369H124.837C124.407 201.66 122.558 200.155 119.806 200.155C117.183 200.155 115.205 201.746 114.861 204.369ZM146.683 195.898H147.715V201.402H145.307C141.695 201.402 140.319 203.81 140.319 207.164V218H134.256V195.898H139.76L140.319 199.209C141.523 197.231 143.243 195.898 146.683 195.898ZM170.948 212.883H171.636V218H168.54C165.401 218 164.412 216.495 164.455 214.388C162.907 216.839 160.671 218.258 157.231 218.258C152.458 218.258 149.018 215.979 149.018 211.765C149.018 207.078 152.544 204.412 159.166 204.412H163.552V203.337C163.552 201.359 162.133 200.069 159.596 200.069C157.231 200.069 155.64 201.144 155.382 202.778H149.534C149.964 198.478 153.92 195.64 159.768 195.64C165.96 195.64 169.529 198.392 169.529 203.681V211.507C169.529 212.668 170.002 212.883 170.948 212.883ZM163.552 208.884V208.454H159.123C156.586 208.454 155.124 209.486 155.124 211.335C155.124 212.883 156.371 213.872 158.392 213.872C161.574 213.872 163.509 211.894 163.552 208.884ZM190.235 198.951L190.751 195.898H196.083V217.355C196.083 222.816 192.729 226.858 184.258 226.858C178.109 226.858 173.895 224.063 173.594 218.946H179.7C180.259 221.053 181.936 222.257 184.731 222.257C188.128 222.257 190.149 220.58 190.149 217.14V214.818C188.687 216.667 186.494 217.871 183.398 217.871C177.464 217.914 173.121 213.571 173.121 206.734C173.121 199.983 177.464 195.597 183.355 195.597C186.537 195.597 188.773 197.016 190.235 198.951ZM184.731 213.012C188.042 213.012 190.106 210.475 190.106 206.82C190.106 203.122 188.042 200.499 184.731 200.499C181.42 200.499 179.313 203.079 179.313 206.777C179.313 210.475 181.42 213.012 184.731 213.012ZM211.232 218.258C203.879 218.258 199.45 213.829 199.45 206.992C199.45 200.112 203.965 195.64 210.802 195.64C217.424 195.64 221.896 199.768 221.982 206.261C221.982 206.906 221.939 207.637 221.81 208.325H205.771V208.626C205.9 211.765 207.921 213.657 210.974 213.657C213.425 213.657 215.145 212.582 215.661 210.518H221.638C220.95 214.818 217.123 218.258 211.232 218.258ZM205.9 204.369H215.876C215.446 201.66 213.597 200.155 210.845 200.155C208.222 200.155 206.244 201.746 205.9 204.369ZM223.648 214.689C223.648 212.582 225.196 211.077 227.303 211.077C229.367 211.077 230.958 212.582 230.958 214.689C230.958 216.753 229.367 218.258 227.303 218.258C225.196 218.258 223.648 216.753 223.648 214.689Z" fill="#F6F3F1"/>
</svg>
