<svg width="330" height="272" viewBox="0 0 330 272" fill="none" xmlns="http://www.w3.org/2000/svg">
<path d="M8.557 38L0.172 7.9L6.88 7.857L12.427 29.873L18.318 7.9H24.123L29.842 29.873L35.518 7.9H42.054L33.669 38H26.273L21.027 18.005L15.953 38H8.557ZM53.0865 38.258C46.0345 38.258 41.4335 33.743 41.4335 26.949C41.4335 20.155 46.0345 15.64 53.0865 15.64C60.1385 15.64 64.7395 20.155 64.7395 26.949C64.7395 33.786 60.1385 38.258 53.0865 38.258ZM53.0865 33.313C56.4835 33.313 58.5905 30.69 58.5905 26.949C58.5905 23.208 56.4835 20.585 53.0865 20.585C49.6895 20.585 47.6255 23.208 47.6255 26.949C47.6255 30.69 49.6895 33.313 53.0865 33.313ZM94.5217 15.64C99.0797 15.64 102.692 18.22 102.692 25.315V38H96.6287V25.659C96.6287 22.348 95.4247 20.628 92.8017 20.628C90.1787 20.628 88.4157 22.563 88.4157 25.917V38H82.3527V25.659C82.3527 22.348 81.1487 20.628 78.4827 20.628C75.8597 20.628 74.1397 22.649 74.1397 25.96V38H68.0767V15.898H73.3657L73.9247 18.65C75.2577 16.93 77.1927 15.683 80.4177 15.64C83.1267 15.597 85.6637 16.586 87.0397 19.381C88.5877 17.016 91.1677 15.64 94.5217 15.64ZM117.338 38.258C109.985 38.258 105.556 33.829 105.556 26.992C105.556 20.112 110.071 15.64 116.908 15.64C123.53 15.64 128.002 19.768 128.088 26.261C128.088 26.906 128.045 27.637 127.916 28.325H111.877V28.626C112.006 31.765 114.027 33.657 117.08 33.657C119.531 33.657 121.251 32.582 121.767 30.518H127.744C127.056 34.818 123.229 38.258 117.338 38.258ZM112.006 24.369H121.982C121.552 21.66 119.703 20.155 116.951 20.155C114.328 20.155 112.35 21.746 112.006 24.369ZM144.086 15.64C148.859 15.64 152.944 18.177 152.944 25.745V38H146.881V26.347C146.881 22.606 145.462 20.628 142.409 20.628C139.27 20.628 137.464 22.864 137.464 26.691V38H131.401V15.898H136.69L137.249 18.65C138.668 16.93 140.689 15.64 144.086 15.64ZM0.602 76.55V71.433L13.889 52.9H21.414V71.39H25.585V76.55H21.414V83H15.351V76.55H0.602ZM15.351 59.049L6.536 71.39H15.351V59.049ZM27.6241 68.638V67.262C27.6241 58.275 32.7411 52.642 40.0081 52.642C47.3181 52.642 52.4351 58.275 52.4351 67.262V68.638C52.4351 77.797 47.3181 83.258 40.0081 83.258C32.7411 83.258 27.6241 77.797 27.6241 68.638ZM46.2431 68.423V67.477C46.2431 61.285 43.7061 57.888 40.0081 57.888C36.3531 57.888 33.8161 61.285 33.8161 67.477V68.423C33.8161 74.658 36.3531 78.012 40.0081 78.012C43.7061 78.012 46.2431 74.658 46.2431 68.423ZM71.0239 73.239H55.9739V68.294H71.0239V73.239ZM86.9205 62.489C92.9835 62.489 97.0685 66.66 97.0685 72.809C97.0685 79.732 91.9085 83.258 85.6735 83.258C78.7075 83.258 74.4075 78.829 74.1495 73.325H80.2985C80.5995 76.034 82.4915 78.184 85.7165 78.184C88.3395 78.184 90.8335 76.378 90.8335 72.809C90.8335 69.627 88.8125 67.391 85.6735 67.391C83.9965 67.391 81.6745 68.036 80.5995 70.53H74.6225L75.4825 52.9H95.2625V58.103H81.1155L80.7715 64.682C82.2765 63.306 84.2545 62.489 86.9205 62.489ZM110.521 83.258C104.329 83.258 100.33 80.076 99.6418 74.529H105.748C106.264 76.894 108.113 78.27 110.865 78.27C114.864 78.27 117.014 75.045 117.014 69.627C117.014 69.412 117.014 69.154 116.971 68.853L116.326 69.799C114.864 71.82 112.456 72.938 109.618 72.938C103.512 72.938 99.3838 69.025 99.3838 62.876C99.3838 56.899 103.899 52.642 110.607 52.642C114.649 52.642 117.788 54.233 119.895 57.028C121.83 59.608 122.948 63.263 122.948 67.606C122.948 77.582 118.519 83.258 110.521 83.258ZM110.564 68.165C113.617 68.165 115.767 66.015 115.767 62.79C115.767 59.608 113.703 57.501 110.65 57.501C107.597 57.501 105.576 59.651 105.576 62.79C105.576 65.972 107.511 68.165 110.564 68.165ZM2.58 128V97.9H11.051L19.393 120.002L27.477 97.9H35.776V128H29.627V107.833L21.801 128H16.555L8.729 107.833V128H2.58ZM61.5159 122.883H62.2039V128H59.1079C55.9689 128 54.9799 126.495 55.0229 124.388C53.4749 126.839 51.2389 128.258 47.7989 128.258C43.0259 128.258 39.5859 125.979 39.5859 121.765C39.5859 117.078 43.1119 114.412 49.7339 114.412H54.1199V113.337C54.1199 111.359 52.7009 110.069 50.1639 110.069C47.7989 110.069 46.2079 111.144 45.9499 112.778H40.1019C40.5319 108.478 44.4879 105.64 50.3359 105.64C56.5279 105.64 60.0969 108.392 60.0969 113.681V121.507C60.0969 122.668 60.5699 122.883 61.5159 122.883ZM54.1199 118.884V118.454H49.6909C47.1539 118.454 45.6919 119.486 45.6919 121.335C45.6919 122.883 46.9389 123.872 48.9599 123.872C52.1419 123.872 54.0769 121.894 54.1199 118.884ZM76.9764 105.898H78.0084V111.402H75.6004C71.9884 111.402 70.6124 113.81 70.6124 117.164V128H64.5494V105.898H70.0534L70.6124 109.209C71.8164 107.231 73.5364 105.898 76.9764 105.898ZM93.1434 105.898H94.1754V111.402H91.7674C88.1554 111.402 86.7794 113.81 86.7794 117.164V128H80.7164V105.898H86.2204L86.7794 109.209C87.9834 107.231 89.7034 105.898 93.1434 105.898ZM99.9364 103.533C97.9584 103.533 96.4104 102.071 96.4104 100.136C96.4104 98.158 97.9584 96.696 99.9364 96.696C101.914 96.696 103.462 98.158 103.462 100.136C103.462 102.071 101.914 103.533 99.9364 103.533ZM96.8834 128V105.898H102.989V128H96.8834ZM118.093 128.258C110.74 128.258 106.311 123.829 106.311 116.992C106.311 110.112 110.826 105.64 117.663 105.64C124.285 105.64 128.757 109.768 128.843 116.261C128.843 116.906 128.8 117.637 128.671 118.325H112.632V118.626C112.761 121.765 114.782 123.657 117.835 123.657C120.286 123.657 122.006 122.582 122.522 120.518H128.499C127.811 124.818 123.984 128.258 118.093 128.258ZM112.761 114.369H122.737C122.307 111.66 120.458 110.155 117.706 110.155C115.083 110.155 113.105 111.746 112.761 114.369ZM148.196 108.65V97.9H154.259V128H148.97L148.368 124.947C146.906 126.839 144.756 128.258 141.574 128.258C135.64 128.258 131.297 123.915 131.297 116.906C131.297 110.069 135.64 105.64 141.531 105.64C144.584 105.64 146.777 106.844 148.196 108.65ZM142.907 123.313C146.218 123.313 148.282 120.733 148.282 116.992C148.282 113.208 146.218 110.585 142.907 110.585C139.596 110.585 137.489 113.165 137.489 116.949C137.489 120.733 139.596 123.313 142.907 123.313ZM175.602 128L167.217 97.9L173.925 97.857L179.472 119.873L185.363 97.9H191.168L196.887 119.873L202.563 97.9H209.099L200.714 128H193.318L188.072 108.005L182.998 128H175.602ZM214.449 103.533C212.471 103.533 210.923 102.071 210.923 100.136C210.923 98.158 212.471 96.696 214.449 96.696C216.427 96.696 217.975 98.158 217.975 100.136C217.975 102.071 216.427 103.533 214.449 103.533ZM211.396 128V105.898H217.502V128H211.396ZM223.275 121.679V111.015H219.62V105.898H223.275V99.706H229.338V105.898H234.412V111.015H229.338V120.69C229.338 122.238 229.94 122.883 231.531 122.883H234.541V128H229.596C225.382 128 223.275 125.893 223.275 121.679ZM249.946 105.64C254.848 105.64 258.89 108.263 258.89 115.745V128H252.827V116.261C252.827 112.649 251.365 110.628 248.355 110.628C245.259 110.628 243.41 112.864 243.41 116.648V128H237.347V97.9H243.41V108.607C244.829 106.887 246.807 105.64 249.946 105.64ZM15.738 173.258C6.794 173.258 1.376 167.195 1.376 157.95C1.376 148.705 7.009 142.642 16.125 142.642C23.263 142.642 28.294 147.114 29.068 153.65H22.532C21.758 150.296 19.35 148.103 15.781 148.103C10.879 148.103 7.955 152.145 7.955 157.95C7.955 163.712 10.836 167.797 15.695 167.797C19.35 167.797 21.758 165.604 22.532 162.25H29.025C28.294 168.786 23.091 173.258 15.738 173.258ZM44.8144 150.64C49.7164 150.64 53.7584 153.263 53.7584 160.745V173H47.6954V161.261C47.6954 157.649 46.2334 155.628 43.2234 155.628C40.1274 155.628 38.2784 157.864 38.2784 161.648V173H32.2154V142.9H38.2784V153.607C39.6974 151.887 41.6754 150.64 44.8144 150.64ZM60.6317 148.533C58.6537 148.533 57.1057 147.071 57.1057 145.136C57.1057 143.158 58.6537 141.696 60.6317 141.696C62.6097 141.696 64.1577 143.158 64.1577 145.136C64.1577 147.071 62.6097 148.533 60.6317 148.533ZM57.5787 173V150.898H63.6847V173H57.5787ZM67.8668 173V142.9H73.9298V173H67.8668ZM94.1939 153.65V142.9H100.257V173H94.9679L94.3659 169.947C92.9039 171.839 90.7539 173.258 87.5719 173.258C81.6379 173.258 77.2949 168.915 77.2949 161.906C77.2949 155.069 81.6379 150.64 87.5289 150.64C90.5819 150.64 92.7749 151.844 94.1939 153.65ZM88.9049 168.313C92.2159 168.313 94.2799 165.733 94.2799 161.992C94.2799 158.208 92.2159 155.585 88.9049 155.585C85.5939 155.585 83.4869 158.165 83.4869 161.949C83.4869 165.733 85.5939 168.313 88.9049 168.313ZM116.911 150.898H117.943V156.402H115.535C111.923 156.402 110.547 158.81 110.547 162.164V173H104.484V150.898H109.988L110.547 154.209C111.751 152.231 113.471 150.898 116.911 150.898ZM130.859 173.258C123.506 173.258 119.077 168.829 119.077 161.992C119.077 155.112 123.592 150.64 130.429 150.64C137.051 150.64 141.523 154.768 141.609 161.261C141.609 161.906 141.566 162.637 141.437 163.325H125.398V163.626C125.527 166.765 127.548 168.657 130.601 168.657C133.052 168.657 134.772 167.582 135.288 165.518H141.265C140.577 169.818 136.75 173.258 130.859 173.258ZM125.527 159.369H135.503C135.073 156.66 133.224 155.155 130.472 155.155C127.849 155.155 125.871 156.746 125.527 159.369ZM157.607 150.64C162.38 150.64 166.465 153.177 166.465 160.745V173H160.402V161.347C160.402 157.606 158.983 155.628 155.93 155.628C152.791 155.628 150.985 157.864 150.985 161.691V173H144.922V150.898H150.211L150.77 153.65C152.189 151.93 154.21 150.64 157.607 150.64ZM15.738 218.258C6.794 218.258 1.376 212.195 1.376 202.95C1.376 193.705 7.009 187.642 16.125 187.642C23.263 187.642 28.294 192.114 29.068 198.65H22.532C21.758 195.296 19.35 193.103 15.781 193.103C10.879 193.103 7.955 197.145 7.955 202.95C7.955 208.712 10.836 212.797 15.695 212.797C19.35 212.797 21.758 210.604 22.532 207.25H29.025C28.294 213.786 23.091 218.258 15.738 218.258ZM53.2854 212.883H53.9734V218H50.8774C47.7384 218 46.7494 216.495 46.7924 214.388C45.2444 216.839 43.0084 218.258 39.5684 218.258C34.7954 218.258 31.3554 215.979 31.3554 211.765C31.3554 207.078 34.8814 204.412 41.5034 204.412H45.8894V203.337C45.8894 201.359 44.4704 200.069 41.9334 200.069C39.5684 200.069 37.9774 201.144 37.7194 202.778H31.8714C32.3014 198.478 36.2574 195.64 42.1054 195.64C48.2974 195.64 51.8664 198.392 51.8664 203.681V211.507C51.8664 212.668 52.3394 212.883 53.2854 212.883ZM45.8894 208.884V208.454H41.4604C38.9234 208.454 37.4614 209.486 37.4614 211.335C37.4614 212.883 38.7084 213.872 40.7294 213.872C43.9114 213.872 45.8464 211.894 45.8894 208.884ZM69.0039 195.64C73.7769 195.64 77.8619 198.177 77.8619 205.745V218H71.7989V206.347C71.7989 202.606 70.3799 200.628 67.3269 200.628C64.1879 200.628 62.3819 202.864 62.3819 206.691V218H56.3189V195.898H61.6079L62.1669 198.65C63.5859 196.93 65.6069 195.64 69.0039 195.64ZM102.752 212.883H103.44V218H100.344C97.2052 218 96.2162 216.495 96.2592 214.388C94.7112 216.839 92.4752 218.258 89.0352 218.258C84.2622 218.258 80.8222 215.979 80.8222 211.765C80.8222 207.078 84.3482 204.412 90.9702 204.412H95.3562V203.337C95.3562 201.359 93.9372 200.069 91.4002 200.069C89.0352 200.069 87.4442 201.144 87.1862 202.778H81.3382C81.7682 198.478 85.7242 195.64 91.5722 195.64C97.7642 195.64 101.333 198.392 101.333 203.681V211.507C101.333 212.668 101.806 212.883 102.752 212.883ZM95.3562 208.884V208.454H90.9272C88.3902 208.454 86.9282 209.486 86.9282 211.335C86.9282 212.883 88.1752 213.872 90.1962 213.872C93.3782 213.872 95.3132 211.894 95.3562 208.884ZM121.741 198.65V187.9H127.804V218H122.515L121.913 214.947C120.451 216.839 118.301 218.258 115.119 218.258C109.185 218.258 104.842 213.915 104.842 206.906C104.842 200.069 109.185 195.64 115.076 195.64C118.129 195.64 120.322 196.844 121.741 198.65ZM116.452 213.313C119.763 213.313 121.827 210.733 121.827 206.992C121.827 203.208 119.763 200.585 116.452 200.585C113.141 200.585 111.034 203.165 111.034 206.949C111.034 210.733 113.141 213.313 116.452 213.313ZM153.101 212.883H153.789V218H150.693C147.554 218 146.565 216.495 146.608 214.388C145.06 216.839 142.824 218.258 139.384 218.258C134.611 218.258 131.171 215.979 131.171 211.765C131.171 207.078 134.697 204.412 141.319 204.412H145.705V203.337C145.705 201.359 144.286 200.069 141.749 200.069C139.384 200.069 137.793 201.144 137.535 202.778H131.687C132.117 198.478 136.073 195.64 141.921 195.64C148.113 195.64 151.682 198.392 151.682 203.681V211.507C151.682 212.668 152.155 212.883 153.101 212.883ZM145.705 208.884V208.454H141.276C138.739 208.454 137.277 209.486 137.277 211.335C137.277 212.883 138.524 213.872 140.545 213.872C143.727 213.872 145.662 211.894 145.705 208.884Z" fill="#131313"/>
<path d="M172.547 38L165.323 15.898H171.73L176.159 31.464L180.33 15.898H185.791L189.833 31.507L194.348 15.898H200.54L193.273 38H186.823L182.953 24.67L178.997 38H172.547ZM215.261 15.64C220.163 15.64 224.205 18.263 224.205 25.745V38H218.142V26.261C218.142 22.649 216.68 20.628 213.67 20.628C210.574 20.628 208.725 22.864 208.725 26.648V38H202.662V7.9H208.725V18.607C210.144 16.887 212.122 15.64 215.261 15.64ZM238.734 38.258C231.682 38.258 227.081 33.743 227.081 26.949C227.081 20.155 231.682 15.64 238.734 15.64C245.786 15.64 250.387 20.155 250.387 26.949C250.387 33.786 245.786 38.258 238.734 38.258ZM238.734 33.313C242.131 33.313 244.238 30.69 244.238 26.949C244.238 23.208 242.131 20.585 238.734 20.585C235.337 20.585 233.273 23.208 233.273 26.949C233.273 30.69 235.337 33.313 238.734 33.313ZM285.46 32.883H286.148V38H283.052C279.913 38 278.924 36.495 278.967 34.388C277.419 36.839 275.183 38.258 271.743 38.258C266.97 38.258 263.53 35.979 263.53 31.765C263.53 27.078 267.056 24.412 273.678 24.412H278.064V23.337C278.064 21.359 276.645 20.069 274.108 20.069C271.743 20.069 270.152 21.144 269.894 22.778H264.046C264.476 18.478 268.432 15.64 274.28 15.64C280.472 15.64 284.041 18.392 284.041 23.681V31.507C284.041 32.668 284.514 32.883 285.46 32.883ZM278.064 28.884V28.454H273.635C271.098 28.454 269.636 29.486 269.636 31.335C269.636 32.883 270.883 33.872 272.904 33.872C276.086 33.872 278.021 31.894 278.064 28.884ZM300.921 15.898H301.953V21.402H299.545C295.933 21.402 294.557 23.81 294.557 27.164V38H288.494V15.898H293.998L294.557 19.209C295.761 17.231 297.481 15.898 300.921 15.898ZM314.869 38.258C307.516 38.258 303.087 33.829 303.087 26.992C303.087 20.112 307.602 15.64 314.439 15.64C321.061 15.64 325.533 19.768 325.619 26.261C325.619 26.906 325.576 27.637 325.447 28.325H309.408V28.626C309.537 31.765 311.558 33.657 314.611 33.657C317.062 33.657 318.782 32.582 319.298 30.518H325.275C324.587 34.818 320.76 38.258 314.869 38.258ZM309.537 24.369H319.513C319.083 21.66 317.234 20.155 314.482 20.155C311.859 20.155 309.881 21.746 309.537 24.369ZM127.519 76.206C130.228 76.206 132.034 78.528 132.034 81.839C132.034 86.655 128.895 89.192 123.993 89.235V86.096C126.745 86.053 128.078 84.72 128.078 83.172C128.078 83 128.078 82.742 128.035 82.57C127.605 82.785 127.175 82.914 126.659 82.914C125.068 82.914 123.735 81.839 123.735 79.646C123.735 77.754 125.412 76.206 127.519 76.206ZM167.126 77.883H167.814V83H164.718C161.579 83 160.59 81.495 160.633 79.388C159.085 81.839 156.849 83.258 153.409 83.258C148.636 83.258 145.196 80.979 145.196 76.765C145.196 72.078 148.722 69.412 155.344 69.412H159.73V68.337C159.73 66.359 158.311 65.069 155.774 65.069C153.409 65.069 151.818 66.144 151.56 67.778H145.712C146.142 63.478 150.098 60.64 155.946 60.64C162.138 60.64 165.707 63.392 165.707 68.681V76.507C165.707 77.668 166.18 77.883 167.126 77.883ZM159.73 73.884V73.454H155.301C152.764 73.454 151.302 74.486 151.302 76.335C151.302 77.883 152.549 78.872 154.57 78.872C157.752 78.872 159.687 76.894 159.73 73.884ZM182.845 60.64C187.618 60.64 191.703 63.177 191.703 70.745V83H185.64V71.347C185.64 67.606 184.221 65.628 181.168 65.628C178.029 65.628 176.223 67.864 176.223 71.691V83H170.16V60.898H175.449L176.008 63.65C177.427 61.93 179.448 60.64 182.845 60.64ZM211.478 63.65V52.9H217.541V83H212.252L211.65 79.947C210.188 81.839 208.038 83.258 204.856 83.258C198.922 83.258 194.579 78.915 194.579 71.906C194.579 65.069 198.922 60.64 204.813 60.64C207.866 60.64 210.059 61.844 211.478 63.65ZM206.189 78.313C209.5 78.313 211.564 75.733 211.564 71.992C211.564 68.208 209.5 65.585 206.189 65.585C202.878 65.585 200.771 68.165 200.771 71.949C200.771 75.733 202.878 78.313 206.189 78.313ZM253.504 77.883H254.192V83H251.096C247.957 83 246.968 81.495 247.011 79.388C245.463 81.839 243.227 83.258 239.787 83.258C235.014 83.258 231.574 80.979 231.574 76.765C231.574 72.078 235.1 69.412 241.722 69.412H246.108V68.337C246.108 66.359 244.689 65.069 242.152 65.069C239.787 65.069 238.196 66.144 237.938 67.778H232.09C232.52 63.478 236.476 60.64 242.324 60.64C248.516 60.64 252.085 63.392 252.085 68.681V76.507C252.085 77.668 252.558 77.883 253.504 77.883ZM246.108 73.884V73.454H241.679C239.142 73.454 237.68 74.486 237.68 76.335C237.68 77.883 238.927 78.872 240.948 78.872C244.13 78.872 246.065 76.894 246.108 73.884ZM268.965 60.898H269.997V66.402H267.589C263.977 66.402 262.601 68.81 262.601 72.164V83H256.538V60.898H262.042L262.601 64.209C263.805 62.231 265.525 60.898 268.965 60.898ZM282.913 83.258C275.56 83.258 271.131 78.829 271.131 71.992C271.131 65.112 275.646 60.64 282.483 60.64C289.105 60.64 293.577 64.768 293.663 71.261C293.663 71.906 293.62 72.637 293.491 73.325H277.452V73.626C277.581 76.765 279.602 78.657 282.655 78.657C285.106 78.657 286.826 77.582 287.342 75.518H293.319C292.631 79.818 288.804 83.258 282.913 83.258ZM277.581 69.369H287.557C287.127 66.66 285.278 65.155 282.526 65.155C279.903 65.155 277.925 66.746 277.581 69.369ZM173.081 166.206C175.79 166.206 177.596 168.528 177.596 171.839C177.596 176.655 174.457 179.192 169.555 179.235V176.096C172.307 176.053 173.64 174.72 173.64 173.172C173.64 173 173.64 172.742 173.597 172.57C173.167 172.785 172.737 172.914 172.221 172.914C170.63 172.914 169.297 171.839 169.297 169.646C169.297 167.754 170.974 166.206 173.081 166.206ZM189.554 156.015V150.898H193.209V149.264C193.209 145.179 195.402 142.9 199.874 142.9H204.819V148.06H200.949C199.745 148.06 199.143 148.619 199.143 149.866V150.898H204.819V156.015H199.272V173H193.209V156.015H189.554ZM219.54 150.898H220.572V156.402H218.164C214.552 156.402 213.176 158.81 213.176 162.164V173H207.113V150.898H212.617L213.176 154.209C214.38 152.231 216.1 150.898 219.54 150.898ZM233.359 173.258C226.307 173.258 221.706 168.743 221.706 161.949C221.706 155.155 226.307 150.64 233.359 150.64C240.411 150.64 245.012 155.155 245.012 161.949C245.012 168.786 240.411 173.258 233.359 173.258ZM233.359 168.313C236.756 168.313 238.863 165.69 238.863 161.949C238.863 158.208 236.756 155.585 233.359 155.585C229.962 155.585 227.898 158.208 227.898 161.949C227.898 165.69 229.962 168.313 233.359 168.313ZM274.794 150.64C279.352 150.64 282.964 153.22 282.964 160.315V173H276.901V160.659C276.901 157.348 275.697 155.628 273.074 155.628C270.451 155.628 268.688 157.563 268.688 160.917V173H262.625V160.659C262.625 157.348 261.421 155.628 258.755 155.628C256.132 155.628 254.412 157.649 254.412 160.96V173H248.349V150.898H253.638L254.197 153.65C255.53 151.93 257.465 150.683 260.69 150.64C263.399 150.597 265.936 151.586 267.312 154.381C268.86 152.016 271.44 150.64 274.794 150.64ZM158.929 211.206C161.638 211.206 163.444 213.528 163.444 216.839C163.444 221.655 160.305 224.192 155.403 224.235V221.096C158.155 221.053 159.488 219.72 159.488 218.172C159.488 218 159.488 217.742 159.445 217.57C159.015 217.785 158.585 217.914 158.069 217.914C156.478 217.914 155.145 216.839 155.145 214.646C155.145 212.754 156.822 211.206 158.929 211.206ZM12.9 263.258C5.848 263.258 1.247 258.743 1.247 251.949C1.247 245.155 5.848 240.64 12.9 240.64C19.952 240.64 24.553 245.155 24.553 251.949C24.553 258.786 19.952 263.258 12.9 263.258ZM12.9 258.313C16.297 258.313 18.404 255.69 18.404 251.949C18.404 248.208 16.297 245.585 12.9 245.585C9.503 245.585 7.439 248.208 7.439 251.949C7.439 255.69 9.503 258.313 12.9 258.313ZM40.5752 240.64C45.3482 240.64 49.4332 243.177 49.4332 250.745V263H43.3702V251.347C43.3702 247.606 41.9512 245.628 38.8982 245.628C35.7592 245.628 33.9532 247.864 33.9532 251.691V263H27.8902V240.898H33.1792L33.7382 243.65C35.1572 241.93 37.1782 240.64 40.5752 240.64ZM84.9895 257.883H85.6775V263H82.5815C79.4425 263 78.4535 261.495 78.4965 259.388C76.9485 261.839 74.7125 263.258 71.2725 263.258C66.4995 263.258 63.0595 260.979 63.0595 256.765C63.0595 252.078 66.5855 249.412 73.2075 249.412H77.5935V248.337C77.5935 246.359 76.1745 245.069 73.6375 245.069C71.2725 245.069 69.6815 246.144 69.4235 247.778H63.5755C64.0055 243.478 67.9615 240.64 73.8095 240.64C80.0015 240.64 83.5705 243.392 83.5705 248.681V256.507C83.5705 257.668 84.0435 257.883 84.9895 257.883ZM77.5935 253.884V253.454H73.1645C70.6275 253.454 69.1655 254.486 69.1655 256.335C69.1655 257.883 70.4125 258.872 72.4335 258.872C75.6155 258.872 77.5505 256.894 77.5935 253.884ZM92.8202 263L84.8652 240.898H91.3582L96.6902 256.808L101.936 240.898H108.3L100.345 263H92.8202ZM120.193 263.258C112.84 263.258 108.411 258.829 108.411 251.992C108.411 245.112 112.926 240.64 119.763 240.64C126.385 240.64 130.857 244.768 130.943 251.261C130.943 251.906 130.9 252.637 130.771 253.325H114.732V253.626C114.861 256.765 116.882 258.657 119.935 258.657C122.386 258.657 124.106 257.582 124.622 255.518H130.599C129.911 259.818 126.084 263.258 120.193 263.258ZM114.861 249.369H124.837C124.407 246.66 122.558 245.155 119.806 245.155C117.183 245.155 115.205 246.746 114.861 249.369ZM146.683 240.898H147.715V246.402H145.307C141.695 246.402 140.319 248.81 140.319 252.164V263H134.256V240.898H139.76L140.319 244.209C141.523 242.231 143.243 240.898 146.683 240.898ZM170.948 257.883H171.636V263H168.54C165.401 263 164.412 261.495 164.455 259.388C162.907 261.839 160.671 263.258 157.231 263.258C152.458 263.258 149.018 260.979 149.018 256.765C149.018 252.078 152.544 249.412 159.166 249.412H163.552V248.337C163.552 246.359 162.133 245.069 159.596 245.069C157.231 245.069 155.64 246.144 155.382 247.778H149.534C149.964 243.478 153.92 240.64 159.768 240.64C165.96 240.64 169.529 243.392 169.529 248.681V256.507C169.529 257.668 170.002 257.883 170.948 257.883ZM163.552 253.884V253.454H159.123C156.586 253.454 155.124 254.486 155.124 256.335C155.124 257.883 156.371 258.872 158.392 258.872C161.574 258.872 163.509 256.894 163.552 253.884ZM190.235 243.951L190.751 240.898H196.083V262.355C196.083 267.816 192.729 271.858 184.258 271.858C178.109 271.858 173.895 269.063 173.594 263.946H179.7C180.259 266.053 181.936 267.257 184.731 267.257C188.128 267.257 190.149 265.58 190.149 262.14V259.818C188.687 261.667 186.494 262.871 183.398 262.871C177.464 262.914 173.121 258.571 173.121 251.734C173.121 244.983 177.464 240.597 183.355 240.597C186.537 240.597 188.773 242.016 190.235 243.951ZM184.731 258.012C188.042 258.012 190.106 255.475 190.106 251.82C190.106 248.122 188.042 245.499 184.731 245.499C181.42 245.499 179.313 248.079 179.313 251.777C179.313 255.475 181.42 258.012 184.731 258.012ZM211.232 263.258C203.879 263.258 199.45 258.829 199.45 251.992C199.45 245.112 203.965 240.64 210.802 240.64C217.424 240.64 221.896 244.768 221.982 251.261C221.982 251.906 221.939 252.637 221.81 253.325H205.771V253.626C205.9 256.765 207.921 258.657 210.974 258.657C213.425 258.657 215.145 257.582 215.661 255.518H221.638C220.95 259.818 217.123 263.258 211.232 263.258ZM205.9 249.369H215.876C215.446 246.66 213.597 245.155 210.845 245.155C208.222 245.155 206.244 246.746 205.9 249.369ZM223.648 259.689C223.648 257.582 225.196 256.077 227.303 256.077C229.367 256.077 230.958 257.582 230.958 259.689C230.958 261.753 229.367 263.258 227.303 263.258C225.196 263.258 223.648 261.753 223.648 259.689Z" fill="#F6F3F1"/>
</svg>
