<svg width="330" height="227" viewBox="0 0 330 227" fill="none" xmlns="http://www.w3.org/2000/svg">
<path d="M8.557 38L0.172 7.9L6.88 7.857L12.427 29.873L18.318 7.9H24.123L29.842 29.873L35.518 7.9H42.054L33.669 38H26.273L21.027 18.005L15.953 38H8.557ZM53.0865 38.258C46.0345 38.258 41.4335 33.743 41.4335 26.949C41.4335 20.155 46.0345 15.64 53.0865 15.64C60.1385 15.64 64.7395 20.155 64.7395 26.949C64.7395 33.786 60.1385 38.258 53.0865 38.258ZM53.0865 33.313C56.4835 33.313 58.5905 30.69 58.5905 26.949C58.5905 23.208 56.4835 20.585 53.0865 20.585C49.6895 20.585 47.6255 23.208 47.6255 26.949C47.6255 30.69 49.6895 33.313 53.0865 33.313ZM94.5217 15.64C99.0797 15.64 102.692 18.22 102.692 25.315V38H96.6287V25.659C96.6287 22.348 95.4247 20.628 92.8017 20.628C90.1787 20.628 88.4157 22.563 88.4157 25.917V38H82.3527V25.659C82.3527 22.348 81.1487 20.628 78.4827 20.628C75.8597 20.628 74.1397 22.649 74.1397 25.96V38H68.0767V15.898H73.3657L73.9247 18.65C75.2577 16.93 77.1927 15.683 80.4177 15.64C83.1267 15.597 85.6637 16.586 87.0397 19.381C88.5877 17.016 91.1677 15.64 94.5217 15.64ZM117.338 38.258C109.985 38.258 105.556 33.829 105.556 26.992C105.556 20.112 110.071 15.64 116.908 15.64C123.53 15.64 128.002 19.768 128.088 26.261C128.088 26.906 128.045 27.637 127.916 28.325H111.877V28.626C112.006 31.765 114.027 33.657 117.08 33.657C119.531 33.657 121.251 32.582 121.767 30.518H127.744C127.056 34.818 123.229 38.258 117.338 38.258ZM112.006 24.369H121.982C121.552 21.66 119.703 20.155 116.951 20.155C114.328 20.155 112.35 21.746 112.006 24.369ZM144.086 15.64C148.859 15.64 152.944 18.177 152.944 25.745V38H146.881V26.347C146.881 22.606 145.462 20.628 142.409 20.628C139.27 20.628 137.464 22.864 137.464 26.691V38H131.401V15.898H136.69L137.249 18.65C138.668 16.93 140.689 15.64 144.086 15.64ZM7.138 55.652V52.9H13.201V83H7.009V63.521C6.536 63.65 6.02 63.693 5.375 63.693H0.344V58.576H4.816C6.536 58.576 7.138 57.415 7.138 55.652ZM34.4511 67.262C37.5471 67.95 40.3851 70.315 40.3851 74.615C40.3851 79.775 36.1711 83.258 28.6891 83.258C21.2071 83.258 16.9931 79.775 16.9931 74.615C16.9931 70.358 19.8311 68.036 22.9271 67.305C20.2611 66.531 17.7671 64.381 17.7671 60.597C17.7671 55.953 21.8951 52.642 28.6891 52.642C35.4831 52.642 39.6111 55.953 39.6111 60.597C39.6111 64.123 37.1601 66.488 34.4511 67.262ZM28.6891 57.071C25.8511 57.071 24.0021 58.619 24.0021 60.898C24.0021 63.22 25.8511 64.811 28.6891 64.811C31.5701 64.811 33.4191 63.22 33.4191 60.898C33.4191 58.619 31.5701 57.071 28.6891 57.071ZM28.6891 78.872C31.9141 78.872 34.1071 76.98 34.1071 74.4C34.1071 71.777 31.9141 69.842 28.6891 69.842C25.5071 69.842 23.3141 71.777 23.3141 74.4C23.3141 76.98 25.5071 78.872 28.6891 78.872ZM58.3423 73.239H43.2923V68.294H58.3423V73.239ZM60.28 83V78.227L71.718 68.767C74.341 66.617 75.975 64.811 75.975 62.36C75.975 59.393 74.04 57.845 71.288 57.845C68.407 57.845 66.429 59.823 66.429 63.091V63.564H60.194V62.704C60.194 57.028 64.451 52.642 71.331 52.642C78.383 52.642 82.21 56.469 82.21 62.102C82.21 66.531 79.802 69.24 76.018 72.293L69.267 77.797H82.382V83H60.28ZM83.7885 76.55V71.433L97.0755 52.9H104.601V71.39H108.772V76.55H104.601V83H98.5375V76.55H83.7885ZM98.5375 59.049L89.7225 71.39H98.5375V59.049ZM1.376 118.11L7.697 118.196C7.912 121.12 10.234 123.141 13.932 123.141C16.899 123.141 19.092 121.851 19.092 119.486C19.092 116.949 16.641 116.433 11.61 115.444C6.536 114.498 2.064 112.864 2.064 106.758C2.064 101.426 6.493 97.642 13.287 97.642C20.382 97.642 24.897 101.34 24.983 107.102H18.662C18.361 104.565 16.426 102.802 13.287 102.802C10.535 102.802 8.557 103.963 8.557 106.285C8.557 108.736 10.922 109.252 15.91 110.198C21.07 111.144 25.628 112.692 25.585 118.755C25.542 124.388 20.898 128.258 13.846 128.258C6.192 128.258 1.419 124.216 1.376 118.11ZM32.035 103.533C30.057 103.533 28.509 102.071 28.509 100.136C28.509 98.158 30.057 96.696 32.035 96.696C34.013 96.696 35.561 98.158 35.561 100.136C35.561 102.071 34.013 103.533 32.035 103.533ZM28.982 128V105.898H35.088V128H28.982ZM51.9551 105.64C56.7281 105.64 60.8131 108.177 60.8131 115.745V128H54.7501V116.347C54.7501 112.606 53.3311 110.628 50.2781 110.628C47.1391 110.628 45.3331 112.864 45.3331 116.691V128H39.2701V105.898H44.5591L45.1181 108.65C46.5371 106.93 48.5581 105.64 51.9551 105.64ZM80.8874 108.951L81.4034 105.898H86.7354V127.355C86.7354 132.816 83.3814 136.858 74.9104 136.858C68.7614 136.858 64.5474 134.063 64.2464 128.946H70.3524C70.9114 131.053 72.5884 132.257 75.3834 132.257C78.7804 132.257 80.8014 130.58 80.8014 127.14V124.818C79.3394 126.667 77.1464 127.871 74.0504 127.871C68.1164 127.914 63.7734 123.571 63.7734 116.734C63.7734 109.983 68.1164 105.597 74.0074 105.597C77.1894 105.597 79.4254 107.016 80.8874 108.951ZM75.3834 123.012C78.6944 123.012 80.7584 120.475 80.7584 116.82C80.7584 113.122 78.6944 110.499 75.3834 110.499C72.0724 110.499 69.9654 113.079 69.9654 116.777C69.9654 120.475 72.0724 123.012 75.3834 123.012ZM90.9625 128V97.9H97.0255V128H90.9625ZM112.173 128.258C104.82 128.258 100.391 123.829 100.391 116.992C100.391 110.112 104.906 105.64 111.743 105.64C118.365 105.64 122.837 109.768 122.923 116.261C122.923 116.906 122.88 117.637 122.751 118.325H106.712V118.626C106.841 121.765 108.862 123.657 111.915 123.657C114.366 123.657 116.086 122.582 116.602 120.518H122.579C121.891 124.818 118.064 128.258 112.173 128.258ZM106.841 114.369H116.817C116.387 111.66 114.538 110.155 111.786 110.155C109.163 110.155 107.185 111.746 106.841 114.369ZM8.901 173H2.58V142.9H8.428L21.199 161.863V142.9H27.563V173H21.672L8.901 154.037V173ZM43.0084 173.258C35.9564 173.258 31.3554 168.743 31.3554 161.949C31.3554 155.155 35.9564 150.64 43.0084 150.64C50.0604 150.64 54.6614 155.155 54.6614 161.949C54.6614 168.786 50.0604 173.258 43.0084 173.258ZM43.0084 168.313C46.4054 168.313 48.5124 165.69 48.5124 161.949C48.5124 158.208 46.4054 155.585 43.0084 155.585C39.6114 155.585 37.5474 158.208 37.5474 161.949C37.5474 165.69 39.6114 168.313 43.0084 168.313ZM70.4256 150.898H71.4576V156.402H69.0496C65.4376 156.402 64.0616 158.81 64.0616 162.164V173H57.9986V150.898H63.5026L64.0616 154.209C65.2656 152.231 66.9856 150.898 70.4256 150.898ZM76.7224 166.679V156.015H73.0674V150.898H76.7224V144.706H82.7854V150.898H87.8594V156.015H82.7854V165.69C82.7854 167.238 83.3874 167.883 84.9784 167.883H87.9884V173H83.0434C78.8294 173 76.7224 170.893 76.7224 166.679ZM103.394 150.64C108.296 150.64 112.338 153.263 112.338 160.745V173H106.275V161.261C106.275 157.649 104.813 155.628 101.803 155.628C98.7065 155.628 96.8575 157.864 96.8575 161.648V173H90.7945V142.9H96.8575V153.607C98.2765 151.887 100.255 150.64 103.394 150.64ZM131.554 173H124.889L135.897 142.9H143.637L154.559 173H147.636L145.314 166.421H133.876L131.554 173ZM139.552 149.78L135.596 161.218H143.551L139.552 149.78ZM183.293 150.64C187.851 150.64 191.463 153.22 191.463 160.315V173H185.4V160.659C185.4 157.348 184.196 155.628 181.573 155.628C178.95 155.628 177.187 157.563 177.187 160.917V173H171.124V160.659C171.124 157.348 169.92 155.628 167.254 155.628C164.631 155.628 162.911 157.649 162.911 160.96V173H156.848V150.898H162.137L162.696 153.65C164.029 151.93 165.964 150.683 169.189 150.64C171.898 150.597 174.435 151.586 175.811 154.381C177.359 152.016 179.939 150.64 183.293 150.64ZM206.109 173.258C198.756 173.258 194.327 168.829 194.327 161.992C194.327 155.112 198.842 150.64 205.679 150.64C212.301 150.64 216.773 154.768 216.859 161.261C216.859 161.906 216.816 162.637 216.687 163.325H200.648V163.626C200.777 166.765 202.798 168.657 205.851 168.657C208.302 168.657 210.022 167.582 210.538 165.518H216.515C215.827 169.818 212 173.258 206.109 173.258ZM200.777 159.369H210.753C210.323 156.66 208.474 155.155 205.722 155.155C203.099 155.155 201.121 156.746 200.777 159.369ZM232.599 150.898H233.631V156.402H231.223C227.611 156.402 226.235 158.81 226.235 162.164V173H220.172V150.898H225.676L226.235 154.209C227.439 152.231 229.159 150.898 232.599 150.898ZM239.392 148.533C237.414 148.533 235.866 147.071 235.866 145.136C235.866 143.158 237.414 141.696 239.392 141.696C241.37 141.696 242.918 143.158 242.918 145.136C242.918 147.071 241.37 148.533 239.392 148.533ZM236.339 173V150.898H242.445V173H236.339ZM257.034 173.258C250.025 173.258 245.768 168.915 245.768 161.949C245.768 155.112 250.24 150.64 257.249 150.64C263.269 150.64 267.01 153.908 267.87 159.154H261.549C261.033 156.961 259.528 155.585 257.163 155.585C253.981 155.585 251.96 158.208 251.96 161.949C251.96 165.733 253.981 168.313 257.163 168.313C259.528 168.313 261.119 166.894 261.549 164.658H267.913C267.053 169.947 263.054 173.258 257.034 173.258ZM292.179 167.883H292.867V173H289.771C286.632 173 285.643 171.495 285.686 169.388C284.138 171.839 281.902 173.258 278.462 173.258C273.689 173.258 270.249 170.979 270.249 166.765C270.249 162.078 273.775 159.412 280.397 159.412H284.783V158.337C284.783 156.359 283.364 155.069 280.827 155.069C278.462 155.069 276.871 156.144 276.613 157.778H270.765C271.195 153.478 275.151 150.64 280.999 150.64C287.191 150.64 290.76 153.392 290.76 158.681V166.507C290.76 167.668 291.233 167.883 292.179 167.883ZM284.783 163.884V163.454H280.354C277.817 163.454 276.355 164.486 276.355 166.335C276.355 167.883 277.602 168.872 279.623 168.872C282.805 168.872 284.74 166.894 284.783 163.884Z" fill="#131313"/>
<path d="M172.547 38L165.323 15.898H171.73L176.159 31.464L180.33 15.898H185.791L189.833 31.507L194.348 15.898H200.54L193.273 38H186.823L182.953 24.67L178.997 38H172.547ZM215.261 15.64C220.163 15.64 224.205 18.263 224.205 25.745V38H218.142V26.261C218.142 22.649 216.68 20.628 213.67 20.628C210.574 20.628 208.725 22.864 208.725 26.648V38H202.662V7.9H208.725V18.607C210.144 16.887 212.122 15.64 215.261 15.64ZM238.734 38.258C231.682 38.258 227.081 33.743 227.081 26.949C227.081 20.155 231.682 15.64 238.734 15.64C245.786 15.64 250.387 20.155 250.387 26.949C250.387 33.786 245.786 38.258 238.734 38.258ZM238.734 33.313C242.131 33.313 244.238 30.69 244.238 26.949C244.238 23.208 242.131 20.585 238.734 20.585C235.337 20.585 233.273 23.208 233.273 26.949C233.273 30.69 235.337 33.313 238.734 33.313ZM285.46 32.883H286.148V38H283.052C279.913 38 278.924 36.495 278.967 34.388C277.419 36.839 275.183 38.258 271.743 38.258C266.97 38.258 263.53 35.979 263.53 31.765C263.53 27.078 267.056 24.412 273.678 24.412H278.064V23.337C278.064 21.359 276.645 20.069 274.108 20.069C271.743 20.069 270.152 21.144 269.894 22.778H264.046C264.476 18.478 268.432 15.64 274.28 15.64C280.472 15.64 284.041 18.392 284.041 23.681V31.507C284.041 32.668 284.514 32.883 285.46 32.883ZM278.064 28.884V28.454H273.635C271.098 28.454 269.636 29.486 269.636 31.335C269.636 32.883 270.883 33.872 272.904 33.872C276.086 33.872 278.021 31.894 278.064 28.884ZM300.921 15.898H301.953V21.402H299.545C295.933 21.402 294.557 23.81 294.557 27.164V38H288.494V15.898H293.998L294.557 19.209C295.761 17.231 297.481 15.898 300.921 15.898ZM314.869 38.258C307.516 38.258 303.087 33.829 303.087 26.992C303.087 20.112 307.602 15.64 314.439 15.64C321.061 15.64 325.533 19.768 325.619 26.261C325.619 26.906 325.576 27.637 325.447 28.325H309.408V28.626C309.537 31.765 311.558 33.657 314.611 33.657C317.062 33.657 318.782 32.582 319.298 30.518H325.275C324.587 34.818 320.76 38.258 314.869 38.258ZM309.537 24.369H319.513C319.083 21.66 317.234 20.155 314.482 20.155C311.859 20.155 309.881 21.746 309.537 24.369ZM113.704 76.206C116.413 76.206 118.219 78.528 118.219 81.839C118.219 86.655 115.08 89.192 110.178 89.235V86.096C112.93 86.053 114.263 84.72 114.263 83.172C114.263 83 114.263 82.742 114.22 82.57C113.79 82.785 113.36 82.914 112.844 82.914C111.253 82.914 109.92 81.839 109.92 79.646C109.92 77.754 111.597 76.206 113.704 76.206ZM153.311 77.883H153.999V83H150.903C147.764 83 146.775 81.495 146.818 79.388C145.27 81.839 143.034 83.258 139.594 83.258C134.821 83.258 131.381 80.979 131.381 76.765C131.381 72.078 134.907 69.412 141.529 69.412H145.915V68.337C145.915 66.359 144.496 65.069 141.959 65.069C139.594 65.069 138.003 66.144 137.745 67.778H131.897C132.327 63.478 136.283 60.64 142.131 60.64C148.323 60.64 151.892 63.392 151.892 68.681V76.507C151.892 77.668 152.365 77.883 153.311 77.883ZM145.915 73.884V73.454H141.486C138.949 73.454 137.487 74.486 137.487 76.335C137.487 77.883 138.734 78.872 140.755 78.872C143.937 78.872 145.872 76.894 145.915 73.884ZM169.029 60.64C173.802 60.64 177.887 63.177 177.887 70.745V83H171.824V71.347C171.824 67.606 170.405 65.628 167.352 65.628C164.213 65.628 162.407 67.864 162.407 71.691V83H156.344V60.898H161.633L162.192 63.65C163.611 61.93 165.632 60.64 169.029 60.64ZM197.663 63.65V52.9H203.726V83H198.437L197.835 79.947C196.373 81.839 194.223 83.258 191.041 83.258C185.107 83.258 180.764 78.915 180.764 71.906C180.764 65.069 185.107 60.64 190.998 60.64C194.051 60.64 196.244 61.844 197.663 63.65ZM192.374 78.313C195.685 78.313 197.749 75.733 197.749 71.992C197.749 68.208 195.685 65.585 192.374 65.585C189.063 65.585 186.956 68.165 186.956 71.949C186.956 75.733 189.063 78.313 192.374 78.313ZM239.689 77.883H240.377V83H237.281C234.142 83 233.153 81.495 233.196 79.388C231.648 81.839 229.412 83.258 225.972 83.258C221.199 83.258 217.759 80.979 217.759 76.765C217.759 72.078 221.285 69.412 227.907 69.412H232.293V68.337C232.293 66.359 230.874 65.069 228.337 65.069C225.972 65.069 224.381 66.144 224.123 67.778H218.275C218.705 63.478 222.661 60.64 228.509 60.64C234.701 60.64 238.27 63.392 238.27 68.681V76.507C238.27 77.668 238.743 77.883 239.689 77.883ZM232.293 73.884V73.454H227.864C225.327 73.454 223.865 74.486 223.865 76.335C223.865 77.883 225.112 78.872 227.133 78.872C230.315 78.872 232.25 76.894 232.293 73.884ZM255.149 60.898H256.181V66.402H253.773C250.161 66.402 248.785 68.81 248.785 72.164V83H242.722V60.898H248.226L248.785 64.209C249.989 62.231 251.709 60.898 255.149 60.898ZM269.097 83.258C261.744 83.258 257.315 78.829 257.315 71.992C257.315 65.112 261.83 60.64 268.667 60.64C275.289 60.64 279.761 64.768 279.847 71.261C279.847 71.906 279.804 72.637 279.675 73.325H263.636V73.626C263.765 76.765 265.786 78.657 268.839 78.657C271.29 78.657 273.01 77.582 273.526 75.518H279.503C278.815 79.818 274.988 83.258 269.097 83.258ZM263.765 69.369H273.741C273.311 66.66 271.462 65.155 268.71 65.155C266.087 65.155 264.109 66.746 263.765 69.369ZM127.813 121.206C130.522 121.206 132.328 123.528 132.328 126.839C132.328 131.655 129.189 134.192 124.287 134.235V131.096C127.039 131.053 128.372 129.72 128.372 128.172C128.372 128 128.372 127.742 128.329 127.57C127.899 127.785 127.469 127.914 126.953 127.914C125.362 127.914 124.029 126.839 124.029 124.646C124.029 122.754 125.706 121.206 127.813 121.206ZM144.286 111.015V105.898H147.941V104.264C147.941 100.179 150.134 97.9 154.606 97.9H159.551V103.06H155.681C154.477 103.06 153.875 103.619 153.875 104.866V105.898H159.551V111.015H154.004V128H147.941V111.015H144.286ZM174.272 105.898H175.304V111.402H172.896C169.284 111.402 167.908 113.81 167.908 117.164V128H161.845V105.898H167.349L167.908 109.209C169.112 107.231 170.832 105.898 174.272 105.898ZM188.091 128.258C181.039 128.258 176.438 123.743 176.438 116.949C176.438 110.155 181.039 105.64 188.091 105.64C195.143 105.64 199.744 110.155 199.744 116.949C199.744 123.786 195.143 128.258 188.091 128.258ZM188.091 123.313C191.488 123.313 193.595 120.69 193.595 116.949C193.595 113.208 191.488 110.585 188.091 110.585C184.694 110.585 182.63 113.208 182.63 116.949C182.63 120.69 184.694 123.313 188.091 123.313ZM229.527 105.64C234.085 105.64 237.697 108.22 237.697 115.315V128H231.634V115.659C231.634 112.348 230.43 110.628 227.807 110.628C225.184 110.628 223.421 112.563 223.421 115.917V128H217.358V115.659C217.358 112.348 216.154 110.628 213.488 110.628C210.865 110.628 209.145 112.649 209.145 115.96V128H203.082V105.898H208.371L208.93 108.65C210.263 106.93 212.198 105.683 215.423 105.64C218.132 105.597 220.669 106.586 222.045 109.381C223.593 107.016 226.173 105.64 229.527 105.64ZM298.007 166.206C300.716 166.206 302.522 168.528 302.522 171.839C302.522 176.655 299.383 179.192 294.481 179.235V176.096C297.233 176.053 298.566 174.72 298.566 173.172C298.566 173 298.566 172.742 298.523 172.57C298.093 172.785 297.663 172.914 297.147 172.914C295.556 172.914 294.223 171.839 294.223 169.646C294.223 167.754 295.9 166.206 298.007 166.206ZM12.9 218.258C5.848 218.258 1.247 213.743 1.247 206.949C1.247 200.155 5.848 195.64 12.9 195.64C19.952 195.64 24.553 200.155 24.553 206.949C24.553 213.786 19.952 218.258 12.9 218.258ZM12.9 213.313C16.297 213.313 18.404 210.69 18.404 206.949C18.404 203.208 16.297 200.585 12.9 200.585C9.503 200.585 7.439 203.208 7.439 206.949C7.439 210.69 9.503 213.313 12.9 213.313ZM40.5752 195.64C45.3482 195.64 49.4332 198.177 49.4332 205.745V218H43.3702V206.347C43.3702 202.606 41.9512 200.628 38.8982 200.628C35.7592 200.628 33.9532 202.864 33.9532 206.691V218H27.8902V195.898H33.1792L33.7382 198.65C35.1572 196.93 37.1782 195.64 40.5752 195.64ZM84.9895 212.883H85.6775V218H82.5815C79.4425 218 78.4535 216.495 78.4965 214.388C76.9485 216.839 74.7125 218.258 71.2725 218.258C66.4995 218.258 63.0595 215.979 63.0595 211.765C63.0595 207.078 66.5855 204.412 73.2075 204.412H77.5935V203.337C77.5935 201.359 76.1745 200.069 73.6375 200.069C71.2725 200.069 69.6815 201.144 69.4235 202.778H63.5755C64.0055 198.478 67.9615 195.64 73.8095 195.64C80.0015 195.64 83.5705 198.392 83.5705 203.681V211.507C83.5705 212.668 84.0435 212.883 84.9895 212.883ZM77.5935 208.884V208.454H73.1645C70.6275 208.454 69.1655 209.486 69.1655 211.335C69.1655 212.883 70.4125 213.872 72.4335 213.872C75.6155 213.872 77.5505 211.894 77.5935 208.884ZM92.8202 218L84.8652 195.898H91.3582L96.6902 211.808L101.936 195.898H108.3L100.345 218H92.8202ZM120.193 218.258C112.84 218.258 108.411 213.829 108.411 206.992C108.411 200.112 112.926 195.64 119.763 195.64C126.385 195.64 130.857 199.768 130.943 206.261C130.943 206.906 130.9 207.637 130.771 208.325H114.732V208.626C114.861 211.765 116.882 213.657 119.935 213.657C122.386 213.657 124.106 212.582 124.622 210.518H130.599C129.911 214.818 126.084 218.258 120.193 218.258ZM114.861 204.369H124.837C124.407 201.66 122.558 200.155 119.806 200.155C117.183 200.155 115.205 201.746 114.861 204.369ZM146.683 195.898H147.715V201.402H145.307C141.695 201.402 140.319 203.81 140.319 207.164V218H134.256V195.898H139.76L140.319 199.209C141.523 197.231 143.243 195.898 146.683 195.898ZM170.948 212.883H171.636V218H168.54C165.401 218 164.412 216.495 164.455 214.388C162.907 216.839 160.671 218.258 157.231 218.258C152.458 218.258 149.018 215.979 149.018 211.765C149.018 207.078 152.544 204.412 159.166 204.412H163.552V203.337C163.552 201.359 162.133 200.069 159.596 200.069C157.231 200.069 155.64 201.144 155.382 202.778H149.534C149.964 198.478 153.92 195.64 159.768 195.64C165.96 195.64 169.529 198.392 169.529 203.681V211.507C169.529 212.668 170.002 212.883 170.948 212.883ZM163.552 208.884V208.454H159.123C156.586 208.454 155.124 209.486 155.124 211.335C155.124 212.883 156.371 213.872 158.392 213.872C161.574 213.872 163.509 211.894 163.552 208.884ZM190.235 198.951L190.751 195.898H196.083V217.355C196.083 222.816 192.729 226.858 184.258 226.858C178.109 226.858 173.895 224.063 173.594 218.946H179.7C180.259 221.053 181.936 222.257 184.731 222.257C188.128 222.257 190.149 220.58 190.149 217.14V214.818C188.687 216.667 186.494 217.871 183.398 217.871C177.464 217.914 173.121 213.571 173.121 206.734C173.121 199.983 177.464 195.597 183.355 195.597C186.537 195.597 188.773 197.016 190.235 198.951ZM184.731 213.012C188.042 213.012 190.106 210.475 190.106 206.82C190.106 203.122 188.042 200.499 184.731 200.499C181.42 200.499 179.313 203.079 179.313 206.777C179.313 210.475 181.42 213.012 184.731 213.012ZM211.232 218.258C203.879 218.258 199.45 213.829 199.45 206.992C199.45 200.112 203.965 195.64 210.802 195.64C217.424 195.64 221.896 199.768 221.982 206.261C221.982 206.906 221.939 207.637 221.81 208.325H205.771V208.626C205.9 211.765 207.921 213.657 210.974 213.657C213.425 213.657 215.145 212.582 215.661 210.518H221.638C220.95 214.818 217.123 218.258 211.232 218.258ZM205.9 204.369H215.876C215.446 201.66 213.597 200.155 210.845 200.155C208.222 200.155 206.244 201.746 205.9 204.369ZM223.648 214.689C223.648 212.582 225.196 211.077 227.303 211.077C229.367 211.077 230.958 212.582 230.958 214.689C230.958 216.753 229.367 218.258 227.303 218.258C225.196 218.258 223.648 216.753 223.648 214.689Z" fill="#F6F3F1"/>
</svg>
