<svg width="330" height="272" viewBox="0 0 330 272" fill="none" xmlns="http://www.w3.org/2000/svg">
<path d="M8.557 38L0.172 7.9L6.88 7.857L12.427 29.873L18.318 7.9H24.123L29.842 29.873L35.518 7.9H42.054L33.669 38H26.273L21.027 18.005L15.953 38H8.557ZM53.0865 38.258C46.0345 38.258 41.4335 33.743 41.4335 26.949C41.4335 20.155 46.0345 15.64 53.0865 15.64C60.1385 15.64 64.7395 20.155 64.7395 26.949C64.7395 33.786 60.1385 38.258 53.0865 38.258ZM53.0865 33.313C56.4835 33.313 58.5905 30.69 58.5905 26.949C58.5905 23.208 56.4835 20.585 53.0865 20.585C49.6895 20.585 47.6255 23.208 47.6255 26.949C47.6255 30.69 49.6895 33.313 53.0865 33.313ZM94.5217 15.64C99.0797 15.64 102.692 18.22 102.692 25.315V38H96.6287V25.659C96.6287 22.348 95.4247 20.628 92.8017 20.628C90.1787 20.628 88.4157 22.563 88.4157 25.917V38H82.3527V25.659C82.3527 22.348 81.1487 20.628 78.4827 20.628C75.8597 20.628 74.1397 22.649 74.1397 25.96V38H68.0767V15.898H73.3657L73.9247 18.65C75.2577 16.93 77.1927 15.683 80.4177 15.64C83.1267 15.597 85.6637 16.586 87.0397 19.381C88.5877 17.016 91.1677 15.64 94.5217 15.64ZM117.338 38.258C109.985 38.258 105.556 33.829 105.556 26.992C105.556 20.112 110.071 15.64 116.908 15.64C123.53 15.64 128.002 19.768 128.088 26.261C128.088 26.906 128.045 27.637 127.916 28.325H111.877V28.626C112.006 31.765 114.027 33.657 117.08 33.657C119.531 33.657 121.251 32.582 121.767 30.518H127.744C127.056 34.818 123.229 38.258 117.338 38.258ZM112.006 24.369H121.982C121.552 21.66 119.703 20.155 116.951 20.155C114.328 20.155 112.35 21.746 112.006 24.369ZM144.086 15.64C148.859 15.64 152.944 18.177 152.944 25.745V38H146.881V26.347C146.881 22.606 145.462 20.628 142.409 20.628C139.27 20.628 137.464 22.864 137.464 26.691V38H131.401V15.898H136.69L137.249 18.65C138.668 16.93 140.689 15.64 144.086 15.64ZM7.138 55.652V52.9H13.201V83H7.009V63.521C6.536 63.65 6.02 63.693 5.375 63.693H0.344V58.576H4.816C6.536 58.576 7.138 57.415 7.138 55.652ZM16.1761 58.146V52.9H38.2351V56.899L24.9911 83H18.2831L31.4411 58.146H16.1761ZM72.5178 77.883H73.2058V83H70.1098C66.9708 83 65.9818 81.495 66.0248 79.388C64.4768 81.839 62.2408 83.258 58.8008 83.258C54.0278 83.258 50.5878 80.979 50.5878 76.765C50.5878 72.078 54.1138 69.412 60.7358 69.412H65.1218V68.337C65.1218 66.359 63.7028 65.069 61.1658 65.069C58.8008 65.069 57.2098 66.144 56.9518 67.778H51.1038C51.5338 63.478 55.4898 60.64 61.3378 60.64C67.5298 60.64 71.0988 63.392 71.0988 68.681V76.507C71.0988 77.668 71.5718 77.883 72.5178 77.883ZM65.1218 73.884V73.454H60.6928C58.1558 73.454 56.6938 74.486 56.6938 76.335C56.6938 77.883 57.9408 78.872 59.9618 78.872C63.1438 78.872 65.0788 76.894 65.1218 73.884ZM88.2363 60.64C93.0093 60.64 97.0943 63.177 97.0943 70.745V83H91.0313V71.347C91.0313 67.606 89.6123 65.628 86.5593 65.628C83.4203 65.628 81.6143 67.864 81.6143 71.691V83H75.5513V60.898H80.8403L81.3993 63.65C82.8183 61.93 84.8393 60.64 88.2363 60.64ZM116.87 63.65V52.9H122.933V83H117.644L117.042 79.947C115.58 81.839 113.43 83.258 110.248 83.258C104.314 83.258 99.9706 78.915 99.9706 71.906C99.9706 65.069 104.314 60.64 110.205 60.64C113.258 60.64 115.451 61.844 116.87 63.65ZM111.581 78.313C114.892 78.313 116.956 75.733 116.956 71.992C116.956 68.208 114.892 65.585 111.581 65.585C108.27 65.585 106.163 68.165 106.163 71.949C106.163 75.733 108.27 78.313 111.581 78.313ZM152.575 71.949V60.898H158.638V83H153.263L152.704 80.334C151.285 82.054 149.35 83.258 146.211 83.258C141.653 83.258 137.439 80.979 137.439 73.153V60.898H143.502V72.336C143.502 76.292 144.792 78.227 147.802 78.227C150.812 78.227 152.575 76.034 152.575 71.949ZM175.538 60.64C180.311 60.64 184.396 63.177 184.396 70.745V83H178.333V71.347C178.333 67.606 176.914 65.628 173.861 65.628C170.722 65.628 168.916 67.864 168.916 71.691V83H162.853V60.898H168.142L168.701 63.65C170.12 61.93 172.141 60.64 175.538 60.64ZM204.171 63.65V52.9H210.234V83H204.945L204.343 79.947C202.881 81.839 200.731 83.258 197.549 83.258C191.615 83.258 187.272 78.915 187.272 71.906C187.272 65.069 191.615 60.64 197.506 60.64C200.559 60.64 202.752 61.844 204.171 63.65ZM198.882 78.313C202.193 78.313 204.257 75.733 204.257 71.992C204.257 68.208 202.193 65.585 198.882 65.585C195.571 65.585 193.464 68.165 193.464 71.949C193.464 75.733 195.571 78.313 198.882 78.313ZM225.383 83.258C218.03 83.258 213.601 78.829 213.601 71.992C213.601 65.112 218.116 60.64 224.953 60.64C231.575 60.64 236.047 64.768 236.133 71.261C236.133 71.906 236.09 72.637 235.961 73.325H219.922V73.626C220.051 76.765 222.072 78.657 225.125 78.657C227.576 78.657 229.296 77.582 229.812 75.518H235.789C235.101 79.818 231.274 83.258 225.383 83.258ZM220.051 69.369H230.027C229.597 66.66 227.748 65.155 224.996 65.155C222.373 65.155 220.395 66.746 220.051 69.369ZM251.874 60.898H252.906V66.402H250.498C246.886 66.402 245.51 68.81 245.51 72.164V83H239.447V60.898H244.951L245.51 64.209C246.714 62.231 248.434 60.898 251.874 60.898ZM162.962 118.11L169.283 118.196C169.498 121.12 171.82 123.141 175.518 123.141C178.485 123.141 180.678 121.851 180.678 119.486C180.678 116.949 178.227 116.433 173.196 115.444C168.122 114.498 163.65 112.864 163.65 106.758C163.65 101.426 168.079 97.642 174.873 97.642C181.968 97.642 186.483 101.34 186.569 107.102H180.248C179.947 104.565 178.012 102.802 174.873 102.802C172.121 102.802 170.143 103.963 170.143 106.285C170.143 108.736 172.508 109.252 177.496 110.198C182.656 111.144 187.214 112.692 187.171 118.755C187.128 124.388 182.484 128.258 175.432 128.258C167.778 128.258 163.005 124.216 162.962 118.11ZM193.621 103.533C191.643 103.533 190.095 102.071 190.095 100.136C190.095 98.158 191.643 96.696 193.621 96.696C195.599 96.696 197.147 98.158 197.147 100.136C197.147 102.071 195.599 103.533 193.621 103.533ZM190.568 128V105.898H196.674V128H190.568ZM213.541 105.64C218.314 105.64 222.399 108.177 222.399 115.745V128H216.336V116.347C216.336 112.606 214.917 110.628 211.864 110.628C208.725 110.628 206.919 112.864 206.919 116.691V128H200.856V105.898H206.145L206.704 108.65C208.123 106.93 210.144 105.64 213.541 105.64ZM242.473 108.951L242.989 105.898H248.321V127.355C248.321 132.816 244.967 136.858 236.496 136.858C230.347 136.858 226.133 134.063 225.832 128.946H231.938C232.497 131.053 234.174 132.257 236.969 132.257C240.366 132.257 242.387 130.58 242.387 127.14V124.818C240.925 126.667 238.732 127.871 235.636 127.871C229.702 127.914 225.359 123.571 225.359 116.734C225.359 109.983 229.702 105.597 235.593 105.597C238.775 105.597 241.011 107.016 242.473 108.951ZM236.969 123.012C240.28 123.012 242.344 120.475 242.344 116.82C242.344 113.122 240.28 110.499 236.969 110.499C233.658 110.499 231.551 113.079 231.551 116.777C231.551 120.475 233.658 123.012 236.969 123.012ZM252.548 128V97.9H258.611V128H252.548ZM273.758 128.258C266.405 128.258 261.976 123.829 261.976 116.992C261.976 110.112 266.491 105.64 273.328 105.64C279.95 105.64 284.422 109.768 284.508 116.261C284.508 116.906 284.465 117.637 284.336 118.325H268.297V118.626C268.426 121.765 270.447 123.657 273.5 123.657C275.951 123.657 277.671 122.582 278.187 120.518H284.164C283.476 124.818 279.649 128.258 273.758 128.258ZM268.426 114.369H278.402C277.972 111.66 276.123 110.155 273.371 110.155C270.748 110.155 268.77 111.746 268.426 114.369ZM107.196 163.11L113.517 163.196C113.732 166.12 116.054 168.141 119.752 168.141C122.719 168.141 124.912 166.851 124.912 164.486C124.912 161.949 122.461 161.433 117.43 160.444C112.356 159.498 107.884 157.864 107.884 151.758C107.884 146.426 112.313 142.642 119.107 142.642C126.202 142.642 130.717 146.34 130.803 152.102H124.482C124.181 149.565 122.246 147.802 119.107 147.802C116.355 147.802 114.377 148.963 114.377 151.285C114.377 153.736 116.742 154.252 121.73 155.198C126.89 156.144 131.448 157.692 131.405 163.755C131.362 169.388 126.718 173.258 119.666 173.258C112.012 173.258 107.239 169.216 107.196 163.11ZM145.595 173.258C138.543 173.258 133.942 168.743 133.942 161.949C133.942 155.155 138.543 150.64 145.595 150.64C152.647 150.64 157.248 155.155 157.248 161.949C157.248 168.786 152.647 173.258 145.595 173.258ZM145.595 168.313C148.992 168.313 151.099 165.69 151.099 161.949C151.099 158.208 148.992 155.585 145.595 155.585C142.198 155.585 140.134 158.208 140.134 161.949C140.134 165.69 142.198 168.313 145.595 168.313ZM175.335 161.949V150.898H181.398V173H176.023L175.464 170.334C174.045 172.054 172.11 173.258 168.971 173.258C164.413 173.258 160.199 170.979 160.199 163.153V150.898H166.262V162.336C166.262 166.292 167.552 168.227 170.562 168.227C173.572 168.227 175.335 166.034 175.335 161.949ZM187.372 166.679V156.015H183.717V150.898H187.372V144.706H193.435V150.898H198.509V156.015H193.435V165.69C193.435 167.238 194.037 167.883 195.628 167.883H198.638V173H193.693C189.479 173 187.372 170.893 187.372 166.679ZM214.043 150.64C218.945 150.64 222.987 153.263 222.987 160.745V173H216.924V161.261C216.924 157.649 215.462 155.628 212.452 155.628C209.356 155.628 207.507 157.864 207.507 161.648V173H201.444V142.9H207.507V153.607C208.926 151.887 210.904 150.64 214.043 150.64ZM6.837 218H0.172L11.18 187.9H18.92L29.842 218H22.919L20.597 211.421H9.159L6.837 218ZM14.835 194.78L10.879 206.218H18.834L14.835 194.78ZM58.5764 195.64C63.1344 195.64 66.7464 198.22 66.7464 205.315V218H60.6834V205.659C60.6834 202.348 59.4794 200.628 56.8564 200.628C54.2334 200.628 52.4704 202.563 52.4704 205.917V218H46.4074V205.659C46.4074 202.348 45.2034 200.628 42.5374 200.628C39.9144 200.628 38.1944 202.649 38.1944 205.96V218H32.1314V195.898H37.4204L37.9794 198.65C39.3124 196.93 41.2474 195.683 44.4724 195.64C47.1814 195.597 49.7184 196.586 51.0944 199.381C52.6424 197.016 55.2224 195.64 58.5764 195.64ZM81.3923 218.258C74.0393 218.258 69.6103 213.829 69.6103 206.992C69.6103 200.112 74.1253 195.64 80.9623 195.64C87.5843 195.64 92.0563 199.768 92.1423 206.261C92.1423 206.906 92.0993 207.637 91.9703 208.325H75.9313V208.626C76.0603 211.765 78.0813 213.657 81.1343 213.657C83.5853 213.657 85.3053 212.582 85.8213 210.518H91.7983C91.1103 214.818 87.2833 218.258 81.3923 218.258ZM76.0603 204.369H86.0363C85.6063 201.66 83.7573 200.155 81.0053 200.155C78.3823 200.155 76.4043 201.746 76.0603 204.369ZM107.883 195.898H108.915V201.402H106.507C102.895 201.402 101.519 203.81 101.519 207.164V218H95.4556V195.898H100.96L101.519 199.209C102.723 197.231 104.443 195.898 107.883 195.898ZM114.676 193.533C112.698 193.533 111.15 192.071 111.15 190.136C111.15 188.158 112.698 186.696 114.676 186.696C116.654 186.696 118.202 188.158 118.202 190.136C118.202 192.071 116.654 193.533 114.676 193.533ZM111.623 218V195.898H117.729V218H111.623ZM132.317 218.258C125.308 218.258 121.051 213.915 121.051 206.949C121.051 200.112 125.523 195.64 132.532 195.64C138.552 195.64 142.293 198.908 143.153 204.154H136.832C136.316 201.961 134.811 200.585 132.446 200.585C129.264 200.585 127.243 203.208 127.243 206.949C127.243 210.733 129.264 213.313 132.446 213.313C134.811 213.313 136.402 211.894 136.832 209.658H143.196C142.336 214.947 138.337 218.258 132.317 218.258ZM167.462 212.883H168.15V218H165.054C161.915 218 160.926 216.495 160.969 214.388C159.421 216.839 157.185 218.258 153.745 218.258C148.972 218.258 145.532 215.979 145.532 211.765C145.532 207.078 149.058 204.412 155.68 204.412H160.066V203.337C160.066 201.359 158.647 200.069 156.11 200.069C153.745 200.069 152.154 201.144 151.896 202.778H146.048C146.478 198.478 150.434 195.64 156.282 195.64C162.474 195.64 166.043 198.392 166.043 203.681V211.507C166.043 212.668 166.516 212.883 167.462 212.883ZM160.066 208.884V208.454H155.637C153.1 208.454 151.638 209.486 151.638 211.335C151.638 212.883 152.885 213.872 154.906 213.872C158.088 213.872 160.023 211.894 160.066 208.884Z" fill="#131313"/>
<path d="M172.547 38L165.323 15.898H171.73L176.159 31.464L180.33 15.898H185.791L189.833 31.507L194.348 15.898H200.54L193.273 38H186.823L182.953 24.67L178.997 38H172.547ZM215.261 15.64C220.163 15.64 224.205 18.263 224.205 25.745V38H218.142V26.261C218.142 22.649 216.68 20.628 213.67 20.628C210.574 20.628 208.725 22.864 208.725 26.648V38H202.662V7.9H208.725V18.607C210.144 16.887 212.122 15.64 215.261 15.64ZM238.734 38.258C231.682 38.258 227.081 33.743 227.081 26.949C227.081 20.155 231.682 15.64 238.734 15.64C245.786 15.64 250.387 20.155 250.387 26.949C250.387 33.786 245.786 38.258 238.734 38.258ZM238.734 33.313C242.131 33.313 244.238 30.69 244.238 26.949C244.238 23.208 242.131 20.585 238.734 20.585C235.337 20.585 233.273 23.208 233.273 26.949C233.273 30.69 235.337 33.313 238.734 33.313ZM285.46 32.883H286.148V38H283.052C279.913 38 278.924 36.495 278.967 34.388C277.419 36.839 275.183 38.258 271.743 38.258C266.97 38.258 263.53 35.979 263.53 31.765C263.53 27.078 267.056 24.412 273.678 24.412H278.064V23.337C278.064 21.359 276.645 20.069 274.108 20.069C271.743 20.069 270.152 21.144 269.894 22.778H264.046C264.476 18.478 268.432 15.64 274.28 15.64C280.472 15.64 284.041 18.392 284.041 23.681V31.507C284.041 32.668 284.514 32.883 285.46 32.883ZM278.064 28.884V28.454H273.635C271.098 28.454 269.636 29.486 269.636 31.335C269.636 32.883 270.883 33.872 272.904 33.872C276.086 33.872 278.021 31.894 278.064 28.884ZM300.921 15.898H301.953V21.402H299.545C295.933 21.402 294.557 23.81 294.557 27.164V38H288.494V15.898H293.998L294.557 19.209C295.761 17.231 297.481 15.898 300.921 15.898ZM314.869 38.258C307.516 38.258 303.087 33.829 303.087 26.992C303.087 20.112 307.602 15.64 314.439 15.64C321.061 15.64 325.533 19.768 325.619 26.261C325.619 26.906 325.576 27.637 325.447 28.325H309.408V28.626C309.537 31.765 311.558 33.657 314.611 33.657C317.062 33.657 318.782 32.582 319.298 30.518H325.275C324.587 34.818 320.76 38.258 314.869 38.258ZM309.537 24.369H319.513C319.083 21.66 317.234 20.155 314.482 20.155C311.859 20.155 309.881 21.746 309.537 24.369ZM255.931 76.206C258.64 76.206 260.446 78.528 260.446 81.839C260.446 86.655 257.307 89.192 252.405 89.235V86.096C255.157 86.053 256.49 84.72 256.49 83.172C256.49 83 256.49 82.742 256.447 82.57C256.017 82.785 255.587 82.914 255.071 82.914C253.48 82.914 252.147 81.839 252.147 79.646C252.147 77.754 253.824 76.206 255.931 76.206ZM23.177 122.883H23.865V128H20.769C17.63 128 16.641 126.495 16.684 124.388C15.136 126.839 12.9 128.258 9.46 128.258C4.687 128.258 1.247 125.979 1.247 121.765C1.247 117.078 4.773 114.412 11.395 114.412H15.781V113.337C15.781 111.359 14.362 110.069 11.825 110.069C9.46 110.069 7.869 111.144 7.611 112.778H1.763C2.193 108.478 6.149 105.64 11.997 105.64C18.189 105.64 21.758 108.392 21.758 113.681V121.507C21.758 122.668 22.231 122.883 23.177 122.883ZM15.781 118.884V118.454H11.352C8.815 118.454 7.353 119.486 7.353 121.335C7.353 122.883 8.6 123.872 10.621 123.872C13.803 123.872 15.738 121.894 15.781 118.884ZM38.8955 105.64C43.6685 105.64 47.7535 108.177 47.7535 115.745V128H41.6905V116.347C41.6905 112.606 40.2715 110.628 37.2185 110.628C34.0795 110.628 32.2735 112.864 32.2735 116.691V128H26.2105V105.898H31.4995L32.0585 108.65C33.4775 106.93 35.4985 105.64 38.8955 105.64ZM67.5288 108.65V97.9H73.5918V128H68.3028L67.7008 124.947C66.2388 126.839 64.0888 128.258 60.9068 128.258C54.9728 128.258 50.6298 123.915 50.6298 116.906C50.6298 110.069 54.9728 105.64 60.8638 105.64C63.9168 105.64 66.1098 106.844 67.5288 108.65ZM62.2398 123.313C65.5508 123.313 67.6148 120.733 67.6148 116.992C67.6148 113.208 65.5508 110.585 62.2398 110.585C58.9288 110.585 56.8218 113.165 56.8218 116.949C56.8218 120.733 58.9288 123.313 62.2398 123.313ZM109.555 122.883H110.243V128H107.147C104.008 128 103.019 126.495 103.062 124.388C101.514 126.839 99.2779 128.258 95.8379 128.258C91.0649 128.258 87.6249 125.979 87.6249 121.765C87.6249 117.078 91.1509 114.412 97.7729 114.412H102.159V113.337C102.159 111.359 100.74 110.069 98.2029 110.069C95.8379 110.069 94.2469 111.144 93.9889 112.778H88.1409C88.5709 108.478 92.5269 105.64 98.3749 105.64C104.567 105.64 108.136 108.392 108.136 113.681V121.507C108.136 122.668 108.609 122.883 109.555 122.883ZM102.159 118.884V118.454H97.7299C95.1929 118.454 93.7309 119.486 93.7309 121.335C93.7309 122.883 94.9779 123.872 96.9989 123.872C100.181 123.872 102.116 121.894 102.159 118.884ZM125.015 105.898H126.047V111.402H123.639C120.027 111.402 118.651 113.81 118.651 117.164V128H112.588V105.898H118.092L118.651 109.209C119.855 107.231 121.575 105.898 125.015 105.898ZM138.964 128.258C131.611 128.258 127.182 123.829 127.182 116.992C127.182 110.112 131.697 105.64 138.534 105.64C145.156 105.64 149.628 109.768 149.714 116.261C149.714 116.906 149.671 117.637 149.542 118.325H133.503V118.626C133.632 121.765 135.653 123.657 138.706 123.657C141.157 123.657 142.877 122.582 143.393 120.518H149.37C148.682 124.818 144.855 128.258 138.964 128.258ZM133.632 114.369H143.608C143.178 111.66 141.329 110.155 138.577 110.155C135.954 110.155 133.976 111.746 133.632 114.369ZM289.399 121.206C292.108 121.206 293.914 123.528 293.914 126.839C293.914 131.655 290.775 134.192 285.873 134.235V131.096C288.625 131.053 289.958 129.72 289.958 128.172C289.958 128 289.958 127.742 289.915 127.57C289.485 127.785 289.055 127.914 288.539 127.914C286.948 127.914 285.615 126.839 285.615 124.646C285.615 122.754 287.292 121.206 289.399 121.206ZM0.043 156.015V150.898H3.698V149.264C3.698 145.179 5.891 142.9 10.363 142.9H15.308V148.06H11.438C10.234 148.06 9.632 148.619 9.632 149.866V150.898H15.308V156.015H9.761V173H3.698V156.015H0.043ZM30.0291 150.898H31.0611V156.402H28.6531C25.0411 156.402 23.6651 158.81 23.6651 162.164V173H17.6021V150.898H23.1061L23.6651 154.209C24.8691 152.231 26.5891 150.898 30.0291 150.898ZM43.8482 173.258C36.7962 173.258 32.1952 168.743 32.1952 161.949C32.1952 155.155 36.7962 150.64 43.8482 150.64C50.9002 150.64 55.5012 155.155 55.5012 161.949C55.5012 168.786 50.9002 173.258 43.8482 173.258ZM43.8482 168.313C47.2452 168.313 49.3522 165.69 49.3522 161.949C49.3522 158.208 47.2452 155.585 43.8482 155.585C40.4512 155.585 38.3872 158.208 38.3872 161.949C38.3872 165.69 40.4512 168.313 43.8482 168.313ZM85.2834 150.64C89.8414 150.64 93.4534 153.22 93.4534 160.315V173H87.3904V160.659C87.3904 157.348 86.1864 155.628 83.5634 155.628C80.9404 155.628 79.1774 157.563 79.1774 160.917V173H73.1144V160.659C73.1144 157.348 71.9104 155.628 69.2444 155.628C66.6214 155.628 64.9014 157.649 64.9014 160.96V173H58.8384V150.898H64.1274L64.6864 153.65C66.0194 151.93 67.9544 150.683 71.1794 150.64C73.8884 150.597 76.4254 151.586 77.8014 154.381C79.3494 152.016 81.9294 150.64 85.2834 150.64ZM173.291 211.206C176 211.206 177.806 213.528 177.806 216.839C177.806 221.655 174.667 224.192 169.765 224.235V221.096C172.517 221.053 173.85 219.72 173.85 218.172C173.85 218 173.85 217.742 173.807 217.57C173.377 217.785 172.947 217.914 172.431 217.914C170.84 217.914 169.507 216.839 169.507 214.646C169.507 212.754 171.184 211.206 173.291 211.206ZM12.9 263.258C5.848 263.258 1.247 258.743 1.247 251.949C1.247 245.155 5.848 240.64 12.9 240.64C19.952 240.64 24.553 245.155 24.553 251.949C24.553 258.786 19.952 263.258 12.9 263.258ZM12.9 258.313C16.297 258.313 18.404 255.69 18.404 251.949C18.404 248.208 16.297 245.585 12.9 245.585C9.503 245.585 7.439 248.208 7.439 251.949C7.439 255.69 9.503 258.313 12.9 258.313ZM40.5752 240.64C45.3482 240.64 49.4332 243.177 49.4332 250.745V263H43.3702V251.347C43.3702 247.606 41.9512 245.628 38.8982 245.628C35.7592 245.628 33.9532 247.864 33.9532 251.691V263H27.8902V240.898H33.1792L33.7382 243.65C35.1572 241.93 37.1782 240.64 40.5752 240.64ZM84.9895 257.883H85.6775V263H82.5815C79.4425 263 78.4535 261.495 78.4965 259.388C76.9485 261.839 74.7125 263.258 71.2725 263.258C66.4995 263.258 63.0595 260.979 63.0595 256.765C63.0595 252.078 66.5855 249.412 73.2075 249.412H77.5935V248.337C77.5935 246.359 76.1745 245.069 73.6375 245.069C71.2725 245.069 69.6815 246.144 69.4235 247.778H63.5755C64.0055 243.478 67.9615 240.64 73.8095 240.64C80.0015 240.64 83.5705 243.392 83.5705 248.681V256.507C83.5705 257.668 84.0435 257.883 84.9895 257.883ZM77.5935 253.884V253.454H73.1645C70.6275 253.454 69.1655 254.486 69.1655 256.335C69.1655 257.883 70.4125 258.872 72.4335 258.872C75.6155 258.872 77.5505 256.894 77.5935 253.884ZM92.8202 263L84.8652 240.898H91.3582L96.6902 256.808L101.936 240.898H108.3L100.345 263H92.8202ZM120.193 263.258C112.84 263.258 108.411 258.829 108.411 251.992C108.411 245.112 112.926 240.64 119.763 240.64C126.385 240.64 130.857 244.768 130.943 251.261C130.943 251.906 130.9 252.637 130.771 253.325H114.732V253.626C114.861 256.765 116.882 258.657 119.935 258.657C122.386 258.657 124.106 257.582 124.622 255.518H130.599C129.911 259.818 126.084 263.258 120.193 263.258ZM114.861 249.369H124.837C124.407 246.66 122.558 245.155 119.806 245.155C117.183 245.155 115.205 246.746 114.861 249.369ZM146.683 240.898H147.715V246.402H145.307C141.695 246.402 140.319 248.81 140.319 252.164V263H134.256V240.898H139.76L140.319 244.209C141.523 242.231 143.243 240.898 146.683 240.898ZM170.948 257.883H171.636V263H168.54C165.401 263 164.412 261.495 164.455 259.388C162.907 261.839 160.671 263.258 157.231 263.258C152.458 263.258 149.018 260.979 149.018 256.765C149.018 252.078 152.544 249.412 159.166 249.412H163.552V248.337C163.552 246.359 162.133 245.069 159.596 245.069C157.231 245.069 155.64 246.144 155.382 247.778H149.534C149.964 243.478 153.92 240.64 159.768 240.64C165.96 240.64 169.529 243.392 169.529 248.681V256.507C169.529 257.668 170.002 257.883 170.948 257.883ZM163.552 253.884V253.454H159.123C156.586 253.454 155.124 254.486 155.124 256.335C155.124 257.883 156.371 258.872 158.392 258.872C161.574 258.872 163.509 256.894 163.552 253.884ZM190.235 243.951L190.751 240.898H196.083V262.355C196.083 267.816 192.729 271.858 184.258 271.858C178.109 271.858 173.895 269.063 173.594 263.946H179.7C180.259 266.053 181.936 267.257 184.731 267.257C188.128 267.257 190.149 265.58 190.149 262.14V259.818C188.687 261.667 186.494 262.871 183.398 262.871C177.464 262.914 173.121 258.571 173.121 251.734C173.121 244.983 177.464 240.597 183.355 240.597C186.537 240.597 188.773 242.016 190.235 243.951ZM184.731 258.012C188.042 258.012 190.106 255.475 190.106 251.82C190.106 248.122 188.042 245.499 184.731 245.499C181.42 245.499 179.313 248.079 179.313 251.777C179.313 255.475 181.42 258.012 184.731 258.012ZM211.232 263.258C203.879 263.258 199.45 258.829 199.45 251.992C199.45 245.112 203.965 240.64 210.802 240.64C217.424 240.64 221.896 244.768 221.982 251.261C221.982 251.906 221.939 252.637 221.81 253.325H205.771V253.626C205.9 256.765 207.921 258.657 210.974 258.657C213.425 258.657 215.145 257.582 215.661 255.518H221.638C220.95 259.818 217.123 263.258 211.232 263.258ZM205.9 249.369H215.876C215.446 246.66 213.597 245.155 210.845 245.155C208.222 245.155 206.244 246.746 205.9 249.369ZM223.648 259.689C223.648 257.582 225.196 256.077 227.303 256.077C229.367 256.077 230.958 257.582 230.958 259.689C230.958 261.753 229.367 263.258 227.303 263.258C225.196 263.258 223.648 261.753 223.648 259.689Z" fill="#F6F3F1"/>
</svg>
