<svg width="330" height="227" viewBox="0 0 330 227" fill="none" xmlns="http://www.w3.org/2000/svg">
<path d="M2.58 38V7.9H11.051L19.393 30.002L27.477 7.9H35.776V38H29.627V17.833L21.801 38H16.555L8.729 17.833V38H2.58ZM51.3679 38.258C44.0149 38.258 39.5859 33.829 39.5859 26.992C39.5859 20.112 44.1009 15.64 50.9379 15.64C57.5599 15.64 62.0319 19.768 62.1179 26.261C62.1179 26.906 62.0749 27.637 61.9459 28.325H45.9069V28.626C46.0359 31.765 48.0569 33.657 51.1099 33.657C53.5609 33.657 55.2809 32.582 55.7969 30.518H61.7739C61.0859 34.818 57.2589 38.258 51.3679 38.258ZM46.0359 24.369H56.0119C55.5819 21.66 53.7329 20.155 50.9809 20.155C48.3579 20.155 46.3799 21.746 46.0359 24.369ZM78.1162 15.64C82.8892 15.64 86.9742 18.177 86.9742 25.745V38H80.9112V26.347C80.9112 22.606 79.4922 20.628 76.4392 20.628C73.3002 20.628 71.4942 22.864 71.4942 26.691V38H65.4312V15.898H70.7202L71.2792 18.65C72.6982 16.93 74.7192 15.64 78.1162 15.64ZM4.257 78.528C2.494 75.991 1.505 72.422 1.505 68.251C1.505 58.189 6.321 52.642 13.889 52.642C19.522 52.642 23.951 55.867 24.639 61.371H18.533C17.974 58.963 16.082 57.63 13.416 57.63C9.546 57.63 7.353 60.726 7.353 66.273V67.004C7.482 66.789 7.568 66.617 7.74 66.359C9.116 64.209 11.739 62.833 14.835 62.833C20.898 62.833 25.026 66.961 25.026 73.024C25.026 79.173 20.511 83.258 13.803 83.258C9.589 83.258 6.364 81.538 4.257 78.528ZM18.834 73.024C18.834 69.842 16.899 67.649 13.846 67.649C10.793 67.649 8.686 69.799 8.686 73.024C8.686 76.249 10.707 78.399 13.76 78.399C16.813 78.399 18.834 76.206 18.834 73.024ZM27.8341 68.638V67.262C27.8341 58.275 32.9511 52.642 40.2181 52.642C47.5281 52.642 52.6451 58.275 52.6451 67.262V68.638C52.6451 77.797 47.5281 83.258 40.2181 83.258C32.9511 83.258 27.8341 77.797 27.8341 68.638ZM46.4531 68.423V67.477C46.4531 61.285 43.9161 57.888 40.2181 57.888C36.5631 57.888 34.0261 61.285 34.0261 67.477V68.423C34.0261 74.658 36.5631 78.012 40.2181 78.012C43.9161 78.012 46.4531 74.658 46.4531 68.423ZM87.9709 77.883H88.6589V83H85.5629C82.4239 83 81.4349 81.495 81.4779 79.388C79.9299 81.839 77.6939 83.258 74.2539 83.258C69.4809 83.258 66.0409 80.979 66.0409 76.765C66.0409 72.078 69.5669 69.412 76.1889 69.412H80.5749V68.337C80.5749 66.359 79.1559 65.069 76.6189 65.069C74.2539 65.069 72.6629 66.144 72.4049 67.778H66.5569C66.9869 63.478 70.9429 60.64 76.7909 60.64C82.9829 60.64 86.5519 63.392 86.5519 68.681V76.507C86.5519 77.668 87.0249 77.883 87.9709 77.883ZM80.5749 73.884V73.454H76.1459C73.6089 73.454 72.1469 74.486 72.1469 76.335C72.1469 77.883 73.3939 78.872 75.4149 78.872C78.5969 78.872 80.5319 76.894 80.5749 73.884ZM103.689 60.64C108.462 60.64 112.547 63.177 112.547 70.745V83H106.484V71.347C106.484 67.606 105.065 65.628 102.012 65.628C98.8735 65.628 97.0675 67.864 97.0675 71.691V83H91.0045V60.898H96.2935L96.8525 63.65C98.2715 61.93 100.292 60.64 103.689 60.64ZM132.323 63.65V52.9H138.386V83H133.097L132.495 79.947C131.033 81.839 128.883 83.258 125.701 83.258C119.767 83.258 115.424 78.915 115.424 71.906C115.424 65.069 119.767 60.64 125.658 60.64C128.711 60.64 130.904 61.844 132.323 63.65ZM127.034 78.313C130.345 78.313 132.409 75.733 132.409 71.992C132.409 68.208 130.345 65.585 127.034 65.585C123.723 65.585 121.616 68.165 121.616 71.949C121.616 75.733 123.723 78.313 127.034 78.313ZM164.072 83.258C157.02 83.258 152.419 78.743 152.419 71.949C152.419 65.155 157.02 60.64 164.072 60.64C171.124 60.64 175.725 65.155 175.725 71.949C175.725 78.786 171.124 83.258 164.072 83.258ZM164.072 78.313C167.469 78.313 169.576 75.69 169.576 71.949C169.576 68.208 167.469 65.585 164.072 65.585C160.675 65.585 158.611 68.208 158.611 71.949C158.611 75.69 160.675 78.313 164.072 78.313ZM183.817 83L175.862 60.898H182.355L187.687 76.808L192.933 60.898H199.297L191.342 83H183.817ZM211.19 83.258C203.837 83.258 199.408 78.829 199.408 71.992C199.408 65.112 203.923 60.64 210.76 60.64C217.382 60.64 221.854 64.768 221.94 71.261C221.94 71.906 221.897 72.637 221.768 73.325H205.729V73.626C205.858 76.765 207.879 78.657 210.932 78.657C213.383 78.657 215.103 77.582 215.619 75.518H221.596C220.908 79.818 217.081 83.258 211.19 83.258ZM205.858 69.369H215.834C215.404 66.66 213.555 65.155 210.803 65.155C208.18 65.155 206.202 66.746 205.858 69.369ZM237.68 60.898H238.712V66.402H236.304C232.692 66.402 231.316 68.81 231.316 72.164V83H225.253V60.898H230.757L231.316 64.209C232.52 62.231 234.24 60.898 237.68 60.898ZM83.765 128L75.38 97.9L82.088 97.857L87.635 119.873L93.526 97.9H99.331L105.05 119.873L110.726 97.9H117.262L108.877 128H101.481L96.235 108.005L91.161 128H83.765ZM122.612 103.533C120.634 103.533 119.086 102.071 119.086 100.136C119.086 98.158 120.634 96.696 122.612 96.696C124.59 96.696 126.138 98.158 126.138 100.136C126.138 102.071 124.59 103.533 122.612 103.533ZM119.559 128V105.898H125.665V128H119.559ZM145.886 108.65V97.9H151.949V128H146.66L146.058 124.947C144.596 126.839 142.446 128.258 139.264 128.258C133.33 128.258 128.987 123.915 128.987 116.906C128.987 110.069 133.33 105.64 139.221 105.64C142.274 105.64 144.467 106.844 145.886 108.65ZM140.597 123.313C143.908 123.313 145.972 120.733 145.972 116.992C145.972 113.208 143.908 110.585 140.597 110.585C137.286 110.585 135.179 113.165 135.179 116.949C135.179 120.733 137.286 123.313 140.597 123.313ZM166.969 128.258C159.917 128.258 155.316 123.743 155.316 116.949C155.316 110.155 159.917 105.64 166.969 105.64C174.021 105.64 178.622 110.155 178.622 116.949C178.622 123.786 174.021 128.258 166.969 128.258ZM166.969 123.313C170.366 123.313 172.473 120.69 172.473 116.949C172.473 113.208 170.366 110.585 166.969 110.585C163.572 110.585 161.508 113.208 161.508 116.949C161.508 120.69 163.572 123.313 166.969 123.313ZM186.279 128L179.055 105.898H185.462L189.891 121.464L194.062 105.898H199.523L203.565 121.507L208.08 105.898H214.272L207.005 128H200.555L196.685 114.67L192.729 128H186.279ZM226.517 128.258C219.164 128.258 214.735 123.829 214.735 116.992C214.735 110.112 219.25 105.64 226.087 105.64C232.709 105.64 237.181 109.768 237.267 116.261C237.267 116.906 237.224 117.637 237.095 118.325H221.056V118.626C221.185 121.765 223.206 123.657 226.259 123.657C228.71 123.657 230.43 122.582 230.946 120.518H236.923C236.235 124.818 232.408 128.258 226.517 128.258ZM221.185 114.369H231.161C230.731 111.66 228.882 110.155 226.13 110.155C223.507 110.155 221.529 111.746 221.185 114.369ZM256.62 108.65V97.9H262.683V128H257.394L256.792 124.947C255.33 126.839 253.18 128.258 249.998 128.258C244.064 128.258 239.721 123.915 239.721 116.906C239.721 110.069 244.064 105.64 249.955 105.64C253.008 105.64 255.201 106.844 256.62 108.65ZM251.331 123.313C254.642 123.313 256.706 120.733 256.706 116.992C256.706 113.208 254.642 110.585 251.331 110.585C248.02 110.585 245.913 113.165 245.913 116.949C245.913 120.733 248.02 123.313 251.331 123.313ZM108.4 173V142.9H128.61V148.447H114.85V155.198H126.03V160.487H114.85V167.453H129.083V173H108.4ZM146.822 161.949V150.898H152.885V173H147.51L146.951 170.334C145.532 172.054 143.597 173.258 140.458 173.258C135.9 173.258 131.686 170.979 131.686 163.153V150.898H137.749V162.336C137.749 166.292 139.039 168.227 142.049 168.227C145.059 168.227 146.822 166.034 146.822 161.949ZM169.527 150.898H170.559V156.402H168.151C164.539 156.402 163.163 158.81 163.163 162.164V173H157.1V150.898H162.604L163.163 154.209C164.367 152.231 166.087 150.898 169.527 150.898ZM183.346 173.258C176.294 173.258 171.693 168.743 171.693 161.949C171.693 155.155 176.294 150.64 183.346 150.64C190.398 150.64 194.999 155.155 194.999 161.949C194.999 168.786 190.398 173.258 183.346 173.258ZM183.346 168.313C186.743 168.313 188.85 165.69 188.85 161.949C188.85 158.208 186.743 155.585 183.346 155.585C179.949 155.585 177.885 158.208 177.885 161.949C177.885 165.69 179.949 168.313 183.346 168.313ZM211.021 150.64C216.998 150.597 221.298 155.026 221.298 161.992C221.298 168.872 216.998 173.258 211.064 173.258C208.011 173.258 205.818 172.011 204.399 170.205V181.6H198.336V150.898H203.625L204.227 153.951C205.646 152.059 207.882 150.64 211.021 150.64ZM209.688 168.313C212.999 168.313 215.149 165.69 215.149 161.906C215.149 158.165 212.999 155.585 209.688 155.585C206.377 155.585 204.313 158.165 204.313 161.906C204.313 165.69 206.377 168.313 209.688 168.313ZM235.588 173.258C228.235 173.258 223.806 168.829 223.806 161.992C223.806 155.112 228.321 150.64 235.158 150.64C241.78 150.64 246.252 154.768 246.338 161.261C246.338 161.906 246.295 162.637 246.166 163.325H230.127V163.626C230.256 166.765 232.277 168.657 235.33 168.657C237.781 168.657 239.501 167.582 240.017 165.518H245.994C245.306 169.818 241.479 173.258 235.588 173.258ZM230.256 159.369H240.232C239.802 156.66 237.953 155.155 235.201 155.155C232.578 155.155 230.6 156.746 230.256 159.369Z" fill="#131313"/>
<path d="M106.578 38L99.3535 15.898H105.761L110.19 31.464L114.361 15.898H119.822L123.864 31.507L128.379 15.898H134.571L127.304 38H120.854L116.984 24.67L113.028 38H106.578ZM149.291 15.64C154.193 15.64 158.235 18.263 158.235 25.745V38H152.172V26.261C152.172 22.649 150.71 20.628 147.7 20.628C144.604 20.628 142.755 22.864 142.755 26.648V38H136.692V7.9H142.755V18.607C144.174 16.887 146.152 15.64 149.291 15.64ZM172.764 38.258C165.712 38.258 161.111 33.743 161.111 26.949C161.111 20.155 165.712 15.64 172.764 15.64C179.816 15.64 184.417 20.155 184.417 26.949C184.417 33.786 179.816 38.258 172.764 38.258ZM172.764 33.313C176.161 33.313 178.268 30.69 178.268 26.949C178.268 23.208 176.161 20.585 172.764 20.585C169.367 20.585 167.303 23.208 167.303 26.949C167.303 30.69 169.367 33.313 172.764 33.313ZM219.49 32.883H220.178V38H217.082C213.943 38 212.954 36.495 212.997 34.388C211.449 36.839 209.213 38.258 205.773 38.258C201 38.258 197.56 35.979 197.56 31.765C197.56 27.078 201.086 24.412 207.708 24.412H212.094V23.337C212.094 21.359 210.675 20.069 208.138 20.069C205.773 20.069 204.182 21.144 203.924 22.778H198.076C198.506 18.478 202.462 15.64 208.31 15.64C214.502 15.64 218.071 18.392 218.071 23.681V31.507C218.071 32.668 218.544 32.883 219.49 32.883ZM212.094 28.884V28.454H207.665C205.128 28.454 203.666 29.486 203.666 31.335C203.666 32.883 204.913 33.872 206.934 33.872C210.116 33.872 212.051 31.894 212.094 28.884ZM234.951 15.898H235.983V21.402H233.575C229.963 21.402 228.587 23.81 228.587 27.164V38H222.524V15.898H228.028L228.587 19.209C229.791 17.231 231.511 15.898 234.951 15.898ZM248.899 38.258C241.546 38.258 237.117 33.829 237.117 26.992C237.117 20.112 241.632 15.64 248.469 15.64C255.091 15.64 259.563 19.768 259.649 26.261C259.649 26.906 259.606 27.637 259.477 28.325H243.438V28.626C243.567 31.765 245.588 33.657 248.641 33.657C251.092 33.657 252.812 32.582 253.328 30.518H259.305C258.617 34.818 254.79 38.258 248.899 38.258ZM243.567 24.369H253.543C253.113 21.66 251.264 20.155 248.512 20.155C245.889 20.155 243.911 21.746 243.567 24.369ZM241.738 76.206C244.447 76.206 246.253 78.528 246.253 81.839C246.253 86.655 243.114 89.192 238.212 89.235V86.096C240.964 86.053 242.297 84.72 242.297 83.172C242.297 83 242.297 82.742 242.254 82.57C241.824 82.785 241.394 82.914 240.878 82.914C239.287 82.914 237.954 81.839 237.954 79.646C237.954 77.754 239.631 76.206 241.738 76.206ZM270.679 77.883H271.367V83H268.271C265.132 83 264.143 81.495 264.186 79.388C262.638 81.839 260.402 83.258 256.962 83.258C252.189 83.258 248.749 80.979 248.749 76.765C248.749 72.078 252.275 69.412 258.897 69.412H263.283V68.337C263.283 66.359 261.864 65.069 259.327 65.069C256.962 65.069 255.371 66.144 255.113 67.778H249.265C249.695 63.478 253.651 60.64 259.499 60.64C265.691 60.64 269.26 63.392 269.26 68.681V76.507C269.26 77.668 269.733 77.883 270.679 77.883ZM263.283 73.884V73.454H258.854C256.317 73.454 254.855 74.486 254.855 76.335C254.855 77.883 256.102 78.872 258.123 78.872C261.305 78.872 263.24 76.894 263.283 73.884ZM286.397 60.64C291.17 60.64 295.255 63.177 295.255 70.745V83H289.192V71.347C289.192 67.606 287.773 65.628 284.72 65.628C281.581 65.628 279.775 67.864 279.775 71.691V83H273.712V60.898H279.001L279.56 63.65C280.979 61.93 283 60.64 286.397 60.64ZM315.031 63.65V52.9H321.094V83H315.805L315.203 79.947C313.741 81.839 311.591 83.258 308.409 83.258C302.475 83.258 298.132 78.915 298.132 71.906C298.132 65.069 302.475 60.64 308.366 60.64C311.419 60.64 313.612 61.844 315.031 63.65ZM309.742 78.313C313.053 78.313 315.117 75.733 315.117 71.992C315.117 68.208 313.053 65.585 309.742 65.585C306.431 65.585 304.324 68.165 304.324 71.949C304.324 75.733 306.431 78.313 309.742 78.313ZM23.177 122.883H23.865V128H20.769C17.63 128 16.641 126.495 16.684 124.388C15.136 126.839 12.9 128.258 9.46 128.258C4.687 128.258 1.247 125.979 1.247 121.765C1.247 117.078 4.773 114.412 11.395 114.412H15.781V113.337C15.781 111.359 14.362 110.069 11.825 110.069C9.46 110.069 7.869 111.144 7.611 112.778H1.763C2.193 108.478 6.149 105.64 11.997 105.64C18.189 105.64 21.758 108.392 21.758 113.681V121.507C21.758 122.668 22.231 122.883 23.177 122.883ZM15.781 118.884V118.454H11.352C8.815 118.454 7.353 119.486 7.353 121.335C7.353 122.883 8.6 123.872 10.621 123.872C13.803 123.872 15.738 121.894 15.781 118.884ZM38.6375 105.898H39.6695V111.402H37.2615C33.6495 111.402 32.2735 113.81 32.2735 117.164V128H26.2105V105.898H31.7145L32.2735 109.209C33.4775 107.231 35.1975 105.898 38.6375 105.898ZM52.5856 128.258C45.2326 128.258 40.8036 123.829 40.8036 116.992C40.8036 110.112 45.3186 105.64 52.1556 105.64C58.7776 105.64 63.2496 109.768 63.3356 116.261C63.3356 116.906 63.2926 117.637 63.1636 118.325H47.1246V118.626C47.2536 121.765 49.2746 123.657 52.3276 123.657C54.7786 123.657 56.4986 122.582 57.0146 120.518H62.9916C62.3036 124.818 58.4766 128.258 52.5856 128.258ZM47.2536 114.369H57.2296C56.7996 111.66 54.9506 110.155 52.1986 110.155C49.5756 110.155 47.5976 111.746 47.2536 114.369ZM269.705 121.206C272.414 121.206 274.22 123.528 274.22 126.839C274.22 131.655 271.081 134.192 266.179 134.235V131.096C268.931 131.053 270.264 129.72 270.264 128.172C270.264 128 270.264 127.742 270.221 127.57C269.791 127.785 269.361 127.914 268.845 127.914C267.254 127.914 265.921 126.839 265.921 124.646C265.921 122.754 267.598 121.206 269.705 121.206ZM0.043 156.015V150.898H3.698V149.264C3.698 145.179 5.891 142.9 10.363 142.9H15.308V148.06H11.438C10.234 148.06 9.632 148.619 9.632 149.866V150.898H15.308V156.015H9.761V173H3.698V156.015H0.043ZM30.0291 150.898H31.0611V156.402H28.6531C25.0411 156.402 23.6651 158.81 23.6651 162.164V173H17.6021V150.898H23.1061L23.6651 154.209C24.8691 152.231 26.5891 150.898 30.0291 150.898ZM43.8482 173.258C36.7962 173.258 32.1952 168.743 32.1952 161.949C32.1952 155.155 36.7962 150.64 43.8482 150.64C50.9002 150.64 55.5012 155.155 55.5012 161.949C55.5012 168.786 50.9002 173.258 43.8482 173.258ZM43.8482 168.313C47.2452 168.313 49.3522 165.69 49.3522 161.949C49.3522 158.208 47.2452 155.585 43.8482 155.585C40.4512 155.585 38.3872 158.208 38.3872 161.949C38.3872 165.69 40.4512 168.313 43.8482 168.313ZM85.2834 150.64C89.8414 150.64 93.4534 153.22 93.4534 160.315V173H87.3904V160.659C87.3904 157.348 86.1864 155.628 83.5634 155.628C80.9404 155.628 79.1774 157.563 79.1774 160.917V173H73.1144V160.659C73.1144 157.348 71.9104 155.628 69.2444 155.628C66.6214 155.628 64.9014 157.649 64.9014 160.96V173H58.8384V150.898H64.1274L64.6864 153.65C66.0194 151.93 67.9544 150.683 71.1794 150.64C73.8884 150.597 76.4254 151.586 77.8014 154.381C79.3494 152.016 81.9294 150.64 85.2834 150.64ZM251.228 166.206C253.937 166.206 255.743 168.528 255.743 171.839C255.743 176.655 252.604 179.192 247.702 179.235V176.096C250.454 176.053 251.787 174.72 251.787 173.172C251.787 173 251.787 172.742 251.744 172.57C251.314 172.785 250.884 172.914 250.368 172.914C248.777 172.914 247.444 171.839 247.444 169.646C247.444 167.754 249.121 166.206 251.228 166.206ZM12.9 218.258C5.848 218.258 1.247 213.743 1.247 206.949C1.247 200.155 5.848 195.64 12.9 195.64C19.952 195.64 24.553 200.155 24.553 206.949C24.553 213.786 19.952 218.258 12.9 218.258ZM12.9 213.313C16.297 213.313 18.404 210.69 18.404 206.949C18.404 203.208 16.297 200.585 12.9 200.585C9.503 200.585 7.439 203.208 7.439 206.949C7.439 210.69 9.503 213.313 12.9 213.313ZM40.5752 195.64C45.3482 195.64 49.4332 198.177 49.4332 205.745V218H43.3702V206.347C43.3702 202.606 41.9512 200.628 38.8982 200.628C35.7592 200.628 33.9532 202.864 33.9532 206.691V218H27.8902V195.898H33.1792L33.7382 198.65C35.1572 196.93 37.1782 195.64 40.5752 195.64ZM84.9895 212.883H85.6775V218H82.5815C79.4425 218 78.4535 216.495 78.4965 214.388C76.9485 216.839 74.7125 218.258 71.2725 218.258C66.4995 218.258 63.0595 215.979 63.0595 211.765C63.0595 207.078 66.5855 204.412 73.2075 204.412H77.5935V203.337C77.5935 201.359 76.1745 200.069 73.6375 200.069C71.2725 200.069 69.6815 201.144 69.4235 202.778H63.5755C64.0055 198.478 67.9615 195.64 73.8095 195.64C80.0015 195.64 83.5705 198.392 83.5705 203.681V211.507C83.5705 212.668 84.0435 212.883 84.9895 212.883ZM77.5935 208.884V208.454H73.1645C70.6275 208.454 69.1655 209.486 69.1655 211.335C69.1655 212.883 70.4125 213.872 72.4335 213.872C75.6155 213.872 77.5505 211.894 77.5935 208.884ZM92.8202 218L84.8652 195.898H91.3582L96.6902 211.808L101.936 195.898H108.3L100.345 218H92.8202ZM120.193 218.258C112.84 218.258 108.411 213.829 108.411 206.992C108.411 200.112 112.926 195.64 119.763 195.64C126.385 195.64 130.857 199.768 130.943 206.261C130.943 206.906 130.9 207.637 130.771 208.325H114.732V208.626C114.861 211.765 116.882 213.657 119.935 213.657C122.386 213.657 124.106 212.582 124.622 210.518H130.599C129.911 214.818 126.084 218.258 120.193 218.258ZM114.861 204.369H124.837C124.407 201.66 122.558 200.155 119.806 200.155C117.183 200.155 115.205 201.746 114.861 204.369ZM146.683 195.898H147.715V201.402H145.307C141.695 201.402 140.319 203.81 140.319 207.164V218H134.256V195.898H139.76L140.319 199.209C141.523 197.231 143.243 195.898 146.683 195.898ZM170.948 212.883H171.636V218H168.54C165.401 218 164.412 216.495 164.455 214.388C162.907 216.839 160.671 218.258 157.231 218.258C152.458 218.258 149.018 215.979 149.018 211.765C149.018 207.078 152.544 204.412 159.166 204.412H163.552V203.337C163.552 201.359 162.133 200.069 159.596 200.069C157.231 200.069 155.64 201.144 155.382 202.778H149.534C149.964 198.478 153.92 195.64 159.768 195.64C165.96 195.64 169.529 198.392 169.529 203.681V211.507C169.529 212.668 170.002 212.883 170.948 212.883ZM163.552 208.884V208.454H159.123C156.586 208.454 155.124 209.486 155.124 211.335C155.124 212.883 156.371 213.872 158.392 213.872C161.574 213.872 163.509 211.894 163.552 208.884ZM190.235 198.951L190.751 195.898H196.083V217.355C196.083 222.816 192.729 226.858 184.258 226.858C178.109 226.858 173.895 224.063 173.594 218.946H179.7C180.259 221.053 181.936 222.257 184.731 222.257C188.128 222.257 190.149 220.58 190.149 217.14V214.818C188.687 216.667 186.494 217.871 183.398 217.871C177.464 217.914 173.121 213.571 173.121 206.734C173.121 199.983 177.464 195.597 183.355 195.597C186.537 195.597 188.773 197.016 190.235 198.951ZM184.731 213.012C188.042 213.012 190.106 210.475 190.106 206.82C190.106 203.122 188.042 200.499 184.731 200.499C181.42 200.499 179.313 203.079 179.313 206.777C179.313 210.475 181.42 213.012 184.731 213.012ZM211.232 218.258C203.879 218.258 199.45 213.829 199.45 206.992C199.45 200.112 203.965 195.64 210.802 195.64C217.424 195.64 221.896 199.768 221.982 206.261C221.982 206.906 221.939 207.637 221.81 208.325H205.771V208.626C205.9 211.765 207.921 213.657 210.974 213.657C213.425 213.657 215.145 212.582 215.661 210.518H221.638C220.95 214.818 217.123 218.258 211.232 218.258ZM205.9 204.369H215.876C215.446 201.66 213.597 200.155 210.845 200.155C208.222 200.155 206.244 201.746 205.9 204.369ZM223.648 214.689C223.648 212.582 225.196 211.077 227.303 211.077C229.367 211.077 230.958 212.582 230.958 214.689C230.958 216.753 229.367 218.258 227.303 218.258C225.196 218.258 223.648 216.753 223.648 214.689Z" fill="#F6F3F1"/>
</svg>
