<svg width="330" height="227" viewBox="0 0 330 227" fill="none" xmlns="http://www.w3.org/2000/svg">
<path d="M8.557 38L0.172 7.9L6.88 7.857L12.427 29.873L18.318 7.9H24.123L29.842 29.873L35.518 7.9H42.054L33.669 38H26.273L21.027 18.005L15.953 38H8.557ZM53.0865 38.258C46.0345 38.258 41.4335 33.743 41.4335 26.949C41.4335 20.155 46.0345 15.64 53.0865 15.64C60.1385 15.64 64.7395 20.155 64.7395 26.949C64.7395 33.786 60.1385 38.258 53.0865 38.258ZM53.0865 33.313C56.4835 33.313 58.5905 30.69 58.5905 26.949C58.5905 23.208 56.4835 20.585 53.0865 20.585C49.6895 20.585 47.6255 23.208 47.6255 26.949C47.6255 30.69 49.6895 33.313 53.0865 33.313ZM94.5217 15.64C99.0797 15.64 102.692 18.22 102.692 25.315V38H96.6287V25.659C96.6287 22.348 95.4247 20.628 92.8017 20.628C90.1787 20.628 88.4157 22.563 88.4157 25.917V38H82.3527V25.659C82.3527 22.348 81.1487 20.628 78.4827 20.628C75.8597 20.628 74.1397 22.649 74.1397 25.96V38H68.0767V15.898H73.3657L73.9247 18.65C75.2577 16.93 77.1927 15.683 80.4177 15.64C83.1267 15.597 85.6637 16.586 87.0397 19.381C88.5877 17.016 91.1677 15.64 94.5217 15.64ZM117.338 38.258C109.985 38.258 105.556 33.829 105.556 26.992C105.556 20.112 110.071 15.64 116.908 15.64C123.53 15.64 128.002 19.768 128.088 26.261C128.088 26.906 128.045 27.637 127.916 28.325H111.877V28.626C112.006 31.765 114.027 33.657 117.08 33.657C119.531 33.657 121.251 32.582 121.767 30.518H127.744C127.056 34.818 123.229 38.258 117.338 38.258ZM112.006 24.369H121.982C121.552 21.66 119.703 20.155 116.951 20.155C114.328 20.155 112.35 21.746 112.006 24.369ZM144.086 15.64C148.859 15.64 152.944 18.177 152.944 25.745V38H146.881V26.347C146.881 22.606 145.462 20.628 142.409 20.628C139.27 20.628 137.464 22.864 137.464 26.691V38H131.401V15.898H136.69L137.249 18.65C138.668 16.93 140.689 15.64 144.086 15.64ZM0.903 83V78.227L12.341 68.767C14.964 66.617 16.598 64.811 16.598 62.36C16.598 59.393 14.663 57.845 11.911 57.845C9.03 57.845 7.052 59.823 7.052 63.091V63.564H0.817V62.704C0.817 57.028 5.074 52.642 11.954 52.642C19.006 52.642 22.833 56.469 22.833 62.102C22.833 66.531 20.425 69.24 16.641 72.293L9.89 77.797H23.005V83H0.903ZM38.3355 62.489C44.3985 62.489 48.4835 66.66 48.4835 72.809C48.4835 79.732 43.3235 83.258 37.0885 83.258C30.1225 83.258 25.8225 78.829 25.5645 73.325H31.7135C32.0145 76.034 33.9065 78.184 37.1315 78.184C39.7545 78.184 42.2485 76.378 42.2485 72.809C42.2485 69.627 40.2275 67.391 37.0885 67.391C35.4115 67.391 33.0895 68.036 32.0145 70.53H26.0375L26.8975 52.9H46.6775V58.103H32.5305L32.1865 64.682C33.6915 63.306 35.6695 62.489 38.3355 62.489ZM66.2788 73.239H51.2288V68.294H66.2788V73.239ZM68.2165 83V78.227L79.6545 68.767C82.2775 66.617 83.9115 64.811 83.9115 62.36C83.9115 59.393 81.9765 57.845 79.2245 57.845C76.3435 57.845 74.3655 59.823 74.3655 63.091V63.564H68.1305V62.704C68.1305 57.028 72.3875 52.642 79.2675 52.642C86.3195 52.642 90.1465 56.469 90.1465 62.102C90.1465 66.531 87.7385 69.24 83.9545 72.293L77.2035 77.797H90.3185V83H68.2165ZM103.886 83.258C97.694 83.258 93.695 80.076 93.007 74.529H99.113C99.629 76.894 101.478 78.27 104.23 78.27C108.229 78.27 110.379 75.045 110.379 69.627C110.379 69.412 110.379 69.154 110.336 68.853L109.691 69.799C108.229 71.82 105.821 72.938 102.983 72.938C96.877 72.938 92.749 69.025 92.749 62.876C92.749 56.899 97.264 52.642 103.972 52.642C108.014 52.642 111.153 54.233 113.26 57.028C115.195 59.608 116.313 63.263 116.313 67.606C116.313 77.582 111.884 83.258 103.886 83.258ZM103.929 68.165C106.982 68.165 109.132 66.015 109.132 62.79C109.132 59.608 107.068 57.501 104.015 57.501C100.962 57.501 98.941 59.651 98.941 62.79C98.941 65.972 100.876 68.165 103.929 68.165ZM1.376 118.11L7.697 118.196C7.912 121.12 10.234 123.141 13.932 123.141C16.899 123.141 19.092 121.851 19.092 119.486C19.092 116.949 16.641 116.433 11.61 115.444C6.536 114.498 2.064 112.864 2.064 106.758C2.064 101.426 6.493 97.642 13.287 97.642C20.382 97.642 24.897 101.34 24.983 107.102H18.662C18.361 104.565 16.426 102.802 13.287 102.802C10.535 102.802 8.557 103.963 8.557 106.285C8.557 108.736 10.922 109.252 15.91 110.198C21.07 111.144 25.628 112.692 25.585 118.755C25.542 124.388 20.898 128.258 13.846 128.258C6.192 128.258 1.419 124.216 1.376 118.11ZM32.035 103.533C30.057 103.533 28.509 102.071 28.509 100.136C28.509 98.158 30.057 96.696 32.035 96.696C34.013 96.696 35.561 98.158 35.561 100.136C35.561 102.071 34.013 103.533 32.035 103.533ZM28.982 128V105.898H35.088V128H28.982ZM51.9551 105.64C56.7281 105.64 60.8131 108.177 60.8131 115.745V128H54.7501V116.347C54.7501 112.606 53.3311 110.628 50.2781 110.628C47.1391 110.628 45.3331 112.864 45.3331 116.691V128H39.2701V105.898H44.5591L45.1181 108.65C46.5371 106.93 48.5581 105.64 51.9551 105.64ZM80.8874 108.951L81.4034 105.898H86.7354V127.355C86.7354 132.816 83.3814 136.858 74.9104 136.858C68.7614 136.858 64.5474 134.063 64.2464 128.946H70.3524C70.9114 131.053 72.5884 132.257 75.3834 132.257C78.7804 132.257 80.8014 130.58 80.8014 127.14V124.818C79.3394 126.667 77.1464 127.871 74.0504 127.871C68.1164 127.914 63.7734 123.571 63.7734 116.734C63.7734 109.983 68.1164 105.597 74.0074 105.597C77.1894 105.597 79.4254 107.016 80.8874 108.951ZM75.3834 123.012C78.6944 123.012 80.7584 120.475 80.7584 116.82C80.7584 113.122 78.6944 110.499 75.3834 110.499C72.0724 110.499 69.9654 113.079 69.9654 116.777C69.9654 120.475 72.0724 123.012 75.3834 123.012ZM90.9625 128V97.9H97.0255V128H90.9625ZM112.173 128.258C104.82 128.258 100.391 123.829 100.391 116.992C100.391 110.112 104.906 105.64 111.743 105.64C118.365 105.64 122.837 109.768 122.923 116.261C122.923 116.906 122.88 117.637 122.751 118.325H106.712V118.626C106.841 121.765 108.862 123.657 111.915 123.657C114.366 123.657 116.086 122.582 116.602 120.518H122.579C121.891 124.818 118.064 128.258 112.173 128.258ZM106.841 114.369H116.817C116.387 111.66 114.538 110.155 111.786 110.155C109.163 110.155 107.185 111.746 106.841 114.369ZM2.58 173V142.9H14.835C21.457 142.9 25.886 146.813 25.886 152.919C25.886 156.789 23.865 159.885 20.726 161.39L26.66 173H19.522L14.448 162.895H9.03V173H2.58ZM14.319 148.275H9.03V157.52H14.319C17.372 157.52 19.307 155.714 19.307 152.919C19.307 150.081 17.372 148.275 14.319 148.275ZM44.2769 161.949V150.898H50.3399V173H44.9649L44.4059 170.334C42.9869 172.054 41.0519 173.258 37.9129 173.258C33.3549 173.258 29.1409 170.979 29.1409 163.153V150.898H35.2039V162.336C35.2039 166.292 36.4939 168.227 39.5039 168.227C42.5139 168.227 44.2769 166.034 44.2769 161.949ZM53.5232 165.647H59.2852C59.5002 167.582 61.1772 168.915 64.1442 168.915C66.6812 168.915 68.2292 168.098 68.2292 166.55C68.2292 164.744 66.7242 164.615 63.1552 164.142C57.9952 163.54 53.9962 162.379 53.9962 157.821C53.9962 153.435 57.8232 150.554 63.4992 150.597C69.4332 150.597 73.5182 153.22 73.8192 157.735H68.0142C67.8422 155.972 66.1652 154.897 63.7142 154.897C61.3492 154.897 59.8012 155.757 59.8012 157.176C59.8012 158.853 61.6932 159.025 64.8752 159.412C69.9492 159.928 74.1632 161.089 74.1632 166.077C74.1632 170.463 70.0352 173.258 64.1012 173.258C57.9522 173.258 53.7812 170.377 53.5232 165.647ZM75.9051 165.647H81.6671C81.8821 167.582 83.5591 168.915 86.5261 168.915C89.0631 168.915 90.6111 168.098 90.6111 166.55C90.6111 164.744 89.1061 164.615 85.5371 164.142C80.3771 163.54 76.3781 162.379 76.3781 157.821C76.3781 153.435 80.2051 150.554 85.8811 150.597C91.8151 150.597 95.9001 153.22 96.2011 157.735H90.3961C90.2241 155.972 88.5471 154.897 86.0961 154.897C83.7311 154.897 82.1831 155.757 82.1831 157.176C82.1831 158.853 84.0751 159.025 87.2571 159.412C92.3311 159.928 96.5451 161.089 96.5451 166.077C96.5451 170.463 92.4171 173.258 86.4831 173.258C80.3341 173.258 76.1631 170.377 75.9051 165.647ZM102.792 148.533C100.814 148.533 99.2658 147.071 99.2658 145.136C99.2658 143.158 100.814 141.696 102.792 141.696C104.77 141.696 106.318 143.158 106.318 145.136C106.318 147.071 104.77 148.533 102.792 148.533ZM99.7388 173V150.898H105.845V173H99.7388ZM131.097 167.883H131.785V173H128.689C125.55 173 124.561 171.495 124.604 169.388C123.056 171.839 120.82 173.258 117.38 173.258C112.607 173.258 109.167 170.979 109.167 166.765C109.167 162.078 112.693 159.412 119.315 159.412H123.701V158.337C123.701 156.359 122.282 155.069 119.745 155.069C117.38 155.069 115.789 156.144 115.531 157.778H109.683C110.113 153.478 114.069 150.64 119.917 150.64C126.109 150.64 129.678 153.392 129.678 158.681V166.507C129.678 167.668 130.151 167.883 131.097 167.883ZM123.701 163.884V163.454H119.272C116.735 163.454 115.273 164.486 115.273 166.335C115.273 167.883 116.52 168.872 118.541 168.872C121.723 168.872 123.658 166.894 123.701 163.884Z" fill="#131313"/>
<path d="M172.547 38L165.323 15.898H171.73L176.159 31.464L180.33 15.898H185.791L189.833 31.507L194.348 15.898H200.54L193.273 38H186.823L182.953 24.67L178.997 38H172.547ZM215.261 15.64C220.163 15.64 224.205 18.263 224.205 25.745V38H218.142V26.261C218.142 22.649 216.68 20.628 213.67 20.628C210.574 20.628 208.725 22.864 208.725 26.648V38H202.662V7.9H208.725V18.607C210.144 16.887 212.122 15.64 215.261 15.64ZM238.734 38.258C231.682 38.258 227.081 33.743 227.081 26.949C227.081 20.155 231.682 15.64 238.734 15.64C245.786 15.64 250.387 20.155 250.387 26.949C250.387 33.786 245.786 38.258 238.734 38.258ZM238.734 33.313C242.131 33.313 244.238 30.69 244.238 26.949C244.238 23.208 242.131 20.585 238.734 20.585C235.337 20.585 233.273 23.208 233.273 26.949C233.273 30.69 235.337 33.313 238.734 33.313ZM285.46 32.883H286.148V38H283.052C279.913 38 278.924 36.495 278.967 34.388C277.419 36.839 275.183 38.258 271.743 38.258C266.97 38.258 263.53 35.979 263.53 31.765C263.53 27.078 267.056 24.412 273.678 24.412H278.064V23.337C278.064 21.359 276.645 20.069 274.108 20.069C271.743 20.069 270.152 21.144 269.894 22.778H264.046C264.476 18.478 268.432 15.64 274.28 15.64C280.472 15.64 284.041 18.392 284.041 23.681V31.507C284.041 32.668 284.514 32.883 285.46 32.883ZM278.064 28.884V28.454H273.635C271.098 28.454 269.636 29.486 269.636 31.335C269.636 32.883 270.883 33.872 272.904 33.872C276.086 33.872 278.021 31.894 278.064 28.884ZM300.921 15.898H301.953V21.402H299.545C295.933 21.402 294.557 23.81 294.557 27.164V38H288.494V15.898H293.998L294.557 19.209C295.761 17.231 297.481 15.898 300.921 15.898ZM314.869 38.258C307.516 38.258 303.087 33.829 303.087 26.992C303.087 20.112 307.602 15.64 314.439 15.64C321.061 15.64 325.533 19.768 325.619 26.261C325.619 26.906 325.576 27.637 325.447 28.325H309.408V28.626C309.537 31.765 311.558 33.657 314.611 33.657C317.062 33.657 318.782 32.582 319.298 30.518H325.275C324.587 34.818 320.76 38.258 314.869 38.258ZM309.537 24.369H319.513C319.083 21.66 317.234 20.155 314.482 20.155C311.859 20.155 309.881 21.746 309.537 24.369ZM120.884 76.206C123.593 76.206 125.399 78.528 125.399 81.839C125.399 86.655 122.26 89.192 117.358 89.235V86.096C120.11 86.053 121.443 84.72 121.443 83.172C121.443 83 121.443 82.742 121.4 82.57C120.97 82.785 120.54 82.914 120.024 82.914C118.433 82.914 117.1 81.839 117.1 79.646C117.1 77.754 118.777 76.206 120.884 76.206ZM160.491 77.883H161.179V83H158.083C154.944 83 153.955 81.495 153.998 79.388C152.45 81.839 150.214 83.258 146.774 83.258C142.001 83.258 138.561 80.979 138.561 76.765C138.561 72.078 142.087 69.412 148.709 69.412H153.095V68.337C153.095 66.359 151.676 65.069 149.139 65.069C146.774 65.069 145.183 66.144 144.925 67.778H139.077C139.507 63.478 143.463 60.64 149.311 60.64C155.503 60.64 159.072 63.392 159.072 68.681V76.507C159.072 77.668 159.545 77.883 160.491 77.883ZM153.095 73.884V73.454H148.666C146.129 73.454 144.667 74.486 144.667 76.335C144.667 77.883 145.914 78.872 147.935 78.872C151.117 78.872 153.052 76.894 153.095 73.884ZM176.21 60.64C180.983 60.64 185.068 63.177 185.068 70.745V83H179.005V71.347C179.005 67.606 177.586 65.628 174.533 65.628C171.394 65.628 169.588 67.864 169.588 71.691V83H163.525V60.898H168.814L169.373 63.65C170.792 61.93 172.813 60.64 176.21 60.64ZM204.843 63.65V52.9H210.906V83H205.617L205.015 79.947C203.553 81.839 201.403 83.258 198.221 83.258C192.287 83.258 187.944 78.915 187.944 71.906C187.944 65.069 192.287 60.64 198.178 60.64C201.231 60.64 203.424 61.844 204.843 63.65ZM199.554 78.313C202.865 78.313 204.929 75.733 204.929 71.992C204.929 68.208 202.865 65.585 199.554 65.585C196.243 65.585 194.136 68.165 194.136 71.949C194.136 75.733 196.243 78.313 199.554 78.313ZM246.869 77.883H247.557V83H244.461C241.322 83 240.333 81.495 240.376 79.388C238.828 81.839 236.592 83.258 233.152 83.258C228.379 83.258 224.939 80.979 224.939 76.765C224.939 72.078 228.465 69.412 235.087 69.412H239.473V68.337C239.473 66.359 238.054 65.069 235.517 65.069C233.152 65.069 231.561 66.144 231.303 67.778H225.455C225.885 63.478 229.841 60.64 235.689 60.64C241.881 60.64 245.45 63.392 245.45 68.681V76.507C245.45 77.668 245.923 77.883 246.869 77.883ZM239.473 73.884V73.454H235.044C232.507 73.454 231.045 74.486 231.045 76.335C231.045 77.883 232.292 78.872 234.313 78.872C237.495 78.872 239.43 76.894 239.473 73.884ZM262.33 60.898H263.362V66.402H260.954C257.342 66.402 255.966 68.81 255.966 72.164V83H249.903V60.898H255.407L255.966 64.209C257.17 62.231 258.89 60.898 262.33 60.898ZM276.278 83.258C268.925 83.258 264.496 78.829 264.496 71.992C264.496 65.112 269.011 60.64 275.848 60.64C282.47 60.64 286.942 64.768 287.028 71.261C287.028 71.906 286.985 72.637 286.856 73.325H270.817V73.626C270.946 76.765 272.967 78.657 276.02 78.657C278.471 78.657 280.191 77.582 280.707 75.518H286.684C285.996 79.818 282.169 83.258 276.278 83.258ZM270.946 69.369H280.922C280.492 66.66 278.643 65.155 275.891 65.155C273.268 65.155 271.29 66.746 270.946 69.369ZM127.813 121.206C130.522 121.206 132.328 123.528 132.328 126.839C132.328 131.655 129.189 134.192 124.287 134.235V131.096C127.039 131.053 128.372 129.72 128.372 128.172C128.372 128 128.372 127.742 128.329 127.57C127.899 127.785 127.469 127.914 126.953 127.914C125.362 127.914 124.029 126.839 124.029 124.646C124.029 122.754 125.706 121.206 127.813 121.206ZM144.286 111.015V105.898H147.941V104.264C147.941 100.179 150.134 97.9 154.606 97.9H159.551V103.06H155.681C154.477 103.06 153.875 103.619 153.875 104.866V105.898H159.551V111.015H154.004V128H147.941V111.015H144.286ZM174.272 105.898H175.304V111.402H172.896C169.284 111.402 167.908 113.81 167.908 117.164V128H161.845V105.898H167.349L167.908 109.209C169.112 107.231 170.832 105.898 174.272 105.898ZM188.091 128.258C181.039 128.258 176.438 123.743 176.438 116.949C176.438 110.155 181.039 105.64 188.091 105.64C195.143 105.64 199.744 110.155 199.744 116.949C199.744 123.786 195.143 128.258 188.091 128.258ZM188.091 123.313C191.488 123.313 193.595 120.69 193.595 116.949C193.595 113.208 191.488 110.585 188.091 110.585C184.694 110.585 182.63 113.208 182.63 116.949C182.63 120.69 184.694 123.313 188.091 123.313ZM229.527 105.64C234.085 105.64 237.697 108.22 237.697 115.315V128H231.634V115.659C231.634 112.348 230.43 110.628 227.807 110.628C225.184 110.628 223.421 112.563 223.421 115.917V128H217.358V115.659C217.358 112.348 216.154 110.628 213.488 110.628C210.865 110.628 209.145 112.649 209.145 115.96V128H203.082V105.898H208.371L208.93 108.65C210.263 106.93 212.198 105.683 215.423 105.64C218.132 105.597 220.669 106.586 222.045 109.381C223.593 107.016 226.173 105.64 229.527 105.64ZM136.925 166.206C139.634 166.206 141.44 168.528 141.44 171.839C141.44 176.655 138.301 179.192 133.399 179.235V176.096C136.151 176.053 137.484 174.72 137.484 173.172C137.484 173 137.484 172.742 137.441 172.57C137.011 172.785 136.581 172.914 136.065 172.914C134.474 172.914 133.141 171.839 133.141 169.646C133.141 167.754 134.818 166.206 136.925 166.206ZM12.9 218.258C5.848 218.258 1.247 213.743 1.247 206.949C1.247 200.155 5.848 195.64 12.9 195.64C19.952 195.64 24.553 200.155 24.553 206.949C24.553 213.786 19.952 218.258 12.9 218.258ZM12.9 213.313C16.297 213.313 18.404 210.69 18.404 206.949C18.404 203.208 16.297 200.585 12.9 200.585C9.503 200.585 7.439 203.208 7.439 206.949C7.439 210.69 9.503 213.313 12.9 213.313ZM40.5752 195.64C45.3482 195.64 49.4332 198.177 49.4332 205.745V218H43.3702V206.347C43.3702 202.606 41.9512 200.628 38.8982 200.628C35.7592 200.628 33.9532 202.864 33.9532 206.691V218H27.8902V195.898H33.1792L33.7382 198.65C35.1572 196.93 37.1782 195.64 40.5752 195.64ZM84.9895 212.883H85.6775V218H82.5815C79.4425 218 78.4535 216.495 78.4965 214.388C76.9485 216.839 74.7125 218.258 71.2725 218.258C66.4995 218.258 63.0595 215.979 63.0595 211.765C63.0595 207.078 66.5855 204.412 73.2075 204.412H77.5935V203.337C77.5935 201.359 76.1745 200.069 73.6375 200.069C71.2725 200.069 69.6815 201.144 69.4235 202.778H63.5755C64.0055 198.478 67.9615 195.64 73.8095 195.64C80.0015 195.64 83.5705 198.392 83.5705 203.681V211.507C83.5705 212.668 84.0435 212.883 84.9895 212.883ZM77.5935 208.884V208.454H73.1645C70.6275 208.454 69.1655 209.486 69.1655 211.335C69.1655 212.883 70.4125 213.872 72.4335 213.872C75.6155 213.872 77.5505 211.894 77.5935 208.884ZM92.8202 218L84.8652 195.898H91.3582L96.6902 211.808L101.936 195.898H108.3L100.345 218H92.8202ZM120.193 218.258C112.84 218.258 108.411 213.829 108.411 206.992C108.411 200.112 112.926 195.64 119.763 195.64C126.385 195.64 130.857 199.768 130.943 206.261C130.943 206.906 130.9 207.637 130.771 208.325H114.732V208.626C114.861 211.765 116.882 213.657 119.935 213.657C122.386 213.657 124.106 212.582 124.622 210.518H130.599C129.911 214.818 126.084 218.258 120.193 218.258ZM114.861 204.369H124.837C124.407 201.66 122.558 200.155 119.806 200.155C117.183 200.155 115.205 201.746 114.861 204.369ZM146.683 195.898H147.715V201.402H145.307C141.695 201.402 140.319 203.81 140.319 207.164V218H134.256V195.898H139.76L140.319 199.209C141.523 197.231 143.243 195.898 146.683 195.898ZM170.948 212.883H171.636V218H168.54C165.401 218 164.412 216.495 164.455 214.388C162.907 216.839 160.671 218.258 157.231 218.258C152.458 218.258 149.018 215.979 149.018 211.765C149.018 207.078 152.544 204.412 159.166 204.412H163.552V203.337C163.552 201.359 162.133 200.069 159.596 200.069C157.231 200.069 155.64 201.144 155.382 202.778H149.534C149.964 198.478 153.92 195.64 159.768 195.64C165.96 195.64 169.529 198.392 169.529 203.681V211.507C169.529 212.668 170.002 212.883 170.948 212.883ZM163.552 208.884V208.454H159.123C156.586 208.454 155.124 209.486 155.124 211.335C155.124 212.883 156.371 213.872 158.392 213.872C161.574 213.872 163.509 211.894 163.552 208.884ZM190.235 198.951L190.751 195.898H196.083V217.355C196.083 222.816 192.729 226.858 184.258 226.858C178.109 226.858 173.895 224.063 173.594 218.946H179.7C180.259 221.053 181.936 222.257 184.731 222.257C188.128 222.257 190.149 220.58 190.149 217.14V214.818C188.687 216.667 186.494 217.871 183.398 217.871C177.464 217.914 173.121 213.571 173.121 206.734C173.121 199.983 177.464 195.597 183.355 195.597C186.537 195.597 188.773 197.016 190.235 198.951ZM184.731 213.012C188.042 213.012 190.106 210.475 190.106 206.82C190.106 203.122 188.042 200.499 184.731 200.499C181.42 200.499 179.313 203.079 179.313 206.777C179.313 210.475 181.42 213.012 184.731 213.012ZM211.232 218.258C203.879 218.258 199.45 213.829 199.45 206.992C199.45 200.112 203.965 195.64 210.802 195.64C217.424 195.64 221.896 199.768 221.982 206.261C221.982 206.906 221.939 207.637 221.81 208.325H205.771V208.626C205.9 211.765 207.921 213.657 210.974 213.657C213.425 213.657 215.145 212.582 215.661 210.518H221.638C220.95 214.818 217.123 218.258 211.232 218.258ZM205.9 204.369H215.876C215.446 201.66 213.597 200.155 210.845 200.155C208.222 200.155 206.244 201.746 205.9 204.369ZM223.648 214.689C223.648 212.582 225.196 211.077 227.303 211.077C229.367 211.077 230.958 212.582 230.958 214.689C230.958 216.753 229.367 218.258 227.303 218.258C225.196 218.258 223.648 216.753 223.648 214.689Z" fill="#F6F3F1"/>
</svg>
