<svg width="330" height="227" viewBox="0 0 330 227" fill="none" xmlns="http://www.w3.org/2000/svg">
<path d="M8.557 38L0.172 7.9L6.88 7.857L12.427 29.873L18.318 7.9H24.123L29.842 29.873L35.518 7.9H42.054L33.669 38H26.273L21.027 18.005L15.953 38H8.557ZM53.0865 38.258C46.0345 38.258 41.4335 33.743 41.4335 26.949C41.4335 20.155 46.0345 15.64 53.0865 15.64C60.1385 15.64 64.7395 20.155 64.7395 26.949C64.7395 33.786 60.1385 38.258 53.0865 38.258ZM53.0865 33.313C56.4835 33.313 58.5905 30.69 58.5905 26.949C58.5905 23.208 56.4835 20.585 53.0865 20.585C49.6895 20.585 47.6255 23.208 47.6255 26.949C47.6255 30.69 49.6895 33.313 53.0865 33.313ZM94.5217 15.64C99.0797 15.64 102.692 18.22 102.692 25.315V38H96.6287V25.659C96.6287 22.348 95.4247 20.628 92.8017 20.628C90.1787 20.628 88.4157 22.563 88.4157 25.917V38H82.3527V25.659C82.3527 22.348 81.1487 20.628 78.4827 20.628C75.8597 20.628 74.1397 22.649 74.1397 25.96V38H68.0767V15.898H73.3657L73.9247 18.65C75.2577 16.93 77.1927 15.683 80.4177 15.64C83.1267 15.597 85.6637 16.586 87.0397 19.381C88.5877 17.016 91.1677 15.64 94.5217 15.64ZM117.338 38.258C109.985 38.258 105.556 33.829 105.556 26.992C105.556 20.112 110.071 15.64 116.908 15.64C123.53 15.64 128.002 19.768 128.088 26.261C128.088 26.906 128.045 27.637 127.916 28.325H111.877V28.626C112.006 31.765 114.027 33.657 117.08 33.657C119.531 33.657 121.251 32.582 121.767 30.518H127.744C127.056 34.818 123.229 38.258 117.338 38.258ZM112.006 24.369H121.982C121.552 21.66 119.703 20.155 116.951 20.155C114.328 20.155 112.35 21.746 112.006 24.369ZM144.086 15.64C148.859 15.64 152.944 18.177 152.944 25.745V38H146.881V26.347C146.881 22.606 145.462 20.628 142.409 20.628C139.27 20.628 137.464 22.864 137.464 26.691V38H131.401V15.898H136.69L137.249 18.65C138.668 16.93 140.689 15.64 144.086 15.64ZM18.017 67.348C21.242 67.993 23.865 70.1 23.865 74.486C23.865 79.689 19.393 83.258 12.298 83.258C5.203 83.258 0.688 79.646 0.688 73.196H6.837C6.923 76.593 9.331 78.399 12.599 78.399C15.394 78.399 17.587 76.808 17.587 74.099C17.587 71.734 15.824 70.229 12.341 70.229H9.374V65.284H11.997C15.308 65.284 16.985 63.607 16.985 61.242C16.985 58.791 14.921 57.501 12.341 57.501C9.417 57.501 7.353 59.307 7.267 62.102H1.204C1.29 56.469 5.848 52.642 12.427 52.642C19.221 52.642 23.263 55.824 23.263 60.769C23.263 64.424 20.984 66.574 18.017 67.348ZM26.7843 68.638V67.262C26.7843 58.275 31.9013 52.642 39.1683 52.642C46.4783 52.642 51.5953 58.275 51.5953 67.262V68.638C51.5953 77.797 46.4783 83.258 39.1683 83.258C31.9013 83.258 26.7843 77.797 26.7843 68.638ZM45.4033 68.423V67.477C45.4033 61.285 42.8663 57.888 39.1683 57.888C35.5133 57.888 32.9763 61.285 32.9763 67.477V68.423C32.9763 74.658 35.5133 78.012 39.1683 78.012C42.8663 78.012 45.4033 74.658 45.4033 68.423ZM70.1841 73.239H55.1341V68.294H70.1841V73.239ZM89.9076 67.348C93.1326 67.993 95.7556 70.1 95.7556 74.486C95.7556 79.689 91.2836 83.258 84.1886 83.258C77.0936 83.258 72.5786 79.646 72.5786 73.196H78.7276C78.8136 76.593 81.2216 78.399 84.4896 78.399C87.2846 78.399 89.4776 76.808 89.4776 74.099C89.4776 71.734 87.7146 70.229 84.2316 70.229H81.2646V65.284H83.8876C87.1986 65.284 88.8756 63.607 88.8756 61.242C88.8756 58.791 86.8116 57.501 84.2316 57.501C81.3076 57.501 79.2436 59.307 79.1576 62.102H73.0946C73.1806 56.469 77.7386 52.642 84.3176 52.642C91.1116 52.642 95.1536 55.824 95.1536 60.769C95.1536 64.424 92.8746 66.574 89.9076 67.348ZM109.597 83.258C103.405 83.258 99.4059 80.076 98.7179 74.529H104.824C105.34 76.894 107.189 78.27 109.941 78.27C113.94 78.27 116.09 75.045 116.09 69.627C116.09 69.412 116.09 69.154 116.047 68.853L115.402 69.799C113.94 71.82 111.532 72.938 108.694 72.938C102.588 72.938 98.4599 69.025 98.4599 62.876C98.4599 56.899 102.975 52.642 109.683 52.642C113.725 52.642 116.864 54.233 118.971 57.028C120.906 59.608 122.024 63.263 122.024 67.606C122.024 77.582 117.595 83.258 109.597 83.258ZM109.64 68.165C112.693 68.165 114.843 66.015 114.843 62.79C114.843 59.608 112.779 57.501 109.726 57.501C106.673 57.501 104.652 59.651 104.652 62.79C104.652 65.972 106.587 68.165 109.64 68.165ZM1.376 118.11L7.697 118.196C7.912 121.12 10.234 123.141 13.932 123.141C16.899 123.141 19.092 121.851 19.092 119.486C19.092 116.949 16.641 116.433 11.61 115.444C6.536 114.498 2.064 112.864 2.064 106.758C2.064 101.426 6.493 97.642 13.287 97.642C20.382 97.642 24.897 101.34 24.983 107.102H18.662C18.361 104.565 16.426 102.802 13.287 102.802C10.535 102.802 8.557 103.963 8.557 106.285C8.557 108.736 10.922 109.252 15.91 110.198C21.07 111.144 25.628 112.692 25.585 118.755C25.542 124.388 20.898 128.258 13.846 128.258C6.192 128.258 1.419 124.216 1.376 118.11ZM32.035 103.533C30.057 103.533 28.509 102.071 28.509 100.136C28.509 98.158 30.057 96.696 32.035 96.696C34.013 96.696 35.561 98.158 35.561 100.136C35.561 102.071 34.013 103.533 32.035 103.533ZM28.982 128V105.898H35.088V128H28.982ZM51.9551 105.64C56.7281 105.64 60.8131 108.177 60.8131 115.745V128H54.7501V116.347C54.7501 112.606 53.3311 110.628 50.2781 110.628C47.1391 110.628 45.3331 112.864 45.3331 116.691V128H39.2701V105.898H44.5591L45.1181 108.65C46.5371 106.93 48.5581 105.64 51.9551 105.64ZM80.8874 108.951L81.4034 105.898H86.7354V127.355C86.7354 132.816 83.3814 136.858 74.9104 136.858C68.7614 136.858 64.5474 134.063 64.2464 128.946H70.3524C70.9114 131.053 72.5884 132.257 75.3834 132.257C78.7804 132.257 80.8014 130.58 80.8014 127.14V124.818C79.3394 126.667 77.1464 127.871 74.0504 127.871C68.1164 127.914 63.7734 123.571 63.7734 116.734C63.7734 109.983 68.1164 105.597 74.0074 105.597C77.1894 105.597 79.4254 107.016 80.8874 108.951ZM75.3834 123.012C78.6944 123.012 80.7584 120.475 80.7584 116.82C80.7584 113.122 78.6944 110.499 75.3834 110.499C72.0724 110.499 69.9654 113.079 69.9654 116.777C69.9654 120.475 72.0724 123.012 75.3834 123.012ZM90.9625 128V97.9H97.0255V128H90.9625ZM112.173 128.258C104.82 128.258 100.391 123.829 100.391 116.992C100.391 110.112 104.906 105.64 111.743 105.64C118.365 105.64 122.837 109.768 122.923 116.261C122.923 116.906 122.88 117.637 122.751 118.325H106.712V118.626C106.841 121.765 108.862 123.657 111.915 123.657C114.366 123.657 116.086 122.582 116.602 120.518H122.579C121.891 124.818 118.064 128.258 112.173 128.258ZM106.841 114.369H116.817C116.387 111.66 114.538 110.155 111.786 110.155C109.163 110.155 107.185 111.746 106.841 114.369ZM137.375 128V97.9H149.63C156.166 97.9 160.509 101.813 160.509 107.919C160.509 113.982 156.166 117.895 149.63 117.895H143.825V128H137.375ZM149.028 103.275H143.825V112.52H149.028C152.038 112.52 153.973 110.757 153.973 107.919C153.973 105.038 152.038 103.275 149.028 103.275ZM183.419 122.883H184.107V128H181.011C177.872 128 176.883 126.495 176.926 124.388C175.378 126.839 173.142 128.258 169.702 128.258C164.929 128.258 161.489 125.979 161.489 121.765C161.489 117.078 165.015 114.412 171.637 114.412H176.023V113.337C176.023 111.359 174.604 110.069 172.067 110.069C169.702 110.069 168.111 111.144 167.853 112.778H162.005C162.435 108.478 166.391 105.64 172.239 105.64C178.431 105.64 182 108.392 182 113.681V121.507C182 122.668 182.473 122.883 183.419 122.883ZM176.023 118.884V118.454H171.594C169.057 118.454 167.595 119.486 167.595 121.335C167.595 122.883 168.842 123.872 170.863 123.872C174.045 123.872 175.98 121.894 176.023 118.884ZM198.88 105.898H199.912V111.402H197.504C193.892 111.402 192.516 113.81 192.516 117.164V128H186.453V105.898H191.957L192.516 109.209C193.72 107.231 195.44 105.898 198.88 105.898ZM212.828 128.258C205.475 128.258 201.046 123.829 201.046 116.992C201.046 110.112 205.561 105.64 212.398 105.64C219.02 105.64 223.492 109.768 223.578 116.261C223.578 116.906 223.535 117.637 223.406 118.325H207.367V118.626C207.496 121.765 209.517 123.657 212.57 123.657C215.021 123.657 216.741 122.582 217.257 120.518H223.234C222.546 124.818 218.719 128.258 212.828 128.258ZM207.496 114.369H217.472C217.042 111.66 215.193 110.155 212.441 110.155C209.818 110.155 207.84 111.746 207.496 114.369ZM239.576 105.64C244.349 105.64 248.434 108.177 248.434 115.745V128H242.371V116.347C242.371 112.606 240.952 110.628 237.899 110.628C234.76 110.628 232.954 112.864 232.954 116.691V128H226.891V105.898H232.18L232.739 108.65C234.158 106.93 236.179 105.64 239.576 105.64ZM253.845 121.679V111.015H250.19V105.898H253.845V99.706H259.908V105.898H264.982V111.015H259.908V120.69C259.908 122.238 260.51 122.883 262.101 122.883H265.111V128H260.166C255.952 128 253.845 125.893 253.845 121.679ZM108.4 173V142.9H114.85V173H108.4ZM132.16 150.64C136.933 150.64 141.018 153.177 141.018 160.745V173H134.955V161.347C134.955 157.606 133.536 155.628 130.483 155.628C127.344 155.628 125.538 157.864 125.538 161.691V173H119.475V150.898H124.764L125.323 153.65C126.742 151.93 128.763 150.64 132.16 150.64ZM160.793 153.65V142.9H166.856V173H161.567L160.965 169.947C159.503 171.839 157.353 173.258 154.171 173.258C148.237 173.258 143.894 168.915 143.894 161.906C143.894 155.069 148.237 150.64 154.128 150.64C157.181 150.64 159.374 151.844 160.793 153.65ZM155.504 168.313C158.815 168.313 160.879 165.733 160.879 161.992C160.879 158.208 158.815 155.585 155.504 155.585C152.193 155.585 150.086 158.165 150.086 161.949C150.086 165.733 152.193 168.313 155.504 168.313ZM174.137 148.533C172.159 148.533 170.611 147.071 170.611 145.136C170.611 143.158 172.159 141.696 174.137 141.696C176.115 141.696 177.663 143.158 177.663 145.136C177.663 147.071 176.115 148.533 174.137 148.533ZM171.084 173V150.898H177.19V173H171.084ZM202.442 167.883H203.13V173H200.034C196.895 173 195.906 171.495 195.949 169.388C194.401 171.839 192.165 173.258 188.725 173.258C183.952 173.258 180.512 170.979 180.512 166.765C180.512 162.078 184.038 159.412 190.66 159.412H195.046V158.337C195.046 156.359 193.627 155.069 191.09 155.069C188.725 155.069 187.134 156.144 186.876 157.778H181.028C181.458 153.478 185.414 150.64 191.262 150.64C197.454 150.64 201.023 153.392 201.023 158.681V166.507C201.023 167.668 201.496 167.883 202.442 167.883ZM195.046 163.884V163.454H190.617C188.08 163.454 186.618 164.486 186.618 166.335C186.618 167.883 187.865 168.872 189.886 168.872C193.068 168.872 195.003 166.894 195.046 163.884Z" fill="#131313"/>
<path d="M172.547 38L165.323 15.898H171.73L176.159 31.464L180.33 15.898H185.791L189.833 31.507L194.348 15.898H200.54L193.273 38H186.823L182.953 24.67L178.997 38H172.547ZM215.261 15.64C220.163 15.64 224.205 18.263 224.205 25.745V38H218.142V26.261C218.142 22.649 216.68 20.628 213.67 20.628C210.574 20.628 208.725 22.864 208.725 26.648V38H202.662V7.9H208.725V18.607C210.144 16.887 212.122 15.64 215.261 15.64ZM238.734 38.258C231.682 38.258 227.081 33.743 227.081 26.949C227.081 20.155 231.682 15.64 238.734 15.64C245.786 15.64 250.387 20.155 250.387 26.949C250.387 33.786 245.786 38.258 238.734 38.258ZM238.734 33.313C242.131 33.313 244.238 30.69 244.238 26.949C244.238 23.208 242.131 20.585 238.734 20.585C235.337 20.585 233.273 23.208 233.273 26.949C233.273 30.69 235.337 33.313 238.734 33.313ZM285.46 32.883H286.148V38H283.052C279.913 38 278.924 36.495 278.967 34.388C277.419 36.839 275.183 38.258 271.743 38.258C266.97 38.258 263.53 35.979 263.53 31.765C263.53 27.078 267.056 24.412 273.678 24.412H278.064V23.337C278.064 21.359 276.645 20.069 274.108 20.069C271.743 20.069 270.152 21.144 269.894 22.778H264.046C264.476 18.478 268.432 15.64 274.28 15.64C280.472 15.64 284.041 18.392 284.041 23.681V31.507C284.041 32.668 284.514 32.883 285.46 32.883ZM278.064 28.884V28.454H273.635C271.098 28.454 269.636 29.486 269.636 31.335C269.636 32.883 270.883 33.872 272.904 33.872C276.086 33.872 278.021 31.894 278.064 28.884ZM300.921 15.898H301.953V21.402H299.545C295.933 21.402 294.557 23.81 294.557 27.164V38H288.494V15.898H293.998L294.557 19.209C295.761 17.231 297.481 15.898 300.921 15.898ZM314.869 38.258C307.516 38.258 303.087 33.829 303.087 26.992C303.087 20.112 307.602 15.64 314.439 15.64C321.061 15.64 325.533 19.768 325.619 26.261C325.619 26.906 325.576 27.637 325.447 28.325H309.408V28.626C309.537 31.765 311.558 33.657 314.611 33.657C317.062 33.657 318.782 32.582 319.298 30.518H325.275C324.587 34.818 320.76 38.258 314.869 38.258ZM309.537 24.369H319.513C319.083 21.66 317.234 20.155 314.482 20.155C311.859 20.155 309.881 21.746 309.537 24.369ZM126.595 76.206C129.304 76.206 131.11 78.528 131.11 81.839C131.11 86.655 127.971 89.192 123.069 89.235V86.096C125.821 86.053 127.154 84.72 127.154 83.172C127.154 83 127.154 82.742 127.111 82.57C126.681 82.785 126.251 82.914 125.735 82.914C124.144 82.914 122.811 81.839 122.811 79.646C122.811 77.754 124.488 76.206 126.595 76.206ZM166.202 77.883H166.89V83H163.794C160.655 83 159.666 81.495 159.709 79.388C158.161 81.839 155.925 83.258 152.485 83.258C147.712 83.258 144.272 80.979 144.272 76.765C144.272 72.078 147.798 69.412 154.42 69.412H158.806V68.337C158.806 66.359 157.387 65.069 154.85 65.069C152.485 65.069 150.894 66.144 150.636 67.778H144.788C145.218 63.478 149.174 60.64 155.022 60.64C161.214 60.64 164.783 63.392 164.783 68.681V76.507C164.783 77.668 165.256 77.883 166.202 77.883ZM158.806 73.884V73.454H154.377C151.84 73.454 150.378 74.486 150.378 76.335C150.378 77.883 151.625 78.872 153.646 78.872C156.828 78.872 158.763 76.894 158.806 73.884ZM181.921 60.64C186.694 60.64 190.779 63.177 190.779 70.745V83H184.716V71.347C184.716 67.606 183.297 65.628 180.244 65.628C177.105 65.628 175.299 67.864 175.299 71.691V83H169.236V60.898H174.525L175.084 63.65C176.503 61.93 178.524 60.64 181.921 60.64ZM210.554 63.65V52.9H216.617V83H211.328L210.726 79.947C209.264 81.839 207.114 83.258 203.932 83.258C197.998 83.258 193.655 78.915 193.655 71.906C193.655 65.069 197.998 60.64 203.889 60.64C206.942 60.64 209.135 61.844 210.554 63.65ZM205.265 78.313C208.576 78.313 210.64 75.733 210.64 71.992C210.64 68.208 208.576 65.585 205.265 65.585C201.954 65.585 199.847 68.165 199.847 71.949C199.847 75.733 201.954 78.313 205.265 78.313ZM252.58 77.883H253.268V83H250.172C247.033 83 246.044 81.495 246.087 79.388C244.539 81.839 242.303 83.258 238.863 83.258C234.09 83.258 230.65 80.979 230.65 76.765C230.65 72.078 234.176 69.412 240.798 69.412H245.184V68.337C245.184 66.359 243.765 65.069 241.228 65.069C238.863 65.069 237.272 66.144 237.014 67.778H231.166C231.596 63.478 235.552 60.64 241.4 60.64C247.592 60.64 251.161 63.392 251.161 68.681V76.507C251.161 77.668 251.634 77.883 252.58 77.883ZM245.184 73.884V73.454H240.755C238.218 73.454 236.756 74.486 236.756 76.335C236.756 77.883 238.003 78.872 240.024 78.872C243.206 78.872 245.141 76.894 245.184 73.884ZM268.041 60.898H269.073V66.402H266.665C263.053 66.402 261.677 68.81 261.677 72.164V83H255.614V60.898H261.118L261.677 64.209C262.881 62.231 264.601 60.898 268.041 60.898ZM281.989 83.258C274.636 83.258 270.207 78.829 270.207 71.992C270.207 65.112 274.722 60.64 281.559 60.64C288.181 60.64 292.653 64.768 292.739 71.261C292.739 71.906 292.696 72.637 292.567 73.325H276.528V73.626C276.657 76.765 278.678 78.657 281.731 78.657C284.182 78.657 285.902 77.582 286.418 75.518H292.395C291.707 79.818 287.88 83.258 281.989 83.258ZM276.657 69.369H286.633C286.203 66.66 284.354 65.155 281.602 65.155C278.979 65.155 277.001 66.746 276.657 69.369ZM271.048 121.206C273.757 121.206 275.563 123.528 275.563 126.839C275.563 131.655 272.424 134.192 267.522 134.235V131.096C270.274 131.053 271.607 129.72 271.607 128.172C271.607 128 271.607 127.742 271.564 127.57C271.134 127.785 270.704 127.914 270.188 127.914C268.597 127.914 267.264 126.839 267.264 124.646C267.264 122.754 268.941 121.206 271.048 121.206ZM0.043 156.015V150.898H3.698V149.264C3.698 145.179 5.891 142.9 10.363 142.9H15.308V148.06H11.438C10.234 148.06 9.632 148.619 9.632 149.866V150.898H15.308V156.015H9.761V173H3.698V156.015H0.043ZM30.0291 150.898H31.0611V156.402H28.6531C25.0411 156.402 23.6651 158.81 23.6651 162.164V173H17.6021V150.898H23.1061L23.6651 154.209C24.8691 152.231 26.5891 150.898 30.0291 150.898ZM43.8482 173.258C36.7962 173.258 32.1952 168.743 32.1952 161.949C32.1952 155.155 36.7962 150.64 43.8482 150.64C50.9002 150.64 55.5012 155.155 55.5012 161.949C55.5012 168.786 50.9002 173.258 43.8482 173.258ZM43.8482 168.313C47.2452 168.313 49.3522 165.69 49.3522 161.949C49.3522 158.208 47.2452 155.585 43.8482 155.585C40.4512 155.585 38.3872 158.208 38.3872 161.949C38.3872 165.69 40.4512 168.313 43.8482 168.313ZM85.2834 150.64C89.8414 150.64 93.4534 153.22 93.4534 160.315V173H87.3904V160.659C87.3904 157.348 86.1864 155.628 83.5634 155.628C80.9404 155.628 79.1774 157.563 79.1774 160.917V173H73.1144V160.659C73.1144 157.348 71.9104 155.628 69.2444 155.628C66.6214 155.628 64.9014 157.649 64.9014 160.96V173H58.8384V150.898H64.1274L64.6864 153.65C66.0194 151.93 67.9544 150.683 71.1794 150.64C73.8884 150.597 76.4254 151.586 77.8014 154.381C79.3494 152.016 81.9294 150.64 85.2834 150.64ZM208.27 166.206C210.979 166.206 212.785 168.528 212.785 171.839C212.785 176.655 209.646 179.192 204.744 179.235V176.096C207.496 176.053 208.829 174.72 208.829 173.172C208.829 173 208.829 172.742 208.786 172.57C208.356 172.785 207.926 172.914 207.41 172.914C205.819 172.914 204.486 171.839 204.486 169.646C204.486 167.754 206.163 166.206 208.27 166.206ZM12.9 218.258C5.848 218.258 1.247 213.743 1.247 206.949C1.247 200.155 5.848 195.64 12.9 195.64C19.952 195.64 24.553 200.155 24.553 206.949C24.553 213.786 19.952 218.258 12.9 218.258ZM12.9 213.313C16.297 213.313 18.404 210.69 18.404 206.949C18.404 203.208 16.297 200.585 12.9 200.585C9.503 200.585 7.439 203.208 7.439 206.949C7.439 210.69 9.503 213.313 12.9 213.313ZM40.5752 195.64C45.3482 195.64 49.4332 198.177 49.4332 205.745V218H43.3702V206.347C43.3702 202.606 41.9512 200.628 38.8982 200.628C35.7592 200.628 33.9532 202.864 33.9532 206.691V218H27.8902V195.898H33.1792L33.7382 198.65C35.1572 196.93 37.1782 195.64 40.5752 195.64ZM84.9895 212.883H85.6775V218H82.5815C79.4425 218 78.4535 216.495 78.4965 214.388C76.9485 216.839 74.7125 218.258 71.2725 218.258C66.4995 218.258 63.0595 215.979 63.0595 211.765C63.0595 207.078 66.5855 204.412 73.2075 204.412H77.5935V203.337C77.5935 201.359 76.1745 200.069 73.6375 200.069C71.2725 200.069 69.6815 201.144 69.4235 202.778H63.5755C64.0055 198.478 67.9615 195.64 73.8095 195.64C80.0015 195.64 83.5705 198.392 83.5705 203.681V211.507C83.5705 212.668 84.0435 212.883 84.9895 212.883ZM77.5935 208.884V208.454H73.1645C70.6275 208.454 69.1655 209.486 69.1655 211.335C69.1655 212.883 70.4125 213.872 72.4335 213.872C75.6155 213.872 77.5505 211.894 77.5935 208.884ZM92.8202 218L84.8652 195.898H91.3582L96.6902 211.808L101.936 195.898H108.3L100.345 218H92.8202ZM120.193 218.258C112.84 218.258 108.411 213.829 108.411 206.992C108.411 200.112 112.926 195.64 119.763 195.64C126.385 195.64 130.857 199.768 130.943 206.261C130.943 206.906 130.9 207.637 130.771 208.325H114.732V208.626C114.861 211.765 116.882 213.657 119.935 213.657C122.386 213.657 124.106 212.582 124.622 210.518H130.599C129.911 214.818 126.084 218.258 120.193 218.258ZM114.861 204.369H124.837C124.407 201.66 122.558 200.155 119.806 200.155C117.183 200.155 115.205 201.746 114.861 204.369ZM146.683 195.898H147.715V201.402H145.307C141.695 201.402 140.319 203.81 140.319 207.164V218H134.256V195.898H139.76L140.319 199.209C141.523 197.231 143.243 195.898 146.683 195.898ZM170.948 212.883H171.636V218H168.54C165.401 218 164.412 216.495 164.455 214.388C162.907 216.839 160.671 218.258 157.231 218.258C152.458 218.258 149.018 215.979 149.018 211.765C149.018 207.078 152.544 204.412 159.166 204.412H163.552V203.337C163.552 201.359 162.133 200.069 159.596 200.069C157.231 200.069 155.64 201.144 155.382 202.778H149.534C149.964 198.478 153.92 195.64 159.768 195.64C165.96 195.64 169.529 198.392 169.529 203.681V211.507C169.529 212.668 170.002 212.883 170.948 212.883ZM163.552 208.884V208.454H159.123C156.586 208.454 155.124 209.486 155.124 211.335C155.124 212.883 156.371 213.872 158.392 213.872C161.574 213.872 163.509 211.894 163.552 208.884ZM190.235 198.951L190.751 195.898H196.083V217.355C196.083 222.816 192.729 226.858 184.258 226.858C178.109 226.858 173.895 224.063 173.594 218.946H179.7C180.259 221.053 181.936 222.257 184.731 222.257C188.128 222.257 190.149 220.58 190.149 217.14V214.818C188.687 216.667 186.494 217.871 183.398 217.871C177.464 217.914 173.121 213.571 173.121 206.734C173.121 199.983 177.464 195.597 183.355 195.597C186.537 195.597 188.773 197.016 190.235 198.951ZM184.731 213.012C188.042 213.012 190.106 210.475 190.106 206.82C190.106 203.122 188.042 200.499 184.731 200.499C181.42 200.499 179.313 203.079 179.313 206.777C179.313 210.475 181.42 213.012 184.731 213.012ZM211.232 218.258C203.879 218.258 199.45 213.829 199.45 206.992C199.45 200.112 203.965 195.64 210.802 195.64C217.424 195.64 221.896 199.768 221.982 206.261C221.982 206.906 221.939 207.637 221.81 208.325H205.771V208.626C205.9 211.765 207.921 213.657 210.974 213.657C213.425 213.657 215.145 212.582 215.661 210.518H221.638C220.95 214.818 217.123 218.258 211.232 218.258ZM205.9 204.369H215.876C215.446 201.66 213.597 200.155 210.845 200.155C208.222 200.155 206.244 201.746 205.9 204.369ZM223.648 214.689C223.648 212.582 225.196 211.077 227.303 211.077C229.367 211.077 230.958 212.582 230.958 214.689C230.958 216.753 229.367 218.258 227.303 218.258C225.196 218.258 223.648 216.753 223.648 214.689Z" fill="#F6F3F1"/>
</svg>
