<svg width="200" height="60" viewBox="0 0 200 60" fill="none" xmlns="http://www.w3.org/2000/svg">
<rect x="0.75" y="0.75" width="198.5" height="58.5" fill="#FDC49F"/>
<rect x="0.75" y="0.75" width="198.5" height="58.5" stroke="#131313" stroke-width="1.5"/>
<path d="M24.248 40.168C18.424 40.168 14.896 36.22 14.896 30.2C14.896 24.18 18.564 20.232 24.5 20.232C29.148 20.232 32.424 23.144 32.928 27.4H28.672C28.168 25.216 26.6 23.788 24.276 23.788C21.084 23.788 19.18 26.42 19.18 30.2C19.18 33.952 21.056 36.612 24.22 36.612C26.6 36.612 28.168 35.184 28.672 33H32.9C32.424 37.256 29.036 40.168 24.248 40.168ZM42.0055 40.168C37.4135 40.168 34.4175 37.228 34.4175 32.804C34.4175 28.38 37.4135 25.44 42.0055 25.44C46.5975 25.44 49.5935 28.38 49.5935 32.804C49.5935 37.256 46.5975 40.168 42.0055 40.168ZM42.0055 36.948C44.2175 36.948 45.5895 35.24 45.5895 32.804C45.5895 30.368 44.2175 28.66 42.0055 28.66C39.7935 28.66 38.4495 30.368 38.4495 32.804C38.4495 35.24 39.7935 36.948 42.0055 36.948ZM68.9865 25.44C71.9545 25.44 74.3065 27.12 74.3065 31.74V40H70.3585V31.964C70.3585 29.808 69.5745 28.688 67.8665 28.688C66.1585 28.688 65.0105 29.948 65.0105 32.132V40H61.0625V31.964C61.0625 29.808 60.2785 28.688 58.5425 28.688C56.8345 28.688 55.7145 30.004 55.7145 32.16V40H51.7665V25.608H55.2105L55.5745 27.4C56.4425 26.28 57.7025 25.468 59.8025 25.44C61.5665 25.412 63.2185 26.056 64.1145 27.876C65.1225 26.336 66.8025 25.44 68.9865 25.44ZM85.0461 25.44C88.9381 25.412 91.7381 28.296 91.7381 32.832C91.7381 37.312 88.9381 40.168 85.0741 40.168C83.0861 40.168 81.6581 39.356 80.7341 38.18V45.6H76.7861V25.608H80.2301L80.6221 27.596C81.5461 26.364 83.0021 25.44 85.0461 25.44ZM84.1781 36.948C86.3341 36.948 87.7341 35.24 87.7341 32.776C87.7341 30.34 86.3341 28.66 84.1781 28.66C82.0221 28.66 80.6781 30.34 80.6781 32.776C80.6781 35.24 82.0221 36.948 84.1781 36.948ZM107.651 36.668H108.099V40H106.083C104.039 40 103.395 39.02 103.423 37.648C102.415 39.244 100.959 40.168 98.7186 40.168C95.6106 40.168 93.3706 38.684 93.3706 35.94C93.3706 32.888 95.6666 31.152 99.9786 31.152H102.835V30.452C102.835 29.164 101.911 28.324 100.259 28.324C98.7186 28.324 97.6826 29.024 97.5146 30.088H93.7066C93.9866 27.288 96.5626 25.44 100.371 25.44C104.403 25.44 106.727 27.232 106.727 30.676V35.772C106.727 36.528 107.035 36.668 107.651 36.668ZM102.835 34.064V33.784H99.9506C98.2986 33.784 97.3466 34.456 97.3466 35.66C97.3466 36.668 98.1586 37.312 99.4746 37.312C101.547 37.312 102.807 36.024 102.835 34.064ZM108.954 35.212H112.706C112.846 36.472 113.938 37.34 115.87 37.34C117.522 37.34 118.53 36.808 118.53 35.8C118.53 34.624 117.55 34.54 115.226 34.232C111.866 33.84 109.262 33.084 109.262 30.116C109.262 27.26 111.754 25.384 115.45 25.412C119.314 25.412 121.974 27.12 122.17 30.06H118.39C118.278 28.912 117.186 28.212 115.59 28.212C114.05 28.212 113.042 28.772 113.042 29.696C113.042 30.788 114.274 30.9 116.346 31.152C119.65 31.488 122.394 32.244 122.394 35.492C122.394 38.348 119.706 40.168 115.842 40.168C111.838 40.168 109.122 38.292 108.954 35.212ZM123.528 35.212H127.28C127.42 36.472 128.512 37.34 130.444 37.34C132.096 37.34 133.104 36.808 133.104 35.8C133.104 34.624 132.124 34.54 129.8 34.232C126.44 33.84 123.836 33.084 123.836 30.116C123.836 27.26 126.328 25.384 130.024 25.412C133.888 25.412 136.548 27.12 136.744 30.06H132.964C132.852 28.912 131.76 28.212 130.164 28.212C128.624 28.212 127.616 28.772 127.616 29.696C127.616 30.788 128.848 30.9 130.92 31.152C134.224 31.488 136.968 32.244 136.968 35.492C136.968 38.348 134.28 40.168 130.416 40.168C126.412 40.168 123.696 38.292 123.528 35.212ZM141.036 24.068C139.748 24.068 138.74 23.116 138.74 21.856C138.74 20.568 139.748 19.616 141.036 19.616C142.324 19.616 143.332 20.568 143.332 21.856C143.332 23.116 142.324 24.068 141.036 24.068ZM139.048 40V25.608H143.024V40H139.048ZM152.775 40.168C148.183 40.168 145.187 37.228 145.187 32.804C145.187 28.38 148.183 25.44 152.775 25.44C157.367 25.44 160.363 28.38 160.363 32.804C160.363 37.256 157.367 40.168 152.775 40.168ZM152.775 36.948C154.987 36.948 156.359 35.24 156.359 32.804C156.359 30.368 154.987 28.66 152.775 28.66C150.563 28.66 149.219 30.368 149.219 32.804C149.219 35.24 150.563 36.948 152.775 36.948ZM170.796 25.44C173.904 25.44 176.564 27.092 176.564 32.02V40H172.616V32.412C172.616 29.976 171.692 28.688 169.704 28.688C167.66 28.688 166.484 30.144 166.484 32.636V40H162.536V25.608H165.98L166.344 27.4C167.268 26.28 168.584 25.44 170.796 25.44Z" fill="#131313"/>
</svg>
