<svg width="245" height="60" viewBox="0 0 245 60" fill="none" xmlns="http://www.w3.org/2000/svg">
<rect x="0.75" y="0.75" width="243.5" height="58.5" fill="#FFE0AF"/>
<rect x="0.75" y="0.75" width="243.5" height="58.5" stroke="#131313" stroke-width="1.5"/>
<path d="M27.664 40H15.68V20.4H19.88V36.388H27.664V40ZM43.2014 36.668H43.6494V40H41.6334C39.5894 40 38.9454 39.02 38.9734 37.648C37.9654 39.244 36.5094 40.168 34.2694 40.168C31.1614 40.168 28.9214 38.684 28.9214 35.94C28.9214 32.888 31.2174 31.152 35.5294 31.152H38.3854V30.452C38.3854 29.164 37.4614 28.324 35.8094 28.324C34.2694 28.324 33.2334 29.024 33.0654 30.088H29.2574C29.5374 27.288 32.1134 25.44 35.9214 25.44C39.9534 25.44 42.2774 27.232 42.2774 30.676V35.772C42.2774 36.528 42.5854 36.668 43.2014 36.668ZM38.3854 34.064V33.784H35.5014C33.8494 33.784 32.8974 34.456 32.8974 35.66C32.8974 36.668 33.7094 37.312 35.0254 37.312C37.0974 37.312 38.3574 36.024 38.3854 34.064ZM48.0165 40L43.3125 25.608H47.4845L50.3685 35.744L53.0845 25.608H56.6405L59.2725 35.772L62.2125 25.608H66.2445L61.5125 40H57.3125L54.7925 31.32L52.2165 40H48.0165Z" fill="#131313"/>
</svg>
