<svg width="290" height="60" viewBox="0 0 290 60" fill="none" xmlns="http://www.w3.org/2000/svg">
<rect x="0.75" y="0.75" width="288.5" height="58.5" fill="#FD7D82"/>
<rect x="0.75" y="0.75" width="288.5" height="58.5" stroke="#131313" stroke-width="1.5"/>
<path d="M16.0706 40V20.4H24.0506C28.3066 20.4 31.1346 22.948 31.1346 26.924C31.1346 30.872 28.3066 33.42 24.0506 33.42H20.2706V40H16.0706ZM23.6586 23.9H20.2706V29.92H23.6586C25.6186 29.92 26.8786 28.772 26.8786 26.924C26.8786 25.048 25.6186 23.9 23.6586 23.9ZM41.2726 25.608H41.9446V29.192H40.3766C38.0246 29.192 37.1286 30.76 37.1286 32.944V40H33.1806V25.608H36.7646L37.1286 27.764C37.9126 26.476 39.0326 25.608 41.2726 25.608ZM50.2711 40.168C45.6791 40.168 42.6831 37.228 42.6831 32.804C42.6831 28.38 45.6791 25.44 50.2711 25.44C54.8631 25.44 57.8591 28.38 57.8591 32.804C57.8591 37.256 54.8631 40.168 50.2711 40.168ZM50.2711 36.948C52.4831 36.948 53.8551 35.24 53.8551 32.804C53.8551 30.368 52.4831 28.66 50.2711 28.66C48.0591 28.66 46.7151 30.368 46.7151 32.804C46.7151 35.24 48.0591 36.948 50.2711 36.948ZM61.0135 35.884V28.94H58.6335V25.608H61.0135V21.576H64.9615V25.608H68.2655V28.94H64.9615V35.24C64.9615 36.248 65.3535 36.668 66.3895 36.668H68.3495V40H65.1295C62.3855 40 61.0135 38.628 61.0135 35.884ZM77.0699 40.168C72.2819 40.168 69.3979 37.284 69.3979 32.832C69.3979 28.352 72.3379 25.44 76.7899 25.44C81.1019 25.44 84.0139 28.128 84.0699 32.356C84.0699 32.776 84.0419 33.252 83.9579 33.7H73.5139V33.896C73.5979 35.94 74.9139 37.172 76.9019 37.172C78.4979 37.172 79.6179 36.472 79.9539 35.128H83.8459C83.3979 37.928 80.9059 40.168 77.0699 40.168ZM73.5979 31.124H80.0939C79.8139 29.36 78.6099 28.38 76.8179 28.38C75.1099 28.38 73.8219 29.416 73.5979 31.124ZM93.0035 40.168C88.4395 40.168 85.6675 37.34 85.6675 32.804C85.6675 28.352 88.5795 25.44 93.1435 25.44C97.0635 25.44 99.4995 27.568 100.059 30.984H95.9435C95.6075 29.556 94.6275 28.66 93.0875 28.66C91.0155 28.66 89.6995 30.368 89.6995 32.804C89.6995 35.268 91.0155 36.948 93.0875 36.948C94.6275 36.948 95.6635 36.024 95.9435 34.568H100.087C99.5275 38.012 96.9235 40.168 93.0035 40.168ZM103.205 35.884V28.94H100.825V25.608H103.205V21.576H107.153V25.608H110.457V28.94H107.153V35.24C107.153 36.248 107.545 36.668 108.581 36.668H110.541V40H107.321C104.577 40 103.205 38.628 103.205 35.884ZM114.356 24.068C113.068 24.068 112.06 23.116 112.06 21.856C112.06 20.568 113.068 19.616 114.356 19.616C115.644 19.616 116.652 20.568 116.652 21.856C116.652 23.116 115.644 24.068 114.356 24.068ZM112.368 40V25.608H116.344V40H112.368ZM126.095 40.168C121.503 40.168 118.507 37.228 118.507 32.804C118.507 28.38 121.503 25.44 126.095 25.44C130.687 25.44 133.683 28.38 133.683 32.804C133.683 37.256 130.687 40.168 126.095 40.168ZM126.095 36.948C128.307 36.948 129.679 35.24 129.679 32.804C129.679 30.368 128.307 28.66 126.095 28.66C123.883 28.66 122.539 30.368 122.539 32.804C122.539 35.24 123.883 36.948 126.095 36.948ZM144.116 25.44C147.224 25.44 149.884 27.092 149.884 32.02V40H145.936V32.412C145.936 29.976 145.012 28.688 143.024 28.688C140.98 28.688 139.804 30.144 139.804 32.636V40H135.856V25.608H139.3L139.664 27.4C140.588 26.28 141.904 25.44 144.116 25.44Z" fill="#131313"/>
</svg>
