<svg width="330" height="60" viewBox="0 0 330 60" fill="none" xmlns="http://www.w3.org/2000/svg">
<rect x="0.75" y="0.75" width="328.5" height="58.5" fill="#FDD7CD"/>
<rect x="0.75" y="0.75" width="328.5" height="58.5" stroke="#131313" stroke-width="1.5"/>
<path d="M19.572 40L14.112 20.4L18.48 20.372L22.092 34.708L25.928 20.4H29.708L33.432 34.708L37.128 20.4H41.384L35.924 40H31.108L27.692 26.98L24.388 40H19.572ZM48.652 40.168C43.864 40.168 40.98 37.284 40.98 32.832C40.98 28.352 43.92 25.44 48.372 25.44C52.684 25.44 55.596 28.128 55.652 32.356C55.652 32.776 55.624 33.252 55.54 33.7H45.096V33.896C45.18 35.94 46.496 37.172 48.484 37.172C50.08 37.172 51.2 36.472 51.536 35.128H55.428C54.98 37.928 52.488 40.168 48.652 40.168ZM45.18 31.124H51.676C51.396 29.36 50.192 28.38 48.4 28.38C46.692 28.38 45.404 29.416 45.18 31.124ZM57.8095 40V20.4H61.7575V40H57.8095ZM64.5087 40V20.4H68.4567V40H64.5087ZM80.7559 33.644H70.9559V30.424H80.7559V33.644ZM83.5472 40V20.4H90.9952C95.5312 20.4 98.1632 22.304 98.1632 25.58C98.1632 28.044 96.7072 29.444 94.4672 29.92C97.0712 30.256 98.8632 31.628 98.8632 34.428C98.8632 37.844 96.1752 40 91.3592 40H83.5472ZM91.1072 23.704H87.7472V28.464H91.1072C92.8992 28.464 93.9632 27.54 93.9632 26.084C93.9632 24.628 92.9272 23.704 91.1072 23.704ZM91.3872 31.712H87.7472V36.668H91.3872C93.4032 36.668 94.5512 35.744 94.5512 34.232C94.5512 32.636 93.3752 31.712 91.3872 31.712ZM108.179 40.168C103.391 40.168 100.507 37.284 100.507 32.832C100.507 28.352 103.447 25.44 107.899 25.44C112.211 25.44 115.123 28.128 115.179 32.356C115.179 32.776 115.151 33.252 115.067 33.7H104.623V33.896C104.707 35.94 106.023 37.172 108.011 37.172C109.607 37.172 110.727 36.472 111.063 35.128H114.955C114.507 37.928 112.015 40.168 108.179 40.168ZM104.707 31.124H111.203C110.923 29.36 109.719 28.38 107.927 28.38C106.219 28.38 104.931 29.416 104.707 31.124ZM119.325 24.068C118.037 24.068 117.029 23.116 117.029 21.856C117.029 20.568 118.037 19.616 119.325 19.616C120.613 19.616 121.621 20.568 121.621 21.856C121.621 23.116 120.613 24.068 119.325 24.068ZM117.337 40V25.608H121.313V40H117.337ZM132.296 25.44C135.404 25.44 138.064 27.092 138.064 32.02V40H134.116V32.412C134.116 29.976 133.192 28.688 131.204 28.688C129.16 28.688 127.984 30.144 127.984 32.636V40H124.036V25.608H127.48L127.844 27.4C128.768 26.28 130.084 25.44 132.296 25.44ZM151.136 27.596L151.472 25.608H154.944V39.58C154.944 43.136 152.76 45.768 147.244 45.768C143.24 45.768 140.496 43.948 140.3 40.616H144.276C144.64 41.988 145.732 42.772 147.552 42.772C149.764 42.772 151.08 41.68 151.08 39.44V37.928C150.128 39.132 148.7 39.916 146.684 39.916C142.82 39.944 139.992 37.116 139.992 32.664C139.992 28.268 142.82 25.412 146.656 25.412C148.728 25.412 150.184 26.336 151.136 27.596ZM147.552 36.752C149.708 36.752 151.052 35.1 151.052 32.72C151.052 30.312 149.708 28.604 147.552 28.604C145.396 28.604 144.024 30.284 144.024 32.692C144.024 35.1 145.396 36.752 147.552 36.752Z" fill="#131313"/>
</svg>
