<svg width="349" height="62" viewBox="0 0 349 62" fill="none" xmlns="http://www.w3.org/2000/svg">
<path d="M10.928 13.936H12.032V16H10.88C9.92 16 9.52 15.728 9.136 15.248C8.288 15.792 7.232 16.096 6.064 16.096C2.768 16.096 0.512 13.664 0.512 10.4C0.512 7.136 2.768 4.704 6.064 4.704C9.36 4.704 11.616 7.136 11.616 10.4C11.616 11.728 11.248 12.928 10.576 13.872C10.672 13.904 10.784 13.936 10.928 13.936ZM2.96 10.4C2.96 12.512 4.176 14.064 6.064 14.064C6.72 14.064 7.296 13.872 7.776 13.536L7.616 13.344C7.376 13.024 7.168 12.848 6.816 12.848H5.776V10.816H6.992C7.936 10.816 8.256 11.152 8.64 11.632L8.896 11.952C9.072 11.488 9.152 10.96 9.152 10.4C9.152 8.288 7.936 6.736 6.064 6.736C4.176 6.736 2.96 8.288 2.96 10.4ZM18.4908 11.888V7.776H20.7468V16H18.7468L18.5388 15.008C18.0108 15.648 17.2908 16.096 16.1228 16.096C14.4268 16.096 12.8588 15.248 12.8588 12.336V7.776H15.1148V12.032C15.1148 13.504 15.5948 14.224 16.7148 14.224C17.8348 14.224 18.4908 13.408 18.4908 11.888ZM26.3793 16.096C23.6432 16.096 21.9953 14.448 21.9953 11.904C21.9953 9.344 23.6753 7.68 26.2193 7.68C28.6833 7.68 30.3472 9.216 30.3793 11.632C30.3793 11.872 30.3633 12.144 30.3153 12.4H24.3473V12.512C24.3953 13.68 25.1473 14.384 26.2833 14.384C27.1953 14.384 27.8353 13.984 28.0273 13.216H30.2513C29.9953 14.816 28.5713 16.096 26.3793 16.096ZM24.3953 10.928H28.1073C27.9473 9.92 27.2593 9.36 26.2352 9.36C25.2593 9.36 24.5233 9.952 24.3953 10.928ZM31.1656 13.264H33.3096C33.3896 13.984 34.0136 14.48 35.1176 14.48C36.0616 14.48 36.6376 14.176 36.6376 13.6C36.6376 12.928 36.0776 12.88 34.7496 12.704C32.8296 12.48 31.3416 12.048 31.3416 10.352C31.3416 8.72 32.7656 7.648 34.8776 7.664C37.0856 7.664 38.6056 8.64 38.7176 10.32H36.5576C36.4936 9.664 35.8696 9.264 34.9576 9.264C34.0776 9.264 33.5016 9.584 33.5016 10.112C33.5016 10.736 34.2056 10.8 35.3896 10.944C37.2776 11.136 38.8456 11.568 38.8456 13.424C38.8456 15.056 37.3096 16.096 35.1016 16.096C32.8136 16.096 31.2616 15.024 31.1656 13.264ZM40.626 13.648V9.68H39.266V7.776H40.626V5.472H42.882V7.776H44.77V9.68H42.882V13.28C42.882 13.856 43.106 14.096 43.698 14.096H44.818V16H42.978C41.41 16 40.626 15.216 40.626 13.648ZM46.9981 6.896C46.2621 6.896 45.6861 6.352 45.6861 5.632C45.6861 4.896 46.2621 4.352 46.9981 4.352C47.7341 4.352 48.3101 4.896 48.3101 5.632C48.3101 6.352 47.7341 6.896 46.9981 6.896ZM45.8621 16V7.776H48.1341V16H45.8621ZM53.7063 16.096C51.0823 16.096 49.3703 14.416 49.3703 11.888C49.3703 9.36 51.0823 7.68 53.7063 7.68C56.3303 7.68 58.0423 9.36 58.0423 11.888C58.0423 14.432 56.3303 16.096 53.7063 16.096ZM53.7063 14.256C54.9703 14.256 55.7543 13.28 55.7543 11.888C55.7543 10.496 54.9703 9.52 53.7063 9.52C52.4423 9.52 51.6743 10.496 51.6743 11.888C51.6743 13.28 52.4423 14.256 53.7063 14.256ZM64.004 7.68C65.78 7.68 67.3 8.624 67.3 11.44V16H65.044V11.664C65.044 10.272 64.516 9.536 63.38 9.536C62.212 9.536 61.54 10.368 61.54 11.792V16H59.284V7.776H61.252L61.46 8.8C61.988 8.16 62.74 7.68 64.004 7.68ZM74.5623 5.824V4.8H76.8183V16H74.5143V8.752C74.3383 8.8 74.1463 8.816 73.9062 8.816H72.0343V6.912H73.6983C74.3383 6.912 74.5623 6.48 74.5623 5.824ZM80.4373 5.824V4.8H82.6933V16H80.3893V8.752C80.2133 8.8 80.0213 8.816 79.7812 8.816H77.9093V6.912H79.5733C80.2133 6.912 80.4373 6.48 80.4373 5.824ZM93.865 12.368H88.265V10.528H93.865V12.368ZM104.373 16.096C101.157 16.096 99.1408 13.824 99.1408 10.4C99.1408 7.008 101.237 4.704 104.485 4.704C106.965 4.704 108.773 6.144 109.189 8.464H107.717C107.285 6.912 106.101 5.984 104.421 5.984C102.069 5.984 100.565 7.808 100.565 10.4C100.565 12.976 102.005 14.816 104.357 14.816C106.085 14.816 107.285 13.904 107.701 12.336H109.173C108.757 14.656 106.901 16.096 104.373 16.096ZM114.422 16.096C112.038 16.096 110.374 14.4 110.374 11.92C110.374 9.44 112.038 7.744 114.422 7.744C116.806 7.744 118.47 9.44 118.47 11.92C118.47 14.4 116.806 16.096 114.422 16.096ZM114.422 14.928C116.038 14.928 117.126 13.664 117.126 11.92C117.126 10.176 116.038 8.912 114.422 8.912C112.806 8.912 111.718 10.176 111.718 11.92C111.718 13.664 112.806 14.928 114.422 14.928ZM119.974 16V4.8H121.286V16H119.974ZM123.084 16V4.8H124.396V16H123.084ZM133.409 14.8H133.825V16H133.105C132.017 16 131.649 15.536 131.633 14.736C131.121 15.472 130.305 16.096 128.897 16.096C127.105 16.096 125.889 15.2 125.889 13.712C125.889 12.08 127.025 11.168 129.169 11.168H131.569V10.608C131.569 9.552 130.817 8.912 129.537 8.912C128.385 8.912 127.617 9.456 127.457 10.288H126.145C126.337 8.688 127.633 7.744 129.601 7.744C131.681 7.744 132.881 8.784 132.881 10.688V14.256C132.881 14.688 133.041 14.8 133.409 14.8ZM131.569 12.672V12.272H129.041C127.873 12.272 127.217 12.704 127.217 13.632C127.217 14.432 127.905 14.976 128.993 14.976C130.625 14.976 131.569 14.032 131.569 12.672ZM135.442 13.872V9.04H133.97V7.84H135.442V5.552H136.754V7.84H138.866V9.04H136.754V13.856C136.754 14.544 136.994 14.8 137.698 14.8H138.994V16H137.57C136.002 16 135.442 15.312 135.442 13.872ZM143.687 16.096C141.239 16.096 139.639 14.416 139.639 11.92C139.639 9.44 141.207 7.744 143.511 7.744C145.815 7.744 147.319 9.2 147.383 11.616C147.383 11.792 147.367 11.984 147.351 12.176H141.015V12.288C141.063 13.84 142.039 14.928 143.591 14.928C144.743 14.928 145.639 14.32 145.911 13.264H147.239C146.919 14.896 145.575 16.096 143.687 16.096ZM141.095 11.088H145.975C145.847 9.68 144.887 8.896 143.527 8.896C142.327 8.896 141.223 9.76 141.095 11.088ZM152.656 7.84H153.024V9.12H152.368C150.656 9.12 150.192 10.544 150.192 11.84V16H148.88V7.84H150.016L150.192 9.072C150.576 8.448 151.2 7.84 152.656 7.84ZM161.096 14.8H161.512V16H160.792C159.704 16 159.336 15.536 159.32 14.736C158.808 15.472 157.992 16.096 156.584 16.096C154.792 16.096 153.576 15.2 153.576 13.712C153.576 12.08 154.712 11.168 156.856 11.168H159.256V10.608C159.256 9.552 158.504 8.912 157.224 8.912C156.072 8.912 155.304 9.456 155.144 10.288H153.832C154.024 8.688 155.32 7.744 157.288 7.744C159.368 7.744 160.568 8.784 160.568 10.688V14.256C160.568 14.688 160.728 14.8 161.096 14.8ZM159.256 12.672V12.272H156.728C155.56 12.272 154.904 12.704 154.904 13.632C154.904 14.432 155.592 14.976 156.68 14.976C158.312 14.976 159.256 14.032 159.256 12.672ZM162.521 16V4.8H163.833V16H162.521ZM176.25 9.088V4.8H177.562V16H176.426L176.25 14.688C175.706 15.44 174.826 16.096 173.45 16.096C171.194 16.096 169.53 14.576 169.53 11.92C169.53 9.424 171.194 7.744 173.45 7.744C174.826 7.744 175.754 8.304 176.25 9.088ZM173.578 14.928C175.178 14.928 176.266 13.696 176.266 11.952C176.266 10.16 175.178 8.912 173.578 8.912C171.962 8.912 170.874 10.144 170.874 11.92C170.874 13.696 171.962 14.928 173.578 14.928ZM186.565 14.8H186.981V16H186.261C185.173 16 184.805 15.536 184.789 14.736C184.277 15.472 183.461 16.096 182.053 16.096C180.261 16.096 179.045 15.2 179.045 13.712C179.045 12.08 180.181 11.168 182.325 11.168H184.725V10.608C184.725 9.552 183.973 8.912 182.693 8.912C181.541 8.912 180.773 9.456 180.613 10.288H179.301C179.493 8.688 180.789 7.744 182.757 7.744C184.837 7.744 186.037 8.784 186.037 10.688V14.256C186.037 14.688 186.197 14.8 186.565 14.8ZM184.725 12.672V12.272H182.197C181.029 12.272 180.373 12.704 180.373 13.632C180.373 14.432 181.061 14.976 182.149 14.976C183.781 14.976 184.725 14.032 184.725 12.672ZM197.094 7.744C198.79 7.744 200.182 8.72 200.182 11.296V16H198.87V11.376C198.87 9.776 198.166 8.944 196.934 8.944C195.574 8.944 194.742 9.968 194.742 11.632V16H193.43V11.376C193.43 9.776 192.71 8.944 191.462 8.944C190.118 8.944 189.302 10.064 189.302 11.696V16H187.99V7.84H189.126L189.302 8.96C189.734 8.368 190.422 7.744 191.686 7.744C192.822 7.744 193.798 8.256 194.262 9.296C194.758 8.416 195.638 7.744 197.094 7.744ZM209.081 14.8H209.497V16H208.777C207.689 16 207.321 15.536 207.305 14.736C206.793 15.472 205.977 16.096 204.569 16.096C202.777 16.096 201.561 15.2 201.561 13.712C201.561 12.08 202.697 11.168 204.841 11.168H207.241V10.608C207.241 9.552 206.489 8.912 205.209 8.912C204.057 8.912 203.289 9.456 203.129 10.288H201.817C202.009 8.688 203.305 7.744 205.273 7.744C207.353 7.744 208.553 8.784 208.553 10.688V14.256C208.553 14.688 208.713 14.8 209.081 14.8ZM207.241 12.672V12.272H204.713C203.545 12.272 202.889 12.704 202.889 13.632C202.889 14.432 203.577 14.976 204.665 14.976C206.297 14.976 207.241 14.032 207.241 12.672ZM216.937 9.248L217.113 7.84H218.249V15.6C218.249 17.952 217.001 19.296 214.201 19.296C212.121 19.296 210.665 18.32 210.457 16.528H211.801C212.025 17.552 212.937 18.128 214.297 18.128C216.009 18.128 216.937 17.328 216.937 15.552V14.592C216.393 15.52 215.513 16.096 214.137 16.096C211.881 16.096 210.217 14.576 210.217 11.92C210.217 9.424 211.881 7.744 214.137 7.744C215.513 7.744 216.425 8.336 216.937 9.248ZM214.265 14.928C215.865 14.928 216.953 13.696 216.953 11.952C216.953 10.16 215.865 8.912 214.265 8.912C212.649 8.912 211.561 10.144 211.561 11.92C211.561 13.696 212.649 14.928 214.265 14.928ZM223.797 16.096C221.349 16.096 219.749 14.416 219.749 11.92C219.749 9.44 221.317 7.744 223.621 7.744C225.925 7.744 227.429 9.2 227.493 11.616C227.493 11.792 227.477 11.984 227.461 12.176H221.125V12.288C221.173 13.84 222.149 14.928 223.701 14.928C224.853 14.928 225.749 14.32 226.021 13.264H227.349C227.029 14.896 225.685 16.096 223.797 16.096ZM221.205 11.088H226.085C225.957 9.68 224.997 8.896 223.637 8.896C222.437 8.896 221.333 9.76 221.205 11.088Z" fill="#131313"/>
<path d="M348.033 5.375L348.033 6.75L346.715 6.75L346.715 5.375L348.033 5.375Z" fill="#131313"/>
<path d="M334.85 5.375L334.85 6.75L333.532 6.75L333.532 5.375L334.85 5.375Z" fill="#131313"/>
<path d="M346.715 4L346.715 5.375L345.397 5.375L345.397 4L346.715 4Z" fill="#131313"/>
<path d="M336.169 4L336.169 5.375L334.85 5.375L334.85 4L336.169 4Z" fill="#131313"/>
<path d="M346.715 5.375L346.715 6.75L345.397 6.75L345.397 5.375L346.715 5.375Z" fill="#131313"/>
<path d="M336.169 5.375L336.169 6.75L334.85 6.75L334.85 5.375L336.169 5.375Z" fill="#131313"/>
<path d="M345.397 5.375L345.397 6.75L344.079 6.75L344.079 5.375L345.397 5.375Z" fill="#131313"/>
<path d="M337.487 5.375L337.487 6.75L336.169 6.75L336.169 5.375L337.487 5.375Z" fill="#131313"/>
<path d="M346.715 6.75L346.715 8.125L345.397 8.125L345.397 6.75L346.715 6.75Z" fill="#131313"/>
<path d="M336.169 6.75L336.169 8.125L334.85 8.125L334.85 6.75L336.169 6.75Z" fill="#131313"/>
<path d="M345.397 6.75L345.397 8.125L344.079 8.125L344.079 6.75L345.397 6.75Z" fill="#131313"/>
<path d="M337.487 6.75L337.487 8.125L336.169 8.125L336.169 6.75L337.487 6.75Z" fill="#131313"/>
<path d="M344.079 6.75L344.079 8.125L342.76 8.125L342.76 6.75L344.079 6.75Z" fill="#131313"/>
<path d="M346.715 8.125L346.715 9.5L345.397 9.5L345.397 8.125L346.715 8.125Z" fill="#131313"/>
<path d="M336.169 8.125L336.169 9.5L334.85 9.5L334.85 8.125L336.169 8.125Z" fill="#131313"/>
<path d="M345.397 8.125L345.397 9.5L344.079 9.5L344.079 8.125L345.397 8.125Z" fill="#131313"/>
<path d="M337.487 8.125L337.487 9.5L336.169 9.5L336.169 8.125L337.487 8.125Z" fill="#131313"/>
<path d="M344.079 8.125L344.079 9.5L342.76 9.5L342.76 8.125L344.079 8.125Z" fill="#131313"/>
<path d="M342.76 8.125L342.76 9.5L341.442 9.5L341.442 8.125L342.76 8.125Z" fill="#131313"/>
<path d="M340.124 8.125L340.124 9.5L338.805 9.5L338.805 8.125L340.124 8.125Z" fill="#131313"/>
<path d="M338.805 8.125L338.805 9.5L337.487 9.5L337.487 8.125L338.805 8.125Z" fill="#131313"/>
<path d="M338.805 6.75L338.805 8.125L337.487 8.125L337.487 6.75L338.805 6.75Z" fill="#131313"/>
<path d="M345.397 9.5L345.397 10.875L344.079 10.875L344.079 9.5L345.397 9.5Z" fill="#131313"/>
<path d="M337.487 9.5L337.487 10.875L336.169 10.875L336.169 9.5L337.487 9.5Z" fill="#131313"/>
<path d="M344.079 9.5L344.079 10.875L342.76 10.875L342.76 9.5L344.079 9.5Z" fill="#131313"/>
<path d="M342.76 9.5L342.76 10.875L341.442 10.875L341.442 9.5L342.76 9.5Z" fill="#131313"/>
<path d="M340.124 9.5L340.124 10.875L338.805 10.875L338.805 9.5L340.124 9.5Z" fill="#131313"/>
<path d="M338.805 9.5L338.805 10.875L337.487 10.875L337.487 9.5L338.805 9.5Z" fill="#131313"/>
<path d="M341.442 9.5L341.442 10.875L340.124 10.875L340.124 9.5L341.442 9.5Z" fill="#131313"/>
<path d="M344.079 10.875L344.079 12.25L342.76 12.25L342.76 10.875L344.079 10.875Z" fill="#131313"/>
<path d="M342.76 10.875L342.76 12.25L341.442 12.25L341.442 10.875L342.76 10.875Z" fill="#131313"/>
<path d="M340.124 10.875L340.124 12.25L338.805 12.25L338.805 10.875L340.124 10.875Z" fill="#131313"/>
<path d="M338.805 10.875L338.805 12.25L337.487 12.25L337.487 10.875L338.805 10.875Z" fill="#131313"/>
<path d="M341.442 10.875L341.442 12.25L340.124 12.25L340.124 10.875L341.442 10.875Z" fill="#131313"/>
<path d="M342.76 12.25L342.76 13.625L341.442 13.625L341.442 12.25L342.76 12.25Z" fill="#131313"/>
<path d="M341.442 13.625L341.442 15L340.124 15L340.124 13.625L341.442 13.625Z" fill="#131313"/>
<path d="M341.442 12.25L341.442 13.625L340.124 13.625L340.124 12.25L341.442 12.25Z" fill="#131313"/>
<path d="M340.124 12.25L340.124 13.625L338.805 13.625L338.805 12.25L340.124 12.25Z" fill="#131313"/>
<path d="M348.033 6.75L348.033 8.125L346.715 8.125L346.715 6.75L348.033 6.75Z" fill="#131313"/>
<path d="M334.85 6.75L334.85 8.125L333.532 8.125L333.532 6.75L334.85 6.75Z" fill="#131313"/>
<rect x="0.5" y="32.5" width="139" height="29" fill="#DCECA1"/>
<rect x="0.5" y="32.5" width="139" height="29" stroke="#131313"/>
<path d="M11.5059 48.38L8.42188 43.1H10.5219L12.4059 46.544L14.3859 43.1H16.3899L13.3059 48.38V51.5H11.5059V48.38ZM18.9251 51.572C16.8731 51.572 15.6371 50.336 15.6371 48.428C15.6371 46.508 16.8971 45.26 18.8051 45.26C20.6531 45.26 21.9011 46.412 21.9251 48.224C21.9251 48.404 21.9131 48.608 21.8771 48.8H17.4011V48.884C17.4371 49.76 18.0011 50.288 18.8531 50.288C19.5371 50.288 20.0171 49.988 20.1611 49.412H21.8291C21.6371 50.612 20.5691 51.572 18.9251 51.572ZM17.4371 47.696H20.2211C20.1011 46.94 19.5851 46.52 18.8171 46.52C18.0851 46.52 17.5331 46.964 17.4371 47.696ZM22.5148 49.448H24.1228C24.1828 49.988 24.6508 50.36 25.4788 50.36C26.1868 50.36 26.6188 50.132 26.6188 49.7C26.6188 49.196 26.1988 49.16 25.2028 49.028C23.7628 48.86 22.6468 48.536 22.6468 47.264C22.6468 46.04 23.7148 45.236 25.2988 45.248C26.9548 45.248 28.0948 45.98 28.1788 47.24H26.5588C26.5108 46.748 26.0428 46.448 25.3588 46.448C24.6988 46.448 24.2668 46.688 24.2668 47.084C24.2668 47.552 24.7948 47.6 25.6828 47.708C27.0988 47.852 28.2748 48.176 28.2748 49.568C28.2748 50.792 27.1228 51.572 25.4668 51.572C23.7508 51.572 22.5868 50.768 22.5148 49.448Z" fill="#131313"/>
<path d="M41.8974 47.132C42.6654 47.276 43.4694 47.888 43.4694 49.172C43.4694 50.6 42.2694 51.572 40.4454 51.572C38.6214 51.572 37.4454 50.576 37.4454 48.908H38.4414C38.4534 50.012 39.3174 50.672 40.5054 50.672C41.5974 50.672 42.4374 50.06 42.4374 49.1C42.4374 48.224 41.7174 47.66 40.4094 47.66H39.6894V46.784H40.3494C41.5974 46.784 42.2214 46.16 42.2214 45.308C42.2214 44.456 41.4534 43.928 40.4454 43.928C39.3894 43.928 38.6214 44.564 38.6094 45.524H37.6134C37.6254 44.048 38.7774 43.028 40.4334 43.028C42.1614 43.028 43.2534 43.928 43.2534 45.248C43.2534 46.304 42.7014 46.916 41.8974 47.132ZM48.6239 47.132C49.3919 47.276 50.1959 47.888 50.1959 49.172C50.1959 50.6 48.9959 51.572 47.1719 51.572C45.3479 51.572 44.1719 50.576 44.1719 48.908H45.1679C45.1799 50.012 46.0439 50.672 47.2319 50.672C48.3239 50.672 49.1639 50.06 49.1639 49.1C49.1639 48.224 48.4439 47.66 47.1359 47.66H46.4159V46.784H47.0759C48.3239 46.784 48.9479 46.16 48.9479 45.308C48.9479 44.456 48.1799 43.928 47.1719 43.928C46.1159 43.928 45.3479 44.564 45.3359 45.524H44.3399C44.3519 44.048 45.5039 43.028 47.1599 43.028C48.8879 43.028 49.9799 43.928 49.9799 45.248C49.9799 46.304 49.4279 46.916 48.6239 47.132ZM50.9504 50.9C50.9504 50.492 51.2384 50.228 51.6344 50.228C52.0304 50.228 52.3184 50.492 52.3184 50.9C52.3184 51.308 52.0304 51.572 51.6344 51.572C51.2384 51.572 50.9504 51.308 50.9504 50.9ZM54.1017 44.012V43.1H55.0857V51.5H54.0777V45.476C53.9577 45.584 53.7657 45.632 53.5017 45.632H52.1457V44.732H53.5137C53.9097 44.732 54.1017 44.432 54.1017 44.012ZM58.258 42.812C58.85 42.812 59.298 43.048 59.602 43.52C59.906 43.984 60.058 44.64 60.058 45.488C60.058 46.336 59.91 47 59.614 47.48C59.326 47.952 58.874 48.188 58.258 48.188C57.882 48.188 57.562 48.08 57.298 47.864C57.034 47.648 56.834 47.34 56.698 46.94C56.57 46.532 56.506 46.048 56.506 45.488C56.506 44.64 56.646 43.984 56.926 43.52C57.206 43.048 57.65 42.812 58.258 42.812ZM58.258 43.556C57.954 43.556 57.73 43.72 57.586 44.048C57.45 44.368 57.382 44.848 57.382 45.488C57.382 46.128 57.45 46.612 57.586 46.94C57.73 47.268 57.954 47.432 58.258 47.432C58.57 47.432 58.802 47.272 58.954 46.952C59.106 46.624 59.182 46.136 59.182 45.488C59.182 44.848 59.106 44.368 58.954 44.048C58.802 43.72 58.57 43.556 58.258 43.556ZM63.742 42.932L58.99 51.5H58.066L62.818 42.932H63.742ZM63.502 46.244C63.894 46.244 64.222 46.352 64.486 46.568C64.75 46.776 64.95 47.08 65.086 47.48C65.23 47.872 65.302 48.352 65.302 48.92C65.302 49.768 65.154 50.432 64.858 50.912C64.57 51.384 64.118 51.62 63.502 51.62C63.126 51.62 62.806 51.512 62.542 51.296C62.278 51.08 62.078 50.772 61.942 50.372C61.814 49.964 61.75 49.48 61.75 48.92C61.75 48.072 61.89 47.416 62.17 46.952C62.45 46.48 62.894 46.244 63.502 46.244ZM63.502 47C63.198 47 62.974 47.16 62.83 47.48C62.694 47.8 62.626 48.28 62.626 48.92C62.626 49.568 62.694 50.056 62.83 50.384C62.974 50.704 63.198 50.864 63.502 50.864C63.814 50.864 64.046 50.704 64.198 50.384C64.35 50.064 64.426 49.576 64.426 48.92C64.426 48.28 64.35 47.8 64.198 47.48C64.046 47.16 63.814 47 63.502 47Z" fill="#131313"/>
<mask id="path-6-inside-1_111_8686" fill="white">
<path d="M140 32H349V62H140V32Z"/>
</mask>
<path d="M140 32H349V62H140V32Z" fill="#89CDFF"/>
<path d="M349 32H350V31H349V32ZM349 62V63H350V62H349ZM140 33H349V31H140V33ZM348 32V62H350V32H348ZM349 61H140V63H349V61Z" fill="#131313" mask="url(#path-6-inside-1_111_8686)"/>
<path d="M150.685 51.5H148.921V43.1H150.553L154.117 48.392V43.1H155.893V51.5H154.249L150.685 46.208V51.5ZM160.204 51.572C158.236 51.572 156.952 50.312 156.952 48.416C156.952 46.52 158.236 45.26 160.204 45.26C162.172 45.26 163.456 46.52 163.456 48.416C163.456 50.324 162.172 51.572 160.204 51.572ZM160.204 50.192C161.152 50.192 161.74 49.46 161.74 48.416C161.74 47.372 161.152 46.64 160.204 46.64C159.256 46.64 158.68 47.372 158.68 48.416C158.68 49.46 159.256 50.192 160.204 50.192Z" fill="#131313"/>
<path d="M173.205 50.18C172.785 49.448 172.545 48.44 172.545 47.336C172.545 44.696 173.733 43.028 175.737 43.028C177.261 43.028 178.305 43.94 178.509 45.344H177.501C177.309 44.492 176.709 43.916 175.689 43.916C174.225 43.916 173.421 45.248 173.421 47.144C173.421 47.264 173.421 47.348 173.433 47.552C173.445 47.504 173.457 47.432 173.505 47.324C173.877 46.496 174.717 45.944 175.845 45.944C177.501 45.944 178.665 47.036 178.665 48.752C178.665 50.372 177.477 51.572 175.749 51.572C174.585 51.572 173.733 51.044 173.205 50.18ZM177.657 48.752C177.657 47.636 176.937 46.832 175.773 46.832C174.609 46.832 173.817 47.624 173.817 48.776C173.817 49.904 174.585 50.684 175.737 50.684C176.901 50.684 177.657 49.88 177.657 48.752ZM180.307 50.18C179.887 49.448 179.647 48.44 179.647 47.336C179.647 44.696 180.835 43.028 182.839 43.028C184.363 43.028 185.407 43.94 185.611 45.344H184.603C184.411 44.492 183.811 43.916 182.791 43.916C181.327 43.916 180.523 45.248 180.523 47.144C180.523 47.264 180.523 47.348 180.535 47.552C180.547 47.504 180.559 47.432 180.607 47.324C180.979 46.496 181.819 45.944 182.947 45.944C184.603 45.944 185.767 47.036 185.767 48.752C185.767 50.372 184.579 51.572 182.851 51.572C181.687 51.572 180.835 51.044 180.307 50.18ZM184.759 48.752C184.759 47.636 184.039 46.832 182.875 46.832C181.711 46.832 180.919 47.624 180.919 48.776C180.919 49.904 181.687 50.684 182.839 50.684C184.003 50.684 184.759 49.88 184.759 48.752ZM186.409 50.9C186.409 50.492 186.697 50.228 187.093 50.228C187.489 50.228 187.777 50.492 187.777 50.9C187.777 51.308 187.489 51.572 187.093 51.572C186.697 51.572 186.409 51.308 186.409 50.9ZM191.292 51.572C189.768 51.572 188.724 50.66 188.52 49.256H189.528C189.72 50.108 190.32 50.684 191.34 50.684C192.804 50.684 193.608 49.352 193.608 47.456C193.608 47.336 193.608 47.252 193.596 47.048C193.584 47.096 193.572 47.168 193.524 47.276C193.152 48.104 192.312 48.656 191.184 48.656C189.528 48.656 188.364 47.564 188.364 45.848C188.364 44.228 189.552 43.028 191.28 43.028C192.444 43.028 193.296 43.556 193.824 44.42C194.244 45.152 194.484 46.16 194.484 47.264C194.484 49.904 193.296 51.572 191.292 51.572ZM191.256 47.768C192.42 47.768 193.212 46.976 193.212 45.824C193.212 44.696 192.444 43.916 191.292 43.916C190.128 43.916 189.372 44.72 189.372 45.848C189.372 46.964 190.092 47.768 191.256 47.768ZM197.338 42.812C197.93 42.812 198.378 43.048 198.682 43.52C198.986 43.984 199.138 44.64 199.138 45.488C199.138 46.336 198.99 47 198.694 47.48C198.406 47.952 197.954 48.188 197.338 48.188C196.962 48.188 196.642 48.08 196.378 47.864C196.114 47.648 195.914 47.34 195.778 46.94C195.65 46.532 195.586 46.048 195.586 45.488C195.586 44.64 195.726 43.984 196.006 43.52C196.286 43.048 196.73 42.812 197.338 42.812ZM197.338 43.556C197.034 43.556 196.81 43.72 196.666 44.048C196.53 44.368 196.462 44.848 196.462 45.488C196.462 46.128 196.53 46.612 196.666 46.94C196.81 47.268 197.034 47.432 197.338 47.432C197.65 47.432 197.882 47.272 198.034 46.952C198.186 46.624 198.262 46.136 198.262 45.488C198.262 44.848 198.186 44.368 198.034 44.048C197.882 43.72 197.65 43.556 197.338 43.556ZM202.822 42.932L198.07 51.5H197.146L201.898 42.932H202.822ZM202.582 46.244C202.974 46.244 203.302 46.352 203.566 46.568C203.83 46.776 204.03 47.08 204.166 47.48C204.31 47.872 204.382 48.352 204.382 48.92C204.382 49.768 204.234 50.432 203.938 50.912C203.65 51.384 203.198 51.62 202.582 51.62C202.206 51.62 201.886 51.512 201.622 51.296C201.358 51.08 201.158 50.772 201.022 50.372C200.894 49.964 200.83 49.48 200.83 48.92C200.83 48.072 200.97 47.416 201.25 46.952C201.53 46.48 201.974 46.244 202.582 46.244ZM202.582 47C202.278 47 202.054 47.16 201.91 47.48C201.774 47.8 201.706 48.28 201.706 48.92C201.706 49.568 201.774 50.056 201.91 50.384C202.054 50.704 202.278 50.864 202.582 50.864C202.894 50.864 203.126 50.704 203.278 50.384C203.43 50.064 203.506 49.576 203.506 48.92C203.506 48.28 203.43 47.8 203.278 47.48C203.126 47.16 202.894 47 202.582 47Z" fill="#131313"/>
</svg>
