<svg width="349" height="62" viewBox="0 0 349 62" fill="none" xmlns="http://www.w3.org/2000/svg">
<path d="M10.928 13.936H12.032V16H10.88C9.92 16 9.52 15.728 9.136 15.248C8.288 15.792 7.232 16.096 6.064 16.096C2.768 16.096 0.512 13.664 0.512 10.4C0.512 7.136 2.768 4.704 6.064 4.704C9.36 4.704 11.616 7.136 11.616 10.4C11.616 11.728 11.248 12.928 10.576 13.872C10.672 13.904 10.784 13.936 10.928 13.936ZM2.96 10.4C2.96 12.512 4.176 14.064 6.064 14.064C6.72 14.064 7.296 13.872 7.776 13.536L7.616 13.344C7.376 13.024 7.168 12.848 6.816 12.848H5.776V10.816H6.992C7.936 10.816 8.256 11.152 8.64 11.632L8.896 11.952C9.072 11.488 9.152 10.96 9.152 10.4C9.152 8.288 7.936 6.736 6.064 6.736C4.176 6.736 2.96 8.288 2.96 10.4ZM18.4908 11.888V7.776H20.7468V16H18.7468L18.5388 15.008C18.0108 15.648 17.2908 16.096 16.1228 16.096C14.4268 16.096 12.8588 15.248 12.8588 12.336V7.776H15.1148V12.032C15.1148 13.504 15.5948 14.224 16.7148 14.224C17.8348 14.224 18.4908 13.408 18.4908 11.888ZM26.3793 16.096C23.6432 16.096 21.9953 14.448 21.9953 11.904C21.9953 9.344 23.6753 7.68 26.2193 7.68C28.6833 7.68 30.3472 9.216 30.3793 11.632C30.3793 11.872 30.3633 12.144 30.3153 12.4H24.3473V12.512C24.3953 13.68 25.1473 14.384 26.2833 14.384C27.1953 14.384 27.8353 13.984 28.0273 13.216H30.2513C29.9953 14.816 28.5713 16.096 26.3793 16.096ZM24.3953 10.928H28.1073C27.9473 9.92 27.2593 9.36 26.2352 9.36C25.2593 9.36 24.5233 9.952 24.3953 10.928ZM31.1656 13.264H33.3096C33.3896 13.984 34.0136 14.48 35.1176 14.48C36.0616 14.48 36.6376 14.176 36.6376 13.6C36.6376 12.928 36.0776 12.88 34.7496 12.704C32.8296 12.48 31.3416 12.048 31.3416 10.352C31.3416 8.72 32.7656 7.648 34.8776 7.664C37.0856 7.664 38.6056 8.64 38.7176 10.32H36.5576C36.4936 9.664 35.8696 9.264 34.9576 9.264C34.0776 9.264 33.5016 9.584 33.5016 10.112C33.5016 10.736 34.2056 10.8 35.3896 10.944C37.2776 11.136 38.8456 11.568 38.8456 13.424C38.8456 15.056 37.3096 16.096 35.1016 16.096C32.8136 16.096 31.2616 15.024 31.1656 13.264ZM40.626 13.648V9.68H39.266V7.776H40.626V5.472H42.882V7.776H44.77V9.68H42.882V13.28C42.882 13.856 43.106 14.096 43.698 14.096H44.818V16H42.978C41.41 16 40.626 15.216 40.626 13.648ZM46.9981 6.896C46.2621 6.896 45.6861 6.352 45.6861 5.632C45.6861 4.896 46.2621 4.352 46.9981 4.352C47.7341 4.352 48.3101 4.896 48.3101 5.632C48.3101 6.352 47.7341 6.896 46.9981 6.896ZM45.8621 16V7.776H48.1341V16H45.8621ZM53.7063 16.096C51.0823 16.096 49.3703 14.416 49.3703 11.888C49.3703 9.36 51.0823 7.68 53.7063 7.68C56.3303 7.68 58.0423 9.36 58.0423 11.888C58.0423 14.432 56.3303 16.096 53.7063 16.096ZM53.7063 14.256C54.9703 14.256 55.7543 13.28 55.7543 11.888C55.7543 10.496 54.9703 9.52 53.7063 9.52C52.4423 9.52 51.6743 10.496 51.6743 11.888C51.6743 13.28 52.4423 14.256 53.7063 14.256ZM64.004 7.68C65.78 7.68 67.3 8.624 67.3 11.44V16H65.044V11.664C65.044 10.272 64.516 9.536 63.38 9.536C62.212 9.536 61.54 10.368 61.54 11.792V16H59.284V7.776H61.252L61.46 8.8C61.988 8.16 62.74 7.68 64.004 7.68ZM74.5623 5.824V4.8H76.8183V16H74.5143V8.752C74.3383 8.8 74.1463 8.816 73.9062 8.816H72.0343V6.912H73.6983C74.3383 6.912 74.5623 6.48 74.5623 5.824ZM87.99 12.368H82.39V10.528H87.99V12.368ZM93.6818 16V4.8H100.818V6.08H95.0738V9.664H99.8578V10.944H95.0738V14.72H101.026V16H93.6818ZM102.754 13.872V9.04H101.282V7.84H102.754V5.552H104.066V7.84H106.178V9.04H104.066V13.856C104.066 14.544 104.306 14.8 105.01 14.8H106.306V16H104.882C103.314 16 102.754 15.312 102.754 13.872ZM111.443 7.744C113.267 7.744 114.755 8.752 114.755 11.456V16H113.443V11.536C113.443 9.84 112.627 8.944 111.219 8.944C109.699 8.944 108.755 10.08 108.755 11.92V16H107.443V4.8H108.755V9.184C109.235 8.416 110.067 7.744 111.443 7.744ZM117.099 6.464C116.619 6.464 116.251 6.112 116.251 5.616C116.251 5.12 116.619 4.768 117.099 4.768C117.579 4.768 117.947 5.12 117.947 5.616C117.947 6.112 117.579 6.464 117.099 6.464ZM116.427 16V7.84H117.739V16H116.427ZM123.201 16.096C120.817 16.096 119.249 14.48 119.249 11.936C119.249 9.44 120.865 7.744 123.233 7.744C125.233 7.744 126.497 8.864 126.833 10.656H125.457C125.217 9.568 124.417 8.912 123.217 8.912C121.649 8.912 120.593 10.16 120.593 11.936C120.593 13.712 121.649 14.928 123.217 14.928C124.385 14.928 125.185 14.256 125.441 13.216H126.833C126.513 14.976 125.185 16.096 123.201 16.096ZM135.487 14.8H135.903V16H135.183C134.095 16 133.727 15.536 133.711 14.736C133.199 15.472 132.383 16.096 130.975 16.096C129.183 16.096 127.967 15.2 127.967 13.712C127.967 12.08 129.103 11.168 131.247 11.168H133.647V10.608C133.647 9.552 132.895 8.912 131.615 8.912C130.463 8.912 129.695 9.456 129.535 10.288H128.223C128.415 8.688 129.711 7.744 131.679 7.744C133.759 7.744 134.959 8.784 134.959 10.688V14.256C134.959 14.688 135.119 14.8 135.487 14.8ZM133.647 12.672V12.272H131.119C129.951 12.272 129.295 12.704 129.295 13.632C129.295 14.432 129.983 14.976 131.071 14.976C132.703 14.976 133.647 14.032 133.647 12.672ZM136.912 16V4.8H138.224V16H136.912ZM143.873 13.312H145.217C145.265 14.272 146.113 14.976 147.473 14.976C148.625 14.976 149.441 14.48 149.441 13.728C149.441 12.704 148.545 12.624 147.329 12.48C145.505 12.256 144.049 11.888 144.049 10.192C144.049 8.704 145.409 7.728 147.249 7.744C149.105 7.76 150.449 8.624 150.577 10.32H149.233C149.137 9.488 148.369 8.864 147.249 8.864C146.113 8.864 145.345 9.344 145.345 10.096C145.345 10.992 146.209 11.104 147.393 11.248C149.249 11.472 150.737 11.824 150.737 13.632C150.737 15.152 149.281 16.096 147.473 16.096C145.361 16.096 143.905 15.104 143.873 13.312ZM157.905 11.92V7.84H159.217V16H158.081L157.905 14.912C157.425 15.52 156.641 16.096 155.297 16.096C153.505 16.096 152.081 15.088 152.081 12.384V7.84H153.393V12.304C153.393 14 154.161 14.896 155.521 14.896C157.009 14.896 157.905 13.76 157.905 11.92ZM165.117 7.744C167.373 7.744 169.037 9.264 169.037 11.92C169.037 14.416 167.373 16.096 165.117 16.096C163.741 16.096 162.813 15.536 162.317 14.752L162.141 16H161.005V4.8H162.317V9.152C162.861 8.4 163.741 7.744 165.117 7.744ZM164.989 14.928C166.605 14.928 167.693 13.696 167.693 11.92C167.693 10.144 166.605 8.912 164.989 8.912C163.389 8.912 162.301 10.144 162.301 11.888C162.301 13.68 163.389 14.928 164.989 14.928ZM171.289 6.464C170.809 6.464 170.441 6.112 170.441 5.616C170.441 5.12 170.809 4.768 171.289 4.768C171.769 4.768 172.137 5.12 172.137 5.616C172.137 6.112 171.769 6.464 171.289 6.464ZM168.713 19.2V18H169.737C170.393 18 170.633 17.728 170.633 17.104V7.84H171.945V17.072C171.945 18.512 171.337 19.2 169.817 19.2H168.713ZM177.5 16.096C175.052 16.096 173.452 14.416 173.452 11.92C173.452 9.44 175.02 7.744 177.324 7.744C179.628 7.744 181.132 9.2 181.196 11.616C181.196 11.792 181.18 11.984 181.164 12.176H174.828V12.288C174.876 13.84 175.852 14.928 177.404 14.928C178.556 14.928 179.452 14.32 179.724 13.264H181.052C180.732 14.896 179.388 16.096 177.5 16.096ZM174.908 11.088H179.788C179.66 9.68 178.7 8.896 177.34 8.896C176.14 8.896 175.036 9.76 174.908 11.088ZM186.357 16.096C183.973 16.096 182.405 14.48 182.405 11.936C182.405 9.44 184.021 7.744 186.389 7.744C188.389 7.744 189.653 8.864 189.989 10.656H188.613C188.373 9.568 187.573 8.912 186.373 8.912C184.805 8.912 183.749 10.16 183.749 11.936C183.749 13.712 184.805 14.928 186.373 14.928C187.541 14.928 188.341 14.256 188.597 13.216H189.989C189.669 14.976 188.341 16.096 186.357 16.096ZM192.035 13.872V9.04H190.563V7.84H192.035V5.552H193.347V7.84H195.459V9.04H193.347V13.856C193.347 14.544 193.587 14.8 194.291 14.8H195.587V16H194.163C192.595 16 192.035 15.312 192.035 13.872ZM197.396 6.464C196.916 6.464 196.548 6.112 196.548 5.616C196.548 5.12 196.916 4.768 197.396 4.768C197.876 4.768 198.244 5.12 198.244 5.616C198.244 6.112 197.876 6.464 197.396 6.464ZM196.724 16V7.84H198.036V16H196.724ZM202.074 16L199.018 7.84H200.426L202.89 14.512L205.338 7.84H206.714L203.658 16H202.074ZM208.365 6.464C207.885 6.464 207.517 6.112 207.517 5.616C207.517 5.12 207.885 4.768 208.365 4.768C208.845 4.768 209.213 5.12 209.213 5.616C209.213 6.112 208.845 6.464 208.365 6.464ZM207.693 16V7.84H209.005V16H207.693ZM211.41 13.872V9.04H209.938V7.84H211.41V5.552H212.722V7.84H214.834V9.04H212.722V13.856C212.722 14.544 212.962 14.8 213.666 14.8H214.962V16H213.538C211.97 16 211.41 15.312 211.41 13.872ZM218.467 16.048L215.283 7.84H216.675L219.187 14.352L221.619 7.84H223.011L219.251 17.376C218.739 18.688 218.435 19.2 217.283 19.2H215.715V18H216.883C217.635 18 217.763 17.808 218.067 17.04L218.467 16.048Z" fill="#131313"/>
<path d="M348.033 5.375L348.033 6.75L346.715 6.75L346.715 5.375L348.033 5.375Z" fill="#131313"/>
<path d="M334.85 5.375L334.85 6.75L333.532 6.75L333.532 5.375L334.85 5.375Z" fill="#131313"/>
<path d="M346.715 4L346.715 5.375L345.397 5.375L345.397 4L346.715 4Z" fill="#131313"/>
<path d="M336.169 4L336.169 5.375L334.85 5.375L334.85 4L336.169 4Z" fill="#131313"/>
<path d="M346.715 5.375L346.715 6.75L345.397 6.75L345.397 5.375L346.715 5.375Z" fill="#131313"/>
<path d="M336.169 5.375L336.169 6.75L334.85 6.75L334.85 5.375L336.169 5.375Z" fill="#131313"/>
<path d="M345.397 5.375L345.397 6.75L344.079 6.75L344.079 5.375L345.397 5.375Z" fill="#131313"/>
<path d="M337.487 5.375L337.487 6.75L336.169 6.75L336.169 5.375L337.487 5.375Z" fill="#131313"/>
<path d="M346.715 6.75L346.715 8.125L345.397 8.125L345.397 6.75L346.715 6.75Z" fill="#131313"/>
<path d="M336.169 6.75L336.169 8.125L334.85 8.125L334.85 6.75L336.169 6.75Z" fill="#131313"/>
<path d="M345.397 6.75L345.397 8.125L344.079 8.125L344.079 6.75L345.397 6.75Z" fill="#131313"/>
<path d="M337.487 6.75L337.487 8.125L336.169 8.125L336.169 6.75L337.487 6.75Z" fill="#131313"/>
<path d="M344.079 6.75L344.079 8.125L342.76 8.125L342.76 6.75L344.079 6.75Z" fill="#131313"/>
<path d="M346.715 8.125L346.715 9.5L345.397 9.5L345.397 8.125L346.715 8.125Z" fill="#131313"/>
<path d="M336.169 8.125L336.169 9.5L334.85 9.5L334.85 8.125L336.169 8.125Z" fill="#131313"/>
<path d="M345.397 8.125L345.397 9.5L344.079 9.5L344.079 8.125L345.397 8.125Z" fill="#131313"/>
<path d="M337.487 8.125L337.487 9.5L336.169 9.5L336.169 8.125L337.487 8.125Z" fill="#131313"/>
<path d="M344.079 8.125L344.079 9.5L342.76 9.5L342.76 8.125L344.079 8.125Z" fill="#131313"/>
<path d="M342.76 8.125L342.76 9.5L341.442 9.5L341.442 8.125L342.76 8.125Z" fill="#131313"/>
<path d="M340.124 8.125L340.124 9.5L338.805 9.5L338.805 8.125L340.124 8.125Z" fill="#131313"/>
<path d="M338.805 8.125L338.805 9.5L337.487 9.5L337.487 8.125L338.805 8.125Z" fill="#131313"/>
<path d="M338.805 6.75L338.805 8.125L337.487 8.125L337.487 6.75L338.805 6.75Z" fill="#131313"/>
<path d="M345.397 9.5L345.397 10.875L344.079 10.875L344.079 9.5L345.397 9.5Z" fill="#131313"/>
<path d="M337.487 9.5L337.487 10.875L336.169 10.875L336.169 9.5L337.487 9.5Z" fill="#131313"/>
<path d="M344.079 9.5L344.079 10.875L342.76 10.875L342.76 9.5L344.079 9.5Z" fill="#131313"/>
<path d="M342.76 9.5L342.76 10.875L341.442 10.875L341.442 9.5L342.76 9.5Z" fill="#131313"/>
<path d="M340.124 9.5L340.124 10.875L338.805 10.875L338.805 9.5L340.124 9.5Z" fill="#131313"/>
<path d="M338.805 9.5L338.805 10.875L337.487 10.875L337.487 9.5L338.805 9.5Z" fill="#131313"/>
<path d="M341.442 9.5L341.442 10.875L340.124 10.875L340.124 9.5L341.442 9.5Z" fill="#131313"/>
<path d="M344.079 10.875L344.079 12.25L342.76 12.25L342.76 10.875L344.079 10.875Z" fill="#131313"/>
<path d="M342.76 10.875L342.76 12.25L341.442 12.25L341.442 10.875L342.76 10.875Z" fill="#131313"/>
<path d="M340.124 10.875L340.124 12.25L338.805 12.25L338.805 10.875L340.124 10.875Z" fill="#131313"/>
<path d="M338.805 10.875L338.805 12.25L337.487 12.25L337.487 10.875L338.805 10.875Z" fill="#131313"/>
<path d="M341.442 10.875L341.442 12.25L340.124 12.25L340.124 10.875L341.442 10.875Z" fill="#131313"/>
<path d="M342.76 12.25L342.76 13.625L341.442 13.625L341.442 12.25L342.76 12.25Z" fill="#131313"/>
<path d="M341.442 13.625L341.442 15L340.124 15L340.124 13.625L341.442 13.625Z" fill="#131313"/>
<path d="M341.442 12.25L341.442 13.625L340.124 13.625L340.124 12.25L341.442 12.25Z" fill="#131313"/>
<path d="M340.124 12.25L340.124 13.625L338.805 13.625L338.805 12.25L340.124 12.25Z" fill="#131313"/>
<path d="M348.033 6.75L348.033 8.125L346.715 8.125L346.715 6.75L348.033 6.75Z" fill="#131313"/>
<path d="M334.85 6.75L334.85 8.125L333.532 8.125L333.532 6.75L334.85 6.75Z" fill="#131313"/>
<rect x="0.5" y="32.5" width="243" height="29" fill="#F6F3F1"/>
<rect x="0.5" y="32.5" width="243" height="29" stroke="#131313"/>
<path d="M11.5059 48.38L8.42188 43.1H10.5219L12.4059 46.544L14.3859 43.1H16.3899L13.3059 48.38V51.5H11.5059V48.38ZM18.9251 51.572C16.8731 51.572 15.6371 50.336 15.6371 48.428C15.6371 46.508 16.8971 45.26 18.8051 45.26C20.6531 45.26 21.9011 46.412 21.9251 48.224C21.9251 48.404 21.9131 48.608 21.8771 48.8H17.4011V48.884C17.4371 49.76 18.0011 50.288 18.8531 50.288C19.5371 50.288 20.0171 49.988 20.1611 49.412H21.8291C21.6371 50.612 20.5691 51.572 18.9251 51.572ZM17.4371 47.696H20.2211C20.1011 46.94 19.5851 46.52 18.8171 46.52C18.0851 46.52 17.5331 46.964 17.4371 47.696ZM22.5148 49.448H24.1228C24.1828 49.988 24.6508 50.36 25.4788 50.36C26.1868 50.36 26.6188 50.132 26.6188 49.7C26.6188 49.196 26.1988 49.16 25.2028 49.028C23.7628 48.86 22.6468 48.536 22.6468 47.264C22.6468 46.04 23.7148 45.236 25.2988 45.248C26.9548 45.248 28.0948 45.98 28.1788 47.24H26.5588C26.5108 46.748 26.0428 46.448 25.3588 46.448C24.6988 46.448 24.2668 46.688 24.2668 47.084C24.2668 47.552 24.7948 47.6 25.6828 47.708C27.0988 47.852 28.2748 48.176 28.2748 49.568C28.2748 50.792 27.1228 51.572 25.4668 51.572C23.7508 51.572 22.5868 50.768 22.5148 49.448Z" fill="#131313"/>
<path d="M37.4453 44.024V43.1H43.3733V43.808L39.2453 51.5H38.1533L42.2693 44.024H37.4453ZM48.2462 47.156C49.1822 47.372 49.9262 48.092 49.9262 49.244C49.9262 50.6 48.7622 51.572 46.8662 51.572C44.9702 51.572 43.8062 50.6 43.8062 49.244C43.8062 48.104 44.5382 47.372 45.4862 47.156C44.6822 46.976 44.0462 46.268 44.0462 45.26C44.0462 43.94 45.1502 43.028 46.8662 43.028C48.5822 43.028 49.6862 43.94 49.6862 45.26C49.6862 46.22 49.0622 46.976 48.2462 47.156ZM45.0782 45.26C45.0782 46.088 45.7862 46.64 46.8662 46.64C47.9462 46.64 48.6542 46.088 48.6542 45.26C48.6542 44.444 47.9462 43.892 46.8662 43.892C45.7862 43.892 45.0782 44.444 45.0782 45.26ZM46.8662 50.708C48.0662 50.708 48.8942 50.072 48.8942 49.172C48.8942 48.284 48.0662 47.648 46.8662 47.648C45.6662 47.648 44.8382 48.284 44.8382 49.172C44.8382 50.072 45.6782 50.708 46.8662 50.708ZM50.6985 50.9C50.6985 50.492 50.9865 50.228 51.3825 50.228C51.7785 50.228 52.0665 50.492 52.0665 50.9C52.0665 51.308 51.7785 51.572 51.3825 51.572C50.9865 51.572 50.6985 51.308 50.6985 50.9ZM53.8497 44.012V43.1H54.8337V51.5H53.8257V45.476C53.7057 45.584 53.5137 45.632 53.2497 45.632H51.8937V44.732H53.2617C53.6577 44.732 53.8497 44.432 53.8497 44.012ZM58.006 42.812C58.598 42.812 59.046 43.048 59.35 43.52C59.654 43.984 59.806 44.64 59.806 45.488C59.806 46.336 59.658 47 59.362 47.48C59.074 47.952 58.622 48.188 58.006 48.188C57.63 48.188 57.31 48.08 57.046 47.864C56.782 47.648 56.582 47.34 56.446 46.94C56.318 46.532 56.254 46.048 56.254 45.488C56.254 44.64 56.394 43.984 56.674 43.52C56.954 43.048 57.398 42.812 58.006 42.812ZM58.006 43.556C57.702 43.556 57.478 43.72 57.334 44.048C57.198 44.368 57.13 44.848 57.13 45.488C57.13 46.128 57.198 46.612 57.334 46.94C57.478 47.268 57.702 47.432 58.006 47.432C58.318 47.432 58.55 47.272 58.702 46.952C58.854 46.624 58.93 46.136 58.93 45.488C58.93 44.848 58.854 44.368 58.702 44.048C58.55 43.72 58.318 43.556 58.006 43.556ZM63.49 42.932L58.738 51.5H57.814L62.566 42.932H63.49ZM63.25 46.244C63.642 46.244 63.97 46.352 64.234 46.568C64.498 46.776 64.698 47.08 64.834 47.48C64.978 47.872 65.05 48.352 65.05 48.92C65.05 49.768 64.902 50.432 64.606 50.912C64.318 51.384 63.866 51.62 63.25 51.62C62.874 51.62 62.554 51.512 62.29 51.296C62.026 51.08 61.826 50.772 61.69 50.372C61.562 49.964 61.498 49.48 61.498 48.92C61.498 48.072 61.638 47.416 61.918 46.952C62.198 46.48 62.642 46.244 63.25 46.244ZM63.25 47C62.946 47 62.722 47.16 62.578 47.48C62.442 47.8 62.374 48.28 62.374 48.92C62.374 49.568 62.442 50.056 62.578 50.384C62.722 50.704 62.946 50.864 63.25 50.864C63.562 50.864 63.794 50.704 63.946 50.384C64.098 50.064 64.174 49.576 64.174 48.92C64.174 48.28 64.098 47.8 63.946 47.48C63.794 47.16 63.562 47 63.25 47Z" fill="#131313"/>
<mask id="path-6-inside-1_111_8670" fill="white">
<path d="M244 32H349V62H244V32Z"/>
</mask>
<path d="M244 32H349V62H244V32Z" fill="#131313"/>
<path d="M349 32H350V31H349V32ZM349 62V63H350V62H349ZM244 33H349V31H244V33ZM348 32V62H350V32H348ZM349 61H244V63H349V61Z" fill="#131313" mask="url(#path-6-inside-1_111_8670)"/>
<path d="M254.685 51.5H252.921V43.1H254.553L258.117 48.392V43.1H259.893V51.5H258.249L254.685 46.208V51.5ZM264.204 51.572C262.236 51.572 260.952 50.312 260.952 48.416C260.952 46.52 262.236 45.26 264.204 45.26C266.172 45.26 267.456 46.52 267.456 48.416C267.456 50.324 266.172 51.572 264.204 51.572ZM264.204 50.192C265.152 50.192 265.74 49.46 265.74 48.416C265.74 47.372 265.152 46.64 264.204 46.64C263.256 46.64 262.68 47.372 262.68 48.416C262.68 49.46 263.256 50.192 264.204 50.192Z" fill="#F6F3F1"/>
<path d="M276.586 51.5V50.648L279.85 47.816C280.63 47.144 281.278 46.496 281.278 45.584C281.278 44.528 280.558 43.928 279.442 43.928C278.362 43.928 277.642 44.648 277.642 45.8V45.956H276.634V45.74C276.634 44.156 277.75 43.028 279.442 43.028C281.254 43.028 282.31 44.024 282.31 45.536C282.31 46.796 281.494 47.588 280.498 48.44L277.978 50.576H282.37V51.5H276.586ZM284.748 44.012V43.1H285.732V51.5H284.724V45.476C284.604 45.584 284.412 45.632 284.148 45.632H282.792V44.732H284.16C284.556 44.732 284.748 44.432 284.748 44.012ZM287.116 50.9C287.116 50.492 287.404 50.228 287.8 50.228C288.196 50.228 288.484 50.492 288.484 50.9C288.484 51.308 288.196 51.572 287.8 51.572C287.404 51.572 287.116 51.308 287.116 50.9ZM292 51.572C290.476 51.572 289.432 50.66 289.228 49.256H290.236C290.428 50.108 291.028 50.684 292.048 50.684C293.512 50.684 294.316 49.352 294.316 47.456C294.316 47.336 294.316 47.252 294.304 47.048C294.292 47.096 294.28 47.168 294.232 47.276C293.86 48.104 293.02 48.656 291.892 48.656C290.236 48.656 289.072 47.564 289.072 45.848C289.072 44.228 290.26 43.028 291.988 43.028C293.152 43.028 294.004 43.556 294.532 44.42C294.952 45.152 295.192 46.16 295.192 47.264C295.192 49.904 294.004 51.572 292 51.572ZM291.964 47.768C293.128 47.768 293.92 46.976 293.92 45.824C293.92 44.696 293.152 43.916 292 43.916C290.836 43.916 290.08 44.72 290.08 45.848C290.08 46.964 290.8 47.768 291.964 47.768ZM298.045 42.812C298.637 42.812 299.085 43.048 299.389 43.52C299.693 43.984 299.845 44.64 299.845 45.488C299.845 46.336 299.697 47 299.401 47.48C299.113 47.952 298.661 48.188 298.045 48.188C297.669 48.188 297.349 48.08 297.085 47.864C296.821 47.648 296.621 47.34 296.485 46.94C296.357 46.532 296.293 46.048 296.293 45.488C296.293 44.64 296.433 43.984 296.713 43.52C296.993 43.048 297.437 42.812 298.045 42.812ZM298.045 43.556C297.741 43.556 297.517 43.72 297.373 44.048C297.237 44.368 297.169 44.848 297.169 45.488C297.169 46.128 297.237 46.612 297.373 46.94C297.517 47.268 297.741 47.432 298.045 47.432C298.357 47.432 298.589 47.272 298.741 46.952C298.893 46.624 298.969 46.136 298.969 45.488C298.969 44.848 298.893 44.368 298.741 44.048C298.589 43.72 298.357 43.556 298.045 43.556ZM303.529 42.932L298.777 51.5H297.853L302.605 42.932H303.529ZM303.289 46.244C303.681 46.244 304.009 46.352 304.273 46.568C304.537 46.776 304.737 47.08 304.873 47.48C305.017 47.872 305.089 48.352 305.089 48.92C305.089 49.768 304.941 50.432 304.645 50.912C304.357 51.384 303.905 51.62 303.289 51.62C302.913 51.62 302.593 51.512 302.329 51.296C302.065 51.08 301.865 50.772 301.729 50.372C301.601 49.964 301.537 49.48 301.537 48.92C301.537 48.072 301.677 47.416 301.957 46.952C302.237 46.48 302.681 46.244 303.289 46.244ZM303.289 47C302.985 47 302.761 47.16 302.617 47.48C302.481 47.8 302.413 48.28 302.413 48.92C302.413 49.568 302.481 50.056 302.617 50.384C302.761 50.704 302.985 50.864 303.289 50.864C303.601 50.864 303.833 50.704 303.985 50.384C304.137 50.064 304.213 49.576 304.213 48.92C304.213 48.28 304.137 47.8 303.985 47.48C303.833 47.16 303.601 47 303.289 47Z" fill="#F6F3F1"/>
</svg>
