<svg width="349" height="62" viewBox="0 0 349 62" fill="none" xmlns="http://www.w3.org/2000/svg">
<path d="M10.928 13.936H12.032V16H10.88C9.92 16 9.52 15.728 9.136 15.248C8.288 15.792 7.232 16.096 6.064 16.096C2.768 16.096 0.512 13.664 0.512 10.4C0.512 7.136 2.768 4.704 6.064 4.704C9.36 4.704 11.616 7.136 11.616 10.4C11.616 11.728 11.248 12.928 10.576 13.872C10.672 13.904 10.784 13.936 10.928 13.936ZM2.96 10.4C2.96 12.512 4.176 14.064 6.064 14.064C6.72 14.064 7.296 13.872 7.776 13.536L7.616 13.344C7.376 13.024 7.168 12.848 6.816 12.848H5.776V10.816H6.992C7.936 10.816 8.256 11.152 8.64 11.632L8.896 11.952C9.072 11.488 9.152 10.96 9.152 10.4C9.152 8.288 7.936 6.736 6.064 6.736C4.176 6.736 2.96 8.288 2.96 10.4ZM18.4908 11.888V7.776H20.7468V16H18.7468L18.5388 15.008C18.0108 15.648 17.2908 16.096 16.1228 16.096C14.4268 16.096 12.8588 15.248 12.8588 12.336V7.776H15.1148V12.032C15.1148 13.504 15.5948 14.224 16.7148 14.224C17.8348 14.224 18.4908 13.408 18.4908 11.888ZM26.3793 16.096C23.6432 16.096 21.9953 14.448 21.9953 11.904C21.9953 9.344 23.6753 7.68 26.2193 7.68C28.6833 7.68 30.3472 9.216 30.3793 11.632C30.3793 11.872 30.3633 12.144 30.3153 12.4H24.3473V12.512C24.3953 13.68 25.1473 14.384 26.2833 14.384C27.1953 14.384 27.8353 13.984 28.0273 13.216H30.2513C29.9953 14.816 28.5713 16.096 26.3793 16.096ZM24.3953 10.928H28.1073C27.9473 9.92 27.2593 9.36 26.2352 9.36C25.2593 9.36 24.5233 9.952 24.3953 10.928ZM31.1656 13.264H33.3096C33.3896 13.984 34.0136 14.48 35.1176 14.48C36.0616 14.48 36.6376 14.176 36.6376 13.6C36.6376 12.928 36.0776 12.88 34.7496 12.704C32.8296 12.48 31.3416 12.048 31.3416 10.352C31.3416 8.72 32.7656 7.648 34.8776 7.664C37.0856 7.664 38.6056 8.64 38.7176 10.32H36.5576C36.4936 9.664 35.8696 9.264 34.9576 9.264C34.0776 9.264 33.5016 9.584 33.5016 10.112C33.5016 10.736 34.2056 10.8 35.3896 10.944C37.2776 11.136 38.8456 11.568 38.8456 13.424C38.8456 15.056 37.3096 16.096 35.1016 16.096C32.8136 16.096 31.2616 15.024 31.1656 13.264ZM40.626 13.648V9.68H39.266V7.776H40.626V5.472H42.882V7.776H44.77V9.68H42.882V13.28C42.882 13.856 43.106 14.096 43.698 14.096H44.818V16H42.978C41.41 16 40.626 15.216 40.626 13.648ZM46.9981 6.896C46.2621 6.896 45.6861 6.352 45.6861 5.632C45.6861 4.896 46.2621 4.352 46.9981 4.352C47.7341 4.352 48.3101 4.896 48.3101 5.632C48.3101 6.352 47.7341 6.896 46.9981 6.896ZM45.8621 16V7.776H48.1341V16H45.8621ZM53.7063 16.096C51.0823 16.096 49.3703 14.416 49.3703 11.888C49.3703 9.36 51.0823 7.68 53.7063 7.68C56.3303 7.68 58.0423 9.36 58.0423 11.888C58.0423 14.432 56.3303 16.096 53.7063 16.096ZM53.7063 14.256C54.9703 14.256 55.7543 13.28 55.7543 11.888C55.7543 10.496 54.9703 9.52 53.7063 9.52C52.4423 9.52 51.6743 10.496 51.6743 11.888C51.6743 13.28 52.4423 14.256 53.7063 14.256ZM64.004 7.68C65.78 7.68 67.3 8.624 67.3 11.44V16H65.044V11.664C65.044 10.272 64.516 9.536 63.38 9.536C62.212 9.536 61.54 10.368 61.54 11.792V16H59.284V7.776H61.252L61.46 8.8C61.988 8.16 62.74 7.68 64.004 7.68ZM74.5623 5.824V4.8H76.8183V16H74.5143V8.752C74.3383 8.8 74.1463 8.816 73.9062 8.816H72.0343V6.912H73.6983C74.3383 6.912 74.5623 6.48 74.5623 5.824ZM78.3413 10.656V10.144C78.3413 6.8 80.2453 4.704 82.9493 4.704C85.6693 4.704 87.5733 6.8 87.5733 10.144V10.656C87.5733 14.064 85.6693 16.096 82.9493 16.096C80.2453 16.096 78.3413 14.064 78.3413 10.656ZM85.2693 10.576V10.224C85.2693 7.92 84.3253 6.656 82.9493 6.656C81.5893 6.656 80.6453 7.92 80.6453 10.224V10.576C80.6453 12.896 81.5893 14.144 82.9493 14.144C84.3253 14.144 85.2693 12.896 85.2693 10.576ZM87.9521 14.768C87.9521 13.984 88.5281 13.424 89.3121 13.424C90.0801 13.424 90.6721 13.984 90.6721 14.768C90.6721 15.536 90.0801 16.096 89.3121 16.096C88.5281 16.096 87.9521 15.536 87.9521 14.768ZM96.0613 8.368C98.3173 8.368 99.8373 9.92 99.8373 12.208C99.8373 14.784 97.9173 16.096 95.5973 16.096C93.0053 16.096 91.4053 14.448 91.3092 12.4H93.5973C93.7093 13.408 94.4133 14.208 95.6133 14.208C96.5893 14.208 97.5173 13.536 97.5173 12.208C97.5173 11.024 96.7653 10.192 95.5973 10.192C94.9733 10.192 94.1093 10.432 93.7093 11.36H91.4853L91.8053 4.8H99.1653V6.736H93.9013L93.7733 9.184C94.3333 8.672 95.0693 8.368 96.0613 8.368ZM105.046 11.616C105.046 10.7413 105.126 9.888 105.286 9.056C105.457 8.224 105.718 7.42933 106.07 6.672C106.422 5.91467 106.865 5.216 107.398 4.576H108.726C108.236 5.23733 107.82 5.952 107.478 6.72C107.148 7.488 106.897 8.28267 106.726 9.104C106.556 9.92533 106.47 10.7573 106.47 11.6C106.47 12.4213 106.556 13.2373 106.726 14.048C106.897 14.8587 107.148 15.6373 107.478 16.384C107.809 17.1413 108.22 17.856 108.71 18.528H107.398C106.865 17.8987 106.422 17.2107 106.07 16.464C105.718 15.728 105.457 14.9493 105.286 14.128C105.126 13.3067 105.046 12.4693 105.046 11.616ZM111.651 16H110.291V4.8H111.571L117.587 13.44V4.8H118.947V16H117.667L111.651 7.36V16ZM124.687 16.096C122.303 16.096 120.639 14.4 120.639 11.92C120.639 9.44 122.303 7.744 124.687 7.744C127.071 7.744 128.735 9.44 128.735 11.92C128.735 14.4 127.071 16.096 124.687 16.096ZM124.687 14.928C126.303 14.928 127.391 13.664 127.391 11.92C127.391 10.176 126.303 8.912 124.687 8.912C123.071 8.912 121.983 10.176 121.983 11.92C121.983 13.664 123.071 14.928 124.687 14.928ZM133.504 11.616C133.504 12.4693 133.418 13.3067 133.248 14.128C133.088 14.9493 132.832 15.728 132.48 16.464C132.138 17.2107 131.696 17.8987 131.152 18.528H129.84C130.33 17.856 130.741 17.1413 131.072 16.384C131.402 15.6373 131.653 14.8587 131.824 14.048C131.994 13.2373 132.08 12.4213 132.08 11.6C132.08 10.7573 131.994 9.92533 131.824 9.104C131.653 8.28267 131.402 7.488 131.072 6.72C130.741 5.952 130.325 5.23733 129.824 4.576H131.152C131.696 5.216 132.138 5.91467 132.48 6.672C132.832 7.42933 133.088 8.224 133.248 9.056C133.418 9.888 133.504 10.7413 133.504 11.616Z" fill="#131313"/>
<path d="M348.033 5.375L348.033 6.75L346.715 6.75L346.715 5.375L348.033 5.375Z" fill="#131313"/>
<path d="M334.85 5.375L334.85 6.75L333.532 6.75L333.532 5.375L334.85 5.375Z" fill="#131313"/>
<path d="M346.715 4L346.715 5.375L345.397 5.375L345.397 4L346.715 4Z" fill="#131313"/>
<path d="M336.169 4L336.169 5.375L334.85 5.375L334.85 4L336.169 4Z" fill="#131313"/>
<path d="M346.715 5.375L346.715 6.75L345.397 6.75L345.397 5.375L346.715 5.375Z" fill="#131313"/>
<path d="M336.169 5.375L336.169 6.75L334.85 6.75L334.85 5.375L336.169 5.375Z" fill="#131313"/>
<path d="M345.397 5.375L345.397 6.75L344.079 6.75L344.079 5.375L345.397 5.375Z" fill="#131313"/>
<path d="M337.487 5.375L337.487 6.75L336.169 6.75L336.169 5.375L337.487 5.375Z" fill="#131313"/>
<path d="M346.715 6.75L346.715 8.125L345.397 8.125L345.397 6.75L346.715 6.75Z" fill="#131313"/>
<path d="M336.169 6.75L336.169 8.125L334.85 8.125L334.85 6.75L336.169 6.75Z" fill="#131313"/>
<path d="M345.397 6.75L345.397 8.125L344.079 8.125L344.079 6.75L345.397 6.75Z" fill="#131313"/>
<path d="M337.487 6.75L337.487 8.125L336.169 8.125L336.169 6.75L337.487 6.75Z" fill="#131313"/>
<path d="M344.079 6.75L344.079 8.125L342.76 8.125L342.76 6.75L344.079 6.75Z" fill="#131313"/>
<path d="M346.715 8.125L346.715 9.5L345.397 9.5L345.397 8.125L346.715 8.125Z" fill="#131313"/>
<path d="M336.169 8.125L336.169 9.5L334.85 9.5L334.85 8.125L336.169 8.125Z" fill="#131313"/>
<path d="M345.397 8.125L345.397 9.5L344.079 9.5L344.079 8.125L345.397 8.125Z" fill="#131313"/>
<path d="M337.487 8.125L337.487 9.5L336.169 9.5L336.169 8.125L337.487 8.125Z" fill="#131313"/>
<path d="M344.079 8.125L344.079 9.5L342.76 9.5L342.76 8.125L344.079 8.125Z" fill="#131313"/>
<path d="M342.76 8.125L342.76 9.5L341.442 9.5L341.442 8.125L342.76 8.125Z" fill="#131313"/>
<path d="M340.124 8.125L340.124 9.5L338.805 9.5L338.805 8.125L340.124 8.125Z" fill="#131313"/>
<path d="M338.805 8.125L338.805 9.5L337.487 9.5L337.487 8.125L338.805 8.125Z" fill="#131313"/>
<path d="M338.805 6.75L338.805 8.125L337.487 8.125L337.487 6.75L338.805 6.75Z" fill="#131313"/>
<path d="M345.397 9.5L345.397 10.875L344.079 10.875L344.079 9.5L345.397 9.5Z" fill="#131313"/>
<path d="M337.487 9.5L337.487 10.875L336.169 10.875L336.169 9.5L337.487 9.5Z" fill="#131313"/>
<path d="M344.079 9.5L344.079 10.875L342.76 10.875L342.76 9.5L344.079 9.5Z" fill="#131313"/>
<path d="M342.76 9.5L342.76 10.875L341.442 10.875L341.442 9.5L342.76 9.5Z" fill="#131313"/>
<path d="M340.124 9.5L340.124 10.875L338.805 10.875L338.805 9.5L340.124 9.5Z" fill="#131313"/>
<path d="M338.805 9.5L338.805 10.875L337.487 10.875L337.487 9.5L338.805 9.5Z" fill="#131313"/>
<path d="M341.442 9.5L341.442 10.875L340.124 10.875L340.124 9.5L341.442 9.5Z" fill="#131313"/>
<path d="M344.079 10.875L344.079 12.25L342.76 12.25L342.76 10.875L344.079 10.875Z" fill="#131313"/>
<path d="M342.76 10.875L342.76 12.25L341.442 12.25L341.442 10.875L342.76 10.875Z" fill="#131313"/>
<path d="M340.124 10.875L340.124 12.25L338.805 12.25L338.805 10.875L340.124 10.875Z" fill="#131313"/>
<path d="M338.805 10.875L338.805 12.25L337.487 12.25L337.487 10.875L338.805 10.875Z" fill="#131313"/>
<path d="M341.442 10.875L341.442 12.25L340.124 12.25L340.124 10.875L341.442 10.875Z" fill="#131313"/>
<path d="M342.76 12.25L342.76 13.625L341.442 13.625L341.442 12.25L342.76 12.25Z" fill="#131313"/>
<path d="M341.442 13.625L341.442 15L340.124 15L340.124 13.625L341.442 13.625Z" fill="#131313"/>
<path d="M341.442 12.25L341.442 13.625L340.124 13.625L340.124 12.25L341.442 12.25Z" fill="#131313"/>
<path d="M340.124 12.25L340.124 13.625L338.805 13.625L338.805 12.25L340.124 12.25Z" fill="#131313"/>
<path d="M348.033 6.75L348.033 8.125L346.715 8.125L346.715 6.75L348.033 6.75Z" fill="#131313"/>
<path d="M334.85 6.75L334.85 8.125L333.532 8.125L333.532 6.75L334.85 6.75Z" fill="#131313"/>
<rect x="0.5" y="32.5" width="70" height="29" fill="#FD9DAF"/>
<rect x="0.5" y="32.5" width="70" height="29" stroke="#131313"/>
<path d="M11.5059 48.38L8.42188 43.1H10.5219L12.4059 46.544L14.3859 43.1H16.3899L13.3059 48.38V51.5H11.5059V48.38ZM18.9251 51.572C16.8731 51.572 15.6371 50.336 15.6371 48.428C15.6371 46.508 16.8971 45.26 18.8051 45.26C20.6531 45.26 21.9011 46.412 21.9251 48.224C21.9251 48.404 21.9131 48.608 21.8771 48.8H17.4011V48.884C17.4371 49.76 18.0011 50.288 18.8531 50.288C19.5371 50.288 20.0171 49.988 20.1611 49.412H21.8291C21.6371 50.612 20.5691 51.572 18.9251 51.572ZM17.4371 47.696H20.2211C20.1011 46.94 19.5851 46.52 18.8171 46.52C18.0851 46.52 17.5331 46.964 17.4371 47.696ZM22.5148 49.448H24.1228C24.1828 49.988 24.6508 50.36 25.4788 50.36C26.1868 50.36 26.6188 50.132 26.6188 49.7C26.6188 49.196 26.1988 49.16 25.2028 49.028C23.7628 48.86 22.6468 48.536 22.6468 47.264C22.6468 46.04 23.7148 45.236 25.2988 45.248C26.9548 45.248 28.0948 45.98 28.1788 47.24H26.5588C26.5108 46.748 26.0428 46.448 25.3588 46.448C24.6988 46.448 24.2668 46.688 24.2668 47.084C24.2668 47.552 24.7948 47.6 25.6828 47.708C27.0988 47.852 28.2748 48.176 28.2748 49.568C28.2748 50.792 27.1228 51.572 25.4668 51.572C23.7508 51.572 22.5868 50.768 22.5148 49.448Z" fill="#131313"/>
<path d="M39.2618 44.012V43.1H40.2458V51.5H39.2378V45.476C39.1178 45.584 38.9258 45.632 38.6618 45.632H37.3058V44.732H38.6738C39.0698 44.732 39.2618 44.432 39.2618 44.012ZM44.4741 51.572C42.9501 51.572 41.9061 50.66 41.7021 49.256H42.7101C42.9021 50.108 43.5021 50.684 44.5221 50.684C45.9861 50.684 46.7901 49.352 46.7901 47.456C46.7901 47.336 46.7901 47.252 46.7781 47.048C46.7661 47.096 46.7541 47.168 46.7061 47.276C46.3341 48.104 45.4941 48.656 44.3661 48.656C42.7101 48.656 41.5461 47.564 41.5461 45.848C41.5461 44.228 42.7341 43.028 44.4621 43.028C45.6261 43.028 46.4781 43.556 47.0061 44.42C47.4261 45.152 47.6661 46.16 47.6661 47.264C47.6661 49.904 46.4781 51.572 44.4741 51.572ZM44.4381 47.768C45.6021 47.768 46.3941 46.976 46.3941 45.824C46.3941 44.696 45.6261 43.916 44.4741 43.916C43.3101 43.916 42.5541 44.72 42.5541 45.848C42.5541 46.964 43.2741 47.768 44.4381 47.768ZM48.1809 50.9C48.1809 50.492 48.4689 50.228 48.8649 50.228C49.2609 50.228 49.5489 50.492 49.5489 50.9C49.5489 51.308 49.2609 51.572 48.8649 51.572C48.4689 51.572 48.1809 51.308 48.1809 50.9ZM53.064 51.572C51.54 51.572 50.496 50.66 50.292 49.256H51.3C51.492 50.108 52.092 50.684 53.112 50.684C54.576 50.684 55.38 49.352 55.38 47.456C55.38 47.336 55.38 47.252 55.368 47.048C55.356 47.096 55.344 47.168 55.296 47.276C54.924 48.104 54.084 48.656 52.956 48.656C51.3 48.656 50.136 47.564 50.136 45.848C50.136 44.228 51.324 43.028 53.052 43.028C54.216 43.028 55.068 43.556 55.596 44.42C56.016 45.152 56.256 46.16 56.256 47.264C56.256 49.904 55.068 51.572 53.064 51.572ZM53.028 47.768C54.192 47.768 54.984 46.976 54.984 45.824C54.984 44.696 54.216 43.916 53.064 43.916C51.9 43.916 51.144 44.72 51.144 45.848C51.144 46.964 51.864 47.768 53.028 47.768ZM59.1095 42.812C59.7015 42.812 60.1495 43.048 60.4535 43.52C60.7575 43.984 60.9095 44.64 60.9095 45.488C60.9095 46.336 60.7615 47 60.4655 47.48C60.1775 47.952 59.7255 48.188 59.1095 48.188C58.7335 48.188 58.4135 48.08 58.1495 47.864C57.8855 47.648 57.6855 47.34 57.5495 46.94C57.4215 46.532 57.3575 46.048 57.3575 45.488C57.3575 44.64 57.4975 43.984 57.7775 43.52C58.0575 43.048 58.5015 42.812 59.1095 42.812ZM59.1095 43.556C58.8055 43.556 58.5815 43.72 58.4375 44.048C58.3015 44.368 58.2335 44.848 58.2335 45.488C58.2335 46.128 58.3015 46.612 58.4375 46.94C58.5815 47.268 58.8055 47.432 59.1095 47.432C59.4215 47.432 59.6535 47.272 59.8055 46.952C59.9575 46.624 60.0335 46.136 60.0335 45.488C60.0335 44.848 59.9575 44.368 59.8055 44.048C59.6535 43.72 59.4215 43.556 59.1095 43.556ZM64.5935 42.932L59.8415 51.5H58.9175L63.6695 42.932H64.5935ZM64.3535 46.244C64.7455 46.244 65.0735 46.352 65.3375 46.568C65.6015 46.776 65.8015 47.08 65.9375 47.48C66.0815 47.872 66.1535 48.352 66.1535 48.92C66.1535 49.768 66.0055 50.432 65.7095 50.912C65.4215 51.384 64.9695 51.62 64.3535 51.62C63.9775 51.62 63.6575 51.512 63.3935 51.296C63.1295 51.08 62.9295 50.772 62.7935 50.372C62.6655 49.964 62.6015 49.48 62.6015 48.92C62.6015 48.072 62.7415 47.416 63.0215 46.952C63.3015 46.48 63.7455 46.244 64.3535 46.244ZM64.3535 47C64.0495 47 63.8255 47.16 63.6815 47.48C63.5455 47.8 63.4775 48.28 63.4775 48.92C63.4775 49.568 63.5455 50.056 63.6815 50.384C63.8255 50.704 64.0495 50.864 64.3535 50.864C64.6655 50.864 64.8975 50.704 65.0495 50.384C65.2015 50.064 65.2775 49.576 65.2775 48.92C65.2775 48.28 65.2015 47.8 65.0495 47.48C64.8975 47.16 64.6655 47 64.3535 47Z" fill="#131313"/>
<mask id="path-6-inside-1_111_8685" fill="white">
<path d="M71 32H349V62H71V32Z"/>
</mask>
<path d="M71 32H349V62H71V32Z" fill="#DCECA1"/>
<path d="M349 32H350V31H349V32ZM349 62V63H350V62H349ZM71 33H349V31H71V33ZM348 32V62H350V32H348ZM349 61H71V63H349V61Z" fill="#131313" mask="url(#path-6-inside-1_111_8685)"/>
<path d="M81.6852 51.5H79.9212V43.1H81.5532L85.1172 48.392V43.1H86.8932V51.5H85.2492L81.6852 46.208V51.5ZM91.2035 51.572C89.2355 51.572 87.9515 50.312 87.9515 48.416C87.9515 46.52 89.2355 45.26 91.2035 45.26C93.1715 45.26 94.4555 46.52 94.4555 48.416C94.4555 50.324 93.1715 51.572 91.2035 51.572ZM91.2035 50.192C92.1515 50.192 92.7395 49.46 92.7395 48.416C92.7395 47.372 92.1515 46.64 91.2035 46.64C90.2555 46.64 89.6795 47.372 89.6795 48.416C89.6795 49.46 90.2555 50.192 91.2035 50.192Z" fill="#131313"/>
<path d="M108.231 47.156C109.167 47.372 109.911 48.092 109.911 49.244C109.911 50.6 108.747 51.572 106.851 51.572C104.955 51.572 103.791 50.6 103.791 49.244C103.791 48.104 104.523 47.372 105.471 47.156C104.667 46.976 104.031 46.268 104.031 45.26C104.031 43.94 105.135 43.028 106.851 43.028C108.567 43.028 109.671 43.94 109.671 45.26C109.671 46.22 109.047 46.976 108.231 47.156ZM105.063 45.26C105.063 46.088 105.771 46.64 106.851 46.64C107.931 46.64 108.639 46.088 108.639 45.26C108.639 44.444 107.931 43.892 106.851 43.892C105.771 43.892 105.063 44.444 105.063 45.26ZM106.851 50.708C108.051 50.708 108.879 50.072 108.879 49.172C108.879 48.284 108.051 47.648 106.851 47.648C105.651 47.648 104.823 48.284 104.823 49.172C104.823 50.072 105.663 50.708 106.851 50.708ZM110.905 47.492V47.108C110.905 44.72 112.201 43.028 114.097 43.028C115.981 43.028 117.277 44.72 117.277 47.108V47.492C117.277 50 115.981 51.572 114.097 51.572C112.201 51.572 110.905 50 110.905 47.492ZM116.257 47.456V47.144C116.257 45.152 115.393 43.952 114.097 43.952C112.789 43.952 111.925 45.152 111.925 47.144V47.456C111.925 49.448 112.789 50.648 114.097 50.648C115.393 50.648 116.257 49.448 116.257 47.456ZM117.749 50.9C117.749 50.492 118.037 50.228 118.433 50.228C118.829 50.228 119.117 50.492 119.117 50.9C119.117 51.308 118.829 51.572 118.433 51.572C118.037 51.572 117.749 51.308 117.749 50.9ZM120.9 44.012V43.1H121.884V51.5H120.876V45.476C120.756 45.584 120.564 45.632 120.3 45.632H118.944V44.732H120.312C120.708 44.732 120.9 44.432 120.9 44.012ZM125.057 42.812C125.649 42.812 126.097 43.048 126.401 43.52C126.705 43.984 126.857 44.64 126.857 45.488C126.857 46.336 126.709 47 126.413 47.48C126.125 47.952 125.673 48.188 125.057 48.188C124.681 48.188 124.361 48.08 124.097 47.864C123.833 47.648 123.633 47.34 123.497 46.94C123.369 46.532 123.305 46.048 123.305 45.488C123.305 44.64 123.445 43.984 123.725 43.52C124.005 43.048 124.449 42.812 125.057 42.812ZM125.057 43.556C124.753 43.556 124.529 43.72 124.385 44.048C124.249 44.368 124.181 44.848 124.181 45.488C124.181 46.128 124.249 46.612 124.385 46.94C124.529 47.268 124.753 47.432 125.057 47.432C125.369 47.432 125.601 47.272 125.753 46.952C125.905 46.624 125.981 46.136 125.981 45.488C125.981 44.848 125.905 44.368 125.753 44.048C125.601 43.72 125.369 43.556 125.057 43.556ZM130.541 42.932L125.789 51.5H124.865L129.617 42.932H130.541ZM130.301 46.244C130.693 46.244 131.021 46.352 131.285 46.568C131.549 46.776 131.749 47.08 131.885 47.48C132.029 47.872 132.101 48.352 132.101 48.92C132.101 49.768 131.953 50.432 131.657 50.912C131.369 51.384 130.917 51.62 130.301 51.62C129.925 51.62 129.605 51.512 129.341 51.296C129.077 51.08 128.877 50.772 128.741 50.372C128.613 49.964 128.549 49.48 128.549 48.92C128.549 48.072 128.689 47.416 128.969 46.952C129.249 46.48 129.693 46.244 130.301 46.244ZM130.301 47C129.997 47 129.773 47.16 129.629 47.48C129.493 47.8 129.425 48.28 129.425 48.92C129.425 49.568 129.493 50.056 129.629 50.384C129.773 50.704 129.997 50.864 130.301 50.864C130.613 50.864 130.845 50.704 130.997 50.384C131.149 50.064 131.225 49.576 131.225 48.92C131.225 48.28 131.149 47.8 130.997 47.48C130.845 47.16 130.613 47 130.301 47Z" fill="#131313"/>
</svg>
