<svg width="349" height="62" viewBox="0 0 349 62" fill="none" xmlns="http://www.w3.org/2000/svg">
<path d="M10.928 13.936H12.032V16H10.88C9.92 16 9.52 15.728 9.136 15.248C8.288 15.792 7.232 16.096 6.064 16.096C2.768 16.096 0.512 13.664 0.512 10.4C0.512 7.136 2.768 4.704 6.064 4.704C9.36 4.704 11.616 7.136 11.616 10.4C11.616 11.728 11.248 12.928 10.576 13.872C10.672 13.904 10.784 13.936 10.928 13.936ZM2.96 10.4C2.96 12.512 4.176 14.064 6.064 14.064C6.72 14.064 7.296 13.872 7.776 13.536L7.616 13.344C7.376 13.024 7.168 12.848 6.816 12.848H5.776V10.816H6.992C7.936 10.816 8.256 11.152 8.64 11.632L8.896 11.952C9.072 11.488 9.152 10.96 9.152 10.4C9.152 8.288 7.936 6.736 6.064 6.736C4.176 6.736 2.96 8.288 2.96 10.4ZM18.4908 11.888V7.776H20.7468V16H18.7468L18.5388 15.008C18.0108 15.648 17.2908 16.096 16.1228 16.096C14.4268 16.096 12.8588 15.248 12.8588 12.336V7.776H15.1148V12.032C15.1148 13.504 15.5948 14.224 16.7148 14.224C17.8348 14.224 18.4908 13.408 18.4908 11.888ZM26.3793 16.096C23.6432 16.096 21.9953 14.448 21.9953 11.904C21.9953 9.344 23.6753 7.68 26.2193 7.68C28.6833 7.68 30.3472 9.216 30.3793 11.632C30.3793 11.872 30.3633 12.144 30.3153 12.4H24.3473V12.512C24.3953 13.68 25.1473 14.384 26.2833 14.384C27.1953 14.384 27.8353 13.984 28.0273 13.216H30.2513C29.9953 14.816 28.5713 16.096 26.3793 16.096ZM24.3953 10.928H28.1073C27.9473 9.92 27.2593 9.36 26.2352 9.36C25.2593 9.36 24.5233 9.952 24.3953 10.928ZM31.1656 13.264H33.3096C33.3896 13.984 34.0136 14.48 35.1176 14.48C36.0616 14.48 36.6376 14.176 36.6376 13.6C36.6376 12.928 36.0776 12.88 34.7496 12.704C32.8296 12.48 31.3416 12.048 31.3416 10.352C31.3416 8.72 32.7656 7.648 34.8776 7.664C37.0856 7.664 38.6056 8.64 38.7176 10.32H36.5576C36.4936 9.664 35.8696 9.264 34.9576 9.264C34.0776 9.264 33.5016 9.584 33.5016 10.112C33.5016 10.736 34.2056 10.8 35.3896 10.944C37.2776 11.136 38.8456 11.568 38.8456 13.424C38.8456 15.056 37.3096 16.096 35.1016 16.096C32.8136 16.096 31.2616 15.024 31.1656 13.264ZM40.626 13.648V9.68H39.266V7.776H40.626V5.472H42.882V7.776H44.77V9.68H42.882V13.28C42.882 13.856 43.106 14.096 43.698 14.096H44.818V16H42.978C41.41 16 40.626 15.216 40.626 13.648ZM46.9981 6.896C46.2621 6.896 45.6861 6.352 45.6861 5.632C45.6861 4.896 46.2621 4.352 46.9981 4.352C47.7341 4.352 48.3101 4.896 48.3101 5.632C48.3101 6.352 47.7341 6.896 46.9981 6.896ZM45.8621 16V7.776H48.1341V16H45.8621ZM53.7063 16.096C51.0823 16.096 49.3703 14.416 49.3703 11.888C49.3703 9.36 51.0823 7.68 53.7063 7.68C56.3303 7.68 58.0423 9.36 58.0423 11.888C58.0423 14.432 56.3303 16.096 53.7063 16.096ZM53.7063 14.256C54.9703 14.256 55.7543 13.28 55.7543 11.888C55.7543 10.496 54.9703 9.52 53.7063 9.52C52.4423 9.52 51.6743 10.496 51.6743 11.888C51.6743 13.28 52.4423 14.256 53.7063 14.256ZM64.004 7.68C65.78 7.68 67.3 8.624 67.3 11.44V16H65.044V11.664C65.044 10.272 64.516 9.536 63.38 9.536C62.212 9.536 61.54 10.368 61.54 11.792V16H59.284V7.776H61.252L61.46 8.8C61.988 8.16 62.74 7.68 64.004 7.68ZM72.1303 13.6V11.696L77.0743 4.8H79.8743V11.68H81.4263V13.6H79.8743V16H77.6183V13.6H72.1303ZM77.6183 7.088L74.3383 11.68H77.6183V7.088ZM82.0615 14.768C82.0615 13.984 82.6375 13.424 83.4215 13.424C84.1895 13.424 84.7815 13.984 84.7815 14.768C84.7815 15.536 84.1895 16.096 83.4215 16.096C82.6375 16.096 82.0615 15.536 82.0615 14.768ZM90.1706 8.368C92.4266 8.368 93.9466 9.92 93.9466 12.208C93.9466 14.784 92.0266 16.096 89.7066 16.096C87.1146 16.096 85.5146 14.448 85.4186 12.4H87.7066C87.8186 13.408 88.5226 14.208 89.7226 14.208C90.6986 14.208 91.6266 13.536 91.6266 12.208C91.6266 11.024 90.8746 10.192 89.7066 10.192C89.0826 10.192 88.2186 10.432 87.8186 11.36H85.5946L85.9146 4.8H93.2746V6.736H88.0106L87.8826 9.184C88.4426 8.672 89.1786 8.368 90.1706 8.368ZM98.9369 11.616C98.9369 10.7413 99.0169 9.888 99.1769 9.056C99.3475 8.224 99.6089 7.42933 99.9609 6.672C100.313 5.91467 100.756 5.216 101.289 4.576H102.617C102.126 5.23733 101.71 5.952 101.369 6.72C101.038 7.488 100.788 8.28267 100.617 9.104C100.446 9.92533 100.361 10.7573 100.361 11.6C100.361 12.4213 100.446 13.2373 100.617 14.048C100.788 14.8587 101.038 15.6373 101.369 16.384C101.7 17.1413 102.11 17.856 102.601 18.528H101.289C100.756 17.8987 100.313 17.2107 99.9609 16.464C99.6089 15.728 99.3475 14.9493 99.1769 14.128C99.0169 13.3067 98.9369 12.4693 98.9369 11.616ZM107.462 11.856L103.238 4.8H104.87L108.166 10.352L111.51 4.8H113.078L108.854 11.856V16H107.462V11.856ZM116.484 16.096C114.036 16.096 112.436 14.416 112.436 11.92C112.436 9.44 114.004 7.744 116.308 7.744C118.612 7.744 120.116 9.2 120.18 11.616C120.18 11.792 120.164 11.984 120.148 12.176H113.812V12.288C113.86 13.84 114.836 14.928 116.388 14.928C117.54 14.928 118.436 14.32 118.708 13.264H120.036C119.716 14.896 118.372 16.096 116.484 16.096ZM113.892 11.088H118.772C118.644 9.68 117.684 8.896 116.324 8.896C115.124 8.896 114.02 9.76 113.892 11.088ZM121.31 13.312H122.654C122.702 14.272 123.55 14.976 124.91 14.976C126.062 14.976 126.878 14.48 126.878 13.728C126.878 12.704 125.982 12.624 124.766 12.48C122.942 12.256 121.486 11.888 121.486 10.192C121.486 8.704 122.846 7.728 124.686 7.744C126.542 7.76 127.886 8.624 128.014 10.32H126.67C126.574 9.488 125.806 8.864 124.686 8.864C123.55 8.864 122.782 9.344 122.782 10.096C122.782 10.992 123.646 11.104 124.83 11.248C126.686 11.472 128.174 11.824 128.174 13.632C128.174 15.152 126.718 16.096 124.91 16.096C122.798 16.096 121.342 15.104 121.31 13.312ZM132.894 11.616C132.894 12.4693 132.809 13.3067 132.638 14.128C132.478 14.9493 132.222 15.728 131.87 16.464C131.529 17.2107 131.086 17.8987 130.542 18.528H129.23C129.721 17.856 130.132 17.1413 130.462 16.384C130.793 15.6373 131.044 14.8587 131.214 14.048C131.385 13.2373 131.47 12.4213 131.47 11.6C131.47 10.7573 131.385 9.92533 131.214 9.104C131.044 8.28267 130.793 7.488 130.462 6.72C130.132 5.952 129.716 5.23733 129.214 4.576H130.542C131.086 5.216 131.529 5.91467 131.87 6.672C132.222 7.42933 132.478 8.224 132.638 9.056C132.809 9.888 132.894 10.7413 132.894 11.616Z" fill="#131313"/>
<path d="M333.531 13.625L333.531 12.25L334.85 12.25L334.85 13.625L333.531 13.625Z" fill="#131313"/>
<path d="M346.714 13.625L346.714 12.25L348.033 12.25L348.033 13.625L346.714 13.625Z" fill="#131313"/>
<path d="M334.85 15L334.85 13.625L336.168 13.625L336.168 15L334.85 15Z" fill="#131313"/>
<path d="M345.396 15L345.396 13.625L346.714 13.625L346.714 15L345.396 15Z" fill="#131313"/>
<path d="M334.85 13.625L334.85 12.25L336.168 12.25L336.168 13.625L334.85 13.625Z" fill="#131313"/>
<path d="M345.396 13.625L345.396 12.25L346.714 12.25L346.714 13.625L345.396 13.625Z" fill="#131313"/>
<path d="M336.168 13.625L336.168 12.25L337.486 12.25L337.486 13.625L336.168 13.625Z" fill="#131313"/>
<path d="M344.078 13.625L344.078 12.25L345.396 12.25L345.396 13.625L344.078 13.625Z" fill="#131313"/>
<path d="M334.85 12.25L334.85 10.875L336.168 10.875L336.168 12.25L334.85 12.25Z" fill="#131313"/>
<path d="M345.396 12.25L345.396 10.875L346.714 10.875L346.714 12.25L345.396 12.25Z" fill="#131313"/>
<path d="M336.168 12.25L336.168 10.875L337.486 10.875L337.486 12.25L336.168 12.25Z" fill="#131313"/>
<path d="M344.078 12.25L344.078 10.875L345.396 10.875L345.396 12.25L344.078 12.25Z" fill="#131313"/>
<path d="M337.486 12.25L337.486 10.875L338.804 10.875L338.804 12.25L337.486 12.25Z" fill="#131313"/>
<path d="M334.85 10.875L334.85 9.5L336.168 9.5L336.168 10.875L334.85 10.875Z" fill="#131313"/>
<path d="M345.396 10.875L345.396 9.5L346.714 9.5L346.714 10.875L345.396 10.875Z" fill="#131313"/>
<path d="M336.168 10.875L336.168 9.5L337.486 9.5L337.486 10.875L336.168 10.875Z" fill="#131313"/>
<path d="M344.078 10.875L344.078 9.5L345.396 9.5L345.396 10.875L344.078 10.875Z" fill="#131313"/>
<path d="M337.486 10.875L337.486 9.5L338.804 9.5L338.804 10.875L337.486 10.875Z" fill="#131313"/>
<path d="M338.804 10.875L338.804 9.5L340.123 9.5L340.123 10.875L338.804 10.875Z" fill="#131313"/>
<path d="M341.441 10.875L341.441 9.5L342.759 9.5L342.759 10.875L341.441 10.875Z" fill="#131313"/>
<path d="M342.759 10.875L342.759 9.5L344.078 9.5L344.078 10.875L342.759 10.875Z" fill="#131313"/>
<path d="M342.759 12.25L342.759 10.875L344.078 10.875L344.078 12.25L342.759 12.25Z" fill="#131313"/>
<path d="M336.168 9.5L336.168 8.125L337.486 8.125L337.486 9.5L336.168 9.5Z" fill="#131313"/>
<path d="M344.078 9.5L344.078 8.125L345.396 8.125L345.396 9.5L344.078 9.5Z" fill="#131313"/>
<path d="M337.486 9.5L337.486 8.125L338.804 8.125L338.804 9.5L337.486 9.5Z" fill="#131313"/>
<path d="M338.804 9.5L338.804 8.125L340.123 8.125L340.123 9.5L338.804 9.5Z" fill="#131313"/>
<path d="M341.441 9.5L341.441 8.125L342.759 8.125L342.759 9.5L341.441 9.5Z" fill="#131313"/>
<path d="M342.759 9.5L342.759 8.125L344.078 8.125L344.078 9.5L342.759 9.5Z" fill="#131313"/>
<path d="M340.123 9.5L340.123 8.125L341.441 8.125L341.441 9.5L340.123 9.5Z" fill="#131313"/>
<path d="M337.486 8.125L337.486 6.75L338.804 6.75L338.804 8.125L337.486 8.125Z" fill="#131313"/>
<path d="M338.804 8.125L338.804 6.75L340.123 6.75L340.123 8.125L338.804 8.125Z" fill="#131313"/>
<path d="M341.441 8.125L341.441 6.75L342.759 6.75L342.759 8.125L341.441 8.125Z" fill="#131313"/>
<path d="M342.759 8.125L342.759 6.75L344.078 6.75L344.078 8.125L342.759 8.125Z" fill="#131313"/>
<path d="M340.123 8.125L340.123 6.75L341.441 6.75L341.441 8.125L340.123 8.125Z" fill="#131313"/>
<path d="M338.804 6.75L338.804 5.375L340.123 5.375L340.123 6.75L338.804 6.75Z" fill="#131313"/>
<path d="M340.123 5.375L340.123 4L341.441 4L341.441 5.375L340.123 5.375Z" fill="#131313"/>
<path d="M340.123 6.75L340.123 5.375L341.441 5.375L341.441 6.75L340.123 6.75Z" fill="#131313"/>
<path d="M341.441 6.75L341.441 5.375L342.759 5.375L342.759 6.75L341.441 6.75Z" fill="#131313"/>
<path d="M333.531 12.25L333.531 10.875L334.85 10.875L334.85 12.25L333.531 12.25Z" fill="#131313"/>
<path d="M346.714 12.25L346.714 10.875L348.033 10.875L348.033 12.25L346.714 12.25Z" fill="#131313"/>
<rect x="0.5" y="32.5" width="209" height="29" fill="#FD9DAF"/>
<rect x="0.5" y="32.5" width="209" height="29" stroke="#131313"/>
<path d="M11.5059 48.38L8.42188 43.1H10.5219L12.4059 46.544L14.3859 43.1H16.3899L13.3059 48.38V51.5H11.5059V48.38ZM18.9251 51.572C16.8731 51.572 15.6371 50.336 15.6371 48.428C15.6371 46.508 16.8971 45.26 18.8051 45.26C20.6531 45.26 21.9011 46.412 21.9251 48.224C21.9251 48.404 21.9131 48.608 21.8771 48.8H17.4011V48.884C17.4371 49.76 18.0011 50.288 18.8531 50.288C19.5371 50.288 20.0171 49.988 20.1611 49.412H21.8291C21.6371 50.612 20.5691 51.572 18.9251 51.572ZM17.4371 47.696H20.2211C20.1011 46.94 19.5851 46.52 18.8171 46.52C18.0851 46.52 17.5331 46.964 17.4371 47.696ZM22.5148 49.448H24.1228C24.1828 49.988 24.6508 50.36 25.4788 50.36C26.1868 50.36 26.6188 50.132 26.6188 49.7C26.6188 49.196 26.1988 49.16 25.2028 49.028C23.7628 48.86 22.6468 48.536 22.6468 47.264C22.6468 46.04 23.7148 45.236 25.2988 45.248C26.9548 45.248 28.0948 45.98 28.1788 47.24H26.5588C26.5108 46.748 26.0428 46.448 25.3588 46.448C24.6988 46.448 24.2668 46.688 24.2668 47.084C24.2668 47.552 24.7948 47.6 25.6828 47.708C27.0988 47.852 28.2748 48.176 28.2748 49.568C28.2748 50.792 27.1228 51.572 25.4668 51.572C23.7508 51.572 22.5868 50.768 22.5148 49.448Z" fill="#131313"/>
<path d="M38.4455 50.18C38.0255 49.448 37.7855 48.44 37.7855 47.336C37.7855 44.696 38.9735 43.028 40.9775 43.028C42.5015 43.028 43.5455 43.94 43.7495 45.344H42.7415C42.5495 44.492 41.9495 43.916 40.9295 43.916C39.4655 43.916 38.6615 45.248 38.6615 47.144C38.6615 47.264 38.6615 47.348 38.6735 47.552C38.6855 47.504 38.6975 47.432 38.7455 47.324C39.1175 46.496 39.9575 45.944 41.0855 45.944C42.7415 45.944 43.9055 47.036 43.9055 48.752C43.9055 50.372 42.7175 51.572 40.9895 51.572C39.8255 51.572 38.9735 51.044 38.4455 50.18ZM42.8975 48.752C42.8975 47.636 42.1775 46.832 41.0135 46.832C39.8495 46.832 39.0575 47.624 39.0575 48.776C39.0575 49.904 39.8255 50.684 40.9775 50.684C42.1415 50.684 42.8975 49.88 42.8975 48.752ZM44.5271 49.448V48.548L48.8111 43.1H49.9391V48.524H51.2951V49.448H49.9391V51.5H48.9311V49.448H44.5271ZM48.9311 44.336L45.6551 48.524H48.9311V44.336ZM51.7786 50.9C51.7786 50.492 52.0666 50.228 52.4626 50.228C52.8586 50.228 53.1466 50.492 53.1466 50.9C53.1466 51.308 52.8586 51.572 52.4626 51.572C52.0666 51.572 51.7786 51.308 51.7786 50.9ZM53.7012 44.024V43.1H59.6292V43.808L55.5012 51.5H54.4092L58.5252 44.024H53.7012ZM62.0978 42.812C62.6898 42.812 63.1378 43.048 63.4418 43.52C63.7458 43.984 63.8978 44.64 63.8978 45.488C63.8978 46.336 63.7498 47 63.4538 47.48C63.1658 47.952 62.7138 48.188 62.0978 48.188C61.7218 48.188 61.4018 48.08 61.1378 47.864C60.8738 47.648 60.6738 47.34 60.5378 46.94C60.4098 46.532 60.3458 46.048 60.3458 45.488C60.3458 44.64 60.4858 43.984 60.7658 43.52C61.0458 43.048 61.4898 42.812 62.0978 42.812ZM62.0978 43.556C61.7938 43.556 61.5698 43.72 61.4258 44.048C61.2898 44.368 61.2218 44.848 61.2218 45.488C61.2218 46.128 61.2898 46.612 61.4258 46.94C61.5698 47.268 61.7938 47.432 62.0978 47.432C62.4098 47.432 62.6418 47.272 62.7938 46.952C62.9458 46.624 63.0218 46.136 63.0218 45.488C63.0218 44.848 62.9458 44.368 62.7938 44.048C62.6418 43.72 62.4098 43.556 62.0978 43.556ZM67.5818 42.932L62.8298 51.5H61.9058L66.6578 42.932H67.5818ZM67.3418 46.244C67.7338 46.244 68.0618 46.352 68.3258 46.568C68.5898 46.776 68.7898 47.08 68.9258 47.48C69.0698 47.872 69.1418 48.352 69.1418 48.92C69.1418 49.768 68.9938 50.432 68.6978 50.912C68.4098 51.384 67.9578 51.62 67.3418 51.62C66.9658 51.62 66.6458 51.512 66.3818 51.296C66.1178 51.08 65.9178 50.772 65.7818 50.372C65.6538 49.964 65.5898 49.48 65.5898 48.92C65.5898 48.072 65.7298 47.416 66.0098 46.952C66.2898 46.48 66.7338 46.244 67.3418 46.244ZM67.3418 47C67.0378 47 66.8138 47.16 66.6698 47.48C66.5338 47.8 66.4658 48.28 66.4658 48.92C66.4658 49.568 66.5338 50.056 66.6698 50.384C66.8138 50.704 67.0378 50.864 67.3418 50.864C67.6538 50.864 67.8858 50.704 68.0378 50.384C68.1898 50.064 68.2658 49.576 68.2658 48.92C68.2658 48.28 68.1898 47.8 68.0378 47.48C67.8858 47.16 67.6538 47 67.3418 47Z" fill="#131313"/>
<mask id="path-6-inside-1_538_2870" fill="white">
<path d="M210 32H349V62H210V32Z"/>
</mask>
<path d="M210 32H349V62H210V32Z" fill="#89CDFF"/>
<path d="M349 32H350V31H349V32ZM349 62V63H350V62H349ZM210 33H349V31H210V33ZM348 32V62H350V32H348ZM349 61H210V63H349V61Z" fill="#131313" mask="url(#path-6-inside-1_538_2870)"/>
<path d="M220.685 51.5H218.921V43.1H220.553L224.117 48.392V43.1H225.893V51.5H224.249L220.685 46.208V51.5ZM230.204 51.572C228.236 51.572 226.952 50.312 226.952 48.416C226.952 46.52 228.236 45.26 230.204 45.26C232.172 45.26 233.456 46.52 233.456 48.416C233.456 50.324 232.172 51.572 230.204 51.572ZM230.204 50.192C231.152 50.192 231.74 49.46 231.74 48.416C231.74 47.372 231.152 46.64 230.204 46.64C229.256 46.64 228.68 47.372 228.68 48.416C228.68 49.46 229.256 50.192 230.204 50.192Z" fill="#131313"/>
<path d="M247.116 47.132C247.884 47.276 248.688 47.888 248.688 49.172C248.688 50.6 247.488 51.572 245.664 51.572C243.84 51.572 242.664 50.576 242.664 48.908H243.66C243.672 50.012 244.536 50.672 245.724 50.672C246.816 50.672 247.656 50.06 247.656 49.1C247.656 48.224 246.936 47.66 245.628 47.66H244.908V46.784H245.568C246.816 46.784 247.44 46.16 247.44 45.308C247.44 44.456 246.672 43.928 245.664 43.928C244.608 43.928 243.84 44.564 243.828 45.524H242.832C242.844 44.048 243.996 43.028 245.652 43.028C247.38 43.028 248.472 43.928 248.472 45.248C248.472 46.304 247.92 46.916 247.116 47.132ZM252.832 45.872C254.476 45.872 255.616 47.024 255.616 48.692C255.616 50.552 254.248 51.56 252.676 51.56C250.804 51.56 249.724 50.348 249.64 48.884H250.636C250.732 49.856 251.464 50.66 252.676 50.66C253.66 50.66 254.584 50 254.584 48.704C254.584 47.564 253.852 46.76 252.688 46.76C252.172 46.76 251.14 46.904 250.78 47.9L249.808 47.876L250.084 43.1H255.112V44.024H251.008L250.816 46.676C251.332 46.064 252.052 45.872 252.832 45.872ZM256.263 50.9C256.263 50.492 256.551 50.228 256.947 50.228C257.343 50.228 257.631 50.492 257.631 50.9C257.631 51.308 257.343 51.572 256.947 51.572C256.551 51.572 256.263 51.308 256.263 50.9ZM262.643 47.132C263.411 47.276 264.215 47.888 264.215 49.172C264.215 50.6 263.015 51.572 261.191 51.572C259.367 51.572 258.191 50.576 258.191 48.908H259.187C259.199 50.012 260.063 50.672 261.251 50.672C262.343 50.672 263.183 50.06 263.183 49.1C263.183 48.224 262.463 47.66 261.155 47.66H260.435V46.784H261.095C262.343 46.784 262.967 46.16 262.967 45.308C262.967 44.456 262.199 43.928 261.191 43.928C260.135 43.928 259.367 44.564 259.355 45.524H258.359C258.371 44.048 259.523 43.028 261.179 43.028C262.907 43.028 263.999 43.928 263.999 45.248C263.999 46.304 263.447 46.916 262.643 47.132ZM267.039 42.812C267.631 42.812 268.079 43.048 268.383 43.52C268.687 43.984 268.839 44.64 268.839 45.488C268.839 46.336 268.691 47 268.395 47.48C268.107 47.952 267.655 48.188 267.039 48.188C266.663 48.188 266.343 48.08 266.079 47.864C265.815 47.648 265.615 47.34 265.479 46.94C265.351 46.532 265.287 46.048 265.287 45.488C265.287 44.64 265.427 43.984 265.707 43.52C265.987 43.048 266.431 42.812 267.039 42.812ZM267.039 43.556C266.735 43.556 266.511 43.72 266.367 44.048C266.231 44.368 266.163 44.848 266.163 45.488C266.163 46.128 266.231 46.612 266.367 46.94C266.511 47.268 266.735 47.432 267.039 47.432C267.351 47.432 267.583 47.272 267.735 46.952C267.887 46.624 267.963 46.136 267.963 45.488C267.963 44.848 267.887 44.368 267.735 44.048C267.583 43.72 267.351 43.556 267.039 43.556ZM272.523 42.932L267.771 51.5H266.847L271.599 42.932H272.523ZM272.283 46.244C272.675 46.244 273.003 46.352 273.267 46.568C273.531 46.776 273.731 47.08 273.867 47.48C274.011 47.872 274.083 48.352 274.083 48.92C274.083 49.768 273.935 50.432 273.639 50.912C273.351 51.384 272.899 51.62 272.283 51.62C271.907 51.62 271.587 51.512 271.323 51.296C271.059 51.08 270.859 50.772 270.723 50.372C270.595 49.964 270.531 49.48 270.531 48.92C270.531 48.072 270.671 47.416 270.951 46.952C271.231 46.48 271.675 46.244 272.283 46.244ZM272.283 47C271.979 47 271.755 47.16 271.611 47.48C271.475 47.8 271.407 48.28 271.407 48.92C271.407 49.568 271.475 50.056 271.611 50.384C271.755 50.704 271.979 50.864 272.283 50.864C272.595 50.864 272.827 50.704 272.979 50.384C273.131 50.064 273.207 49.576 273.207 48.92C273.207 48.28 273.131 47.8 272.979 47.48C272.827 47.16 272.595 47 272.283 47Z" fill="#131313"/>
</svg>
