<svg width="13" height="17" viewBox="0 0 13 17" fill="none" xmlns="http://www.w3.org/2000/svg">
<g id="Vector">
<mask id="path-1-outside-1_112_13077" maskUnits="userSpaceOnUse" x="-0.601822" y="-0.498047" width="13" height="17" fill="black">
<rect fill="white" x="-0.601822" y="-0.498047" width="13" height="17"/>
<path d="M10.0984 15.502H8.79863L8.79863 14.1836H10.0984L10.0984 15.502Z"/>
<path d="M10.0984 2.31888H8.79863L8.79863 1.00057H10.0984L10.0984 2.31888Z"/>
<path d="M11.3982 14.1836H10.0984L10.0984 12.8653H11.3982L11.3982 14.1836Z"/>
<path d="M11.3982 3.63718H10.0984L10.0984 2.31888H11.3982L11.3982 3.63718Z"/>
<path d="M10.0984 14.1836H8.79863L8.79863 12.8653H10.0984L10.0984 14.1836Z"/>
<path d="M10.0984 3.63718H8.79863L8.79863 2.31888H10.0984L10.0984 3.63718Z"/>
<path d="M10.0984 12.8653H8.79863L8.79863 11.547H10.0984L10.0984 12.8653Z"/>
<path d="M10.0984 4.95549H8.79863L8.79863 3.63718H10.0984L10.0984 4.95549Z"/>
<path d="M8.79863 14.1836H7.49886L7.49886 12.8653H8.79863L8.79863 14.1836Z"/>
<path d="M8.79863 3.63718H7.49886L7.49886 2.31888H8.79863L8.79863 3.63718Z"/>
<path d="M8.79863 12.8653H7.49886L7.49886 11.547H8.79863L8.79863 12.8653Z"/>
<path d="M8.79863 4.95549H7.49886L7.49886 3.63718H8.79863L8.79863 4.95549Z"/>
<path d="M8.79863 11.547H7.49886L7.49886 10.2287H8.79863L8.79863 11.547Z"/>
<path d="M7.49886 14.1836H6.19909L6.19909 12.8653H7.49886L7.49886 14.1836Z"/>
<path d="M7.49886 3.63718H6.19909L6.19909 2.31888H7.49886L7.49886 3.63718Z"/>
<path d="M7.49886 12.8653H6.19909L6.19909 11.547H7.49886L7.49886 12.8653Z"/>
<path d="M7.49886 4.95549H6.19909L6.19909 3.63718H7.49886L7.49886 4.95549Z"/>
<path d="M7.49886 11.547H6.19909L6.19909 10.2287H7.49886L7.49886 11.547Z"/>
<path d="M7.49886 10.2287H6.19909L6.19909 8.91041H7.49886L7.49886 10.2287Z"/>
<path d="M7.49886 7.59211H6.19909L6.19909 6.2738H7.49886L7.49886 7.59211Z"/>
<path d="M7.49886 6.2738H6.19909L6.19909 4.95549H7.49886L7.49886 6.2738Z"/>
<path d="M8.79863 6.2738H7.49886L7.49886 4.95549H8.79863L8.79863 6.2738Z"/>
<path d="M6.19909 12.8653H4.89932L4.89932 11.547H6.19909L6.19909 12.8653Z"/>
<path d="M6.19909 4.95549H4.89932L4.89932 3.63718H6.19909L6.19909 4.95549Z"/>
<path d="M6.19909 11.547H4.89932L4.89932 10.2287H6.19909L6.19909 11.547Z"/>
<path d="M6.19909 10.2287H4.89932L4.89932 8.91041H6.19909L6.19909 10.2287Z"/>
<path d="M6.19909 7.59211H4.89932L4.89932 6.2738H6.19909L6.19909 7.59211Z"/>
<path d="M6.19909 6.2738H4.89932L4.89932 4.95549H6.19909L6.19909 6.2738Z"/>
<path d="M6.19909 8.91041H4.89932L4.89932 7.59211H6.19909L6.19909 8.91041Z"/>
<path d="M4.89932 11.547H3.59955L3.59955 10.2287H4.89932L4.89932 11.547Z"/>
<path d="M4.89932 10.2287H3.59955L3.59955 8.91041H4.89932L4.89932 10.2287Z"/>
<path d="M4.89932 7.59211H3.59955L3.59955 6.2738H4.89932L4.89932 7.59211Z"/>
<path d="M4.89932 6.2738H3.59955L3.59955 4.95549H4.89932L4.89932 6.2738Z"/>
<path d="M4.89932 8.91041H3.59955L3.59955 7.59211H4.89932L4.89932 8.91041Z"/>
<path d="M3.59955 10.2287H2.29977L2.29977 8.91041H3.59955L3.59955 10.2287Z"/>
<path d="M2.29977 8.91041H1L1 7.59211H2.29977L2.29977 8.91041Z"/>
<path d="M3.59955 8.91041H2.29977L2.29977 7.59211H3.59955L3.59955 8.91041Z"/>
<path d="M3.59955 7.59211H2.29977L2.29977 6.2738H3.59955L3.59955 7.59211Z"/>
<path d="M8.79863 15.502H7.49886L7.49886 14.1836H8.79863L8.79863 15.502Z"/>
<path d="M8.79863 2.31888H7.49886L7.49886 1.00057H8.79863L8.79863 2.31888Z"/>
</mask>
<path d="M10.0984 15.502H8.79863L8.79863 14.1836H10.0984L10.0984 15.502Z" fill="#89CDFF"/>
<path d="M10.0984 2.31888H8.79863L8.79863 1.00057H10.0984L10.0984 2.31888Z" fill="#89CDFF"/>
<path d="M11.3982 14.1836H10.0984L10.0984 12.8653H11.3982L11.3982 14.1836Z" fill="#89CDFF"/>
<path d="M11.3982 3.63718H10.0984L10.0984 2.31888H11.3982L11.3982 3.63718Z" fill="#89CDFF"/>
<path d="M10.0984 14.1836H8.79863L8.79863 12.8653H10.0984L10.0984 14.1836Z" fill="#89CDFF"/>
<path d="M10.0984 3.63718H8.79863L8.79863 2.31888H10.0984L10.0984 3.63718Z" fill="#89CDFF"/>
<path d="M10.0984 12.8653H8.79863L8.79863 11.547H10.0984L10.0984 12.8653Z" fill="#89CDFF"/>
<path d="M10.0984 4.95549H8.79863L8.79863 3.63718H10.0984L10.0984 4.95549Z" fill="#89CDFF"/>
<path d="M8.79863 14.1836H7.49886L7.49886 12.8653H8.79863L8.79863 14.1836Z" fill="#89CDFF"/>
<path d="M8.79863 3.63718H7.49886L7.49886 2.31888H8.79863L8.79863 3.63718Z" fill="#89CDFF"/>
<path d="M8.79863 12.8653H7.49886L7.49886 11.547H8.79863L8.79863 12.8653Z" fill="#89CDFF"/>
<path d="M8.79863 4.95549H7.49886L7.49886 3.63718H8.79863L8.79863 4.95549Z" fill="#89CDFF"/>
<path d="M8.79863 11.547H7.49886L7.49886 10.2287H8.79863L8.79863 11.547Z" fill="#89CDFF"/>
<path d="M7.49886 14.1836H6.19909L6.19909 12.8653H7.49886L7.49886 14.1836Z" fill="#89CDFF"/>
<path d="M7.49886 3.63718H6.19909L6.19909 2.31888H7.49886L7.49886 3.63718Z" fill="#89CDFF"/>
<path d="M7.49886 12.8653H6.19909L6.19909 11.547H7.49886L7.49886 12.8653Z" fill="#89CDFF"/>
<path d="M7.49886 4.95549H6.19909L6.19909 3.63718H7.49886L7.49886 4.95549Z" fill="#89CDFF"/>
<path d="M7.49886 11.547H6.19909L6.19909 10.2287H7.49886L7.49886 11.547Z" fill="#89CDFF"/>
<path d="M7.49886 10.2287H6.19909L6.19909 8.91041H7.49886L7.49886 10.2287Z" fill="#89CDFF"/>
<path d="M7.49886 7.59211H6.19909L6.19909 6.2738H7.49886L7.49886 7.59211Z" fill="#89CDFF"/>
<path d="M7.49886 6.2738H6.19909L6.19909 4.95549H7.49886L7.49886 6.2738Z" fill="#89CDFF"/>
<path d="M8.79863 6.2738H7.49886L7.49886 4.95549H8.79863L8.79863 6.2738Z" fill="#89CDFF"/>
<path d="M6.19909 12.8653H4.89932L4.89932 11.547H6.19909L6.19909 12.8653Z" fill="#89CDFF"/>
<path d="M6.19909 4.95549H4.89932L4.89932 3.63718H6.19909L6.19909 4.95549Z" fill="#89CDFF"/>
<path d="M6.19909 11.547H4.89932L4.89932 10.2287H6.19909L6.19909 11.547Z" fill="#89CDFF"/>
<path d="M6.19909 10.2287H4.89932L4.89932 8.91041H6.19909L6.19909 10.2287Z" fill="#89CDFF"/>
<path d="M6.19909 7.59211H4.89932L4.89932 6.2738H6.19909L6.19909 7.59211Z" fill="#89CDFF"/>
<path d="M6.19909 6.2738H4.89932L4.89932 4.95549H6.19909L6.19909 6.2738Z" fill="#89CDFF"/>
<path d="M6.19909 8.91041H4.89932L4.89932 7.59211H6.19909L6.19909 8.91041Z" fill="#89CDFF"/>
<path d="M4.89932 11.547H3.59955L3.59955 10.2287H4.89932L4.89932 11.547Z" fill="#89CDFF"/>
<path d="M4.89932 10.2287H3.59955L3.59955 8.91041H4.89932L4.89932 10.2287Z" fill="#89CDFF"/>
<path d="M4.89932 7.59211H3.59955L3.59955 6.2738H4.89932L4.89932 7.59211Z" fill="#89CDFF"/>
<path d="M4.89932 6.2738H3.59955L3.59955 4.95549H4.89932L4.89932 6.2738Z" fill="#89CDFF"/>
<path d="M4.89932 8.91041H3.59955L3.59955 7.59211H4.89932L4.89932 8.91041Z" fill="#89CDFF"/>
<path d="M3.59955 10.2287H2.29977L2.29977 8.91041H3.59955L3.59955 10.2287Z" fill="#89CDFF"/>
<path d="M2.29977 8.91041H1L1 7.59211H2.29977L2.29977 8.91041Z" fill="#89CDFF"/>
<path d="M3.59955 8.91041H2.29977L2.29977 7.59211H3.59955L3.59955 8.91041Z" fill="#89CDFF"/>
<path d="M3.59955 7.59211H2.29977L2.29977 6.2738H3.59955L3.59955 7.59211Z" fill="#89CDFF"/>
<path d="M8.79863 15.502H7.49886L7.49886 14.1836H8.79863L8.79863 15.502Z" fill="#89CDFF"/>
<path d="M8.79863 2.31888H7.49886L7.49886 1.00057H8.79863L8.79863 2.31888Z" fill="#89CDFF"/>
<path d="M10.0984 14.1836L10.0984 14.6836H10.5984L10.5984 14.1836H10.0984ZM10.0984 2.31888H10.5984L10.5984 1.81888H10.0984L10.0984 2.31888ZM10.0984 12.8653H10.5984L10.5984 12.3653H10.0984L10.0984 12.8653ZM10.0984 3.63718L10.0984 4.13718H10.5984L10.5984 3.63718H10.0984ZM8.79863 11.547H9.29863L9.29863 11.047H8.79863L8.79863 11.547ZM8.79863 4.95549L8.79863 5.45549H9.29863L9.29863 4.95549H8.79863ZM7.49886 14.1836H6.99886L6.99886 14.6836H7.49886L7.49886 14.1836ZM7.49886 2.31888L7.49886 1.81888H6.99886L6.99886 2.31888H7.49886ZM7.49886 10.2287H7.99886L7.99886 9.72872H7.49886L7.49886 10.2287ZM6.19909 12.8653H5.69909L5.69909 13.3653H6.19909L6.19909 12.8653ZM6.19909 3.63718L6.19909 3.13718H5.69909L5.69909 3.63718H6.19909ZM6.19909 8.91041H6.69909L6.69909 8.41041H6.19909L6.19909 8.91041ZM6.19909 7.59211L6.19909 8.09211H6.69909L6.69909 7.59211H6.19909ZM7.49886 6.2738L7.49886 6.7738H7.99886L7.99886 6.2738H7.49886ZM4.89932 11.547H4.39932L4.39932 12.047H4.89932L4.89932 11.547ZM4.89932 4.95549L4.89932 4.45549H4.39932L4.39932 4.95549H4.89932ZM3.59955 10.2287H3.09955L3.09955 10.7287H3.59955L3.59955 10.2287ZM3.59955 6.2738L3.59955 5.7738H3.09955L3.09955 6.2738H3.59955ZM2.29977 8.91041H1.79977L1.79977 9.41041H2.29977L2.29977 8.91041ZM2.29977 7.59211L2.29977 7.09211H1.79977L1.79977 7.59211H2.29977ZM9.29863 15.502L9.29863 14.1836H8.29863L8.29863 15.502H9.29863ZM8.79863 14.6836H10.0984L10.0984 13.6836H8.79863L8.79863 14.6836ZM10.0984 1.81888H8.79863L8.79863 2.81888H10.0984L10.0984 1.81888ZM9.29863 2.31888L9.29863 1.00057H8.29863L8.29863 2.31888H9.29863ZM10.5984 14.1836L10.5984 12.8653H9.59841L9.59841 14.1836H10.5984ZM10.5984 3.63718L10.5984 2.31888H9.59841L9.59841 3.63718H10.5984ZM9.29863 14.1836L9.29863 12.8653H8.29863L8.29863 14.1836H9.29863ZM8.79863 13.3653H10.0984L10.0984 12.3653H8.79863L8.79863 13.3653ZM10.0984 3.13718H8.79863L8.79863 4.13718H10.0984L10.0984 3.13718ZM9.29863 3.63718L9.29863 2.31888H8.29863L8.29863 3.63718H9.29863ZM9.29863 12.8653L9.29863 11.547H8.29863L8.29863 12.8653H9.29863ZM9.29863 4.95549L9.29863 3.63718H8.29863L8.29863 4.95549H9.29863ZM8.79863 13.6836H7.49886L7.49886 14.6836H8.79863L8.79863 13.6836ZM7.99886 14.1836L7.99886 12.8653H6.99886L6.99886 14.1836H7.99886ZM7.49886 13.3653H8.79863L8.79863 12.3653H7.49886L7.49886 13.3653ZM8.79863 3.13718H7.49886L7.49886 4.13718H8.79863L8.79863 3.13718ZM7.99886 3.63718L7.99886 2.31888H6.99886L6.99886 3.63718H7.99886ZM7.49886 2.81888H8.79863L8.79863 1.81888H7.49886L7.49886 2.81888ZM7.99886 12.8653L7.99886 11.547H6.99886L6.99886 12.8653H7.99886ZM7.49886 12.047H8.79863L8.79863 11.047H7.49886L7.49886 12.047ZM8.79863 4.45549H7.49886L7.49886 5.45549H8.79863L8.79863 4.45549ZM7.99886 4.95549L7.99886 3.63718H6.99886L6.99886 4.95549H7.99886ZM7.99886 11.547L7.99886 10.2287H6.99886L6.99886 11.547H7.99886ZM6.19909 13.3653H7.49886L7.49886 12.3653H6.19909L6.19909 13.3653ZM7.49886 3.13718H6.19909L6.19909 4.13718H7.49886L7.49886 3.13718ZM6.69909 12.8653L6.69909 11.547H5.69909L5.69909 12.8653H6.69909ZM6.19909 12.047H7.49886L7.49886 11.047H6.19909L6.19909 12.047ZM7.49886 4.45549H6.19909L6.19909 5.45549H7.49886L7.49886 4.45549ZM6.69909 4.95549L6.69909 3.63718H5.69909L5.69909 4.95549H6.69909ZM6.69909 11.547L6.69909 10.2287H5.69909L5.69909 11.547H6.69909ZM6.19909 10.7287H7.49886L7.49886 9.72872H6.19909L6.19909 10.7287ZM6.69909 10.2287L6.69909 8.91041H5.69909L5.69909 10.2287H6.69909ZM6.69909 7.59211L6.69909 6.2738H5.69909L5.69909 7.59211H6.69909ZM6.19909 6.7738H7.49886L7.49886 5.7738H6.19909L6.19909 6.7738ZM6.69909 6.2738L6.69909 4.95549H5.69909L5.69909 6.2738H6.69909ZM6.99886 4.95549L6.99886 6.2738H7.99886L7.99886 4.95549H6.99886ZM4.89932 12.047H6.19909L6.19909 11.047H4.89932L4.89932 12.047ZM6.19909 4.45549H4.89932L4.89932 5.45549H6.19909L6.19909 4.45549ZM5.39932 11.547L5.39932 10.2287H4.39932L4.39932 11.547H5.39932ZM4.89932 10.7287H6.19909L6.19909 9.72872H4.89932L4.89932 10.7287ZM5.39932 10.2287L5.39932 8.91041H4.39932L4.39932 10.2287H5.39932ZM4.89932 9.41041H6.19909L6.19909 8.41041H4.89932L4.89932 9.41041ZM6.19909 7.09211H4.89932L4.89932 8.09211H6.19909L6.19909 7.09211ZM5.39932 7.59211L5.39932 6.2738H4.39932L4.39932 7.59211H5.39932ZM4.89932 6.7738H6.19909L6.19909 5.7738H4.89932L4.89932 6.7738ZM5.39932 6.2738L5.39932 4.95549H4.39932L4.39932 6.2738H5.39932ZM5.39932 8.91041L5.39932 7.59211H4.39932L4.39932 8.91041H5.39932ZM3.59955 10.7287H4.89932L4.89932 9.72872H3.59955L3.59955 10.7287ZM4.09955 10.2287L4.09955 8.91041H3.09955L3.09955 10.2287H4.09955ZM3.59955 9.41041H4.89932L4.89932 8.41041H3.59955L3.59955 9.41041ZM4.89932 7.09211H3.59955L3.59955 8.09211H4.89932L4.89932 7.09211ZM4.09955 7.59211L4.09955 6.2738H3.09955L3.09955 7.59211H4.09955ZM3.59955 6.7738H4.89932L4.89932 5.7738H3.59955L3.59955 6.7738ZM4.09955 8.91041L4.09955 7.59211H3.09955L3.09955 8.91041H4.09955ZM2.29977 9.41041H3.59955L3.59955 8.41041H2.29977L2.29977 9.41041ZM1.79977 7.59211L1.79977 8.91041H2.79977L2.79977 7.59211H1.79977ZM2.29977 8.09211H3.59955L3.59955 7.09211H2.29977L2.29977 8.09211ZM10.0984 15.502L10.0984 16.502H11.0984L11.0984 15.502H10.0984ZM10.0984 14.1836L10.0984 13.1836H9.09841L9.09841 14.1836H10.0984ZM10.0984 2.31888H9.09841L9.09841 3.31888H10.0984L10.0984 2.31888ZM10.0984 1.00057H11.0984L11.0984 0.00056839H10.0984L10.0984 1.00057ZM11.3982 14.1836L11.3982 15.1836H12.3982L12.3982 14.1836H11.3982ZM10.0984 12.8653H9.09841L9.09841 13.8653H10.0984L10.0984 12.8653ZM11.3982 12.8653H12.3982L12.3982 11.8653H11.3982L11.3982 12.8653ZM11.3982 3.63718L11.3982 4.63718H12.3982L12.3982 3.63718H11.3982ZM10.0984 3.63718L10.0984 2.63718H9.09841L9.09841 3.63718H10.0984ZM11.3982 2.31888H12.3982L12.3982 1.31888H11.3982L11.3982 2.31888ZM8.79863 11.547H7.79863L7.79863 12.547H8.79863L8.79863 11.547ZM10.0984 11.547H11.0984L11.0984 10.547H10.0984L10.0984 11.547ZM10.0984 4.95549L10.0984 5.95549H11.0984L11.0984 4.95549H10.0984ZM8.79863 4.95549L8.79863 3.95549H7.79863L7.79863 4.95549H8.79863ZM7.49886 14.1836H8.49886L8.49886 13.1836H7.49886L7.49886 14.1836ZM7.49886 2.31888L7.49886 3.31888H8.49886L8.49886 2.31888H7.49886ZM7.49886 10.2287H6.49886L6.49886 11.2287H7.49886L7.49886 10.2287ZM8.79863 10.2287H9.79863L9.79863 9.22872H8.79863L8.79863 10.2287ZM6.19909 14.1836H5.19909L5.19909 15.1836H6.19909L6.19909 14.1836ZM6.19909 12.8653H7.19909L7.19909 11.8653H6.19909L6.19909 12.8653ZM6.19909 3.63718L6.19909 4.63718H7.19909L7.19909 3.63718H6.19909ZM6.19909 2.31888L6.19909 1.31888H5.19909L5.19909 2.31888H6.19909ZM6.19909 8.91041H5.19909L5.19909 9.91041H6.19909L6.19909 8.91041ZM7.49886 8.91041H8.49886L8.49886 7.91041H7.49886L7.49886 8.91041ZM7.49886 7.59211L7.49886 8.59211H8.49886L8.49886 7.59211H7.49886ZM6.19909 7.59211L6.19909 6.59211H5.19909L5.19909 7.59211H6.19909ZM7.49886 6.2738L7.49886 5.2738H6.49886L6.49886 6.2738H7.49886ZM8.79863 6.2738L8.79863 7.2738H9.79863L9.79863 6.2738H8.79863ZM4.89932 12.8653H3.89932L3.89932 13.8653H4.89932L4.89932 12.8653ZM4.89932 11.547H5.89932L5.89932 10.547H4.89932L4.89932 11.547ZM4.89932 4.95549L4.89932 5.95549H5.89932L5.89932 4.95549H4.89932ZM4.89932 3.63718L4.89932 2.63718H3.89932L3.89932 3.63718H4.89932ZM3.59955 11.547H2.59955L2.59955 12.547H3.59955L3.59955 11.547ZM3.59955 10.2287H4.59955L4.59955 9.22872H3.59955L3.59955 10.2287ZM3.59955 6.2738L3.59955 7.2738H4.59955L4.59955 6.2738H3.59955ZM3.59955 4.95549L3.59955 3.95549H2.59955L2.59955 4.95549H3.59955ZM2.29977 10.2287H1.29977L1.29977 11.2287H2.29977L2.29977 10.2287ZM2.29977 8.91041H3.29977L3.29977 7.91041H2.29977L2.29977 8.91041ZM1 8.91041H9.72093e-07L9.69299e-07 9.91041H1L1 8.91041ZM1 7.59211L1 6.59211H9.78571e-07L9.75776e-07 7.59211L1 7.59211ZM2.29977 7.59211L2.29977 8.59211H3.29977L3.29977 7.59211H2.29977ZM2.29977 6.2738L2.29977 5.2738H1.29977L1.29977 6.2738H2.29977ZM7.49886 15.502H6.49886L6.49886 16.502H7.49886L7.49886 15.502ZM7.49886 1.00057L7.49886 0.00056839H6.49886L6.49886 1.00057H7.49886ZM10.0984 14.502H8.79863L8.79863 16.502H10.0984L10.0984 14.502ZM9.09841 14.1836L9.09841 15.502H11.0984L11.0984 14.1836H9.09841ZM8.79863 2.00057H10.0984L10.0984 0.00056839H8.79863L8.79863 2.00057ZM9.09841 1.00057L9.09841 2.31888H11.0984L11.0984 1.00057H9.09841ZM11.3982 13.1836H10.0984L10.0984 15.1836H11.3982L11.3982 13.1836ZM10.0984 13.8653H11.3982L11.3982 11.8653H10.0984L10.0984 13.8653ZM10.3982 12.8653L10.3982 14.1836H12.3982L12.3982 12.8653H10.3982ZM11.3982 2.63718H10.0984L10.0984 4.63718H11.3982L11.3982 2.63718ZM10.0984 3.31888H11.3982L11.3982 1.31888H10.0984L10.0984 3.31888ZM10.3982 2.31888L10.3982 3.63718H12.3982L12.3982 2.31888H10.3982ZM8.79863 12.547H10.0984L10.0984 10.547H8.79863L8.79863 12.547ZM9.09841 11.547L9.09841 12.8653H11.0984L11.0984 11.547H9.09841ZM10.0984 3.95549H8.79863L8.79863 5.95549H10.0984L10.0984 3.95549ZM9.09841 3.63718L9.09841 4.95549H11.0984L11.0984 3.63718H9.09841ZM7.49886 11.2287H8.79863L8.79863 9.22872H7.49886L7.49886 11.2287ZM7.79863 10.2287L7.79863 11.547H9.79863L9.79863 10.2287H7.79863ZM7.49886 13.1836H6.19909L6.19909 15.1836H7.49886L7.49886 13.1836ZM7.19909 14.1836L7.19909 12.8653H5.19909L5.19909 14.1836H7.19909ZM7.19909 3.63718L7.19909 2.31888H5.19909L5.19909 3.63718H7.19909ZM6.19909 3.31888H7.49886L7.49886 1.31888H6.19909L6.19909 3.31888ZM6.19909 9.91041H7.49886L7.49886 7.91041H6.19909L6.19909 9.91041ZM6.49886 8.91041L6.49886 10.2287H8.49886L8.49886 8.91041H6.49886ZM7.49886 6.59211H6.19909L6.19909 8.59211H7.49886L7.49886 6.59211ZM6.49886 6.2738L6.49886 7.59211H8.49886L8.49886 6.2738H6.49886ZM8.79863 5.2738H7.49886L7.49886 7.2738H8.79863L8.79863 5.2738ZM7.79863 4.95549L7.79863 6.2738H9.79863L9.79863 4.95549H7.79863ZM6.19909 11.8653H4.89932L4.89932 13.8653H6.19909L6.19909 11.8653ZM5.89932 12.8653L5.89932 11.547H3.89932L3.89932 12.8653H5.89932ZM5.89932 4.95549L5.89932 3.63718H3.89932L3.89932 4.95549H5.89932ZM4.89932 4.63718H6.19909L6.19909 2.63718H4.89932L4.89932 4.63718ZM5.19909 7.59211L5.19909 8.91041H7.19909L7.19909 7.59211H5.19909ZM4.89932 10.547H3.59955L3.59955 12.547H4.89932L4.89932 10.547ZM4.59955 11.547L4.59955 10.2287H2.59955L2.59955 11.547H4.59955ZM4.59955 6.2738L4.59955 4.95549H2.59955L2.59955 6.2738H4.59955ZM3.59955 5.95549H4.89932L4.89932 3.95549H3.59955L3.59955 5.95549ZM3.59955 9.22872H2.29977L2.29977 11.2287H3.59955L3.59955 9.22872ZM3.29977 10.2287L3.29977 8.91041H1.29977L1.29977 10.2287H3.29977ZM2.29977 7.91041H1L1 9.91041H2.29977L2.29977 7.91041ZM2 8.91041L2 7.59211L9.75776e-07 7.59211L9.72093e-07 8.91041H2ZM1 8.59211H2.29977L2.29977 6.59211H1L1 8.59211ZM3.29977 7.59211L3.29977 6.2738H1.29977L1.29977 7.59211H3.29977ZM2.29977 7.2738H3.59955L3.59955 5.2738H2.29977L2.29977 7.2738ZM8.79863 14.502H7.49886L7.49886 16.502H8.79863L8.79863 14.502ZM8.49886 15.502L8.49886 14.1836H6.49886L6.49886 15.502H8.49886ZM8.49886 2.31888L8.49886 1.00057H6.49886L6.49886 2.31888H8.49886ZM7.49886 2.00057H8.79863L8.79863 0.00056839H7.49886L7.49886 2.00057Z" fill="#131313" mask="url(#path-1-outside-1_112_13077)"/>
</g>
</svg>
