<svg width="19" height="18" viewBox="0 0 19 18" fill="none" xmlns="http://www.w3.org/2000/svg">
<g id="Vector">
<path d="M1.99915 0H3.62721V1.63636H1.99915V0Z" fill="#131313"/>
<path d="M0.371094 1.63636H1.99915V3.27273H0.371094V1.63636Z" fill="#131313"/>
<path d="M1.99915 1.63636H3.62721V3.27273H1.99915V1.63636Z" fill="#131313"/>
<path d="M1.99915 3.27273H3.62721V4.90909H1.99915V3.27273Z" fill="#131313"/>
<path d="M3.62721 1.63636H5.25527V3.27273H3.62721V1.63636Z" fill="#131313"/>
<path d="M5.25527 3.27273H6.88333V4.90909H5.25527V3.27273Z" fill="#131313"/>
<path d="M6.88333 4.90909H8.51139V6.54545H6.88333V4.90909Z" fill="#131313"/>
<path d="M3.62721 3.27273H5.25527V4.90909H3.62721V3.27273Z" fill="#131313"/>
<path d="M5.25527 4.90909H6.88333V6.54545H5.25527V4.90909Z" fill="#131313"/>
<path d="M6.88333 6.54545H8.51139V8.18182H6.88333V6.54545Z" fill="#131313"/>
<path d="M8.51139 6.54545H10.1395V8.18182H8.51139V6.54545Z" fill="#131313"/>
<path d="M10.1395 6.54545H11.7675V8.18182H10.1395V6.54545Z" fill="#131313"/>
<path d="M11.7675 4.90909H13.3956V6.54545H11.7675V4.90909Z" fill="#131313"/>
<path d="M13.3956 3.27273H15.0236V4.90909H13.3956V3.27273Z" fill="#131313"/>
<path d="M15.0236 1.63636H16.6517V3.27273H15.0236V1.63636Z" fill="#131313"/>
<path d="M16.6517 1.63636H18.2797V3.27273H16.6517V1.63636Z" fill="#131313"/>
<path d="M10.1395 4.90909H11.7675V6.54545H10.1395V4.90909Z" fill="#131313"/>
<path d="M11.7675 3.27273H13.3956V4.90909H11.7675V3.27273Z" fill="#131313"/>
<path d="M13.3956 1.63636H15.0236V3.27273H13.3956V1.63636Z" fill="#131313"/>
<path d="M15.0236 0H16.6517V1.63636H15.0236V0Z" fill="#131313"/>
<path d="M3.62721 4.90909H5.25527V6.54545H3.62721V4.90909Z" fill="#131313"/>
<path d="M5.25527 6.54545H6.88333V8.18182H5.25527V6.54545Z" fill="#131313"/>
<path d="M6.88333 8.18182H8.51139V9.81818H6.88333V8.18182Z" fill="#131313"/>
<path d="M5.25527 9.81818H6.88333V11.4545H5.25527V9.81818Z" fill="#131313"/>
<path d="M3.62721 11.4545H5.25527V13.0909H3.62721V11.4545Z" fill="#131313"/>
<path d="M1.99915 13.0909H3.62721V14.7273H1.99915V13.0909Z" fill="#131313"/>
<path d="M6.88333 9.81818H8.51139V11.4545H6.88333V9.81818Z" fill="#131313"/>
<path d="M5.25527 11.4545H6.88333V13.0909H5.25527V11.4545Z" fill="#131313"/>
<path d="M3.62721 13.0909H5.25527V14.7273H3.62721V13.0909Z" fill="#131313"/>
<path d="M1.99915 14.7273H3.62721V16.3636H1.99915V14.7273Z" fill="#131313"/>
<path d="M0.371094 14.7273H1.99915V16.3636H0.371094V14.7273Z" fill="#131313"/>
<path d="M6.88333 11.4545H8.51139V13.0909H6.88333V11.4545Z" fill="#131313"/>
<path d="M5.25527 13.0909H6.88333V14.7273H5.25527V13.0909Z" fill="#131313"/>
<path d="M3.62721 14.7273H5.25527V16.3636H3.62721V14.7273Z" fill="#131313"/>
<path d="M1.99915 16.3636H3.62721V18H1.99915V16.3636Z" fill="#131313"/>
<path d="M8.51139 8.18182H10.1395V9.81818H8.51139V8.18182Z" fill="#131313"/>
<path d="M8.51139 9.81818H10.1395V11.4545H8.51139V9.81818Z" fill="#131313"/>
<path d="M10.1395 8.18182H11.7675V9.81818H10.1395V8.18182Z" fill="#131313"/>
<path d="M11.7675 9.81818H13.3956V11.4545H11.7675V9.81818Z" fill="#131313"/>
<path d="M13.3956 11.4545H15.0236V13.0909H13.3956V11.4545Z" fill="#131313"/>
<path d="M15.0236 13.0909H16.6517V14.7273H15.0236V13.0909Z" fill="#131313"/>
<path d="M10.1395 9.81818H11.7675V11.4545H10.1395V9.81818Z" fill="#131313"/>
<path d="M11.7675 11.4545H13.3956V13.0909H11.7675V11.4545Z" fill="#131313"/>
<path d="M13.3956 13.0909H15.0236V14.7273H13.3956V13.0909Z" fill="#131313"/>
<path d="M15.0236 14.7273H16.6517V16.3636H15.0236V14.7273Z" fill="#131313"/>
<path d="M16.6517 14.7273H18.2797V16.3636H16.6517V14.7273Z" fill="#131313"/>
<path d="M10.1395 11.4545H11.7675V13.0909H10.1395V11.4545Z" fill="#131313"/>
<path d="M11.7675 13.0909H13.3956V14.7273H11.7675V13.0909Z" fill="#131313"/>
<path d="M13.3956 14.7273H15.0236V16.3636H13.3956V14.7273Z" fill="#131313"/>
<path d="M15.0236 16.3636H16.6517V18H15.0236V16.3636Z" fill="#131313"/>
<path d="M11.7675 6.54545H13.3956V8.18182H11.7675V6.54545Z" fill="#131313"/>
<path d="M13.3956 4.90909H15.0236V6.54545H13.3956V4.90909Z" fill="#131313"/>
<path d="M15.0236 3.27273H16.6517V4.90909H15.0236V3.27273Z" fill="#131313"/>
</g>
</svg>
