<svg width="13" height="17" viewBox="0 0 13 17" fill="none" xmlns="http://www.w3.org/2000/svg">
<g id="Vector">
<mask id="path-1-outside-1_112_13088" maskUnits="userSpaceOnUse" x="-0.601837" y="-0.498047" width="13" height="17" fill="black">
<rect fill="white" x="-0.601837" y="-0.498047" width="13" height="17"/>
<path d="M10.0984 15.502H8.79862L8.79862 14.1836H10.0984L10.0984 15.502Z"/>
<path d="M10.0984 2.31888H8.79862L8.79862 1.00057H10.0984L10.0984 2.31888Z"/>
<path d="M11.3982 14.1836H10.0984L10.0984 12.8653H11.3982L11.3982 14.1836Z"/>
<path d="M11.3982 3.63718H10.0984L10.0984 2.31888H11.3982L11.3982 3.63718Z"/>
<path d="M10.0984 14.1836H8.79862L8.79862 12.8653H10.0984L10.0984 14.1836Z"/>
<path d="M10.0984 3.63718H8.79862L8.79862 2.31888H10.0984L10.0984 3.63718Z"/>
<path d="M10.0984 12.8653H8.79862L8.79862 11.547H10.0984L10.0984 12.8653Z"/>
<path d="M10.0984 4.95549H8.79862L8.79862 3.63718H10.0984L10.0984 4.95549Z"/>
<path d="M8.79862 14.1836H7.49885L7.49885 12.8653H8.79862L8.79862 14.1836Z"/>
<path d="M8.79862 3.63718H7.49885L7.49885 2.31888H8.79862L8.79862 3.63718Z"/>
<path d="M8.79862 12.8653H7.49885L7.49885 11.547H8.79862L8.79862 12.8653Z"/>
<path d="M8.79862 4.95549H7.49885L7.49885 3.63718H8.79862L8.79862 4.95549Z"/>
<path d="M8.79862 11.547H7.49885L7.49885 10.2287H8.79862L8.79862 11.547Z"/>
<path d="M7.49885 14.1836H6.19907L6.19907 12.8653H7.49885L7.49885 14.1836Z"/>
<path d="M7.49885 3.63718H6.19907L6.19907 2.31888H7.49885L7.49885 3.63718Z"/>
<path d="M7.49885 12.8653H6.19907L6.19907 11.547H7.49885L7.49885 12.8653Z"/>
<path d="M7.49885 4.95549H6.19907L6.19907 3.63718H7.49885L7.49885 4.95549Z"/>
<path d="M7.49885 11.547H6.19907L6.19907 10.2287H7.49885L7.49885 11.547Z"/>
<path d="M7.49885 10.2287H6.19907L6.19907 8.91041H7.49885L7.49885 10.2287Z"/>
<path d="M7.49885 7.59211H6.19907L6.19907 6.2738H7.49885L7.49885 7.59211Z"/>
<path d="M7.49885 6.2738H6.19907L6.19907 4.95549H7.49885L7.49885 6.2738Z"/>
<path d="M8.79862 6.2738H7.49885L7.49885 4.95549H8.79862L8.79862 6.2738Z"/>
<path d="M6.19907 12.8653H4.8993L4.8993 11.547H6.19907L6.19907 12.8653Z"/>
<path d="M6.19907 4.95549H4.8993L4.8993 3.63718H6.19907L6.19907 4.95549Z"/>
<path d="M6.19907 11.547H4.8993L4.8993 10.2287H6.19907L6.19907 11.547Z"/>
<path d="M6.19907 10.2287H4.8993L4.8993 8.91041H6.19907L6.19907 10.2287Z"/>
<path d="M6.19907 7.59211H4.8993L4.8993 6.2738H6.19907L6.19907 7.59211Z"/>
<path d="M6.19907 6.2738H4.8993L4.8993 4.95549H6.19907L6.19907 6.2738Z"/>
<path d="M6.19907 8.91041H4.8993L4.8993 7.59211H6.19907L6.19907 8.91041Z"/>
<path d="M4.8993 11.547H3.59953L3.59953 10.2287H4.8993L4.8993 11.547Z"/>
<path d="M4.8993 10.2287H3.59953L3.59953 8.91041H4.8993L4.8993 10.2287Z"/>
<path d="M4.8993 7.59211H3.59953L3.59953 6.2738H4.8993L4.8993 7.59211Z"/>
<path d="M4.8993 6.2738H3.59953L3.59953 4.95549H4.8993L4.8993 6.2738Z"/>
<path d="M4.8993 8.91041H3.59953L3.59953 7.59211H4.8993L4.8993 8.91041Z"/>
<path d="M3.59953 10.2287H2.29976L2.29976 8.91041H3.59953L3.59953 10.2287Z"/>
<path d="M2.29976 8.91041H0.999986L0.999986 7.59211H2.29976L2.29976 8.91041Z"/>
<path d="M3.59953 8.91041H2.29976L2.29976 7.59211H3.59953L3.59953 8.91041Z"/>
<path d="M3.59953 7.59211H2.29976L2.29976 6.2738H3.59953L3.59953 7.59211Z"/>
<path d="M8.79862 15.502H7.49885L7.49885 14.1836H8.79862L8.79862 15.502Z"/>
<path d="M8.79862 2.31888H7.49885L7.49885 1.00057H8.79862L8.79862 2.31888Z"/>
</mask>
<path d="M10.0984 15.502H8.79862L8.79862 14.1836H10.0984L10.0984 15.502Z" fill="#DCECA1"/>
<path d="M10.0984 2.31888H8.79862L8.79862 1.00057H10.0984L10.0984 2.31888Z" fill="#DCECA1"/>
<path d="M11.3982 14.1836H10.0984L10.0984 12.8653H11.3982L11.3982 14.1836Z" fill="#DCECA1"/>
<path d="M11.3982 3.63718H10.0984L10.0984 2.31888H11.3982L11.3982 3.63718Z" fill="#DCECA1"/>
<path d="M10.0984 14.1836H8.79862L8.79862 12.8653H10.0984L10.0984 14.1836Z" fill="#DCECA1"/>
<path d="M10.0984 3.63718H8.79862L8.79862 2.31888H10.0984L10.0984 3.63718Z" fill="#DCECA1"/>
<path d="M10.0984 12.8653H8.79862L8.79862 11.547H10.0984L10.0984 12.8653Z" fill="#DCECA1"/>
<path d="M10.0984 4.95549H8.79862L8.79862 3.63718H10.0984L10.0984 4.95549Z" fill="#DCECA1"/>
<path d="M8.79862 14.1836H7.49885L7.49885 12.8653H8.79862L8.79862 14.1836Z" fill="#DCECA1"/>
<path d="M8.79862 3.63718H7.49885L7.49885 2.31888H8.79862L8.79862 3.63718Z" fill="#DCECA1"/>
<path d="M8.79862 12.8653H7.49885L7.49885 11.547H8.79862L8.79862 12.8653Z" fill="#DCECA1"/>
<path d="M8.79862 4.95549H7.49885L7.49885 3.63718H8.79862L8.79862 4.95549Z" fill="#DCECA1"/>
<path d="M8.79862 11.547H7.49885L7.49885 10.2287H8.79862L8.79862 11.547Z" fill="#DCECA1"/>
<path d="M7.49885 14.1836H6.19907L6.19907 12.8653H7.49885L7.49885 14.1836Z" fill="#DCECA1"/>
<path d="M7.49885 3.63718H6.19907L6.19907 2.31888H7.49885L7.49885 3.63718Z" fill="#DCECA1"/>
<path d="M7.49885 12.8653H6.19907L6.19907 11.547H7.49885L7.49885 12.8653Z" fill="#DCECA1"/>
<path d="M7.49885 4.95549H6.19907L6.19907 3.63718H7.49885L7.49885 4.95549Z" fill="#DCECA1"/>
<path d="M7.49885 11.547H6.19907L6.19907 10.2287H7.49885L7.49885 11.547Z" fill="#DCECA1"/>
<path d="M7.49885 10.2287H6.19907L6.19907 8.91041H7.49885L7.49885 10.2287Z" fill="#DCECA1"/>
<path d="M7.49885 7.59211H6.19907L6.19907 6.2738H7.49885L7.49885 7.59211Z" fill="#DCECA1"/>
<path d="M7.49885 6.2738H6.19907L6.19907 4.95549H7.49885L7.49885 6.2738Z" fill="#DCECA1"/>
<path d="M8.79862 6.2738H7.49885L7.49885 4.95549H8.79862L8.79862 6.2738Z" fill="#DCECA1"/>
<path d="M6.19907 12.8653H4.8993L4.8993 11.547H6.19907L6.19907 12.8653Z" fill="#DCECA1"/>
<path d="M6.19907 4.95549H4.8993L4.8993 3.63718H6.19907L6.19907 4.95549Z" fill="#DCECA1"/>
<path d="M6.19907 11.547H4.8993L4.8993 10.2287H6.19907L6.19907 11.547Z" fill="#DCECA1"/>
<path d="M6.19907 10.2287H4.8993L4.8993 8.91041H6.19907L6.19907 10.2287Z" fill="#DCECA1"/>
<path d="M6.19907 7.59211H4.8993L4.8993 6.2738H6.19907L6.19907 7.59211Z" fill="#DCECA1"/>
<path d="M6.19907 6.2738H4.8993L4.8993 4.95549H6.19907L6.19907 6.2738Z" fill="#DCECA1"/>
<path d="M6.19907 8.91041H4.8993L4.8993 7.59211H6.19907L6.19907 8.91041Z" fill="#DCECA1"/>
<path d="M4.8993 11.547H3.59953L3.59953 10.2287H4.8993L4.8993 11.547Z" fill="#DCECA1"/>
<path d="M4.8993 10.2287H3.59953L3.59953 8.91041H4.8993L4.8993 10.2287Z" fill="#DCECA1"/>
<path d="M4.8993 7.59211H3.59953L3.59953 6.2738H4.8993L4.8993 7.59211Z" fill="#DCECA1"/>
<path d="M4.8993 6.2738H3.59953L3.59953 4.95549H4.8993L4.8993 6.2738Z" fill="#DCECA1"/>
<path d="M4.8993 8.91041H3.59953L3.59953 7.59211H4.8993L4.8993 8.91041Z" fill="#DCECA1"/>
<path d="M3.59953 10.2287H2.29976L2.29976 8.91041H3.59953L3.59953 10.2287Z" fill="#DCECA1"/>
<path d="M2.29976 8.91041H0.999986L0.999986 7.59211H2.29976L2.29976 8.91041Z" fill="#DCECA1"/>
<path d="M3.59953 8.91041H2.29976L2.29976 7.59211H3.59953L3.59953 8.91041Z" fill="#DCECA1"/>
<path d="M3.59953 7.59211H2.29976L2.29976 6.2738H3.59953L3.59953 7.59211Z" fill="#DCECA1"/>
<path d="M8.79862 15.502H7.49885L7.49885 14.1836H8.79862L8.79862 15.502Z" fill="#DCECA1"/>
<path d="M8.79862 2.31888H7.49885L7.49885 1.00057H8.79862L8.79862 2.31888Z" fill="#DCECA1"/>
<path d="M10.0984 14.1836L10.0984 14.6836H10.5984L10.5984 14.1836H10.0984ZM10.0984 2.31888H10.5984L10.5984 1.81888H10.0984L10.0984 2.31888ZM10.0984 12.8653H10.5984L10.5984 12.3653H10.0984L10.0984 12.8653ZM10.0984 3.63718L10.0984 4.13718H10.5984L10.5984 3.63718H10.0984ZM8.79862 11.547H9.29862L9.29862 11.047H8.79862L8.79862 11.547ZM8.79862 4.95549L8.79862 5.45549H9.29862L9.29862 4.95549H8.79862ZM7.49885 14.1836H6.99885L6.99885 14.6836H7.49885L7.49885 14.1836ZM7.49885 2.31888L7.49885 1.81888H6.99885L6.99885 2.31888H7.49885ZM7.49885 10.2287H7.99885L7.99885 9.72872H7.49885L7.49885 10.2287ZM6.19907 12.8653H5.69907L5.69907 13.3653H6.19907L6.19907 12.8653ZM6.19907 3.63718L6.19907 3.13718H5.69907L5.69907 3.63718H6.19907ZM6.19907 8.91041H6.69907L6.69907 8.41041H6.19907L6.19907 8.91041ZM6.19907 7.59211L6.19907 8.09211H6.69907L6.69907 7.59211H6.19907ZM7.49885 6.2738L7.49885 6.7738H7.99885L7.99885 6.2738H7.49885ZM4.8993 11.547H4.3993L4.3993 12.047H4.8993L4.8993 11.547ZM4.8993 4.95549L4.8993 4.45549H4.3993L4.3993 4.95549H4.8993ZM3.59953 10.2287H3.09953L3.09953 10.7287H3.59953L3.59953 10.2287ZM3.59953 6.2738L3.59953 5.7738H3.09953L3.09953 6.2738H3.59953ZM2.29976 8.91041H1.79976L1.79976 9.41041H2.29976L2.29976 8.91041ZM2.29976 7.59211L2.29976 7.09211H1.79976L1.79976 7.59211H2.29976ZM9.29862 15.502L9.29862 14.1836H8.29862L8.29862 15.502H9.29862ZM8.79862 14.6836H10.0984L10.0984 13.6836H8.79862L8.79862 14.6836ZM10.0984 1.81888H8.79862L8.79862 2.81888H10.0984L10.0984 1.81888ZM9.29862 2.31888L9.29862 1.00057H8.29862L8.29862 2.31888H9.29862ZM10.5984 14.1836L10.5984 12.8653H9.59839L9.59839 14.1836H10.5984ZM10.5984 3.63718L10.5984 2.31888H9.59839L9.59839 3.63718H10.5984ZM9.29862 14.1836L9.29862 12.8653H8.29862L8.29862 14.1836H9.29862ZM8.79862 13.3653H10.0984L10.0984 12.3653H8.79862L8.79862 13.3653ZM10.0984 3.13718H8.79862L8.79862 4.13718H10.0984L10.0984 3.13718ZM9.29862 3.63718L9.29862 2.31888H8.29862L8.29862 3.63718H9.29862ZM9.29862 12.8653L9.29862 11.547H8.29862L8.29862 12.8653H9.29862ZM9.29862 4.95549L9.29862 3.63718H8.29862L8.29862 4.95549H9.29862ZM8.79862 13.6836H7.49885L7.49885 14.6836H8.79862L8.79862 13.6836ZM7.99885 14.1836L7.99885 12.8653H6.99885L6.99885 14.1836H7.99885ZM7.49885 13.3653H8.79862L8.79862 12.3653H7.49885L7.49885 13.3653ZM8.79862 3.13718H7.49885L7.49885 4.13718H8.79862L8.79862 3.13718ZM7.99885 3.63718L7.99885 2.31888H6.99885L6.99885 3.63718H7.99885ZM7.49885 2.81888H8.79862L8.79862 1.81888H7.49885L7.49885 2.81888ZM7.99885 12.8653L7.99885 11.547H6.99885L6.99885 12.8653H7.99885ZM7.49885 12.047H8.79862L8.79862 11.047H7.49885L7.49885 12.047ZM8.79862 4.45549H7.49885L7.49885 5.45549H8.79862L8.79862 4.45549ZM7.99885 4.95549L7.99885 3.63718H6.99885L6.99885 4.95549H7.99885ZM7.99885 11.547L7.99885 10.2287H6.99885L6.99885 11.547H7.99885ZM6.19907 13.3653H7.49885L7.49885 12.3653H6.19907L6.19907 13.3653ZM7.49885 3.13718H6.19907L6.19907 4.13718H7.49885L7.49885 3.13718ZM6.69907 12.8653L6.69907 11.547H5.69907L5.69907 12.8653H6.69907ZM6.19907 12.047H7.49885L7.49885 11.047H6.19907L6.19907 12.047ZM7.49885 4.45549H6.19907L6.19907 5.45549H7.49885L7.49885 4.45549ZM6.69907 4.95549L6.69907 3.63718H5.69907L5.69907 4.95549H6.69907ZM6.69907 11.547L6.69907 10.2287H5.69907L5.69907 11.547H6.69907ZM6.19907 10.7287H7.49885L7.49885 9.72872H6.19907L6.19907 10.7287ZM6.69907 10.2287L6.69907 8.91041H5.69907L5.69907 10.2287H6.69907ZM6.69907 7.59211L6.69907 6.2738H5.69907L5.69907 7.59211H6.69907ZM6.19907 6.7738H7.49885L7.49885 5.7738H6.19907L6.19907 6.7738ZM6.69907 6.2738L6.69907 4.95549H5.69907L5.69907 6.2738H6.69907ZM6.99885 4.95549L6.99885 6.2738H7.99885L7.99885 4.95549H6.99885ZM4.8993 12.047H6.19907L6.19907 11.047H4.8993L4.8993 12.047ZM6.19907 4.45549H4.8993L4.8993 5.45549H6.19907L6.19907 4.45549ZM5.3993 11.547L5.3993 10.2287H4.3993L4.3993 11.547H5.3993ZM4.8993 10.7287H6.19907L6.19907 9.72872H4.8993L4.8993 10.7287ZM5.3993 10.2287L5.3993 8.91041H4.3993L4.3993 10.2287H5.3993ZM4.8993 9.41041H6.19907L6.19907 8.41041H4.8993L4.8993 9.41041ZM6.19907 7.09211H4.8993L4.8993 8.09211H6.19907L6.19907 7.09211ZM5.3993 7.59211L5.3993 6.2738H4.3993L4.3993 7.59211H5.3993ZM4.8993 6.7738H6.19907L6.19907 5.7738H4.8993L4.8993 6.7738ZM5.3993 6.2738L5.3993 4.95549H4.3993L4.3993 6.2738H5.3993ZM5.3993 8.91041L5.3993 7.59211H4.3993L4.3993 8.91041H5.3993ZM3.59953 10.7287H4.8993L4.8993 9.72872H3.59953L3.59953 10.7287ZM4.09953 10.2287L4.09953 8.91041H3.09953L3.09953 10.2287H4.09953ZM3.59953 9.41041H4.8993L4.8993 8.41041H3.59953L3.59953 9.41041ZM4.8993 7.09211H3.59953L3.59953 8.09211H4.8993L4.8993 7.09211ZM4.09953 7.59211L4.09953 6.2738H3.09953L3.09953 7.59211H4.09953ZM3.59953 6.7738H4.8993L4.8993 5.7738H3.59953L3.59953 6.7738ZM4.09953 8.91041L4.09953 7.59211H3.09953L3.09953 8.91041H4.09953ZM2.29976 9.41041H3.59953L3.59953 8.41041H2.29976L2.29976 9.41041ZM1.79976 7.59211L1.79976 8.91041H2.79976L2.79976 7.59211H1.79976ZM2.29976 8.09211H3.59953L3.59953 7.09211H2.29976L2.29976 8.09211ZM10.0984 15.502L10.0984 16.502H11.0984L11.0984 15.502H10.0984ZM10.0984 14.1836L10.0984 13.1836H9.09839L9.09839 14.1836H10.0984ZM10.0984 2.31888H9.09839L9.09839 3.31888H10.0984L10.0984 2.31888ZM10.0984 1.00057H11.0984L11.0984 0.00056839H10.0984L10.0984 1.00057ZM11.3982 14.1836L11.3982 15.1836H12.3982L12.3982 14.1836H11.3982ZM10.0984 12.8653H9.09839L9.09839 13.8653H10.0984L10.0984 12.8653ZM11.3982 12.8653H12.3982L12.3982 11.8653H11.3982L11.3982 12.8653ZM11.3982 3.63718L11.3982 4.63718H12.3982L12.3982 3.63718H11.3982ZM10.0984 3.63718L10.0984 2.63718H9.09839L9.09839 3.63718H10.0984ZM11.3982 2.31888H12.3982L12.3982 1.31888H11.3982L11.3982 2.31888ZM8.79862 11.547H7.79862L7.79862 12.547H8.79862L8.79862 11.547ZM10.0984 11.547H11.0984L11.0984 10.547H10.0984L10.0984 11.547ZM10.0984 4.95549L10.0984 5.95549H11.0984L11.0984 4.95549H10.0984ZM8.79862 4.95549L8.79862 3.95549H7.79862L7.79862 4.95549H8.79862ZM7.49885 14.1836H8.49885L8.49885 13.1836H7.49885L7.49885 14.1836ZM7.49885 2.31888L7.49885 3.31888H8.49885L8.49885 2.31888H7.49885ZM7.49885 10.2287H6.49885L6.49885 11.2287H7.49885L7.49885 10.2287ZM8.79862 10.2287H9.79862L9.79862 9.22872H8.79862L8.79862 10.2287ZM6.19907 14.1836H5.19907L5.19907 15.1836H6.19907L6.19907 14.1836ZM6.19907 12.8653H7.19907L7.19907 11.8653H6.19907L6.19907 12.8653ZM6.19907 3.63718L6.19907 4.63718H7.19907L7.19907 3.63718H6.19907ZM6.19907 2.31888L6.19907 1.31888H5.19907L5.19907 2.31888H6.19907ZM6.19907 8.91041H5.19907L5.19907 9.91041H6.19907L6.19907 8.91041ZM7.49885 8.91041H8.49885L8.49885 7.91041H7.49885L7.49885 8.91041ZM7.49885 7.59211L7.49885 8.59211H8.49885L8.49885 7.59211H7.49885ZM6.19907 7.59211L6.19907 6.59211H5.19907L5.19907 7.59211H6.19907ZM7.49885 6.2738L7.49885 5.2738H6.49885L6.49885 6.2738H7.49885ZM8.79862 6.2738L8.79862 7.2738H9.79862L9.79862 6.2738H8.79862ZM4.8993 12.8653H3.8993L3.8993 13.8653H4.8993L4.8993 12.8653ZM4.8993 11.547H5.8993L5.8993 10.547H4.8993L4.8993 11.547ZM4.8993 4.95549L4.8993 5.95549H5.8993L5.8993 4.95549H4.8993ZM4.8993 3.63718L4.8993 2.63718H3.8993L3.8993 3.63718H4.8993ZM3.59953 11.547H2.59953L2.59953 12.547H3.59953L3.59953 11.547ZM3.59953 10.2287H4.59953L4.59953 9.22872H3.59953L3.59953 10.2287ZM3.59953 6.2738L3.59953 7.2738H4.59953L4.59953 6.2738H3.59953ZM3.59953 4.95549L3.59953 3.95549H2.59953L2.59953 4.95549H3.59953ZM2.29976 10.2287H1.29976L1.29976 11.2287H2.29976L2.29976 10.2287ZM2.29976 8.91041H3.29976L3.29976 7.91041H2.29976L2.29976 8.91041ZM0.999986 8.91041H-1.42867e-05L-1.42895e-05 9.91041H0.999986L0.999986 8.91041ZM0.999986 7.59211L0.999986 6.59211H-1.42802e-05L-1.4283e-05 7.59211L0.999986 7.59211ZM2.29976 7.59211L2.29976 8.59211H3.29976L3.29976 7.59211H2.29976ZM2.29976 6.2738L2.29976 5.2738H1.29976L1.29976 6.2738H2.29976ZM7.49885 15.502H6.49885L6.49885 16.502H7.49885L7.49885 15.502ZM7.49885 1.00057L7.49885 0.00056839H6.49885L6.49885 1.00057H7.49885ZM10.0984 14.502H8.79862L8.79862 16.502H10.0984L10.0984 14.502ZM9.09839 14.1836L9.09839 15.502H11.0984L11.0984 14.1836H9.09839ZM8.79862 2.00057H10.0984L10.0984 0.00056839H8.79862L8.79862 2.00057ZM9.09839 1.00057L9.09839 2.31888H11.0984L11.0984 1.00057H9.09839ZM11.3982 13.1836H10.0984L10.0984 15.1836H11.3982L11.3982 13.1836ZM10.0984 13.8653H11.3982L11.3982 11.8653H10.0984L10.0984 13.8653ZM10.3982 12.8653L10.3982 14.1836H12.3982L12.3982 12.8653H10.3982ZM11.3982 2.63718H10.0984L10.0984 4.63718H11.3982L11.3982 2.63718ZM10.0984 3.31888H11.3982L11.3982 1.31888H10.0984L10.0984 3.31888ZM10.3982 2.31888L10.3982 3.63718H12.3982L12.3982 2.31888H10.3982ZM8.79862 12.547H10.0984L10.0984 10.547H8.79862L8.79862 12.547ZM9.09839 11.547L9.09839 12.8653H11.0984L11.0984 11.547H9.09839ZM10.0984 3.95549H8.79862L8.79862 5.95549H10.0984L10.0984 3.95549ZM9.09839 3.63718L9.09839 4.95549H11.0984L11.0984 3.63718H9.09839ZM7.49885 11.2287H8.79862L8.79862 9.22872H7.49885L7.49885 11.2287ZM7.79862 10.2287L7.79862 11.547H9.79862L9.79862 10.2287H7.79862ZM7.49885 13.1836H6.19907L6.19907 15.1836H7.49885L7.49885 13.1836ZM7.19907 14.1836L7.19907 12.8653H5.19907L5.19907 14.1836H7.19907ZM7.19907 3.63718L7.19907 2.31888H5.19907L5.19907 3.63718H7.19907ZM6.19907 3.31888H7.49885L7.49885 1.31888H6.19907L6.19907 3.31888ZM6.19907 9.91041H7.49885L7.49885 7.91041H6.19907L6.19907 9.91041ZM6.49885 8.91041L6.49885 10.2287H8.49885L8.49885 8.91041H6.49885ZM7.49885 6.59211H6.19907L6.19907 8.59211H7.49885L7.49885 6.59211ZM6.49885 6.2738L6.49885 7.59211H8.49885L8.49885 6.2738H6.49885ZM8.79862 5.2738H7.49885L7.49885 7.2738H8.79862L8.79862 5.2738ZM7.79862 4.95549L7.79862 6.2738H9.79862L9.79862 4.95549H7.79862ZM6.19907 11.8653H4.8993L4.8993 13.8653H6.19907L6.19907 11.8653ZM5.8993 12.8653L5.8993 11.547H3.8993L3.8993 12.8653H5.8993ZM5.8993 4.95549L5.8993 3.63718H3.8993L3.8993 4.95549H5.8993ZM4.8993 4.63718H6.19907L6.19907 2.63718H4.8993L4.8993 4.63718ZM5.19907 7.59211L5.19907 8.91041H7.19907L7.19907 7.59211H5.19907ZM4.8993 10.547H3.59953L3.59953 12.547H4.8993L4.8993 10.547ZM4.59953 11.547L4.59953 10.2287H2.59953L2.59953 11.547H4.59953ZM4.59953 6.2738L4.59953 4.95549H2.59953L2.59953 6.2738H4.59953ZM3.59953 5.95549H4.8993L4.8993 3.95549H3.59953L3.59953 5.95549ZM3.59953 9.22872H2.29976L2.29976 11.2287H3.59953L3.59953 9.22872ZM3.29976 10.2287L3.29976 8.91041H1.29976L1.29976 10.2287H3.29976ZM2.29976 7.91041H0.999986L0.999986 9.91041H2.29976L2.29976 7.91041ZM1.99999 8.91041L1.99999 7.59211L-1.4283e-05 7.59211L-1.42867e-05 8.91041H1.99999ZM0.999986 8.59211H2.29976L2.29976 6.59211H0.999986L0.999986 8.59211ZM3.29976 7.59211L3.29976 6.2738H1.29976L1.29976 7.59211H3.29976ZM2.29976 7.2738H3.59953L3.59953 5.2738H2.29976L2.29976 7.2738ZM8.79862 14.502H7.49885L7.49885 16.502H8.79862L8.79862 14.502ZM8.49885 15.502L8.49885 14.1836H6.49885L6.49885 15.502H8.49885ZM8.49885 2.31888L8.49885 1.00057H6.49885L6.49885 2.31888H8.49885ZM7.49885 2.00057H8.79862L8.79862 0.00056839H7.49885L7.49885 2.00057Z" fill="#131313" mask="url(#path-1-outside-1_112_13088)"/>
</g>
</svg>
