<svg width="13" height="17" viewBox="0 0 13 17" fill="none" xmlns="http://www.w3.org/2000/svg">
<g id="Vector">
<mask id="path-1-outside-1_111_12392" maskUnits="userSpaceOnUse" x="-0.601807" y="-0.498047" width="13" height="17" fill="black">
<rect fill="white" x="-0.601807" y="-0.498047" width="13" height="17"/>
<path d="M10.0984 15.502H8.79865L8.79865 14.1836H10.0984L10.0984 15.502Z"/>
<path d="M10.0984 2.31888H8.79865L8.79865 1.00057H10.0984L10.0984 2.31888Z"/>
<path d="M11.3982 14.1836H10.0984L10.0984 12.8653H11.3982L11.3982 14.1836Z"/>
<path d="M11.3982 3.63718H10.0984L10.0984 2.31888H11.3982L11.3982 3.63718Z"/>
<path d="M10.0984 14.1836H8.79865L8.79865 12.8653H10.0984L10.0984 14.1836Z"/>
<path d="M10.0984 3.63718H8.79865L8.79865 2.31888H10.0984L10.0984 3.63718Z"/>
<path d="M10.0984 12.8653H8.79865L8.79865 11.547H10.0984L10.0984 12.8653Z"/>
<path d="M10.0984 4.95549H8.79865L8.79865 3.63718H10.0984L10.0984 4.95549Z"/>
<path d="M8.79865 14.1836H7.49888L7.49888 12.8653H8.79865L8.79865 14.1836Z"/>
<path d="M8.79865 3.63718H7.49888L7.49888 2.31888H8.79865L8.79865 3.63718Z"/>
<path d="M8.79865 12.8653H7.49888L7.49888 11.547H8.79865L8.79865 12.8653Z"/>
<path d="M8.79865 4.95549H7.49888L7.49888 3.63718H8.79865L8.79865 4.95549Z"/>
<path d="M8.79865 11.547H7.49888L7.49888 10.2287H8.79865L8.79865 11.547Z"/>
<path d="M7.49888 14.1836H6.1991L6.1991 12.8653H7.49888L7.49888 14.1836Z"/>
<path d="M7.49888 3.63718H6.1991L6.1991 2.31888H7.49888L7.49888 3.63718Z"/>
<path d="M7.49888 12.8653H6.1991L6.1991 11.547H7.49888L7.49888 12.8653Z"/>
<path d="M7.49888 4.95549H6.1991L6.1991 3.63718H7.49888L7.49888 4.95549Z"/>
<path d="M7.49888 11.547H6.1991L6.1991 10.2287H7.49888L7.49888 11.547Z"/>
<path d="M7.49888 10.2287H6.1991L6.1991 8.91041H7.49888L7.49888 10.2287Z"/>
<path d="M7.49888 7.59211H6.1991L6.1991 6.2738H7.49888L7.49888 7.59211Z"/>
<path d="M7.49888 6.2738H6.1991L6.1991 4.95549H7.49888L7.49888 6.2738Z"/>
<path d="M8.79865 6.2738H7.49888L7.49888 4.95549H8.79865L8.79865 6.2738Z"/>
<path d="M6.1991 12.8653H4.89933L4.89933 11.547H6.1991L6.1991 12.8653Z"/>
<path d="M6.1991 4.95549H4.89933L4.89933 3.63718H6.1991L6.1991 4.95549Z"/>
<path d="M6.1991 11.547H4.89933L4.89933 10.2287H6.1991L6.1991 11.547Z"/>
<path d="M6.1991 10.2287H4.89933L4.89933 8.91041H6.1991L6.1991 10.2287Z"/>
<path d="M6.1991 7.59211H4.89933L4.89933 6.2738H6.1991L6.1991 7.59211Z"/>
<path d="M6.1991 6.2738H4.89933L4.89933 4.95549H6.1991L6.1991 6.2738Z"/>
<path d="M6.1991 8.91041H4.89933L4.89933 7.59211H6.1991L6.1991 8.91041Z"/>
<path d="M4.89933 11.547H3.59956L3.59956 10.2287H4.89933L4.89933 11.547Z"/>
<path d="M4.89933 10.2287H3.59956L3.59956 8.91041H4.89933L4.89933 10.2287Z"/>
<path d="M4.89933 7.59211H3.59956L3.59956 6.2738H4.89933L4.89933 7.59211Z"/>
<path d="M4.89933 6.2738H3.59956L3.59956 4.95549H4.89933L4.89933 6.2738Z"/>
<path d="M4.89933 8.91041H3.59956L3.59956 7.59211H4.89933L4.89933 8.91041Z"/>
<path d="M3.59956 10.2287H2.29979L2.29979 8.91041H3.59956L3.59956 10.2287Z"/>
<path d="M2.29979 8.91041H1.00002L1.00002 7.59211H2.29979L2.29979 8.91041Z"/>
<path d="M3.59956 8.91041H2.29979L2.29979 7.59211H3.59956L3.59956 8.91041Z"/>
<path d="M3.59956 7.59211H2.29979L2.29979 6.2738H3.59956L3.59956 7.59211Z"/>
<path d="M8.79865 15.502H7.49888L7.49888 14.1836H8.79865L8.79865 15.502Z"/>
<path d="M8.79865 2.31888H7.49888L7.49888 1.00057H8.79865L8.79865 2.31888Z"/>
</mask>
<path d="M10.0984 15.502H8.79865L8.79865 14.1836H10.0984L10.0984 15.502Z" fill="#FCD290"/>
<path d="M10.0984 2.31888H8.79865L8.79865 1.00057H10.0984L10.0984 2.31888Z" fill="#FCD290"/>
<path d="M11.3982 14.1836H10.0984L10.0984 12.8653H11.3982L11.3982 14.1836Z" fill="#FCD290"/>
<path d="M11.3982 3.63718H10.0984L10.0984 2.31888H11.3982L11.3982 3.63718Z" fill="#FCD290"/>
<path d="M10.0984 14.1836H8.79865L8.79865 12.8653H10.0984L10.0984 14.1836Z" fill="#FCD290"/>
<path d="M10.0984 3.63718H8.79865L8.79865 2.31888H10.0984L10.0984 3.63718Z" fill="#FCD290"/>
<path d="M10.0984 12.8653H8.79865L8.79865 11.547H10.0984L10.0984 12.8653Z" fill="#FCD290"/>
<path d="M10.0984 4.95549H8.79865L8.79865 3.63718H10.0984L10.0984 4.95549Z" fill="#FCD290"/>
<path d="M8.79865 14.1836H7.49888L7.49888 12.8653H8.79865L8.79865 14.1836Z" fill="#FCD290"/>
<path d="M8.79865 3.63718H7.49888L7.49888 2.31888H8.79865L8.79865 3.63718Z" fill="#FCD290"/>
<path d="M8.79865 12.8653H7.49888L7.49888 11.547H8.79865L8.79865 12.8653Z" fill="#FCD290"/>
<path d="M8.79865 4.95549H7.49888L7.49888 3.63718H8.79865L8.79865 4.95549Z" fill="#FCD290"/>
<path d="M8.79865 11.547H7.49888L7.49888 10.2287H8.79865L8.79865 11.547Z" fill="#FCD290"/>
<path d="M7.49888 14.1836H6.1991L6.1991 12.8653H7.49888L7.49888 14.1836Z" fill="#FCD290"/>
<path d="M7.49888 3.63718H6.1991L6.1991 2.31888H7.49888L7.49888 3.63718Z" fill="#FCD290"/>
<path d="M7.49888 12.8653H6.1991L6.1991 11.547H7.49888L7.49888 12.8653Z" fill="#FCD290"/>
<path d="M7.49888 4.95549H6.1991L6.1991 3.63718H7.49888L7.49888 4.95549Z" fill="#FCD290"/>
<path d="M7.49888 11.547H6.1991L6.1991 10.2287H7.49888L7.49888 11.547Z" fill="#FCD290"/>
<path d="M7.49888 10.2287H6.1991L6.1991 8.91041H7.49888L7.49888 10.2287Z" fill="#FCD290"/>
<path d="M7.49888 7.59211H6.1991L6.1991 6.2738H7.49888L7.49888 7.59211Z" fill="#FCD290"/>
<path d="M7.49888 6.2738H6.1991L6.1991 4.95549H7.49888L7.49888 6.2738Z" fill="#FCD290"/>
<path d="M8.79865 6.2738H7.49888L7.49888 4.95549H8.79865L8.79865 6.2738Z" fill="#FCD290"/>
<path d="M6.1991 12.8653H4.89933L4.89933 11.547H6.1991L6.1991 12.8653Z" fill="#FCD290"/>
<path d="M6.1991 4.95549H4.89933L4.89933 3.63718H6.1991L6.1991 4.95549Z" fill="#FCD290"/>
<path d="M6.1991 11.547H4.89933L4.89933 10.2287H6.1991L6.1991 11.547Z" fill="#FCD290"/>
<path d="M6.1991 10.2287H4.89933L4.89933 8.91041H6.1991L6.1991 10.2287Z" fill="#FCD290"/>
<path d="M6.1991 7.59211H4.89933L4.89933 6.2738H6.1991L6.1991 7.59211Z" fill="#FCD290"/>
<path d="M6.1991 6.2738H4.89933L4.89933 4.95549H6.1991L6.1991 6.2738Z" fill="#FCD290"/>
<path d="M6.1991 8.91041H4.89933L4.89933 7.59211H6.1991L6.1991 8.91041Z" fill="#FCD290"/>
<path d="M4.89933 11.547H3.59956L3.59956 10.2287H4.89933L4.89933 11.547Z" fill="#FCD290"/>
<path d="M4.89933 10.2287H3.59956L3.59956 8.91041H4.89933L4.89933 10.2287Z" fill="#FCD290"/>
<path d="M4.89933 7.59211H3.59956L3.59956 6.2738H4.89933L4.89933 7.59211Z" fill="#FCD290"/>
<path d="M4.89933 6.2738H3.59956L3.59956 4.95549H4.89933L4.89933 6.2738Z" fill="#FCD290"/>
<path d="M4.89933 8.91041H3.59956L3.59956 7.59211H4.89933L4.89933 8.91041Z" fill="#FCD290"/>
<path d="M3.59956 10.2287H2.29979L2.29979 8.91041H3.59956L3.59956 10.2287Z" fill="#FCD290"/>
<path d="M2.29979 8.91041H1.00002L1.00002 7.59211H2.29979L2.29979 8.91041Z" fill="#FCD290"/>
<path d="M3.59956 8.91041H2.29979L2.29979 7.59211H3.59956L3.59956 8.91041Z" fill="#FCD290"/>
<path d="M3.59956 7.59211H2.29979L2.29979 6.2738H3.59956L3.59956 7.59211Z" fill="#FCD290"/>
<path d="M8.79865 15.502H7.49888L7.49888 14.1836H8.79865L8.79865 15.502Z" fill="#FCD290"/>
<path d="M8.79865 2.31888H7.49888L7.49888 1.00057H8.79865L8.79865 2.31888Z" fill="#FCD290"/>
<path d="M10.0984 14.1836L10.0984 14.6836H10.5984L10.5984 14.1836H10.0984ZM10.0984 2.31888H10.5984L10.5984 1.81888H10.0984L10.0984 2.31888ZM10.0984 12.8653H10.5984L10.5984 12.3653H10.0984L10.0984 12.8653ZM10.0984 3.63718L10.0984 4.13718H10.5984L10.5984 3.63718H10.0984ZM8.79865 11.547H9.29865L9.29865 11.047H8.79865L8.79865 11.547ZM8.79865 4.95549L8.79865 5.45549H9.29865L9.29865 4.95549H8.79865ZM7.49888 14.1836H6.99888L6.99888 14.6836H7.49888L7.49888 14.1836ZM7.49888 2.31888L7.49888 1.81888H6.99888L6.99888 2.31888H7.49888ZM7.49888 10.2287H7.99888L7.99888 9.72872H7.49888L7.49888 10.2287ZM6.1991 12.8653H5.6991L5.6991 13.3653H6.1991L6.1991 12.8653ZM6.1991 3.63718L6.1991 3.13718H5.6991L5.6991 3.63718H6.1991ZM6.1991 8.91041H6.6991L6.6991 8.41041H6.1991L6.1991 8.91041ZM6.1991 7.59211L6.1991 8.09211H6.6991L6.6991 7.59211H6.1991ZM7.49888 6.2738L7.49888 6.7738H7.99888L7.99888 6.2738H7.49888ZM4.89933 11.547H4.39933L4.39933 12.047H4.89933L4.89933 11.547ZM4.89933 4.95549L4.89933 4.45549H4.39933L4.39933 4.95549H4.89933ZM3.59956 10.2287H3.09956L3.09956 10.7287H3.59956L3.59956 10.2287ZM3.59956 6.2738L3.59956 5.7738H3.09956L3.09956 6.2738H3.59956ZM2.29979 8.91041H1.79979L1.79979 9.41041H2.29979L2.29979 8.91041ZM2.29979 7.59211L2.29979 7.09211H1.79979L1.79979 7.59211H2.29979ZM9.29865 15.502L9.29865 14.1836H8.29865L8.29865 15.502H9.29865ZM8.79865 14.6836H10.0984L10.0984 13.6836H8.79865L8.79865 14.6836ZM10.0984 1.81888H8.79865L8.79865 2.81888H10.0984L10.0984 1.81888ZM9.29865 2.31888L9.29865 1.00057H8.29865L8.29865 2.31888H9.29865ZM10.5984 14.1836L10.5984 12.8653H9.59842L9.59842 14.1836H10.5984ZM10.5984 3.63718L10.5984 2.31888H9.59842L9.59842 3.63718H10.5984ZM9.29865 14.1836L9.29865 12.8653H8.29865L8.29865 14.1836H9.29865ZM8.79865 13.3653H10.0984L10.0984 12.3653H8.79865L8.79865 13.3653ZM10.0984 3.13718H8.79865L8.79865 4.13718H10.0984L10.0984 3.13718ZM9.29865 3.63718L9.29865 2.31888H8.29865L8.29865 3.63718H9.29865ZM9.29865 12.8653L9.29865 11.547H8.29865L8.29865 12.8653H9.29865ZM9.29865 4.95549L9.29865 3.63718H8.29865L8.29865 4.95549H9.29865ZM8.79865 13.6836H7.49888L7.49888 14.6836H8.79865L8.79865 13.6836ZM7.99888 14.1836L7.99888 12.8653H6.99888L6.99888 14.1836H7.99888ZM7.49888 13.3653H8.79865L8.79865 12.3653H7.49888L7.49888 13.3653ZM8.79865 3.13718H7.49888L7.49888 4.13718H8.79865L8.79865 3.13718ZM7.99888 3.63718L7.99888 2.31888H6.99888L6.99888 3.63718H7.99888ZM7.49888 2.81888H8.79865L8.79865 1.81888H7.49888L7.49888 2.81888ZM7.99888 12.8653L7.99888 11.547H6.99888L6.99888 12.8653H7.99888ZM7.49888 12.047H8.79865L8.79865 11.047H7.49888L7.49888 12.047ZM8.79865 4.45549H7.49888L7.49888 5.45549H8.79865L8.79865 4.45549ZM7.99888 4.95549L7.99888 3.63718H6.99888L6.99888 4.95549H7.99888ZM7.99888 11.547L7.99888 10.2287H6.99888L6.99888 11.547H7.99888ZM6.1991 13.3653H7.49888L7.49888 12.3653H6.1991L6.1991 13.3653ZM7.49888 3.13718H6.1991L6.1991 4.13718H7.49888L7.49888 3.13718ZM6.6991 12.8653L6.6991 11.547H5.6991L5.6991 12.8653H6.6991ZM6.1991 12.047H7.49888L7.49888 11.047H6.1991L6.1991 12.047ZM7.49888 4.45549H6.1991L6.1991 5.45549H7.49888L7.49888 4.45549ZM6.6991 4.95549L6.6991 3.63718H5.6991L5.6991 4.95549H6.6991ZM6.6991 11.547L6.6991 10.2287H5.6991L5.6991 11.547H6.6991ZM6.1991 10.7287H7.49888L7.49888 9.72872H6.1991L6.1991 10.7287ZM6.6991 10.2287L6.6991 8.91041H5.6991L5.6991 10.2287H6.6991ZM6.6991 7.59211L6.6991 6.2738H5.6991L5.6991 7.59211H6.6991ZM6.1991 6.7738H7.49888L7.49888 5.7738H6.1991L6.1991 6.7738ZM6.6991 6.2738L6.6991 4.95549H5.6991L5.6991 6.2738H6.6991ZM6.99888 4.95549L6.99888 6.2738H7.99888L7.99888 4.95549H6.99888ZM4.89933 12.047H6.1991L6.1991 11.047H4.89933L4.89933 12.047ZM6.1991 4.45549H4.89933L4.89933 5.45549H6.1991L6.1991 4.45549ZM5.39933 11.547L5.39933 10.2287H4.39933L4.39933 11.547H5.39933ZM4.89933 10.7287H6.1991L6.1991 9.72872H4.89933L4.89933 10.7287ZM5.39933 10.2287L5.39933 8.91041H4.39933L4.39933 10.2287H5.39933ZM4.89933 9.41041H6.1991L6.1991 8.41041H4.89933L4.89933 9.41041ZM6.1991 7.09211H4.89933L4.89933 8.09211H6.1991L6.1991 7.09211ZM5.39933 7.59211L5.39933 6.2738H4.39933L4.39933 7.59211H5.39933ZM4.89933 6.7738H6.1991L6.1991 5.7738H4.89933L4.89933 6.7738ZM5.39933 6.2738L5.39933 4.95549H4.39933L4.39933 6.2738H5.39933ZM5.39933 8.91041L5.39933 7.59211H4.39933L4.39933 8.91041H5.39933ZM3.59956 10.7287H4.89933L4.89933 9.72872H3.59956L3.59956 10.7287ZM4.09956 10.2287L4.09956 8.91041H3.09956L3.09956 10.2287H4.09956ZM3.59956 9.41041H4.89933L4.89933 8.41041H3.59956L3.59956 9.41041ZM4.89933 7.09211H3.59956L3.59956 8.09211H4.89933L4.89933 7.09211ZM4.09956 7.59211L4.09956 6.2738H3.09956L3.09956 7.59211H4.09956ZM3.59956 6.7738H4.89933L4.89933 5.7738H3.59956L3.59956 6.7738ZM4.09956 8.91041L4.09956 7.59211H3.09956L3.09956 8.91041H4.09956ZM2.29979 9.41041H3.59956L3.59956 8.41041H2.29979L2.29979 9.41041ZM1.79979 7.59211L1.79979 8.91041H2.79979L2.79979 7.59211H1.79979ZM2.29979 8.09211H3.59956L3.59956 7.09211H2.29979L2.29979 8.09211ZM10.0984 15.502L10.0984 16.502H11.0984L11.0984 15.502H10.0984ZM10.0984 14.1836L10.0984 13.1836H9.09842L9.09842 14.1836H10.0984ZM10.0984 2.31888H9.09842L9.09842 3.31888H10.0984L10.0984 2.31888ZM10.0984 1.00057H11.0984L11.0984 0.00056839H10.0984L10.0984 1.00057ZM11.3982 14.1836L11.3982 15.1836H12.3982L12.3982 14.1836H11.3982ZM10.0984 12.8653H9.09842L9.09842 13.8653H10.0984L10.0984 12.8653ZM11.3982 12.8653H12.3982L12.3982 11.8653H11.3982L11.3982 12.8653ZM11.3982 3.63718L11.3982 4.63718H12.3982L12.3982 3.63718H11.3982ZM10.0984 3.63718L10.0984 2.63718H9.09842L9.09842 3.63718H10.0984ZM11.3982 2.31888H12.3982L12.3982 1.31888H11.3982L11.3982 2.31888ZM8.79865 11.547H7.79865L7.79865 12.547H8.79865L8.79865 11.547ZM10.0984 11.547H11.0984L11.0984 10.547H10.0984L10.0984 11.547ZM10.0984 4.95549L10.0984 5.95549H11.0984L11.0984 4.95549H10.0984ZM8.79865 4.95549L8.79865 3.95549H7.79865L7.79865 4.95549H8.79865ZM7.49888 14.1836H8.49888L8.49888 13.1836H7.49888L7.49888 14.1836ZM7.49888 2.31888L7.49888 3.31888H8.49888L8.49888 2.31888H7.49888ZM7.49888 10.2287H6.49888L6.49888 11.2287H7.49888L7.49888 10.2287ZM8.79865 10.2287H9.79865L9.79865 9.22872H8.79865L8.79865 10.2287ZM6.1991 14.1836H5.1991L5.1991 15.1836H6.1991L6.1991 14.1836ZM6.1991 12.8653H7.1991L7.1991 11.8653H6.1991L6.1991 12.8653ZM6.1991 3.63718L6.1991 4.63718H7.1991L7.1991 3.63718H6.1991ZM6.1991 2.31888L6.1991 1.31888H5.1991L5.1991 2.31888H6.1991ZM6.1991 8.91041H5.1991L5.1991 9.91041H6.1991L6.1991 8.91041ZM7.49888 8.91041H8.49888L8.49888 7.91041H7.49888L7.49888 8.91041ZM7.49888 7.59211L7.49888 8.59211H8.49888L8.49888 7.59211H7.49888ZM6.1991 7.59211L6.1991 6.59211H5.1991L5.1991 7.59211H6.1991ZM7.49888 6.2738L7.49888 5.2738H6.49888L6.49888 6.2738H7.49888ZM8.79865 6.2738L8.79865 7.2738H9.79865L9.79865 6.2738H8.79865ZM4.89933 12.8653H3.89933L3.89933 13.8653H4.89933L4.89933 12.8653ZM4.89933 11.547H5.89933L5.89933 10.547H4.89933L4.89933 11.547ZM4.89933 4.95549L4.89933 5.95549H5.89933L5.89933 4.95549H4.89933ZM4.89933 3.63718L4.89933 2.63718H3.89933L3.89933 3.63718H4.89933ZM3.59956 11.547H2.59956L2.59956 12.547H3.59956L3.59956 11.547ZM3.59956 10.2287H4.59956L4.59956 9.22872H3.59956L3.59956 10.2287ZM3.59956 6.2738L3.59956 7.2738H4.59956L4.59956 6.2738H3.59956ZM3.59956 4.95549L3.59956 3.95549H2.59956L2.59956 4.95549H3.59956ZM2.29979 10.2287H1.29979L1.29979 11.2287H2.29979L2.29979 10.2287ZM2.29979 8.91041H3.29979L3.29979 7.91041H2.29979L2.29979 8.91041ZM1.00002 8.91041H1.62309e-05L1.62281e-05 9.91041H1.00002L1.00002 8.91041ZM1.00002 7.59211L1.00002 6.59211H1.62374e-05L1.62346e-05 7.59211L1.00002 7.59211ZM2.29979 7.59211L2.29979 8.59211H3.29979L3.29979 7.59211H2.29979ZM2.29979 6.2738L2.29979 5.2738H1.29979L1.29979 6.2738H2.29979ZM7.49888 15.502H6.49888L6.49888 16.502H7.49888L7.49888 15.502ZM7.49888 1.00057L7.49888 0.00056839H6.49888L6.49888 1.00057H7.49888ZM10.0984 14.502H8.79865L8.79865 16.502H10.0984L10.0984 14.502ZM9.09842 14.1836L9.09842 15.502H11.0984L11.0984 14.1836H9.09842ZM8.79865 2.00057H10.0984L10.0984 0.00056839H8.79865L8.79865 2.00057ZM9.09842 1.00057L9.09842 2.31888H11.0984L11.0984 1.00057H9.09842ZM11.3982 13.1836H10.0984L10.0984 15.1836H11.3982L11.3982 13.1836ZM10.0984 13.8653H11.3982L11.3982 11.8653H10.0984L10.0984 13.8653ZM10.3982 12.8653L10.3982 14.1836H12.3982L12.3982 12.8653H10.3982ZM11.3982 2.63718H10.0984L10.0984 4.63718H11.3982L11.3982 2.63718ZM10.0984 3.31888H11.3982L11.3982 1.31888H10.0984L10.0984 3.31888ZM10.3982 2.31888L10.3982 3.63718H12.3982L12.3982 2.31888H10.3982ZM8.79865 12.547H10.0984L10.0984 10.547H8.79865L8.79865 12.547ZM9.09842 11.547L9.09842 12.8653H11.0984L11.0984 11.547H9.09842ZM10.0984 3.95549H8.79865L8.79865 5.95549H10.0984L10.0984 3.95549ZM9.09842 3.63718L9.09842 4.95549H11.0984L11.0984 3.63718H9.09842ZM7.49888 11.2287H8.79865L8.79865 9.22872H7.49888L7.49888 11.2287ZM7.79865 10.2287L7.79865 11.547H9.79865L9.79865 10.2287H7.79865ZM7.49888 13.1836H6.1991L6.1991 15.1836H7.49888L7.49888 13.1836ZM7.1991 14.1836L7.1991 12.8653H5.1991L5.1991 14.1836H7.1991ZM7.1991 3.63718L7.1991 2.31888H5.1991L5.1991 3.63718H7.1991ZM6.1991 3.31888H7.49888L7.49888 1.31888H6.1991L6.1991 3.31888ZM6.1991 9.91041H7.49888L7.49888 7.91041H6.1991L6.1991 9.91041ZM6.49888 8.91041L6.49888 10.2287H8.49888L8.49888 8.91041H6.49888ZM7.49888 6.59211H6.1991L6.1991 8.59211H7.49888L7.49888 6.59211ZM6.49888 6.2738L6.49888 7.59211H8.49888L8.49888 6.2738H6.49888ZM8.79865 5.2738H7.49888L7.49888 7.2738H8.79865L8.79865 5.2738ZM7.79865 4.95549L7.79865 6.2738H9.79865L9.79865 4.95549H7.79865ZM6.1991 11.8653H4.89933L4.89933 13.8653H6.1991L6.1991 11.8653ZM5.89933 12.8653L5.89933 11.547H3.89933L3.89933 12.8653H5.89933ZM5.89933 4.95549L5.89933 3.63718H3.89933L3.89933 4.95549H5.89933ZM4.89933 4.63718H6.1991L6.1991 2.63718H4.89933L4.89933 4.63718ZM5.1991 7.59211L5.1991 8.91041H7.1991L7.1991 7.59211H5.1991ZM4.89933 10.547H3.59956L3.59956 12.547H4.89933L4.89933 10.547ZM4.59956 11.547L4.59956 10.2287H2.59956L2.59956 11.547H4.59956ZM4.59956 6.2738L4.59956 4.95549H2.59956L2.59956 6.2738H4.59956ZM3.59956 5.95549H4.89933L4.89933 3.95549H3.59956L3.59956 5.95549ZM3.59956 9.22872H2.29979L2.29979 11.2287H3.59956L3.59956 9.22872ZM3.29979 10.2287L3.29979 8.91041H1.29979L1.29979 10.2287H3.29979ZM2.29979 7.91041H1.00002L1.00002 9.91041H2.29979L2.29979 7.91041ZM2.00002 8.91041L2.00002 7.59211L1.62346e-05 7.59211L1.62309e-05 8.91041H2.00002ZM1.00002 8.59211H2.29979L2.29979 6.59211H1.00002L1.00002 8.59211ZM3.29979 7.59211L3.29979 6.2738H1.29979L1.29979 7.59211H3.29979ZM2.29979 7.2738H3.59956L3.59956 5.2738H2.29979L2.29979 7.2738ZM8.79865 14.502H7.49888L7.49888 16.502H8.79865L8.79865 14.502ZM8.49888 15.502L8.49888 14.1836H6.49888L6.49888 15.502H8.49888ZM8.49888 2.31888L8.49888 1.00057H6.49888L6.49888 2.31888H8.49888ZM7.49888 2.00057H8.79865L8.79865 0.00056839H7.49888L7.49888 2.00057Z" fill="#131313" mask="url(#path-1-outside-1_111_12392)"/>
</g>
</svg>
