<svg width="13" height="17" viewBox="0 0 13 17" fill="none" xmlns="http://www.w3.org/2000/svg">
<g id="Vector">
<mask id="path-1-outside-1_112_13076" maskUnits="userSpaceOnUse" x="0.398437" y="0" width="13" height="17" fill="black">
<rect fill="white" x="0.398437" width="13" height="17"/>
<path d="M2.69821 1L3.99798 1L3.99798 2.31831L2.69821 2.31831L2.69821 1Z"/>
<path d="M2.69821 14.1831H3.99798L3.99798 15.5014H2.69821L2.69821 14.1831Z"/>
<path d="M1.39844 2.31831H2.69821L2.69821 3.63662H1.39844L1.39844 2.31831Z"/>
<path d="M1.39844 12.8648H2.69821L2.69821 14.1831H1.39844L1.39844 12.8648Z"/>
<path d="M2.69821 2.31831L3.99798 2.31831L3.99798 3.63662L2.69821 3.63662L2.69821 2.31831Z"/>
<path d="M2.69821 12.8648H3.99798L3.99798 14.1831H2.69821L2.69821 12.8648Z"/>
<path d="M2.69821 3.63662L3.99798 3.63662L3.99798 4.95492H2.69821L2.69821 3.63662Z"/>
<path d="M2.69821 11.5465H3.99798L3.99798 12.8648H2.69821L2.69821 11.5465Z"/>
<path d="M3.99798 2.31831L5.29775 2.31831L5.29775 3.63662H3.99798L3.99798 2.31831Z"/>
<path d="M3.99798 12.8648H5.29775L5.29775 14.1831H3.99798L3.99798 12.8648Z"/>
<path d="M3.99798 3.63662H5.29775L5.29775 4.95492H3.99798L3.99798 3.63662Z"/>
<path d="M3.99798 11.5465H5.29775L5.29775 12.8648H3.99798L3.99798 11.5465Z"/>
<path d="M3.99798 4.95492H5.29775L5.29775 6.27323L3.99798 6.27323L3.99798 4.95492Z"/>
<path d="M5.29775 2.31831H6.59753L6.59753 3.63662L5.29775 3.63662L5.29775 2.31831Z"/>
<path d="M5.29775 12.8648H6.59753L6.59753 14.1831H5.29775L5.29775 12.8648Z"/>
<path d="M5.29775 3.63662L6.59753 3.63662L6.59753 4.95492L5.29775 4.95492L5.29775 3.63662Z"/>
<path d="M5.29775 11.5465H6.59753L6.59753 12.8648H5.29775L5.29775 11.5465Z"/>
<path d="M5.29775 4.95492L6.59753 4.95492L6.59753 6.27323H5.29775L5.29775 4.95492Z"/>
<path d="M5.29775 6.27323H6.59753L6.59753 7.59154H5.29775L5.29775 6.27323Z"/>
<path d="M5.29775 8.90985H6.59753L6.59753 10.2282H5.29775L5.29775 8.90985Z"/>
<path d="M5.29775 10.2282H6.59753L6.59753 11.5465H5.29775L5.29775 10.2282Z"/>
<path d="M3.99798 10.2282H5.29775L5.29775 11.5465H3.99798L3.99798 10.2282Z"/>
<path d="M6.59753 3.63662H7.8973L7.8973 4.95492H6.59753L6.59753 3.63662Z"/>
<path d="M6.59753 11.5465L7.8973 11.5465L7.8973 12.8648L6.59753 12.8648L6.59753 11.5465Z"/>
<path d="M6.59753 4.95492H7.8973L7.8973 6.27323H6.59753L6.59753 4.95492Z"/>
<path d="M6.59753 6.27323H7.8973L7.8973 7.59154H6.59753L6.59753 6.27323Z"/>
<path d="M6.59753 8.90985H7.8973L7.8973 10.2282L6.59753 10.2282L6.59753 8.90985Z"/>
<path d="M6.59753 10.2282L7.8973 10.2282L7.8973 11.5465L6.59753 11.5465L6.59753 10.2282Z"/>
<path d="M6.59753 7.59154H7.8973L7.8973 8.90985H6.59753L6.59753 7.59154Z"/>
<path d="M7.8973 4.95492L9.19707 4.95492L9.19707 6.27323H7.8973L7.8973 4.95492Z"/>
<path d="M7.8973 6.27323H9.19707L9.19707 7.59154H7.8973L7.8973 6.27323Z"/>
<path d="M7.8973 8.90985H9.19707L9.19707 10.2282H7.8973L7.8973 8.90985Z"/>
<path d="M7.8973 10.2282H9.19707L9.19707 11.5465H7.8973L7.8973 10.2282Z"/>
<path d="M7.8973 7.59154H9.19707L9.19707 8.90985H7.8973L7.8973 7.59154Z"/>
<path d="M9.19707 6.27323L10.4968 6.27323L10.4968 7.59154L9.19707 7.59154L9.19707 6.27323Z"/>
<path d="M10.4968 7.59154H11.7966L11.7966 8.90985H10.4968L10.4968 7.59154Z"/>
<path d="M9.19707 7.59154L10.4968 7.59154L10.4968 8.90985L9.19707 8.90985L9.19707 7.59154Z"/>
<path d="M9.19707 8.90985L10.4968 8.90985L10.4968 10.2282H9.19707L9.19707 8.90985Z"/>
<path d="M3.99798 1L5.29775 1L5.29775 2.31831L3.99798 2.31831L3.99798 1Z"/>
<path d="M3.99798 14.1831H5.29775L5.29775 15.5014H3.99798L3.99798 14.1831Z"/>
</mask>
<path d="M2.69821 1L3.99798 1L3.99798 2.31831L2.69821 2.31831L2.69821 1Z" fill="#FCD290"/>
<path d="M2.69821 14.1831H3.99798L3.99798 15.5014H2.69821L2.69821 14.1831Z" fill="#FCD290"/>
<path d="M1.39844 2.31831H2.69821L2.69821 3.63662H1.39844L1.39844 2.31831Z" fill="#FCD290"/>
<path d="M1.39844 12.8648H2.69821L2.69821 14.1831H1.39844L1.39844 12.8648Z" fill="#FCD290"/>
<path d="M2.69821 2.31831L3.99798 2.31831L3.99798 3.63662L2.69821 3.63662L2.69821 2.31831Z" fill="#FCD290"/>
<path d="M2.69821 12.8648H3.99798L3.99798 14.1831H2.69821L2.69821 12.8648Z" fill="#FCD290"/>
<path d="M2.69821 3.63662L3.99798 3.63662L3.99798 4.95492H2.69821L2.69821 3.63662Z" fill="#FCD290"/>
<path d="M2.69821 11.5465H3.99798L3.99798 12.8648H2.69821L2.69821 11.5465Z" fill="#FCD290"/>
<path d="M3.99798 2.31831L5.29775 2.31831L5.29775 3.63662H3.99798L3.99798 2.31831Z" fill="#FCD290"/>
<path d="M3.99798 12.8648H5.29775L5.29775 14.1831H3.99798L3.99798 12.8648Z" fill="#FCD290"/>
<path d="M3.99798 3.63662H5.29775L5.29775 4.95492H3.99798L3.99798 3.63662Z" fill="#FCD290"/>
<path d="M3.99798 11.5465H5.29775L5.29775 12.8648H3.99798L3.99798 11.5465Z" fill="#FCD290"/>
<path d="M3.99798 4.95492H5.29775L5.29775 6.27323L3.99798 6.27323L3.99798 4.95492Z" fill="#FCD290"/>
<path d="M5.29775 2.31831H6.59753L6.59753 3.63662L5.29775 3.63662L5.29775 2.31831Z" fill="#FCD290"/>
<path d="M5.29775 12.8648H6.59753L6.59753 14.1831H5.29775L5.29775 12.8648Z" fill="#FCD290"/>
<path d="M5.29775 3.63662L6.59753 3.63662L6.59753 4.95492L5.29775 4.95492L5.29775 3.63662Z" fill="#FCD290"/>
<path d="M5.29775 11.5465H6.59753L6.59753 12.8648H5.29775L5.29775 11.5465Z" fill="#FCD290"/>
<path d="M5.29775 4.95492L6.59753 4.95492L6.59753 6.27323H5.29775L5.29775 4.95492Z" fill="#FCD290"/>
<path d="M5.29775 6.27323H6.59753L6.59753 7.59154H5.29775L5.29775 6.27323Z" fill="#FCD290"/>
<path d="M5.29775 8.90985H6.59753L6.59753 10.2282H5.29775L5.29775 8.90985Z" fill="#FCD290"/>
<path d="M5.29775 10.2282H6.59753L6.59753 11.5465H5.29775L5.29775 10.2282Z" fill="#FCD290"/>
<path d="M3.99798 10.2282H5.29775L5.29775 11.5465H3.99798L3.99798 10.2282Z" fill="#FCD290"/>
<path d="M6.59753 3.63662H7.8973L7.8973 4.95492H6.59753L6.59753 3.63662Z" fill="#FCD290"/>
<path d="M6.59753 11.5465L7.8973 11.5465L7.8973 12.8648L6.59753 12.8648L6.59753 11.5465Z" fill="#FCD290"/>
<path d="M6.59753 4.95492H7.8973L7.8973 6.27323H6.59753L6.59753 4.95492Z" fill="#FCD290"/>
<path d="M6.59753 6.27323H7.8973L7.8973 7.59154H6.59753L6.59753 6.27323Z" fill="#FCD290"/>
<path d="M6.59753 8.90985H7.8973L7.8973 10.2282L6.59753 10.2282L6.59753 8.90985Z" fill="#FCD290"/>
<path d="M6.59753 10.2282L7.8973 10.2282L7.8973 11.5465L6.59753 11.5465L6.59753 10.2282Z" fill="#FCD290"/>
<path d="M6.59753 7.59154H7.8973L7.8973 8.90985H6.59753L6.59753 7.59154Z" fill="#FCD290"/>
<path d="M7.8973 4.95492L9.19707 4.95492L9.19707 6.27323H7.8973L7.8973 4.95492Z" fill="#FCD290"/>
<path d="M7.8973 6.27323H9.19707L9.19707 7.59154H7.8973L7.8973 6.27323Z" fill="#FCD290"/>
<path d="M7.8973 8.90985H9.19707L9.19707 10.2282H7.8973L7.8973 8.90985Z" fill="#FCD290"/>
<path d="M7.8973 10.2282H9.19707L9.19707 11.5465H7.8973L7.8973 10.2282Z" fill="#FCD290"/>
<path d="M7.8973 7.59154H9.19707L9.19707 8.90985H7.8973L7.8973 7.59154Z" fill="#FCD290"/>
<path d="M9.19707 6.27323L10.4968 6.27323L10.4968 7.59154L9.19707 7.59154L9.19707 6.27323Z" fill="#FCD290"/>
<path d="M10.4968 7.59154H11.7966L11.7966 8.90985H10.4968L10.4968 7.59154Z" fill="#FCD290"/>
<path d="M9.19707 7.59154L10.4968 7.59154L10.4968 8.90985L9.19707 8.90985L9.19707 7.59154Z" fill="#FCD290"/>
<path d="M9.19707 8.90985L10.4968 8.90985L10.4968 10.2282H9.19707L9.19707 8.90985Z" fill="#FCD290"/>
<path d="M3.99798 1L5.29775 1L5.29775 2.31831L3.99798 2.31831L3.99798 1Z" fill="#FCD290"/>
<path d="M3.99798 14.1831H5.29775L5.29775 15.5014H3.99798L3.99798 14.1831Z" fill="#FCD290"/>
<path d="M2.69821 2.31831L2.69821 1.81831L2.19821 1.81831L2.19821 2.31831H2.69821ZM2.69821 14.1831H2.19821L2.19821 14.6831H2.69821L2.69821 14.1831ZM2.69821 3.63662H2.19821L2.19821 4.13662H2.69821L2.69821 3.63662ZM2.69821 12.8648L2.69821 12.3648H2.19821L2.19821 12.8648H2.69821ZM3.99798 4.95492H3.49798L3.49798 5.45492H3.99798L3.99798 4.95492ZM3.99798 11.5465L3.99798 11.0465H3.49798L3.49798 11.5465H3.99798ZM5.29775 2.31831H5.79775L5.79775 1.81831L5.29775 1.81831L5.29775 2.31831ZM5.29775 14.1831L5.29775 14.6831H5.79775L5.79775 14.1831H5.29775ZM5.29775 6.27323H4.79775L4.79775 6.77323H5.29775L5.29775 6.27323ZM6.59753 3.63662H7.09753L7.09753 3.13662H6.59753L6.59753 3.63662ZM6.59753 12.8648L6.59753 13.3648L7.09753 13.3648L7.09753 12.8648L6.59753 12.8648ZM6.59753 7.59154H6.09753L6.09753 8.09154H6.59753L6.59753 7.59154ZM6.59753 8.90985L6.59753 8.40985H6.09753L6.09753 8.90985H6.59753ZM5.29775 10.2282L5.29775 9.72815H4.79775L4.79775 10.2282H5.29775ZM7.8973 4.95492L8.3973 4.95492L8.3973 4.45492L7.8973 4.45492L7.8973 4.95492ZM7.8973 11.5465L7.8973 12.0465H8.3973L8.3973 11.5465H7.8973ZM9.19707 6.27323L9.69707 6.27323L9.69707 5.77323L9.19707 5.77323L9.19707 6.27323ZM9.19707 10.2282L9.19707 10.7282H9.69707L9.69707 10.2282H9.19707ZM10.4968 7.59154H10.9968L10.9968 7.09154H10.4968L10.4968 7.59154ZM10.4968 8.90985L10.4968 9.40985H10.9968L10.9968 8.90985H10.4968ZM3.49798 1L3.49798 2.31831H4.49798L4.49798 1L3.49798 1ZM3.99798 1.81831L2.69821 1.81831L2.69821 2.81831L3.99798 2.81831L3.99798 1.81831ZM2.69821 14.6831H3.99798L3.99798 13.6831H2.69821L2.69821 14.6831ZM3.49798 14.1831L3.49798 15.5014H4.49798L4.49798 14.1831H3.49798ZM2.19821 2.31831L2.19821 3.63662L3.19821 3.63662L3.19821 2.31831H2.19821ZM2.19821 12.8648L2.19821 14.1831H3.19821L3.19821 12.8648H2.19821ZM3.49798 2.31831L3.49798 3.63662H4.49798L4.49798 2.31831H3.49798ZM3.99798 3.13662L2.69821 3.13662L2.69821 4.13662H3.99798L3.99798 3.13662ZM2.69821 13.3648H3.99798L3.99798 12.3648H2.69821L2.69821 13.3648ZM3.49798 12.8648L3.49798 14.1831H4.49798L4.49798 12.8648H3.49798ZM3.49798 3.63662L3.49798 4.95492H4.49798L4.49798 3.63662H3.49798ZM3.49798 11.5465L3.49798 12.8648H4.49798L4.49798 11.5465H3.49798ZM3.99798 2.81831L5.29775 2.81831L5.29775 1.81831L3.99798 1.81831L3.99798 2.81831ZM4.79775 2.31831L4.79775 3.63662L5.79775 3.63662L5.79775 2.31831H4.79775ZM5.29775 3.13662H3.99798L3.99798 4.13662H5.29775L5.29775 3.13662ZM3.99798 13.3648H5.29775L5.29775 12.3648H3.99798L3.99798 13.3648ZM4.79775 12.8648L4.79775 14.1831H5.79775L5.79775 12.8648H4.79775ZM5.29775 13.6831H3.99798L3.99798 14.6831H5.29775L5.29775 13.6831ZM4.79775 3.63662L4.79775 4.95492L5.79775 4.95492L5.79775 3.63662L4.79775 3.63662ZM5.29775 4.45492H3.99798L3.99798 5.45492L5.29775 5.45492L5.29775 4.45492ZM3.99798 12.0465H5.29775L5.29775 11.0465H3.99798L3.99798 12.0465ZM4.79775 11.5465L4.79775 12.8648H5.79775L5.79775 11.5465H4.79775ZM4.79775 4.95492L4.79775 6.27323H5.79775L5.79775 4.95492L4.79775 4.95492ZM6.59753 3.13662L5.29775 3.13662L5.29775 4.13662L6.59753 4.13662L6.59753 3.13662ZM5.29775 13.3648H6.59753L6.59753 12.3648H5.29775L5.29775 13.3648ZM6.09753 3.63662L6.09753 4.95492H7.09753L7.09753 3.63662H6.09753ZM6.59753 4.45492L5.29775 4.45492L5.29775 5.45492H6.59753L6.59753 4.45492ZM5.29775 12.0465H6.59753L6.59753 11.0465H5.29775L5.29775 12.0465ZM6.09753 11.5465L6.09753 12.8648L7.09753 12.8648L7.09753 11.5465L6.09753 11.5465ZM6.09753 4.95492L6.09753 6.27323H7.09753L7.09753 4.95492H6.09753ZM6.59753 5.77323H5.29775L5.29775 6.77323H6.59753L6.59753 5.77323ZM6.09753 6.27323L6.09753 7.59154H7.09753L7.09753 6.27323H6.09753ZM6.09753 8.90985L6.09753 10.2282L7.09753 10.2282L7.09753 8.90985H6.09753ZM6.59753 9.72815H5.29775L5.29775 10.7282H6.59753L6.59753 9.72815ZM6.09753 10.2282L6.09753 11.5465L7.09753 11.5465L7.09753 10.2282L6.09753 10.2282ZM5.79775 11.5465L5.79775 10.2282H4.79775L4.79775 11.5465H5.79775ZM7.8973 4.45492H6.59753L6.59753 5.45492H7.8973L7.8973 4.45492ZM6.59753 12.0465L7.8973 12.0465L7.8973 11.0465L6.59753 11.0465L6.59753 12.0465ZM7.3973 4.95492L7.3973 6.27323H8.3973L8.3973 4.95492L7.3973 4.95492ZM7.8973 5.77323H6.59753L6.59753 6.77323H7.8973L7.8973 5.77323ZM7.3973 6.27323L7.3973 7.59154H8.3973L8.3973 6.27323H7.3973ZM7.8973 7.09154H6.59753L6.59753 8.09154H7.8973L7.8973 7.09154ZM6.59753 9.40985L7.8973 9.40985L7.8973 8.40985H6.59753L6.59753 9.40985ZM7.3973 8.90985L7.3973 10.2282H8.3973L8.3973 8.90985H7.3973ZM7.8973 9.72815L6.59753 9.72815L6.59753 10.7282L7.8973 10.7282L7.8973 9.72815ZM7.3973 10.2282L7.3973 11.5465H8.3973L8.3973 10.2282H7.3973ZM7.3973 7.59154L7.3973 8.90985H8.3973L8.3973 7.59154H7.3973ZM9.19707 5.77323H7.8973L7.8973 6.77323H9.19707L9.19707 5.77323ZM8.69707 6.27323L8.69707 7.59154L9.69707 7.59154L9.69707 6.27323L8.69707 6.27323ZM9.19707 7.09154H7.8973L7.8973 8.09154H9.19707L9.19707 7.09154ZM7.8973 9.40985H9.19707L9.19707 8.40985H7.8973L7.8973 9.40985ZM8.69707 8.90985L8.69707 10.2282H9.69707L9.69707 8.90985L8.69707 8.90985ZM9.19707 9.72815H7.8973L7.8973 10.7282H9.19707L9.19707 9.72815ZM8.69707 7.59154L8.69707 8.90985L9.69707 8.90985L9.69707 7.59154L8.69707 7.59154ZM10.4968 7.09154L9.19707 7.09154L9.19707 8.09154L10.4968 8.09154L10.4968 7.09154ZM10.9968 8.90985L10.9968 7.59154H9.99684L9.99684 8.90985H10.9968ZM10.4968 8.40985L9.19707 8.40985L9.19707 9.40985H10.4968L10.4968 8.40985ZM2.69821 1L2.69821 0L1.69821 0L1.69821 1L2.69821 1ZM2.69821 2.31831L2.69821 3.31831L3.69821 3.31831L3.69821 2.31831L2.69821 2.31831ZM2.69821 14.1831H3.69821L3.69821 13.1831H2.69821L2.69821 14.1831ZM2.69821 15.5014H1.69821L1.69821 16.5014H2.69821L2.69821 15.5014ZM1.39844 2.31831L1.39844 1.31831L0.398437 1.31831L0.398437 2.31831H1.39844ZM2.69821 3.63662L3.69821 3.63662L3.69821 2.63662L2.69821 2.63662L2.69821 3.63662ZM1.39844 3.63662H0.398437L0.398437 4.63662H1.39844L1.39844 3.63662ZM1.39844 12.8648L1.39844 11.8648H0.398437L0.398437 12.8648H1.39844ZM2.69821 12.8648L2.69821 13.8648H3.69821L3.69821 12.8648H2.69821ZM1.39844 14.1831H0.398437L0.398437 15.1831H1.39844L1.39844 14.1831ZM3.99798 4.95492H4.99798L4.99798 3.95492H3.99798L3.99798 4.95492ZM2.69821 4.95492H1.69821L1.69821 5.95492H2.69821L2.69821 4.95492ZM2.69821 11.5465L2.69821 10.5465H1.69821L1.69821 11.5465H2.69821ZM3.99798 11.5465L3.99798 12.5465H4.99798L4.99798 11.5465H3.99798ZM5.29775 2.31831L4.29775 2.31831L4.29775 3.31831H5.29775L5.29775 2.31831ZM5.29775 14.1831L5.29775 13.1831H4.29775L4.29775 14.1831H5.29775ZM5.29775 6.27323H6.29775L6.29775 5.27323H5.29775L5.29775 6.27323ZM3.99798 6.27323H2.99798L2.99798 7.27323H3.99798L3.99798 6.27323ZM6.59753 2.31831H7.59753L7.59753 1.31831L6.59753 1.31831L6.59753 2.31831ZM6.59753 3.63662H5.59753L5.59753 4.63662H6.59753L6.59753 3.63662ZM6.59753 12.8648L6.59753 11.8648H5.59753L5.59753 12.8648H6.59753ZM6.59753 14.1831L6.59753 15.1831L7.59753 15.1831L7.59753 14.1831L6.59753 14.1831ZM6.59753 7.59154H7.59753L7.59753 6.59154H6.59753L6.59753 7.59154ZM5.29775 7.59154H4.29775L4.29775 8.59154H5.29775L5.29775 7.59154ZM5.29775 8.90985L5.29775 7.90985H4.29775L4.29775 8.90985H5.29775ZM6.59753 8.90985L6.59753 9.90985L7.59753 9.90985L7.59753 8.90985H6.59753ZM5.29775 10.2282L5.29775 11.2282H6.29775L6.29775 10.2282H5.29775ZM3.99798 10.2282L3.99798 9.22815H2.99798L2.99798 10.2282H3.99798ZM7.8973 3.63662L8.8973 3.63662L8.8973 2.63662L7.8973 2.63662L7.8973 3.63662ZM7.8973 4.95492H6.8973L6.8973 5.95492H7.8973L7.8973 4.95492ZM7.8973 11.5465L7.8973 10.5465H6.8973L6.8973 11.5465H7.8973ZM7.8973 12.8648L7.8973 13.8648H8.8973L8.8973 12.8648H7.8973ZM9.19707 4.95492H10.1971L10.1971 3.95492H9.19707L9.19707 4.95492ZM9.19707 6.27323H8.19707L8.19707 7.27323H9.19707L9.19707 6.27323ZM9.19707 10.2282L9.19707 9.22815H8.19707L8.19707 10.2282H9.19707ZM9.19707 11.5465L9.19707 12.5465H10.1971L10.1971 11.5465H9.19707ZM10.4968 6.27323H11.4968L11.4968 5.27323H10.4968L10.4968 6.27323ZM10.4968 7.59154H9.49684L9.49684 8.59154H10.4968L10.4968 7.59154ZM11.7966 7.59154H12.7966L12.7966 6.59154H11.7966L11.7966 7.59154ZM11.7966 8.90985L11.7966 9.90985H12.7966L12.7966 8.90985H11.7966ZM10.4968 8.90985L10.4968 7.90985H9.49684L9.49684 8.90985H10.4968ZM10.4968 10.2282L10.4968 11.2282H11.4968L11.4968 10.2282H10.4968ZM5.29775 1L6.29775 1L6.29775 0L5.29775 0L5.29775 1ZM5.29775 15.5014L5.29775 16.5014H6.29775L6.29775 15.5014H5.29775ZM2.69821 2L3.99798 2L3.99798 0L2.69821 0L2.69821 2ZM3.69821 2.31831L3.69821 1L1.69821 1L1.69821 2.31831L3.69821 2.31831ZM3.99798 14.5014H2.69821L2.69821 16.5014H3.99798L3.99798 14.5014ZM3.69821 15.5014L3.69821 14.1831H1.69821L1.69821 15.5014H3.69821ZM1.39844 3.31831H2.69821L2.69821 1.31831L1.39844 1.31831L1.39844 3.31831ZM2.69821 2.63662H1.39844L1.39844 4.63662H2.69821L2.69821 2.63662ZM2.39844 3.63662L2.39844 2.31831H0.398437L0.398437 3.63662H2.39844ZM1.39844 13.8648H2.69821L2.69821 11.8648H1.39844L1.39844 13.8648ZM2.69821 13.1831H1.39844L1.39844 15.1831H2.69821L2.69821 13.1831ZM2.39844 14.1831L2.39844 12.8648H0.398437L0.398437 14.1831H2.39844ZM3.99798 3.95492L2.69821 3.95492L2.69821 5.95492H3.99798L3.99798 3.95492ZM3.69821 4.95492L3.69821 3.63662L1.69821 3.63662L1.69821 4.95492H3.69821ZM2.69821 12.5465H3.99798L3.99798 10.5465H2.69821L2.69821 12.5465ZM3.69821 12.8648L3.69821 11.5465H1.69821L1.69821 12.8648H3.69821ZM5.29775 5.27323L3.99798 5.27323L3.99798 7.27323L5.29775 7.27323L5.29775 5.27323ZM4.99798 6.27323L4.99798 4.95492H2.99798L2.99798 6.27323L4.99798 6.27323ZM5.29775 3.31831L6.59753 3.31831L6.59753 1.31831L5.29775 1.31831L5.29775 3.31831ZM5.59753 2.31831L5.59753 3.63662H7.59753L7.59753 2.31831H5.59753ZM5.59753 12.8648L5.59753 14.1831L7.59753 14.1831L7.59753 12.8648L5.59753 12.8648ZM6.59753 13.1831H5.29775L5.29775 15.1831H6.59753L6.59753 13.1831ZM6.59753 6.59154H5.29775L5.29775 8.59154H6.59753L6.59753 6.59154ZM6.29775 7.59154L6.29775 6.27323H4.29775L4.29775 7.59154H6.29775ZM5.29775 9.90985H6.59753L6.59753 7.90985H5.29775L5.29775 9.90985ZM6.29775 10.2282L6.29775 8.90985H4.29775L4.29775 10.2282H6.29775ZM3.99798 11.2282H5.29775L5.29775 9.22815H3.99798L3.99798 11.2282ZM4.99798 11.5465L4.99798 10.2282H2.99798L2.99798 11.5465H4.99798ZM6.59753 4.63662H7.8973L7.8973 2.63662H6.59753L6.59753 4.63662ZM6.8973 3.63662L6.8973 4.95492L8.8973 4.95492L8.8973 3.63662L6.8973 3.63662ZM6.8973 11.5465L6.8973 12.8648H8.8973L8.8973 11.5465H6.8973ZM7.8973 11.8648L6.59753 11.8648L6.59753 13.8648L7.8973 13.8648L7.8973 11.8648ZM7.59753 8.90985L7.59753 7.59154H5.59753L5.59753 8.90985H7.59753ZM7.8973 5.95492H9.19707L9.19707 3.95492L7.8973 3.95492L7.8973 5.95492ZM8.19707 4.95492L8.19707 6.27323L10.1971 6.27323L10.1971 4.95492H8.19707ZM8.19707 10.2282L8.19707 11.5465H10.1971L10.1971 10.2282H8.19707ZM9.19707 10.5465H7.8973L7.8973 12.5465H9.19707L9.19707 10.5465ZM9.19707 7.27323L10.4968 7.27323L10.4968 5.27323L9.19707 5.27323L9.19707 7.27323ZM9.49684 6.27323L9.49684 7.59154H11.4968L11.4968 6.27323H9.49684ZM10.4968 8.59154H11.7966L11.7966 6.59154H10.4968L10.4968 8.59154ZM10.7966 7.59154L10.7966 8.90985H12.7966L12.7966 7.59154H10.7966ZM11.7966 7.90985H10.4968L10.4968 9.90985H11.7966L11.7966 7.90985ZM9.49684 8.90985L9.49684 10.2282H11.4968L11.4968 8.90985H9.49684ZM10.4968 9.22815H9.19707L9.19707 11.2282H10.4968L10.4968 9.22815ZM3.99798 2L5.29775 2L5.29775 0L3.99798 0L3.99798 2ZM4.29775 1L4.29775 2.31831L6.29775 2.31831L6.29775 1L4.29775 1ZM4.29775 14.1831L4.29775 15.5014H6.29775L6.29775 14.1831H4.29775ZM5.29775 14.5014H3.99798L3.99798 16.5014H5.29775L5.29775 14.5014Z" fill="#131313" mask="url(#path-1-outside-1_112_13076)"/>
</g>
</svg>
