<svg width="349" height="62" viewBox="0 0 349 62" fill="none" xmlns="http://www.w3.org/2000/svg">
<path d="M10.928 13.936H12.032V16H10.88C9.92 16 9.52 15.728 9.136 15.248C8.288 15.792 7.232 16.096 6.064 16.096C2.768 16.096 0.512 13.664 0.512 10.4C0.512 7.136 2.768 4.704 6.064 4.704C9.36 4.704 11.616 7.136 11.616 10.4C11.616 11.728 11.248 12.928 10.576 13.872C10.672 13.904 10.784 13.936 10.928 13.936ZM2.96 10.4C2.96 12.512 4.176 14.064 6.064 14.064C6.72 14.064 7.296 13.872 7.776 13.536L7.616 13.344C7.376 13.024 7.168 12.848 6.816 12.848H5.776V10.816H6.992C7.936 10.816 8.256 11.152 8.64 11.632L8.896 11.952C9.072 11.488 9.152 10.96 9.152 10.4C9.152 8.288 7.936 6.736 6.064 6.736C4.176 6.736 2.96 8.288 2.96 10.4ZM18.4908 11.888V7.776H20.7468V16H18.7468L18.5388 15.008C18.0108 15.648 17.2908 16.096 16.1228 16.096C14.4268 16.096 12.8588 15.248 12.8588 12.336V7.776H15.1148V12.032C15.1148 13.504 15.5948 14.224 16.7148 14.224C17.8348 14.224 18.4908 13.408 18.4908 11.888ZM26.3793 16.096C23.6432 16.096 21.9953 14.448 21.9953 11.904C21.9953 9.344 23.6753 7.68 26.2193 7.68C28.6833 7.68 30.3472 9.216 30.3793 11.632C30.3793 11.872 30.3633 12.144 30.3153 12.4H24.3473V12.512C24.3953 13.68 25.1473 14.384 26.2833 14.384C27.1953 14.384 27.8353 13.984 28.0273 13.216H30.2513C29.9953 14.816 28.5713 16.096 26.3793 16.096ZM24.3953 10.928H28.1073C27.9473 9.92 27.2593 9.36 26.2352 9.36C25.2593 9.36 24.5233 9.952 24.3953 10.928ZM31.1656 13.264H33.3096C33.3896 13.984 34.0136 14.48 35.1176 14.48C36.0616 14.48 36.6376 14.176 36.6376 13.6C36.6376 12.928 36.0776 12.88 34.7496 12.704C32.8296 12.48 31.3416 12.048 31.3416 10.352C31.3416 8.72 32.7656 7.648 34.8776 7.664C37.0856 7.664 38.6056 8.64 38.7176 10.32H36.5576C36.4936 9.664 35.8696 9.264 34.9576 9.264C34.0776 9.264 33.5016 9.584 33.5016 10.112C33.5016 10.736 34.2056 10.8 35.3896 10.944C37.2776 11.136 38.8456 11.568 38.8456 13.424C38.8456 15.056 37.3096 16.096 35.1016 16.096C32.8136 16.096 31.2616 15.024 31.1656 13.264ZM40.626 13.648V9.68H39.266V7.776H40.626V5.472H42.882V7.776H44.77V9.68H42.882V13.28C42.882 13.856 43.106 14.096 43.698 14.096H44.818V16H42.978C41.41 16 40.626 15.216 40.626 13.648ZM46.9981 6.896C46.2621 6.896 45.6861 6.352 45.6861 5.632C45.6861 4.896 46.2621 4.352 46.9981 4.352C47.7341 4.352 48.3101 4.896 48.3101 5.632C48.3101 6.352 47.7341 6.896 46.9981 6.896ZM45.8621 16V7.776H48.1341V16H45.8621ZM53.7063 16.096C51.0823 16.096 49.3703 14.416 49.3703 11.888C49.3703 9.36 51.0823 7.68 53.7063 7.68C56.3303 7.68 58.0423 9.36 58.0423 11.888C58.0423 14.432 56.3303 16.096 53.7063 16.096ZM53.7063 14.256C54.9703 14.256 55.7543 13.28 55.7543 11.888C55.7543 10.496 54.9703 9.52 53.7063 9.52C52.4423 9.52 51.6743 10.496 51.6743 11.888C51.6743 13.28 52.4423 14.256 53.7063 14.256ZM64.004 7.68C65.78 7.68 67.3 8.624 67.3 11.44V16H65.044V11.664C65.044 10.272 64.516 9.536 63.38 9.536C62.212 9.536 61.54 10.368 61.54 11.792V16H59.284V7.776H61.252L61.46 8.8C61.988 8.16 62.74 7.68 64.004 7.68ZM78.8503 10.144C80.0023 10.4 81.0583 11.28 81.0583 12.88C81.0583 14.8 79.4903 16.096 76.7063 16.096C73.9223 16.096 72.3543 14.8 72.3543 12.88C72.3543 11.296 73.4103 10.432 74.5623 10.16C73.5703 9.872 72.6423 9.072 72.6423 7.664C72.6423 5.936 74.1783 4.704 76.7063 4.704C79.2343 4.704 80.7703 5.936 80.7703 7.664C80.7703 8.976 79.8583 9.856 78.8503 10.144ZM76.7063 6.352C75.6503 6.352 74.9623 6.928 74.9623 7.776C74.9623 8.64 75.6503 9.232 76.7063 9.232C77.7783 9.232 78.4663 8.64 78.4663 7.776C78.4663 6.928 77.7783 6.352 76.7063 6.352ZM76.7063 14.464C77.9063 14.464 78.7223 13.76 78.7223 12.8C78.7223 11.824 77.9063 11.104 76.7063 11.104C75.5223 11.104 74.7063 11.824 74.7063 12.8C74.7063 13.76 75.5223 14.464 76.7063 14.464ZM91.7088 12.368H86.1088V10.528H91.7088V12.368ZM99.8325 16L96.5685 4.8H98.0245L100.649 14.208L103.401 4.8H104.809L107.465 14.208L110.105 4.8H111.545L108.265 16H106.601L104.041 7.12L101.497 16H99.8325ZM116.693 7.744C118.517 7.744 120.005 8.752 120.005 11.456V16H118.693V11.536C118.693 9.84 117.877 8.944 116.469 8.944C114.949 8.944 114.005 10.08 114.005 11.92V16H112.693V4.8H114.005V9.184C114.485 8.416 115.317 7.744 116.693 7.744ZM125.344 16.096C122.96 16.096 121.296 14.4 121.296 11.92C121.296 9.44 122.96 7.744 125.344 7.744C127.728 7.744 129.392 9.44 129.392 11.92C129.392 14.4 127.728 16.096 125.344 16.096ZM125.344 14.928C126.96 14.928 128.048 13.664 128.048 11.92C128.048 10.176 126.96 8.912 125.344 8.912C123.728 8.912 122.64 10.176 122.64 11.92C122.64 13.664 123.728 14.928 125.344 14.928ZM141.516 9.088V4.8H142.828V16H141.692L141.516 14.688C140.972 15.44 140.092 16.096 138.716 16.096C136.46 16.096 134.796 14.576 134.796 11.92C134.796 9.424 136.46 7.744 138.716 7.744C140.092 7.744 141.02 8.304 141.516 9.088ZM138.844 14.928C140.444 14.928 141.532 13.696 141.532 11.952C141.532 10.16 140.444 8.912 138.844 8.912C137.228 8.912 136.14 10.144 136.14 11.92C136.14 13.696 137.228 14.928 138.844 14.928ZM148.375 16.096C145.927 16.096 144.327 14.416 144.327 11.92C144.327 9.44 145.895 7.744 148.199 7.744C150.503 7.744 152.007 9.2 152.071 11.616C152.071 11.792 152.055 11.984 152.039 12.176H145.703V12.288C145.751 13.84 146.727 14.928 148.279 14.928C149.431 14.928 150.327 14.32 150.599 13.264H151.927C151.607 14.896 150.263 16.096 148.375 16.096ZM145.783 11.088H150.663C150.535 9.68 149.575 8.896 148.215 8.896C147.015 8.896 145.911 9.76 145.783 11.088ZM153.201 13.312H154.545C154.593 14.272 155.441 14.976 156.801 14.976C157.953 14.976 158.769 14.48 158.769 13.728C158.769 12.704 157.873 12.624 156.657 12.48C154.833 12.256 153.377 11.888 153.377 10.192C153.377 8.704 154.737 7.728 156.577 7.744C158.433 7.76 159.777 8.624 159.905 10.32H158.561C158.465 9.488 157.697 8.864 156.577 8.864C155.441 8.864 154.673 9.344 154.673 10.096C154.673 10.992 155.537 11.104 156.721 11.248C158.577 11.472 160.065 11.824 160.065 13.632C160.065 15.152 158.609 16.096 156.801 16.096C154.689 16.096 153.233 15.104 153.201 13.312ZM165.281 16.096C162.833 16.096 161.233 14.416 161.233 11.92C161.233 9.44 162.801 7.744 165.105 7.744C167.409 7.744 168.913 9.2 168.977 11.616C168.977 11.792 168.961 11.984 168.945 12.176H162.609V12.288C162.657 13.84 163.633 14.928 165.185 14.928C166.337 14.928 167.233 14.32 167.505 13.264H168.833C168.513 14.896 167.169 16.096 165.281 16.096ZM162.689 11.088H167.569C167.441 9.68 166.481 8.896 165.121 8.896C163.921 8.896 162.817 9.76 162.689 11.088ZM174.25 7.84H174.618V9.12H173.962C172.25 9.12 171.786 10.544 171.786 11.84V16H170.474V7.84H171.61L171.786 9.072C172.17 8.448 172.794 7.84 174.25 7.84ZM178.152 16L175.096 7.84H176.504L178.968 14.512L181.416 7.84H182.792L179.736 16H178.152ZM187.172 16.096C184.724 16.096 183.124 14.416 183.124 11.92C183.124 9.44 184.692 7.744 186.996 7.744C189.3 7.744 190.804 9.2 190.868 11.616C190.868 11.792 190.852 11.984 190.836 12.176H184.5V12.288C184.548 13.84 185.524 14.928 187.076 14.928C188.228 14.928 189.124 14.32 189.396 13.264H190.724C190.404 14.896 189.06 16.096 187.172 16.096ZM184.58 11.088H189.46C189.332 9.68 188.372 8.896 187.012 8.896C185.812 8.896 184.708 9.76 184.58 11.088ZM191.998 13.312H193.342C193.39 14.272 194.238 14.976 195.598 14.976C196.75 14.976 197.566 14.48 197.566 13.728C197.566 12.704 196.67 12.624 195.454 12.48C193.63 12.256 192.174 11.888 192.174 10.192C192.174 8.704 193.534 7.728 195.374 7.744C197.23 7.76 198.574 8.624 198.702 10.32H197.358C197.262 9.488 196.494 8.864 195.374 8.864C194.238 8.864 193.47 9.344 193.47 10.096C193.47 10.992 194.334 11.104 195.518 11.248C197.374 11.472 198.862 11.824 198.862 13.632C198.862 15.152 197.406 16.096 195.598 16.096C193.486 16.096 192.03 15.104 191.998 13.312ZM205.113 13.872V9.04H203.641V7.84H205.113V5.552H206.425V7.84H208.537V9.04H206.425V13.856C206.425 14.544 206.665 14.8 207.369 14.8H208.665V16H207.241C205.673 16 205.113 15.312 205.113 13.872ZM213.359 16.096C210.975 16.096 209.311 14.4 209.311 11.92C209.311 9.44 210.975 7.744 213.359 7.744C215.743 7.744 217.407 9.44 217.407 11.92C217.407 14.4 215.743 16.096 213.359 16.096ZM213.359 14.928C214.975 14.928 216.063 13.664 216.063 11.92C216.063 10.176 214.975 8.912 213.359 8.912C211.743 8.912 210.655 10.176 210.655 11.92C210.655 13.664 211.743 14.928 213.359 14.928ZM223.099 16V4.8H224.411V16H223.099ZM226.881 6.464C226.401 6.464 226.033 6.112 226.033 5.616C226.033 5.12 226.401 4.768 226.881 4.768C227.361 4.768 227.729 5.12 227.729 5.616C227.729 6.112 227.361 6.464 226.881 6.464ZM226.209 16V7.84H227.521V16H226.209ZM231.558 16L228.502 7.84H229.91L232.374 14.512L234.822 7.84H236.198L233.142 16H231.558ZM240.578 16.096C238.13 16.096 236.53 14.416 236.53 11.92C236.53 9.44 238.098 7.744 240.402 7.744C242.706 7.744 244.21 9.2 244.274 11.616C244.274 11.792 244.258 11.984 244.242 12.176H237.906V12.288C237.954 13.84 238.93 14.928 240.482 14.928C241.634 14.928 242.53 14.32 242.802 13.264H244.13C243.81 14.896 242.466 16.096 240.578 16.096ZM237.986 11.088H242.866C242.738 9.68 241.778 8.896 240.418 8.896C239.218 8.896 238.114 9.76 237.986 11.088ZM247.115 12.352C247.115 11.9467 247.152 11.6 247.227 11.312C247.312 11.0133 247.451 10.7307 247.643 10.464C247.846 10.1973 248.118 9.92 248.459 9.632C248.875 9.28 249.195 8.98667 249.419 8.752C249.654 8.51733 249.819 8.288 249.915 8.064C250.011 7.84 250.059 7.568 250.059 7.248C250.059 6.736 249.894 6.34133 249.563 6.064C249.232 5.78667 248.752 5.648 248.123 5.648C247.6 5.648 247.136 5.71733 246.731 5.856C246.326 5.984 245.936 6.13867 245.563 6.32L245.067 5.2C245.494 4.976 245.963 4.78933 246.475 4.64C246.998 4.49067 247.579 4.416 248.219 4.416C249.232 4.416 250.016 4.66667 250.571 5.168C251.126 5.66933 251.403 6.352 251.403 7.216C251.403 7.696 251.323 8.10667 251.163 8.448C251.014 8.77867 250.795 9.088 250.507 9.376C250.23 9.65333 249.899 9.952 249.515 10.272C249.163 10.5707 248.891 10.832 248.699 11.056C248.518 11.28 248.395 11.504 248.331 11.728C248.267 11.9413 248.235 12.2027 248.235 12.512V12.784H247.115V12.352ZM246.747 15.136C246.747 14.7413 246.838 14.464 247.019 14.304C247.211 14.144 247.451 14.064 247.739 14.064C248.006 14.064 248.235 14.144 248.427 14.304C248.619 14.464 248.715 14.7413 248.715 15.136C248.715 15.52 248.619 15.7973 248.427 15.968C248.235 16.1387 248.006 16.224 247.739 16.224C247.451 16.224 247.211 16.1387 247.019 15.968C246.838 15.7973 246.747 15.52 246.747 15.136Z" fill="#131313"/>
<path d="M333.531 13.625L333.531 12.25L334.85 12.25L334.85 13.625L333.531 13.625Z" fill="#131313"/>
<path d="M346.714 13.625L346.714 12.25L348.033 12.25L348.033 13.625L346.714 13.625Z" fill="#131313"/>
<path d="M334.85 15L334.85 13.625L336.168 13.625L336.168 15L334.85 15Z" fill="#131313"/>
<path d="M345.396 15L345.396 13.625L346.714 13.625L346.714 15L345.396 15Z" fill="#131313"/>
<path d="M334.85 13.625L334.85 12.25L336.168 12.25L336.168 13.625L334.85 13.625Z" fill="#131313"/>
<path d="M345.396 13.625L345.396 12.25L346.714 12.25L346.714 13.625L345.396 13.625Z" fill="#131313"/>
<path d="M336.168 13.625L336.168 12.25L337.486 12.25L337.486 13.625L336.168 13.625Z" fill="#131313"/>
<path d="M344.078 13.625L344.078 12.25L345.396 12.25L345.396 13.625L344.078 13.625Z" fill="#131313"/>
<path d="M334.85 12.25L334.85 10.875L336.168 10.875L336.168 12.25L334.85 12.25Z" fill="#131313"/>
<path d="M345.396 12.25L345.396 10.875L346.714 10.875L346.714 12.25L345.396 12.25Z" fill="#131313"/>
<path d="M336.168 12.25L336.168 10.875L337.486 10.875L337.486 12.25L336.168 12.25Z" fill="#131313"/>
<path d="M344.078 12.25L344.078 10.875L345.396 10.875L345.396 12.25L344.078 12.25Z" fill="#131313"/>
<path d="M337.486 12.25L337.486 10.875L338.804 10.875L338.804 12.25L337.486 12.25Z" fill="#131313"/>
<path d="M334.85 10.875L334.85 9.5L336.168 9.5L336.168 10.875L334.85 10.875Z" fill="#131313"/>
<path d="M345.396 10.875L345.396 9.5L346.714 9.5L346.714 10.875L345.396 10.875Z" fill="#131313"/>
<path d="M336.168 10.875L336.168 9.5L337.486 9.5L337.486 10.875L336.168 10.875Z" fill="#131313"/>
<path d="M344.078 10.875L344.078 9.5L345.396 9.5L345.396 10.875L344.078 10.875Z" fill="#131313"/>
<path d="M337.486 10.875L337.486 9.5L338.804 9.5L338.804 10.875L337.486 10.875Z" fill="#131313"/>
<path d="M338.804 10.875L338.804 9.5L340.123 9.5L340.123 10.875L338.804 10.875Z" fill="#131313"/>
<path d="M341.441 10.875L341.441 9.5L342.759 9.5L342.759 10.875L341.441 10.875Z" fill="#131313"/>
<path d="M342.759 10.875L342.759 9.5L344.078 9.5L344.078 10.875L342.759 10.875Z" fill="#131313"/>
<path d="M342.759 12.25L342.759 10.875L344.078 10.875L344.078 12.25L342.759 12.25Z" fill="#131313"/>
<path d="M336.168 9.5L336.168 8.125L337.486 8.125L337.486 9.5L336.168 9.5Z" fill="#131313"/>
<path d="M344.078 9.5L344.078 8.125L345.396 8.125L345.396 9.5L344.078 9.5Z" fill="#131313"/>
<path d="M337.486 9.5L337.486 8.125L338.804 8.125L338.804 9.5L337.486 9.5Z" fill="#131313"/>
<path d="M338.804 9.5L338.804 8.125L340.123 8.125L340.123 9.5L338.804 9.5Z" fill="#131313"/>
<path d="M341.441 9.5L341.441 8.125L342.759 8.125L342.759 9.5L341.441 9.5Z" fill="#131313"/>
<path d="M342.759 9.5L342.759 8.125L344.078 8.125L344.078 9.5L342.759 9.5Z" fill="#131313"/>
<path d="M340.123 9.5L340.123 8.125L341.441 8.125L341.441 9.5L340.123 9.5Z" fill="#131313"/>
<path d="M337.486 8.125L337.486 6.75L338.804 6.75L338.804 8.125L337.486 8.125Z" fill="#131313"/>
<path d="M338.804 8.125L338.804 6.75L340.123 6.75L340.123 8.125L338.804 8.125Z" fill="#131313"/>
<path d="M341.441 8.125L341.441 6.75L342.759 6.75L342.759 8.125L341.441 8.125Z" fill="#131313"/>
<path d="M342.759 8.125L342.759 6.75L344.078 6.75L344.078 8.125L342.759 8.125Z" fill="#131313"/>
<path d="M340.123 8.125L340.123 6.75L341.441 6.75L341.441 8.125L340.123 8.125Z" fill="#131313"/>
<path d="M338.804 6.75L338.804 5.375L340.123 5.375L340.123 6.75L338.804 6.75Z" fill="#131313"/>
<path d="M340.123 5.375L340.123 4L341.441 4L341.441 5.375L340.123 5.375Z" fill="#131313"/>
<path d="M340.123 6.75L340.123 5.375L341.441 5.375L341.441 6.75L340.123 6.75Z" fill="#131313"/>
<path d="M341.441 6.75L341.441 5.375L342.759 5.375L342.759 6.75L341.441 6.75Z" fill="#131313"/>
<path d="M333.531 12.25L333.531 10.875L334.85 10.875L334.85 12.25L333.531 12.25Z" fill="#131313"/>
<path d="M346.714 12.25L346.714 10.875L348.033 10.875L348.033 12.25L346.714 12.25Z" fill="#131313"/>
<rect x="0.5" y="32.5" width="104" height="29" fill="#FD9DAF"/>
<rect x="0.5" y="32.5" width="104" height="29" stroke="#131313"/>
<path d="M11.5059 48.38L8.42188 43.1H10.5219L12.4059 46.544L14.3859 43.1H16.3899L13.3059 48.38V51.5H11.5059V48.38ZM18.9251 51.572C16.8731 51.572 15.6371 50.336 15.6371 48.428C15.6371 46.508 16.8971 45.26 18.8051 45.26C20.6531 45.26 21.9011 46.412 21.9251 48.224C21.9251 48.404 21.9131 48.608 21.8771 48.8H17.4011V48.884C17.4371 49.76 18.0011 50.288 18.8531 50.288C19.5371 50.288 20.0171 49.988 20.1611 49.412H21.8291C21.6371 50.612 20.5691 51.572 18.9251 51.572ZM17.4371 47.696H20.2211C20.1011 46.94 19.5851 46.52 18.8171 46.52C18.0851 46.52 17.5331 46.964 17.4371 47.696ZM22.5148 49.448H24.1228C24.1828 49.988 24.6508 50.36 25.4788 50.36C26.1868 50.36 26.6188 50.132 26.6188 49.7C26.6188 49.196 26.1988 49.16 25.2028 49.028C23.7628 48.86 22.6468 48.536 22.6468 47.264C22.6468 46.04 23.7148 45.236 25.2988 45.248C26.9548 45.248 28.0948 45.98 28.1788 47.24H26.5588C26.5108 46.748 26.0428 46.448 25.3588 46.448C24.6988 46.448 24.2668 46.688 24.2668 47.084C24.2668 47.552 24.7948 47.6 25.6828 47.708C27.0988 47.852 28.2748 48.176 28.2748 49.568C28.2748 50.792 27.1228 51.572 25.4668 51.572C23.7508 51.572 22.5868 50.768 22.5148 49.448Z" fill="#131313"/>
<path d="M37.5863 51.5V50.648L40.8503 47.816C41.6303 47.144 42.2783 46.496 42.2783 45.584C42.2783 44.528 41.5583 43.928 40.4423 43.928C39.3623 43.928 38.6423 44.648 38.6423 45.8V45.956H37.6343V45.74C37.6343 44.156 38.7503 43.028 40.4423 43.028C42.2543 43.028 43.3103 44.024 43.3103 45.536C43.3103 46.796 42.4943 47.588 41.4983 48.44L38.9783 50.576H43.3703V51.5H37.5863ZM45.7481 44.012V43.1H46.7321V51.5H45.7241V45.476C45.6041 45.584 45.4121 45.632 45.1481 45.632H43.7921V44.732H45.1601C45.5561 44.732 45.7481 44.432 45.7481 44.012ZM48.1165 50.9C48.1165 50.492 48.4045 50.228 48.8005 50.228C49.1965 50.228 49.4845 50.492 49.4845 50.9C49.4845 51.308 49.1965 51.572 48.8005 51.572C48.4045 51.572 48.1165 51.308 48.1165 50.9ZM52.9995 51.572C51.4755 51.572 50.4315 50.66 50.2275 49.256H51.2355C51.4275 50.108 52.0275 50.684 53.0475 50.684C54.5115 50.684 55.3155 49.352 55.3155 47.456C55.3155 47.336 55.3155 47.252 55.3035 47.048C55.2915 47.096 55.2795 47.168 55.2315 47.276C54.8595 48.104 54.0195 48.656 52.8915 48.656C51.2355 48.656 50.0715 47.564 50.0715 45.848C50.0715 44.228 51.2595 43.028 52.9875 43.028C54.1515 43.028 55.0035 43.556 55.5315 44.42C55.9515 45.152 56.1915 46.16 56.1915 47.264C56.1915 49.904 55.0035 51.572 52.9995 51.572ZM52.9635 47.768C54.1275 47.768 54.9195 46.976 54.9195 45.824C54.9195 44.696 54.1515 43.916 52.9995 43.916C51.8355 43.916 51.0795 44.72 51.0795 45.848C51.0795 46.964 51.7995 47.768 52.9635 47.768ZM59.0451 42.812C59.6371 42.812 60.0851 43.048 60.3891 43.52C60.6931 43.984 60.8451 44.64 60.8451 45.488C60.8451 46.336 60.6971 47 60.4011 47.48C60.1131 47.952 59.6611 48.188 59.0451 48.188C58.6691 48.188 58.3491 48.08 58.0851 47.864C57.8211 47.648 57.6211 47.34 57.4851 46.94C57.3571 46.532 57.2931 46.048 57.2931 45.488C57.2931 44.64 57.4331 43.984 57.7131 43.52C57.9931 43.048 58.4371 42.812 59.0451 42.812ZM59.0451 43.556C58.7411 43.556 58.5171 43.72 58.3731 44.048C58.2371 44.368 58.1691 44.848 58.1691 45.488C58.1691 46.128 58.2371 46.612 58.3731 46.94C58.5171 47.268 58.7411 47.432 59.0451 47.432C59.3571 47.432 59.5891 47.272 59.7411 46.952C59.8931 46.624 59.9691 46.136 59.9691 45.488C59.9691 44.848 59.8931 44.368 59.7411 44.048C59.5891 43.72 59.3571 43.556 59.0451 43.556ZM64.5291 42.932L59.7771 51.5H58.8531L63.6051 42.932H64.5291ZM64.2891 46.244C64.6811 46.244 65.0091 46.352 65.2731 46.568C65.5371 46.776 65.7371 47.08 65.8731 47.48C66.0171 47.872 66.0891 48.352 66.0891 48.92C66.0891 49.768 65.9411 50.432 65.6451 50.912C65.3571 51.384 64.9051 51.62 64.2891 51.62C63.9131 51.62 63.5931 51.512 63.3291 51.296C63.0651 51.08 62.8651 50.772 62.7291 50.372C62.6011 49.964 62.5371 49.48 62.5371 48.92C62.5371 48.072 62.6771 47.416 62.9571 46.952C63.2371 46.48 63.6811 46.244 64.2891 46.244ZM64.2891 47C63.9851 47 63.7611 47.16 63.6171 47.48C63.4811 47.8 63.4131 48.28 63.4131 48.92C63.4131 49.568 63.4811 50.056 63.6171 50.384C63.7611 50.704 63.9851 50.864 64.2891 50.864C64.6011 50.864 64.8331 50.704 64.9851 50.384C65.1371 50.064 65.2131 49.576 65.2131 48.92C65.2131 48.28 65.1371 47.8 64.9851 47.48C64.8331 47.16 64.6011 47 64.2891 47Z" fill="#131313"/>
<mask id="path-6-inside-1_538_2877" fill="white">
<path d="M105 32H349V62H105V32Z"/>
</mask>
<path d="M105 32H349V62H105V32Z" fill="#89CDFF"/>
<path d="M349 32H350V31H349V32ZM349 62V63H350V62H349ZM105 33H349V31H105V33ZM348 32V62H350V32H348ZM349 61H105V63H349V61Z" fill="#131313" mask="url(#path-6-inside-1_538_2877)"/>
<path d="M115.685 51.5H113.921V43.1H115.553L119.117 48.392V43.1H120.893V51.5H119.249L115.685 46.208V51.5ZM125.204 51.572C123.236 51.572 121.952 50.312 121.952 48.416C121.952 46.52 123.236 45.26 125.204 45.26C127.172 45.26 128.456 46.52 128.456 48.416C128.456 50.324 127.172 51.572 125.204 51.572ZM125.204 50.192C126.152 50.192 126.74 49.46 126.74 48.416C126.74 47.372 126.152 46.64 125.204 46.64C124.256 46.64 123.68 47.372 123.68 48.416C123.68 49.46 124.256 50.192 125.204 50.192Z" fill="#131313"/>
<path d="M137.445 44.024V43.1H143.373V43.808L139.245 51.5H138.153L142.269 44.024H137.445ZM148.246 47.156C149.182 47.372 149.926 48.092 149.926 49.244C149.926 50.6 148.762 51.572 146.866 51.572C144.97 51.572 143.806 50.6 143.806 49.244C143.806 48.104 144.538 47.372 145.486 47.156C144.682 46.976 144.046 46.268 144.046 45.26C144.046 43.94 145.15 43.028 146.866 43.028C148.582 43.028 149.686 43.94 149.686 45.26C149.686 46.22 149.062 46.976 148.246 47.156ZM145.078 45.26C145.078 46.088 145.786 46.64 146.866 46.64C147.946 46.64 148.654 46.088 148.654 45.26C148.654 44.444 147.946 43.892 146.866 43.892C145.786 43.892 145.078 44.444 145.078 45.26ZM146.866 50.708C148.066 50.708 148.894 50.072 148.894 49.172C148.894 48.284 148.066 47.648 146.866 47.648C145.666 47.648 144.838 48.284 144.838 49.172C144.838 50.072 145.678 50.708 146.866 50.708ZM150.698 50.9C150.698 50.492 150.986 50.228 151.382 50.228C151.778 50.228 152.066 50.492 152.066 50.9C152.066 51.308 151.778 51.572 151.382 51.572C150.986 51.572 150.698 51.308 150.698 50.9ZM153.85 44.012V43.1H154.834V51.5H153.826V45.476C153.706 45.584 153.514 45.632 153.25 45.632H151.894V44.732H153.262C153.658 44.732 153.85 44.432 153.85 44.012ZM158.006 42.812C158.598 42.812 159.046 43.048 159.35 43.52C159.654 43.984 159.806 44.64 159.806 45.488C159.806 46.336 159.658 47 159.362 47.48C159.074 47.952 158.622 48.188 158.006 48.188C157.63 48.188 157.31 48.08 157.046 47.864C156.782 47.648 156.582 47.34 156.446 46.94C156.318 46.532 156.254 46.048 156.254 45.488C156.254 44.64 156.394 43.984 156.674 43.52C156.954 43.048 157.398 42.812 158.006 42.812ZM158.006 43.556C157.702 43.556 157.478 43.72 157.334 44.048C157.198 44.368 157.13 44.848 157.13 45.488C157.13 46.128 157.198 46.612 157.334 46.94C157.478 47.268 157.702 47.432 158.006 47.432C158.318 47.432 158.55 47.272 158.702 46.952C158.854 46.624 158.93 46.136 158.93 45.488C158.93 44.848 158.854 44.368 158.702 44.048C158.55 43.72 158.318 43.556 158.006 43.556ZM163.49 42.932L158.738 51.5H157.814L162.566 42.932H163.49ZM163.25 46.244C163.642 46.244 163.97 46.352 164.234 46.568C164.498 46.776 164.698 47.08 164.834 47.48C164.978 47.872 165.05 48.352 165.05 48.92C165.05 49.768 164.902 50.432 164.606 50.912C164.318 51.384 163.866 51.62 163.25 51.62C162.874 51.62 162.554 51.512 162.29 51.296C162.026 51.08 161.826 50.772 161.69 50.372C161.562 49.964 161.498 49.48 161.498 48.92C161.498 48.072 161.638 47.416 161.918 46.952C162.198 46.48 162.642 46.244 163.25 46.244ZM163.25 47C162.946 47 162.722 47.16 162.578 47.48C162.442 47.8 162.374 48.28 162.374 48.92C162.374 49.568 162.442 50.056 162.578 50.384C162.722 50.704 162.946 50.864 163.25 50.864C163.562 50.864 163.794 50.704 163.946 50.384C164.098 50.064 164.174 49.576 164.174 48.92C164.174 48.28 164.098 47.8 163.946 47.48C163.794 47.16 163.562 47 163.25 47Z" fill="#131313"/>
</svg>
