<svg width="359" height="257" viewBox="0 0 359 257" fill="none" xmlns="http://www.w3.org/2000/svg">
<path d="M161.564 8.24L163.328 8.264C163.388 9.08 164.036 9.644 165.068 9.644C165.896 9.644 166.508 9.284 166.508 8.624C166.508 7.916 165.824 7.772 164.42 7.496C163.004 7.232 161.756 6.776 161.756 5.072C161.756 3.584 162.992 2.528 164.888 2.528C166.868 2.528 168.128 3.56 168.152 5.168H166.388C166.304 4.46 165.764 3.968 164.888 3.968C164.12 3.968 163.568 4.292 163.568 4.94C163.568 5.624 164.228 5.768 165.62 6.032C167.06 6.296 168.332 6.728 168.32 8.42C168.308 9.992 167.012 11.072 165.044 11.072C162.908 11.072 161.576 9.944 161.564 8.24ZM170.12 4.172C169.568 4.172 169.136 3.764 169.136 3.224C169.136 2.672 169.568 2.264 170.12 2.264C170.672 2.264 171.104 2.672 171.104 3.224C171.104 3.764 170.672 4.172 170.12 4.172ZM169.268 11V4.832H170.972V11H169.268ZM175.679 4.76C177.011 4.76 178.151 5.468 178.151 7.58V11H176.459V7.748C176.459 6.704 176.063 6.152 175.211 6.152C174.335 6.152 173.831 6.776 173.831 7.844V11H172.139V4.832H173.615L173.771 5.6C174.167 5.12 174.731 4.76 175.679 4.76ZM183.753 5.684L183.897 4.832H185.385V10.82C185.385 12.344 184.449 13.472 182.085 13.472C180.369 13.472 179.193 12.692 179.109 11.264H180.813C180.969 11.852 181.437 12.188 182.217 12.188C183.165 12.188 183.729 11.72 183.729 10.76V10.112C183.321 10.628 182.709 10.964 181.845 10.964C180.189 10.976 178.977 9.764 178.977 7.856C178.977 5.972 180.189 4.748 181.833 4.748C182.721 4.748 183.345 5.144 183.753 5.684ZM182.217 9.608C183.141 9.608 183.717 8.9 183.717 7.88C183.717 6.848 183.141 6.116 182.217 6.116C181.293 6.116 180.705 6.836 180.705 7.868C180.705 8.9 181.293 9.608 182.217 9.608ZM186.565 11V2.6H188.257V11H186.565ZM192.484 11.072C190.432 11.072 189.196 9.836 189.196 7.928C189.196 6.008 190.456 4.76 192.364 4.76C194.212 4.76 195.46 5.912 195.484 7.724C195.484 7.904 195.472 8.108 195.436 8.3H190.96V8.384C190.996 9.26 191.56 9.788 192.412 9.788C193.096 9.788 193.576 9.488 193.72 8.912H195.388C195.196 10.112 194.128 11.072 192.484 11.072ZM190.996 7.196H193.78C193.66 6.44 193.144 6.02 192.376 6.02C191.644 6.02 191.092 6.464 190.996 7.196Z" fill="#131313"/>
<path d="M154.433 236L152.093 227.6L153.965 227.588L155.513 233.732L157.157 227.6H158.777L160.373 233.732L161.957 227.6H163.781L161.441 236H159.377L157.913 230.42L156.497 236H154.433ZM165.274 229.172C164.722 229.172 164.29 228.764 164.29 228.224C164.29 227.672 164.722 227.264 165.274 227.264C165.826 227.264 166.258 227.672 166.258 228.224C166.258 228.764 165.826 229.172 165.274 229.172ZM164.422 236V229.832H166.126V236H164.422ZM171.769 230.6V227.6H173.461V236H171.985L171.817 235.148C171.409 235.676 170.809 236.072 169.921 236.072C168.265 236.072 167.053 234.86 167.053 232.904C167.053 230.996 168.265 229.76 169.909 229.76C170.761 229.76 171.373 230.096 171.769 230.6ZM170.293 234.692C171.217 234.692 171.793 233.972 171.793 232.928C171.793 231.872 171.217 231.14 170.293 231.14C169.369 231.14 168.781 231.86 168.781 232.916C168.781 233.972 169.369 234.692 170.293 234.692ZM177.653 236.072C175.685 236.072 174.401 234.812 174.401 232.916C174.401 231.02 175.685 229.76 177.653 229.76C179.621 229.76 180.905 231.02 180.905 232.916C180.905 234.824 179.621 236.072 177.653 236.072ZM177.653 234.692C178.601 234.692 179.189 233.96 179.189 232.916C179.189 231.872 178.601 231.14 177.653 231.14C176.705 231.14 176.129 231.872 176.129 232.916C176.129 233.96 176.705 234.692 177.653 234.692ZM183.041 236L181.025 229.832H182.813L184.049 234.176L185.213 229.832H186.737L187.865 234.188L189.125 229.832H190.853L188.825 236H187.025L185.945 232.28L184.841 236H183.041ZM194.271 236.072C192.219 236.072 190.983 234.836 190.983 232.928C190.983 231.008 192.243 229.76 194.151 229.76C195.999 229.76 197.247 230.912 197.271 232.724C197.271 232.904 197.259 233.108 197.223 233.3H192.747V233.384C192.783 234.26 193.347 234.788 194.199 234.788C194.883 234.788 195.363 234.488 195.507 233.912H197.175C196.983 235.112 195.915 236.072 194.271 236.072ZM192.783 232.196H195.567C195.447 231.44 194.931 231.02 194.163 231.02C193.431 231.02 192.879 231.464 192.783 232.196ZM202.671 230.6V227.6H204.363V236H202.887L202.719 235.148C202.311 235.676 201.711 236.072 200.823 236.072C199.167 236.072 197.955 234.86 197.955 232.904C197.955 230.996 199.167 229.76 200.811 229.76C201.663 229.76 202.275 230.096 202.671 230.6ZM201.195 234.692C202.119 234.692 202.695 233.972 202.695 232.928C202.695 231.872 202.119 231.14 201.195 231.14C200.271 231.14 199.683 231.86 199.683 232.916C199.683 233.972 200.271 234.692 201.195 234.692Z" fill="#131313"/>
<path d="M157.155 191H154.095V182.6H157.155C159.771 182.6 161.511 184.316 161.511 186.788C161.511 189.248 159.771 191 157.155 191ZM155.895 184.1V189.5H157.155C158.763 189.5 159.663 188.384 159.663 186.788C159.663 185.18 158.763 184.1 157.155 184.1H155.895ZM163.323 184.172C162.771 184.172 162.339 183.764 162.339 183.224C162.339 182.672 162.771 182.264 163.323 182.264C163.875 182.264 164.307 182.672 164.307 183.224C164.307 183.764 163.875 184.172 163.323 184.172ZM162.471 191V184.832H164.175V191H162.471ZM166.962 191L164.742 184.832H166.554L168.042 189.272L169.506 184.832H171.282L169.062 191H166.962ZM174.565 191.072C172.597 191.072 171.313 189.812 171.313 187.916C171.313 186.02 172.597 184.76 174.565 184.76C176.533 184.76 177.817 186.02 177.817 187.916C177.817 189.824 176.533 191.072 174.565 191.072ZM174.565 189.692C175.513 189.692 176.101 188.96 176.101 187.916C176.101 186.872 175.513 186.14 174.565 186.14C173.617 186.14 173.041 186.872 173.041 187.916C173.041 188.96 173.617 189.692 174.565 189.692ZM182.216 184.832H182.504V186.368H181.832C180.824 186.368 180.44 187.04 180.44 187.976V191H178.748V184.832H180.284L180.44 185.756C180.776 185.204 181.256 184.832 182.216 184.832ZM185.965 191.072C184.009 191.072 182.821 189.86 182.821 187.916C182.821 186.008 184.069 184.76 186.025 184.76C187.705 184.76 188.749 185.672 188.989 187.136H187.225C187.081 186.524 186.661 186.14 186.001 186.14C185.113 186.14 184.549 186.872 184.549 187.916C184.549 188.972 185.113 189.692 186.001 189.692C186.661 189.692 187.105 189.296 187.225 188.672H189.001C188.761 190.148 187.645 191.072 185.965 191.072ZM192.941 191.072C190.889 191.072 189.653 189.836 189.653 187.928C189.653 186.008 190.913 184.76 192.821 184.76C194.669 184.76 195.917 185.912 195.941 187.724C195.941 187.904 195.929 188.108 195.893 188.3H191.417V188.384C191.453 189.26 192.017 189.788 192.869 189.788C193.553 189.788 194.033 189.488 194.177 188.912H195.845C195.653 190.112 194.585 191.072 192.941 191.072ZM191.453 187.196H194.237C194.117 186.44 193.601 186.02 192.833 186.02C192.101 186.02 191.549 186.464 191.453 187.196ZM201.341 185.6V182.6H203.033V191H201.557L201.389 190.148C200.981 190.676 200.381 191.072 199.493 191.072C197.837 191.072 196.625 189.86 196.625 187.904C196.625 185.996 197.837 184.76 199.481 184.76C200.333 184.76 200.945 185.096 201.341 185.6ZM199.865 189.692C200.789 189.692 201.365 188.972 201.365 187.928C201.365 186.872 200.789 186.14 199.865 186.14C198.941 186.14 198.353 186.86 198.353 187.916C198.353 188.972 198.941 189.692 199.865 189.692Z" fill="#131313"/>
<path d="M141.794 143.24L143.558 143.264C143.618 144.08 144.266 144.644 145.298 144.644C146.126 144.644 146.738 144.284 146.738 143.624C146.738 142.916 146.054 142.772 144.65 142.496C143.234 142.232 141.986 141.776 141.986 140.072C141.986 138.584 143.222 137.528 145.118 137.528C147.098 137.528 148.358 138.56 148.382 140.168H146.618C146.534 139.46 145.994 138.968 145.118 138.968C144.35 138.968 143.798 139.292 143.798 139.94C143.798 140.624 144.458 140.768 145.85 141.032C147.29 141.296 148.562 141.728 148.55 143.42C148.538 144.992 147.242 146.072 145.274 146.072C143.138 146.072 141.806 144.944 141.794 143.24ZM150.35 139.172C149.798 139.172 149.366 138.764 149.366 138.224C149.366 137.672 149.798 137.264 150.35 137.264C150.902 137.264 151.334 137.672 151.334 138.224C151.334 138.764 150.902 139.172 150.35 139.172ZM149.498 146V139.832H151.202V146H149.498ZM155.909 139.76C157.241 139.76 158.381 140.468 158.381 142.58V146H156.689V142.748C156.689 141.704 156.293 141.152 155.441 141.152C154.565 141.152 154.061 141.776 154.061 142.844V146H152.369V139.832H153.845L154.001 140.6C154.397 140.12 154.961 139.76 155.909 139.76ZM163.983 140.684L164.127 139.832H165.615V145.82C165.615 147.344 164.679 148.472 162.315 148.472C160.599 148.472 159.423 147.692 159.339 146.264H161.043C161.199 146.852 161.667 147.188 162.447 147.188C163.395 147.188 163.959 146.72 163.959 145.76V145.112C163.551 145.628 162.939 145.964 162.075 145.964C160.419 145.976 159.207 144.764 159.207 142.856C159.207 140.972 160.419 139.748 162.063 139.748C162.951 139.748 163.575 140.144 163.983 140.684ZM162.447 144.608C163.371 144.608 163.947 143.9 163.947 142.88C163.947 141.848 163.371 141.116 162.447 141.116C161.523 141.116 160.935 141.836 160.935 142.868C160.935 143.9 161.523 144.608 162.447 144.608ZM166.795 146V137.6H168.487V146H166.795ZM172.714 146.072C170.662 146.072 169.426 144.836 169.426 142.928C169.426 141.008 170.686 139.76 172.594 139.76C174.442 139.76 175.69 140.912 175.714 142.724C175.714 142.904 175.702 143.108 175.666 143.3H171.19V143.384C171.226 144.26 171.79 144.788 172.642 144.788C173.326 144.788 173.806 144.488 173.95 143.912H175.618C175.426 145.112 174.358 146.072 172.714 146.072ZM171.226 142.196H174.01C173.89 141.44 173.374 141.02 172.606 141.02C171.874 141.02 171.322 141.464 171.226 142.196ZM179.747 146V137.6H183.167C184.991 137.6 186.203 138.692 186.203 140.396C186.203 142.088 184.991 143.18 183.167 143.18H181.547V146H179.747ZM182.999 139.1H181.547V141.68H182.999C183.839 141.68 184.379 141.188 184.379 140.396C184.379 139.592 183.839 139.1 182.999 139.1ZM192.597 144.572H192.789V146H191.925C191.049 146 190.773 145.58 190.785 144.992C190.353 145.676 189.729 146.072 188.769 146.072C187.437 146.072 186.477 145.436 186.477 144.26C186.477 142.952 187.461 142.208 189.309 142.208H190.533V141.908C190.533 141.356 190.137 140.996 189.429 140.996C188.769 140.996 188.325 141.296 188.253 141.752H186.621C186.741 140.552 187.845 139.76 189.477 139.76C191.205 139.76 192.201 140.528 192.201 142.004V144.188C192.201 144.512 192.333 144.572 192.597 144.572ZM190.533 143.456V143.336H189.297C188.589 143.336 188.181 143.624 188.181 144.14C188.181 144.572 188.529 144.848 189.093 144.848C189.981 144.848 190.521 144.296 190.533 143.456ZM196.911 139.832H197.199V141.368H196.527C195.519 141.368 195.135 142.04 195.135 142.976V146H193.443V139.832H194.979L195.135 140.756C195.471 140.204 195.951 139.832 196.911 139.832ZM200.804 146.072C198.752 146.072 197.516 144.836 197.516 142.928C197.516 141.008 198.776 139.76 200.684 139.76C202.532 139.76 203.78 140.912 203.804 142.724C203.804 142.904 203.792 143.108 203.756 143.3H199.28V143.384C199.316 144.26 199.88 144.788 200.732 144.788C201.416 144.788 201.896 144.488 202.04 143.912H203.708C203.516 145.112 202.448 146.072 200.804 146.072ZM199.316 142.196H202.1C201.98 141.44 201.464 141.02 200.696 141.02C199.964 141.02 199.412 141.464 199.316 142.196ZM208.269 139.76C209.601 139.76 210.741 140.468 210.741 142.58V146H209.049V142.748C209.049 141.704 208.653 141.152 207.801 141.152C206.925 141.152 206.421 141.776 206.421 142.844V146H204.729V139.832H206.205L206.361 140.6C206.757 140.12 207.321 139.76 208.269 139.76ZM212.251 144.236V141.26H211.231V139.832H212.251V138.104H213.943V139.832H215.359V141.26H213.943V143.96C213.943 144.392 214.111 144.572 214.555 144.572H215.395V146H214.015C212.839 146 212.251 145.412 212.251 144.236Z" fill="#131313"/>
<path d="M91.8626 101V92.6H94.2266L96.5546 98.768L98.8106 92.6H101.127V101H99.4106V95.372L97.2266 101H95.7626L93.5786 95.372V101H91.8626ZM108.31 99.572H108.502V101H107.638C106.762 101 106.486 100.58 106.498 99.992C106.066 100.676 105.442 101.072 104.482 101.072C103.15 101.072 102.19 100.436 102.19 99.26C102.19 97.952 103.174 97.208 105.022 97.208H106.246V96.908C106.246 96.356 105.85 95.996 105.142 95.996C104.482 95.996 104.038 96.296 103.966 96.752H102.334C102.454 95.552 103.558 94.76 105.19 94.76C106.918 94.76 107.914 95.528 107.914 97.004V99.188C107.914 99.512 108.046 99.572 108.31 99.572ZM106.246 98.456V98.336H105.01C104.302 98.336 103.894 98.624 103.894 99.14C103.894 99.572 104.242 99.848 104.806 99.848C105.694 99.848 106.234 99.296 106.246 98.456ZM112.624 94.832H112.912V96.368H112.24C111.232 96.368 110.848 97.04 110.848 97.976V101H109.156V94.832H110.692L110.848 95.756C111.184 95.204 111.664 94.832 112.624 94.832ZM117.136 94.832H117.424V96.368H116.752C115.744 96.368 115.36 97.04 115.36 97.976V101H113.668V94.832H115.204L115.36 95.756C115.696 95.204 116.176 94.832 117.136 94.832ZM119.032 94.172C118.48 94.172 118.048 93.764 118.048 93.224C118.048 92.672 118.48 92.264 119.032 92.264C119.584 92.264 120.016 92.672 120.016 93.224C120.016 93.764 119.584 94.172 119.032 94.172ZM118.18 101V94.832H119.884V101H118.18ZM124.099 101.072C122.047 101.072 120.811 99.836 120.811 97.928C120.811 96.008 122.071 94.76 123.979 94.76C125.827 94.76 127.075 95.912 127.099 97.724C127.099 97.904 127.087 98.108 127.051 98.3H122.575V98.384C122.611 99.26 123.175 99.788 124.027 99.788C124.711 99.788 125.191 99.488 125.335 98.912H127.003C126.811 100.112 125.743 101.072 124.099 101.072ZM122.611 97.196H125.395C125.275 96.44 124.759 96.02 123.991 96.02C123.259 96.02 122.707 96.464 122.611 97.196ZM132.5 95.6V92.6H134.192V101H132.716L132.548 100.148C132.14 100.676 131.54 101.072 130.652 101.072C128.996 101.072 127.784 99.86 127.784 97.904C127.784 95.996 128.996 94.76 130.64 94.76C131.492 94.76 132.104 95.096 132.5 95.6ZM131.024 99.692C131.948 99.692 132.524 98.972 132.524 97.928C132.524 96.872 131.948 96.14 131.024 96.14C130.1 96.14 129.512 96.86 129.512 97.916C129.512 98.972 130.1 99.692 131.024 99.692ZM139.679 92.432L136.487 101H134.867L138.059 92.432H139.679ZM144.132 101.072C141.636 101.072 140.124 99.38 140.124 96.8C140.124 94.22 141.696 92.528 144.24 92.528C146.232 92.528 147.636 93.776 147.852 95.6H146.028C145.812 94.664 145.14 94.052 144.144 94.052C142.776 94.052 141.96 95.18 141.96 96.8C141.96 98.408 142.764 99.548 144.12 99.548C145.14 99.548 145.812 98.936 146.028 98H147.84C147.636 99.824 146.184 101.072 144.132 101.072ZM151.743 101.072C149.775 101.072 148.491 99.812 148.491 97.916C148.491 96.02 149.775 94.76 151.743 94.76C153.711 94.76 154.995 96.02 154.995 97.916C154.995 99.824 153.711 101.072 151.743 101.072ZM151.743 99.692C152.691 99.692 153.279 98.96 153.279 97.916C153.279 96.872 152.691 96.14 151.743 96.14C150.795 96.14 150.219 96.872 150.219 97.916C150.219 98.96 150.795 99.692 151.743 99.692ZM160.042 97.916V94.832H161.734V101H160.234L160.078 100.256C159.682 100.736 159.142 101.072 158.266 101.072C156.994 101.072 155.818 100.436 155.818 98.252V94.832H157.51V98.024C157.51 99.128 157.87 99.668 158.71 99.668C159.55 99.668 160.042 99.056 160.042 97.916ZM166.45 94.76C168.118 94.748 169.318 95.984 169.318 97.928C169.318 99.848 168.118 101.072 166.462 101.072C165.61 101.072 164.998 100.724 164.602 100.22V103.4H162.91V94.832H164.386L164.554 95.684C164.95 95.156 165.574 94.76 166.45 94.76ZM166.078 99.692C167.002 99.692 167.602 98.96 167.602 97.904C167.602 96.86 167.002 96.14 166.078 96.14C165.154 96.14 164.578 96.86 164.578 97.904C164.578 98.96 165.154 99.692 166.078 99.692ZM170.258 101V92.6H171.95V101H170.258ZM176.177 101.072C174.125 101.072 172.889 99.836 172.889 97.928C172.889 96.008 174.149 94.76 176.057 94.76C177.905 94.76 179.153 95.912 179.177 97.724C179.177 97.904 179.165 98.108 179.129 98.3H174.653V98.384C174.689 99.26 175.253 99.788 176.105 99.788C176.789 99.788 177.269 99.488 177.413 98.912H179.081C178.889 100.112 177.821 101.072 176.177 101.072ZM174.689 97.196H177.473C177.353 96.44 176.837 96.02 176.069 96.02C175.337 96.02 174.785 96.464 174.689 97.196ZM184.578 95.6V92.6H186.27V101H184.794L184.626 100.148C184.218 100.676 183.618 101.072 182.73 101.072C181.074 101.072 179.862 99.86 179.862 97.904C179.862 95.996 181.074 94.76 182.718 94.76C183.57 94.76 184.182 95.096 184.578 95.6ZM183.102 99.692C184.026 99.692 184.602 98.972 184.602 97.928C184.602 96.872 184.026 96.14 183.102 96.14C182.178 96.14 181.59 96.86 181.59 97.916C181.59 98.972 182.178 99.692 183.102 99.692ZM192.226 101L189.886 92.6L191.758 92.588L193.306 98.732L194.95 92.6H196.57L198.166 98.732L199.75 92.6H201.574L199.234 101H197.17L195.706 95.42L194.29 101H192.226ZM203.067 94.172C202.515 94.172 202.083 93.764 202.083 93.224C202.083 92.672 202.515 92.264 203.067 92.264C203.619 92.264 204.051 92.672 204.051 93.224C204.051 93.764 203.619 94.172 203.067 94.172ZM202.215 101V94.832H203.919V101H202.215ZM205.53 99.236V96.26H204.51V94.832H205.53V93.104H207.222V94.832H208.638V96.26H207.222V98.96C207.222 99.392 207.39 99.572 207.834 99.572H208.674V101H207.294C206.118 101 205.53 100.412 205.53 99.236ZM212.973 94.76C214.341 94.76 215.469 95.492 215.469 97.58V101H213.777V97.724C213.777 96.716 213.369 96.152 212.529 96.152C211.665 96.152 211.149 96.776 211.149 97.832V101H209.457V92.6H211.149V95.588C211.545 95.108 212.097 94.76 212.973 94.76ZM223.316 101.072C220.82 101.072 219.308 99.38 219.308 96.8C219.308 94.22 220.88 92.528 223.424 92.528C225.416 92.528 226.82 93.776 227.036 95.6H225.212C224.996 94.664 224.324 94.052 223.328 94.052C221.96 94.052 221.144 95.18 221.144 96.8C221.144 98.408 221.948 99.548 223.304 99.548C224.324 99.548 224.996 98.936 225.212 98H227.024C226.82 99.824 225.368 101.072 223.316 101.072ZM231.43 94.76C232.798 94.76 233.926 95.492 233.926 97.58V101H232.234V97.724C232.234 96.716 231.826 96.152 230.986 96.152C230.122 96.152 229.606 96.776 229.606 97.832V101H227.914V92.6H229.606V95.588C230.002 95.108 230.554 94.76 231.43 94.76ZM235.844 94.172C235.292 94.172 234.86 93.764 234.86 93.224C234.86 92.672 235.292 92.264 235.844 92.264C236.396 92.264 236.828 92.672 236.828 93.224C236.828 93.764 236.396 94.172 235.844 94.172ZM234.992 101V94.832H236.696V101H234.992ZM237.863 101V92.6H239.555V101H237.863ZM245.21 95.6V92.6H246.902V101H245.426L245.258 100.148C244.85 100.676 244.25 101.072 243.362 101.072C241.706 101.072 240.494 99.86 240.494 97.904C240.494 95.996 241.706 94.76 243.35 94.76C244.202 94.76 244.814 95.096 245.21 95.6ZM243.734 99.692C244.658 99.692 245.234 98.972 245.234 97.928C245.234 96.872 244.658 96.14 243.734 96.14C242.81 96.14 242.222 96.86 242.222 97.916C242.222 98.972 242.81 99.692 243.734 99.692ZM251.55 94.832H251.838V96.368H251.166C250.158 96.368 249.774 97.04 249.774 97.976V101H248.082V94.832H249.618L249.774 95.756C250.11 95.204 250.59 94.832 251.55 94.832ZM255.443 101.072C253.391 101.072 252.155 99.836 252.155 97.928C252.155 96.008 253.415 94.76 255.323 94.76C257.171 94.76 258.419 95.912 258.443 97.724C258.443 97.904 258.431 98.108 258.395 98.3H253.919V98.384C253.955 99.26 254.519 99.788 255.371 99.788C256.055 99.788 256.535 99.488 256.679 98.912H258.347C258.155 100.112 257.087 101.072 255.443 101.072ZM253.955 97.196H256.739C256.619 96.44 256.103 96.02 255.335 96.02C254.603 96.02 254.051 96.464 253.955 97.196ZM262.907 94.76C264.239 94.76 265.379 95.468 265.379 97.58V101H263.687V97.748C263.687 96.704 263.291 96.152 262.439 96.152C261.563 96.152 261.059 96.776 261.059 97.844V101H259.367V94.832H260.843L260.999 95.6C261.395 95.12 261.959 94.76 262.907 94.76Z" fill="#131313"/>
<path d="M130.861 56V47.6H133.225L135.553 53.768L137.809 47.6H140.125V56H138.409V50.372L136.225 56H134.761L132.577 50.372V56H130.861ZM147.308 54.572H147.5V56H146.636C145.76 56 145.484 55.58 145.496 54.992C145.064 55.676 144.44 56.072 143.48 56.072C142.148 56.072 141.188 55.436 141.188 54.26C141.188 52.952 142.172 52.208 144.02 52.208H145.244V51.908C145.244 51.356 144.848 50.996 144.14 50.996C143.48 50.996 143.036 51.296 142.964 51.752H141.332C141.452 50.552 142.556 49.76 144.188 49.76C145.916 49.76 146.912 50.528 146.912 52.004V54.188C146.912 54.512 147.044 54.572 147.308 54.572ZM145.244 53.456V53.336H144.008C143.3 53.336 142.892 53.624 142.892 54.14C142.892 54.572 143.24 54.848 143.804 54.848C144.692 54.848 145.232 54.296 145.244 53.456ZM151.622 49.832H151.91V51.368H151.238C150.23 51.368 149.846 52.04 149.846 52.976V56H148.154V49.832H149.69L149.846 50.756C150.182 50.204 150.662 49.832 151.622 49.832ZM156.134 49.832H156.422V51.368H155.75C154.742 51.368 154.358 52.04 154.358 52.976V56H152.666V49.832H154.202L154.358 50.756C154.694 50.204 155.174 49.832 156.134 49.832ZM158.03 49.172C157.478 49.172 157.046 48.764 157.046 48.224C157.046 47.672 157.478 47.264 158.03 47.264C158.582 47.264 159.014 47.672 159.014 48.224C159.014 48.764 158.582 49.172 158.03 49.172ZM157.178 56V49.832H158.882V56H157.178ZM163.097 56.072C161.045 56.072 159.809 54.836 159.809 52.928C159.809 51.008 161.069 49.76 162.977 49.76C164.825 49.76 166.073 50.912 166.097 52.724C166.097 52.904 166.085 53.108 166.049 53.3H161.573V53.384C161.609 54.26 162.173 54.788 163.025 54.788C163.709 54.788 164.189 54.488 164.333 53.912H166.001C165.809 55.112 164.741 56.072 163.097 56.072ZM161.609 52.196H164.393C164.273 51.44 163.757 51.02 162.989 51.02C162.257 51.02 161.705 51.464 161.609 52.196ZM171.498 50.6V47.6H173.19V56H171.714L171.546 55.148C171.138 55.676 170.538 56.072 169.65 56.072C167.994 56.072 166.782 54.86 166.782 52.904C166.782 50.996 167.994 49.76 169.638 49.76C170.49 49.76 171.102 50.096 171.498 50.6ZM170.022 54.692C170.946 54.692 171.522 53.972 171.522 52.928C171.522 51.872 170.946 51.14 170.022 51.14C169.098 51.14 168.51 51.86 168.51 52.916C168.51 53.972 169.098 54.692 170.022 54.692ZM178.677 47.432L175.485 56H173.865L177.057 47.432H178.677ZM183.13 56.072C180.634 56.072 179.122 54.38 179.122 51.8C179.122 49.22 180.694 47.528 183.238 47.528C185.23 47.528 186.634 48.776 186.85 50.6H185.026C184.81 49.664 184.138 49.052 183.142 49.052C181.774 49.052 180.958 50.18 180.958 51.8C180.958 53.408 181.762 54.548 183.118 54.548C184.138 54.548 184.81 53.936 185.026 53H186.838C186.634 54.824 185.182 56.072 183.13 56.072ZM190.741 56.072C188.773 56.072 187.489 54.812 187.489 52.916C187.489 51.02 188.773 49.76 190.741 49.76C192.709 49.76 193.993 51.02 193.993 52.916C193.993 54.824 192.709 56.072 190.741 56.072ZM190.741 54.692C191.689 54.692 192.277 53.96 192.277 52.916C192.277 51.872 191.689 51.14 190.741 51.14C189.793 51.14 189.217 51.872 189.217 52.916C189.217 53.96 189.793 54.692 190.741 54.692ZM199.04 52.916V49.832H200.732V56H199.232L199.076 55.256C198.68 55.736 198.14 56.072 197.264 56.072C195.992 56.072 194.816 55.436 194.816 53.252V49.832H196.508V53.024C196.508 54.128 196.868 54.668 197.708 54.668C198.548 54.668 199.04 54.056 199.04 52.916ZM205.448 49.76C207.116 49.748 208.316 50.984 208.316 52.928C208.316 54.848 207.116 56.072 205.46 56.072C204.608 56.072 203.996 55.724 203.6 55.22V58.4H201.908V49.832H203.384L203.552 50.684C203.948 50.156 204.572 49.76 205.448 49.76ZM205.076 54.692C206 54.692 206.6 53.96 206.6 52.904C206.6 51.86 206 51.14 205.076 51.14C204.152 51.14 203.576 51.86 203.576 52.904C203.576 53.96 204.152 54.692 205.076 54.692ZM209.256 56V47.6H210.948V56H209.256ZM215.175 56.072C213.123 56.072 211.887 54.836 211.887 52.928C211.887 51.008 213.147 49.76 215.055 49.76C216.903 49.76 218.151 50.912 218.175 52.724C218.175 52.904 218.163 53.108 218.127 53.3H213.651V53.384C213.687 54.26 214.251 54.788 215.103 54.788C215.787 54.788 216.267 54.488 216.411 53.912H218.079C217.887 55.112 216.819 56.072 215.175 56.072ZM213.687 52.196H216.471C216.351 51.44 215.835 51.02 215.067 51.02C214.335 51.02 213.783 51.464 213.687 52.196ZM223.576 50.6V47.6H225.268V56H223.792L223.624 55.148C223.216 55.676 222.616 56.072 221.728 56.072C220.072 56.072 218.86 54.86 218.86 52.904C218.86 50.996 220.072 49.76 221.716 49.76C222.568 49.76 223.18 50.096 223.576 50.6ZM222.1 54.692C223.024 54.692 223.6 53.972 223.6 52.928C223.6 51.872 223.024 51.14 222.1 51.14C221.176 51.14 220.588 51.86 220.588 52.916C220.588 53.972 221.176 54.692 222.1 54.692Z" fill="#131313"/>
<rect x="0.75" y="17.75" width="357.5" height="13.5" fill="#FDD7CD" stroke="#131313" stroke-width="1.5"/>
<rect x="0.75" y="62.75" width="357.5" height="13.5" fill="#FDD7CD" stroke="#131313" stroke-width="1.5"/>
<rect x="0.75" y="107.75" width="357.5" height="13.5" fill="#FDD7CD" stroke="#131313" stroke-width="1.5"/>
<rect x="0.75" y="152.75" width="357.5" height="13.5" fill="#FDD7CD" stroke="#131313" stroke-width="1.5"/>
<rect x="0.75" y="197.75" width="357.5" height="13.5" fill="#FDD7CD" stroke="#131313" stroke-width="1.5"/>
<rect x="0.75" y="242.75" width="357.5" height="13.5" fill="#FDD7CD" stroke="#131313" stroke-width="1.5"/>
<mask id="path-13-inside-1_203_15918" fill="white">
<path d="M141 17L179 17L179 32L141 32L141 17Z"/>
</mask>
<path d="M141 17L179 17L179 32L141 32L141 17Z" fill="#FD9DAF"/>
<path d="M141 17L141 15.5H139.5L139.5 17H141ZM141 32H139.5L139.5 33.5H141L141 32ZM141 18.5L179 18.5L179 15.5L141 15.5L141 18.5ZM179 30.5L141 30.5L141 33.5L179 33.5L179 30.5ZM142.5 32L142.5 17H139.5L139.5 32H142.5Z" fill="#131313" mask="url(#path-13-inside-1_203_15918)"/>
<mask id="path-15-inside-2_203_15918" fill="white">
<path d="M161 62H179L179 77H161L161 62Z"/>
</mask>
<path d="M161 62H179L179 77H161L161 62Z" fill="#FD9DAF"/>
<path d="M161 62L161 60.5H159.5L159.5 62H161ZM161 77H159.5L159.5 78.5H161L161 77ZM161 63.5H179L179 60.5H161L161 63.5ZM179 75.5H161L161 78.5H179L179 75.5ZM162.5 77L162.5 62H159.5L159.5 77H162.5Z" fill="#131313" mask="url(#path-15-inside-2_203_15918)"/>
<mask id="path-17-inside-3_203_15918" fill="white">
<path d="M152 107H179L179 122H152L152 107Z"/>
</mask>
<path d="M152 107H179L179 122H152L152 107Z" fill="#FD9DAF"/>
<path d="M152 107L152 105.5H150.5L150.5 107H152ZM152 122H150.5L150.5 123.5H152L152 122ZM152 108.5H179L179 105.5H152L152 108.5ZM179 120.5H152L152 123.5H179L179 120.5ZM153.5 122L153.5 107H150.5L150.5 122H153.5Z" fill="#131313" mask="url(#path-17-inside-3_203_15918)"/>
<mask id="path-19-inside-4_203_15918" fill="white">
<path d="M91 152H179L179 167H91L91 152Z"/>
</mask>
<path d="M91 152H179L179 167H91L91 152Z" fill="#FD9DAF"/>
<path d="M91 152L91 150.5H89.5L89.5 152H91ZM91 167H89.5L89.5 168.5H91L91 167ZM91 153.5H179L179 150.5H91L91 153.5ZM179 165.5H91L91 168.5H179L179 165.5ZM92.5 167L92.5 152H89.5L89.5 167H92.5Z" fill="#131313" mask="url(#path-19-inside-4_203_15918)"/>
<mask id="path-21-inside-5_203_15918" fill="white">
<path d="M103 197H179L179 212H103L103 197Z"/>
</mask>
<path d="M103 197H179L179 212H103L103 197Z" fill="#FD9DAF"/>
<path d="M103 197L103 195.5H101.5L101.5 197H103ZM103 212H101.5L101.5 213.5H103L103 212ZM103 198.5H179L179 195.5H103L103 198.5ZM179 210.5H103L103 213.5H179L179 210.5ZM104.5 212L104.5 197H101.5L101.5 212H104.5Z" fill="#131313" mask="url(#path-21-inside-5_203_15918)"/>
<mask id="path-23-inside-6_203_15918" fill="white">
<path d="M70 242L179 242L179 257H70L70 242Z"/>
</mask>
<path d="M70 242L179 242L179 257H70L70 242Z" fill="#FD9DAF"/>
<path d="M70 242L70 240.5H68.5L68.5 242H70ZM70 257H68.5L68.5 258.5H70L70 257ZM70 243.5L179 243.5L179 240.5L70 240.5L70 243.5ZM179 255.5L70 255.5L70 258.5H179L179 255.5ZM71.5 257L71.5 242H68.5L68.5 257H71.5Z" fill="#131313" mask="url(#path-23-inside-6_203_15918)"/>
<mask id="path-25-inside-7_203_15918" fill="white">
<path d="M179 17L342 17L342 32L179 32L179 17Z"/>
</mask>
<path d="M179 17L342 17L342 32L179 32L179 17Z" fill="#89CDFF"/>
<path d="M179 17L179 15.5H177.5L177.5 17H179ZM342 17H343.5L343.5 15.5H342L342 17ZM342 32L342 33.5H343.5L343.5 32H342ZM179 32H177.5L177.5 33.5H179L179 32ZM179 18.5L342 18.5L342 15.5L179 15.5L179 18.5ZM340.5 17L340.5 32H343.5L343.5 17H340.5ZM342 30.5L179 30.5L179 33.5L342 33.5L342 30.5ZM180.5 32L180.5 17H177.5L177.5 32H180.5Z" fill="#131313" mask="url(#path-25-inside-7_203_15918)"/>
<mask id="path-27-inside-8_203_15918" fill="white">
<path d="M179 62L342 62L342 77L179 77L179 62Z"/>
</mask>
<path d="M179 62L342 62L342 77L179 77L179 62Z" fill="#89CDFF"/>
<path d="M179 62L179 60.5H177.5L177.5 62H179ZM342 62H343.5L343.5 60.5H342L342 62ZM342 77L342 78.5H343.5L343.5 77H342ZM179 77H177.5L177.5 78.5H179L179 77ZM179 63.5L342 63.5L342 60.5L179 60.5L179 63.5ZM340.5 62L340.5 77H343.5L343.5 62H340.5ZM342 75.5L179 75.5L179 78.5L342 78.5L342 75.5ZM180.5 77L180.5 62H177.5L177.5 77H180.5Z" fill="#131313" mask="url(#path-27-inside-8_203_15918)"/>
<mask id="path-29-inside-9_203_15918" fill="white">
<path d="M179 107L266 107L266 122L179 122L179 107Z"/>
</mask>
<path d="M179 107L266 107L266 122L179 122L179 107Z" fill="#89CDFF"/>
<path d="M179 107L179 105.5H177.5L177.5 107H179ZM266 107H267.5L267.5 105.5H266L266 107ZM266 122L266 123.5H267.5L267.5 122H266ZM179 122H177.5L177.5 123.5H179L179 122ZM179 108.5L266 108.5L266 105.5L179 105.5L179 108.5ZM264.5 107L264.5 122H267.5L267.5 107H264.5ZM266 120.5L179 120.5L179 123.5L266 123.5L266 120.5ZM180.5 122L180.5 107H177.5L177.5 122H180.5Z" fill="#131313" mask="url(#path-29-inside-9_203_15918)"/>
<mask id="path-31-inside-10_203_15918" fill="white">
<path d="M179 152L287 152L287 167L179 167L179 152Z"/>
</mask>
<path d="M179 152L287 152L287 167L179 167L179 152Z" fill="#89CDFF"/>
<path d="M179 152L179 150.5H177.5L177.5 152H179ZM287 152H288.5L288.5 150.5H287L287 152ZM287 167L287 168.5H288.5L288.5 167H287ZM179 167H177.5L177.5 168.5H179L179 167ZM179 153.5L287 153.5L287 150.5L179 150.5L179 153.5ZM285.5 152L285.5 167H288.5L288.5 152H285.5ZM287 165.5L179 165.5L179 168.5L287 168.5L287 165.5ZM180.5 167L180.5 152H177.5L177.5 167H180.5Z" fill="#131313" mask="url(#path-31-inside-10_203_15918)"/>
<mask id="path-33-inside-11_203_15918" fill="white">
<path d="M179 197H216L216 212H179L179 197Z"/>
</mask>
<path d="M179 197H216L216 212H179L179 197Z" fill="#89CDFF"/>
<path d="M179 197L179 195.5H177.5L177.5 197H179ZM216 197H217.5L217.5 195.5H216L216 197ZM216 212L216 213.5H217.5L217.5 212H216ZM179 212H177.5L177.5 213.5H179L179 212ZM179 198.5H216L216 195.5H179L179 198.5ZM214.5 197L214.5 212H217.5L217.5 197H214.5ZM216 210.5H179L179 213.5H216L216 210.5ZM180.5 212L180.5 197H177.5L177.5 212H180.5Z" fill="#131313" mask="url(#path-33-inside-11_203_15918)"/>
<mask id="path-35-inside-12_203_15918" fill="white">
<path d="M179 242H204L204 257H179L179 242Z"/>
</mask>
<path d="M179 242H204L204 257H179L179 242Z" fill="#89CDFF"/>
<path d="M179 242L179 240.5H177.5L177.5 242H179ZM204 242H205.5L205.5 240.5H204L204 242ZM204 257L204 258.5H205.5L205.5 257H204ZM179 257H177.5L177.5 258.5H179L179 257ZM179 243.5H204L204 240.5H179L179 243.5ZM202.5 242L202.5 257H205.5L205.5 242H202.5ZM204 255.5H179L179 258.5H204L204 255.5ZM180.5 257L180.5 242H177.5L177.5 257H180.5Z" fill="#131313" mask="url(#path-35-inside-12_203_15918)"/>
</svg>
